<svg width="179" height="40" fill="none" xmlns="http://www.w3.org/2000/svg"><g clip-path="url(#a)"><path d="M85.745 26.057v-6.483c0-.17-.112-.282-.28-.282h-2.13v-2.537h2.13c.168 0 .28-.113.28-.282v-4.059h3.026v4.06c0 .168.112.281.28.281h2.97v2.537h-2.97c-.168 0-.28.113-.28.282v5.75c0 2.706.953 2.932 2.186 2.932.448 0 1.12-.057 1.512-.113v2.65c-.504.056-1.344.169-2.297.169-1.177-.057-4.427-.057-4.427-4.905Zm82.261 1.579 2.465-1.297c.561 1.297 1.625 2.142 2.858 2.142.953 0 2.017-.395 2.017-1.578 0-.79-.504-1.24-1.681-1.635l-1.681-.564c-2.353-.733-3.53-2.086-3.53-4.003 0-2.424 2.017-4.228 4.763-4.228 2.185 0 4.035 1.184 4.931 3.045l-2.465 1.352c-.561-1.183-1.457-1.86-2.522-1.86-1.065 0-1.793.564-1.793 1.41 0 .732.56 1.296 1.681 1.634l1.681.564c2.466.79 3.642 2.142 3.642 4.003 0 2.931-2.521 4.454-5.043 4.454-2.521-.057-4.539-1.354-5.323-3.44Zm-9.302-2.537c-.056.056-.112.112-.112.169v5.412h-3.082V10.667h3.082v10.936c0 .113.056.226.168.226.112.056.224 0 .28-.056l4.987-5.074h3.755l-5.828 5.92c-.112.112-.112.225 0 .337l6.332 7.724h-3.754l-4.876-6.089c-.056-.056-.112-.113-.168-.113-.056 0-.112 0-.168.057l-.616.564Zm-4.707-6.483-1.961 1.86c-1.121-.846-2.242-1.24-3.475-1.24-2.577 0-4.483 1.916-4.483 4.51 0 2.593 1.906 4.51 4.483 4.51 1.121 0 2.298-.395 3.531-1.24l1.737 1.86c-2.522 1.86-3.867 2.198-5.604 2.198-2.073 0-3.922-.732-5.267-2.086-1.289-1.296-2.018-3.213-2.018-5.242 0-4.228 3.082-7.33 7.341-7.33 1.401 0 3.474.226 5.716 2.2Zm-14.457-6.033c0 1.015-.841 1.86-1.85 1.86-1.008 0-1.849-.845-1.849-1.86 0-1.014.841-1.86 1.849-1.86 1.009 0 1.85.846 1.85 1.86Zm-.281 18.097h-3.082V16.755h3.082V30.68Zm-9.806-6.089v6.145h-3.082V16.812h3.026v1.69a.31.31 0 0 0 .168.283c.112.056.224 0 .28-.113a4.49 4.49 0 0 1 3.811-2.142c.224 0 .392 0 .504.056v3.157c-.168-.056-.448-.056-.728-.056-2.466-.057-3.979 1.86-3.979 4.904Zm-16.531-.845c0-2.537 1.906-4.51 4.371-4.51 2.466 0 4.371 1.973 4.371 4.51s-1.905 4.51-4.371 4.51c-2.465 0-4.371-1.974-4.371-4.51Zm.281 5.299h.112c.056 0 .168.056.224.113 1.065 1.24 2.634 1.916 4.427 1.916 3.81 0 6.724-3.213 6.724-7.328 0-2.03-.672-3.834-1.961-5.243-1.233-1.353-2.97-2.086-4.819-2.086-1.737 0-3.362.733-4.427 2.03-.056.056-.168.112-.28.056-.112-.057-.168-.113-.168-.226v-7.554h-3.082v20.013h3.082v-1.41c0-.168.056-.225.168-.281Zm-12.777-.79c-2.409 0-4.37-1.973-4.37-4.51 0-2.536 1.905-4.51 4.37-4.51 2.466 0 4.371 1.974 4.371 4.51 0 2.537-1.961 4.51-4.371 4.51Zm7.229 2.425V16.755h-3.026v1.41c0 .112-.056.225-.168.225-.112.056-.224 0-.28-.056-1.009-1.24-2.578-1.917-4.427-1.917-3.81 0-6.724 3.213-6.724 7.329 0 4.115 2.97 7.329 6.724 7.329 1.737 0 3.362-.733 4.427-2.03.056-.113.168-.113.28-.057.112.057.168.113.168.226v1.522h3.026v-.056Zm-33.173-2.424c-2.41 0-4.37-1.974-4.37-4.51 0-2.537 1.904-4.51 4.37-4.51 2.41 0 4.37 1.973 4.37 4.51s-1.96 4.51-4.37 4.51Zm7.229 2.424V16.755h-3.026v1.41c0 .112-.056.225-.169.225-.112.056-.224 0-.28-.056-1.008-1.24-2.577-1.917-4.427-1.917-3.81 0-6.724 3.213-6.724 7.329 0 4.115 2.97 7.329 6.725 7.329 1.737 0 3.362-.733 4.426-2.03.056-.113.168-.113.28-.057.113.057.169.113.169.226v1.522h3.026v-.056Zm-23.592-2.424c-2.465 0-4.37-1.974-4.37-4.51 0-2.537 1.905-4.51 4.37-4.51 2.41 0 4.371 1.973 4.371 4.51s-1.961 4.51-4.37 4.51Zm7.23 2.424V10.723h-3.083v7.498c0 .113-.056.225-.168.225-.112.057-.224 0-.28-.056-1.065-1.24-2.634-1.917-4.427-1.917-3.81 0-6.724 3.214-6.724 7.33 0 2.029.672 3.833 1.96 5.242 1.234 1.353 2.97 2.086 4.82 2.086 1.737 0 3.362-.733 4.427-2.03.056-.056.168-.113.28-.056.112.056.168.113.168.225v1.466h3.026v-.056Z" fill="#020202"/><path d="m35.303 16.687-16.7 9.471L.842 16.067l-.841.45v7.33l18.604 10.598 16.699-9.47v3.889l-16.7 9.471L.842 28.244l-.841.45v1.241l18.604 10.599 18.66-10.599v-7.329l-.84-.45-17.82 10.09-16.643-9.47v-3.834l16.643 9.415 18.66-10.599v-7.216l-.953-.507L18.604 20.07 2.858 11.106l15.746-8.907 13 7.328 1.177-.62v-.902L18.604 0 0 10.542v1.128l18.604 10.598 16.699-9.47v3.89Z" fill="#FF3621"/></g><defs><clipPath id="a"><path fill="#fff" d="M0 0h178.667v40H0z"/></clipPath></defs></svg>