<svg width="119" height="40" fill="none" xmlns="http://www.w3.org/2000/svg">
  <path d="M48.79 15.478h-1.531l-.766-2.123h-3.23l-.72 2.123h-1.505l3.112-8.336h1.555l3.085 8.336Zm-2.626-3.248-1.148-3.325a3.925 3.925 0 0 1-.111-.523h-.039a3.476 3.476 0 0 1-.115.523l-1.148 3.325h2.56ZM54.436 10.09l-3.204 4.336h3.204v1.052h-5.072v-.492l3.273-4.392h-2.96V9.542h4.759v.549ZM60.672 15.478h-1.344v-.94h-.023a1.937 1.937 0 0 1-1.807 1.082c-1.4 0-2.102-.845-2.105-2.534V9.53h1.34v3.417c0 1.07.41 1.605 1.232 1.605a1.244 1.244 0 0 0 .984-.442c.265-.323.402-.734.383-1.152V9.534h1.343l-.003 5.944ZM65.694 10.813a1.108 1.108 0 0 0-.7-.192 1.196 1.196 0 0 0-.988.526 2.421 2.421 0 0 0-.383 1.47v2.85h-1.37V9.514h1.343v1.248h.027c.105-.377.315-.717.605-.98.25-.225.574-.351.91-.352.192-.01.383.028.556.111v1.27ZM71.639 12.87h-4.043a1.721 1.721 0 0 0 .506 1.276c.368.318.846.482 1.332.456a2.927 2.927 0 0 0 1.745-.568v1.087a3.975 3.975 0 0 1-2.143.51 2.648 2.648 0 0 1-2.056-.81 3.25 3.25 0 0 1-.743-2.28 3.177 3.177 0 0 1 .831-2.277 2.68 2.68 0 0 1 2.037-.876 2.332 2.332 0 0 1 1.883.768c.477.623.713 1.397.666 2.181l-.015.534Zm-1.298-.955c.021-.405-.1-.804-.34-1.129a1.147 1.147 0 0 0-.927-.407 1.302 1.302 0 0 0-.984.426c-.28.307-.453.696-.494 1.11h2.745ZM75.953 15.148v-1.425c.138.124.29.23.455.315.18.094.367.172.56.234.192.064.389.114.589.15.179.034.36.052.543.054.45.03.9-.071 1.294-.292a.955.955 0 0 0 .425-.845.924.924 0 0 0-.142-.514 1.507 1.507 0 0 0-.383-.384 4.21 4.21 0 0 0-.6-.346l-.74-.345c-.28-.151-.543-.305-.788-.461a3.412 3.412 0 0 1-.643-.526 2.147 2.147 0 0 1-.42-.637 2.076 2.076 0 0 1-.154-.83 1.925 1.925 0 0 1 .264-1.021c.176-.288.414-.532.697-.714.302-.194.635-.336.984-.419a4.668 4.668 0 0 1 1.125-.138 4.516 4.516 0 0 1 1.914.296v1.367a3.029 3.029 0 0 0-1.818-.511c-.206 0-.41.019-.613.057-.19.035-.373.1-.543.192a1.18 1.18 0 0 0-.383.342.843.843 0 0 0-.15.507.958.958 0 0 0 .115.484c.086.15.202.281.341.384.17.126.353.237.544.33.214.107.462.223.742.345.28.123.554.282.82.477.245.158.473.343.677.553.191.196.348.423.463.671.118.264.177.552.172.841a1.975 1.975 0 0 1-.941 1.778 3.056 3.056 0 0 1-.995.384c-.39.083-.788.125-1.187.123a6.363 6.363 0 0 1-1.156-.13 5.798 5.798 0 0 1-.601-.15 1.906 1.906 0 0 1-.467-.196ZM87.356 9.527l-2.68 6.91c-.556 1.232-1.337 1.848-2.342 1.848a2.805 2.805 0 0 1-.708-.077v-1.121c.186.064.38.1.578.103a1.191 1.191 0 0 0 1.125-.745l.383-.975-2.358-5.94h1.489l1.45 4.305c.016.053.05.197.104.43h.03c.021-.09.056-.23.104-.419l1.485-4.335 1.34.016ZM93.527 15.478h-1.344v-3.352c0-1.11-.392-1.666-1.175-1.666a1.283 1.283 0 0 0-1.014.46 1.72 1.72 0 0 0-.383 1.152v3.394h-1.352v-5.95h1.352v.986h.023a2.117 2.117 0 0 1 1.914-1.129 1.787 1.787 0 0 1 1.477.63 2.84 2.84 0 0 1 .51 1.823l-.008 3.652ZM99.64 15.478h-1.305v-.93h-.023a1.967 1.967 0 0 1-1.803 1.072 1.91 1.91 0 0 1-1.37-.476 1.665 1.665 0 0 1-.495-1.26c0-1.123.646-1.779 1.937-1.965l1.761-.25c0-.847-.402-1.27-1.206-1.27-.706-.001-1.388.26-1.913.733v-1.18a4.159 4.159 0 0 1 2.166-.556c1.498 0 2.247.74 2.247 2.22l.004 3.862Zm-1.298-2.922-1.244.173c-.309.024-.608.12-.873.28a.825.825 0 0 0-.29.722.793.793 0 0 0 .267.618c.2.173.46.264.724.253a1.327 1.327 0 0 0 1.018-.433c.273-.3.416-.697.398-1.102v-.511ZM102.526 14.602h-.023v3.613h-1.343V9.527h1.343v1.044h.023a2.21 2.21 0 0 1 2.017-1.187 2.118 2.118 0 0 1 1.761.795c.449.62.672 1.374.632 2.139a3.714 3.714 0 0 1-.712 2.384 2.354 2.354 0 0 1-1.948.895 1.938 1.938 0 0 1-1.75-.995Zm-.034-2.35v.738c-.011.408.137.805.413 1.106a1.469 1.469 0 0 0 1.142.45 1.459 1.459 0 0 0 1.082-.581 2.724 2.724 0 0 0 .425-1.632 2.143 2.143 0 0 0-.383-1.374 1.298 1.298 0 0 0-1.075-.496 1.445 1.445 0 0 0-1.149.511c-.304.355-.466.81-.455 1.279ZM107.885 15.293v-1.247c.479.37 1.069.565 1.673.556.812 0 1.217-.24 1.217-.722a.568.568 0 0 0-.103-.345.995.995 0 0 0-.279-.253 2.215 2.215 0 0 0-.418-.2l-.536-.196a5.795 5.795 0 0 1-.658-.307 1.983 1.983 0 0 1-.486-.384 1.4 1.4 0 0 1-.291-.468 1.738 1.738 0 0 1-.1-.61 1.42 1.42 0 0 1 .203-.769c.138-.222.324-.411.544-.553.235-.153.494-.267.765-.338a3.56 3.56 0 0 1 .9-.11 4.08 4.08 0 0 1 1.47.249v1.178a2.475 2.475 0 0 0-1.436-.43 1.851 1.851 0 0 0-.459.054c-.124.03-.243.079-.352.146a.715.715 0 0 0-.226.223.532.532 0 0 0-.08.288.62.62 0 0 0 .08.326.735.735 0 0 0 .241.234c.121.075.249.136.383.184l.513.185c.234.094.462.2.685.319.19.102.363.232.517.383.14.135.252.297.329.477.081.203.12.421.115.64.007.279-.064.553-.207.792a1.74 1.74 0 0 1-.555.556 2.6 2.6 0 0 1-.804.327 4.161 4.161 0 0 1-.957.107 4.03 4.03 0 0 1-1.688-.292ZM118.336 12.87h-4.043a1.715 1.715 0 0 0 .506 1.276 1.88 1.88 0 0 0 1.328.449 2.928 2.928 0 0 0 1.745-.568v1.086a3.972 3.972 0 0 1-2.143.51 2.646 2.646 0 0 1-2.056-.81 3.252 3.252 0 0 1-.746-2.28 3.174 3.174 0 0 1 .819-2.265 2.668 2.668 0 0 1 2.036-.876 2.336 2.336 0 0 1 1.884.768 3.27 3.27 0 0 1 .666 2.181l.004.53Zm-1.298-.955c.021-.405-.1-.804-.341-1.129a1.146 1.146 0 0 0-.926-.403 1.305 1.305 0 0 0-.984.426c-.28.307-.453.696-.494 1.11l2.745-.004ZM48.79 29.76h-1.531l-.766-2.122h-3.23l-.72 2.123h-1.505l3.112-8.336h1.555l3.085 8.336Zm-2.626-3.255-1.148-3.325a3.93 3.93 0 0 1-.123-.514 3.387 3.387 0 0 1-.115.522l-1.148 3.325 2.534-.008ZM54.995 29.76H53.65V26.41c0-1.11-.392-1.666-1.175-1.666a1.283 1.283 0 0 0-1.014.46 1.72 1.72 0 0 0-.383 1.152v3.394h-1.367v-5.932h1.352v.987h.023A2.117 2.117 0 0 1 53 23.675a1.786 1.786 0 0 1 1.478.63 2.84 2.84 0 0 1 .517 1.816v3.64ZM61.108 29.76h-1.286v-.928h-.038a1.967 1.967 0 0 1-1.803 1.07 1.91 1.91 0 0 1-1.37-.475 1.666 1.666 0 0 1-.494-1.26c0-1.123.645-1.779 1.936-1.965l1.761-.25c0-.847-.402-1.27-1.206-1.27-.706-.002-1.387.26-1.913.733v-1.18a4.16 4.16 0 0 1 2.166-.556c1.498 0 2.247.74 2.247 2.22v3.862Zm-1.286-2.921-1.244.173c-.309.023-.608.12-.873.28a.824.824 0 0 0-.29.722.793.793 0 0 0 .267.618c.201.168.458.255.72.242a1.33 1.33 0 0 0 1.018-.434c.27-.295.414-.683.402-1.083v-.518ZM63.983 29.76h-1.351v-8.807h1.35v8.808ZM70.843 23.817l-2.68 6.911c-.556 1.232-1.337 1.847-2.343 1.847a2.804 2.804 0 0 1-.708-.077v-1.12c.186.064.381.099.578.103a1.191 1.191 0 0 0 1.126-.745l.382-.975-2.335-5.944h1.49l1.412 4.323c.015.054.05.198.103.43h.03c.019-.089.053-.229.104-.418l1.485-4.335h1.356ZM75.164 29.7a2.324 2.324 0 0 1-1.037.195c-1.151 0-1.727-.554-1.727-1.662v-3.364h-.99v-1.052h.99V22.44l1.344-.384v1.762h1.42v1.056h-1.42v2.976c-.027.27.04.542.192.768a.793.793 0 0 0 .639.226.925.925 0 0 0 .59-.195V29.7ZM76.84 22.562a.806.806 0 0 1-.566-.215.706.706 0 0 1-.233-.546.727.727 0 0 1 .233-.552.795.795 0 0 1 .567-.22.822.822 0 0 1 .578.22.722.722 0 0 1 .237.553.717.717 0 0 1-.237.537.814.814 0 0 1-.578.223Zm.667 7.199h-1.344v-5.944h1.344v5.944ZM83.368 29.488a3.307 3.307 0 0 1-1.685.411 2.848 2.848 0 0 1-2.132-.83 2.934 2.934 0 0 1-.811-2.146 3.237 3.237 0 0 1 .872-2.36 3.12 3.12 0 0 1 2.332-.892c.492-.01.98.087 1.431.285v1.255a2.163 2.163 0 0 0-1.32-.465 1.832 1.832 0 0 0-1.398.58 2.12 2.12 0 0 0-.543 1.513 2.022 2.022 0 0 0 .513 1.459 1.818 1.818 0 0 0 1.374.534 2.148 2.148 0 0 0 1.367-.519v1.175ZM84.32 29.576V28.33a2.674 2.674 0 0 0 1.662.576c.811 0 1.217-.241 1.217-.722a.57.57 0 0 0-.103-.346.993.993 0 0 0-.28-.253 2.21 2.21 0 0 0-.417-.2l-.536-.196a5.747 5.747 0 0 1-.658-.307 1.997 1.997 0 0 1-.486-.384 1.391 1.391 0 0 1-.291-.468 1.724 1.724 0 0 1-.1-.61c-.007-.27.063-.537.203-.768.138-.223.324-.412.544-.553.235-.153.494-.267.765-.338.294-.076.596-.113.9-.112.501-.008 1 .077 1.47.25v1.179a2.475 2.475 0 0 0-1.436-.43 1.852 1.852 0 0 0-.459.053c-.124.03-.243.079-.352.146a.709.709 0 0 0-.226.223.535.535 0 0 0-.08.288.616.616 0 0 0 .08.326.737.737 0 0 0 .241.235c.121.074.25.136.383.184l.513.184c.234.095.462.2.685.319.19.103.366.232.52.384.141.134.253.296.33.476.081.204.12.422.115.641a1.47 1.47 0 0 1-.207.79c-.14.226-.33.417-.555.558-.248.153-.52.263-.804.326a4.155 4.155 0 0 1-.957.107 4.026 4.026 0 0 1-1.68-.31Z" fill="#000"/>
  <path d="M17.39 0 0 9.983V29.91L17.39 40l17.39-9.983V10.021L17.39 0Zm14.164 27.932-14.164 8.22-14.178-8.124V11.956l14.163-8.22 14.163 8.243.016 15.953Z" fill="#0078D4"/>
  <path d="M25.678 23.279a1.62 1.62 0 0 0-.716-.626 12.958 12.958 0 0 0-4.01-4.99 12.907 12.907 0 0 0-5.904-2.455l14.35-8.316-3.337-1.92-16.35 9.472a1.665 1.665 0 0 0-.774 1.877 1.666 1.666 0 0 0 1.609 1.233c.067-.012.134-.029.199-.05l.276 1.152a9.543 9.543 0 0 1 6.219.638 9.583 9.583 0 0 1 4.499 4.354l-16.284 9.43 3.322 1.92 16.292-9.446c.217-.13.401-.311.536-.526l.165-.038c0-.066-.039-.123-.054-.189a1.636 1.636 0 0 0-.038-1.52Z" fill="#50E6FF"/>
  <path d="M24.235 20.03a4.09 4.09 0 0 0-2.278.694 4.124 4.124 0 0 0-.621 6.327 4.096 4.096 0 0 0 4.468.89 4.103 4.103 0 0 0 1.84-1.514 4.121 4.121 0 0 0-.51-5.192 4.093 4.093 0 0 0-2.9-1.204Zm-13.693-8.327a4.09 4.09 0 0 0-2.278.693 4.124 4.124 0 0 0-.621 6.327 4.096 4.096 0 0 0 4.468.891 4.103 4.103 0 0 0 1.84-1.515 4.12 4.12 0 0 0-.51-5.192 4.093 4.093 0 0 0-2.899-1.204Z" fill="url(#a)"/>
  <defs>
    <linearGradient id="a" x1="17.39" y1="28.251" x2="17.39" y2="11.749" gradientUnits="userSpaceOnUse">
      <stop stop-color="#198AB3"/>
      <stop offset=".17" stop-color="#32BEDD"/>
      <stop offset=".5" stop-color="#198AB3"/>
      <stop offset=".66" stop-color="#32BEDD"/>
      <stop offset=".97" stop-color="#50E6FF"/>
    </linearGradient>
  </defs>
</svg>
