<svg width="72" height="72" fill="none" xmlns="http://www.w3.org/2000/svg"><path fill-rule="evenodd" clip-rule="evenodd" d="M65.972 10.29c0 5.681-13.221 10.288-29.531 10.288S6.911 15.971 6.911 10.29C6.911 4.607 20.131 0 36.441 0c16.31 0 29.531 4.607 29.531 10.29z" fill="#92C9EC"/><path fill-rule="evenodd" clip-rule="evenodd" d="M36.441 25.922c-15.792 0-28.65-4.322-29.453-9.755H6.91v9.898c0 5.684 13.222 10.289 29.531 10.289 16.31 0 29.532-4.605 29.532-10.29v-9.897h-.078c-.802 5.433-13.661 9.755-29.454 9.755z" fill="#92C9EC"/><path fill-rule="evenodd" clip-rule="evenodd" d="M36.441 41.813c-15.792 0-28.65-4.323-29.453-9.755H6.91v9.898c0 5.683 13.222 10.289 29.531 10.289 16.31 0 29.532-4.605 29.532-10.29v-9.897h-.078c-.802 5.432-13.661 9.755-29.454 9.755z" fill="#92C9EC"/><path fill-rule="evenodd" clip-rule="evenodd" d="M36.441 56.637c-15.792 0-28.65-4.323-29.453-9.755H6.91v9.898c0 5.683 13.222 10.289 29.531 10.289 16.31 0 29.532-4.606 29.532-10.29v-9.93c-.803 5.433-13.739 9.788-29.532 9.788z" fill="#92C9EC"/><path d="M57.605 42.151l-12.304 2.453v15.138c0 8.702 12.304 11.998 12.304 11.998S69.91 68.444 69.91 59.742V44.604l-12.304-2.453z" fill="#103654"/><path d="M51.453 55.946l6.02 5.164 7.31-10.328" stroke="#fff" stroke-width="2" stroke-linejoin="round"/></svg>