<svg width="62" height="37" fill="none" xmlns="http://www.w3.org/2000/svg"><path d="M17.608 13.499c0 .752.081 1.362.224 1.81.163.447.367.934.652 1.463a.883.883 0 01.143.468c0 .203-.122.406-.387.61l-1.284.853a.978.978 0 01-.53.183c-.204 0-.408-.101-.612-.284a6.298 6.298 0 01-.733-.956 15.728 15.728 0 01-.632-1.2c-1.59 1.871-3.587 2.806-5.992 2.806-1.711 0-3.077-.488-4.075-1.463-.999-.976-1.508-2.278-1.508-3.904 0-1.728.61-3.13 1.854-4.188C5.971 8.64 7.622 8.112 9.721 8.112c.693 0 1.406.06 2.16.162.754.102 1.529.264 2.344.447V7.237c0-1.545-.326-2.622-.958-3.252-.652-.63-1.753-.936-3.322-.936-.713 0-1.447.082-2.2.265-.755.183-1.489.406-2.202.691-.326.142-.57.224-.713.264-.143.04-.245.061-.326.061-.285 0-.428-.203-.428-.63v-.996c0-.325.04-.57.143-.712.101-.142.285-.284.57-.427.713-.366 1.57-.67 2.568-.914.999-.265 2.058-.387 3.18-.387 2.424 0 4.197.55 5.339 1.647 1.12 1.098 1.691 2.765 1.691 5.001V13.5h.04zm-8.274 3.09c.672 0 1.365-.122 2.099-.366.733-.244 1.386-.691 1.936-1.301.326-.386.57-.813.693-1.301a7.28 7.28 0 00.204-1.769v-.854a17.056 17.056 0 00-1.875-.345 15.377 15.377 0 00-1.916-.122c-1.365 0-2.364.264-3.036.813-.673.549-1 1.321-1 2.338 0 .955.245 1.667.755 2.155.489.508 1.202.752 2.14.752zm16.364 2.196c-.366 0-.61-.061-.774-.204-.163-.122-.306-.406-.428-.793l-4.79-15.714c-.121-.407-.183-.671-.183-.814 0-.325.163-.508.49-.508h1.997c.387 0 .652.061.795.204.163.121.285.406.407.792l3.424 13.459 3.18-13.459c.101-.406.223-.67.386-.792s.449-.204.815-.204h1.63c.388 0 .653.061.816.204.163.121.306.406.387.792l3.22 13.621 3.526-13.62c.122-.407.265-.672.407-.793.163-.122.428-.204.795-.204h1.895c.327 0 .51.163.51.508 0 .102-.02.204-.04.326a2.88 2.88 0 01-.143.508l-4.912 15.715c-.122.406-.265.67-.428.793-.163.122-.428.203-.774.203h-1.753c-.387 0-.652-.061-.815-.203-.163-.143-.306-.407-.387-.814L31.79 4.676l-3.137 13.092c-.102.407-.225.671-.388.813-.163.143-.448.204-.815.204h-1.753zm26.188.549c-1.06 0-2.12-.122-3.138-.366-1.02-.244-1.814-.509-2.344-.814-.326-.183-.55-.386-.632-.569a1.433 1.433 0 01-.122-.57V15.98c0-.427.163-.63.469-.63.122 0 .244.02.367.06.122.042.305.123.509.204.693.305 1.447.55 2.242.712.815.162 1.61.244 2.425.244 1.284 0 2.282-.224 2.975-.671.693-.447 1.06-1.098 1.06-1.931 0-.57-.183-1.037-.55-1.424-.367-.386-1.06-.731-2.059-1.057l-2.955-.915c-1.487-.467-2.588-1.158-3.26-2.073-.673-.895-1.02-1.89-1.02-2.948 0-.854.184-1.606.551-2.257a5.23 5.23 0 011.467-1.667A6.474 6.474 0 0149.991.57c.815-.244 1.67-.345 2.568-.345.448 0 .917.02 1.365.081.469.06.897.142 1.325.224.407.101.794.203 1.161.325s.652.244.856.366c.285.162.49.325.612.508.122.163.183.386.183.67v.956c0 .427-.163.65-.469.65-.163.001-.428-.08-.774-.243-1.162-.529-2.466-.793-3.913-.793-1.162 0-2.079.183-2.71.57-.632.386-.958.975-.958 1.809 0 .569.203 1.057.611 1.443.408.386 1.162.773 2.242 1.118l2.894.915c1.467.468 2.527 1.118 3.158 1.952.632.833.938 1.789.938 2.846 0 .874-.183 1.667-.53 2.358a5.47 5.47 0 01-1.488 1.79c-.631.507-1.385.873-2.262 1.138a9.713 9.713 0 01-2.914.427z" fill="#252F3E"/><path fill-rule="evenodd" clip-rule="evenodd" d="M55.738 29.214c-6.705 4.94-16.447 7.562-24.822 7.562C19.177 36.776 8.6 32.446.61 25.25c-.631-.569-.06-1.341.693-.894 8.641 5.001 19.3 8.03 30.325 8.03 7.438 0 15.61-1.545 23.13-4.716 1.121-.509 2.08.732.979 1.545z" fill="#F90"/><path fill-rule="evenodd" clip-rule="evenodd" d="M58.53 26.042c-.856-1.098-5.666-.528-7.846-.264-.652.081-.754-.488-.163-.915 3.831-2.683 10.128-1.91 10.862-1.016.734.915-.204 7.196-3.79 10.205-.55.468-1.08.224-.836-.386.815-2.013 2.629-6.546 1.773-7.624z" fill="#F90"/></svg>