<svg width="153" height="60" fill="none" xmlns="http://www.w3.org/2000/svg">
  <path d="M80.065 26H78.07l-.735-1.92h-4.59L72.01 26h-1.995l3.93-10.005h2.19L80.065 26Zm-3.225-3.465-1.8-4.77-1.8 4.77h3.6ZM90.009 26h-1.875l-1.95-7.38L84.249 26h-1.875l-2.865-10.005h1.965l1.95 7.71 2.07-7.71h1.395l2.07 7.71 1.935-7.71h1.965L90.009 26Zm7.445.18c-1.72 0-3.075-.53-4.065-1.59l.975-1.35c.86.92 1.915 1.38 3.165 1.38.67 0 1.17-.135 1.5-.405.34-.27.51-.59.51-.96 0-.38-.2-.68-.6-.9-.4-.23-.885-.41-1.455-.54a23.3 23.3 0 0 1-1.725-.465 3.316 3.316 0 0 1-1.455-.915c-.4-.43-.6-.985-.6-1.665 0-.84.335-1.535 1.005-2.085.68-.56 1.56-.84 2.64-.84 1.54 0 2.79.465 3.75 1.395l-1.005 1.305c-.76-.76-1.725-1.14-2.895-1.14-.52 0-.935.115-1.245.345-.3.22-.45.52-.45.9 0 .25.105.46.315.63.22.17.5.31.84.42.34.1.715.2 1.125.3.42.1.835.225 1.245.375.42.14.8.315 1.14.525.34.21.615.5.825.87.22.37.33.81.33 1.32 0 .9-.325 1.64-.975 2.22-.65.58-1.615.87-2.895.87Zm-22.969 18c-1.72 0-3.075-.53-4.065-1.59l.975-1.35c.86.92 1.915 1.38 3.165 1.38.67 0 1.17-.135 1.5-.405.34-.27.51-.59.51-.96 0-.38-.2-.68-.6-.9-.4-.23-.885-.41-1.455-.54a23.3 23.3 0 0 1-1.725-.465 3.316 3.316 0 0 1-1.455-.915c-.4-.43-.6-.985-.6-1.665 0-.84.335-1.535 1.005-2.085.68-.56 1.56-.84 2.64-.84 1.54 0 2.79.465 3.75 1.395l-1.005 1.305c-.76-.76-1.725-1.14-2.895-1.14-.52 0-.935.115-1.245.345-.3.22-.45.52-.45.9 0 .25.105.46.315.63.22.17.5.31.84.42.34.1.715.2 1.125.3.42.1.835.225 1.245.375.42.14.8.315 1.14.525.34.21.615.5.825.87.22.37.33.81.33 1.32 0 .9-.325 1.64-.975 2.22-.65.58-1.615.87-2.895.87ZM85.926 44h-1.575v-.78c-.56.64-1.34.96-2.34.96-.66 0-1.245-.21-1.755-.63-.51-.43-.765-1.02-.765-1.77 0-.77.25-1.355.75-1.755.51-.4 1.1-.6 1.77-.6 1.03 0 1.81.31 2.34.93v-1.08c0-.42-.155-.75-.465-.99-.31-.24-.72-.36-1.23-.36-.81 0-1.525.305-2.145.915l-.645-1.095c.82-.78 1.835-1.17 3.045-1.17.89 0 1.615.21 2.175.63.56.42.84 1.085.84 1.995V44Zm-3.3-.9c.79 0 1.365-.25 1.725-.75v-1.095c-.36-.5-.935-.75-1.725-.75-.45 0-.82.12-1.11.36-.29.24-.435.555-.435.945 0 .39.145.705.435.945.29.23.66.345 1.11.345Zm8.282 3.84c-1.23 0-2.24-.36-3.03-1.08l.735-1.14c.54.62 1.305.93 2.295.93.6 0 1.105-.16 1.515-.48.42-.31.63-.805.63-1.485v-.87c-.62.8-1.395 1.2-2.325 1.2-.95 0-1.725-.33-2.325-.99-.59-.66-.885-1.57-.885-2.73 0-1.15.295-2.055.885-2.715.6-.67 1.375-1.005 2.325-1.005.95 0 1.725.395 2.325 1.185v-1.005h1.575v6.87c0 .62-.11 1.155-.33 1.605-.21.46-.5.805-.87 1.035-.37.24-.765.41-1.185.51a5.14 5.14 0 0 1-1.335.165Zm.285-4.32c.36 0 .715-.095 1.065-.285.35-.19.615-.42.795-.69v-2.7c-.18-.27-.445-.5-.795-.69a2.21 2.21 0 0 0-1.065-.285c-.62 0-1.115.215-1.485.645-.37.42-.555.98-.555 1.68s.185 1.265.555 1.695c.37.42.865.63 1.485.63Zm8.821 1.56c-1.1 0-2.01-.35-2.73-1.05-.71-.71-1.065-1.63-1.065-2.76 0-1.06.345-1.955 1.035-2.685.7-.74 1.58-1.11 2.64-1.11 1.07 0 1.93.37 2.58 1.11.66.74.99 1.685.99 2.835v.375h-5.595c.06.57.295 1.045.705 1.425.41.38.945.57 1.605.57.37 0 .74-.07 1.11-.21.38-.14.695-.335.945-.585l.72 1.035c-.73.7-1.71 1.05-2.94 1.05Zm1.92-4.395c-.02-.5-.205-.945-.555-1.335-.34-.39-.835-.585-1.485-.585-.62 0-1.105.195-1.455.585a2.17 2.17 0 0 0-.585 1.335h4.08ZM115.459 44h-1.755v-7.425L110.629 44h-.75l-3.06-7.425V44h-1.755V33.995h2.475l2.715 6.585 2.73-6.585h2.475V44Zm8.084 0h-1.575v-.78c-.56.64-1.34.96-2.34.96-.66 0-1.245-.21-1.755-.63-.51-.43-.765-1.02-.765-1.77 0-.77.25-1.355.75-1.755.51-.4 1.1-.6 1.77-.6 1.03 0 1.81.31 2.34.93v-1.08c0-.42-.155-.75-.465-.99-.31-.24-.72-.36-1.23-.36-.81 0-1.525.305-2.145.915l-.645-1.095c.82-.78 1.835-1.17 3.045-1.17.89 0 1.615.21 2.175.63.56.42.84 1.085.84 1.995V44Zm-3.3-.9c.79 0 1.365-.25 1.725-.75v-1.095c-.36-.5-.935-.75-1.725-.75-.45 0-.82.12-1.11.36-.29.24-.435.555-.435.945 0 .39.145.705.435.945.29.23.66.345 1.11.345Zm12.122.9h-1.98l-2.22-2.985-1.005 1.035V44h-1.575V33.995h1.575v6.255l3.195-3.495h1.95l-3.015 3.285 3.075 3.96Zm4.388.18c-1.1 0-2.01-.35-2.73-1.05-.71-.71-1.065-1.63-1.065-2.76 0-1.06.345-1.955 1.035-2.685.7-.74 1.58-1.11 2.64-1.11 1.07 0 1.93.37 2.58 1.11.66.74.99 1.685.99 2.835v.375h-5.595c.06.57.295 1.045.705 1.425.41.38.945.57 1.605.57.37 0 .74-.07 1.11-.21.38-.14.695-.335.945-.585l.72 1.035c-.73.7-1.71 1.05-2.94 1.05Zm1.92-4.395c-.02-.5-.205-.945-.555-1.335-.34-.39-.835-.585-1.485-.585-.62 0-1.105.195-1.455.585a2.17 2.17 0 0 0-.585 1.335h4.08ZM143.332 44h-1.575v-7.245h1.575v1.065c.28-.36.63-.655 1.05-.885.42-.23.855-.345 1.305-.345v1.56a2.388 2.388 0 0 0-.495-.045c-.33 0-.685.1-1.065.3-.37.19-.635.41-.795.66V44Z" fill="#141414"/>
  <g clip-path="url(#a)">
    <path d="M60 0H0v60h60V0Z" fill="#F2661F"/>
    <path d="M34.992 50.208a.8.8 0 0 1-.408-.112L30 47.352l-4.584 2.744a.8.8 0 0 1-.8 0L15.2 44.352a.8.8 0 0 1-.376-.68v-5.76L10.4 35.424a.8.8 0 0 1-.408-.696v-9.456a.8.8 0 0 1 .408-.696l4.4-2.488v-5.76a.8.8 0 0 1 .376-.688l9.408-5.736a.8.8 0 0 1 .8 0l4.584 2.744 4.584-2.744a.8.8 0 0 1 .8 0l9.448 5.744a.8.8 0 0 1 .384.68v5.76l4.416 2.488a.8.8 0 0 1 .408.696v9.456a.8.8 0 0 1-.408.696l-4.4 2.488v5.76a.801.801 0 0 1-.384.688l-9.408 5.736a.857.857 0 0 1-.416.112Zm-4.2-4.24 4.2 2.504L43.6 43.2v-5.752a.8.8 0 0 1 .408-.696l3.544-2.016-2.976-1.64a2.296 2.296 0 1 1 .8-1.736c.008.112.008.224 0 .336l3.056 1.68v-7.64L44 23.248a.8.8 0 0 1-.408-.696V20.4h-2.208a2.304 2.304 0 1 1 0-1.6H43.6v-2l-8.616-5.272-4.184 2.504v8.8l4.448 2.576a2.288 2.288 0 1 1-.864 1.352L29.6 24a.8.8 0 0 1-.4-.688v-9.28l-4.192-2.504-3.816 2.32v5.648h-1.6v-4.672L16.4 16.8v5.312l4 2.264 4-2.264V18H26v4.552a.8.8 0 0 1-.408.696l-4.4 2.488v3.808l4.408 2.88a.8.8 0 0 1 .368.672v2.688l3.2-1.888v-3.392L24.968 28l.8-1.376 4.632 2.728a.8.8 0 0 1 .384.688v10.4h3.672a2.288 2.288 0 0 1 4.432.8 2.32 2.32 0 0 1-4.432.8h-3.68l.016 3.928Zm-9.128.432 3.344 2.04 4.2-2.504V35.752l-8.944 5.264-.8-1.384L24.4 36.72v-3.2l-4-2.616-4.48 2.512-.8-1.4 4.496-2.52v-3.76l-4-2.264-4 2.264v2.912l3.424-2.008.8 1.376-4.24 2.488v3.752l4 2.264 4.048-2.4.8 1.376-4.048 2.4V43.2l3.6 2.232 4.176-2.456.048.072.192-.112.8 1.376-3.552 2.088Zm14.952-5.928a.696.696 0 1 0 .688.696.688.688 0 0 0-.688-.664v-.032Zm6.464-9.84a.696.696 0 1 0 .696.696.696.696 0 0 0-.696-.664v-.032Zm-6.464-4.12a.696.696 0 1 0 .688.696.688.688 0 0 0-.688-.664v-.032Zm2.584-7.608a.696.696 0 1 0 .696.696.687.687 0 0 0-.696-.696Z" fill="#fff"/>
  </g>
  <defs>
    <clipPath id="a">
      <path fill="#fff" d="M0 0h60v60H0z"/>
    </clipPath>
  </defs>
</svg>
