<svg width="194" height="194" viewBox="0 0 194 194" fill="none" xmlns="http://www.w3.org/2000/svg">
<path d="M194 97C194 84.2618 191.491 71.6483 186.616 59.8797C181.742 48.1111 174.597 37.4179 165.589 28.4106C156.582 19.4034 145.889 12.2584 134.12 7.38368C122.352 2.50898 109.738 -5.56805e-07 97 0L97 49.3408C103.259 49.3408 109.456 50.5736 115.238 52.9687C121.021 55.3638 126.275 58.8743 130.7 63.2999C135.126 67.7254 138.636 72.9794 141.031 78.7616C143.426 84.5439 144.659 90.7413 144.659 97H194Z" fill="#7ABDE6"/>
<path d="M194 97C194 109.738 191.491 122.352 186.616 134.12C181.742 145.889 174.597 156.582 165.589 165.589C156.582 174.597 145.889 181.742 134.12 186.616C122.352 191.491 109.738 194 97 194L97 144.659C103.259 144.659 109.456 143.426 115.238 141.031C121.021 138.636 126.275 135.126 130.7 130.7C135.126 126.275 138.636 121.021 141.031 115.238C143.426 109.456 144.659 103.259 144.659 97H194Z" fill="#A5D9FA"/>
<path d="M0 97C0 109.738 2.50897 122.352 7.38368 134.12C12.2584 145.889 19.4034 156.582 28.4106 165.589C37.4179 174.597 48.1111 181.742 59.8797 186.616C71.6483 191.491 84.2618 194 97 194L97 144.659C90.7413 144.659 84.5439 143.426 78.7616 141.031C72.9794 138.636 67.7254 135.126 63.2999 130.7C58.8743 126.275 55.3638 121.021 52.9687 115.238C50.5736 109.456 49.3409 103.259 49.3409 97H0Z" fill="#4395C9"/>
<path d="M0 97C0 84.2618 2.50897 71.6483 7.38368 59.8797C12.2584 48.1111 19.4034 37.4179 28.4106 28.4106C37.4179 19.4034 48.1111 12.2584 59.8797 7.38368C71.6483 2.50898 84.2618 -5.56805e-07 97 0L97 49.3408C90.7413 49.3408 84.5439 50.5736 78.7616 52.9687C72.9794 55.3638 67.7254 58.8743 63.2999 63.2999C58.8743 67.7254 55.3638 72.9794 52.9687 78.7616C50.5736 84.5439 49.3409 90.7413 49.3409 97H0Z" fill="#51A9E1"/>
<path d="M110.729 116L95.2302 75.7767H84.496L68.9373 116H78.7067L81.2395 109.186H98.4867L100.959 116H110.729ZM96.1348 101.647H83.5914L89.8631 84.34L96.1348 101.647ZM118.061 83.7369C120.594 83.7369 122.644 81.6866 122.644 79.1538C122.644 76.621 120.594 74.6309 118.061 74.6309C115.589 74.6309 113.478 76.621 113.478 79.1538C113.478 81.6866 115.589 83.7369 118.061 83.7369ZM121.921 116V86.8728H114.262V116H121.921Z" fill="#51A9E1"/>
</svg>
