<svg width="665" height="452" fill="none" xmlns="http://www.w3.org/2000/svg"><path d="M335.59 317.778L208.108 244.29c-20.299-11.699-17.764-32.139 5.684-45.65l116.111-66.929c23.441-13.511 58.897-14.978 79.195-3.28l127.483 73.488c20.299 11.702 17.763 32.139-5.684 45.65l-116.111 66.93c-23.441 13.511-58.897 14.978-79.196 3.279z" stroke="#DBF2FF" stroke-width="2" stroke-miterlimit="10"/><path d="M165.053 193.884c-27.999 16.139-27.995 42.303 0 58.442l78.301 45.144-32.604 18.783M321.654 342.594c27.999 16.123 73.392 16.123 101.387 0l78.301-45.144 32.62 18.796M423.038 103.615c-27.999-16.139-73.392-16.139-101.387 0l-77.484 44.663-32.62-18.792M537.403 133.788l-30.929 17.931 73.146 42.165c27.998 16.139 27.998 42.303 0 58.442" stroke="#DBF2FF" stroke-width="2" stroke-miterlimit="10"/><path d="M423.037 106.433c2.699 0 4.887-1.261 4.887-2.818 0-1.556-2.188-2.818-4.887-2.818-2.698 0-4.886 1.262-4.886 2.818 0 1.557 2.188 2.818 4.886 2.818zM163.773 196.276c2.699 0 4.887-1.262 4.887-2.818 0-1.557-2.188-2.818-4.887-2.818-2.698 0-4.886 1.261-4.886 2.818 0 1.556 2.188 2.818 4.886 2.818zM533.942 319.074c2.699 0 4.887-1.261 4.887-2.818 0-1.556-2.188-2.818-4.887-2.818-2.699 0-4.886 1.262-4.886 2.818 0 1.557 2.187 2.818 4.886 2.818zM443.975 300.066c2.699 0 4.887-1.262 4.887-2.819 0-1.556-2.188-2.818-4.887-2.818-2.698 0-4.886 1.262-4.886 2.818 0 1.557 2.188 2.819 4.886 2.819zM380.27 358.475c3.681 0 6.666-1.719 6.666-3.84 0-2.121-2.985-3.841-6.666-3.841-3.682 0-6.666 1.72-6.666 3.841 0 2.121 2.984 3.84 6.666 3.84zM313.919 144.644c3.682 0 6.666-1.719 6.666-3.84 0-2.121-2.984-3.841-6.666-3.841-3.682 0-6.666 1.72-6.666 3.841 0 2.121 2.984 3.84 6.666 3.84zM243.97 149.955c1.718 0 3.11-.802 3.11-1.793 0-.99-1.392-1.792-3.11-1.792s-3.11.802-3.11 1.792c0 .991 1.392 1.793 3.11 1.793zM243.153 299.369c1.718 0 3.11-.803 3.11-1.793 0-.99-1.392-1.793-3.11-1.793s-3.11.803-3.11 1.793c0 .99 1.392 1.793 3.11 1.793zM563.229 186.08c1.718 0 3.111-.802 3.111-1.793 0-.99-1.393-1.792-3.111-1.792-1.717 0-3.11.802-3.11 1.792 0 .991 1.393 1.793 3.11 1.793z" fill="#92C9EC"/><path d="M657.543 326.92L552.445 387.5c-9.689 5.594-26.658 4.895-37.865-1.568l-34.096-19.653c-11.207-6.449-12.425-16.233-2.719-21.827l105.084-60.574c9.689-5.595 26.658-4.892 37.862 1.567l34.099 19.67c11.207 6.44 12.422 16.21 2.733 21.805zM149.377 446.805L8.798 365.782c-12.983-7.484-11.355-20.557 3.637-29.199l103.027-59.596c14.989-8.642 37.668-9.58 50.652-2.096l140.582 81.036c12.983 7.485 11.352 20.557-3.637 29.199l-103.027 59.593c-14.992 8.632-37.671 9.571-50.655 2.086zM264.107 99.198L159.022 159.77c-9.705 5.595-26.657 4.895-37.865-1.567l-34.099-19.641c-11.204-6.449-12.421-16.232-2.716-21.827l105.085-60.587c9.689-5.594 26.658-4.891 37.862 1.568l34.099 19.653c11.207 6.462 12.424 16.233 2.719 21.828z" fill="#DBF2FF"/><path d="M235.812 320.748v2.012l-3.081-1.138" fill="#BCBEC8"/><path d="M184.282 388.69L76.339 326.456c-.43-.249-.375-.681.12-.968l49.443-28.485a1.858 1.858 0 0 1 1.676-.071l107.943 62.234c.43.245.375.677-.119.967l-49.444 28.502a1.861 1.861 0 0 1-1.676.055z" fill="#C4E8FE"/><path d="M184.15 350.05h-2.206v31.949h2.206V350.05z" fill="#42424C"/><path d="M183.045 383.098c.608 0 1.102-.492 1.102-1.1a1.1 1.1 0 0 0-2.203 0 1.1 1.1 0 0 0 1.101 1.1zM230.515 325.813h-2.206v31.949h2.206v-31.949z" fill="#42424C"/><path d="M229.411 358.862a1.1 1.1 0 1 0 0-2.199 1.1 1.1 0 1 0 0 2.199zM81.32 291.324h-2.207v31.949h2.206v-31.949z" fill="#42424C"/><path d="M80.218 324.375a1.1 1.1 0 1 0-1.101-1.099 1.1 1.1 0 0 0 1.101 1.099z" fill="#42424C"/><path d="M184.282 351.871L76.339 289.637c-.43-.248-.375-.68.12-.967l49.443-28.489a1.875 1.875 0 0 1 1.676-.068l107.943 62.234a.653.653 0 0 1 .233.216c.142.239.019.535-.352.748l-49.444 28.502a1.865 1.865 0 0 1-1.676.058z" fill="#BCBEC8"/><path d="M76.044 287.219v1.989l1 .092.292-1.173-1.292-.908z" fill="#BCBEC8"/><path d="M184.282 349.882L76.339 287.648c-.43-.249-.375-.681.12-.968l49.443-28.486a1.87 1.87 0 0 1 1.676-.071l107.943 62.235c.43.245.375.677-.119.967l-49.444 28.502a1.875 1.875 0 0 1-1.676.055z" fill="#EFF2F6"/><path d="M165.243 310.597a1.19 1.19 0 0 1-.388.645c-.323.248.158-1.342.158-1.342" fill="#2A2A33"/><path d="M170.682 287.055c.607.348.904 1.264.668 2.041l-6.336 20.776-25.554-14.73 6.344-20.776c.235-.777.923-1.126 1.527-.777l23.351 13.466z" fill="#6C6C8A"/><path d="M170.827 286.571c.821.474 1.224 1.709.904 2.763l-6.498 21.282-26.331-15.181 6.495-21.282c.323-1.055 1.249-1.522 2.07-1.051l23.36 13.469zm-5.813 23.317l6.343-20.776c.236-.778-.062-1.693-.669-2.042l-23.357-13.465c-.604-.349-1.292 0-1.528.777l-6.343 20.776 25.554 14.713" fill="#2A2A33"/><path d="M170.449 286.677c.821.474 1.224 1.709.905 2.76l-6.495 21.283-26.329-15.185 6.498-21.282c.323-1.051 1.247-1.522 2.067-1.048l23.354 13.472zm-5.829 23.314l6.343-20.776c.236-.774-.061-1.69-.665-2.038l-23.371-13.466c-.603-.348-1.291 0-1.527.774l-6.334 20.792 25.554 14.73" fill="#42424C"/><path d="M170.298 287.177c.604.348.904 1.264.665 2.038l-6.343 20.776-25.554-14.714 6.344-20.776c.239-.774.923-1.122 1.527-.774l23.361 13.45z" fill="#6C6C8A"/><path d="M153.874 288.809a.682.682 0 0 1 .249.757.384.384 0 0 1-.21.29.386.386 0 0 1-.358-.003l-3.443-1.992a.671.671 0 0 1-.249-.755c.091-.287.342-.419.569-.287l3.442 1.99z" fill="#FFBF20"/><path d="M148.345 285.623a.67.67 0 0 1 .246.757c-.087.287-.323.416-.562.287l-1.011-.583a.673.673 0 0 1-.245-.755.382.382 0 0 1 .386-.332.396.396 0 0 1 .179.045l1.007.581z" fill="#F65849"/><path d="M154.529 286.671a.674.674 0 0 1 .249.757.387.387 0 0 1-.565.284l-6.537-3.766a.67.67 0 0 1-.249-.755c.087-.29.342-.419.565-.29l6.537 3.77z" fill="#18B9FC"/><path d="M153.309 283.449a.682.682 0 0 1 .246.758.4.4 0 0 1-.209.288.393.393 0 0 1-.356-.001l-4.664-2.689a.671.671 0 0 1-.249-.755c.091-.287.343-.419.569-.29l4.663 2.689z" fill="#F0F4FB"/><path d="M159.627 289.608a.674.674 0 0 1 .248.758.376.376 0 0 1-.07.17.396.396 0 0 1-.498.117l-3.44-1.983a.67.67 0 0 1-.249-.758.4.4 0 0 1 .211-.29.396.396 0 0 1 .358.003l3.44 1.983z" fill="#FFBF20"/><path d="M157.934 286.116a.674.674 0 0 1 .249.758.388.388 0 0 1-.387.33.393.393 0 0 1-.178-.043l-2.616-1.506a.673.673 0 0 1-.249-.755c.087-.287.342-.419.565-.287l2.616 1.503z" fill="#F65849"/><path d="M155.089 297.637a.673.673 0 0 1 .245.755c-.087.287-.323.419-.565.29l-3.443-1.986a.674.674 0 0 1-.249-.758.39.39 0 0 1 .566-.287l3.446 1.986z" fill="#FFBF20"/><path d="M160.909 300.991a.671.671 0 0 1 .248.758c-.087.287-.323.416-.565.284l-3.704-2.135a.671.671 0 0 1-.249-.755.384.384 0 0 1 .39-.331c.062 0 .123.015.178.044l3.702 2.135z" fill="#F0F4FB"/><path d="M161.638 298.608a.678.678 0 0 1 .249.758c-.09.287-.342.416-.568.284l-6.537-3.767a.657.657 0 0 1-.246-.754c.087-.29.339-.419.565-.29l6.537 3.769z" fill="#18B9FC"/><path d="M162.327 296.344a.668.668 0 0 1 .252.758c-.091.287-.343.416-.569.287l-4.492-2.58a.675.675 0 0 1-.246-.757.394.394 0 0 1 .208-.29.387.387 0 0 1 .357.003l4.49 2.579zM163.018 294.081a.671.671 0 0 1 .249.758.39.39 0 0 1-.566.287l-7.286-4.192a.675.675 0 0 1-.252-.755c.091-.29.343-.419.569-.29l7.286 4.192zM163.673 291.939a.677.677 0 0 1 .249.761.39.39 0 0 1-.21.29.386.386 0 0 1-.358-.006l-2.261-1.29a.68.68 0 0 1-.251-.337.677.677 0 0 1-.001-.42.389.389 0 0 1 .211-.288.394.394 0 0 1 .357.001l2.264 1.289zM164.326 289.795a.682.682 0 0 1 .249.758.384.384 0 0 1-.211.29.382.382 0 0 1-.358-.006l-4.489-2.58a.665.665 0 0 1-.249-.754c.091-.287.343-.416.569-.287l4.489 2.579z" fill="#F0F4FB"/><path d="M151.349 289.873a.675.675 0 0 1 .246.754.4.4 0 0 1-.209.288.394.394 0 0 1-.357.002l-4.663-2.689a.67.67 0 0 1-.249-.758c.09-.287.342-.416.565-.287l4.667 2.69z" fill="#95F5D4"/><path d="M148.219 290.869a.678.678 0 0 1 .249.758c-.09.287-.342.416-.565.287l-2.261-1.29a.674.674 0 0 1-.245-.755c.087-.286.342-.419.565-.29l2.257 1.29zM150.08 294.748a.675.675 0 0 1 .245.758l-.068.219a.384.384 0 0 1-.387.332.382.382 0 0 1-.178-.045l-4.845-2.796a.666.666 0 0 1-.245-.754l.068-.223a.389.389 0 0 1 .565-.287l4.845 2.796z" fill="#F0F4FB"/><path d="M153.445 293.884a.679.679 0 0 1 .264.748.385.385 0 0 1-.21.29.396.396 0 0 1-.358-.003l-3.443-1.986a.673.673 0 0 1-.245-.755c.087-.29.339-.419.565-.29l3.427 1.996z" fill="#F65849"/><path d="M156.545 292.868a.673.673 0 0 1 .246.755c-.087.287-.323.419-.565.29l-3.443-1.986a.676.676 0 0 1-.25-.338.677.677 0 0 1 .001-.42.379.379 0 0 1 .069-.17.382.382 0 0 1 .318-.162c.062 0 .123.016.178.045l3.446 1.986z" fill="#18B9FC"/><path d="M164.158 310.313l-.113.442-25.56-14.736-14.178 8.174c-.821.474-.911 1.19-.197 1.612l23.786 13.721c.711.409 1.954.358 2.778-.116l13.057-7.526 1.118-.645v-.523l-.691-.403z" fill="#BCBEC8"/><path d="M147.896 319.526l-23.799-13.721c-.714-.409-.624-1.125.197-1.612l14.178-8.706 26.377 15.207-14.175 8.706c-.817.484-2.061.535-2.778.126z" fill="#DCDBE4"/><path d="M131.677 378.851c.152 1.751-.995 4.573-1.376 8.384-.381 3.811-.229 6.478 4.199 6.478 4.427 0 6.165-2.186 9.737-2.837 4.522-.826 11.256-.213 11.33-5.092.074-4.879-1.221-5.411-6.182-5.256-4.961.155-8.778 2.057-8.93-1.677-.152-3.734-8.778 0-8.778 0z" fill="#686899"/><path d="M118.916 378.813l4.719 2.718-17.34 9.996-4.719-2.718 17.34-9.996z" fill="#334"/><path d="M121.277 382.095c1.843 0 3.336-.86 3.336-1.922 0-1.061-1.493-1.922-3.336-1.922-1.842 0-3.336.861-3.336 1.922 0 1.062 1.494 1.922 3.336 1.922z" fill="#334"/><path d="M118.916 377.536l4.719 2.718-17.34 9.996-4.719-2.718 17.34-9.996z" fill="#46465B"/><path d="M121.277 380.818c1.843 0 3.336-.86 3.336-1.922 0-1.061-1.493-1.921-3.336-1.921-1.842 0-3.336.86-3.336 1.921 0 1.062 1.494 1.922 3.336 1.922z" fill="#46465B"/><path d="M88.79 379.093l-4.719 2.722 17.34 9.993 4.719-2.719-17.34-9.996z" fill="#334"/><path d="M89.768 380.454c0 1.061-1.493 1.922-3.336 1.922-1.843 0-3.336-.861-3.336-1.922v-1.566l1.362-.039.003.054c.552-.233 1.234-.371 1.971-.371 1.843 0 3.336.86 3.336 1.922z" fill="#334"/><path d="M88.79 377.536l-4.719 2.718 17.34 9.996 4.719-2.718-17.34-9.996z" fill="#46465B"/><path d="M86.432 380.818c1.843 0 3.336-.86 3.336-1.922 0-1.061-1.493-1.921-3.336-1.921-1.843 0-3.336.86-3.336 1.921 0 1.062 1.493 1.922 3.336 1.922z" fill="#46465B"/><path d="M119.413 401.159l4.716-2.722-17.34-9.996-4.716 2.722 17.34 9.996z" fill="#334"/><path d="M125.108 399.798c0 1.061-1.494 1.922-3.337 1.922-1.842 0-3.336-.861-3.336-1.922s1.494-1.922 3.336-1.922c.525 0 1.022.07 1.464.195h1.873v1.727z" fill="#334"/><path d="M119.413 399.46l4.716-2.719-17.34-9.996-4.716 2.722 17.34 9.993z" fill="#46465B"/><path d="M121.771 400.024c1.843 0 3.337-.861 3.337-1.922s-1.494-1.922-3.337-1.922c-1.842 0-3.336.861-3.336 1.922s1.494 1.922 3.336 1.922z" fill="#46465B"/><path d="M89.284 401.159l-4.716-2.722 17.341-9.996 2.551 3.97-15.176 8.748z" fill="#334"/><path d="M90.262 399.798c0 1.061-1.493 1.922-3.336 1.922-1.843 0-3.336-.861-3.336-1.922v-1.765l1.706-.157.006.243a5.329 5.329 0 0 1 1.624-.243c1.843 0 3.336.861 3.336 1.922z" fill="#334"/><path d="M89.284 399.46l-4.716-2.719 17.341-9.996 4.715 2.722-17.34 9.993z" fill="#46465B"/><path d="M86.926 400.024c1.843 0 3.336-.861 3.336-1.922s-1.493-1.922-3.336-1.922c-1.843 0-3.336.861-3.336 1.922s1.493 1.922 3.336 1.922z" fill="#46465B"/><path d="M103.966 390.25c1.85 0 3.349-.865 3.349-1.931 0-1.067-1.499-1.932-3.349-1.932s-3.349.865-3.349 1.932c0 1.066 1.499 1.931 3.349 1.931z" fill="#A1A0C6"/><path d="M106.695 378.206h-5.448v10.109h5.448v-10.109z" fill="#5D5C76"/><path d="M103.969 389.886c1.504 0 2.723-.703 2.723-1.571 0-.867-1.219-1.57-2.723-1.57-1.503 0-2.722.703-2.722 1.57 0 .868 1.219 1.571 2.722 1.571z" fill="#5D5C76"/><path d="M103.969 379.819c1.504 0 2.723-.704 2.723-1.571s-1.219-1.57-2.723-1.57c-1.503 0-2.722.703-2.722 1.57 0 .867 1.219 1.571 2.722 1.571z" fill="#363647"/><path d="M103.969 379.493c1.194 0 2.161-.557 2.161-1.245 0-.687-.967-1.244-2.161-1.244-1.193 0-2.16.557-2.16 1.244 0 .688.967 1.245 2.16 1.245z" fill="#DCDCEA"/><path d="M106.13 369.629h-4.321v8.577h4.321v-8.577z" fill="#DCDCEA"/><path d="M99.735 370.526l-24.184-13.934c-1.938-1.122-1.705-3.083.546-4.379l23.083-13.304c2.26-1.29 5.648-1.439 7.596-.323l24.174 13.934c1.938 1.125 1.702 3.082-.546 4.378l-23.082 13.308c-2.239 1.303-5.643 1.442-7.587.32z" fill="#334"/><path d="M99.735 366.991l-24.184-13.933c-1.938-1.122-1.705-3.083.546-4.379l23.083-13.308c2.26-1.29 5.648-1.435 7.596-.322l24.174 13.933c1.938 1.122 1.702 3.083-.546 4.379l-23.082 13.308c-2.239 1.303-5.643 1.445-7.587.322z" fill="#46465B"/><path d="M119.249 303.754c2.852 0 8.022-.019 9.983.436.533.164 2.219-.323 2.06-.91-.277-.712-.713-.277-1.346-.593-.633-.316-.714-.829.513-.948 1.227-.119 2.535-.593 2.929-2.373.394-1.78-3.048-1.464-5.109-1.029-2.061.435-3.168 1.106-12.079.555" fill="#FFAA9B"/><path d="M143.459 323.353c1.669-.287 5.355-.915 7.887-.967 2.532-.052 3.979-1.957 3.636-3.176-.397-1.419-.349-2.328-7.15-1.935.058-.69 2.364-2.763-.346-2.093-1.172.291-3.23 2.699-4.718 2.757" fill="#FFAC9E"/><path d="M79.77 347.17c-3.402-12.728 12.036-13.998 12.036-13.998s15.438 5.372 30.45.99c15.012-4.382 23.225-5.517 22.798 3.815-.426 9.331-2.406 41.713-2.406 41.713a6.529 6.529 0 0 1-5.38 2.686c-3.682 0-7.364-1.132-7.648-2.545-.285-1.412-.285-31.249-.285-31.249s-38.927 19.938-49.566-1.412z" fill="#B0AFD0"/><path d="M132.289 354.549l-2.868 16.584-.086-22.55 2.954 5.966z" fill="#9090AF"/><path d="M93.508 346.673s-19.701-2.544-12.748-19.937c3.682-10.038 1.56-15.127 1.276-20.076-.284-4.95 1.86-24.314 10.923-19.348 9.063 4.966 13.72 7.485 22.217 8.616 8.498 1.132 12.321 17.536 15.435 21.353 2.409-.141 13.526-1.167 13.526-1.167a6.904 6.904 0 0 1 1.615 6.22c-.814 3.889-17.03 6.224-17.03 6.224s-6.534-1.425-14.463-12.524c.281 8.2-.191 16.403-.83 20.031-.824 4.72-5.652 12.637-19.92 10.608z" fill="#7DC4F1"/><mask id="a" maskUnits="userSpaceOnUse" x="79" y="286" width="67" height="61"><path d="M93.508 346.673s-19.701-2.544-12.748-19.937c3.682-10.038 1.56-15.127 1.276-20.076-.284-4.95 1.86-24.314 10.923-19.348 9.063 4.966 13.72 7.485 22.217 8.616 8.498 1.132 12.321 17.536 15.435 21.353 2.409-.141 13.526-1.167 13.526-1.167a6.904 6.904 0 0 1 1.615 6.22c-.814 3.889-17.03 6.224-17.03 6.224s-6.534-1.425-14.463-12.524c.281 8.2-.191 16.403-.83 20.031-.824 4.72-5.652 12.637-19.92 10.608z" fill="#7DC4F1"/></mask><g mask="url(#a)"><path d="M111.368 311.332a26.789 26.789 0 0 0 5.523 7.636c4.522 18.196-.969 26.725-.969 26.725l-6.905 1.271s3.611-5.937 3.291-15.059c-.32-9.123-1.789-13.679-.94-20.573z" fill="#4CA2CC"/></g><path d="M96.33 289.089s-2.612 5.375 2.698 7.665c4.65 2.006 7.518-1.161 7.518-2.847" fill="#4CA2CC"/><path d="M97.261 286.622a22.622 22.622 0 0 1-.494 4.666c-.426 1.909 2.975 5.443 5.878 4.382 2.903-1.06 3.184-1.289 3.611-6.449 2.261-.142 9.133.494 8.849-10.392 0-6.646-1.699-12.302-11.966-12.302s-5.878 20.095-5.878 20.095z" fill="#FFAA9B"/><path d="M102.626 287.876c-24.61-6.094 1.201-31.545 10.27-21.333 2.148 2.418-.291 3.95-2.552 5.707-.891.548-2.309 1.08-.471 5.024.281.568-.497 2.841-1.566 2.061-1.212-.887-2.097-.532-3.017.399-1.453 1.474-.717 3.654.168 5.137.885 1.483-.061 3.692-2.832 3.005z" fill="#363646"/><path d="M59.887 315.314l10.835 29.483s.97 4.559 6.586 8.061c5.616 3.502 21.984 12.937 21.984 12.937s1.816 1.006 2.907.645c.853-.284 1.269-1.396.062-4.46-2.762-6.997-10.41-28.737-10.41-28.737s-2.442-6.256-7.751-9.029c-5.31-2.773-21.668-12.298-21.668-12.298s-4.777-2.328-2.545 3.398z" fill="#334"/><path d="M60.036 311.542l-4.312 2.438 5.248 5.691M98.53 368.51l3.676-2.077-6.124-7.619" fill="#334"/><path d="M55.779 317.652l10.836 29.482s.968 4.56 6.585 8.062c5.616 3.502 21.988 12.94 21.988 12.94s5.732 3.18 2.971-3.818c-2.761-6.997-10.41-28.734-10.41-28.734s-2.441-6.256-7.75-9.029c-5.31-2.773-21.669-12.301-21.669-12.301s-4.78-2.329-2.551 3.398z" fill="#5D5C76"/><path d="M132.274 350.601l-.022 3.563-4.192 1.477" fill="#334"/><path d="M131.289 352.736a5.17 5.17 0 0 1-.875.645l-6.799 3.921v3.547l6.799-3.918c1.353-.784 1.98-1.806 1.838-2.738a2.193 2.193 0 0 0-.963-1.457z" fill="#334"/><path d="M130.96 348.982s-.44-.287-1.615-.4c-.323.091-5.72 8.707-5.72 8.707l6.798-3.918c2.239-1.306 2.484-3.276.537-4.389z" fill="#46465B"/><path d="M217.193 94.454l-20.835 12.012V46.034l20.835-12.008v60.428z" fill="url(#paint0_linear)"/><path d="M196.358 106.466l-20.835-12.012V34.026l20.835 12.008v60.432z" fill="url(#paint1_linear)"/><path d="M217.193 34.026l-20.835 12.008-20.835-12.008 20.835-12.012 20.835 12.012z" fill="#E5F4FF"/><path d="M188.493 109.764l-20.834 12.012V75.642l20.834-12.008v46.13z" fill="url(#paint2_linear)"/><path d="M167.659 121.776l-20.835-12.012v-46.13l20.835 12.008v46.134z" fill="url(#paint3_linear)"/><path d="M188.494 63.634l-20.835 12.008-20.835-12.008 20.835-12.012 20.835 12.012z" fill="#E5F4FF"/><path d="M160.999 126.351l-20.834 12.009v-33.172l20.834-12.008v33.171z" fill="url(#paint4_linear)"/><path d="M140.164 138.36l-20.834-12.009v-33.17l20.834 12.007v33.172z" fill="url(#paint5_linear)"/><path d="M160.999 93.18l-20.835 12.009-20.834-12.008 20.834-12.012 20.835 12.011z" fill="#E5F4FF"/><path fill-rule="evenodd" clip-rule="evenodd" d="M209.416 7.937l-15.658 28.297-12.483 5.39-11.266 21.816-19.308 12.183-9.389 18.15-2.295-1.185 9.711-18.772 19.307-12.182 11.367-22.012 12.521-5.406 15.231-27.527 2.262 1.248z" fill="#85C7F3"/><path d="M110.91 276.647l18.32 10.576c1.997 1.153 1.997 3.022 0 4.175s-5.234 1.153-7.231 0l-18.321-10.576 7.232-4.175z" fill="url(#paint6_linear)"/><path d="M122.469 288.064l.985-.571-.003 1.409-.985.571.003-1.409z" fill="#6685A1"/><path fill-rule="evenodd" clip-rule="evenodd" d="M121.484 280.608l-.985.571c-.413.232-.743.877-.795 2.203l.986-.571c.051-1.322.381-1.961.794-2.203zm-.795 2.203l-.985.571c-.009 2.886.811 4.017 1.56 4.45.361.219.789.301 1.205.232l.985-.571a1.767 1.767 0 0 1-1.205-.232c-.749-.432-1.56-1.564-1.56-4.45z" fill="url(#paint7_linear)"/><path d="M120.147 280.322l.985-.571c.613-.355 1.398.029 2.093.429l-.985.587c-.695-.416-1.473-.8-2.093-.445z" fill="#5EA1CC"/><path d="M122.24 280.766l.252.149v1.29a1.865 1.865 0 0 0-.84-.923c-.785-.454-1.844-.364-1.938 2.106 0 2.886.811 4.018 1.56 4.45a1.76 1.76 0 0 0 1.205.232v1.403a3.187 3.187 0 0 1-.646-.3c-1.018-.587-2.846-2.183-2.687-6.046.258-3.789 1.831-3.105 3.094-2.361z" fill="#7DC4F1"/><path d="M122.24 280.767l.985-.571.252.148-.985.571-.252-.148z" fill="#6685A1"/><path d="M122.492 280.899l.985-.571-.007 1.296-.982.574.004-1.299z" fill="#6685A1"/><path d="M121.293 285.078c.059.164.065.409.02.39a.75.75 0 0 1-.049-.429l.029.039zm1.095 2.099c.171.119.207.361.084.381-.123.019-.284-.268-.216-.375.026-.038.074-.041.132 0v-.006zm-.717-.606c.12.148.136.403.049.387-.087-.016-.191-.361-.113-.413.019 0 .048 0 .064.026zm-.381-.626c.058.165.065.41.023.39a.73.73 0 0 1-.049-.428l.026.038zm7.596-.645a.127.127 0 0 1 .12 0c.759.407.759.407.765.558v.816a.773.773 0 0 1-.064.284c-.259.554-.795 1.709-.985 1.341a.106.106 0 0 1 0-.061v-.442c.281-.419.323-.484.507-.796.184-.313.152-.271.155-.323v-.525c.113-.168.087-.323-.016-.323-.104 0-.291.3-.184.387a.097.097 0 0 0 .048 0v.455a.132.132 0 0 1-.023.074c-.277.455-.293.48-.484.761v-1.98a.325.325 0 0 1 .174-.258l-.013.032zm-1.014.397c-.21.068-.258.29-.119.348h.019v.548a.066.066 0 0 0 .029.055c.301.187.375.232.73.442v1.222a.29.29 0 0 1-.426.235c-.934-.577-.934-.577-.94-.744v-1.613a.364.364 0 0 1 .11-.245c.308-.402.639-.786.991-1.151.1-.087.262-.1.272.045v1.996c-.556-.322-.556-.322-.562-.374v-.471c.148-.135.116-.299-.02-.322a.2.2 0 0 0-.077 0l-.007.029zm2.623.725a.07.07 0 0 1 0-.035c.009.143.003.287-.016.429a1.369 1.369 0 0 1 0-.394h.016zm-6.001 2.406c.204.042.265.242.145.322a.228.228 0 0 1-.117.029.226.226 0 0 1-.116-.033.23.23 0 0 1-.115-.202.147.147 0 0 1 .026-.06.14.14 0 0 1 .049-.045.169.169 0 0 1 .062-.021.164.164 0 0 1 .066.007v.003zm-1.192-.326c.194.081.242.307.117.358-.126.052-.349-.151-.294-.303.025-.064.093-.087.177-.055zm-.92-.458c.171.12.207.362.084.381-.123.019-.284-.268-.217-.374.026-.039.078-.042.133 0v-.007zm-1.098-1.225c.058.165.064.41.022.39a.742.742 0 0 1-.048-.429l.026.039zm9.195.506a.103.103 0 0 1 0-.035c.009.143.003.287-.016.429a1.369 1.369 0 0 1 0-.394h.016zm-.239.645c0-.016.038-.064.055 0 .029.11-.036.429-.101.403-.064-.025-.025-.267.046-.39v-.013zm-.546.658c.103-.081.126.023.116.11-.022.174-.158.322-.223.254-.064-.067 0-.274.107-.364zm-1.799.916c.187-.045.229.106.158.229-.071.122-.323.184-.352.035a.249.249 0 0 1 .194-.264zm-1.085.216c.21-.016.255.158.161.271-.093.113-.352.103-.371-.052a.22.22 0 0 1 .21-.219zm-1.198.035c.209 0 .274.204.151.323-.122.119-.384 0-.361-.155a.187.187 0 0 1 .07-.127.194.194 0 0 1 .14-.041zm-1.121-.112c.2.041.265.241.145.322a.239.239 0 0 1-.234-.004.241.241 0 0 1-.118-.202.168.168 0 0 1 .027-.061.195.195 0 0 1 .05-.045.16.16 0 0 1 .063-.02.152.152 0 0 1 .067.006v.004zm-1.195-.326c.194.08.242.303.116.358-.126.055-.349-.152-.294-.303a.13.13 0 0 1 .077-.067.125.125 0 0 1 .101.012zm-.914-.445c.174.119.206.361.087.38-.12.02-.287-.267-.216-.374.022-.038.074-.042.129 0v-.006zm-.714-.6c.12.148.132.4.045.387-.087-.013-.187-.361-.113-.416.023 0 .049 0 .068.029zm-.384-.625c.061.164.068.409.022.39a.76.76 0 0 1-.048-.429l.026.039zm9.195.496v-.035c.014.142.014.286 0 .428a1.722 1.722 0 0 1 0-.393zm-.223.645s.042-.064.055 0c.032.11-.036.429-.1.403-.065-.026-.023-.268.045-.39v-.013zm-.546.658c.103-.081.126.022.116.109-.019.175-.158.323-.223.255-.064-.068 0-.274.107-.364zm-.791.522c.155-.071.194.061.145.184-.048.123-.249.251-.307.142-.058-.11.036-.261.162-.323v-.003zm-1.008.397c.187-.045.233.106.158.229-.074.122-.323.184-.352.035a.25.25 0 0 1 .194-.264zm-1.085.216c.213 0 .255.158.161.271-.093.113-.352.103-.371-.052a.225.225 0 0 1 .062-.151.225.225 0 0 1 .148-.068zm-1.211.058c.206 0 .271.203.148.306-.122.103-.384 0-.361-.155a.193.193 0 0 1 .213-.151zm-1.124-.113c.2.042.265.242.145.322a.228.228 0 0 1-.117.029.239.239 0 0 1-.201-.118.24.24 0 0 1-.031-.117.163.163 0 0 1 .027-.06.147.147 0 0 1 .048-.045.18.18 0 0 1 .063-.021.164.164 0 0 1 .066.007v.003zm-1.195-.326c.194.081.242.303.119.358-.122.055-.352-.151-.294-.303.023-.064.094-.087.175-.055zm-.914-.445c.174.12.206.362.087.381-.12.019-.287-.268-.216-.374.025-.039.074-.042.129 0v-.007zm-.714-.599c.12.148.132.399.045.387-.087-.013-.187-.362-.113-.416.023 0 .049 0 .068.029zm-.381-.626c.058.164.065.41.019.39a.759.759 0 0 1-.048-.429l.029.039zm-.091-6.449l-.025 7.029c0 .694.458 1.387 1.376 1.916 1.824 1.054 4.773 1.054 6.588 0 .901-.523 1.35-1.206 1.353-1.89l.02-7.065c0 .684-.452 1.371-1.353 1.893-1.812 1.051-4.761 1.051-6.589 0-.917-.532-1.376-1.225-1.373-1.935" fill="url(#paint8_linear)"/><path d="M128.877 288.334a.535.535 0 0 0 .216-.206c.669-1.148.675-1.377.675-1.451v-.816c0-.096-.019-.138-.064-.171-.046-.032-.679-.39-.74-.399a.318.318 0 0 0-.255.28v1.98c.504-.755.507-.803.507-.835v-.468c-.155-.022-.068-.271.061-.367.129-.097.175-.033.162.093a.381.381 0 0 1-.071.177v.526a.16.16 0 0 1-.023.077l-.132.236c-.278.461-.294.487-.507.796v.442c0 .113.093.132.171.094M128.341 288.567a.286.286 0 0 0 .127-.098.286.286 0 0 0 .057-.15v-1.223c-.759-.441-.759-.454-.759-.496v-.548c-.178-.058-.091-.271.061-.342.152-.071.278.032.216.18a.312.312 0 0 1-.08.11v.471a.052.052 0 0 0 .006.03.06.06 0 0 0 .02.025c.322.2.339.206.536.322v-1.996c0-.177-.204-.139-.323 0-.323.393-.672.748-.985 1.145a.357.357 0 0 0-.071.203v1.612a.248.248 0 0 0 .026.117.247.247 0 0 0 .08.09c.911.612.911.612 1.076.551M121.29 285.434c.02.042.033.049.043.023.038-.101-.036-.434-.068-.418a.88.88 0 0 0 .025.395zM121.29 286.302c.017.042.029.048.039.022a.684.684 0 0 0-.065-.417.792.792 0 0 0 .026.395zM121.287 287.169c.016.042.029.049.042.019.036-.097-.036-.43-.068-.414a.866.866 0 0 0 .026.395zM121.284 288.036c0 .043.032.049.042.02.039-.097-.036-.431-.068-.415a.866.866 0 0 0 .026.395zM121.281 288.904c.019.042.032.048.042.019.039-.097-.036-.43-.068-.414a.866.866 0 0 0 .026.395zM121.672 286.93c.071.075.103 0 .103-.068 0-.155-.12-.372-.175-.323-.055.048 0 .285.072.382M121.665 288.665c.071.075.104 0 .104-.068 0-.155-.12-.372-.175-.323a.446.446 0 0 0 .071.382M121.665 289.529c.068.078.1 0 .104-.064 0-.156-.123-.373-.175-.324a.428.428 0 0 0-.011.198.432.432 0 0 0 .082.181M122.382 287.54c.12.071.182-.019.153-.139-.043-.172-.221-.305-.282-.211a.325.325 0 0 0 .129.35zM122.382 288.401c.12.071.182-.02.153-.139-.039-.172-.221-.305-.282-.211a.324.324 0 0 0 .129.35zM122.382 289.268c.12.071.182-.019.152-.139-.042-.172-.223-.305-.281-.211-.059.094 0 .276.129.35zM122.382 290.135c.12.072.182-.019.153-.139-.043-.171-.221-.304-.282-.21-.062.094 0 .275.129.349zM123.3 288.855c.158.052.23-.071.168-.204-.062-.132-.295-.226-.343-.097a.275.275 0 0 0 .175.301zM123.299 289.723c.156.052.227-.071.166-.204-.062-.133-.295-.227-.344-.097a.28.28 0 0 0 .178.301zM123.296 290.59c.159.052.227-.071.166-.204-.062-.132-.295-.226-.324-.097a.272.272 0 0 0 .175.301M124.495 289.178c.191.026.262-.143.162-.266-.101-.123-.347-.123-.366.029a.238.238 0 0 0 .204.237zM124.491 290.045c.192.026.266-.142.162-.265-.103-.123-.346-.123-.366.029a.239.239 0 0 0 .204.236zM124.491 290.913c.035.011.072.01.105-.003a.157.157 0 0 0 .102-.169.161.161 0 0 0-.048-.094c-.116-.142-.346-.123-.363.029a.238.238 0 0 0 .204.237zM125.612 290.158c.201 0 .272-.178.165-.288-.106-.11-.375-.062-.379.1a.208.208 0 0 0 .214.188zM125.612 291.025c.201 0 .272-.178.169-.288-.104-.11-.379-.061-.379.1a.203.203 0 0 0 .21.188zM126.83 290.119c.201-.035.269-.239.149-.324-.12-.084-.379.026-.36.188a.182.182 0 0 0 .141.14.183.183 0 0 0 .07-.001M126.827 290.971c.2-.036.268-.24.149-.324-.12-.084-.379.026-.36.188a.19.19 0 0 0 .027.064.174.174 0 0 0 .114.075.165.165 0 0 0 .07 0M127.912 289.884c.201-.068.256-.295.126-.353-.13-.058-.369.126-.324.278a.147.147 0 0 0 .079.074.152.152 0 0 0 .109.001M127.912 290.764c.197-.068.252-.294.123-.353-.13-.058-.369.127-.324.279a.149.149 0 0 0 .079.075.142.142 0 0 0 .109-.001M128.916 290.361c.175-.1.22-.324.11-.375-.11-.052-.324.21-.269.343.029.055.091.065.159.032zM129.714 288.968c.123-.116.155-.375.068-.385-.088-.01-.253.301-.175.395.026.029.064.026.107 0M129.71 289.836c.127-.117.156-.376.068-.386-.087-.009-.249.302-.174.395.025.03.064.026.106 0M130.259 288.323c.068-.132.081-.408.03-.391-.052.016-.143.401-.075.427 0 0 .023 0 .045-.036zM130.256 289.191c.068-.133.081-.408.033-.392-.049.016-.143.401-.078.427 0 0 .022 0 .045-.035zM130.482 286.811a3.718 3.718 0 0 0 0-.395 1.596 1.596 0 0 0-.02.431v-.036M130.479 287.678a2.893 2.893 0 0 0 0-.395 1.596 1.596 0 0 0-.02.431v-.036M130.479 288.546a2.893 2.893 0 0 0 0-.395c-.023.142-.03.287-.02.43v-.035" fill="#224163"/><path d="M130.502 282.112c.005-1.487-2.077-2.698-4.649-2.705-2.572-.008-4.661 1.192-4.665 2.679-.004 1.487 2.078 2.698 4.65 2.706 2.572.007 4.66-1.193 4.664-2.68z" fill="#fff"/><path d="M129.132 280.205c1.824 1.052 1.837 2.757.022 3.812-1.815 1.054-4.764 1.051-6.585 0-1.822-1.051-1.838-2.76-.026-3.812 1.812-1.051 4.764-1.051 6.589 0z" fill="#5EA1CC"/><path d="M129.853 282.094c.004-1.28-1.788-2.323-4.001-2.33-2.214-.006-4.011 1.027-4.015 2.308-.004 1.28 1.788 2.323 4.002 2.329 2.213.006 4.011-1.027 4.014-2.307z" fill="#7DC4F1"/><path d="M128.676 282.014c-1.572-.906-4.111-.906-5.671 0a2.553 2.553 0 0 0-.927.855c.239.363.564.661.946.867 1.57.906 4.109.906 5.669 0 .377-.202.697-.496.93-.854a2.589 2.589 0 0 0-.947-.868z" fill="url(#paint9_linear)"/><path d="M142.435 311.077l-2.726 1.574a.79.79 0 0 1-.71-.029l-4.044-2.331c-.21-.12-.233-.303-.052-.41l2.729-1.57a.782.782 0 0 1 .711.029l4.04 2.328c.21.116.236.3.052.409z" fill="url(#paint10_linear)"/><path d="M160.876 310.523l-7.596 4.379a1.545 1.545 0 0 1-1.392-.058l-20.786-11.989c-.41-.239-.455-.597-.1-.803l7.596-4.379a1.545 1.545 0 0 1 1.392.058l20.802 11.989c.398.238.44.6.084.803z" fill="url(#paint11_linear)"/><path d="M349.962 277.087c12.812 7.388 33.589 7.417 46.392.087l71.657-41.036c12.812-7.336 12.812-19.27 0-26.654L396.36 168.18c-12.812-7.384-33.589-7.416-46.395-.087l-71.657 41.036c-12.809 7.336-12.812 19.27 0 26.655l71.654 41.303z" fill="#DBF2FF"/><path d="M269.01 209.849l.036 13.143c.016 4.808 3.181 9.609 9.501 13.276l-.035-13.141c-6.311-3.669-9.476-8.464-9.502-13.278zM477.3 222.808l-.039-13.143c0 4.869-3.204 9.747-9.65 13.462l.026 13.14c6.459-3.711 9.689-8.59 9.663-13.459zM278.525 223.127l.035 13.141 71.192 41.306-.038-13.143-71.189-41.304z" fill="#7DC4F1"/><path d="M395.957 264.431l.035 13.143 71.654-41.303-.035-13.144-71.654 41.304z" fill="#7DC4F1"/><path d="M467.611 223.127c12.812-7.384 12.877-19.347.149-26.741l-71.176-41.307c-12.725-7.384-33.431-7.384-46.243 0l-71.667 41.304c-12.809 7.387-12.877 19.347-.149 26.744l71.189 41.304c12.729 7.384 33.431 7.387 46.243 0l71.654-41.304z" fill="#DBF2FF"/><path d="M349.714 264.431l.039 13.143c12.725 7.385 33.427 7.385 46.239 0l-.035-13.143c-12.812 7.387-33.515 7.384-46.243 0z" fill="#7DC4F1"/><path d="M424.323 116.942l.204 71.467-16.065 9.257-.203-71.463 16.064-9.261z" fill="#D1E4FD"/><path d="M408.462 197.666l-12.657-7.346-.204-71.463 12.657 7.346.204 71.463z" fill="#A2BADB"/><path d="M408.259 126.203l-12.658-7.345 16.062-9.261 12.66 7.345-16.064 9.261z" fill="#EBF5FF"/><path d="M385.676 210.8l-12.657-7.343-3.113-8.509 12.66 7.345 3.11 8.507z" fill="#799CC6"/><path d="M362.255 197.902l-12.661-7.346 15.877-9.151 12.661 7.345-15.877 9.152z" fill="#EBF5FF"/><path d="M378.132 188.75l-12.661-7.345-8.013-22.318 12.658 7.346 8.016 22.317z" fill="#799CC6"/><path d="M380.15 142.407l23.739 57.897-18.213 10.489-3.11-8.506-24.546 14.156-3.068 12.086-18.212 10.495 23.254-84.973 20.156-11.644zm-17.895 55.488l15.877-9.151-8.016-22.317-7.861 31.468z" fill="#D1E4FD"/><path d="M336.74 239.008l-12.66-7.342 23.237-84.977 12.661 7.346-23.238 84.973z" fill="#A2BADB"/><path d="M359.978 154.034l-12.661-7.345 20.173-11.628 12.661 7.346-20.173 11.627z" fill="#EBF5FF"/><path d="M454.779 176.367c.375-.216.756 0 .847.462a1.235 1.235 0 0 1-.517 1.244c-.375.22-.753 0-.846-.458a1.247 1.247 0 0 1 .516-1.248z" fill="#FF6159"/><path d="M457.854 174.594c.374-.216.752 0 .846.465a1.236 1.236 0 0 1-.517 1.244c-.374.216-.752 0-.846-.461a1.244 1.244 0 0 1 .517-1.248z" fill="#FFBF2F"/><path d="M460.576 173.024c.375-.216.756 0 .847.464a1.244 1.244 0 0 1-.514 1.245c-.374.216-.756 0-.846-.461a1.247 1.247 0 0 1 .513-1.248z" fill="#28CA42"/><path d="M448.213 223.708a1.568 1.568 0 0 0-.691 1.289c-.278.188-.546.355-.807.507-.104-1.093.448-2.309 1.291-2.802a1.27 1.27 0 0 1 1.476.042c.14.106.257.24.343.393-.233.232-.481.458-.749.683a.65.65 0 0 0-.863-.112z" fill="#A5C1FF"/><path d="M448.769 184.765l88.71-51.136 12.35 63.524c.397 2.045-.604 4.463-2.235 5.405l-82.8 47.723c-1.634.942-3.275.049-3.672-1.996l-3.62-18.612 16.106-9.283c1.751-1.01 2.826-3.609 2.4-5.805l-4.27-21.969c-.429-2.196-2.196-3.156-3.947-2.147l-16.106 9.283-2.916-14.987zm60.279 37.259a.768.768 0 0 0 .323-.78c-.058-.297-.297-.429-.533-.29l-14.133 8.145a.779.779 0 0 0-.323.784c.058.296.294.425.533.287l14.129-8.146h.004zm-19.285-29.988a.786.786 0 0 0-.323.787c.058.296.297.422.533.287l10.061-5.804a.778.778 0 0 0 .323-.781c-.059-.296-.298-.429-.533-.29l-10.061 5.804" fill="#D1E4FD"/><path d="M508.841 220.954c.236-.139.475 0 .533.29a.772.772 0 0 1-.323.781l-14.13 8.145c-.239.139-.475 0-.533-.287a.785.785 0 0 1 .323-.784l14.13-8.145zM471.502 215.388l.578 2.98-.4.232-.581-2.983.403-.229zM470.624 215.363l.672 3.457-.404.232-.672-3.457.404-.232zM470.01 216.697l.501 2.577-.404.232-.501-2.577.404-.232zM467.708 197.518l.646.093c-1.392 6.369-3.421 8.01-8.327 11.976l-.823.668c-3.01 2.441-4.105 4.953-5.168 7.384-.807 1.848-1.637 3.74-3.265 5.562a2.855 2.855 0 0 0-.3-.738c1.456-1.654 2.209-3.373 2.99-5.159 1.118-2.561 2.261-5.205 5.491-7.804l.823-.667c4.829-3.915 6.637-5.376 7.933-11.315z" fill="#fff"/><path d="M449.838 223.144c.128.214.217.45.261.696v.061c-.242.239-.504.474-.781.71a1.298 1.298 0 0 0-.026-.323 1.017 1.017 0 0 0-.213-.471 9.55 9.55 0 0 0 .759-.673z" fill="#B6CCFF"/><path d="M449.327 224.61c.278-.235.539-.47.782-.709.193 1.148-.368 2.476-1.292 3.002a1.29 1.29 0 0 1-1.58-.128 1.294 1.294 0 0 1-.322-.462c.268-.161.545-.323.833-.529a.643.643 0 0 0 .875.119 1.554 1.554 0 0 0 .704-1.293z" fill="#A5C1FF"/><path d="M446.921 226.294c.269-.159.547-.333.833-.523-.287.194-.565.368-.833.529v-.006zM447.522 225.004v.019c-.278.187-.546.355-.804.506v-.019c.248-.151.526-.319.804-.506z" fill="#B6CCFF"/><path d="M450.781 223.202c.019.071.035.142.051.216.323 1.667-.491 3.637-1.818 4.401-1.179.677-2.361.187-2.842-1.09.215-.105.431-.221.646-.348l.119-.068a1.3 1.3 0 0 0 .812.743 1.289 1.289 0 0 0 1.091-.153c.907-.525 1.469-1.854 1.291-3.002.217-.232.44-.464.65-.699z" fill="#C7D9FF"/><path d="M446.811 226.358l.11-.064v.019l-.119.068c-.216.125-.431.241-.646.348v-.019c.219-.116.433-.223.655-.352zM446.717 225.53l-.08.048c-.226.129-.446.248-.646.355v-.02c.21-.106.429-.222.646-.354l.08-.049v.02z" fill="#DEE8FF"/><path d="M446.714 225.51l-.081.049c-.226.132-.445.248-.645.354-.191-1.612.607-3.395 1.863-4.121a1.83 1.83 0 0 1 2.153.084c.202.159.367.359.486.587a11.3 11.3 0 0 1-.646.68 1.277 1.277 0 0 0-1.819-.435c-.862.493-1.414 1.709-1.311 2.802z" fill="#C7D9FF"/><path d="M471.738 192.626c-.43-2.196-2.196-3.157-3.947-2.148l-16.106 9.284 2.498 14.833-4.004 6.994.817 1.944 3.988-6.8 2.518 12.95 16.106-9.284c1.754-1.009 2.826-3.608 2.4-5.804l-4.27-21.969z" fill="#fff" filter="url(#filter0_d)"/><path d="M467.791 190.478c1.751-1.009 3.518-.048 3.947 2.148l4.27 21.969c.426 2.196-.646 4.795-2.4 5.804l-16.106 9.284-23.858 13.752c-1.754 1.01-3.521.049-3.947-2.144l-4.27-21.972c-.426-2.196.646-4.795 2.4-5.804l23.858-13.753 16.106-9.284zm-7.751 19.106c4.906-3.966 6.934-5.608 8.326-11.976l-.646-.094c-1.291 5.94-3.103 7.401-7.935 11.309l-.836.68c-3.204 2.599-4.361 5.243-5.491 7.804-.782 1.793-1.534 3.511-2.991 5.159a1.81 1.81 0 0 0-1.169-.925 1.813 1.813 0 0 0-1.469.254c-1.257.726-2.054 2.522-1.864 4.121-2.215 1.11-3.74.984-5.125.871-1.153-.094-2.168-.181-3.324.487a4.856 4.856 0 0 0-.429.28c-2.713 1.935-3.398 4.628-4.199 7.739-.152.59-.323 1.197-.481 1.829l.391.103.242.064c.181-.645.323-1.26.491-1.854.794-3.108 1.369-5.356 3.775-7.094.115-.084.235-.161.359-.232.995-.574 1.889-.5 2.994-.413 1.408.116 3.078.252 5.49-.967.481 1.29 1.664 1.767 2.842 1.09 1.328-.764 2.142-2.735 1.819-4.402 0-.074-.033-.145-.052-.216 1.615-1.822 2.458-3.715 3.265-5.562 1.063-2.432 2.158-4.943 5.168-7.384l.823-.668.026-.003zm-31.606 6.597a.486.486 0 0 0-.197.481c.036.18.181.258.323.177l11.682-6.736a.477.477 0 0 0 .197-.477c-.035-.181-.181-.261-.323-.178l-11.682 6.733zm.123 2.132c.036.18.184.258.323.174l7.428-4.286a.468.468 0 0 0 .197-.48.204.204 0 0 0-.031-.105.213.213 0 0 0-.292-.072l-7.428 4.288a.477.477 0 0 0-.2.481h.003zm42.713.506l-.672-3.457-.404.232.672 3.457.404-.232zm.785-.451l-.578-2.98-.404.229.581 2.983.401-.232zm-1.57.906l-.501-2.58-.403.232.5 2.58.404-.232z" fill="#E3ECFF"/><path d="M450.78 223.201c-.209.236-.432.468-.671.7v-.061a2.081 2.081 0 0 0-.262-.697c.229-.225.443-.451.646-.68.129.232.226.48.287.738z" fill="#DEE8FF"/><path d="M448.213 223.708a.647.647 0 0 1 .875.119c.111.136.184.298.213.471.023.106.031.214.026.322a1.553 1.553 0 0 1-.688 1.29.647.647 0 0 1-.875-.119 1.001 1.001 0 0 1-.207-.461 1.73 1.73 0 0 1-.026-.287v-.02a1.582 1.582 0 0 1 .682-1.315z" fill="#588BFF"/><path d="M440.688 227.677c1.401.116 3.068.252 5.49-.967-2.406 1.238-4.076 1.103-5.49.987-1.105-.087-1.999-.162-2.994.412a3.672 3.672 0 0 0-.359.233c-2.406 1.728-2.981 3.975-3.775 7.094-.152.593-.323 1.209-.491 1.854l-.242-.065.232.058c.178-.645.323-1.257.488-1.851.794-3.115 1.369-5.365 3.782-7.094.114-.083.233-.16.355-.232.995-.59 1.896-.519 3.004-.429z" fill="#fff"/><path d="M437.106 227.561c-2.703 1.935-3.391 4.621-4.199 7.72-.151.587-.303 1.196-.481 1.828.162-.645.323-1.241.469-1.832.791-3.105 1.476-5.784 4.198-7.739.138-.101.282-.194.43-.28 1.156-.668 2.17-.58 3.323-.487 1.386.113 2.907.239 5.126-.871-2.216 1.129-3.744 1.003-5.129.894-1.153-.094-2.167-.178-3.32.487-.144.086-.283.18-.417.28z" fill="#fff"/><path d="M533.102 128.022c1.615-.942 3.278-.049 3.676 1.996l.701 3.611-88.711 51.136-.7-3.612c-.398-2.044.6-4.463 2.235-5.404l82.799-47.727zm-77.994 50.052a1.239 1.239 0 0 0 .517-1.245c-.09-.471-.471-.677-.846-.461a1.245 1.245 0 0 0-.517 1.248c.094.47.472.677.846.458zm5.814-3.341a1.247 1.247 0 0 0 .513-1.245c-.09-.474-.471-.68-.846-.464a1.247 1.247 0 0 0-.513 1.248c.09.471.471.677.846.461zm-2.726 1.57a1.237 1.237 0 0 0 .517-1.244c-.094-.474-.472-.681-.846-.465a1.256 1.256 0 0 0-.443.548 1.252 1.252 0 0 0-.074.7c.093.471.471.677.846.461z" fill="#A7C2FE"/><path d="M437.529 227.294c1.153-.665 2.167-.581 3.32-.487 1.386.109 2.907.235 5.129-.874.213-.107.433-.226.646-.355l.081-.048c.258-.152.526-.323.804-.507 0 .097.009.193.026.287.028.169.099.328.206.462-.288.189-.566.363-.833.522l-.11.064c-.223.129-.436.245-.646.352-2.409 1.219-4.075 1.083-5.49.967-1.108-.09-2.009-.161-3.01.413a4.16 4.16 0 0 0-.355.232c-2.413 1.735-2.988 3.986-3.782 7.094-.155.594-.323 1.209-.488 1.851l-.233-.058-.377-.097c.177-.645.322-1.244.481-1.831.791-3.099 1.479-5.775 4.198-7.72.14-.096.284-.186.433-.267z" fill="#588BFF"/><path d="M440.139 209.449c.145-.084.291 0 .323.177a.48.48 0 0 1-.197.477l-11.682 6.736c-.145.081-.291 0-.323-.177a.486.486 0 0 1 .197-.48l11.682-6.733zM436.218 213.544a.21.21 0 0 1 .292.072c.02.031.03.068.031.105a.47.47 0 0 1-.197.48l-7.428 4.286c-.142.084-.291 0-.323-.174a.477.477 0 0 1 .2-.481l7.425-4.288zM499.827 186.232c.236-.139.475 0 .533.29a.764.764 0 0 1-.323.78l-10.06 5.805c-.236.135-.475 0-.533-.287a.773.773 0 0 1 .046-.441.777.777 0 0 1 .277-.346l10.06-5.801z" fill="#fff"/><path d="M505.136 217.965l-2.206-.648-1.421-2.235 2.206.645 1.421 2.238z" fill="#374C7F"/><path d="M504.216 197.083a7.35 7.35 0 0 1 2.683 2.241c1.315 1.741 2.084 4.124 2.193 6.797a18.065 18.065 0 0 1-1.595 8.026 16.734 16.734 0 0 1-2.361 3.818l-1.421-2.238a12.432 12.432 0 0 0 1.76-2.841 13.448 13.448 0 0 0 1.185-5.978c-.08-1.987-.646-3.76-1.614-5.056a5.518 5.518 0 0 0-2-1.667l1.17-3.102z" fill="#6D98FE"/><path d="M503.715 215.727l-2.206-.645c.112-.135.22-.274.323-.416l2.206.645c-.105.142-.213.28-.323.416z" fill="#4A67AD"/><path d="M504.045 215.308l-2.206-.645c.3-.398.575-.814.823-1.245l2.206.645a11.55 11.55 0 0 1-.823 1.245z" fill="#4864A8"/><path d="M504.868 214.066l-2.206-.645c.204-.348.391-.712.562-1.087l2.209.645c-.174.374-.362.739-.565 1.087z" fill="#4661A3"/><path d="M505.424 212.979l-2.21-.645c0-.032.029-.061.042-.093a18.4 18.4 0 0 0 .385-.945l2.206.645a11.402 11.402 0 0 1-.423 1.035" fill="#445E9D"/><path d="M505.856 211.944l-2.206-.645c.123-.345.236-.693.323-1.048l2.206.645c-.097.355-.206.707-.323 1.052" fill="#415B98"/><path d="M506.189 210.893l-2.206-.645c.099-.361.183-.726.252-1.093l2.206.645a13.72 13.72 0 0 1-.252 1.093z" fill="#3F5893"/><path d="M506.441 209.8l-2.206-.645c.074-.4.132-.8.171-1.199l2.206.644c-.039.4-.094.8-.171 1.2z" fill="#3D558E"/><path d="M506.612 208.6l-2.206-.645c.046-.478.064-.958.055-1.438l2.206.645a12.5 12.5 0 0 1-.055 1.435" fill="#3B5289"/><path d="M506.667 207.165l-2.206-.645v-.254c-.084-1.987-.646-3.763-1.634-5.056a5.454 5.454 0 0 0-1.996-1.668l2.206.645c.79.389 1.475.961 1.999 1.668.969 1.289 1.55 3.069 1.615 5.056v.258" fill="#394F84"/><path d="M503.031 200.184l-2.206-.644 1.182-3.102 2.209.644-1.185 3.102z" fill="#4A67AB"/><path d="M502.262 202.193l-2.206-.645a3.698 3.698 0 0 0-.559-.213l2.206.645c.192.055.379.127.559.213z" fill="#576584"/><path d="M497.453 216.446l-2.206-.645.222.058 2.206.645-.222-.058z" fill="#647498"/><path d="M497.672 216.504l-2.206-.645c.204.045.412.074.62.087l2.206.645a4.058 4.058 0 0 1-.62-.087z" fill="#68789D"/><path d="M498.296 216.597l-2.206-.645c.234.013.468.007.701-.019l2.206.645a4.209 4.209 0 0 1-.701.019z" fill="#6B7CA3"/><path d="M498.996 216.571l-2.205-.645c.3-.036.597-.102.884-.197l2.206.645a4.53 4.53 0 0 1-.885.197z" fill="#6E80A8"/><path d="M499.881 216.375l-2.206-.645c.062-.023.126-.042.188-.068.28-.107.553-.235.813-.384a7.31 7.31 0 0 0 1.912-1.644l2.206.645a7.174 7.174 0 0 1-1.912 1.644 5.32 5.32 0 0 1-.814.387l-.187.065zM496.968 195.768l-2.206-.645c.64-.371 1.316-.674 2.019-.906l2.206.645c-.703.233-1.379.538-2.019.909" fill="#7284AD"/><path d="M498.987 194.857l-2.206-.645c.1-.035.203-.064.323-.096a9.063 9.063 0 0 1 1.46-.297l2.205.645a8.838 8.838 0 0 0-1.459.296l-.323.094" fill="#6E80A8"/><path d="M500.753 194.467l-2.206-.645a7.916 7.916 0 0 1 1.402-.038l2.206.644a8.008 8.008 0 0 0-1.402.042" fill="#6B7CA3"/><path d="M502.155 194.425l-2.206-.645a7.32 7.32 0 0 1 1.234.174l2.206.645a8.022 8.022 0 0 0-1.234-.174z" fill="#68789D"/><path d="M503.389 194.6l-2.206-.645c.148.032.297.071.442.116l2.206.645c-.145-.046-.294-.081-.442-.116z" fill="#647498"/><path d="M495.324 223.711l-2.205-.645a6.567 6.567 0 0 1-.504-.164 8.718 8.718 0 0 1-4.415-3.87 14.732 14.732 0 0 1-1.857-6.791v-.474l2.206.645v.474a14.641 14.641 0 0 0 1.857 6.791 8.69 8.69 0 0 0 4.411 3.869c.168.063.336.118.504.165" fill="#576584"/><path d="M488.536 212.405l-2.206-.645c-.015-.747.015-1.494.087-2.238l2.206.645c-.071.744-.1 1.491-.087 2.238z" fill="#5A6989"/><path d="M488.629 210.148l-2.206-.645c.058-.619.146-1.24.262-1.864l2.209.645a20.74 20.74 0 0 0-.265 1.864z" fill="#5E6D8E"/><path d="M488.888 208.297l-2.209-.644c.11-.568.239-1.139.394-1.7l2.206.645a22.275 22.275 0 0 0-.391 1.699z" fill="#617193"/><path d="M489.275 206.601l-2.206-.645c.142-.518.304-1.03.485-1.538l.032-.09 2.206.645c0 .029-.019.061-.032.094a20.998 20.998 0 0 0-.485 1.534z" fill="#647498"/><path d="M489.795 204.97l-2.206-.645c.2-.555.422-1.092.665-1.613l2.209.645a24.977 24.977 0 0 0-.668 1.613z" fill="#68789D"/><path d="M490.464 203.344l-2.209-.645c.271-.586.565-1.153.882-1.699l2.205.645a20.136 20.136 0 0 0-.878 1.699z" fill="#6B7CA3"/><path d="M491.342 201.645l-2.206-.645c.39-.671.822-1.317 1.292-1.935l2.206.645a19.381 19.381 0 0 0-1.292 1.935z" fill="#6E80A8"/><path d="M492.621 199.71l-2.206-.645c.346-.458.711-.893 1.088-1.29a14.22 14.22 0 0 1 3.259-2.644l2.206.645a13.998 13.998 0 0 0-3.255 2.641c-.382.41-.746.848-1.092 1.29" fill="#7284AD"/><path d="M496.968 195.767a10.367 10.367 0 0 1 2.325-1.003 7.855 7.855 0 0 1 5.662.38l-.739 1.935-1.186 3.102-.768 2.009a3.925 3.925 0 0 0-2.823-.19c-.407.121-.799.29-1.166.503a7.03 7.03 0 0 0-1.615 1.315 9.724 9.724 0 0 0-1.97 3.318 10.387 10.387 0 0 0-.604 3.902 7.325 7.325 0 0 0 .927 3.386 4.34 4.34 0 0 0 2.199 1.935 4.09 4.09 0 0 0 2.865-.055 5.32 5.32 0 0 0 .814-.387 7.194 7.194 0 0 0 1.912-1.645l.92 1.448 1.421 2.238.889 1.399a14.536 14.536 0 0 1-3.837 3.306c-.517.3-1.057.558-1.615.77a8.144 8.144 0 0 1-5.739.113 8.693 8.693 0 0 1-4.412-3.869 14.656 14.656 0 0 1-1.857-6.791 20.683 20.683 0 0 1 1.211-7.81 19.484 19.484 0 0 1 3.95-6.656 13.981 13.981 0 0 1 3.236-2.653z" fill="#A7C2FE"/><path d="M498.793 182.047l-2.205-.645-1.263-1.99 2.206.645 1.262 1.99z" fill="#374C7F"/><path d="M497.531 180.06l-2.206-.645c.1-.119.2-.242.294-.371l2.209.645c-.097.129-.197.252-.297.374" fill="#4A67AD"/><path d="M497.828 179.686l-2.209-.645c.265-.351.509-.718.73-1.099l2.206.645a10.55 10.55 0 0 1-.727 1.099z" fill="#4864A8"/><path d="M498.554 178.587l-2.205-.645c.058-.103.116-.206.171-.322.116-.217.226-.436.323-.645l2.206.645c-.1.222-.21.441-.323.644-.058.104-.113.207-.175.323" fill="#4661A3"/><path d="M499.056 177.619l-2.206-.645c.138-.299.264-.609.377-.922l2.21.645c-.117.323-.243.622-.381.926" fill="#445E9D"/><path d="M499.437 176.694l-2.209-.645c.113-.322.209-.616.297-.928l2.205.645c-.087.322-.184.622-.293.928z" fill="#415B98"/><path d="M499.73 175.765l-2.206-.645c.088-.322.162-.645.223-.967l2.209.645c-.061.322-.139.645-.226.967z" fill="#3F5893"/><path d="M499.956 174.792l-2.209-.645c.061-.323.107-.645.139-.945v-.126l2.209.645v.126c-.035.322-.081.645-.139.945z" fill="#3D558E"/><path d="M500.108 173.711l-2.209-.645c.041-.422.058-.846.052-1.27l2.206.645c.006.424-.01.848-.049 1.27z" fill="#3B5289"/><path d="M500.157 172.45l-2.206-.645a9.314 9.314 0 0 0-.501-2.902 5.904 5.904 0 0 0-2.118-2.94 4.318 4.318 0 0 0-1.257-.6l2.206.645a4.49 4.49 0 0 1 1.26.599 5.926 5.926 0 0 1 2.115 2.941c.32.935.489 1.915.501 2.902z" fill="#394F84"/><path d="M491.97 180.702l-2.206-.645c.064.02.13.037.197.051l2.206.645c-.065 0-.133-.029-.197-.048" fill="#647498"/><path d="M492.182 180.75l-2.205-.645c.179.042.361.068.545.077l2.206.645a3.473 3.473 0 0 1-.546-.08" fill="#68789D"/><path d="M492.713 180.83l-2.206-.644c.207.012.414.006.62-.017l2.206.645a4.012 4.012 0 0 1-.62.02" fill="#6B7CA3"/><path d="M493.332 180.805l-2.206-.645c.146-.02.294-.045.44-.078.145-.032.232-.061.349-.1l2.209.645a9.614 9.614 0 0 1-.349.097 3.508 3.508 0 0 1-.443.077" fill="#6E80A8"/><path d="M494.12 180.637l-2.209-.645c.312-.101.611-.235.895-.4a6.387 6.387 0 0 0 1.699-1.464l2.205.645a6.386 6.386 0 0 1-1.698 1.464 4.866 4.866 0 0 1-.892.403" fill="#7284AD"/><path d="M491.86 163.968l-2.206-.645a8.14 8.14 0 0 1 1.55-.697l2.206.645a8.361 8.361 0 0 0-1.55.697z" fill="#4A67AD"/><path d="M493.404 163.27l-2.206-.645a6.972 6.972 0 0 1 1.124-.271l.229-.029 2.209.645-.229.029c-.383.059-.76.15-1.127.271z" fill="#4864A8"/><path d="M494.766 162.97l-2.209-.645a6.296 6.296 0 0 1 1.072-.032l2.209.645a6.296 6.296 0 0 0-1.072.032z" fill="#4661A3"/><path d="M495.832 162.938l-2.209-.645c.319.019.635.064.946.135l2.209.645a5.796 5.796 0 0 0-.946-.135z" fill="#445E9D"/><path d="M496.778 163.07l-2.209-.645c.117.026.224.055.323.087l2.209.645-.323-.087z" fill="#415B98"/><path d="M487.968 172.824l-2.206-.648 1.308.322 2.209.648-1.311-.322z" fill="#647599"/><path d="M485.946 172.328l-2.206-.648 2.022.496 2.206.648-2.022-.496z" fill="#647599"/><path d="M485.946 172.324l-2.206-.645v-.054l2.209.644v.052" fill="#3F5893"/><path d="M485.962 172.272l-2.209-.644c.116-.42.249-.836.397-1.245l2.206.645c-.148.409-.281.825-.394 1.248" fill="#415B98"/><path d="M486.369 171.025l-2.206-.645c.103-.284.213-.565.323-.842.058-.142.12-.28.184-.416l2.206.645c-.064.14-.126.278-.184.416-.119.277-.229.558-.323.842z" fill="#445E9D"/><path d="M486.873 169.767l-2.206-.645c.203-.448.43-.883.672-1.289l2.206.644c-.242.42-.465.85-.672 1.29z" fill="#4661A3"/><path d="M487.545 168.465l-2.206-.645a14.72 14.72 0 0 1 .969-1.477l2.206.645c-.351.473-.675.966-.969 1.477z" fill="#4864A8"/><path d="M488.523 166.988l-2.206-.645c.459-.611.972-1.179 1.535-1.696.548-.506 1.15-.95 1.795-1.326l2.206.645a10.49 10.49 0 0 0-1.796 1.326 12.99 12.99 0 0 0-1.534 1.696z" fill="#4A67AD"/><path d="M491.859 163.967a7.77 7.77 0 0 1 2.678-.968 5.85 5.85 0 0 1 4.273.968 7.875 7.875 0 0 1 2.842 3.946c.624 1.868.826 3.85.591 5.805a16.313 16.313 0 0 1-1.835 5.949 14.403 14.403 0 0 1-1.614 2.393l-1.263-1.987c.458-.552.86-1.15 1.198-1.783a12.17 12.17 0 0 0 1.366-4.43 9.959 9.959 0 0 0-.439-4.305 5.918 5.918 0 0 0-2.116-2.941 4.376 4.376 0 0 0-3.184-.719 5.693 5.693 0 0 0-1.99.719c-.48.279-.929.61-1.337.987a10.602 10.602 0 0 0-2.509 3.64 12.404 12.404 0 0 0-.552 1.612l-2.022-.499c.197-.73.446-1.446.743-2.141a14.166 14.166 0 0 1 3.368-4.892c.55-.515 1.155-.969 1.802-1.354z" fill="#6D98FE"/><path d="M490.073 187.157l-2.206-.645a6.78 6.78 0 0 1-2.212-1.122c-1.673-1.264-2.887-3.315-3.459-5.836a15.4 15.4 0 0 1-.365-3.093l2.206.645c.018 1.041.14 2.077.365 3.093.575 2.525 1.786 4.572 3.462 5.836.661.507 1.41.888 2.209 1.122z" fill="#576584"/><path d="M484.037 177.106l-2.206-.645c-.012-.664.014-1.328.078-1.989l2.206.645c-.065.661-.09 1.325-.078 1.989z" fill="#5A6989"/><path d="M484.108 175.117l-2.206-.645c.052-.548.13-1.103.236-1.658l2.206.645a18.616 18.616 0 0 0-.236 1.655" fill="#5E6D8E"/><path d="M484.351 173.463l-2.205-.645c.09-.481.2-.968.322-1.445l2.206.645c-.129.48-.239.967-.323 1.448" fill="#617193"/><path d="M484.68 172.015l1.266.322 2.022.5 1.311.322a8.586 8.586 0 0 0-.139 4.083 4.95 4.95 0 0 0 1.725 2.902 3.416 3.416 0 0 0 2.906.593 4.563 4.563 0 0 0 1.241-.5 6.386 6.386 0 0 0 1.698-1.464l.817 1.29 1.263 1.987.792 1.244a12.764 12.764 0 0 1-3.408 2.931 9.12 9.12 0 0 1-2.487 1.003 6.841 6.841 0 0 1-5.813-1.19c-1.676-1.264-2.887-3.311-3.462-5.836a17.233 17.233 0 0 1 .268-8.187z" fill="#A7C2FE"/><path d="M484.68 172.015l-2.206-.645 1.266.31 2.206.648-1.266-.313z" fill="#647599"/><path d="M535.635 149.059l8.42 43.309-4.296 2.477-8.42-43.309 4.296-2.477z" fill="#A7C2FE"/><path d="M539.759 194.845l-2.206-.645-8.42-43.309 2.206.645 8.42 43.309z" fill="#7391D6"/><path d="M531.339 151.535l-2.206-.644 4.296-2.477 2.206.645-4.296 2.476z" fill="#97B3F4"/><path d="M531.43 165.337l5.997 30.853-4.295 2.476-5.998-30.853 4.296-2.476z" fill="#A7C2FE"/><path d="M533.132 198.666l-2.206-.645-5.998-30.853 2.206.645 5.998 30.853z" fill="#7391D6"/><path d="M527.134 167.813l-2.206-.645 4.296-2.476 2.206.645-4.296 2.476z" fill="#97B3F4"/><path d="M528.242 185.513l2.794 14.362-4.296 2.476-2.794-14.362 4.296-2.476z" fill="#A7C2FE"/><path d="M526.74 202.351l-2.209-.648-2.791-14.359 2.206.645 2.794 14.362z" fill="#7391D6"/><path d="M523.946 187.989l-2.206-.645 4.296-2.476 2.206.645-4.296 2.476z" fill="#97B3F4"/><path d="M520.733 181.734l4.208 21.653-4.299 2.476-4.208-21.653 4.299-2.476z" fill="#A7C2FE"/><path d="M520.642 205.863l-2.206-.645-4.208-21.653 2.206.645 4.208 21.653z" fill="#7391D6"/><path d="M516.434 184.21l-2.206-.645 4.296-2.476 2.209.645-4.299 2.476z" fill="#97B3F4"/><path d="M562.638 342.762l-.265-5.23-2.583 1.934c-3.178-2.157-5.239-3.985-9.043-5.594-7.258-3.06-9.092 3.282-7.561 4.65 7.583 7.094 15.364 8.032 17.825 6.584 1.081-.645 1.585-1.316 1.64-2.015.006-.11.001-.22-.013-.329z" fill="#686899"/><path d="M551.16 338.257s2.584 3.573 6.372 3.573 4.845-3.008 4.845-3.008v-51.78l-13.242.403 2.025 50.812z" fill="#B0AFD0"/><path d="M578.605 336.506c-2.525.365-5.745.242-13.186-9.906-1.15-1.328 1.65-7.026 7.157-2.192 5.506 4.833 7.922 6.349 7.922 6.349s1.857 5.204-1.893 5.749z" fill="#686899"/><path d="M576.972 283.024l-13.652 4.33c.727 3.302 6.647 26.2 6.937 32.049.291 5.85-.081 7.971-.081 7.971.323.968 4.548 4.721 10.413 3.199 0-.009.087-21.147-3.617-47.549z" fill="#B0AFD0"/><path d="M543.983 201.362c4.273-7.004 23.955-10.387 22.986-10.641 12.502-2.496 13.242 15.181 11.533 20.05-2.008 5.769-2.742 24.4-2.015 30.117 3.63 16.91 4.031 38.814 3.63 40.907-2.583 3.383-13.564 6.604-23.231 8.616-9.666 2.012-12.257-2.334-12.257-2.334-2.422-2.657 2.662-56.891 2.662-56.891" fill="#CDF1FF"/><path d="M552.652 210.906s1.415 16.181 1.114 18.596c-.271 2.164 1.803 11.931-7.105 8.571.084-.948.275-2.257-.09-3.714 0 0-3.14-23.72.064-25.249 3.204-1.528 6.017 1.796 6.017 1.796z" fill="#AEDDEF"/><path d="M552.652 210.906s.122 14.794-.181 17.21c-.304 2.415 2.319 14.313-10.658 6.826-12.977-7.487-15.286-9.422-16.171-11.073.523-5.637 3.103-6.401 4.476-5.998 1.373.403 9.111 3.46 11.304 4.669.161-19.647 2.742-21.179 2.742-21.179" fill="#CDF1FF"/><path d="M551.715 195.699c4.619 1.89 17.832 3.64 15.254-4.966-3.013-.622-11.036 1.79-15.254 4.966z" fill="#7DC4F1"/><path d="M555.355 193.993s6.637 3.837 10.083-1.812c0 0 2.907-25.003-13.187-18.038-2.018.848-4.075 1.98-3.591 17.196 1.453 0 6.695-.97 6.695 2.654z" fill="#F7C8AC"/><path d="M549.429 172.976c.29 1.728 5.022 17.454 14.398 17.454 9.375 0 7.354-12.843 5.903-15.642-1.614-3.112-5.351-7.504-11.865-7.504-6.515 0-9.147 1.442-8.436 5.692z" fill="#205DA6"/><path d="M508.818 205.308l20.506 16.487 12.16-11.415-18.994-17.151-13.672 12.079z" fill="#4DB9F8"/><path d="M511.903 204.825l17.44 13.71 9.034-8.416-15.887-14.349-10.587 9.055z" fill="#3498D1"/><path d="M525.209 223.466s-4.899-3.141-5.926-7.668c-.323-1.364-.355-2.025-.252-2.257.455.361 1.292 1.099 1.783 1.425.491.326 1.292 1.132 2.057 1.654.465.323.753.732 1.021.577.713-.409-.323-2.176-.491-2.779-.168-.603.365-1.696 1.007-.223.643 1.474 3.989 3.244 3.947 4.937-.042 1.693 1.353 4.576-3.146 4.334z" fill="#F7C8AC"/><path d="M212.526.229l-10.393 11.386 4.424-1.06 1.292 4.352L212.526.23z" fill="#85C7F3"/><defs><filter id="filter0_d" x="444.179" y="190.077" width="33.922" height="47.605" filterUnits="userSpaceOnUse" color-interpolation-filters="sRGB"><feFlood flood-opacity="0" result="BackgroundImageFix"/><feColorMatrix in="SourceAlpha" values="0 0 0 0 0 0 0 0 0 0 0 0 0 0 0 0 0 0 127 0"/><feOffset dx="-2" dy="4"/><feGaussianBlur stdDeviation="2"/><feColorMatrix values="0 0 0 0 0.639167 0 0 0 0 0.787784 0 0 0 0 0.983333 0 0 0 1 0"/><feBlend in2="BackgroundImageFix" result="effect1_dropShadow"/><feBlend in="SourceGraphic" in2="effect1_dropShadow" result="shape"/></filter><linearGradient id="paint0_linear" x1="206.775" y1="34.026" x2="206.775" y2="106.466" gradientUnits="userSpaceOnUse"><stop stop-color="#BCDDF9"/><stop offset="1" stop-color="#80C5F2"/></linearGradient><linearGradient id="paint1_linear" x1="185.94" y1="34.026" x2="185.94" y2="106.466" gradientUnits="userSpaceOnUse"><stop stop-color="#D4ECFF"/><stop offset="1" stop-color="#9BD4F9"/></linearGradient><linearGradient id="paint2_linear" x1="178.076" y1="69.751" x2="178.076" y2="116.689" gradientUnits="userSpaceOnUse"><stop stop-color="#B8DBF9"/><stop offset="1" stop-color="#85C7F3"/></linearGradient><linearGradient id="paint3_linear" x1="157.242" y1="63.634" x2="157.242" y2="121.776" gradientUnits="userSpaceOnUse"><stop stop-color="#CBE8FE"/><stop offset="1" stop-color="#9FD6FA"/></linearGradient><linearGradient id="paint4_linear" x1="150.582" y1="93.18" x2="150.582" y2="138.36" gradientUnits="userSpaceOnUse"><stop stop-color="#B8DBF9"/><stop offset="1" stop-color="#87C8F3"/></linearGradient><linearGradient id="paint5_linear" x1="129.747" y1="93.18" x2="129.747" y2="138.36" gradientUnits="userSpaceOnUse"><stop stop-color="#CBE9FE"/><stop offset="1" stop-color="#9ED5FA"/></linearGradient><linearGradient id="paint6_linear" x1="128.905" y1="291.135" x2="114.831" y2="282.071" gradientUnits="userSpaceOnUse"><stop offset=".497" stop-color="#D2D1D1"/><stop offset="1" stop-color="#F1F1F1" stop-opacity="0"/></linearGradient><linearGradient id="paint7_linear" x1="121.579" y1="280.608" x2="121.579" y2="288.088" gradientUnits="userSpaceOnUse"><stop stop-color="#458CB9"/><stop offset="1" stop-color="#60A8D6"/></linearGradient><linearGradient id="paint8_linear" x1="121.413" y1="288.828" x2="130.455" y2="286.887" gradientUnits="userSpaceOnUse"><stop stop-color="#B3D9F1"/><stop offset="1" stop-color="#FEFEFD"/></linearGradient><linearGradient id="paint9_linear" x1="122.059" y1="282.701" x2="129.487" y2="282.701" gradientUnits="userSpaceOnUse"><stop stop-color="#DAA58F"/><stop offset="1" stop-color="#AF8278"/></linearGradient><linearGradient id="paint10_linear" x1="138.67" y1="308.239" x2="138.67" y2="312.721" gradientUnits="userSpaceOnUse"><stop stop-color="#CBC9DA"/><stop offset="1" stop-color="#CCCBD6"/></linearGradient><linearGradient id="paint11_linear" x1="138.946" y1="297.894" x2="153.319" y2="314.356" gradientUnits="userSpaceOnUse"><stop stop-color="#CAC9DA"/><stop offset="1" stop-color="#CCCBD6"/></linearGradient></defs></svg>