<svg width="72" height="73" viewBox="0 0 72 73" fill="none" xmlns="http://www.w3.org/2000/svg">
<g clip-path="url(#clip0)">
<path d="M55.5594 44.9588L55.5589 44.9593C55.0859 45.4308 54.7328 46.0113 54.529 46.6509C54.3253 47.2904 54.2766 47.9704 54.3872 48.633L54.3873 48.6337L57.7754 68.7681C57.9822 69.9974 56.6863 70.928 55.5875 70.339L37.9052 60.8609L37.905 60.8608C37.3179 60.5464 36.6642 60.3819 36 60.3819C35.3359 60.3819 34.6821 60.5464 34.0951 60.8608L34.0948 60.8609L16.4125 70.339C15.3138 70.928 14.0178 69.9974 14.2246 68.7681L17.6127 48.6337L17.6128 48.633C17.7234 47.9704 17.6748 47.2904 17.471 46.6509C17.2672 46.0113 16.9141 45.4308 16.4411 44.9593L16.4406 44.9588L2.05755 30.6654C1.18178 29.7951 1.67377 28.2985 2.89512 28.1176L22.7339 25.1792C22.7339 25.1792 22.7339 25.1792 22.7339 25.1792C23.3916 25.0819 24.0154 24.823 24.5517 24.4257C25.088 24.0284 25.5205 23.5049 25.8129 22.9008L34.6498 4.64321C35.1961 3.51455 36.8039 3.51455 37.3502 4.64321L46.1871 22.9006C46.4795 23.5047 46.912 24.0283 47.4483 24.4255C47.9846 24.8228 48.6085 25.0817 49.2661 25.1791C49.2661 25.1791 49.2661 25.1791 49.2662 25.1791L69.1049 28.1175C70.3263 28.2984 70.8182 29.7949 69.9425 30.6652L55.5594 44.9588Z" fill="white" stroke="#92C9EC"/>
</g>
<defs>
<clipPath id="clip0">
<rect width="72" height="72" fill="white" transform="translate(0 0.706055)"/>
</clipPath>
</defs>
</svg>
