<svg width="120" height="120" fill="none" xmlns="http://www.w3.org/2000/svg">
  <path d="M23.155 20.463c1.118 1.583 2.065 3.155 3.241 4.535 3.52 4.124 8.082 6.167 13.468 6.365 1.46.053 2.936-.043 4.39-.209 1.327-.15 2.033-1.032 1.926-2.107-.128-1.241-1.07-2.006-2.492-1.787a16.365 16.365 0 0 1-6.488-.272c-6.118-1.498-9.541-5.67-11.472-11.446 2.792-6.514 7.514-10.74 14.526-11.905 7.135-1.188 13.007 1.331 17.612 6.75v39.936c-3.69.914-7.316 1.085-10.932-.118-3.284-1.091-5.546-3.29-6.84-6.493-.166-.412-.236-.797-.567-1.193-.442-.529-.979-.829-1.52-.898-1.598-.209-2.502 1.139-1.93 2.888.642 1.968 1.685 3.728 3.08 5.268.295.326.578.658.99 1.134-.486.166-.84.3-1.198.406-3.048.91-5.535 2.616-7.402 5.204-.915 1.273-.845 2.45.155 3.177.973.706 2.241.401 3.075-.823 1.803-2.648 4.547-3.61 7.483-4.188a16.14 16.14 0 0 1 6.364 0c2.551.508 5.14.385 7.713.064.47-.059.952-.09 1.519-.139v55.65c-4.52 5.359-10.382 7.921-17.516 6.749-7.338-1.208-12.195-5.626-14.858-12.547 1.776-4.364 4.83-7.183 9.338-8.317 2.434-.61 4.915-.78 7.424-.4a8.517 8.517 0 0 0 1.733.08c1.037-.06 1.733-.792 1.791-1.797.065-1.027-.492-1.92-1.503-2.06-6.62-.914-12.937-.417-18.136 4.429-1.193 1.112-2.155 2.47-3.31 3.819-2.67-.476-5.151-1.626-7.365-3.316-4.835-3.686-7.285-8.643-7.611-14.671-.048-.925.059-1.867.01-2.792-.122-2.364-1.106-4.37-2.69-6.108C2.548 70.465.815 67.175.238 63.298-.565 57.907.66 53.05 3.98 48.723c.46-.599.98-1.155 1.471-1.733 1.765-2.059 2.573-4.46 2.46-7.145-.24-5.67 1.69-10.483 5.691-14.451 2.797-2.776 6.514-4.627 9.552-4.926v-.005Z" fill="#1C4769"/>
  <path d="M81.65 91.393c0-1.824-.031-3.69.006-5.552.096-4.273-2.974-8.851-7.883-10.05-1.113-.272-2.284-.374-3.434-.395-2.76-.054-5.52-.016-8.402-.016v-7.515c.486-.048 1 0 1.508 0 7.087-.01 14.173-.016 21.26.006 1.016 0 2.075.026 3.048.294 2.824.775 4.504 2.727 4.82 5.605.219 2.016.042 4.08.042 6.07-3.867 2.819-4.953 5.119-3.91 8.194.872 2.567 3.327 4.321 6.007 4.295 2.695-.027 5.086-1.803 5.92-4.402.99-3.08-.107-5.37-4.016-8.13 0-1.797.032-3.706-.006-5.615-.085-4.37-2.722-8.157-6.84-9.6-1.273-.45-2.69-.675-4.05-.685-7.31-.064-14.616-.032-21.927-.032h-1.856v-7.12c.535-.031 1.096.033 1.652.033 7.488-.005 14.976.053 22.464-.032 4.39-.048 7.68-2.129 9.579-6.113.572-1.21.834-2.632.94-3.985.156-1.941.038-3.91.038-5.926 1.963-.973 3.642-2.23 4.038-4.407.225-1.262.204-2.695-.166-3.915-.775-2.572-3.46-4.23-6.107-4.091-2.712.139-5.007 1.973-5.766 4.61-.877 3.032.305 5.38 4.145 7.926-.096 2.145 0 4.477-.342 6.74-.428 2.855-2.883 4.882-5.777 5.053-2 .123-4.005.129-6.011.134-5.659.016-11.323.01-16.981 0-.567 0-1.075.048-1.706 0v-7.53c.503-.033.914.016 1.385.016 2.54-.011 5.08.032 7.621-.017 5.252-.09 9.398-3.396 10.5-8.407.208-.942.186-1.947.208-2.92.032-1.557.01-3.113.01-4.734 1.99-.99 3.675-2.3 4.07-4.524.215-1.225.161-2.616-.203-3.798-.818-2.642-3.407-4.204-6.241-4.07-2.664.123-4.953 2.022-5.68 4.701-.808 2.985.39 5.311 4.177 7.798-.091 2.15.01 4.482-.342 6.745-.476 3.021-3.124 5.07-6.162 5.097-3.07.026-6.145.005-9.343.005V10.509c3.145-5 10.98-8.226 17.703-6.862C88.518 5.45 93.39 11.27 95.263 20.04c.695.15 1.47.294 2.24.492 7.761 1.968 13.355 8.392 14.216 16.377.134 1.23.049 2.481.097 3.722.101 2.648 1.101 4.905 2.899 6.857 2.535 2.749 4.171 5.963 4.77 9.686.872 5.434-.379 10.338-3.701 14.718a23.33 23.33 0 0 1-1.294 1.53c-1.819 2.011-2.787 4.37-2.621 7.076.567 9.43-5.953 18.495-16.617 20.115-1.792 8.911-6.846 14.869-16.083 16.409-6.985 1.166-12.729-1.46-17.302-6.776V79.493c.519-.033.99 0 1.46 0 2.54-.006 5.081-.011 7.622 0 3.572.016 6.268 2.262 6.659 5.819.219 2.016.037 4.08.037 6.07-3.856 2.765-4.937 5.065-3.91 8.199.867 2.642 3.407 4.364 6.285 4.252 2.663-.102 5.006-1.995 5.733-4.637.84-3.043-.406-5.514-4.102-7.809v.006Z" fill="#153E5F"/>
</svg>
