<svg width="120" height="120" fill="none" xmlns="http://www.w3.org/2000/svg">
  <g clip-path="url(#a)">
    <path d="M41.578 70.556 82.4 101.667m-40.82-31.111 30.807-21m-30.808 21 4.621-24.89m-4.62 24.89L10 51.11m31.578 19.445 44.672 3.888m-3.851 27.223 3.851-27.223m-3.851 27.223 29.268-38.89M86.25 74.445 72.386 49.556M86.25 74.444l25.417-11.666m-39.28-13.222L60.062 20m12.323 29.556L46.2 45.666m26.186 3.89 18.485-16.334M46.2 45.667 32.335 25.444M46.2 45.667 10 51.11m36.2-5.444L60.063 20M10 51.111l22.336-25.667m0 0L60.063 20m0 0 30.808 13.222m0 0 20.796 29.556" stroke="#153E5F" stroke-width="3"/>
    <circle cx="84.167" cy="72.5" r="9.167" fill="#1C4769"/>
    <circle cx="82.499" cy="99.167" r="9.167" fill="#1C4769"/>
    <circle cx="42.499" cy="70.833" r="9.167" fill="#1C4769"/>
    <circle cx="72.499" cy="49.167" r="9.167" fill="#1C4769"/>
    <circle cx="45.835" cy="45.833" r="9.167" fill="#1C4769"/>
    <circle cx="30.835" cy="24.167" r="9.167" fill="#1C4769"/>
    <circle cx="9.167" cy="49.167" r="9.167" fill="#1C4769"/>
    <ellipse cx="60.001" cy="19.167" rx="8.333" ry="9.167" fill="#1C4769"/>
    <circle cx="90.835" cy="34.167" r="9.167" fill="#1C4769"/>
    <circle cx="110.835" cy="64.167" r="9.167" fill="#1C4769"/>
  </g>
  <defs>
    <clipPath id="a">
      <path fill="#fff" d="M0 0h120v120H0z"/>
    </clipPath>
  </defs>
</svg>
