<svg width="132" height="94" viewBox="0 0 132 94" fill="none" xmlns="http://www.w3.org/2000/svg">
<path fill-rule="evenodd" clip-rule="evenodd" d="M9.55166 25C4.27642 25 0 29.2764 0 34.5517V69.3975C0 74.6728 4.27643 78.9492 9.55166 78.9492H14.6816V93.0998L33.0927 78.9492H91.4483C96.7236 78.9492 101 74.6728 101 69.3975V34.5517C101 29.2764 96.7236 25 91.4483 25H9.55166Z" fill="#92C9EC"/>
<rect x="11" y="35" width="60" height="5" rx="2.5" fill="#C9E4F6"/>
<rect x="11" y="48" width="79" height="5" rx="2.5" fill="#C9E4F6"/>
<rect x="11" y="61" width="41" height="5" rx="2.5" fill="#C9E4F6"/>
<rect x="61" y="61" width="29" height="5" rx="2.5" fill="#C9E4F6"/>
<path fill-rule="evenodd" clip-rule="evenodd" d="M125.408 0C129.049 0 132 2.95143 132 6.59221V30.4078C132 34.0486 129.049 37 125.408 37H121.574V47L108.563 37H88.5922C84.9514 37 82 34.0486 82 30.4078V6.59221C82 2.95143 84.9514 0 88.5922 0H125.408Z" fill="#C9E4F6"/>
<path d="M106.778 21.8984C106.329 21.8984 105.88 21.8984 105.431 21.8984C105.006 21.8984 104.813 21.7411 104.763 21.3088C104.635 20.2019 104.891 19.2191 105.663 18.3944C106.216 17.8041 106.84 17.3287 107.559 16.9708C107.871 16.8161 108.181 16.6222 108.433 16.3825C109.088 15.761 108.989 14.7696 108.231 14.2928C107.347 13.7371 106.425 13.7218 105.524 14.2391C105.258 14.3918 105.044 14.6488 104.83 14.8805C104.574 15.1574 104.343 15.4589 104.102 15.7504C103.854 16.0505 103.589 16.0857 103.281 15.8473C102.6 15.3201 101.921 14.7902 101.243 14.2583C100.986 14.0565 100.93 13.7982 101.088 13.5299C101.705 12.4874 102.477 11.5983 103.506 10.9622C104.387 10.4164 105.349 10.1375 106.368 10.0332C107.908 9.87585 109.306 10.2829 110.583 11.1421C111.775 11.9442 112.646 13.0179 112.91 14.4781C113.2 16.0857 112.815 17.508 111.509 18.5511C111.013 18.9469 110.455 19.2616 109.93 19.6202C109.442 19.9535 109.113 20.4183 108.908 20.9761C108.873 21.0724 108.862 21.18 108.85 21.2836C108.807 21.6853 108.581 21.8984 108.19 21.8984C107.719 21.8984 107.249 21.8984 106.778 21.8984Z" fill="#92C9EC"/>
<path d="M106.822 22.7497C107.32 22.7497 107.817 22.749 108.315 22.7497C108.681 22.7503 108.895 22.9595 108.896 23.3307C108.9 24.3599 108.9 25.3891 108.896 26.4177C108.895 26.7889 108.681 26.9987 108.315 26.9994C107.32 27.0007 106.325 27.0007 105.33 26.9994C104.967 26.9994 104.747 26.7869 104.745 26.4183C104.74 25.3891 104.74 24.3599 104.745 23.3314C104.747 22.9622 104.967 22.751 105.33 22.7503C105.828 22.749 106.325 22.7503 106.823 22.7503L106.822 22.7497Z" fill="#92C9EC"/>
</svg>
