<svg width="129" height="106" viewBox="0 0 129 106" fill="none" xmlns="http://www.w3.org/2000/svg">
<path d="M86.321 64.9716L39.8269 100.407M86.321 64.9716L51.2311 41.0529M86.321 64.9716L81.0575 36.6235M86.321 64.9716L122.288 42.8247M86.321 64.9716L35.4406 69.401M39.8269 100.407L35.4406 69.401M39.8269 100.407L6.49148 56.1128M35.4406 69.401L51.2311 41.0529M35.4406 69.401L6.49148 56.1128M51.2311 41.0529L65.267 7.38965M51.2311 41.0529L81.0575 36.6235M51.2311 41.0529L30.1771 22.4495M81.0575 36.6235L96.8479 13.5908M81.0575 36.6235L122.288 42.8247M81.0575 36.6235L65.267 7.38965M122.288 42.8247L96.8479 13.5908M96.8479 13.5908L65.267 7.38965M65.267 7.38965L30.1771 22.4495M30.1771 22.4495L6.49148 56.1128" stroke="#C9E4F6" stroke-width="3"/>
<circle r="7.5" transform="matrix(-1 0 0 1 35.5 69.5)" fill="#92C9EC"/>
<circle r="7.5" transform="matrix(-1 0 0 1 40.5 98.5)" fill="#92C9EC"/>
<circle r="7.5" transform="matrix(-1 0 0 1 86.5 64.5)" fill="#92C9EC"/>
<circle r="7.5" transform="matrix(-1 0 0 1 51.5 41.5)" fill="#92C9EC"/>
<circle r="7.5" transform="matrix(-1 0 0 1 81.5 35.5)" fill="#92C9EC"/>
<circle r="7.5" transform="matrix(-1 0 0 1 96.5 14.5)" fill="#92C9EC"/>
<circle r="7.5" transform="matrix(-1 0 0 1 121.5 43.5)" fill="#92C9EC"/>
<circle r="7.5" transform="matrix(-1 0 0 1 65.5 7.5)" fill="#92C9EC"/>
<circle r="7.5" transform="matrix(-1 0 0 1 30.5 22.5)" fill="#92C9EC"/>
<circle r="7.5" transform="matrix(-1 0 0 1 7.5 57.5)" fill="#92C9EC"/>
</svg>
