<svg width="112" height="112" viewBox="0 0 112 112" fill="none" xmlns="http://www.w3.org/2000/svg">
<path d="M99.0877 61.9717C97.8114 71.1812 93.6179 79.7395 87.1221 86.3915C80.6263 93.0436 72.1701 97.4393 62.9935 98.9342" stroke="#92C9EC"/>
<path d="M66.9421 89.3725C65.0021 93.7467 62.7433 98.8395 62.577 99.2144L72.4189 103.58" stroke="#92C9EC"/>
<path d="M50.0284 99.0883C40.8189 97.812 32.2606 93.6184 25.6086 87.1227C18.9565 80.6269 14.5608 72.1707 13.0659 62.9941" stroke="#92C9EC"/>
<path d="M22.628 66.9432C18.2538 65.0031 13.161 62.7443 12.786 62.578L8.4209 72.42" stroke="#92C9EC"/>
<path d="M12.9123 50.0286C14.1886 40.819 18.3821 32.2607 24.8779 25.6087C31.3737 18.9567 39.8299 14.5609 49.0065 13.066" stroke="#92C9EC"/>
<path d="M45.0579 22.6278C46.9979 18.2536 49.2567 13.1608 49.423 12.7858L39.5811 8.42072" stroke="#92C9EC"/>
<path d="M61.9716 12.9119C71.1811 14.1883 79.7394 18.3818 86.3914 24.8776C93.0435 31.3733 97.4392 39.8296 98.9341 49.0062" stroke="#92C9EC"/>
<path d="M89.372 45.0571C93.7462 46.9971 98.839 49.2559 99.214 49.4222L103.579 39.5803" stroke="#92C9EC"/>
<path d="M49.0606 88.2622C44.5411 87.2901 40.2762 85.3792 36.5424 82.6534C32.8086 79.9275 29.6892 76.4476 27.3863 72.4392" stroke="#92C9EC" stroke-linecap="round" stroke-dasharray="6 9"/>
<path d="M23.7385 49.0605C24.7106 44.5409 26.6215 40.2761 29.3474 36.5423C32.0732 32.8085 35.5531 29.6891 39.5615 27.3862" stroke="#92C9EC" stroke-linecap="round" stroke-dasharray="6 9"/>
<path d="M62.9394 23.7381C67.4589 24.7102 71.7238 26.6211 75.4576 29.3469C79.1914 32.0727 82.3108 35.5526 84.6137 39.5611" stroke="#92C9EC" stroke-linecap="round" stroke-dasharray="6 9"/>
<path d="M88.2625 62.9398C87.2903 67.4593 85.3794 71.7241 82.6536 75.4579C79.9278 79.1917 76.4479 82.3112 72.4394 84.6141" stroke="#92C9EC" stroke-linecap="round" stroke-dasharray="6 9"/>
</svg>
