<svg width="70" height="70" fill="none" xmlns="http://www.w3.org/2000/svg">
                                    <circle cx="35" cy="35" r="34.271" fill="#fff"></circle>
                                    <path d="M34.998 70C15.703 70 0 54.297 0 34.998 0 15.698 15.703 0 34.998 0c19.296 0 34.998 15.703 34.998 34.998 0 19.296-15.702 34.998-34.998 34.998V70Zm0-66.352c-17.285 0-31.35 14.065-31.35 31.35 0 17.286 14.065 31.354 31.354 31.354s31.354-14.065 31.354-31.354-14.069-31.35-31.358-31.35Z" fill="#1C4092"></path>
                                    <g filter="url(#a)">
                                        <path d="M49.422 26.794S45.87 15.945 34.017 15.898c-6.502-.025-12.62 5.933-12.62 13.065 0 7.133 7.212 12.823 13.058 12.758 5.227-.058 8.357-.927 13.917-7.737 0 0-2.927 9.215-14.363 9.215-9.61 0-14.75-7.592-15.043-14.073-.34-7.472 5.756-16.039 15.855-15.756 14.08.394 14.605 13.42 14.605 13.42l-.004.004Z" fill="#04A2DC"></path>
                                    </g>
                                    <path d="M42.562 24.823v1.58c-1.964.3-3.706.996-4.952 2.6.007.026.018.047.025.073.123-.015.25-.03.373-.047 1.326-.203 2.623-.105 3.865.43.565.243 1.062.591 1.424 1.105.532.758.612 1.794.04 2.677-.594.92-1.45 1.482-2.463 1.83-1.51.521-3.05.514-4.586.159-.938-.217-1.782-.656-2.409-1.42-.742-.906-1-1.93-.746-3.079.203-.916.652-1.702 1.264-2.405.685-.786 1.51-1.391 2.423-1.884a12.68 12.68 0 0 1 2.434-1.01c1.04-.312 2.098-.49 3.17-.601.04-.004.08 0 .134 0l.004-.008Zm-2.58 7.281c-.007-.438-.094-.837-.34-1.195-.569-.815-1.923-.819-2.492 0-.304.434-.359.93-.319 1.434.054.695.355 1.253 1.025 1.554a1.424 1.424 0 0 0 1.58-.315c.402-.42.521-.942.547-1.482v.004ZM23.458 34.897c.065-.12.123-.236.185-.344.199-.348.41-.689.605-1.04.069-.127.144-.141.268-.09.779.315 1.59.47 2.43.39.58-.054 1.098-.271 1.464-.745.347-.453.286-1.109-.12-1.515-.351-.347-.782-.543-1.25-.67a7.842 7.842 0 0 0-2.133-.279c-.058 0-.116-.01-.185-.018v-1.394c.228 0 .453.01.674 0 .742-.04 1.456-.178 2.075-.627.413-.297.609-.684.493-1.192-.101-.442-.438-.663-.84-.797-.467-.159-.95-.13-1.424-.05-.395.069-.782.17-1.177.257-.054.01-.105.025-.17.04l-.761-1.308c.228-.076.438-.16.656-.214 1.108-.29 2.238-.481 3.386-.47 1.073.01 2.127.177 3.09.695.55.297.967.717 1.13 1.344.113.43.018.833-.195 1.21-.304.54-.772.913-1.322 1.184-.323.16-.66.286-.978.42.014.004.058.022.101.033.565.109 1.127.243 1.641.51.529.272 1.018.62 1.271 1.17.453.968.29 1.78-.496 2.612-.525.558-1.203.859-1.92 1.094-1.246.406-2.528.42-3.81.344-.891-.05-1.772-.199-2.62-.503-.017-.007-.032-.018-.068-.036v-.011ZM44.032 30.061a5.484 5.484 0 0 1 .265-1.775 4.97 4.97 0 0 1 1.097-1.909c.333-.358.721-.648 1.141-.898.544-.322 1.141-.46 1.75-.583.529-.109 1.057-.076 1.586-.036.344.029.681.116 1.014.21.468.134.899.34 1.294.612.5.344.949.742 1.282 1.264.257.402.464.83.616 1.279.12.355.21.72.246 1.094.044.478.047.956 0 1.434-.033.326-.109.637-.178.953-.065.297-.163.59-.304.862-.141.268-.282.532-.434.793-.287.489-.681.877-1.138 1.203-.366.26-.76.456-1.184.608a5.492 5.492 0 0 1-2.319.29 7.626 7.626 0 0 1-1.068-.174c-.243-.058-.467-.177-.703-.26-.347-.124-.645-.338-.938-.551-.16-.116-.297-.265-.446-.395-.438-.377-.72-.859-.985-1.358-.257-.49-.405-1.011-.507-1.547a5.356 5.356 0 0 1-.083-1.12l-.004.004Zm6.672-.036c-.014-.54-.025-1.076-.17-1.601-.098-.359-.177-.728-.413-1.036-.145-.188-.304-.362-.521-.464a.926.926 0 0 0-.8 0c-.2.095-.356.243-.49.42-.25.33-.373.71-.456 1.102a7.038 7.038 0 0 0-.149 1.293c-.018.576.022 1.148.09 1.717a3.8 3.8 0 0 0 .352 1.224c.116.24.272.453.486.609.441.315.96.228 1.31-.145.186-.196.33-.424.42-.681.15-.42.25-.855.29-1.3.033-.377.044-.758.062-1.134l-.01-.004Z" fill="#1C4092"></path>
                                    <path d="M49.299 30.79a1.043 1.043 0 1 0 0-2.087 1.043 1.043 0 0 0 0 2.086ZM30.608 21.94h.456c.026 0 .033.007.037.033.007.083.01.166.032.242.04.16.134.283.286.363.09.047.185.09.286.108.167.033.34.036.508.026.22-.015.423-.087.597-.225a.42.42 0 0 0 .138-.196.39.39 0 0 0-.007-.232.454.454 0 0 0-.207-.282 1.143 1.143 0 0 0-.337-.156c-.17-.04-.34-.076-.514-.116l-.583-.14c-.065-.015-.13-.034-.196-.052a.58.58 0 0 1-.072-.025c-.098-.044-.196-.083-.286-.134a1.135 1.135 0 0 1-.373-.279.802.802 0 0 1-.185-.445.834.834 0 0 1 .224-.667c.12-.127.261-.22.42-.29.077-.032.149-.069.229-.098a1.59 1.59 0 0 1 .188-.05 5.365 5.365 0 0 1 1.29-.05c.18.014.358.035.528.09.134.043.265.094.377.18.058.044.116.091.17.138.019.015.033.037.047.055.084.112.13.235.149.373.007.05.01.101.018.155v.044c-.007.05-.025.065-.076.065h-.891c-.025 0-.04-.007-.043-.032-.008-.04-.011-.084-.026-.12-.022-.069-.04-.141-.072-.203a.393.393 0 0 0-.218-.177 1.247 1.247 0 0 0-.576-.08c-.076.004-.155.01-.231.029a1.31 1.31 0 0 0-.287.112.402.402 0 0 0-.202.413c.014.127.08.221.18.294.12.087.254.148.396.188.224.062.452.127.68.178.297.065.594.137.877.257.178.076.348.173.471.33a.592.592 0 0 1 .109.198c.01.037.01.08.029.116.029.062.032.124.029.185v.102c0 .029 0 .058-.022.083-.007.007-.007.022-.007.029.01.058-.011.108-.037.16-.032.068-.061.137-.105.198a.888.888 0 0 1-.3.28c-.084.047-.17.08-.261.115a2.049 2.049 0 0 1-.464.13c-.145.022-.29.044-.434.051-.178.011-.359.011-.537.011-.344 0-.677-.072-.996-.195a1.226 1.226 0 0 1-.474-.316.919.919 0 0 1-.232-.514 2.125 2.125 0 0 1-.01-.213c0-.044.014-.051.053-.051h.457v.007ZM37.82 20.56h-.416c-.084 0-.113-.03-.127-.112-.018-.105-.033-.214-.08-.312a.633.633 0 0 0-.376-.319 1.341 1.341 0 0 0-.855.018.674.674 0 0 0-.395.395 1.784 1.784 0 0 0-.123.453c-.015.105-.018.21-.026.315-.007.12-.01.24-.007.359 0 .195.011.391.065.58.03.112.066.22.105.325a.617.617 0 0 0 .229.283.96.96 0 0 0 .55.17c.152.004.3-.007.439-.061.213-.084.373-.218.441-.439.033-.101.047-.206.055-.311 0-.04.007-.076.01-.116 0-.018.012-.03.033-.03.037 0 .073-.003.113-.003.144 0 .286.008.43.008.12 0 .236 0 .356-.004h.025c.043 0 .058.01.058.054 0 .084 0 .17-.015.254a1.407 1.407 0 0 1-.043.206.814.814 0 0 1-.12.254 1.585 1.585 0 0 1-.29.333c-.072.069-.166.109-.257.152-.13.062-.268.109-.412.141-.142.033-.287.051-.432.062a5 5 0 0 1-.402.015c-.184 0-.37-.011-.554-.044a2.199 2.199 0 0 1-.688-.243 1.042 1.042 0 0 1-.362-.326c-.026-.036-.058-.069-.08-.105-.025-.04-.043-.083-.065-.123-.007-.01-.007-.025-.015-.036a1.16 1.16 0 0 1-.097-.312 11.865 11.865 0 0 1-.07-.347 2.37 2.37 0 0 1-.028-.576c.01-.21.04-.417.08-.623.028-.142.068-.276.126-.406.058-.123.134-.232.228-.333.134-.142.294-.247.471-.326.051-.022.105-.047.16-.066.076-.021.155-.036.231-.05.07-.015.135-.022.203-.033.047-.007.09-.01.138-.014.156-.004.312-.011.467-.011.167 0 .33.007.497.032.14.022.286.037.42.08.286.084.536.232.71.482.083.12.134.253.152.398.007.076.01.149.018.225v.043c0 .033-.011.044-.047.044h-.431.003ZM39.682 21.1v1.586c0 .083-.004.163-.004.246 0 .058 0 .116.004.174 0 .033-.008.036-.04.036h-.946c-.025 0-.029-.01-.029-.029 0-.228-.003-.46-.007-.688V19.376c0-.04.004-.044.044-.051a.447.447 0 0 1 .068-.008h.787c.025 0 .047 0 .072.004.029 0 .047.022.05.05 0 .113.008.229.008.341v1.391l-.007-.004Z" fill="#04A2DC"></path>
                                    <path d="M10.392 49.867c-.492 0-.887-.162-1.18-.488l.307-.497c.232.276.522.417.873.417.178 0 .319-.05.42-.149a.481.481 0 0 0 .153-.362.462.462 0 0 0-.17-.362 1.677 1.677 0 0 0-.41-.257 7.304 7.304 0 0 1-.478-.236 1.163 1.163 0 0 1-.413-.377 1.049 1.049 0 0 1-.17-.6c0-.309.105-.566.311-.769.21-.203.482-.304.822-.304.428 0 .78.138 1.055.417l-.298.485a1.022 1.022 0 0 0-.771-.33.519.519 0 0 0-.362.127.444.444 0 0 0-.138.34c0 .124.058.233.17.323.113.09.25.174.41.246.16.073.318.153.481.24.16.086.298.217.413.39.113.17.17.377.17.616 0 .33-.104.602-.31.815-.211.21-.5.32-.877.32l-.008-.005ZM13.272 49.795h-.605v-3.289h-.84v-.558h2.282v.558h-.84v3.29h.003ZM16.948 49.795h-.68l-.62-1.456h-.45v1.456h-.608v-3.85h1.26c.316 0 .57.108.769.33.195.22.297.506.297.861 0 .312-.065.558-.196.743-.13.181-.29.3-.478.355l.706 1.565v-.004Zm-1.184-2.021c.16 0 .29-.058.387-.174.098-.116.145-.268.145-.46s-.047-.348-.145-.46a.479.479 0 0 0-.387-.174h-.565v1.271h.565v-.003ZM20.086 49.795h-.66l-.199-.76h-1.203l-.199.76h-.659l1.09-3.85h.728l1.09 3.85h.012Zm-.978-1.33-.479-1.84-.478 1.84h.957ZM21.411 49.795h-.605v-3.289h-.84v-.558h2.282v.558h-.84v3.29h.003ZM24.73 49.795h-2.004v-3.85h2.003v.557h-1.394v1.044h1.354v.565h-1.354v1.115h1.394v.569ZM26.67 49.87c-.449 0-.81-.184-1.083-.55-.271-.365-.409-.847-.409-1.445 0-.598.138-1.076.41-1.442a1.283 1.283 0 0 1 1.083-.547c.521 0 .909.272 1.162.82l-.492.242c-.152-.33-.377-.496-.67-.496-.265 0-.475.13-.634.387-.16.257-.24.605-.24 1.04 0 .434.08.782.24 1.04.16.257.37.387.634.387s.456-.09.608-.275v-.718h-.768v-.561h1.344v1.529c-.319.394-.713.594-1.184.594v-.004ZM29.083 49.795h-.608v-3.85h.608v3.85ZM31.14 49.867c-.453 0-.815-.184-1.086-.557-.272-.37-.406-.848-.406-1.435 0-.587.134-1.068.406-1.438.271-.37.634-.554 1.086-.554.515 0 .902.283 1.16.848l-.504.235c-.141-.348-.359-.518-.652-.518-.264 0-.475.134-.634.399-.16.264-.239.608-.239 1.028 0 .42.08.757.239 1.022.16.264.37.398.634.398.152 0 .286-.05.398-.156.113-.105.2-.239.261-.409l.504.236c-.25.6-.638.901-1.163.901h-.004Z" fill="#1C4092"></path>
                                    <path d="M34.56 49.795h-.609v-3.85h1.246c.344 0 .609.115.797.344.188.228.283.514.283.85 0 .338-.095.628-.283.86-.188.228-.453.343-.797.343h-.637V49.8v-.004Zm.565-2.021c.16 0 .29-.058.387-.174.098-.116.145-.268.145-.46s-.047-.348-.145-.46a.479.479 0 0 0-.387-.174h-.565v1.271h.565v-.003ZM39.055 49.795h-.659l-.196-.76h-1.202l-.196.76h-.659l1.09-3.85h.728l1.09 3.85h.004Zm-.978-1.33-.478-1.84-.478 1.84h.956ZM41.783 49.795h-.681l-.62-1.456h-.449v1.456h-.608v-3.85h1.26c.316 0 .569.108.768.33.2.22.297.506.297.861 0 .312-.065.558-.195.743-.13.181-.29.3-.478.355l.706 1.565v-.004Zm-1.185-2.021c.16 0 .29-.058.388-.174.098-.116.145-.268.145-.46s-.047-.348-.145-.46a.479.479 0 0 0-.388-.174h-.565v1.271h.565v-.003ZM43.51 49.795h-.604v-3.289h-.84v-.558h2.281v.558h-.84v3.29h.004ZM47.372 49.795h-.584l-1.354-2.489v2.489h-.609v-3.85h.616l1.322 2.42v-2.42h.609v3.85ZM50.074 49.795H48.07v-3.85h2.003v.557h-1.395v1.044h1.355v.565H48.68v1.115h1.395v.569ZM53.019 49.795h-.681l-.62-1.456h-.449v1.456h-.608v-3.85h1.26c.315 0 .569.108.768.33.2.22.297.506.297.861 0 .312-.065.558-.195.743-.13.181-.29.3-.479.355l.707 1.565v-.004Zm-1.185-2.021c.16 0 .29-.058.388-.174.098-.116.145-.268.145-.46s-.047-.348-.145-.46a.479.479 0 0 0-.388-.174h-.565v1.271h.565v-.003ZM54.193 49.795h-.609v-3.85h.608v3.85ZM57.442 49.795h-.583l-1.355-2.489v2.489h-.608v-3.85h.615l1.322 2.42v-2.42h.609v3.85ZM59.499 49.87c-.45 0-.812-.184-1.083-.55-.272-.365-.41-.847-.41-1.445 0-.598.138-1.076.41-1.442a1.283 1.283 0 0 1 1.083-.547c.521 0 .909.272 1.162.82l-.492.242c-.152-.33-.377-.496-.67-.496-.265 0-.475.13-.634.387-.16.257-.24.605-.24 1.04 0 .434.08.782.24 1.04.16.257.37.387.634.387s.456-.09.608-.275v-.718h-.768v-.561h1.344v1.529c-.319.394-.713.594-1.184.594v-.004Z" fill="#04A2DC"></path>
                                    <defs>
                                        <filter id="a" x="17.494" y="13.363" width="33.39" height="32.753" filterUnits="userSpaceOnUse" color-interpolation-filters="sRGB">
                                            <feFlood flood-opacity="0" result="BackgroundImageFix"></feFlood>
                                            <feColorMatrix in="SourceAlpha" values="0 0 0 0 0 0 0 0 0 0 0 0 0 0 0 0 0 0 127 0" result="hardAlpha">
                                            </feColorMatrix>
                                            <feOffset dy="1.458"></feOffset>
                                            <feGaussianBlur stdDeviation=".729"></feGaussianBlur>
                                            <feComposite in2="hardAlpha" operator="out"></feComposite>
                                            <feColorMatrix values="0 0 0 0 0 0 0 0 0 0 0 0 0 0 0 0 0 0 0.3 0">
                                            </feColorMatrix>
                                            <feBlend in2="BackgroundImageFix" result="effect1_dropShadow_2110_956">
                                            </feBlend>
                                            <feBlend in="SourceGraphic" in2="effect1_dropShadow_2110_956" result="shape"></feBlend>
                                        </filter>
                                    </defs>
                                </svg>