<svg width="219" height="50" fill="none" xmlns="http://www.w3.org/2000/svg">
                                    <path fill-rule="evenodd" clip-rule="evenodd" d="m69.34 9.746-2.318 10.087-1.636-10.087h-4.325l-1.635 10.087-2.318-10.087h-3.765l4.29 15.56h3.837l1.745-9.87 1.745 9.87h3.847L73.1 9.745h-3.76ZM34.298 42.291a43.017 43.017 0 0 0 1.543-13.733c.96.271 1.59.466 2.385.698l.868.25a68.313 68.313 0 0 0-5.15-10.503 43.08 43.08 0 0 1-6.813 9.423l4.09-.25a23.931 23.931 0 0 1-2.13 3.2 19.891 19.891 0 0 1-1.589 1.771c-3.029 2.992-6.718 4.627-11.02 5.235a28.4 28.4 0 0 1-.557-5.95c.037-4.313.977-9.097 3.378-13.01a16.343 16.343 0 0 1 4.774-5.046l.793 3.89c1.573-2.524 4.644-5.792 6.962-8.093a21.733 21.733 0 0 0-11.886-1.137c.68.56 1.496 1.296 2.166 1.857C13.072 14.69 8.105 20.94 4.848 28.251a19.724 19.724 0 1 1 29.45 14.04ZM24.348.91a24.348 24.348 0 1 0 9.316 1.856A24.348 24.348 0 0 0 24.346.912L24.35.91Zm151.568 24.443h3.184v-3.149h-3.194v3.151l.01-.002Zm-7.75-6.265h1.952v2.954a6.7 6.7 0 0 1-1.012.078h-1.319c-1.882 0-2.361-1.304-2.361-2.743v-3.893c0-1.476.656-2.538 2.456-2.538h5.317v-3.32h-5.484c-3.067 0-5.28 1.827-5.569 4.985-.023.25-.028.516-.028.783v4.487c0 3.273 2.256 5.564 5.29 5.564h2.635c1.635 0 2.58-.448 3.408-1.057v-8.226h-5.285v2.941-.015Zm39.178-9.34v3.028h3.752v12.53h3.32v-12.53h3.755V9.746h-10.827v.001Zm-11.599 15.558h9.919v-3.037h-6.586v-3.517h5.983v-2.964h-5.983v-3.012h6.598V9.746h-9.931v15.56Zm-5.734-6.265L185 9.746h-3.275v15.56h3.193V16.01l5.021 9.294h3.278V9.746h-3.198v9.294h-.008Zm-33.108 0-5.011-9.294h-3.275v15.56h3.193V16.01l5.018 9.294h3.278V9.746h-3.193v9.294h-.01Zm-14.364 6.265h3.318V9.746h-3.318v15.56Zm-10.021-3.97-3.092-11.588h-4.17v15.56h3.176v-9.52l2.405 9.535h3.361l2.408-9.535v9.523h3.173V9.746h-4.17l-3.091 11.59Zm-16.369-1.859 1.329-5.89 1.329 5.89h-2.658Zm-.603-9.722-4.29 15.558h3.527l.723-3.193h3.944l.725 3.193h3.528L119.41 9.746l-3.864.008Zm-10.635 9.34h1.952v2.955c-.33.05-.663.076-.997.077h-1.321c-1.882 0-2.361-1.304-2.361-2.742v-3.9c0-1.477.656-2.539 2.456-2.539h5.317v-3.32h-5.484c-3.067 0-5.28 1.827-5.57 4.985-.022.25-.027.516-.027.783v4.487c0 3.273 2.256 5.564 5.292 5.564h2.633c1.635 0 2.583-.448 3.405-1.057v-8.226h-5.295v2.941-.007Zm-11.425-3.758c0 .785-.498 1.134-1.164 1.14H89.54v-3.7h2.782c.594 0 1.167.29 1.167.996v1.546l-.003.017v.001Zm3.348.84v-3.49A2.84 2.84 0 0 0 94.608 9.9c-.813-.2-1.61-.147-2.51-.152H86.22v15.558h3.32v-5.83h2.136l2.097 5.828h3.88l-2.76-6.482a2.787 2.787 0 0 0 1.941-2.645v-.002.001Zm-19.943 3.308 1.33-5.89 1.325 5.89h-2.655Zm-.603-9.723-4.293 15.56h3.528l.725-3.195h3.941l.726 3.18h3.525l-4.273-15.56-3.88.015h.001Z" fill="#939598"></path>
                                    <path fill-rule="evenodd" clip-rule="evenodd" d="M24.348 5.536a19.753 19.753 0 0 0-19.5 22.715c3.26-7.299 8.227-13.549 17.254-17.345-.68-.56-1.496-1.297-2.166-1.857a21.734 21.734 0 0 1 11.886 1.136c-2.319 2.301-5.39 5.57-6.963 8.092l-.78-3.9a16.346 16.346 0 0 0-4.764 5.05c-2.4 3.913-3.34 8.697-3.378 13.01a28.351 28.351 0 0 0 .556 5.948c4.303-.618 7.992-2.244 11.021-5.235a19.859 19.859 0 0 0 1.588-1.773 23.915 23.915 0 0 0 2.131-3.198l-4.09.25a43.08 43.08 0 0 0 6.813-9.424 68.305 68.305 0 0 1 5.137 10.493l-.867-.25c-.795-.23-1.426-.426-2.383-.698a43.09 43.09 0 0 1-1.546 13.734 19.728 19.728 0 0 0-9.949-36.748ZM129.59 34.853h1.785v5.965h1.217v-5.965h1.787v-1.078h-4.789v1.078Zm-9.537 0h1.787v5.965h1.207v-5.965h1.784v-1.078h-4.776v1.078h-.002Zm-14.359 1.303a.585.585 0 0 1-.13.372.366.366 0 0 1-.287.13h-1.725v-1.805h1.673a.454.454 0 0 1 .336.144c.088.1.136.23.133.364v.795Zm-.12 3.43a.497.497 0 0 1-.314.155h-1.708v-2.017h1.683a.424.424 0 0 1 .314.127c.089.09.141.21.145.337v1.084a.45.45 0 0 1-.12.312v.002Zm.763-2.4a1.362 1.362 0 0 0 .523-1.1v-.875a1.35 1.35 0 0 0-.536-1.12 1.583 1.583 0 0 0-.917-.316h-3.066v7.041h3.071a1.476 1.476 0 0 0 1.451-1.43v-1.11a1.388 1.388 0 0 0-.526-1.095v.005Zm6.504 1.037.765-3.084.788 3.084h-1.553Zm0-4.445-1.942 7.042h1.294l.376-1.52h2.096l.389 1.52h1.289l-1.939-7.042h-1.563Zm40.02 1.077v-1.077h-4.352v7.042h4.357v-1.076h-3.146V37.7h2.852v-1.047h-2.852v-1.797h3.141Zm-63.13 1.917-1.104-.102c-.593-.053-.795-.284-.787-.893 0-.379.104-.583.276-.69a1.67 1.67 0 0 1 .823-.13h2.256v-1.22h-2.11c-.652-.014-1.258.05-1.707.31-.448.262-.748.72-.772 1.496v.336c0 .736.216 1.212.533 1.516.33.288.751.451 1.19.461l1.166.083a.974.974 0 0 1 .608.192.931.931 0 0 1 .217.685c.017.748-.282.85-.785.863H86.75v1.214h2.291c.32.006.641-.009.96-.048a1.98 1.98 0 0 0 .877-.319c.213-.147.379-.352.48-.59.112-.268.168-.556.164-.846v-.4c0-1.195-.64-1.816-1.785-1.92l-.005.002Zm-22.774 4.046h4.355v-1.077H68.17v-2.044h2.851V36.65h-2.85v-1.797h3.14v-1.078h-4.356v7.043h.002Zm-8.107-7.043h-1.214v7.043h4.355v-1.077h-3.14v-5.966Zm81.47 0h-1.212v7.043h3.939v-1.077h-2.727v-5.966Zm-57.372 1.658.626.23 1.64-1.885h-1.667l-.599 1.658v-.003Zm-7.296-.58h1.787v5.965h1.214v-5.965h1.788v-1.078h-4.79v1.078h.001Z" fill="#E11931"></path>
                                </svg>