<svg width="115" height="51" fill="none" xmlns="http://www.w3.org/2000/svg">
                                    <path d="M64.668 25.911c0-.694.046-1.365-.013-2.025-.068-.757-.627-1.11-1.306-1.269-1.081-.252-2.18-.226-3.28-.156-.778.05-1.553.13-2.4.203 0-.608-.026-1.162.018-1.713.01-.133.244-.318.403-.351.891-.188 1.783-.427 2.688-.479 1.204-.07 2.428-.08 3.624.055 1.857.21 2.886 1.35 3.076 3.2.057.554.094 1.116.096 1.672.01 2.514.006 5.029.006 7.59h-2.41c-.076-.24-.16-.502-.237-.752-.694.286-1.363.595-2.052.837-1.23.427-2.495.421-3.751.146-1.178-.258-1.943-.97-2.177-2.192-.15-.79-.228-1.575-.096-2.381.273-1.665 1.433-2.715 3.222-2.873 1.406-.123 2.79.033 4.152.39.14.036.283.065.44.098h-.003Zm.046 2c-1.008-.273-2.96-.388-3.853-.245-.71.115-1.073.518-1.112 1.246-.01.203-.01.41.007.613.055.63.419 1.056 1.032 1.14 1.267.173 2.486-.05 3.656-.544.12-.05.255-.234.26-.36.026-.61.013-1.221.013-1.848l-.003-.002ZM103.235 32.656h-2.389c-.083-.26-.172-.533-.252-.788-.593.262-1.157.554-1.75.767a6.998 6.998 0 0 1-4.34.153c-.86-.239-1.468-.793-1.757-1.653-.35-1.048-.424-2.122-.153-3.193.382-1.519 1.536-2.397 3.231-2.527 1.37-.104 2.715.049 4.04.392.157.042.315.073.508.115 0-.64.026-1.233-.005-1.826-.042-.759-.481-1.253-1.202-1.432-.538-.135-1.1-.245-1.65-.24-1.08.011-2.156.11-3.232.172l-.908.058V20.67c.663-.143 1.342-.32 2.033-.432 1.534-.247 3.081-.299 4.623-.086 1.903.263 2.946 1.365 3.138 3.279.05.48.063.967.065 1.45.006 2.385.003 4.769.003 7.153v.624l-.003-.002Zm-2.844-4.78c-1.331-.236-2.603-.376-3.887-.202-.668.091-.972.413-1.066 1.092-.039.27-.039.556 0 .824.094.663.434 1.001 1.079 1.08 1.248.15 2.439-.079 3.596-.544.205-.083.283-.2.281-.416-.011-.593-.003-1.186-.003-1.836v.003ZM79.683 27.593h-7.89c-.196 1.823.72 2.897 2.625 2.957 1.37.044 2.748-.1 4.124-.162.218-.01.437-.036.73-.06 0 .599.019 1.152-.013 1.701-.007.114-.176.28-.301.32-2.127.676-4.288.962-6.49.413-1.565-.39-2.618-1.399-3.138-2.904-.692-2.002-.77-4.059-.205-6.097.556-2.004 1.885-3.237 3.965-3.622 1.203-.22 2.397-.275 3.598.021 1.557.385 2.538 1.337 2.917 2.897.359 1.487.268 2.977.08 4.537h-.002Zm-7.956-2.131h5.528c-.057-.627-.07-1.204-.174-1.763-.112-.609-.497-1.025-1.105-1.21a4.632 4.632 0 0 0-2.743.009c-.546.166-.965.478-1.199 1-.278.62-.33 1.277-.307 1.963ZM55.281 32.653h-2.886V24.44c0-.187.003-.372-.005-.56-.047-.904-.387-1.27-1.284-1.382-1.24-.151-3.081.088-3.976.535v9.612h-2.836V20.301c.634 0 1.243-.013 1.851.01.11.005.244.14.31.25.111.187.179.403.233.535 1.09-.332 2.122-.71 3.185-.949a7.968 7.968 0 0 1 2.275-.176c1.93.14 3.037 1.302 3.139 3.447.06 1.264 0 2.532 0 3.799v5.434l-.006.002ZM105.237 32.211V30.34c.762.102 1.492.258 2.226.28 1.206.043 2.42.053 3.624-.023 1.193-.072 1.321-.954 1.076-1.978-.104-.442-.533-.543-.92-.619-.858-.166-1.724-.296-2.582-.468a13.333 13.333 0 0 1-1.62-.413c-.923-.307-1.531-.954-1.661-1.92-.099-.745-.148-1.523-.057-2.269.127-1.04.754-1.789 1.695-2.277 1.305-.679 2.707-.809 4.134-.671.886.086 1.765.268 2.639.447.585.12.58.15.582.736v1.43c-.808-.091-1.557-.224-2.309-.25-1-.034-2.012-.052-3.008.052-.907.094-1.18.58-1.076 1.49.062.554.426.822.897.944.593.156 1.204.244 1.804.364.749.148 1.503.265 2.239.463.403.109.806.304 1.149.546.507.358.783.86.759 1.526a38.61 38.61 0 0 0 0 2.847c.026.65-.242 1.141-.738 1.471-.44.297-.936.577-1.446.692-2.438.554-4.846.34-7.215-.424-.07-.023-.13-.07-.195-.106l.003.002ZM92.365 32.681c-1.144 0-2.181.014-3.216-.012-.143-.003-.315-.17-.414-.305-.777-1.068-1.539-2.147-2.303-3.224-.128-.179-.258-.358-.424-.592-.434.572-.84 1.1-1.237 1.632-.536.715-1.077 1.428-1.597 2.153-.177.25-.364.37-.686.359-.856-.023-1.714-.008-2.68-.008.379-.52.704-.98 1.04-1.432 1.12-1.508 2.238-3.022 3.377-4.517.21-.278.181-.46-.01-.728-1.218-1.692-2.419-3.398-3.623-5.098-.117-.164-.223-.335-.377-.562.18-.02.297-.047.414-.047.84-.002 1.677.01 2.516-.007.313-.008.508.088.687.353.728 1.058 1.482 2.098 2.225 3.144.073.104.159.197.279.343.527-.752 1.027-1.461 1.526-2.174.32-.457.645-.912.96-1.372.121-.177.244-.297.488-.294.894.015 1.786.005 2.821.005-1.456 2.051-2.855 4.025-4.277 6.03l4.511 6.354ZM31.501 22l2 3.5 2.5 4 2.01 2.968 2.146-3.638-2.071-3.47L36.079 22h-4.578ZM7.238 50.18h1.501L37.777 0h-1.451L7.238 50.18Z" fill="#1C1C1C"></path>
                                    <path d="M12.606 11.043 21.114 11l-2.142 3.467 4.22.044 2.126 3.69c-1.427 0-2.854 0-4.28.002l-2.074-3.59-2.11 3.535-4.248-7.105ZM34 32.5h-4.5c-.678-1.162-1.448-2.551-2.126-3.712-.665 1.16-1.207 2.55-1.873 3.711-.754-1.192-1.631-2.614-2.386-3.806l2.048-3.514L27.39 28.7l4.23.038c.696-1.144 1.391-2.29 2.088-3.434l2.06 3.48c-.666 1.163-1.102 2.553-1.767 3.715ZM4.218 25.175l2.115 3.577H2.1l2.088 3.481 2.145-3.482 4.168 7.092v-.002l-4.235-.003-2.078-3.606-4.14-.041 4.169-7.019.001.003Z" fill="#FA8000"></path>
                                    <path d="m6.335 21.603 8.384-.002c-.68 1.192-1.36 2.383-2.039 3.576H4.218c.706-1.192 1.413-2.381 2.117-3.572v-.002Z" fill="#F77300"></path>
                                    <path d="m27.362 14.567 4.241 7.1c-1.392-.003-2.785-.003-4.18 0h-.132l-2.05-3.511 2.121-3.588v-.001ZM8.357 32.254l2.074-3.501h4.31l-2.062-3.576 4.135.081-4.19 7.01-4.267-.014Z" fill="#FC8D00"></path>
                                    <path d="m21.043 25.187-2.138-3.494c2.795-.01 5.592-.018 8.388-.027l-2.053 3.513-4.197.008Z" fill="#FF9A00"></path>
                                    <path d="M2.044 42.927.016 39.34c1.421.006 2.844.01 4.266.015L2.166 35.84h4.1l-1.984 3.515c-.746 1.19-1.492 2.38-2.24 3.57h.002Z" fill="#FA8000"></path>
                                    <path d="m27.363 14.567-2.106 3.636-2.067-3.692 2.055-3.494 2.117 3.549Z" fill="#F77300"></path>
                                    <path d="m18.915 21.666-2.1 3.593-4.135-7.124 4.174.012A154.507 154.507 0 0 0 14.77 21.6c1.381.022 2.763.042 4.146.065Z" fill="#B34B00"></path>
                                    <path d="m2.167 35.84 2.116 3.514-4.266-.014 2.152-3.502L.05 32.192l4.14.041-2.021 3.605-.002.001Z" fill="#FC8D00"></path>
                                    <path d="M2.044 42.926c.746-1.19 1.492-2.38 2.24-3.57h4.142l-.173.353-1.956 3.227-4.253-.01Z" fill="#F77300"></path>
                                    <path d="m.001 46.503 4.21-.063c-.71 1.186-1.422 2.372-2.134 3.558L0 46.502h.001Z" fill="#FA8000"></path>
                                    <path d="m21.043 25.187 4.122-.008-2.049 3.514-2.073-3.506Z" fill="#F77300"></path>
                                    <path d="M8.357 32.255c1.423.003 2.846.009 4.268.013-.71 1.192-1.417 2.385-2.125 3.576l-2.143-3.59ZM8.402 18.11l2.17-3.59 2.086 3.579-4.256.012Z" fill="#FF9A00"></path>
                                    <path d="m8.426 39.356-2.16-3.516c1.412 0 2.824 0 4.235.002l-2.075 3.515v-.001Z" fill="#FC8D00"></path>
                                    <path d="M25.245 11.017c-.684 1.165-1.37 2.329-2.055 3.494L20.957 11l4.287.017.002-.001Z" fill="#FF9A00"></path>
                                    <path d="M10.563 21.6c-1.41 0-2.818.002-4.228.003.697-1.178 1.396-2.356 2.092-3.534l2.135 3.533.001-.002Z" fill="#FC8D00"></path>
                                    <path d="m4.212 46.442-4.21.062c.68-1.192 1.361-2.385 2.043-3.577l2.168 3.515h-.001Z" fill="#FF9A00"></path>
                                    <path d="m12.606 11.043 2.079 3.468-4.113.008 2.034-3.476Z" fill="#994000"></path>
                                    <path d="M2.044 42.927c1.418.002 2.835.006 4.253.009-.696 1.167-1.39 2.337-2.085 3.504-.724-1.171-1.446-2.343-2.169-3.515l.001.002ZM25.379 32.5c.672-1.19 1.34-2.61 2.012-3.798.674 1.19 1.437 2.608 2.11 3.797-1.344 0-2.779.002-4.122 0Z" fill="#FC8D00"></path>
                                    <path d="M37.918 32.5c-1.382.008-3.035-.008-4.417 0 .666-1.163 1.604-2.552 2.27-3.715.715 1.154 1.514 2.561 2.23 3.715h-.083Z" fill="#F77300"></path>
                                    <path d="M16.55 25.704ZM28.136 15.554l-.058.101L28 15.55c.045 0 .09.002.136.004ZM18.623 22.235l-.01-.015.022-.007-.012.022Z" fill="#FBF6EF"></path>
                                    <path d="m28.948 17.157-.021-.01.005-.019.016.029ZM28.928 16.584l-.004-.025.025-.012a.057.057 0 0 1-.02.037Z" fill="#F3F3F2"></path>
                                    <path d="m20.28 23.957.035.044a.084.084 0 0 1-.035-.044ZM10.103 15.187l.011.004-.016.007.005-.011ZM26.635 13.257l-.021-.01.004-.022c.008.009.014.02.017.032ZM3.625 26.106l.012.007-.018.004.006-.01ZM16.115 26.458l-.011-.01.018-.005-.007.015ZM3.158 26.898l.006-.007-.009.003.003.004ZM2.7 27.668l.01.01-.018.006.007-.016ZM20.913 27.716l-.037.052.037-.052ZM2.5 27.995l.012.006-.018.007.006-.013ZM1.77 29.232l.013.002-.016.006.004-.008ZM1.58 29.547l.009.016-.02.003.012-.02ZM1.11 30.337l.013.004-.018.005.006-.01ZM.844 30.796l.01-.004-.013.008.003-.004ZM.58 31.252l.006-.005-.01.005H.58Z" fill="#FBF6EF"></path>
                                    <path d="m13.26 31.275-.003-.02.021-.012a.156.156 0 0 1-.017.032Z" fill="#FEFAF6">
                                    </path>
                                    <path d="m.186 31.894.011.01-.017.005.006-.015Z" fill="#FBF6EF"></path>
                                    <path d="m37.956 32.132.045-.044a.082.082 0 0 1-.045.044Z" fill="#FCFCFC"></path>
                                    <path d="m.642 33.453.022.01-.006.022-.017-.032h.001ZM1.568 35.02l.023.007v.022a.245.245 0 0 1-.021-.03h-.002ZM9.628 37.385l-.006-.019.02-.009-.014.028ZM8.25 39.714l-.012.002.014-.005-.003.003Z" fill="#FEFAF6"></path>
                                    <path d="m12.562 41.768.01.015-.021.004.01-.019Z" fill="#F3F3F2"></path>
                                    <path d="m6.198 43.158-.008.003.01-.005-.002.002Z" fill="#FEFAF6"></path>
                                    <path d="m.51 47.436.025.01.003.024a.092.092 0 0 1-.028-.035v.001Z" fill="#FBF6EF">
                                    </path>
                                    <path d="M9.18 47.49c.006.024-.002.04-.025.049l-.02-.02.045-.03Z" fill="#434342">
                                    </path>
                                    <path d="m25.317 18.201-2.17 3.332-2.122-3.278-2.122 3.438-2.05-3.545 8.463.053Z" fill="#FF9A00"></path>
                                    <path d="m10.572 14.518 4.113-.007c-.67 1.208-1.337 2.416-2.006 3.623l-2.107-3.617v.002Z" fill="#B34B00"></path>
                                    <path d="m14.685 14.512 2.167 3.636-4.192-.01 2.025-3.625Z" fill="#994000"></path>
                                    <path d="m21.036 18.203-4.183-.055 2.111-3.534 2.074 3.589h-.002Z" fill="#FC8D00">
                                    </path>
                                    <path d="M21.013 11.066c.726 1.148 1.451 2.297 2.179 3.445l-4.22-.044 2.04-3.4Z" fill="#F77300"></path>
                                    <path d="M25.165 25.18c.708-1.172 1.419-2.343 2.127-3.514l2.247 3.444 4.093.068.078.126c-.696 1.144-1.391 2.29-2.088 3.434-1.41-.013-2.82-.026-4.23-.037-.742-1.175-1.486-2.348-2.227-3.522Z" fill="#FC8D00"></path>
                                    <path d="m4.218 25.175 4.162.003-2.047 3.575c-.705-1.193-1.41-2.385-2.113-3.578h-.002Z" fill="#FF9A00"></path>
                                    <path d="M10.432 28.753 8.36 32.254l-2.026-3.503h4.1v.002ZM2.167 35.84l2.022-3.605 2.08 3.606h-4.1l-.002-.002Z" fill="#FF9A00"></path>
                                    <path d="M4.188 32.235 2.1 28.754h4.233l-2.145 3.482v-.001Z" fill="#FC8D00"></path>
                                    <path d="m33.632 25.18-4.172.008c.687-1.174 1.375-2.347 2.064-3.521h.079l.116.199 1.454 2.503c.156.27.306.54.459.81Z" fill="#FF9A00"></path>
                                    <path d="m6.332 28.753 2.047-3.575 4.301-.003 2.063 3.578H6.332ZM12.66 18.097c-.7 1.168-1.397 2.336-2.097 3.503l-2.11-3.503h4.206Z" fill="#FA8000"></path>
                                    <path d="m12.68 25.177 2.04-3.576c.697 1.22 1.396 2.438 2.095 3.658l-4.135-.082Z" fill="#FF9A00"></path>
                                    <path d="m12.68 25.176-4.302.003 2.184-3.577c.706 1.19 1.41 2.383 2.117 3.574h.001Z" fill="#FC8D00"></path>
                                    <path d="m10.563 21.6 2.096-3.503L14.72 21.6h-4.157Z" fill="#FF9A00"></path>
                                    <path d="m21.026 18.14 2.12 3.388 2.095-3.374 2.05 3.512-8.388.027 2.123-3.553ZM31.524 21.667a4413.47 4413.47 0 0 1-2.064 3.521l-2.169-3.522h4.233Z" fill="#FA8000"></path>
                                    <path d="m6.267 35.84 2.16 3.517H4.282l1.985-3.515-.001-.001Z" fill="#FF9A00">
                                    </path>
                                    <path d="M18.905 21.693c-1.395-.031-2.79-.061-4.184-.093.711-1.15 1.423-2.301 2.133-3.453l2.05 3.545Z" fill="#994000"></path>
                                    <path d="m2.762 44.032.199.26a42.01 42.01 0 0 0-.199-.26Z" fill="#FC8D00"></path>
                                </svg>