<svg width="171" height="35" fill="none" xmlns="http://www.w3.org/2000/svg">
                                    <g fill="#000">
                                        <path d="M.617 3.913h17.107c.084 0 .162.043.207.113.768 1.196 1.68 2.648 2.53 3.974a.247.247 0 0 1-.208.38H6.077c-.178 0-.354 0-.531.006-.291.01-.474.149-.474.452.005 2.696.013 5.392.022 8.087 0 .031.026.063.082.187.238.025.526.083.815.083 2.334.007 4.669.013 7.003-.007.508-.004.864.116 1.108.602.471.939.938 1.86 1.427 2.79.128.245.206.408.41.777a.249.249 0 0 1-.217.369h-.451c-3.114.005-6.226.003-9.339.006-.258 0-.517.029-.818.047v8.17c.244.023.465.062.687.062 5.217.004 10.435 0 15.652.009h2.41c.941 0 1.212 0 1.69-.794.939-1.561 2-3.05 3.008-4.572 1.185-1.784 2.361-3.574 3.551-5.355 1.178-1.764 2.38-3.512 3.55-5.28 1.16-1.752 2.29-3.525 3.446-5.28.798-1.215 1.62-2.416 2.419-3.63.128-.194.197-.428.281-.615-.854-.567-1.339-.919-2.059-1.383a.248.248 0 0 1 .053-.443c.485-.165 1.073-.36 1.36-.45 1.188-.372 1.93-.65 3.115-1.032.852-.274 1.332-.424 2.185-.693.186-.059.508-.168.814-.27.15-.052.309.052.323.21.227 2.538.334 4.248.465 6.592.004.066.028.403.044.7a.233.233 0 0 1-.347.218c-.872-.459-1.177-.61-2.155-1.1-.592.874-1.165 1.71-1.725 2.554-.845 1.27-1.678 2.547-2.52 3.819-1.404 2.119-2.8 4.243-4.22 6.353-.693 1.03-1.456 2.013-2.142 3.048-1.285 1.94-2.534 3.904-3.805 5.854-.927 1.422-1.866 2.836-2.801 4.252-.26.394-.398.71-.777 1.186-.38.475-.686.622-1.242.636-.352.009-.843.001-1.195 0-7.605-.003-15.211-.004-22.816-.002H.49a.243.243 0 0 1-.245-.242c0-.066.003-.048.003-.287.004-.18-.002-.246 0-.37L.25 4.67.25 4.157c0-.135.11-.244.245-.244h.123ZM97.034 16.111v-2.133c0-.136.11-.246.246-.246h.358c1.255-.013 2.287-.005 3.543 0h.285c.136 0 .246.098.246.234-.003 2.207-.035 18.157-.038 20.36 0 .137-.111.235-.247.235h-.256c-1.091.012-2.183.02-3.274.018-.69-.002-.823-.15-.823-.851v-1.66l-.131-.03c-.332.323-.638.677-.998.963-1.103.878-2.36 1.423-3.743 1.73-.802.179-1.6.28-2.413.235-1.545-.087-3.001-.456-4.395-1.169a11.237 11.237 0 0 1-2.998-2.198c-.902-.932-1.523-2.038-2.003-3.244a11.433 11.433 0 0 1-.81-4.208c-.007-1.627.273-3.224.948-4.715.953-2.103 2.424-3.782 4.461-4.89 1.092-.595 1.974-1.135 3.249-1.232.473-.036 1.237-.094 1.708-.087 2.16.034 4.19.534 5.928 1.885.38.296.677.7 1.011 1.055l.147-.052h-.001Zm-12.51 7.936c-.203 3.501 2.795 6.322 6.164 6.314 3.65-.008 6.329-2.634 6.378-6.192.05-3.751-2.839-6.2-6.127-6.32-3.41-.124-6.566 2.378-6.416 6.198ZM153.913 25.829c.121 1.41.726 2.503 1.713 3.39 1.557 1.4 3.431 1.707 5.434 1.497 1.584-.166 2.85-.646 4.082-2.001.517-.643.838-.854 1.6-.422.745.422 1.598.844 2.371 1.188.122.054.18.195.13.319-.169.41-.216.48-.404.763-.768 1.16-1.943 2.34-3.204 2.958-.941.462-1.609.81-2.617 1.052-1.678.4-3.392.616-5.133.203-.857-.203-1.706-.388-2.521-.733-1.802-.764-3.226-1.974-4.343-3.56-.746-1.06-1.3-2.233-1.567-3.479-.335-1.556-.513-2.843-.248-4.638a9.658 9.658 0 0 1 .408-1.785c.656-2.055 1.551-3.407 2.958-4.663 1.448-1.293 3.129-2.135 5.045-2.46.848-.144 1.721-.263 2.575-.227 1.756.075 3.437.49 4.986 1.377 1.545.885 2.824 2.034 3.695 3.59.539.962.886 1.999 1.165 3.077.34 1.31.257 2.62.278 3.937.002.152-.031.306-.059.566h-.906c-4.899 0-9.798-.002-14.697 0-.238 0-.476.03-.743.05h.002Zm11.635-3.464c.035-2.004-1.482-4.699-4.866-5.12-3.134-.391-6.365 1.38-6.8 5.121h11.666v-.001ZM111.055 34.302c0 .136-.11.246-.247.246l-1.178-.002c-.882 0-1.765.007-2.647-.006-.579-.008-.674-.107-.676-.69-.004-2.027-.002-4.055-.002-6.08V13.987a.25.25 0 0 1 .247-.248c.188-.004.226-.01.373-.011 1.184-.012 2.37-.01 3.555-.005.493.002.57.086.575.601.006.667.002 1.335.002 2.132.321-.383.547-.677.798-.949.783-.844 1.744-1.42 2.834-1.767.635-.202 1.164-.422 1.944-.483.365-.028.748-.016.939 0 1.177.094 2.015.122 3.107.588 1.676.716 2.916 1.904 3.673 3.594.736 1.639.97 3.35.959 5.125-.021 3.735-.005 7.47-.011 11.207v.523c0 .137-.11.247-.246.247h-.748c-.972.001-1.946.006-2.918.003-.745-.003-.828-.082-.829-.814-.002-2.714.002-5.427-.001-8.14-.001-1.199.065-2.403-.041-3.593-.144-1.632-.818-3.024-2.393-3.757a3.89 3.89 0 0 0-1.696-.361c-1.806.053-3.451.537-4.527 2.146-.561.84-.806 1.804-.816 2.787-.037 3.594-.019 7.189-.03 10.784v.705ZM147.741 31.155c.085.085.098.221.016.31-.118.129-.229.21-.341.327-.972 1.015-2.125 1.752-3.428 2.295-1.818.759-3.708 1.056-5.641.832-1.352-.157-2.681-.497-3.931-1.123-1.395-.698-2.616-1.59-3.583-2.802a11.575 11.575 0 0 1-1.653-2.84c-.487-1.184-.656-2.408-.739-3.648-.078-1.18.088-2.345.396-3.496.479-1.791 1.399-3.318 2.698-4.622.837-.84 1.816-1.473 2.884-2.004 1.401-.697 2.897-.979 4.421-1.14 1.277-.136 2.525.104 3.765.418a10.1 10.1 0 0 1 2.673 1.091c.898.53 1.745 1.123 2.396 2.036a.238.238 0 0 1-.047.324l-1.01.814c-.643.52-1.282 1.044-1.933 1.555-.435.341-.487.305-.946-.052-.468-.364-.947-.736-1.475-.995a6.048 6.048 0 0 0-3.661-.535c-1.286.203-2.474.674-3.459 1.56-1.097.989-1.799 2.17-1.908 3.68a12.423 12.423 0 0 0-.01 1.778c.122 1.675.929 2.955 2.163 4.008 1.248 1.065 2.708 1.47 4.349 1.437 1.577-.031 2.918-.542 4.064-1.598.257-.236.529-.303.81-.088 1.058.813 2.785 2.133 2.908 2.256l.222.222ZM52.915 17.634c-.287-.014-.532.002-.74 0-.796-.004-1.591.007-2.387-.007-.456-.007-.602-.151-.61-.61-.015-.914-.018-1.829-.009-2.744.003-.43.132-.544.593-.548.831-.009 1.663-.004 2.494-.004h.656V6.162c0-.136.109-.246.245-.246h4.166c.13 0 .237.102.244.233.117 2.46.025 5.033.111 7.572.247-.002.407-.002.593-.002 1.043.003 2.087-.002 3.129.003.533.004.609.08.613.618.007.881.009 1.762 0 2.643-.007.536-.12.644-.666.648-.99.007-1.98 0-2.97.005-.207 0-.33-.013-.73-.002v1.495c.003 4.842.004 9.685.006 14.528 0 .088.004.177 0 .264v.38c0 .136-.11.246-.246.246-.718.001-1.862.003-2.46 0-.542-.002-1.163 0-1.78 0a.246.246 0 0 1-.247-.246v-.606c-.005-5.091-.004-10.183-.005-15.274 0-.224.015-.373 0-.674v-.113ZM78.407 18.375c-1.359-.665-2.77-.76-4.172-.509-1.062.19-1.934.828-2.536 1.745-.501.761-.843 1.59-1.11 2.473-.644 2.127-.622 4.3-.617 6.479.003 1.69.006 3.383-.002 5.074v.66c0 .136-.11.246-.247.246h-.708c-1.115.004-2.002.003-3.117 0-.591-.002-.671-.08-.671-.678V14.36c0-.59.045-.633.634-.636 1.131-.003 2.264-.004 3.395 0 .652.004.716.077.717.743 0 .828.002 1.656.007 2.484 0 .167.021.334.114.514.253-.483.499-.972.763-1.449.647-1.165 1.598-2.017 2.848-2.46a5.868 5.868 0 0 1 1.972-.323c1.056.008 2.1.21 3.102.574.319.115.509.309.475.668-.012.123.002.25-.022.37-.215 1.085-.434 2.168-.659 3.252-.017.08-.087.149-.166.279ZM39.805 20.458c.78 1.196 1.274 1.931 1.992 3.028 1.172 1.788 2.352 3.573 3.522 5.362 1.111 1.7 2.22 3.402 3.317 5.111.073.114.17.298.042.425a.76.76 0 0 1-.494.207c-1.058 0-2.117-.029-3.176-.045-.44-.006-.88-.017-1.319-.002-.362.013-.596-.146-.78-.44-.502-.803-1.02-1.596-1.524-2.396-.84-1.333-1.675-2.668-2.514-4.002-.672-1.068-1.358-2.128-2-3.214-.098-.165-.075-.5.031-.67.704-1.109 1.176-1.908 1.917-2.994.081-.119.242-.328.419-.576a.252.252 0 0 1 .407-.008l.16.214Z">
                                        </path>
                                        <path d="M34.1 12.292c-.89 1.378-1.726 2.768-2.8 4.146-2.711-4.04-5.405-8.128-8.121-12.181a.246.246 0 0 1 .205-.384h.245c1.537-.009 3.074.003 4.611-.01.337-.003.552.104.736.393.835 1.316 1.692 2.62 2.538 3.93A673.799 673.799 0 0 1 33.64 11.5c.159.25.298.513.458.79v.001Z">
                                        </path>
                                    </g>
                                </svg>