<svg width="266" height="47" fill="none" xmlns="http://www.w3.org/2000/svg">
                                    <g fill="#FF5D1F">
                                        <path fill-rule="evenodd" clip-rule="evenodd" d="M77.34 3.22a3.83 3.83 0 1 1 .005 7.66 3.83 3.83 0 0 1-.005-7.66ZM134.62 34.245c-6.084 0-10.612-4.382-10.612-10.502 0-6.12 4.528-10.502 10.612-10.502 6.185 0 10.541 4.355 10.541 10.515-.002.625-.046 1.25-.131 1.87h-15.256a4.697 4.697 0 0 0 1.694 2.537c1.935 1.442 5.577 1.306 7.1-.725l6.081-.045c-1.507 4.41-5.436 6.852-10.019 6.852h-.01Zm56.254-.413V13.654h4.893l.522 2.052c2.018-2.285 4.883-2.758 7.763-2.026v5.193c-2.123-.384-4.515-.603-6.202 1.06-.88.867-1.363 2.136-1.363 3.734v10.165h-5.613Zm37.558-20.178h3.543v-.337c0-6.886 4.439-9.617 10.706-7.677v4.75c-2.753-.74-5.097-.523-5.097 2.934v.33h5.097v5.031h-5.095V33.83h-5.616V18.685h-3.538v-5.031Zm-120.983 0h3.538v-4.65l5.608-.758v5.407h5.108v5.032h-5.108v7.729c0 3.073 2.698 2.98 5.081 2.577v4.82c-1.102.23-2.224.35-3.35.358-2.35 0-4.203-.59-5.483-1.828-1.209-1.18-1.869-2.943-1.869-5.329v-8.327h-3.525v-5.031ZM74.418 33.831V13.654h5.609v20.178h-5.609Zm141.687.413c-6.084 0-10.614-4.382-10.614-10.502 0-6.12 4.53-10.502 10.614-10.502 6.175 0 10.541 4.355 10.541 10.52-.003.626-.047 1.25-.131 1.87H211.24a4.681 4.681 0 0 0 1.695 2.538c1.932 1.441 5.575 1.305 7.097-.726l6.084-.045c-1.51 4.41-5.437 6.852-10.019 6.852l.008-.005Zm-4.826-12.5h9.706c-1.389-4.556-8.272-4.52-9.706 0Zm54.533-8.094v18.753c0 5.862-3.752 9.308-8.951 9.922-3.668.426-7.606-.379-10.094-3.303l4.05-3.133c2.162 2.872 9.556 2.034 9.554-2.873v-1.396c-1.663 1.801-3.885 2.585-6.309 2.585-5.509 0-7.833-3.745-7.833-8.878V13.653h5.609v11.069c0 2.517 1.107 4.29 3.799 4.29 2.734 0 4.554-1.619 4.554-4.402V13.643l5.621.008ZM85.322 33.832V13.654h4.893l.548 2.209c1.664-1.787 3.886-2.585 6.301-2.585 5.51 0 7.833 3.744 7.833 8.877v11.67h-5.613V22.763c0-2.517-1.108-4.29-3.8-4.29-2.733 0-4.553 1.619-4.553 4.405v10.953h-5.609Zm63.635 0V13.654h4.894l.522 2.052c2.018-2.285 4.88-2.758 7.763-2.026v5.193c-2.126-.384-4.515-.603-6.202 1.06-.88.867-1.363 2.136-1.363 3.734v10.165h-5.614Zm-19.15-12.087h9.706c-1.392-4.556-8.275-4.52-9.706 0Zm54.338 9.541c-3.35 3.505-9.199 3.935-13.095 1.092v10.045h-5.611v-28.77h4.608l.468 1.88a9.797 9.797 0 0 1 6.405-2.292c6.029 0 10.086 4.598 10.086 10.502 0 2.98-1.044 5.643-2.872 7.543h.011Zm-13.134-7.543c0 3.037 2.146 5.222 5.193 5.222 3.047 0 5.155-2.22 5.155-5.222 0-3.003-2.121-5.222-5.155-5.222-3.034 0-5.193 2.185-5.193 5.222ZM19.51 13.286v19.91a3.51 3.51 0 0 1-3.5 3.498 3.51 3.51 0 0 1-3.498-3.499v-19.91a3.51 3.51 0 0 1 3.499-3.498 3.51 3.51 0 0 1 3.498 3.498Z">
                                        </path>
                                        <path d="M6.998 20.49a3.499 3.499 0 1 0-6.998 0v5.501a3.499 3.499 0 1 0 6.998 0v-5.502ZM48.529 13.286a3.499 3.499 0 1 0-6.998 0v19.91a3.499 3.499 0 0 0 6.998 0v-19.91ZM61.04 20.49a3.499 3.499 0 1 0-6.997 0v5.501a3.499 3.499 0 1 0 6.998 0v-5.502ZM36.017 17.98a5.499 5.499 0 0 0-10.998 0v23.521a5.499 5.499 0 0 0 10.998 0v-23.52Z">
                                        </path>
                                        <path fill-rule="evenodd" clip-rule="evenodd" d="M30.52 0a4.59 4.59 0 1 1 0 9.18 4.59 4.59 0 0 1 0-9.18Z"></path>
                                    </g>
                                </svg>