<svg width="208" height="51" fill="none" xmlns="http://www.w3.org/2000/svg">
                                    <path fill-rule="evenodd" clip-rule="evenodd" d="m2.443 48.327.507 1.434h-.612v.148h1.883v-.148h-.478l-1.549-4.56h-.119L.559 49.288a.69.69 0 0 1-.559.478v.148h1.162v-.148c-.373 0-.435-.139-.435-.339.01-.167.054-.329.129-.478l.244-.646 1.343.024Zm-.636-1.912.588 1.783H1.138l.669-1.783Zm5.861 2.008h-.076v1.506h.167a.297.297 0 0 1 .088-.196.297.297 0 0 1 .199-.082c.143 0 .306.139.53.225.252.087.518.131.784.129.18-.004.356-.046.518-.122a1.284 1.284 0 0 0 .687-.783c.054-.171.072-.351.053-.529a1.32 1.32 0 0 0-1.019-1.391l-.698-.192c-.325-.09-.841-.243-.841-.893a.82.82 0 0 1 .063-.332.82.82 0 0 1 .474-.461c.106-.04.22-.06.333-.054.478 0 .956.249 1.305 1.086h.096l-.024-1.138h-.11c-.043.095-.091.177-.158.177-.416 0-.406-.254-1.128-.254a1.131 1.131 0 0 0-1.028.65 1.276 1.276 0 0 0-.143.574 1.33 1.33 0 0 0 .956 1.434l.808.23a.914.914 0 0 1 .731.956.889.889 0 0 1-.602.816.908.908 0 0 1-.354.049c-.478 0-1.181-.258-1.625-1.434l.014.029Zm6.693 0h-.077v1.506h.163a.292.292 0 0 1 .291-.278c.144 0 .307.139.531.225.252.087.517.131.784.129a1.29 1.29 0 0 0 1.204-.905c.054-.17.072-.35.053-.529a1.319 1.319 0 0 0-1.018-1.391l-.698-.192c-.325-.09-.841-.243-.841-.893a.837.837 0 0 1 .536-.794.827.827 0 0 1 .334-.053c.478 0 .956.249 1.305 1.086h.096l-.034-1.133h-.11c-.038.095-.086.176-.153.176-.421 0-.406-.253-1.133-.253a1.12 1.12 0 0 0-1.023.65 1.466 1.466 0 0 0 .827 2.018l.808.229a.923.923 0 0 1 .732.956.917.917 0 0 1-.296.635.888.888 0 0 1-.661.23c-.478 0-1.18-.258-1.625-1.434l.005.015Zm8.82-3.289a2.446 2.446 0 0 0-2.465 1.299 2.448 2.448 0 0 0 .341 2.766 2.45 2.45 0 0 0 3.854-.242c.282-.411.432-.897.431-1.395a2.32 2.32 0 0 0-2.161-2.428Zm-1.291 2.428c0-1.859.717-2.295 1.291-2.295.368 0 1.3.182 1.3 2.295 0 .564 0 1.855-.956 2.233a.889.889 0 0 1-.693 0c-.908-.364-.956-1.525-.956-2.233h.014Zm10.589-2.428h-.162c-.096.315-.33.229-.521.148a1.691 1.691 0 0 0-.66-.148c-.336 0-.665.09-.952.265a1.833 1.833 0 0 0-.678.719 2.615 2.615 0 0 0-.383 1.296c-.008.363.029.726.11 1.08a1.917 1.917 0 0 0 1.759 1.511c.274-.011.542-.083.785-.21a.775.775 0 0 1 .368-.153c.181 0 .21.22.215.287h.167l.057-1.573h-.167c-.129.755-.359 1.195-.956 1.434a.928.928 0 0 1-.32.076c-.478 0-1.176-.325-1.176-1.596v-1.157c0-1.54.741-1.836 1.19-1.836.798 0 1.08.55 1.171 1.396h.134v-1.53l.019-.009Zm4.202.215v4.431h-.526v.149h1.822v-.149h-.526v-4.431h.526v-.148h-1.822v.138l.526.01Zm7.099 2.978.507 1.434h-.621v.148h1.878v-.148h-.478l-1.544-4.56h-.124l-1.511 4.087a.694.694 0 0 1-.564.478v.148h1.167v-.148c-.378 0-.435-.139-.435-.339.008-.167.052-.33.129-.478l.244-.646 1.352.024Zm-.635-1.912.588 1.783h-1.258l.67-1.783Zm7.276-1.052v4.432h-.526v.148h1.816v-.148h-.54v-4.432c.197-.01.394.002.588.034.584.129.794.702.856 1.309h.191l-.033-1.482h-3.968l-.034 1.482h.192c.11-1.066.54-1.362 1.434-1.343h.024Zm6.439 0v4.432h-.526v.148h3.442l.144-1.473h-.144c-.205 1.234-.779 1.325-1.176 1.325h-.956v-2.3h.292c.478 0 .593.22.698.875h.134v-1.883h-.134c-.082.812-.478.865-.741.865h-.249v-1.989h.861c.712 0 1.027.478 1.133 1.224h.138l-.076-1.363h-3.371v.139h.531Zm8.653-.162h-2.008v.138h.526v4.432h-.526v.148h2.18a2.11 2.11 0 0 0 2.032-1.506c.092-.284.137-.581.134-.88a2.64 2.64 0 0 0-.268-1.099 2.158 2.158 0 0 0-.848-.931 2.158 2.158 0 0 0-1.222-.302Zm.22 4.57h-.923v-4.432h.703c.875 0 1.434.354 1.434 2.266 0 1.124-.339 1.788-.65 2.008a1.106 1.106 0 0 1-.612.158h.048Zm11.951-4.432v4.432h-.521v.148h1.817v-.148h-.559v-4.432c.196-.009.393.002.587.034.584.129.794.702.856 1.31h.191l-.033-1.482h-3.968l-.029 1.482h.187c.105-1.067.54-1.363 1.434-1.344h.038Zm7.735 4.432h-.526V47.5h.555a.926.926 0 0 1 .607.153c.244.22.273.731.33 1.257.002.282.067.56.191.813a.702.702 0 0 0 .602.272h.039a.765.765 0 0 0 .707-.387l-.105-.115c-.053.063-.234.244-.368.244-.268 0-.258-.808-.292-1.133-.033-.325-.076-.956-1.233-1.171v-.029c1.028-.086 1.401-.592 1.401-1.152a.956.956 0 0 0-.091-.401c-.339-.65-1.167-.65-1.807-.65h-1.85v.138h.526v4.432h-.526v.148h1.816v-.148h.024Zm-.048-2.419h-.478v-2.013h.521c.703 0 1.047.206 1.047.908 0 .957-.521 1.105-1.09 1.105Zm8.127.956.507 1.434h-.607v.148h1.884v-.148h-.479l-1.563-4.541h-.124l-1.511 4.087a.7.7 0 0 1-.564.478v.148h1.171v-.148c-.377 0-.439-.139-.439-.339.01-.167.054-.329.129-.478l.244-.646 1.352.005Zm-.635-1.912.588 1.783h-1.258l.67-1.783Zm6.305-1.052v4.432h-.521v.148h1.764v-.148h-.526v-2.185h.478c.235 0 .655.043.698.875h.134v-1.884h-.134c-.076.813-.478.861-.741.861h-.439v-2.085h.86c.794 0 1.123.526 1.181 1.372h.162l-.047-1.529h-3.419v.138l.55.005Zm6.956 0v4.432h-.526v.148h1.817v-.148h-.526v-2.185h.478c.239 0 .655.043.698.875h.134v-1.884h-.139c-.076.813-.478.861-.736.861h-.44v-2.085h.861c.793 0 1.118.526 1.176 1.372h.167l-.081-1.51h-3.414v.138l.531-.014Zm6.951 0v4.432h-.526v.148h1.817v-.148h-.569v-4.432h.526v-.143h-1.817v.138l.569.005Zm8.375-.215h-.162c-.096.315-.33.229-.521.148a1.692 1.692 0 0 0-.665-.148 1.842 1.842 0 0 0-1.625.985 2.681 2.681 0 0 0-.383 1.295c-.008.363.029.726.11 1.081a1.913 1.913 0 0 0 1.764 1.51c.275-.01.545-.082.789-.21a.803.803 0 0 1 .364-.153c.181 0 .21.22.215.287h.177l.057-1.573h-.158c-.134.755-.368 1.195-.956 1.434a.981.981 0 0 1-.325.077c-.478 0-1.176-.325-1.176-1.597v-1.152c0-1.54.741-1.836 1.19-1.836.799 0 1.086.55 1.172 1.396h.129v-1.53l.004-.014Zm10.518 3.193.506 1.434h-.607v.149h1.879v-.149h-.478l-1.587-4.555h-.124l-1.506 4.097a.698.698 0 0 1-.564.478v.148h1.166v-.148c-.378 0-.44-.139-.44-.34.011-.166.055-.329.129-.478l.244-.645 1.382.009Zm-.636-1.912.588 1.783h-1.257l.669-1.783Zm9.289.263v-1.53h-.158c-.134.316-.306.234-.55.148a1.885 1.885 0 0 0-.722-.148c-1.109 0-2.003 1.143-2.003 2.333 0 1.19.607 2.529 1.946 2.529a1.724 1.724 0 0 0 1.251-.422 1.714 1.714 0 0 0 .575-1.189v-.282h.478v-.134h-1.721v.134h.478v.521c0 1.166-.626 1.253-1.076 1.253a.785.785 0 0 1-.478-.216c-.138-.114-.573-.516-.573-2.117 0-.957.095-1.913.798-2.18.117-.05.241-.078.368-.082.181-.011.363.021.529.095.167.073.313.185.427.326.179.289.287.617.316.956l.115.005ZM32.049 31.48c2.237 6.1 5.259 7.018 7.797 7.018 2.281 0 4.781-1.033 4.781-4.045 0-1.434-.263-4.422-3.614-5.392l-4.073-1.19c-4.355-1.315-4.891-4.49-4.891-7.052a6.691 6.691 0 0 1 .727-2.935 5.668 5.668 0 0 1 5.177-3.38 10.49 10.49 0 0 1 6.167 2.07v-1.75h1.009v5.957h-.646c-1.764-4.303-4.116-5.197-6.429-5.197-2.592 0-4.303 1.478-4.303 3.968 0 3.347 2.51 4.537 4.164 5.025l3.523.999c4.001 1.152 5.144 3.79 5.144 6.76 0 3.944-2.352 7.323-6.349 7.323-2.266 0-4.163-.444-7.821-2.6v2.318h-1.161V31.48h.798Zm17.97 0c2.462 6.1 5.503 7.027 8.022 7.027 2.276 0 4.781-1.032 4.781-4.044 0-1.434-.263-4.422-3.61-5.392l-4.078-1.19c-4.379-1.296-4.9-4.49-4.9-7.057a6.765 6.765 0 0 1 .727-2.935 5.682 5.682 0 0 1 5.177-3.38 10.48 10.48 0 0 1 6.167 2.07v-1.755h1.014v5.957h-.646c-1.764-4.303-4.12-5.197-6.429-5.197-2.591 0-4.303 1.478-4.303 3.968 0 3.347 2.505 4.537 4.164 5.025l3.518.999c4.007 1.152 5.149 3.79 5.149 6.76 0 3.944-2.352 7.323-6.358 7.323-2.256 0-4.154-.444-7.816-2.6v2.318h-1.157V31.48h.578Zm22.598 6.459v1.434h9.184v-1.434h-2.663V16.904h6.645v3.394h1.62v-5.125h-20.37v5.11h1.602V16.89h6.645l.028 21.034-2.691.014v.001Zm23.501-12.186h2.415c2.867 0 5.109-.478 5.109-5.311 0-2.515-1.888-3.92-4.899-3.92h-2.625v9.231Zm0 12.214h2.658v1.41h-9.164v-1.41h2.672v-21.45h-2.653v-1.344h9.346c3.255 0 6.162-.033 7.749 3.275.314.633.477 1.33.478 2.037 0 2.835-.66 5.378-5.842 5.808v.148c5.832.956 6.009 4.331 6.215 6.253.172 1.64.134 5.703 1.482 5.703.66 0 1.582-.908 1.869-1.233l.478.579c-1.31 1.912-2.62 1.964-3.657 1.964a3.623 3.623 0 0 1-3.146-1.376c-.721-1.057-.822-2.725-.956-4.112-.277-2.648-.449-5.258-1.654-6.358-.832-.731-2.041-.803-3.078-.803h-2.792v10.91h-.005v-.001ZM15.513 5.655h-.87l-2.534 6.841 8.72 25.471h-4.302v1.434h13.294v-1.434h-3.289L15.513 5.655Zm116.894 32.312h-4.302v1.434h13.29v-1.434h-3.285L127.091 5.655h-.865l-2.539 6.841 8.72 25.471Z" fill="#193176"></path>
                                    <path fill-rule="evenodd" clip-rule="evenodd" d="M119.356 27.684h12.908l-.344-1.018H119.6l3.7-9.829-.588-1.716-8.476 22.846h-2.658v1.435h8.218v-1.435h-4.364l3.924-10.283ZM3.844 37.967h4.36v1.435H.02v-1.435h2.662l8.47-22.846.589 1.716-3.695 9.83h12.32l.343 1.017H7.802L3.844 37.967Z" fill="#EB5E0E"></path>
                                    <path fill-rule="evenodd" clip-rule="evenodd" d="M147.817 48.58c-.688-2.21 8.256-13.252 22.507-20.112-16.651-.383-27.187 6.32-26.499 8.528l3.992 11.584Z" fill="url(#a)"></path>
                                    <path fill-rule="evenodd" clip-rule="evenodd" d="M193.762 43.422a1.306 1.306 0 1 1-2.569.483 1.306 1.306 0 0 1 2.569-.483Zm2.792-1.85a1.303 1.303 0 0 0-.902.658 1.31 1.31 0 0 0 .261 1.583 1.313 1.313 0 0 0 1.6.132 1.306 1.306 0 0 0 .566-1.336 1.307 1.307 0 0 0-1.525-1.037Zm6.812-1.276a1.302 1.302 0 0 0-.904.655 1.31 1.31 0 0 0-.068 1.115 1.313 1.313 0 0 0 1.199.818 1.307 1.307 0 0 0 1.214-.797 1.307 1.307 0 0 0-1.441-1.791Zm4.494.478-.684-3.968-.267-.11-.45-2.39.153-.43-3.49-1.11a7.883 7.883 0 0 0-1.209-.277l-2.39-.354 1.434 7.482-18.362 3.456c.043-.258.086-.554.143-.841l17.258-3.218-1.477-7.907-23.172 4.356c-19.777 3.528-30.7 4.044-31.523 1.548l3.906 11.426c.956 2.93 17.148 1.764 43.173-3.6 0 0-.205-.607-.258-.812a1.793 1.793 0 0 1 1.492-2.142 1.86 1.86 0 0 1 2.161 1.434l.659-.124a1.858 1.858 0 0 1 3.379-1.356c.133.204.225.432.269.672l3.131-.588a1.917 1.917 0 0 1 2.872-1.735c.397.23.698.597.847 1.032l2.391-.45.014.006Zm-1.769-4.164-2.514-.33-.259-1.372 2.391-.406.373 2.108h.009Z" fill="url(#b)"></path>
                                    <path fill-rule="evenodd" clip-rule="evenodd" d="M142.661 33.583c-.583-1.874 6.808-10.642 18.926-16.479-14.16-.325-22.798 4.958-22.215 6.837l3.289 9.642Z" fill="url(#c)"></path>
                                    <path fill-rule="evenodd" clip-rule="evenodd" d="m189.707 25.304-17.464 3.37.258-.703 17.096-3.294-.593-3.29-1.716.33-.302-1.64-1.281.245-.296-1.64-1.147.22.296 1.645.296 1.64-4.847.956-.612-3.28-9.585 1.827c-19.161 3.609-29.64 4.522-30.443 2.246l3.28 9.619c.831 2.505 11.473 1.597 33.421-2.706l-.196-.808a1.552 1.552 0 0 1 1.2-1.807 1.509 1.509 0 0 1 1.74 1.238l3.891-.745a1.557 1.557 0 0 1 1.2-1.808 1.502 1.502 0 0 1 1.75 1.239l.535-.1a1.556 1.556 0 0 1 1.2-1.808 1.5 1.5 0 0 1 1.75 1.238l2.065-.396-1.511-1.788h.015Zm-10.957-3.648.305 1.712-3.824.736-.306-1.712 3.825-.736Zm-.369 7.568a1.053 1.053 0 0 1-.84 1.225 1.051 1.051 0 1 1 .84-1.225Zm6.846-1.277a1.047 1.047 0 0 1-.46 1.07 1.053 1.053 0 0 1-1.547-.488 1.049 1.049 0 0 1 .779-1.423 1.048 1.048 0 0 1 1.077.458c.075.116.127.247.151.383Zm3.485-.65a1.054 1.054 0 0 1-.598 1.139 1.045 1.045 0 0 1-1.252-.295 1.056 1.056 0 0 1-.213-.868 1.057 1.057 0 0 1 1.625-.653 1.047 1.047 0 0 1 .438.677Z" fill="url(#d)"></path>
                                    <path fill-rule="evenodd" clip-rule="evenodd" d="M138.283 20.714c-.478-1.463 5.584-8.438 15.044-12.993-11.052-.254-18.041 4.116-17.583 5.578l2.539 7.415Z" fill="url(#e)"></path>
                                    <path fill-rule="evenodd" clip-rule="evenodd" d="m166.952 12.788-.273.994-1.037.21-.268-1.233-1.228.254-.225-1.043-1.229.25-.229-1.043-.268.057-.22.029-.521.096c-16.254 3.064-25.103 3.69-25.7 1.912l2.519 7.386c.641 1.912 8.605 1.53 25.748-1.74.239-.048 7.745-1.377 7.745-1.377l4.126-6.583-8.94 1.831Zm2.252 2.137a.781.781 0 0 1-.909-.593.774.774 0 0 1 .329-.786.772.772 0 0 1 .278-.113.78.78 0 0 1 .923.593.758.758 0 0 1-.607.899h-.014Zm2.562-.516a.778.778 0 0 1-.923-.593.757.757 0 0 1 .607-.899.777.777 0 0 1 .923.588.764.764 0 0 1-.607.904Z" fill="url(#f)"></path>
                                    <path fill-rule="evenodd" clip-rule="evenodd" d="M134.888 10.78c-.478-1.306 5.024-6.493 13.251-10.327h-.621c-9.251-.043-14.963 3.59-14.543 4.781l1.913 5.546Z" fill="url(#g)"></path>
                                    <path fill-rule="evenodd" clip-rule="evenodd" d="M165.607 3.643a3.852 3.852 0 0 0-.908-.235 7.102 7.102 0 0 0-1.434-.043c-.865.046-1.727.142-2.582.287l-.506-.56a.483.483 0 0 0 .234-.515.488.488 0 0 0-.393-.373.474.474 0 0 0-.19.009l-.373.077-.564-.631a.479.479 0 0 0-.33-.894l-.397.086-.674-.746a.314.314 0 0 0-.301-.096l-.818.139a.316.316 0 0 0-.224.177.293.293 0 0 0 0 .272l1.381 2.219C143.253 5.148 133.539 6.64 132.961 5.3l1.907 5.479c.588 1.358 9.858.258 23.793-2.472l-.33 2.39a.263.263 0 0 0 .091.258.309.309 0 0 0 .277.073l.818-.14a.309.309 0 0 0 .234-.21l.311-.956.402-.086a.479.479 0 0 0 .337-.698.476.476 0 0 0-.428-.248l.263-.808.368-.081a.477.477 0 1 0-.039-.956l.23-.713c.841-.218 1.67-.483 2.481-.793.444-.163.87-.371 1.272-.622a3.68 3.68 0 0 0 .755-.63.296.296 0 0 0-.096-.445Z" fill="url(#h)"></path>
                                    <defs>
                                        <linearGradient id="a" x1="151.02" y1="42.934" x2="158.607" y2="29.787" gradientUnits="userSpaceOnUse">
                                            <stop stop-color="#FDECE4"></stop>
                                            <stop offset=".45" stop-color="#F4A87D"></stop>
                                            <stop offset=".83" stop-color="#EE732D"></stop>
                                            <stop offset="1" stop-color="#EB5E0E"></stop>
                                        </linearGradient>
                                        <linearGradient id="b" x1="143.829" y1="40.544" x2="207.86" y2="40.544" gradientUnits="userSpaceOnUse">
                                            <stop stop-color="#EB5E0E"></stop>
                                            <stop offset="1" stop-color="#EF7C04"></stop>
                                        </linearGradient>
                                        <linearGradient id="c" x1="145.577" y1="28.769" x2="153.489" y2="15.063" gradientUnits="userSpaceOnUse">
                                            <stop stop-color="#C5D3EE"></stop>
                                            <stop offset=".1" stop-color="#C5D3EE"></stop>
                                            <stop offset=".96" stop-color="#193176"></stop>
                                            <stop offset="1" stop-color="#193176"></stop>
                                        </linearGradient>
                                        <linearGradient id="d" x1="139.372" y1="26.809" x2="191.217" y2="26.809" gradientUnits="userSpaceOnUse">
                                            <stop stop-color="#142762"></stop>
                                            <stop offset="1" stop-color="#193176"></stop>
                                        </linearGradient>
                                        <linearGradient id="e" x1="14966.1" y1="1199.8" x2="15081.8" y2="928.401" gradientUnits="userSpaceOnUse">
                                            <stop stop-color="#FDECE4"></stop>
                                            <stop offset=".45" stop-color="#F4A87D"></stop>
                                            <stop offset=".83" stop-color="#EE732D"></stop>
                                            <stop offset="1" stop-color="#EB5E0E"></stop>
                                        </linearGradient>
                                        <linearGradient id="f" x1="33526.7" y1="996.28" x2="36896.7" y2="996.28" gradientUnits="userSpaceOnUse">
                                            <stop stop-color="#EB5E0E"></stop>
                                            <stop offset="1" stop-color="#EF7C04"></stop>
                                        </linearGradient>
                                        <linearGradient id="g" x1="12677.4" y1="705.024" x2="13159.9" y2="705.024" gradientUnits="userSpaceOnUse">
                                            <stop stop-color="#C5D3EE"></stop>
                                            <stop offset=".1" stop-color="#C5D3EE"></stop>
                                            <stop offset=".96" stop-color="#193176"></stop>
                                            <stop offset="1" stop-color="#193176"></stop>
                                        </linearGradient>
                                        <linearGradient id="h" x1="27235" y1="776.192" x2="29483.1" y2="776.192" gradientUnits="userSpaceOnUse">
                                            <stop stop-color="#142762"></stop>
                                            <stop offset="1" stop-color="#193176"></stop>
                                        </linearGradient>
                                    </defs>
                                </svg>