<svg width="171" height="47" fill="none" xmlns="http://www.w3.org/2000/svg">
                                    <path d="M23.5 0C10.52 0 0 10.52 0 23.5S10.52 47 23.5 47 47 36.48 47 23.5 36.48 0 23.5 0Zm0 43.706c-11.16 0-20.206-9.046-20.206-20.206S12.34 3.296 23.5 3.296s20.206 9.047 20.206 20.207S34.66 43.709 23.5 43.709v-.003Z" fill="#FF9852"></path>
                                    <path d="M21.974 28.28c0-1.42-.034-2.837.008-4.255.059-1.924-.453-3.65-1.436-5.305-1.519-2.561-1.497-5.231-.216-7.888.656-1.359 1.663-2.308 3.289-2.305 1.585.003 2.56 1.002 3.178 2.273 1.237 2.537 1.349 5.199-.077 7.661-1.14 1.97-1.601 3.97-1.537 6.209.085 2.968.032 5.942.008 8.913-.003.472-.07.994-.277 1.405-.336.668-.992.868-1.709.698-.794-.19-1.196-.762-1.207-1.551-.024-1.95-.008-3.901-.008-5.852h-.018l.002-.003ZM33.469 23.476c0 1.996.01 3.995-.003 5.99-.01 1.42-.58 2.148-1.625 2.13-1-.02-1.57-.72-1.575-2.05-.016-4.082-.016-8.164 0-12.244.005-1.292.64-2.025 1.625-2.006.981.018 1.556.743 1.57 2.06.019 2.04.005 4.082.005 6.123l.003-.003ZM13.708 23.439c0-2.041-.013-4.083.005-6.121.01-1.311.6-2.03 1.588-2.02.936.01 1.607.815 1.613 2.052.016 4.082.005 8.162.005 12.244 0 .088 0 .179-.008.266-.093 1.034-.765 1.749-1.647 1.754-.9.005-1.53-.669-1.545-1.785-.03-2.13-.008-4.259-.008-6.388h-.003v-.002ZM6.669 23.428c0-.797-.064-1.601.016-2.39.101-1.005.772-1.572 1.663-1.543.839.03 1.497.57 1.542 1.521.078 1.634.08 3.278-.008 4.912-.05.932-.764 1.486-1.58 1.492-.818.005-1.497-.544-1.601-1.474-.094-.831-.019-1.679-.019-2.52h-.01l-.003.002ZM40.412 23.524c0 .797.045 1.594-.01 2.385-.067.927-.696 1.506-1.528 1.51-.828.006-1.561-.556-1.598-1.451a55.629 55.629 0 0 1 0-5.034c.042-.922.756-1.463 1.596-1.444.845.018 1.46.583 1.527 1.513.058.837.013 1.679.013 2.518v.003ZM59.957 11.791h3.853v4.205c1.924-3.307 4.775-4.778 8.431-4.65 3.694.128 6.369 1.897 7.824 5.604.234-.408.362-.615.477-.829 1.908-3.6 5.382-5.265 9.697-4.65 3.706.53 6.342 3.137 7.088 7.07.165.863.26 1.753.266 2.633.027 4.282.014 8.564.01 12.846v.877H93.65V33.47c0-3.84.029-7.682-.02-11.522-.012-1.047-.138-2.126-.433-3.126-.659-2.238-2.218-3.544-4.547-3.911-4.015-.63-7.106 1.596-7.72 5.593-.124.826-.188 1.668-.194 2.505-.02 3.442-.008 6.885-.008 10.33v1.554h-3.911v-1.439c0-3.709.034-7.418-.022-11.125-.018-1.18-.13-2.398-.458-3.523-.637-2.174-2.172-3.482-4.437-3.871-4.266-.736-7.485 1.724-7.949 6.083-.08.744-.08 1.498-.082 2.25-.008 3.354-.003 6.709-.003 10.064v1.559h-3.909v-23.1ZM166.889 16.54v-4.698h3.818V34.91h-3.821v-5.108c-.208.309-.197.288-.208.309-1.825 3.445-5.036 5.207-8.825 5.183-3.917-.024-7.131-1.596-8.985-5.114-2.431-4.612-2.407-9.377.167-13.928 3.451-6.105 12.421-6.134 16.023-1.887a43.001 43.001 0 0 1 1.831 2.373v-.198Zm-.016 6.958c.002-.12 0-.194 0-.307-.037-.482-.053-.97-.117-1.45-.52-3.922-3.422-6.627-7.27-6.79-4.183-.175-7.218 2.071-8.02 5.97-.15.73-.245 1.486-.245 2.23-.006 2.297.381 4.498 2.009 6.267 2.131 2.316 4.844 2.814 7.778 2.15 2.827-.639 4.618-2.515 5.441-5.249.301-1 .408-1.707.424-2.82ZM112.655 29.863c2.388-6.227 4.642-12.113 6.918-18.048h4.357c-4.57 11.421-9.164 22.714-13.745 34.077h-4.445c1.62-3.843 3.193-7.566 4.781-11.328l-9.74-22.751h4.405l7.472 18.05h-.003ZM145.094 34.907c-3.445-3.77-7.152-7.74-10.688-11.61l10.35-11.5h-4.805l-8.607 9.92V3.73h-3.864v31.18h3.894V24.848l8.692 10.049c2.23.01 3.696 0 5.028.01Z" fill="#FF9852"></path>
                                </svg>