<svg width="162" height="47" viewBox="0 0 113 32" fill="none" xmlns="http://www.w3.org/2000/svg">
                                    <path d="M0 15.7504C0 8.69935 5.13322 3.41162 11.9406 3.41162C15.1212 3.41162 20.8674 4.77684 20.8674 8.70011V11.0889H17.7436V9.66644C17.7436 7.61938 14.3953 6.59661 11.9967 6.59661C7.19803 6.59661 3.51519 10.2926 3.51519 15.7512C3.51519 21.0404 7.25416 25.3031 12.1075 25.3031C16.85 25.3031 18.9695 22.575 18.9695 22.575L20.8113 25.0766C20.8113 25.0766 18.1335 28.5453 12.1075 28.5453C4.96558 28.4881 0 22.9159 0 15.7504Z" fill="#22282B"></path>
                                    <path d="M32.8079 15.9784H33.5331V15.8075C33.5331 12.7369 32.418 11.657 29.7388 11.657C28.9028 11.657 26.9488 11.885 26.9488 13.0214V14.045H23.8796V12.3396C23.8796 9.49551 28.1208 9.09814 29.7934 9.09814C35.3173 9.09814 36.8246 12.0551 36.8246 15.9219V23.3132C36.8246 23.8249 37.1037 24.0522 37.5505 24.0522H38.9455V26.8963H35.8756C34.3691 26.8963 33.7561 26.1572 33.7561 24.9072C33.7561 24.339 33.8115 23.8829 33.8115 23.8829H33.7561C33.7561 23.8829 32.4173 27.2959 28.3438 27.2959C25.3869 27.2959 22.5415 25.4754 22.5415 22.0074C22.5415 16.3193 29.9626 15.9784 32.8079 15.9784ZM29.0697 24.5068C31.8597 24.5068 33.6446 21.5498 33.6446 18.9933V18.4236H32.8079C30.354 18.4236 25.8891 18.538 25.8891 21.7794C25.8344 23.1438 26.8941 24.5068 29.0697 24.5068Z" fill="#22282B"></path>
                                    <path d="M41.401 13.0215C41.401 12.5105 41.1218 12.2824 40.6758 12.2824H39.28V9.43838H42.3499C43.8572 9.43838 44.4155 10.1217 44.4155 11.2025C44.4155 11.7135 44.3586 12.1108 44.3586 12.1108H44.4155C44.4155 12.1108 45.8097 9.04102 50.1063 9.04102C54.6812 9.04102 57.6381 12.737 57.6381 18.1399C57.6381 23.6542 54.3466 27.2373 49.8825 27.2373C46.0896 27.2373 44.6378 24.4519 44.6378 24.4519H44.5816C44.5816 24.4519 44.637 25.0773 44.637 25.988V31.7875H41.3456V13.0215H41.401ZM49.3788 24.3383C52.0566 24.3383 54.289 22.0639 54.289 18.1399C54.289 14.3295 52.2803 11.9415 49.4911 11.9415C46.981 11.9415 44.5801 13.7621 44.5801 18.1963C44.5801 21.2669 46.1982 24.3383 49.3788 24.3383Z" fill="#22282B"></path>
                                    <path d="M75.4925 23.9394C75.0449 23.9394 74.7658 23.7114 74.7658 23.2004V11.6006C74.7658 10.0645 74.1536 9.3827 72.5902 9.3827H63.831V5.97119H60.6504V9.3827H58.3625V12.168H60.5935V20.415C60.5935 26.2145 64.9454 26.8964 67.1225 26.8964C67.8477 26.8964 68.2937 26.8407 68.2937 26.8407V23.883C68.2937 23.883 68.0153 23.9394 67.5124 23.9394C66.2843 23.9394 63.8857 23.4848 63.8857 20.0154V12.2252L70.8038 12.2825C71.2506 12.2825 71.5298 12.5097 71.5298 13.0215V24.6228C71.5298 26.1573 72.2003 26.8399 73.7053 26.8399H76.886V23.9958H75.4917V23.9394H75.4925Z" fill="#22282B"></path>
                                    <path d="M78.0595 12.9652C77.8358 12.4542 77.5566 12.2818 76.9983 12.2818H76.6653V9.43848H78.3379C79.8444 9.43848 80.4027 9.83584 80.961 11.2018L84.6431 21.2098C84.9769 22.1769 85.2561 23.4826 85.2561 23.4826H85.3122C85.3122 23.4826 85.5906 22.1746 85.9259 21.2098L89.5526 11.2018C90.0547 9.8366 90.6677 9.43848 92.1749 9.43848H93.7376V12.2818H93.403C92.8447 12.2818 92.5102 12.4526 92.2864 12.9652L87.0971 26.8392H83.3043L78.0595 12.9652Z" fill="#22282B"></path>
                                    <path d="M72.9814 2.729C71.6979 2.729 70.6935 3.80974 70.6935 5.06131C70.6935 5.51664 70.8619 5.9712 71.0834 6.36932C70.9727 6.71025 70.8043 7.16557 70.5251 7.39209C70.5251 7.39209 71.3626 7.50573 71.864 7.10761C72.2 7.33489 72.59 7.44853 73.036 7.44853C74.3195 7.44853 75.3223 6.36856 75.3223 5.11622C75.3223 3.86617 74.2641 2.729 72.9814 2.729Z" fill="#00D6EA"></path>
                                    <path d="M98.5362 12.9085V12.8521C98.5362 12.8521 95.2433 11.088 95.2433 7.27911C95.3002 3.52515 98.2009 0 103.614 0C108.691 0 111.984 3.12855 111.984 7.33555C111.984 11.316 108.749 13.8184 108.749 13.8184V13.8749C111.147 15.2965 112.71 17.1735 112.71 20.1297C112.71 24.3382 108.916 28.0906 103.503 28.0906C98.4816 28.0906 94.1843 24.9064 94.1843 19.8452C94.1851 15.4094 98.5362 12.9085 98.5362 12.9085ZM103.502 24.6227C106.293 24.6227 108.913 22.7449 108.913 20.0168C108.913 17.6265 106.904 16.6038 104.394 15.523C103.39 15.1257 101.939 14.5003 101.661 14.5003C100.711 14.5003 98.0333 16.7182 98.0333 19.6171C97.9772 22.7442 100.546 24.6227 103.502 24.6227ZM105.454 12.2824C106.347 12.2824 108.3 10.0088 108.3 7.56283C108.3 5.06197 106.348 3.46948 103.613 3.46948C100.711 3.46948 98.983 5.17485 98.983 7.33631C98.983 9.7243 100.99 10.6334 103.39 11.6013C103.892 11.885 105.009 12.2824 105.454 12.2824Z" fill="#00D6EA"></path>
                                    <path d="M103.613 3.52514C106.346 3.52514 108.3 5.11764 108.3 7.61926C108.3 10.0644 106.348 12.3388 105.454 12.3388C106.682 12.7361 107.798 13.3059 108.746 13.9305V13.8733C108.746 13.8733 111.981 11.4281 111.981 7.39045C111.981 3.12549 108.746 0.0556641 103.61 0.0556641" fill="url(#paint0_linear_2325_954)"></path>
                                    <path d="M103.446 24.6227C100.546 24.6227 97.9779 22.745 97.9779 19.6744C97.9779 16.7739 100.656 14.5575 101.605 14.5575C101.716 14.5575 101.995 14.6155 102.331 14.7291C102.22 14.6719 102.052 14.6162 101.941 14.5575C100.712 14.1029 99.5974 13.4775 98.5923 12.7949V12.8521C98.5923 12.8521 94.1851 15.3537 94.1851 19.8452C94.1851 24.9072 98.4801 28.0922 103.502 28.0922" fill="url(#paint1_linear_2325_954)"></path>
                                    <defs>
                                        <linearGradient id="paint0_linear_2325_954" x1="108.08" y1="3.32783" x2="105.524" y2="11.5374" gradientUnits="userSpaceOnUse">
                                            <stop stop-color="#00D6EA"></stop>
                                            <stop offset="0.1761" stop-color="#00D0E4"></stop>
                                            <stop offset="0.421" stop-color="#00BED3"></stop>
                                            <stop offset="0.7063" stop-color="#00A0B7"></stop>
                                            <stop offset="1" stop-color="#007A93"></stop>
                                        </linearGradient>
                                        <linearGradient id="paint1_linear_2325_954" x1="96.7844" y1="26.6823" x2="104.235" y2="14.0634" gradientUnits="userSpaceOnUse">
                                            <stop offset="0.1595" stop-color="#00D6EA"></stop>
                                            <stop offset="0.2761" stop-color="#00D6EA"></stop>
                                            <stop offset="0.9571" stop-color="#007A93"></stop>
                                        </linearGradient>
                                    </defs>
                                </svg>