<svg width="141" height="50" fill="none" xmlns="http://www.w3.org/2000/svg">
                                    <path d="M122.072.033c-11.377.766-14.345 10.502-15.279 14.112-.935 3.61-2.089 11.487-2.089 11.487a43.279 43.279 0 0 1-.714-5.306c-.055-2.297.494-3.336.219-3.61-.274-.273-4.067 4.157-5.11 9.354a49.124 49.124 0 0 0-1.1 7.767s-3.133-2.079-3.793-2.024c-.659.055.33 1.04 1.484 3.282 3.023 6.017-5.66 8.041-6.32 8.697-.66.656-.11.602-.11.602s9.014-.71 16.488-4.157c7.365-3.446 13.356-10.065 13.356-10.065s-4.012 7.767-12.421 11.377c-5.332 2.352-8.19 3.282-9.564 3.665-.164.055-.164.274.055.328 1.374.11 3.793.493 5.222 1.641a7.618 7.618 0 0 1 2.198 2.681.27.27 0 0 0 .123.113.263.263 0 0 0 .372-.223l.055-3.008s2.253 1.258 10.497.766c6.815-.383 10.443-3.939 11.542-5.142a.169.169 0 0 0 .048-.096.164.164 0 0 0-.105-.174.166.166 0 0 0-.108-.004 17.268 17.268 0 0 1-4.122.657c-2.583.054-3.902-.602-3.902-.602s17.038-.602 20.555-15.425c3.408-14.823-6.1-27.459-17.477-26.693Zm-96.95 23.958a46.957 46.957 0 0 0-5.443-.164c2.091-4.4 4.44-8.674 7.035-12.8 0 0 10.003-.218 13.576.547 3.078.657 4.671-.164 3.902-2.133-.44-1.094-12.256-2.899-25.612-2.133C7.368 7.855 1.762 12.45.278 13.926a1.021 1.021 0 0 0-.22 1.04 6.375 6.375 0 0 0 1.87 2.352 9.023 9.023 0 0 0 4.121 1.531s.88-3.063 5.496-4.649c4.617-1.586 6.925-1.75 6.925-1.75s-2.528 5.141-5.056 11.924c-.824.147-1.634.366-2.419.656-4.122 1.422-5.935 3.01-6.65 3.775a1.02 1.02 0 0 0-.22 1.04 4.26 4.26 0 0 0 1.484 1.75c1.594 1.093 2.584 1.038 2.584 1.038s.11-2.023 3.627-3.61c-.44 1.258-.825 2.571-1.209 3.94-3.078 10.501-.88 12.744 1.43 12.962 2.307.22 2.692-10.174 6.154-18.652 3.408-.602 5.277-.438 6.266-.71a2.304 2.304 0 0 0 1.32-1.533.814.814 0 0 0-.098-.666.824.824 0 0 0-.562-.373Z" fill="#FF5A7D"></path>
                                    <path d="M51.284 23.39c-3.078.164-6.1 3.336-6.1 3.336s-1.1-.547-3.738 3.72a24.106 24.106 0 0 0-2.638 6.18c-1.759 1.751-4.507 4.322-5.55 4.377-1.65.054-2.254-1.97 0-8.205 2.252-6.236 7.858-13.4 8.518-15.26.66-1.86-3.792-2.189-6.32-1.259a34.833 34.833 0 0 0-5.277 8.095c-1.814 3.94-8.684 21.552-1.484 21.88 4.672.22 8.08-2.626 9.728-4.43.44 2.187 1.87 3.883 4.892 4.375 8.19 1.368 13.63-13.182 12.696-18.488-.275-2.188-1.209-4.486-4.727-4.32Zm-1.978 15.151c-4.452 5.087-6.486 1.915-5.442-1.148 1.374-3.884 2.913-6.4 5.277-8.643 1.264-1.258 2.803-1.04 3.297.93.495 1.97-.879 6.29-3.132 8.861Zm13.025 6.673h.825v-3.227h3.407v-.766h-3.407V38.98h3.517v-.766h-4.342v7.001Zm7.475-5.196a2.487 2.487 0 0 0-2.23 1.66c-.109.31-.154.638-.133.966 0 1.586 1.044 2.68 2.418 2.68a2.66 2.66 0 0 0 1.924-.766l-.33-.492c-.393.4-.924.634-1.484.656a1.725 1.725 0 0 1-1.704-1.75h3.847v-.219c0-1.532-.824-2.735-2.308-2.735Zm-1.539 2.352c.055-.766.55-1.696 1.54-1.696 1.098 0 1.538.93 1.593 1.696h-3.133Zm10.223-2.352a2.001 2.001 0 0 0-1.594.93 1.219 1.219 0 0 0-1.264-.93 2.053 2.053 0 0 0-1.539.875v-.766h-.714v5.087h.714v-3.719a1.732 1.732 0 0 1 1.264-.766c.605 0 .88.383.88 1.04v3.445h.714v-3.719a1.654 1.654 0 0 1 1.264-.766c.605 0 .88.383.88 1.04v3.445h.77V41.55c-.056-1.04-.496-1.532-1.375-1.532Z" fill="#FF5A7D"></path>
                                </svg>