<svg width="152" height="35" fill="none" xmlns="http://www.w3.org/2000/svg">
                                    <path d="M0 19.725c1.423.77 2.843 1.547 4.27 2.309.195.105.206.25.206.43V35h-.05c-.051-.033-.098-.072-.149-.101-.924-.506-1.85-1.015-2.778-1.514-.495-.267-.997-.517-1.492-.773V19.729L0 19.725ZM12.193 0c.383.202.697.361 1.008.531 1.087.593 2.171 1.189 3.262 1.778.166.09.25.202.231.39-.007.061 0 .123 0 .18v30.062c-.112-.04-.184-.055-.245-.09-1.37-.745-2.739-1.485-4.104-2.24-.08-.044-.134-.167-.167-.264-.029-.076-.007-.17-.007-.257V.484c0-.134.015-.267.026-.484h-.004ZM28.884 30.947c-.466-.25-.875-.467-1.283-.687-.957-.52-1.911-1.048-2.88-1.557-.238-.127-.335-.267-.335-.542.007-7.666.003-15.336.007-23.002 0-.094.01-.184.018-.304.083.03.141.037.188.065 1.348.727 2.695 1.456 4.046 2.179.199.108.275.25.275.477-.004 7.666-.004 15.336-.004 23.002 0 .101-.014.202-.029.369h-.003ZM6.102 9.88c.126.058.213.09.293.138 1.3.708 2.597 1.42 3.901 2.12.199.105.268.232.264.448-.004 7.013 0 14.025-.004 21.037 0 .094-.01.185-.018.336-.213-.108-.386-.191-.556-.281-1.21-.654-2.42-1.316-3.63-1.966-.192-.1-.272-.227-.272-.451.004-7.03.004-14.057.004-21.088 0-.076.01-.152.018-.289v-.003ZM18.327 11.423c.394.21.744.39 1.091.578.969.524 1.926 1.059 2.901 1.565.33.17.474.357.474.751-.015 5.73-.011 11.46-.011 17.19 0 .126-.015.249-.026.43-.296-.156-.545-.279-.794-.416-1.135-.614-2.265-1.236-3.4-1.846-.184-.098-.26-.217-.26-.427.004-5.841 0-11.683.004-17.525 0-.083.01-.166.021-.303v.003ZM34.978 29.928l-.878-.466c-1.127-.611-2.25-1.229-3.378-1.836-.184-.1-.252-.23-.252-.437V13.74c0-.083.014-.163.029-.304.21.105.379.181.541.271 1.128.611 2.244 1.24 3.382 1.829.415.213.589.451.585.946-.025 4.335-.014 8.674-.014 13.01 0 .119-.011.238-.022.437h.007ZM51.395 29.039c.335.17.574.383.668.722.21.76-.253 1.38-1.095 1.438-.621.04-1.243.036-1.868.062-.23.007-.325-.083-.325-.318.008-1.236.008-2.475 0-3.71 0-.214.08-.293.293-.29.538.008 1.073-.007 1.611.008.38.01.744.115 1.008.408.448.498.365 1.181-.18 1.582-.026.018-.051.044-.112.102v-.004Zm-1.283.195h-.726c-.141 0-.235.047-.235.206 0 .415-.007.83.007 1.243 0 .072.112.198.17.195.61-.018 1.225-.036 1.832-.094.278-.03.491-.217.563-.51.069-.292.011-.578-.238-.744a2.233 2.233 0 0 0-.726-.289c-.206-.047-.43-.01-.647-.01v.003Zm-.08-.369v.03c.336-.03.672-.033 1.005-.095.372-.065.556-.325.553-.7-.004-.488-.34-.803-.936-.835-.423-.022-.846 0-1.272-.007-.162 0-.238.068-.235.231v1.142c0 .162.073.238.235.234.217-.003.434 0 .647 0h.003ZM108.685 29.06c-.148-.119-.3-.209-.408-.332-.506-.578-.253-1.416.516-1.69a2.275 2.275 0 0 1 1.554.003c.347.123.524.387.567.737.007.061-.058.155-.116.188-.029.018-.162-.05-.173-.098-.105-.505-.491-.635-.914-.635-.311 0-.647.05-.925.18a.697.697 0 0 0-.04 1.254c.21.119.47.18.712.195.517.029 1.04.007 1.561.01.068 0 .144-.014.206.012.061.025.108.086.162.133-.05.054-.101.16-.155.16-.217.01-.257.133-.246.31.018.31.025.621.051.932.021.238.115.426.365.52.061.022.09.137.133.21-.079.025-.184.097-.235.068-.187-.1-.361-.234-.574-.383-.22.264-.564.452-.972.438a4.615 4.615 0 0 1-1.091-.145c-.404-.112-.643-.42-.693-.853-.058-.473.13-.823.516-1.083.062-.044.13-.08.206-.127l-.007-.003Zm1.272.123-.011-.061c-.369.072-.752.108-1.102.231-.379.13-.553.455-.524.81.033.375.246.657.668.715.369.05.759.04 1.124-.03.379-.068.553-.353.556-.74 0-.224-.003-.448 0-.672.004-.173-.065-.26-.245-.253-.156.004-.311 0-.466 0ZM56.174 26.893c1.351-.047 2.157.914 2.175 2.182.018 1.3-.907 2.236-2.182 2.236-1.261 0-2.15-.925-2.157-2.232-.004-1.45 1.051-2.273 2.164-2.186ZM54.4 29.068c0 1.13.701 1.878 1.763 1.878 1.077 0 1.821-.762 1.825-1.864 0-1.087-.766-1.878-1.825-1.871-1.047.004-1.76.755-1.76 1.857H54.4ZM122.222 31.257a2412.2 2412.2 0 0 0-2.847-3.472c-.011.16-.018.246-.018.333v2.727c0 .08.018.163-.011.232-.025.068-.108.17-.148.162-.072-.014-.148-.087-.195-.155-.029-.04-.015-.116-.015-.177 0-1.21 0-2.424.004-3.635 0-.1.058-.198.09-.3.087.062.192.109.257.188.834 1.015 1.662 2.038 2.493 3.057.032.036.072.065.151.137.008-.134.018-.224.018-.314v-2.728c0-.076-.014-.166.018-.231.029-.058.109-.12.167-.12.057 0 .133.066.166.12.029.054.018.134.018.202v3.61c0 .104-.025.212-.036.317l-.109.044-.003.003ZM94.028 27.88v3.085c0 .133 0 .278-.184.285-.199.007-.18-.148-.18-.274v-3.74c0-.086.028-.177.093-.285 1.012 1.095 1.911 2.276 2.923 3.385v-3.027c0-.076-.015-.167.018-.232.029-.057.108-.119.166-.119.058 0 .134.065.166.123.03.054.018.134.018.202v3.61c0 .104-.021.213-.047.4-.14-.122-.238-.187-.31-.27-.795-.972-1.583-1.944-2.374-2.916-.068-.087-.148-.166-.224-.25a.353.353 0 0 1-.058.019l-.007.003ZM62.33 26.893c1.24-.083 2.175.892 2.16 2.186-.014 1.326-.892 2.236-2.178 2.232-1.268-.003-2.135-.92-2.146-2.236-.01-1.29.918-2.269 2.164-2.182Zm1.792 2.522c0-1.351-.538-2.005-1.506-2.168-.857-.144-1.637.278-1.951 1.062-.33.817-.054 1.89.617 2.338.607.404 1.265.426 1.904.108.669-.336.925-.947.936-1.34ZM135.896 27.536l-.213.195c-.344-.166-.611-.336-.9-.426-1.087-.333-2.117.27-2.345 1.347-.162.763.134 1.59.701 1.966.64.422 1.55.412 2.186-.018.145-.098.21-.214.202-.387a6.44 6.44 0 0 1 0-.621c.015-.22-.068-.315-.3-.307-.321.01-.643.014-.96-.008-.084-.003-.159-.105-.239-.162.08-.047.155-.138.235-.138.459-.014.918-.003 1.376-.007.177 0 .25.076.25.25-.004.379.01.762-.008 1.141a.552.552 0 0 1-.166.358c-.744.65-1.593.719-2.475.357-.82-.336-1.159-1.018-1.203-1.871-.028-.535.084-1.03.398-1.474.325-.459.78-.708 1.315-.806.668-.119 1.293-.007 1.85.401.075.055.155.109.292.206l.004.004ZM102.746 27.522l-.149.234c-.09-.054-.173-.097-.245-.151-.73-.531-1.817-.506-2.41.054a2 2 0 0 0-.292 2.518c.527.813 1.911 1.019 2.658.387.062-.051.123-.138.127-.214a7.202 7.202 0 0 0 0-.881c-.004-.065-.141-.17-.221-.177-.317-.022-.639 0-.96-.018-.087-.004-.167-.098-.25-.148.083-.055.163-.149.25-.152.433-.015.867 0 1.296-.007.185 0 .271.068.268.26-.007.397.011.795-.011 1.192a.505.505 0 0 1-.166.322c-.762.628-1.868.718-2.67.23-.788-.476-1.149-1.426-.932-2.452.202-.965 1.015-1.619 2.005-1.637.643-.01 1.217.134 1.702.629v.01ZM75.874 29.075c0-.614.004-1.228 0-1.842 0-.21.076-.293.29-.293.794.007 1.592 0 2.387.004.13 0 .282-.018.282.177 0 .213-.166.184-.3.187-.657 0-1.315.008-1.972 0-.232 0-.333.07-.322.311.014.336.01.676 0 1.012-.007.213.076.292.29.289.606-.008 1.213 0 1.816 0 .069 0 .148-.018.206.007.065.029.116.098.174.148-.058.05-.109.141-.17.148-.188.022-.38.011-.571.011-.495 0-.986.004-1.481 0-.188 0-.267.072-.264.26.007.372.01.744 0 1.116-.007.217.083.29.293.286.675-.007 1.35 0 2.026 0 .08 0 .163-.015.232.01.057.026.133.095.137.149.004.058-.054.144-.108.177-.062.036-.152.025-.228.025h-2.337c-.347 0-.376-.029-.376-.365v-1.817h-.004ZM80.867 29.093c0-.614.007-1.228 0-1.843 0-.22.072-.31.3-.306.795.007 1.593 0 2.388.003.133 0 .278-.007.274.188-.003.195-.158.177-.285.177-.657 0-1.315.007-1.972 0-.243-.004-.35.065-.337.322.015.328.015.657 0 .986-.007.22.073.31.3.307.607-.011 1.214 0 1.818 0 .068 0 .148-.018.206.01.065.033.108.105.162.16-.05.047-.094.115-.155.137-.069.025-.156.01-.231.01-.597 0-1.196.008-1.792 0-.22 0-.315.07-.308.3.011.362.011.727 0 1.092-.003.202.08.274.279.274.711-.007 1.42-.007 2.131 0 .094 0 .253.058.271.12.062.205-.097.241-.26.241h-2.442c-.304 0-.34-.036-.34-.35v-1.817l-.007-.011ZM124.664 30.213c.249.372.603.618 1.062.7.408.073.813.055 1.196-.115.303-.133.48-.357.488-.7.007-.33-.156-.55-.459-.647-.311-.101-.632-.177-.947-.264-.318-.087-.643-.152-.946-.267-.351-.138-.593-.394-.607-.799-.015-.408.126-.744.502-.953.668-.373 1.362-.358 2.059-.123a.998.998 0 0 1 .618.567c-.127.163-.242.21-.394.025-.43-.52-1.546-.506-2.055-.177-.228.148-.376.369-.351.654.025.3.239.462.502.535.452.123.911.216 1.362.332.174.043.347.105.513.18.376.17.564.456.578.875.018.455-.151.806-.556 1.004-.874.423-1.723.376-2.525-.195a.947.947 0 0 1-.228-.242c-.166-.238-.137-.3.188-.383v-.007ZM151.597 27.583c-.177.199-.304.199-.437.05-.463-.512-1.46-.505-2.016-.202-.257.138-.419.376-.394.683.022.285.224.452.48.524.524.144 1.062.25 1.586.394.654.18.896.52.885 1.16-.007.436-.245.73-.614.888-.874.376-1.723.318-2.503-.267a.651.651 0 0 1-.199-.235c-.036-.083-.018-.191-.025-.29.104.019.253 0 .307.066.271.303.596.502.993.57.401.07.795.051 1.174-.115.304-.134.484-.354.492-.697.007-.329-.152-.55-.455-.65-.311-.102-.633-.177-.947-.264-.318-.087-.643-.152-.947-.267-.354-.138-.596-.394-.606-.799-.011-.408.137-.762.509-.954.777-.397 1.561-.419 2.327.037.148.086.252.245.386.383l.004-.015ZM137.97 29.104v-1.871c0-.145.003-.286.209-.286s.206.141.206.286c0 .476.011.953 0 1.427-.007.242.09.314.322.31.675-.01 1.351-.01 2.026 0 .221 0 .311-.072.307-.3-.01-.476-.003-.953 0-1.427 0-.137-.018-.3.195-.292.196.007.17.162.17.289v3.689c0 .093-.025.22-.086.278-.112.112-.271 0-.275-.199-.007-.459 0-.918-.004-1.377 0-.335-.014-.35-.354-.35h-1.951c-.332 0-.343.015-.346.358v1.326c0 .151-.022.285-.221.278-.18-.007-.195-.141-.195-.278v-1.872l-.003.011ZM85.86 29.086c0-.614.007-1.228 0-1.842 0-.228.086-.304.307-.3.563.01 1.127-.011 1.687.007.827.025 1.3.61 1.322 1.409a1.33 1.33 0 0 1-1.315 1.39c-.422.012-.849 0-1.272 0-.35 0-.357.008-.357.37 0 .292.01.588-.007.88-.008.084-.09.218-.16.232-.155.032-.194-.101-.198-.235V29.08l-.007.007Zm.368-.708c0 .278-.014.553.008.827.007.08.111.22.173.22.553 0 1.109.004 1.654-.057.441-.05.766-.59.723-1.091-.047-.546-.397-.943-.874-.961-.484-.015-.968 0-1.453-.008-.162 0-.234.073-.234.235.003.279 0 .553 0 .831l.003.004ZM71.644 28.768c.585-.553 1.17-1.098 1.748-1.658.17-.163.344-.206.625-.105l-2.102 1.987c.78.74 1.531 1.452 2.315 2.193-.307.126-.487.036-.664-.13-.607-.578-1.221-1.153-1.832-1.727-.036-.033-.08-.058-.152-.108-.007.119-.018.202-.018.281v1.402c0 .137.022.3-.191.293-.195-.008-.174-.163-.174-.29V28.52c0-.398-.007-.795 0-1.196.004-.145-.08-.376.188-.372.246 0 .17.22.174.357.01.39 0 .78.003 1.167 0 .083.008.166.011.253l.069.033v.007ZM66.879 28.808c.252-.22.451-.383.639-.557.405-.38.806-.758 1.2-1.145.162-.159.335-.191.617-.108l-2.11 1.994c.766.726 1.521 1.445 2.302 2.182-.278.145-.456.058-.625-.101l-1.832-1.724c-.043-.04-.09-.072-.177-.137-.007.134-.014.22-.014.311v1.427c0 .13-.019.27-.185.238-.072-.014-.173-.144-.173-.22-.011-1.26-.011-2.525 0-3.786 0-.08.101-.206.173-.22.166-.033.184.111.184.238v1.608ZM144.78 29.27c0-.57-.008-1.142 0-1.712.003-.228-.084-.307-.308-.3-.336.01-.675.01-1.011-.004-.08-.003-.155-.09-.231-.14.079-.055.159-.16.238-.16.979-.01 1.958-.01 2.934 0 .09 0 .18.105.271.163-.087.047-.174.134-.261.137a9.502 9.502 0 0 1-.961.004c-.242-.011-.314.087-.314.318.007 1.062 0 2.128 0 3.19v.206c0 .137-.014.274-.199.27-.18 0-.166-.144-.166-.263v-1.712l.008.003ZM129.7 29.104v-1.868c0-.126-.018-.278.177-.285.192-.004.188.14.188.274v3.761c0 .123.007.26-.17.26-.184 0-.195-.14-.195-.274v-1.868ZM116.806 29.097v1.867c0 .127.026.286-.173.286-.184 0-.192-.141-.192-.278V27.21c0-.127.004-.257.181-.257.195 0 .188.145.188.275v1.868h-.004ZM91.478 29.104v1.839c0 .137.014.303-.192.3-.188-.004-.173-.163-.173-.29v-3.728c0-.133 0-.274.191-.267.177.004.174.137.174.26v1.89-.004Z" fill="#6AB457"></path>
                                    <path d="M137.587 12.088V4.35c.007-.315.007-.322.318-.322 2.651 0 5.303-.014 7.951.014a5.794 5.794 0 0 1 2.244.456c.982.426 1.636 1.181 2.052 2.153.234.549.35 1.138.357 1.723a3.993 3.993 0 0 1-.993 2.739c-.831.964-1.919 1.423-3.151 1.596-.046.008-.097.008-.14.022-.044.014-.116.054-.112.069.01.05.039.104.079.14a.708.708 0 0 0 .21.134c.762.3 1.242.936 1.748 1.521.824.95 1.42 2.06 2.103 3.11.451.694.91 1.384 1.358 2.078.062.094.087.206.13.31-.108.026-.22.073-.329.073-.628.007-1.257-.018-1.882.014-.35.018-.531-.13-.704-.408a202.767 202.767 0 0 0-2.298-3.663 13.91 13.91 0 0 0-1.738-2.19c-.404-.411-.91-.671-1.47-.82-.112-.028-.235-.028-.35-.032-.499-.004-.994 0-1.493-.01-.375-.008-.755-.04-1.13-.055a4.223 4.223 0 0 0-.427 0c-.126.007-.18.076-.177.21.018 1.846.037 3.688.051 5.534 0 .369.007.734 0 1.102 0 .26-.051.314-.311.318-.545.007-1.087.007-1.633 0-.242 0-.256-.025-.267-.267-.004-.083 0-.166 0-.25v-7.561h.004Zm4.898-6.268h-2.377c-.354 0-.408.069-.361.423.025.198.047.397.047.6.004 1.3 0 2.604 0 3.905 0 .383 0 .383.394.386h.105c1.549-.032 3.096.054 4.645-.054.521-.036 1.037-.072 1.536-.228.643-.198 1.167-.556 1.477-1.185.145-.292.181-.603.239-.917.097-.506-.025-.965-.224-1.41-.282-.631-.813-.993-1.442-1.231-.574-.217-1.177-.257-1.773-.278-.755-.03-1.514-.007-2.273-.007l.007-.004ZM123.754 11.911c.816 0 1.632.004 2.449 0 .271 0 .542-.032.813-.054.35-.03.426.032.426.38 0 1.798 0 3.597.007 5.397 0 .242-.079.393-.289.516-.599.354-1.177.752-1.788 1.084-1.069.574-2.225.928-3.418 1.138-.834.148-1.665.061-2.503-.043a8.948 8.948 0 0 1-2.677-.78 7.241 7.241 0 0 1-1.637-1.048c-1.29-1.099-1.98-2.54-2.399-4.133-.26-.98-.274-1.991-.209-2.995a9.523 9.523 0 0 1 .603-2.757c.437-1.16 1.059-2.193 1.987-3.02.892-.795 1.947-1.279 3.1-1.572.961-.245 1.933-.317 2.915-.274 1.297.058 2.518.397 3.627 1.084 1.023.636 1.695 1.564 2.103 2.688.09.245.184.487.26.737.072.245.033.325-.209.393-.488.141-.983.264-1.471.401-.133.036-.206-.014-.253-.123a14.2 14.2 0 0 1-.249-.624c-.209-.575-.509-1.092-.964-1.51-.477-.445-1.059-.694-1.666-.915-.556-.202-1.138-.249-1.709-.253-.964-.007-1.936.051-2.821.535-1.232.669-2.07 1.666-2.547 2.973-.315.864-.484 1.753-.445 2.674.026.614.004 1.232.091 1.839.173 1.243.621 2.377 1.546 3.273.564.545 1.254.881 1.972 1.163 1.03.405 2.092.437 3.176.314 1.228-.137 2.316-.625 3.349-1.275.278-.173.405-.383.39-.726-.029-.723-.007-1.445-.011-2.168 0-.36-.018-.383-.379-.383h-3.941c-.438 0-.438 0-.438-.455v-1.17c0-.286.015-.304.3-.304.972-.003 1.94 0 2.912 0l-.003-.007ZM90.144 12.074V4.267c-.007-.163.066-.246.232-.235h.14c2.179 0 4.354-.015 6.532.014 1.11.015 2.182.26 3.151.835.664.393 1.246.885 1.698 1.531a8.716 8.716 0 0 1 1.333 2.992c.271 1.123.328 2.265.271 3.414a9.77 9.77 0 0 1-.799 3.396c-.52 1.206-1.275 2.232-2.402 2.948-.65.415-1.377.621-2.114.79-.74.17-1.488.232-2.247.228-1.774-.014-3.551-.003-5.325-.003h-.072c-.394 0-.398 0-.398-.394v-7.709Zm2.208.206v5.715c0 .159.076.242.235.242h.213c1.217-.033 2.435.05 3.649-.05.48-.04.968-.055 1.438-.163 1.025-.239 1.846-.791 2.38-1.706.604-1.03.875-2.167.94-3.345.043-.787.05-1.579-.044-2.37-.137-1.123-.412-2.178-1.145-3.07-.564-.687-1.243-1.171-2.132-1.366-.653-.145-1.314-.152-1.968-.18-1.099-.051-2.2-.019-3.299-.015-.3 0-.343.065-.329.361.026.401.055.802.055 1.2.007 1.585 0 3.171 0 4.754l.007-.008ZM68.129 12.07V4.469c0-.44 0-.44.451-.44H79.38c.53 0 .473-.005.48.483.007.365.025.73.047 1.095.014.242-.069.343-.322.354-.083.003-.166 0-.249 0h-8.558c-.474 0-.441-.029-.441.444v4.264c0 .111.047.18.166.176h8.451c.306.007.317.015.317.325v1.243c-.003.329-.04.365-.372.365h-8.382c-.137 0-.19.072-.184.199v4.902c0 .35 0 .354.35.354h9.022c.162 0 .383-.036.473.05.083.077.022.304.029.463.01.39.022.78.043 1.167.007.12-.04.192-.14.21-.138.029-.282.04-.42.04H68.605c-.094 0-.191 0-.285-.008-.12-.01-.195-.08-.202-.206-.004-.072 0-.14 0-.213v-7.67l.01.004ZM51.084 11.073v6.282c0 .214-.022.423-.04.636-.014.18.022.228.21.242.093.008.187 0 .285 0h6.994c.448 0 .441 0 .448.445.007.412.022.823.044 1.239.007.12-.044.184-.141.213-.102.025-.21.04-.315.04h-9.335c-.058 0-.12 0-.177-.004-.155-.003-.242-.08-.242-.242v-.213c.018-.47.058-.943.058-1.413.003-4.566 0-9.133 0-13.703 0-.13 0-.26-.022-.39-.021-.134.036-.173.148-.173h1.883c.155 0 .205.086.202.227v6.817-.003Z" fill="#7B7B7B"></path>
                                </svg>