<svg width="117" height="111" fill="none" xmlns="http://www.w3.org/2000/svg">
  <path d="M100.782.688a15.369 15.369 0 0 0-8.251 28.338L82.498 64.141a15.293 15.293 0 0 0-10.11 3.014L53.853 51.71a15.375 15.375 0 1 0-25.32 6.082l-10.88 21.763a15.395 15.395 0 1 0 7.273 2.643l10.282-20.562a15.338 15.338 0 0 0 14.41-3.449l17.945 14.955a15.375 15.375 0 1 0 22.251-6.62l10.032-35.115c.31.019.621.032.936.032a15.374 15.374 0 0 0 0-30.75ZM16.219 102.547a7.686 7.686 0 0 1-7.54-9.187 7.687 7.687 0 0 1 15.228 1.5 7.697 7.697 0 0 1-7.688 7.687ZM39.282 54.5a7.688 7.688 0 1 1 7.687-7.688 7.696 7.696 0 0 1-7.687 7.688Zm42.28 32.672a7.688 7.688 0 1 1 7.688-7.688 7.696 7.696 0 0 1-7.687 7.688Zm19.22-63.422a7.688 7.688 0 1 1 7.687-7.688 7.696 7.696 0 0 1-7.687 7.688Z" fill="#92C9EC"/>
</svg>
