<svg width="280" height="211" fill="none" xmlns="http://www.w3.org/2000/svg"><path d="M252.5 67l-239 64.5m239-64.5l-225-2.5m225 2.5L240 107m12.5-40l17.5 42-17.5 37m-239-14.5l14-67m-14 67L47 98M27.5 64.5l225 81.5m-225-81.5L47 98m205.5 48L240 107m0 0L47 98" stroke="#92C9EC" stroke-width="3"/><circle cx="27" cy="63" r="13" fill="#fff"/><circle cx="27" cy="63" r="7.5" fill="#fff" stroke="#92C9EC" stroke-width="3"/><circle cx="241" cy="106" r="13" fill="#fff"/><circle cx="241" cy="106" r="7.5" fill="#fff" stroke="#92C9EC" stroke-width="3"/><circle cx="269" cy="110" r="11" fill="#fff"/><circle cx="269" cy="110" r="5.5" fill="#fff" stroke="#92C9EC" stroke-width="3"/><circle cx="47" cy="98" r="11" fill="#fff"/><circle cx="47" cy="98" r="5.5" fill="#fff" stroke="#FF9C00" stroke-width="3"/><circle cx="252" cy="66" r="20" fill="#fff"/><circle cx="252" cy="66" r="14.5" fill="#fff" stroke="#92C9EC" stroke-width="3"/><circle cx="252" cy="147" r="12" fill="#fff"/><circle cx="252" cy="147" r="6.5" fill="#fff" stroke="#FF9C00" stroke-width="3"/><circle cx="14" cy="132" r="14" fill="#fff"/><circle cx="14" cy="132" r="8.5" fill="#fff" stroke="#92C9EC" stroke-width="3"/><circle cx="142.525" cy="107.901" r="79.292" fill="#fff" stroke="#92C9EC" stroke-width="3"/><circle cx="142.525" cy="108.743" r="36.371" stroke="#92C9EC" stroke-width="3"/><circle cx="142.525" cy="108.743" r="18.698" stroke="#92C9EC" stroke-width="3"/><path d="M96.658 197.899c13.764 7.028 29.352 10.992 45.867 10.992 30.112 0 57.147-13.179 75.649-34.084" stroke="#92C9EC" stroke-width="3"/><path d="M55 159.238a101.518 101.518 0 0 0 25.668 28.913" stroke="#92C9EC" stroke-width="3" stroke-miterlimit="1.155" stroke-dasharray="16 8"/><circle cx="218" cy="175" r="12" fill="#fff"/><circle cx="218" cy="175" r="7.5" fill="#fff" stroke="#92C9EC" stroke-width="3"/><path d="M185.342 12.992C171.578 5.964 155.99 2 139.475 2c-30.112 0-57.146 13.18-75.65 34.084" stroke="#92C9EC" stroke-width="3"/><path d="M227 51.653a101.5 101.5 0 0 0-25.668-28.913" stroke="#92C9EC" stroke-width="3" stroke-miterlimit="1.155" stroke-dasharray="16 8"/><circle cx="64" cy="35.891" r="12" transform="rotate(-180 64 35.891)" fill="#fff"/><circle cx="64" cy="35.891" r="7.5" transform="rotate(-180 64 35.891)" fill="#fff" stroke="#FF9C00" stroke-width="3"/><path d="M221 108.348c-10.923-12.773-41.911-38.318-78.475-38.318-36.564 0-67.552 25.545-78.475 38.318M221 108.716c-10.923 12.773-41.911 38.319-78.475 38.319-36.564 0-67.552-25.546-78.475-38.319" stroke="#92C9EC" stroke-width="3"/></svg>