<svg width="298" height="280" fill="none" xmlns="http://www.w3.org/2000/svg"><path stroke="#92C9EC" stroke-width="3" d="M120 48h58v58h-58z"/><path d="M120.784 90.324l21.946-10.973 18.027 7.054 16.459-14.108" stroke="#92C9EC" stroke-width="3"/><circle cx="160.757" cy="62.108" r="6.27" stroke="#92C9EC" stroke-width="3"/><g filter="url(#filter0_f)" stroke="#70B1E0" stroke-opacity=".5" stroke-width="3"><path d="M210.275 41l33.213 7.275-7.276 33.213L203 74.213z"/><path d="M205.415 65.334l13.943-3.53 9.438 6.3 11.195-6.014"/><ellipse cx="231.844" cy="54.191" rx="3.676" ry="3.676" transform="rotate(12.355 231.844 54.191)"/></g><g filter="url(#filter1_f)" stroke="#92C9EC" stroke-width="3"><path d="M51 25.973L73.47 13l12.973 22.47-22.47 12.973z"/><path d="M60.77 42.194l6.048-9.16 8.562-1.299 3.22-9.147"/><ellipse cx="69.945" cy="22.322" rx="2.805" ry="2.805" transform="rotate(-30 69.945 22.322)"/></g><path stroke="#92C9EC" stroke-width="3" d="M78.5 217.5h141v61h-141z"/><rect x="122.5" y="227.5" width="53" height="11" rx="5.5" stroke="#92C9EC" stroke-width="3"/><path stroke="#92C9EC" stroke-width="3" d="M3 125.83l41.1-41.1 41.1 41.1-41.1 41.1z"/><path d="M33.547 155.266l7.776-23.327 17.773-7.775 1.666-21.661" stroke="#92C9EC" stroke-width="3"/><ellipse cx="41.878" cy="106.946" rx="6.284" ry="6.284" transform="rotate(-45 41.878 106.946)" stroke="#92C9EC" stroke-width="3"/><path stroke="#92C9EC" stroke-width="3" d="M254.49 84.73l41.1 41.1-41.1 41.1-41.1-41.1z"/><path d="M225.055 115.278l23.327 7.775 7.775 17.773 21.661 1.666" stroke="#92C9EC" stroke-width="3"/><ellipse cx="273.375" cy="123.609" rx="6.284" ry="6.284" transform="rotate(45 273.375 123.609)" stroke="#92C9EC" stroke-width="3"/><path d="M70.09 150.5c12 5.5 36.701 24.3 39.501 55.5M224.091 150.5c-12 5.5-36.7 24.3-39.5 55.5M149 115v82.5" stroke="#FF9C00" stroke-width="3" stroke-dasharray="6 5"/><defs><filter id="filter0_f" x="198.214" y="36.214" width="50.06" height="50.06" filterUnits="userSpaceOnUse" color-interpolation-filters="sRGB"><feFlood flood-opacity="0" result="BackgroundImageFix"/><feBlend in="SourceGraphic" in2="BackgroundImageFix" result="shape"/><feGaussianBlur stdDeviation="1.5" result="effect1_foregroundBlur"/></filter><filter id="filter1_f" x="38.951" y=".951" width="59.541" height="59.541" filterUnits="userSpaceOnUse" color-interpolation-filters="sRGB"><feFlood flood-opacity="0" result="BackgroundImageFix"/><feBlend in="SourceGraphic" in2="BackgroundImageFix" result="shape"/><feGaussianBlur stdDeviation="5" result="effect1_foregroundBlur"/></filter></defs></svg>