<svg width="231" height="184" fill="none" xmlns="http://www.w3.org/2000/svg"><path d="M101.5 89.5l-83.5 31 147.5 5m-64-36V18m0 71.5L22.5 62 175 37l-9.5 88.5m-64-36l107 5m-107-5l64 36m-64-36l-30 62" stroke="#92C9EC" stroke-width="3"/><path d="M76 183l9.343-24.104c1.341-3.46-1.423-7.17-5.134-7.193-26.204-.168-66.345-11.778-65.184-59.008C16.635 27.181 76.08 17 101.11 17c54.39 0 113.402 19.965 111.39 69-2.012 49.035-37.352 33.894-53.448 41.53-16.095 7.637-16.713 23.846-35.223 23.846-14.807 0-21.244 16.083-22.719 31.624" stroke="#92C9EC" stroke-width="3"/><circle cx="164" cy="125" r="16" fill="#fff"/><circle cx="164" cy="125" r="10.5" fill="#fff" stroke="#92C9EC" stroke-width="3"/><circle cx="100" cy="89" r="24" fill="#fff"/><circle cx="100" cy="89" r="18.5" fill="#fff" stroke="#92C9EC" stroke-width="3"/><circle cx="18" cy="120" r="18" fill="#fff"/><circle cx="18" cy="120" r="12.5" fill="#fff" stroke="#FF9C00" stroke-width="3"/><circle cx="71" cy="152" r="13" fill="#fff"/><circle cx="71" cy="152" r="7.5" fill="#fff" stroke="#92C9EC" stroke-width="3"/><circle cx="23" cy="62" r="18" fill="#fff"/><circle cx="23" cy="62" r="12.5" fill="#fff" stroke="#92C9EC" stroke-width="3"/><circle cx="100" cy="18" r="18" fill="#fff"/><circle cx="100" cy="18" r="12.5" fill="#fff" stroke="#FF9C00" stroke-width="3"/><circle cx="176" cy="37" r="13" fill="#fff"/><circle cx="176" cy="37" r="7.5" fill="#fff" stroke="#92C9EC" stroke-width="3"/><circle cx="213" cy="93" r="18" fill="#fff"/><circle cx="213" cy="93" r="12.5" fill="#fff" stroke="#FF9C00" stroke-width="3"/></svg>