<svg width="88" height="88" fill="none" xmlns="http://www.w3.org/2000/svg"><path clip-rule="evenodd" d="M27.818 2h31.9c4.894 0 8.862 3.964 8.862 8.854v67.292c0 4.89-3.968 8.854-8.861 8.854H27.817c-4.894 0-8.862-3.964-8.862-8.854V10.854c0-4.89 3.968-8.854 8.862-8.854zM22.5 72.833h42.534V14.396H22.501v58.437z" stroke="#92C9EC"/><ellipse cx="44.338" cy="79.821" rx="3.707" ry="3.733" stroke="#92C9EC"/><path fill="#fff" d="M82 21H60v41h22z"/><ellipse rx="3.503" ry="3.527" transform="matrix(-1 0 0 1 53.635 65.527)" stroke="#92C9EC"/><ellipse rx="3.503" ry="3.527" transform="matrix(-1 0 0 1 78.613 65.527)" stroke="#92C9EC"/><path d="M46.141 37.909l2.255 13.35a5 5 0 004.93 4.167h25.309a5 5 0 004.907-4.041l2.167-11.093a2 2 0 00-1.963-2.383H46.141zm0 0l-2.804-16.482h-2.582M78.613 62.026H50.962c-1.562 0-2.829-1.478-2.829-3.3 0-1.823 1.267-3.3 2.829-3.3h2.061" stroke="#92C9EC"/><path d="M41.995 21.427h-6.26A2.736 2.736 0 0033 24.163v0a2.736 2.736 0 002.737 2.736h8.553" stroke="#92C9EC"/><path d="M54.225 31.779c0 6.39 5.179 11.57 11.567 11.57 6.389 0 11.568-5.18 11.568-11.57 0-6.39-5.18-11.57-11.568-11.57s-11.567 5.18-11.567 11.57z" fill="#fff" stroke="#92C9EC"/><path d="M54.225 31.779c0 6.39 5.179 11.57 11.567 11.57 6.389 0 11.568-5.18 11.568-11.57 0-6.39-5.18-11.57-11.568-11.57s-11.567 5.18-11.567 11.57z" stroke="#92C9EC"/><path d="M64.842 40.05v-1.5c-2.06-.32-3.321-1.927-3.42-3.854 0-4.175 5.738-3.8 5.738-5.995 0-.964-.785-1.606-1.814-1.606-1.177 0-2.158.696-2.501 1.017-.05.107-.196.053-.245-.054l-.785-1.606c-.049-.053 0-.16.049-.214.294-.267 1.361-1.075 2.98-1.236v-1.494c0-.107.098-.214.196-.214h.983c.099 0 .197.107.197.214v1.553c1.863.32 3.245 1.82 3.245 3.747 0 3.961-5.738 3.747-5.738 5.995 0 1.07.834 1.606 1.766 1.606 1.373 0 2.5-.91 2.893-1.285.049-.053.196-.053.245.054l.98 1.499c.05.107.05.214 0 .268-.343.32-1.576 1.391-3.39 1.605v1.5c0 .107-.098.214-.196.214h-.987c-.098 0-.196-.108-.196-.215z" fill="#fff" stroke="#92C9EC"/></svg>