<svg width="72" height="72" fill="none" xmlns="http://www.w3.org/2000/svg"><g clip-path="url(#clip0)"><path d="M8.172 50.715C4.962 53.925.555 68.427.063 70.068a1.505 1.505 0 00.375 1.491 1.497 1.497 0 001.494.378c1.641-.492 16.143-4.899 19.353-8.109 3.615-3.615 3.615-9.498 0-13.113-3.618-3.615-9.498-3.612-13.113 0zM30.3 18.54C40.44 7.14 56.46-.21 70.53.03c.392.014.742.168 1.002.416.26.262.424.62.439 1.024.24 14.07-7.11 30.09-18.51 40.23a38.063 38.063 0 01-11.1 26.1 1.508 1.508 0 01-2.55-.84l-1.65-11.58-1.62 1.44c-.57.54-1.5.51-2.04-.06L21.18 43.44l-5.94-5.94c-.57-.54-.6-1.47-.06-2.04l1.44-1.62-11.58-1.65a1.508 1.508 0 01-.84-2.55 38.063 38.063 0 0126.1-11.1z" fill="#92C9EC"/><circle cx="51.513" cy="20.815" r="6.5" transform="rotate(45 51.513 20.815)" fill="#fff"/><circle cx="53.549" cy="58" r="16" fill="#103654" stroke="#fff" stroke-width="4"/><path d="M48.731 57.186l-1.555 1.2 4.666 6 9.334-11.04-1.297-.96-8.037 7.68-3.11-2.88z" fill="#fff"/></g><defs><clipPath id="clip0"><path fill="#fff" d="M0 0h72v72H0z"/></clipPath></defs></svg>