<svg width="100" height="100" viewBox="0 0 100 100" fill="none" xmlns="http://www.w3.org/2000/svg">
<path fill-rule="evenodd" clip-rule="evenodd" d="M50 100C77.6142 100 100 77.6142 100 50C100 22.3858 77.6142 0 50 0C22.3858 0 0 22.3858 0 50C0 77.6142 22.3858 100 50 100Z" fill="white"/>
<g clip-path="url(#clip0)">
<path d="M51.3581 39.5272L29.5614 28.3472L51.3581 61.9658M51.3581 39.5272L74.0059 50.4876L51.3581 61.9658M51.3581 39.5272L29.5614 72.6527L51.3581 61.9658M51.3581 39.5272L29.5576 50.4999L51.3581 61.9658" stroke="#103654" stroke-width="4"/>
<circle cx="73.0465" cy="50.4999" r="5.02186" fill="#92C9EC"/>
<ellipse cx="28.0902" cy="72.9782" rx="5.02186" ry="5.02186" fill="#92C9EC"/>
<circle cx="28.0902" cy="28.0219" r="5.02186" fill="#92C9EC"/>
<ellipse cx="28.0902" cy="50.4999" rx="5.02186" ry="5.02186" fill="#92C9EC"/>
<ellipse cx="50.856" cy="61.8829" rx="5.02186" ry="5.02186" fill="#92C9EC"/>
<path d="M55.8778 39.1171C55.8778 41.8906 53.6295 44.139 50.856 44.139C48.0825 44.139 45.8341 41.8906 45.8341 39.1171C45.8341 36.3436 48.0825 34.0952 50.856 34.0952C53.6295 34.0952 55.8778 36.3436 55.8778 39.1171Z" fill="#92C9EC"/>
</g>
<defs>
<clipPath id="clip0">
<path d="M23.0684 23H78.0684V78H23.0684V23Z" fill="white"/>
</clipPath>
</defs>
</svg>
