<svg width="100" height="100" viewBox="0 0 100 100" fill="none" xmlns="http://www.w3.org/2000/svg">
<path fill-rule="evenodd" clip-rule="evenodd" d="M50 100C77.6142 100 100 77.6142 100 50C100 22.3858 77.6142 0 50 0C22.3858 0 0 22.3858 0 50C0 77.6142 22.3858 100 50 100Z" fill="white"/>
<g clip-path="url(#clip0)">
<path d="M77.4447 62.6062L74.65 61.1511L75.597 58.1371C75.7241 57.7329 75.6201 57.2825 75.3083 56.9707L73.2643 54.9268C72.9525 54.615 72.5021 54.5109 72.0979 54.6381L69.0839 55.585L67.6288 52.7903C67.4324 52.4092 67.0398 52.1666 66.601 52.1666H63.7023C63.2751 52.1666 62.8709 52.4092 62.6745 52.7903L61.2195 55.585L58.2054 54.6381C57.8012 54.5109 57.3508 54.615 57.0506 54.9268L54.995 56.9707C54.6832 57.2825 54.5792 57.7329 54.7063 58.1371L55.6533 61.1511L52.8586 62.6062C52.4775 62.8026 52.235 63.1952 52.235 63.634V66.5326C52.235 66.9599 52.4775 67.364 52.8586 67.5604L55.6533 69.0155L54.7063 72.018C54.5792 72.4337 54.6832 72.8841 54.995 73.1843L57.0506 75.2398C57.3508 75.5516 57.8012 75.6557 58.2054 75.5285L61.2195 74.5816L62.6745 77.3763C62.8709 77.7574 63.2751 78 63.7023 78H66.601C67.0398 78 67.4324 77.7574 67.6288 77.3763L69.0839 74.5816L72.0979 75.5285C72.5021 75.6557 72.9525 75.5516 73.2643 75.2398L75.3083 73.1843C75.6201 72.8841 75.7241 72.4337 75.597 72.018L74.65 69.0155L77.4447 67.5604C77.8258 67.364 78.0683 66.9599 78.0683 66.5326V63.634C78.0683 63.1952 77.8258 62.8026 77.4447 62.6062ZM65.1574 70.3318C62.2588 70.3318 59.903 67.9761 59.903 65.0775C59.903 62.1905 62.2588 59.8348 65.1574 59.8348C68.0445 59.8348 70.4003 62.1905 70.4003 65.0775C70.4003 67.9761 68.0445 70.3318 65.1574 70.3318Z" fill="#92C9EC"/>
<path d="M58.196 49.7174L59.6696 45.664C59.8077 45.2495 59.7272 44.8003 59.4279 44.4894L55.9394 40.6778L59.071 36.5784C59.3357 36.233 59.3818 35.7837 59.2091 35.3924L57.3785 31.477C57.1944 31.0857 56.8144 30.8322 56.3769 30.8092L51.2192 30.5905L50.5399 25.4776C50.4823 25.0515 50.1945 24.6831 49.7916 24.5449L45.7275 23.0709C45.3246 22.9212 44.8756 23.0134 44.5532 23.3013L40.7539 26.8019L36.6438 23.6582C36.2985 23.3934 35.8495 23.3473 35.4581 23.5316L31.5437 25.3625C31.1523 25.5467 30.8989 25.9267 30.8874 26.3528L30.6687 31.5231L25.5455 32.2026C25.1195 32.2601 24.7626 32.548 24.613 32.951L23.1393 37.016C22.9896 37.4191 23.0817 37.8681 23.3695 38.179L26.8694 41.9907L23.7264 46.09C23.4731 46.4354 23.4156 46.8962 23.5998 47.2762L25.4303 51.1914C25.6146 51.5829 25.9944 51.8362 26.4319 51.8592L31.5898 52.0781L32.269 57.2024C32.3265 57.6284 32.6143 57.9853 33.0173 58.1352L37.0813 59.5975C37.208 59.6436 37.3462 59.6667 37.4728 59.6667C37.7606 59.6667 38.0369 59.5631 38.2557 59.3673L42.0549 55.8666L46.165 59.0104C46.4989 59.2752 46.9594 59.3212 47.3509 59.1369L51.2652 57.306C51.6451 57.1332 51.9099 56.7417 51.9214 56.3157L52.1402 51.1568L57.2634 50.4658C57.6894 50.4198 58.0463 50.1204 58.196 49.7174ZM44.4727 47.8979C43.5055 48.3472 42.4694 48.5774 41.4102 48.5774C38.6126 48.5774 36.0337 46.9422 34.8478 44.4089C34.0305 42.6585 33.9383 40.6893 34.5946 38.8699C35.2624 37.0505 36.5863 35.5996 38.3363 34.7821C39.3033 34.3214 40.3395 34.091 41.3987 34.091C44.1963 34.091 46.7752 35.7378 47.961 38.2712C49.6534 41.8869 48.0876 46.2052 44.4727 47.8979Z" fill="#92C9EC"/>
</g>
<defs>
<clipPath id="clip0">
<path d="M23.0684 23H78.0684V78H23.0684V23Z" fill="white"/>
</clipPath>
</defs>
</svg>
