<svg width="100" height="100" viewBox="0 0 100 100" fill="none" xmlns="http://www.w3.org/2000/svg">
<path fill-rule="evenodd" clip-rule="evenodd" d="M50 100C77.6142 100 100 77.6142 100 50C100 22.3858 77.6142 0 50 0C22.3858 0 0 22.3858 0 50C0 77.6142 22.3858 100 50 100Z" fill="white"/>
<path fill-rule="evenodd" clip-rule="evenodd" d="M71.5661 60.9987L68.4225 57.8551L64.6047 61.6728L63.0329 60.101L66.8507 56.2833L63.707 53.1396L61.4164 55.4303L59.8446 53.8585L62.1352 51.5678L58.9916 48.4242L55.1738 52.242L53.602 50.6702L57.4198 46.8524L54.2762 43.7088L51.9855 45.9995L50.4137 44.4277L52.7044 42.137L49.5609 38.9935L45.7431 42.8112L44.1713 41.2394L47.9891 37.4217L44.8454 34.278L42.5548 36.5687L40.983 34.9969L43.2736 32.7062L40.13 29.5626L36.3122 33.3804L34.7404 31.8086L38.5582 27.9908L33.8428 23.2754L23.1529 33.9653L66.3775 77.1899L77.0674 66.5L73.1379 62.5705L70.8473 64.8612L69.2755 63.2894L71.5661 60.9987Z" fill="#92C9EC"/>
<path d="M67.8647 26.4464L66.8041 25.3858L65.7434 26.4464L28.2513 63.9386L27.1906 64.9992L28.2513 66.0599L35.2839 73.0926L36.3446 74.1532L37.4052 73.0926L74.8974 35.6004L75.958 34.5397L74.8974 33.4791L67.8647 26.4464Z" fill="#103654" stroke="white" stroke-width="3"/>
<path d="M73.8449 33.1173L35.77 71.1921L28.0161 73.3276L30.1516 65.5737L68.2264 27.4988C69.7779 25.9473 72.2934 25.9473 73.8449 27.4988C75.3963 29.0503 75.3963 31.5658 73.8449 33.1173Z" stroke="#103654" stroke-width="2"/>
</svg>
