<svg width="100" height="100" viewBox="0 0 100 100" fill="none" xmlns="http://www.w3.org/2000/svg">
<path fill-rule="evenodd" clip-rule="evenodd" d="M50 100C77.6142 100 100 77.6142 100 50C100 22.3858 77.6142 0 50 0C22.3858 0 0 22.3858 0 50C0 77.6142 22.3858 100 50 100Z" fill="white"/>
<g clip-path="url(#clip0)">
<rect x="23.0684" y="29.4707" width="55" height="42.0588" rx="4" fill="#92C9EC"/>
<path d="M66.7447 56.1616C64.0689 56.1616 61.8917 58.3388 61.8917 61.0146C61.8917 63.6904 64.0689 65.8675 66.7447 65.8675C69.4205 65.8675 71.5976 63.6904 71.5976 61.0146C71.5976 58.3388 69.4205 56.1616 66.7447 56.1616ZM66.7447 63.441C65.4065 63.441 64.3182 62.3528 64.3182 61.0146C64.3182 59.6764 65.4065 58.5881 66.7447 58.5881C68.0829 58.5881 69.1711 59.6764 69.1711 61.0146C69.1711 62.3528 68.0829 63.441 66.7447 63.441Z" fill="white"/>
<path d="M66.7447 44.0294C69.425 44.0294 71.5977 41.8566 71.5977 39.1764C71.5977 36.4962 69.425 34.3235 66.7447 34.3235C64.0645 34.3235 61.8918 36.4962 61.8918 39.1764C61.8918 40.216 62.2187 41.1792 62.7752 41.9689L60.1777 44.9098C58.3537 46.9738 55.4969 47.7724 52.8995 46.942C49.5385 45.8695 45.9027 46.7829 43.4122 49.3286L41.6865 51.0926V49.1133C41.6865 48.4245 41.1395 47.8655 40.4656 47.8655C39.7917 47.8655 39.2448 48.4245 39.2448 49.1133V54.1049C39.2448 54.1867 39.2533 54.2684 39.2685 54.3496C39.2734 54.3742 39.2808 54.3974 39.2883 54.4208C39.2922 54.4329 39.2961 54.445 39.2997 54.4575L39.3099 54.4939C39.3179 54.5237 39.3259 54.5535 39.3376 54.5823C39.3506 54.6152 39.3676 54.6456 39.3847 54.6762L39.4004 54.7045C39.406 54.715 39.4113 54.7256 39.4166 54.7363C39.4268 54.7569 39.437 54.7776 39.4499 54.7969C39.5396 54.9342 39.6543 55.0515 39.7886 55.1432C39.8179 55.1631 39.8491 55.1763 39.879 55.1937L39.9065 55.2096C39.9365 55.2271 39.9663 55.2446 39.9986 55.258C40.0175 55.266 40.0368 55.2723 40.0563 55.2782C40.0777 55.2845 40.0993 55.2901 40.1207 55.2967C40.1561 55.3073 40.1897 55.321 40.2263 55.3285C40.3057 55.3441 40.3857 55.3529 40.4656 55.3529H45.3491C46.023 55.3529 46.5699 54.7938 46.5699 54.1049C46.5699 53.4161 46.023 52.857 45.3491 52.857H43.4128L45.1385 51.0931C46.985 49.2069 49.6801 48.5275 52.1713 49.3242C55.6776 50.443 59.5306 49.3667 61.9901 46.582L64.6597 43.5599C65.2914 43.8608 65.9984 44.0294 66.7447 44.0294Z" fill="#103654"/>
<ellipse cx="66.7447" cy="39.1765" rx="2.42647" ry="2.42647" fill="white"/>
<ellipse cx="66.7447" cy="61.0146" rx="4.85294" ry="4.85294" fill="#103654"/>
<path d="M39.0918 62.2278C38.5531 64.3209 36.653 65.8675 34.3918 65.8675C31.7115 65.8675 29.5388 63.6948 29.5388 61.0146C29.5388 58.3343 31.7115 56.1616 34.3918 56.1616C36.653 56.1616 38.5531 57.7082 39.0918 59.8013H54.4029L52.7904 58.2332C52.3034 57.7595 52.3034 56.9915 52.7904 56.5178C53.2774 56.0439 54.0668 56.0439 54.5538 56.5178L58.2951 60.1575C58.3756 60.2357 58.4379 60.3242 58.4922 60.4164C58.5053 60.4384 58.5171 60.4608 58.5289 60.4838C58.5757 60.5766 58.6138 60.6725 58.6343 60.772L58.6359 60.7762L58.6368 60.7786C58.6574 60.8818 58.6599 60.9867 58.6531 61.091C58.6512 61.1165 58.6487 61.1407 58.6456 61.1656C58.6318 61.2718 58.6088 61.3761 58.5664 61.4762L58.5657 61.4786L58.5643 61.4808C58.5627 61.4829 58.5611 61.4848 58.5601 61.4871C58.5196 61.58 58.4635 61.6667 58.398 61.7492C58.3799 61.7722 58.3625 61.7935 58.3431 61.8147C58.3374 61.8211 58.332 61.8279 58.3268 61.8347C58.3168 61.8477 58.307 61.8608 58.2951 61.8724L54.5538 65.5121C54.31 65.7492 53.9914 65.8675 53.6721 65.8675C53.3529 65.8675 53.0342 65.7492 52.7904 65.5121C52.3034 65.0382 52.3034 64.2703 52.7904 63.7966L54.4029 62.2278H39.0918Z" fill="#103654"/>
<circle cx="66.7447" cy="61.0146" r="2.42647" fill="white"/>
<ellipse cx="34.3918" cy="61.0146" rx="2.42647" ry="2.42647" fill="white"/>
<path d="M39.092 39.581C38.5532 41.6741 36.6532 43.2206 34.392 43.2206C31.7118 43.2206 29.5391 41.0478 29.5391 38.3676C29.5391 35.6874 31.7118 33.5147 34.392 33.5147C36.6534 33.5147 38.5535 35.0614 39.0922 37.1547H54.4031L52.7906 35.5854C52.3036 35.1117 52.3036 34.3437 52.7906 33.87C53.2776 33.3962 54.067 33.3962 54.554 33.87L58.2954 37.5095C58.3758 37.5877 58.4381 37.6763 58.4924 37.7685C58.5055 37.7903 58.5173 37.8128 58.5292 37.8358C58.576 37.9286 58.614 38.0245 58.6346 38.124C58.6349 38.1257 58.636 38.1286 58.636 38.1286L58.637 38.1318C58.6576 38.235 58.6601 38.34 58.6533 38.4442C58.6514 38.4697 58.6489 38.494 58.6458 38.5189C58.632 38.625 58.609 38.7294 58.5666 38.8295L58.5659 38.8319L58.5635 38.8354C58.5622 38.837 58.5611 38.8386 58.5604 38.8403C58.5366 38.8948 58.5074 38.9472 58.4742 38.9978C58.4508 39.0335 58.4253 39.0683 58.3982 39.1024C58.3801 39.1255 58.3627 39.1467 58.3433 39.1679C58.3362 39.1758 58.3298 39.1842 58.3233 39.1926C58.3146 39.2041 58.3058 39.2154 58.2954 39.2256L54.554 42.8651C54.3102 43.1023 53.9916 43.2206 53.6723 43.2206C53.3531 43.2206 53.0344 43.1023 52.7906 42.8651C52.3036 42.3914 52.3036 41.6234 52.7906 41.1496L54.4031 39.581H39.092Z" fill="#103654"/>
<circle cx="34.3918" cy="38.3676" r="2.42647" fill="white"/>
</g>
<defs>
<clipPath id="clip0">
<path d="M23.0684 23H78.0684V78H23.0684V23Z" fill="white"/>
</clipPath>
</defs>
</svg>
