<svg width="100" height="100" viewBox="0 0 100 100" fill="none" xmlns="http://www.w3.org/2000/svg">
<path fill-rule="evenodd" clip-rule="evenodd" d="M50 100C77.6142 100 100 77.6142 100 50C100 22.3858 77.6142 0 50 0C22.3858 0 0 22.3858 0 50C0 77.6142 22.3858 100 50 100Z" fill="white"/>
<path d="M63.4743 23C55.427 23 48.8807 29.1098 48.8807 36.6199C48.8807 39.4264 49.7983 42.1284 51.5349 44.4342C51.7046 44.659 51.7487 44.9551 51.6524 45.2195L49.432 51.3239L56.3081 48.8973C56.5361 48.7564 56.8218 48.7286 57.0738 48.8445C59.0994 49.7702 61.2523 50.2393 63.4737 50.2393C71.521 50.2393 78.0683 44.1295 78.0683 36.6199C78.0683 29.1098 71.5215 23 63.4743 23ZM55.6502 38.6123C54.54 38.6123 53.6399 37.7122 53.6399 36.602C53.6399 35.4918 54.54 34.5917 55.6502 34.5917C56.7604 34.5917 57.6605 35.4918 57.6605 36.602C57.6605 37.7122 56.7604 38.6123 55.6502 38.6123ZM63.4743 38.6123C62.3641 38.6123 61.464 37.7122 61.464 36.602C61.464 35.4918 62.3641 34.5917 63.4743 34.5917C64.5845 34.5917 65.4846 35.4918 65.4846 36.602C65.4846 37.7122 64.5845 38.6123 63.4743 38.6123ZM71.2989 38.6123C70.1887 38.6123 69.2886 37.7122 69.2886 36.602C69.2886 35.4918 70.1887 34.5917 71.2989 34.5917C72.4091 34.5917 73.3092 35.4918 73.3092 36.602C73.3092 37.7122 72.4091 38.6123 71.2989 38.6123Z" fill="#103654"/>
<path fill-rule="evenodd" clip-rule="evenodd" d="M48.2306 71.7214C47.1141 70.0464 44.4157 68.7747 42.1206 68.1238C39.8255 67.4723 39.0893 66.0224 39.2522 65.3478C39.4151 64.6732 39.9184 64.8829 40.4289 63.9203C40.8637 63.1002 41.1593 61.1841 41.1593 61.1841C41.1593 61.1841 42.2059 60.8352 42.3226 59.2538C42.4386 57.6718 42.3226 57.0902 41.9269 56.9042C41.5312 56.7183 41.3684 56.7414 41.3684 56.7414C41.3684 56.7414 41.6268 54.4911 41.6287 54.0198C41.6306 53.4228 41.6845 52.8367 41.5171 52.2288C40.9137 50.0427 38.4128 49.1122 35.5097 49.1584C32.6067 49.2052 32.5618 50.0889 31.959 50.7404C31.3562 51.3913 30.9542 50.8795 30.4181 51.8799C30.0942 52.4846 30.4065 55.346 30.4065 55.346C30.504 56.1379 30.613 56.7414 30.613 56.7414C30.613 56.7414 30.4501 56.7183 30.0545 56.9042C29.6595 57.0902 29.5427 57.6718 29.6595 59.2538C29.7755 60.8352 30.8221 61.1841 30.8221 61.1841C30.8221 61.1841 31.1177 63.1002 31.5531 63.9203C32.0629 64.8829 32.567 64.6732 32.7298 65.3478C32.8927 66.0224 32.1559 67.4723 29.8608 68.1238C27.5657 68.7747 24.8673 70.0464 23.7508 71.7214C22.9069 72.9879 23.0377 75.1239 23.1519 76.0897C23.1859 76.3757 27.7389 77.8031 36.0984 77.8031C44.458 77.8031 48.7955 76.3757 48.8295 76.0897C48.9436 75.1239 49.0751 72.9879 48.2306 71.7214V71.7214Z" fill="#92C9EC"/>
<path d="M65.2446 63.8506H47.0924L42.6302 74.1906H23.0684V78H58.1699L65.2446 63.8506Z" fill="#92C9EC"/>
<path d="M42.3878 74.7347L47.0872 63.8408L42.932 66.0273L39.9388 72.5579H30.1431V74.7347H42.3878Z" fill="white"/>
</svg>
