<svg width="100" height="100" viewBox="0 0 100 100" fill="none" xmlns="http://www.w3.org/2000/svg">
<path fill-rule="evenodd" clip-rule="evenodd" d="M50 100C77.6142 100 100 77.6142 100 50C100 22.3858 77.6142 0 50 0C22.3858 0 0 22.3858 0 50C0 77.6142 22.3858 100 50 100Z" fill="white"/>
<rect x="36.2905" y="24" width="28.5556" height="53" rx="3" fill="#92C9EC" stroke="#92C9EC" stroke-width="2"/>
<ellipse cx="50.5683" cy="74.1806" rx="1.52778" ry="1.52778" fill="white"/>
<line x1="47.5127" y1="27.3472" x2="53.6238" y2="27.3472" stroke="#92C9EC" stroke-width="2"/>
<line x1="55.1516" y1="27.3472" x2="57.4433" y2="27.3472" stroke="#92C9EC" stroke-width="2"/>
<rect x="35.2905" y="29.875" width="30.5556" height="40.4861" fill="white"/>
<line x1="48.5127" y1="26.5834" x2="52.6238" y2="26.5834" stroke="white" stroke-width="2" stroke-linecap="round"/>
<line x1="56.1516" y1="26.5834" x2="56.4433" y2="26.5834" stroke="white" stroke-width="2" stroke-linecap="round"/>
<path d="M58.2657 54.3426L58.9411 52.4848C59.0044 52.2948 58.9675 52.089 58.8303 51.9465L57.2314 50.1995L58.6667 48.3206C58.7881 48.1623 58.8092 47.9564 58.73 47.777L57.891 45.9825C57.8066 45.8031 57.6325 45.6869 57.4319 45.6764L55.068 45.5761L54.7566 43.2327C54.7303 43.0374 54.5983 42.8686 54.4137 42.8053L52.551 42.1297C52.3663 42.0611 52.1605 42.1033 52.0127 42.2353L50.2714 43.8397L48.3876 42.3988C48.2293 42.2775 48.0235 42.2563 47.8441 42.3408L46.05 43.18C45.8706 43.2644 45.7545 43.4386 45.7493 43.6338L45.649 46.0036L43.3009 46.315C43.1056 46.3414 42.9421 46.4733 42.8735 46.6581L42.198 48.5212C42.1294 48.7059 42.1717 48.9117 42.3036 49.0542L43.9077 50.8012L42.4671 52.6801C42.351 52.8384 42.3247 53.0496 42.4091 53.2237L43.2481 55.0182C43.3325 55.1977 43.5066 55.3138 43.7072 55.3243L46.0712 55.4246L46.3825 57.7733C46.4089 57.9685 46.5408 58.1321 46.7255 58.2008L48.5881 58.871C48.6462 58.8922 48.7095 58.9027 48.7676 58.9027C48.8995 58.9027 49.0261 58.8552 49.1264 58.7655L50.8677 57.161L52.7515 58.6019C52.9045 58.7233 53.1156 58.7444 53.295 58.6599L55.0891 57.8207C55.2632 57.7416 55.3846 57.5621 55.3899 57.3668L55.4901 55.0024L57.8383 54.6857C58.0335 54.6646 58.1971 54.5274 58.2657 54.3426ZM51.9758 53.5087C51.5326 53.7146 51.0576 53.8201 50.5722 53.8201C49.29 53.8201 48.108 53.0707 47.5645 51.9096C47.1898 51.1073 47.1476 50.2048 47.4484 49.3709C47.7544 48.537 48.3612 47.872 49.1633 47.4973C49.6065 47.2862 50.0815 47.1806 50.5669 47.1806C51.8492 47.1806 53.0312 47.9353 53.5747 49.0965C54.3504 50.7537 53.6327 52.7329 51.9758 53.5087Z" fill="#103654"/>
<rect x="35.2905" y="29.875" width="2.29167" height="40.4861" fill="#92C9EC"/>
<rect x="63.5544" y="29.875" width="2.29167" height="40.4861" fill="#92C9EC"/>
</svg>
