<svg width="72" height="72" fill="none" xmlns="http://www.w3.org/2000/svg"><g clip-path="url(#clip0)"><path d="M21.6 11.798c2.08-4.93 4.88-8.97 8.88-11.556-6.72 1.132-12.72 3.88-17.68 8.081 2 1.778 4.16 3.394 6.48 4.687.56-.646 1.36-1.131 2.32-1.212zM0 32.242c.24-.08.48-.08.72-.08 1.6 0 2.96.97 3.52 2.424h13.44v-.08c0-5.173.56-10.83 1.84-16-.72-.647-1.2-1.617-1.28-2.668-2.8-1.535-5.44-3.393-7.76-5.575C4.8 16 1.04 23.677 0 32.243zM24.4 12.687c.8.727 1.36 1.778 1.36 2.909v.242c2.72.89 5.68 1.374 8.56 1.536V1.697c-4.32 1.535-7.6 5.576-9.92 10.99zM22.32 19.394c-1.12 4.768-1.68 10.02-1.68 15.111v.08H34.4V20.203c-3.44-.162-6.72-.566-9.84-1.778-.64.566-1.44.97-2.24.97zM48 15.192c.08 0 .16-.08.24-.08-2.32-6.465-6-11.395-10.88-13.657v15.919c3.68-.162 7.28-.97 10.64-2.182zM59.2 8.242C54.16 3.96 47.76.97 40.88 0h-.08c4.56 2.828 8 7.92 9.76 13.98 0 0 0 .08.08.08s.08-.08.16-.08c3.04-1.455 5.84-3.394 8.4-5.738zM48.88 17.94h.08v-.082c0 .081 0 .081-.08.081-3.68 1.374-7.52 2.182-11.6 2.263v14.303h11.76c.32-.889 1.12-1.697 2-2.101-.16-4.93-.88-9.94-2.16-14.465zM23.28 55.03l-.08.162v.08l.08-.08v-.162zM20.48 56.404c.08-.08.08-.08 0 0-1.76-5.818-2.72-12.525-2.88-18.828H4.16c-.56 1.373-1.92 2.262-3.44 2.262-.16 0-.4 0-.56-.08.88 8.888 4.96 16.808 11.04 22.626.72.646 1.44 1.293 2.16 1.858a23.35 23.35 0 0 1-2.16-1.94c2.8-2.343 5.92-4.363 9.28-5.898zM21.68 59.232v-.08s-.08 0-.08.08c0 0-.08 0-.08.081a34.83 34.83 0 0 0-7.84 5.172v-.081h-.24c4.8 4.04 10.72 6.95 17.12 7.596h.16c-4-2.748-7.28-7.273-9.04-12.768zM23.36 55.03h-.08.08c0 .081 0 .162.08.243 0-.081-.08-.162-.08-.243l.08.162c2.88-1.05 5.84-1.697 8.96-2.02.4-.89 1.12-1.697 2-2.101V37.576H20.56c.16 6.06 1.12 12.04 2.8 17.454zM32.4 56.242c-2.8.243-5.6.89-8.16 1.859v-.08c-.08 0-.16.08-.24.08 2.32 5.98 5.84 10.586 10.24 12.364l.08-.081V58.182c-.8-.404-1.52-1.05-1.92-1.94zM47.2 58.02c-2.56-.889-5.2-1.535-7.92-1.778-.4.89-1.12 1.617-2 1.94v12.121c4.32-1.778 7.68-6.384 9.92-12.283zM50.08 59.07s-.08 0 0 0c-2.24 5.738-5.44 10.506-9.6 12.85 6.72-.566 12.88-3.475 17.92-7.516-2.48-2.182-5.28-4.121-8.32-5.333zM37.28 37.576V51.15c.88.404 1.68 1.132 2.08 2.02 3.12.243 6.08.89 8.88 1.86 1.44-4.768 2.56-10.102 2.8-15.516-.88-.404-1.6-1.131-1.92-1.94H37.28zM53.92 39.596c-.32 5.737-1.28 11.475-2.88 16.646 3.52 1.536 6.72 3.718 9.6 6.223a36.455 36.455 0 0 0 11.28-24.89H56.08c-.4.89-1.2 1.617-2.16 2.02zM61.44 10.182l-.08.08a37.948 37.948 0 0 1-9.68 6.546h-.08c1.44 5.01 2.24 10.424 2.4 15.596a4.097 4.097 0 0 1 2.16 2.182H72c-.4-9.536-4.72-18.02-10.48-24.324l-.08-.08z" fill="#92C9EC"/><circle cx="2" cy="36" r="5" fill="#fff"/><circle cx="36" cy="55" r="5" fill="#fff"/><circle cx="50" cy="17" r="5" fill="#fff"/></g><defs><clipPath id="clip0"><path fill="#fff" d="M0 0h72v72H0z"/></clipPath></defs></svg>