<svg width="88" height="88" fill="none" xmlns="http://www.w3.org/2000/svg"><path d="M22.677 50H8.983C8.44 50 8 50.6 8 51.34v34.32c0 .74.44 1.34.983 1.34h13.694c.543 0 .983-.6.983-1.34V51.34c0-.74-.44-1.34-.983-1.34zM44.601 37H30.906c-.542 0-.982.602-.982 1.344v47.312c0 .742.44 1.344.982 1.344h13.695c.543 0 .983-.602.983-1.344V38.344c0-.742-.44-1.344-.983-1.344zM66.254 24H52.535c-.543 0-.984.6-.984 1.341v60.026c0 .74.44 1.34.984 1.34h13.72c.543 0 .984-.6.984-1.34V25.34c0-.74-.441-1.341-.985-1.341zM7.996 37.83C22.8 36.148 50.764 21.095 57.81 9.506m0 0v5.474m0-5.474l-5.416 2.098" stroke="#96CBED"/></svg>