<svg width="88" height="88" fill="none" xmlns="http://www.w3.org/2000/svg"><path d="M73.818 59.307c-1.037-.99-2.66-1.519-3.95-.873l-7.174 3.865c.55.696.98 1.479 1.275 2.315l.546-.288 9.303-5.019zM60.353 58.158l-.025.014-2.255 1.224c1.09.239 2.12.702 3.021 1.36l4.73-2.547a5.38 5.38 0 00-5.471-.051z" stroke="#96CBED" stroke-linejoin="round"/><path d="M49.21 78.355c3.382.604 6.869.12 9.957-1.384l23.564-16.178a4.621 4.621 0 00-5.561-.891l-11.662 6.29-1.104.581c.01.169.018.338.018.51 0 .584-.474 1.057-1.058 1.057h-.048l-8.049-.365a38.775 38.775 0 00-7.057.326 1.058 1.058 0 01-.29-2.095 40.956 40.956 0 017.443-.344l6.84.309a5.968 5.968 0 00-5.853-4.846h-9.437A12.345 12.345 0 0141.57 60.1l-.973-.47a14.586 14.586 0 00-15.146 1.457l-2.317 2.062a10.272 10.272 0 01-3.863 2.161V82l11.144-5.599a6.308 6.308 0 014.647-.652l14.15 2.606z" stroke="#96CBED" stroke-linejoin="round"/><path d="M19.401 42.202c.76.273 3.43 1.331 10.866 1.331s10.5-1.058 11.26-1.331c.125-1.937 1.044-4.422-4.552-6.522-1.041-.39-3.873-.986-3.873-2.72 0-.55.695-.595 1.017-1.203.322-.609.667-2.287.683-2.505.29-.11.957-.485 1.07-1.786.077-.889.225-1.934-.836-2.013.836-4.183-.234-6.599-4.77-6.599-1.184 0-2.315.218-2.975 1.155-.66.936-.848.256-1.399 1.019-.573.793-.16 3.38 0 4.425-1.061.079-.913 1.125-.836 2.013.112 1.301.78 1.677 1.07 1.786.016.218.243 1.937.565 2.546.321.608.863.66.863 1.208 0 1.735-2.56 2.283-3.601 2.674-5.596 2.1-4.677 4.585-4.552 6.522zM52.392 42.202c.76.273 3.43 1.331 10.866 1.331s10.5-1.058 11.26-1.331c.125-1.937 1.044-4.422-4.552-6.522-1.04-.39-3.873-.986-3.873-2.72 0-.55.696-.595 1.017-1.203.322-.609.667-2.287.683-2.505.29-.11.958-.485 1.07-1.786.077-.889.225-1.934-.836-2.013.836-4.183-.234-6.599-4.77-6.599-1.184 0-2.315.218-2.975 1.155-.659.936-.848.256-1.399 1.019-.573.793-.16 3.38 0 4.425-1.061.079-.913 1.125-.836 2.013.113 1.301.78 1.677 1.07 1.786.016.218.243 1.937.565 2.546.322.608.863.66.863 1.208 0 1.735-2.56 2.283-3.601 2.674-5.596 2.1-4.677 4.585-4.552 6.522z" fill="#fff" stroke="#92C9EC"/><path d="M26.213 48.232c1.395.503 6.29 2.443 19.93 2.443 13.639 0 19.258-1.94 20.653-2.443.23-3.551 1.916-8.11-8.349-11.962-1.91-.717-7.104-1.808-7.104-4.99 0-1.006 1.276-1.09 1.865-2.206.59-1.116 1.224-4.194 1.253-4.594.531-.2 1.756-.89 1.963-3.276.14-1.63.413-3.548-1.534-3.691 1.534-7.673-.429-12.105-8.748-12.105-2.172 0-4.248.4-5.457 2.118-1.21 1.717-1.556.47-2.566 1.869-1.051 1.455-.295 6.2 0 8.118-1.947.143-1.675 2.062-1.534 3.691.206 2.387 1.431 3.075 1.962 3.276.03.4.446 3.553 1.036 4.67.59 1.116 1.583 1.21 1.583 2.215 0 3.183-4.695 4.188-6.604 4.905-10.265 3.852-8.579 8.41-8.349 11.962z" fill="#fff" stroke="#92C9EC"/></svg>