<svg width="76" height="72" viewBox="0 0 76 72" fill="none" xmlns="http://www.w3.org/2000/svg">
<path d="M4.5 47.5H0V14.5C1.60072 12.8993 3.77177 12 6.03554 12H13.6228C18.0515 12 22.3247 13.6326 25.6251 16.5857L51.4785 39.7176C55.3032 43.1397 55.4964 49.0625 51.9027 52.7266L40.2128 64.6458C36.155 68.7832 29.5832 69.0628 25.1887 65.285L4.5 47.5Z" fill="#92C9EC"/>
<path d="M74 11V8.25336L71.386 9.09658L56.5922 13.8688L39.6191 6.72221C38.2455 6.14386 36.692 6.17018 35.3388 6.79474L22.5473 12.6985C18.5709 14.5338 16.8457 19.253 18.7008 23.2201C20.5429 27.1593 25.2216 28.8697 29.1699 27.0474L37.1201 23.3781L53.811 38.9046C55.8447 40.7964 57 43.4489 57 46.2265V48V50.7079L59.5882 49.9116L72.5882 45.9116L74 45.4771V44V11Z" fill="#92C9EC" stroke="white" stroke-width="4"/>
</svg>
