<svg width="72" height="72" fill="none" xmlns="http://www.w3.org/2000/svg"><path fill="#fff" d="M0 0h72v72H0z"/><path d="M6.699 58.041c7.678 2.858 10.536-4.275 14.401-10.032 1.125-1.661 2.697-3.031 4.566-3.98a13.458 13.458 0 0 1 6.113-1.437h8.442c2.139-.006 4.243.489 6.113 1.437 1.87.949 3.441 2.319 4.566 3.98 3.865 5.757 6.723 12.89 14.401 10.032 6.609-2.46 8.312-13.824 5.18-24.66C66.569 19.85 53.31 11.615 36 11.615c-17.311 0-30.568 8.227-34.482 21.766-3.132 10.836-1.429 22.2 5.18 24.66ZM62.22 27.957c.738 0 1.458.2 2.071.574a3.49 3.49 0 0 1 1.373 1.527 3.13 3.13 0 0 1 .212 1.967 3.323 3.323 0 0 1-1.02 1.742c-.521.476-1.186.8-1.909.932a4.058 4.058 0 0 1-2.153-.194 3.675 3.675 0 0 1-1.673-1.253 3.197 3.197 0 0 1-.628-1.891c0-.903.393-1.769 1.092-2.407.699-.638 1.647-.997 2.635-.997Zm-7.476-6.826c.737 0 1.458.2 2.07.573a3.49 3.49 0 0 1 1.374 1.528 3.13 3.13 0 0 1 .212 1.966 3.323 3.323 0 0 1-1.02 1.743c-.522.476-1.186.8-1.909.931a4.057 4.057 0 0 1-2.153-.194 3.675 3.675 0 0 1-1.673-1.253 3.197 3.197 0 0 1-.628-1.891c0-.903.393-1.768 1.092-2.406.699-.639 1.647-.997 2.635-.997Zm0 13.653c.737 0 1.458.2 2.07.574a3.49 3.49 0 0 1 1.374 1.527 3.13 3.13 0 0 1 .212 1.966 3.323 3.323 0 0 1-1.02 1.743c-.522.476-1.186.8-1.909.931a4.058 4.058 0 0 1-2.153-.193 3.675 3.675 0 0 1-1.673-1.254 3.198 3.198 0 0 1-.628-1.89c0-.903.393-1.769 1.092-2.407.699-.638 1.647-.997 2.635-.997Zm-7.476-6.827c.737 0 1.458.2 2.07.574.614.374 1.091.905 1.374 1.527a3.13 3.13 0 0 1 .212 1.967 3.323 3.323 0 0 1-1.02 1.742c-.522.476-1.186.8-1.909.932a4.06 4.06 0 0 1-2.153-.194 3.675 3.675 0 0 1-1.673-1.253 3.197 3.197 0 0 1-.628-1.891c0-.447.096-.89.284-1.303.187-.413.461-.788.807-1.104a3.77 3.77 0 0 1 1.21-.738 4.038 4.038 0 0 1 1.426-.259ZM20.311 38.801c0 .379-.084.754-.248 1.102a2.804 2.804 0 0 1-.705.923c-.301.26-.658.462-1.047.593-.39.131-.804.188-1.219.168a3.29 3.29 0 0 1-2.081-.951 2.754 2.754 0 0 1-.81-1.993v-2.418c0-.128.027-.255.08-.374a.976.976 0 0 1 .233-.317l2.375-2.168a.562.562 0 0 1 .735 0l2.374 2.167c.2.184.313.432.313.691v2.577Zm2.272-10.23h2.82c.416 0 .827.077 1.208.227.381.15.725.369 1.01.644.286.275.508.6.65.956.144.356.206.735.184 1.113a2.815 2.815 0 0 1-1.042 1.9 3.354 3.354 0 0 1-2.182.74h-2.648c-.284 0-.556-.103-.757-.287l-2.374-2.168a.455.455 0 0 1-.153-.335c0-.126.055-.247.153-.336l2.374-2.168c.1-.09.217-.163.347-.212.13-.049.27-.074.41-.074ZM14.2 23.92c0-.38.085-.754.249-1.102.164-.349.404-.663.705-.923.301-.261.657-.463 1.047-.594.39-.13.804-.188 1.218-.168a3.29 3.29 0 0 1 2.082.951c.537.547.826 1.26.81 1.993v2.419c0 .26-.113.508-.313.691l-2.374 2.168a.529.529 0 0 1-.368.139.564.564 0 0 1-.367-.139l-2.375-2.168a.976.976 0 0 1-.232-.317.904.904 0 0 1-.082-.374V23.92Zm-5.092 4.65h2.821c.14 0 .28.025.41.074.13.05.248.121.347.212l2.375 2.168c.097.09.152.21.152.336a.455.455 0 0 1-.152.335l-2.375 2.168c-.2.184-.473.287-.757.287H9.281a3.354 3.354 0 0 1-2.182-.74 2.815 2.815 0 0 1-1.042-1.9 2.57 2.57 0 0 1 .183-1.113c.143-.356.364-.681.65-.956.285-.275.63-.495 1.01-.644.382-.15.793-.227 1.208-.227Z" fill="#92C9EC"/></svg>