<svg width="101" height="100" viewBox="0 0 101 100" fill="none" xmlns="http://www.w3.org/2000/svg">
<path fill-rule="evenodd" clip-rule="evenodd" d="M50.8247 100C78.3799 100 100.718 77.6142 100.718 50C100.718 22.3858 78.3799 0 50.8247 0C23.2695 0 0.931641 22.3858 0.931641 50C0.931641 77.6142 23.2695 100 50.8247 100Z" fill="white"/>
<path d="M48.3232 25.3727C49.7351 22.9129 53.2649 22.9129 54.6768 25.3727L75.3262 61.3475L78.5031 66.8821C79.915 69.3419 78.1501 72.4167 75.3262 72.4167H27.6738C24.8499 72.4167 23.085 69.3419 24.4969 66.8821L48.3232 25.3727Z" fill="#92C9EC"/>
<path d="M49.9722 36.5139H53.0277L52.6458 59.4306H50.3541L49.9722 36.5139Z" fill="#103654"/>
<path d="M53.7918 64.7777C53.7918 66.0434 52.7658 67.0694 51.5002 67.0694C50.2345 67.0694 49.2085 66.0434 49.2085 64.7777C49.2085 63.5121 50.2345 62.4861 51.5002 62.4861C52.7658 62.4861 53.7918 63.5121 53.7918 64.7777Z" fill="#103654"/>
</svg>
