<svg width="88" height="88" viewBox="0 0 88 88" fill="none" xmlns="http://www.w3.org/2000/svg">
<path d="M0.0194179 84.0458C2.11754 80.7262 4.08361 77.6157 6.05702 74.4906C3.43437 71.2553 1.64436 67.6643 0.698006 63.6515C-2.79397 48.8583 7.19411 33.999 22.2184 31.6662C36.9383 29.3773 50.433 39.3874 52.5384 54.1476C54.6256 68.7978 43.7902 82.5052 29.03 83.9174C23.9827 84.4016 19.2033 83.5139 14.6439 81.3168C14.2037 81.104 13.5875 81.0857 13.096 81.1884C8.92542 82.0724 4.7622 83.0041 0.598969 83.9248C0.488927 83.9504 0.375218 83.9761 0.030422 84.0531L0.0194179 84.0458ZM26.9428 66.4759C26.7484 65.7203 26.5724 65.049 26.3963 64.3741C25.1749 59.723 23.9534 55.0756 22.7283 50.4245C22.4091 49.2067 22.0093 48.9096 20.7182 48.906C20.1093 48.906 19.5004 48.906 18.8878 48.906C17.4096 48.906 17.0685 49.1664 16.7017 50.5566C15.3885 55.5598 14.0754 60.563 12.7622 65.5662C12.6888 65.845 12.6448 66.1274 12.5825 66.4429H15.5389C16.0561 64.4988 16.5733 62.5731 17.0942 60.6144C18.6531 60.6144 20.146 60.6437 21.6389 60.5997C22.2514 60.5813 22.4678 60.7941 22.6036 61.381C22.952 62.8922 23.3628 64.3924 23.8103 65.8743C23.8837 66.1201 24.2505 66.4209 24.5036 66.4429C25.2849 66.5162 26.0772 66.4685 26.9428 66.4685V66.4759ZM30.0533 66.4172H40.1845V63.5158H36.6705V51.8037H40.1881V48.9646H30.09V51.8697H33.604V63.5855H30.0533V66.4209V66.4172Z" fill="#92C9EC"/>
<path d="M55.4728 54.0705C57.3398 54.3052 59.0528 54.6464 60.7805 54.7161C64.7199 54.8774 68.476 54.0485 72.001 52.2621C72.7163 51.899 73.3838 51.789 74.1871 51.9797C77.1473 52.6766 80.122 53.3039 83.3169 54.0081C82.8034 53.1938 82.3962 52.5409 81.9854 51.8917C81.2518 50.7326 80.5145 49.5771 79.7809 48.418C79.0693 47.2956 79.0876 46.9325 79.9093 45.8797C83.4233 41.3827 85.1069 36.2695 84.9712 30.5767C84.7034 19.147 75.4379 9.16631 64.0817 8.05489C51.3242 6.80409 40.1844 15.4863 38.343 28.1301C38.2183 28.9957 38.167 29.8724 38.0753 30.8151C37.2463 30.507 36.4577 30.2686 35.7314 29.9091C35.515 29.8027 35.3426 29.3405 35.3646 29.0581C35.7864 23.7174 37.5544 18.8463 40.9914 14.7381C48.1697 6.16218 57.4535 3.12137 68.1569 5.87241C78.9409 8.64544 85.47 15.9779 87.5425 26.9453C88.8923 34.0833 87.1977 40.6858 83.0198 46.628C82.6567 47.1452 82.6677 47.4753 82.9978 47.9815C84.509 50.3071 85.9726 52.6656 87.4691 55.0022C87.8909 55.6587 88.1844 56.3117 87.6745 57.0269C87.1793 57.7202 86.4971 57.7349 85.7121 57.5551C81.9707 56.7005 78.222 55.8642 74.4622 55.0829C73.89 54.9655 73.1784 55.0278 72.6466 55.2626C67.4416 57.5441 62.0753 58.2741 56.4705 57.1663C55.8946 57.0526 55.6195 56.8729 55.6232 56.2493C55.6268 55.5267 55.5278 54.8041 55.4728 54.0705Z" fill="#103654"/>
<path d="M49.8718 23.945V21.1206H73.2042V23.945H49.8718Z" fill="#103654"/>
<path d="M49.8825 29.9019H73.2076V32.7336H49.8825V29.9019Z" fill="#103654"/>
<path d="M55.7296 41.5186V38.6979H73.2005V41.5186H55.7296Z" fill="#103654"/>
<path d="M21.6203 57.658H17.8789C18.3667 55.78 18.8326 53.9606 19.3278 52.1486C19.3644 52.0129 19.6432 51.8478 19.7899 51.8625C19.933 51.8772 20.1237 52.0899 20.1677 52.2513C20.6593 54.034 21.1288 55.824 21.6166 57.6543L21.6203 57.658Z" fill="#92C9EC"/>
</svg>
