<svg width="72" height="72" fill="none" xmlns="http://www.w3.org/2000/svg"><path fill-rule="evenodd" clip-rule="evenodd" d="M40.986 66.605a31.009 31.009 0 0025.73-26.348l.99.137a32.009 32.009 0 01-26.56 27.198l-.16-.987z" fill="#92C9EC"/><path fill-rule="evenodd" clip-rule="evenodd" d="M40.126 67.692l3.378-7.617.914.405-2.973 6.703 6.703 2.973-.406.914-7.616-3.378zM5.395 40.985a31.009 31.009 0 0026.349 25.73l-.138.99a32.009 32.009 0 01-27.198-26.56l.987-.16z" fill="#92C9EC"/><path fill-rule="evenodd" clip-rule="evenodd" d="M4.309 40.125l7.616 3.378-.405.914-6.703-2.973-2.972 6.703-.915-.405 3.379-7.617zM31.014 5.395a31.009 31.009 0 00-25.73 26.348l-.99-.137a32.009 32.009 0 0126.56-27.198l.16.987z" fill="#92C9EC"/><path fill-rule="evenodd" clip-rule="evenodd" d="M31.875 4.309l-3.379 7.616-.914-.405 2.973-6.703-6.703-2.973.406-.914 7.617 3.379zM66.605 31.015a31.009 31.009 0 00-26.348-25.73l.137-.99a32.01 32.01 0 0127.198 26.559l-.987.16z" fill="#92C9EC"/><path fill-rule="evenodd" clip-rule="evenodd" d="M67.692 31.875l-7.617-3.379.405-.914 6.703 2.973 2.973-6.703.914.406-3.378 7.617zM14.935 47.525a.5.5 0 01.683.185c.327.57.678 1.125 1.05 1.664a.5.5 0 11-.822.569 24.492 24.492 0 01-1.095-1.735.5.5 0 01.184-.683zm4.96 6.285a.5.5 0 01.705-.05 23.498 23.498 0 003.177 2.319.5.5 0 01-.52.854 24.477 24.477 0 01-3.312-2.418.5.5 0 01-.05-.705zm8.633 5.01a.5.5 0 01.624-.333c.627.19 1.262.356 1.905.494a.5.5 0 11-.21.978 24.526 24.526 0 01-1.987-.516.5.5 0 01-.332-.623zM24.475 14.935a.5.5 0 01-.185.683c-.57.327-1.125.678-1.664 1.05a.5.5 0 11-.569-.822 24.47 24.47 0 011.735-1.095.5.5 0 01.683.184zm-6.285 4.96a.5.5 0 01.05.705 23.533 23.533 0 00-2.318 3.177.5.5 0 11-.854-.52 24.5 24.5 0 012.417-3.312.5.5 0 01.705-.05zm-5.01 8.633a.5.5 0 01.333.624c-.19.627-.355 1.262-.494 1.905a.5.5 0 11-.977-.21c.144-.67.316-1.333.515-1.986a.5.5 0 01.624-.333zM57.065 24.475a.5.5 0 01-.683-.185 23.478 23.478 0 00-1.05-1.663.5.5 0 01.822-.57c.388.562.754 1.14 1.095 1.735a.5.5 0 01-.184.683zm-4.96-6.285a.5.5 0 01-.705.05 23.53 23.53 0 00-3.176-2.318.5.5 0 11.52-.854 24.535 24.535 0 013.31 2.417.5.5 0 01.051.705zm-8.633-5.01a.5.5 0 01-.624.333 23.554 23.554 0 00-1.905-.494.5.5 0 11.21-.977c.67.144 1.333.316 1.987.515a.5.5 0 01.332.624zM47.526 57.065a.5.5 0 01.184-.682 23.49 23.49 0 001.664-1.051.5.5 0 01.569.822c-.562.389-1.14.754-1.735 1.096a.5.5 0 01-.682-.185zm6.284-4.96a.5.5 0 01-.05-.705 23.498 23.498 0 002.319-3.176.5.5 0 01.854.52 24.477 24.477 0 01-2.418 3.311.5.5 0 01-.705.05zm5.01-8.633a.5.5 0 01-.333-.623c.19-.627.356-1.263.494-1.905a.5.5 0 11.978.21c-.145.67-.316 1.332-.515 1.986a.5.5 0 01-.624.332z" fill="#92C9EC"/></svg>