<svg width="131" height="130" fill="none" xmlns="http://www.w3.org/2000/svg"><path d="M64.288 118.898c2.447 3.291 7.29 9.822 14.177 9.619 6.885-.202 12.573-7.51 13.67-10.632 1.94.928 8.607 3.291 16.708-1.012 8.408-4.467 7.679-15.274 6.075-20.506 2.869-.506 8.962-3.038 10.38-9.113 1.417-6.076-3.46-11.814-6.076-13.924 2.616-1.687 7.848-7.037 7.848-14.936 0-7.898-8.101-12.404-12.152-13.67 1.013-2.7 2.431-9.569 0-15.442-2.43-5.873-10.126-7.173-13.67-7.088 0-1.941-.111-7.2-3.29-10.38-3.545-3.544-9.705-2.531-12.912-1.518-1.603-2.448-5.974-7.342-10.632-7.342-4.658 0-8.691 3.544-10.126 5.316m0 110.628c-2.025 3.206-7.696 9.619-14.176 9.619-8.101 0-12.236-7.425-14.177-10.632-3.882 1.181-12.961 2.937-19.24-3.544-6.278-6.481-4.472-14.683-2.784-17.974m50.377 22.531v-6.835m0-103.793c-1.519-1.772-5.822-5.316-10.885-5.316-5.064 0-9.198 4.894-10.633 7.341M64.288 8.27v14.683M13.911 96.367c-3.122-.253-9.721-2.43-11.139-9.113C1.354 80.57 5.726 75.187 8.088 73.33m5.823 23.037 5.822-5.822M8.088 73.33C5.726 71.727 1 66.495 1 58.394c0-8.1 9.114-12.488 12.91-13.67-1.434-3.206-2.784-11.138.507-16.708 2.947-4.987 8.86-5.4 12.151-5.822.253-2.279 1.52-7.544 4.557-10.38 3.038-2.835 9.03-2.194 11.645-1.518M8.088 73.33l9.62 1.013M42.77 10.296l1.266 6.328m-5.063 58.478c-1.857 1.604-6.222 5.063-3.544 11.392 2.227 5.266 9.113 5.148 11.898 4.05m-20.759-25.82c1.48-1.62 4.336-3.807 7.848-4.752m17.72 13.358c.423-2.278-.607-7.898-8.1-12.15-3.385-1.922-6.726-1.987-9.62-1.208M23.277 46.243c2.026.76 3.859 1.624 6.582 4.557 3.291 3.544 3.966 7.38 4.557 9.172m14.177-22.59c2.447.423 6.92 3.292 6.075 7.342-1.012 4.86-4.472 6.076-6.075 6.076M32.39 29.282c.928 1.012 3.544 2.987 6.582 2.785 3.797-.254 6.075-5.317 9.62-5.823 2.835-.405 5.906.338 7.088.76m8.607 78.224h12.151m-12.151 0V79.406m0 25.822v6.835m0-32.657h14.177l9.113 3.291m-23.29-3.291V63.204m0 0h32.91m-32.91 0V47.256m0 0h14.177l9.113-2.532m-23.29 2.532V22.953m0 0h12.151m-34.175 80.249c1.856-1.012 6.214-2.278 9.113-2.278 4.05 0 12.911 2.531 12.911 11.139" stroke="#92C9EC"/><circle cx="81.202" cy="22.905" r="4.514" stroke="#92C9EC"/><circle cx="81.202" cy="105.432" r="4.514" stroke="#92C9EC"/><path d="M103.648 84.612a8.096 8.096 0 1 1-16.19 0 8.096 8.096 0 0 1 16.19 0ZM103.648 41.635a8.095 8.095 0 1 1-16.191 0 8.096 8.096 0 0 1 16.191 0ZM113.676 63.124a8.096 8.096 0 1 1-16.192 0 8.096 8.096 0 0 1 16.192 0Z" stroke="#92C9EC"/><circle cx="105.888" cy="63.522" fill="#92C9EC" r="2.955"/><circle cx="95.544" cy="84.204" r="2.955" fill="#92C9EC"/><circle cx="95.544" cy="41.363" r="2.955" fill="#92C9EC"/></svg>