<svg width="89" height="133" fill="none" xmlns="http://www.w3.org/2000/svg"><path d="M79 27h-7V17h7v10zM73.5 29.5h4v4h-4z" stroke="#92C9EC"/><circle cx="75" cy="18" r="7" fill="#fff"/><path stroke="#92C9EC" d="M10.423 70.28l8.563-7.24 16.352 19.34-8.563 7.24zM58.508 20.398l-.21-.011-.156.143-38.584 35.734-5.803-7.403 38.487-35.644 23.223 1.477a3.291 3.291 0 0 1-.381 6.571l-16.576-.867zM21.5 118.5h31v14h-31z"/><circle cx="37.5" cy="92.5" r="10.5" stroke="#fff" stroke-width="4"/><path d="M29.5 92.5a8 8 0 1 1 16 0v26h-16v-26z" stroke="#92C9EC"/><circle cx="37.5" cy="92.5" r="4" stroke="#92C9EC"/><circle cx="9.5" cy="58.5" r="10.5" stroke="#fff" stroke-width="4"/><circle cx="9.5" cy="58.5" r="8" stroke="#92C9EC"/><circle cx="9.5" cy="58.5" r="4" stroke="#92C9EC"/><circle cx="75" cy="18" r="1.5" stroke="#92C9EC"/><path stroke="#92C9EC" d="M67.5 35.5h15v4h-15zM81.941 65.505H78.51v-7.002h3V54.5h-2.008v-3.005h4.006v-2.997h-4.991v-3.993h6.365l3.198 5.03-6.139 15.97zM69.082 65.505h3.431v-7.002h-3V54.5h2.007v-3.004h-4.005v-2.998h4.991v-3.993h-6.365l-3.199 5.03 6.14 15.97z"/></svg>