<svg width="72" height="72" viewBox="0 0 72 72" fill="none" xmlns="http://www.w3.org/2000/svg">
<rect width="72" height="72" rx="2" fill="#92C9EC"/>
<path d="M44.4223 34.2111L30.8944 27.4472C29.5646 26.7823 28 27.7493 28 29.2361V42.7639C28 44.2507 29.5646 45.2177 30.8944 44.5528L44.4223 37.7889C45.8964 37.0518 45.8964 34.9482 44.4223 34.2111Z" fill="#103654"/>
<rect x="6" y="6" width="8" height="8" rx="2" fill="white"/>
<rect x="59" y="6" width="8" height="8" rx="2" fill="white"/>
<rect x="6" y="19" width="8" height="8" rx="2" fill="white"/>
<rect x="59" y="19" width="8" height="8" rx="2" fill="white"/>
<rect x="6" y="32" width="8" height="8" rx="2" fill="white"/>
<rect x="59" y="32" width="8" height="8" rx="2" fill="white"/>
<rect x="6" y="45" width="8" height="8" rx="2" fill="white"/>
<rect x="59" y="45" width="8" height="8" rx="2" fill="white"/>
<rect x="6" y="58" width="8" height="8" rx="2" fill="white"/>
<rect x="59" y="58" width="8" height="8" rx="2" fill="white"/>
</svg>
