<svg xmlns="http://www.w3.org/2000/svg" width="69" height="57" viewBox="0 0 69 57"><title>icon-e-commerce</title><path d="M32,46H54v6H32Z" transform="translate(0 0)" fill="#92c9ec"/><path d="M68.8,11.81,60.63,37.23c-.41,1.18-.86,2.06-3.16,2.06H27l.3,2.16L21.43,44,13.06,6H2.12C.73,6,0,5.66,0,4.38V2A1.85,1.85,0,0,1,2.12,0h13a3.3,3.3,0,0,1,3.29,2.85L19.55,8h46.1a3.55,3.55,0,0,1,2.92,1.27A2.65,2.65,0,0,1,68.8,11.81Z" transform="translate(0 0)" fill="#92c9ec"/><path d="M27,57a8,8,0,1,0-8-8A8,8,0,0,0,27,57Zm0-4a4,4,0,1,0-4-4A4,4,0,0,0,27,53Z" transform="translate(0 0)" fill="#103654" fill-rule="evenodd"/><path d="M58,57a8,8,0,1,0-8-8A8,8,0,0,0,58,57Zm0-4a4,4,0,1,0-4-4A4,4,0,0,0,58,53Z" transform="translate(0 0)" fill="#103654" fill-rule="evenodd"/></svg>
