<svg width="73" height="72" fill="none" xmlns="http://www.w3.org/2000/svg"><mask id="a" fill="#fff"><path fill-rule="evenodd" clip-rule="evenodd" d="M60.803 13H45.515l11.343 23-11.343 23h15.288l11.342-23-11.342-23z"/></mask><path d="M45.515 13v-1h-1.608l.711 1.442.897-.442zm15.288 0l.897-.442-.275-.558h-.622v1zm-3.945 23l.897.442.218-.442-.218-.442-.897.442zM45.515 59l-.897-.442L43.907 60h1.608v-1zm15.288 0v1h.622l.275-.558-.897-.442zm11.342-23l.897.442.218-.442-.218-.442-.897.442zm-26.63-22h15.288v-2H45.515v2zm12.24 21.558l-11.343-23-1.794.884 11.343 23 1.794-.884zm-1.794 0l-11.343 23 1.794.884 11.343-23-1.794-.884zM45.515 60h15.288v-2H45.515v2zm16.185-.558l11.342-23-1.794-.884-11.342 23 1.794.884zm-1.794-46l11.342 23 1.794-.884-11.342-23-1.794.884z" fill="#92C9EC" mask="url(#a)"/><mask id="b" fill="#fff"><path fill-rule="evenodd" clip-rule="evenodd" d="M38.118 13H22.83l11.343 23L22.83 59h15.288L49.46 36 38.118 13z"/></mask><path d="M22.83 13v-1h-1.608l.711 1.442.897-.442zm15.288 0l.897-.442L38.74 12h-.622v1zm-3.945 23l.896.442.219-.442-.218-.442-.897.442zM22.83 59l-.897-.442-.71 1.442h1.607v-1zm15.288 0v1h.622l.275-.558-.897-.442zM49.46 36l.897.442.218-.442-.218-.442-.897.442zM22.83 14h15.288v-2H22.83v2zm12.24 21.558l-11.343-23-1.794.884 11.343 23 1.793-.884zm-1.794 0l-11.343 23 1.794.884 11.342-23-1.793-.884zM22.83 60h15.288v-2H22.83v2zm16.185-.558l11.342-23-1.794-.884-11.342 23 1.794.884zm-1.794-46l11.343 23 1.793-.884-11.342-23-1.794.884z" fill="#92C9EC" mask="url(#b)"/><mask id="c" fill="#fff"><path fill-rule="evenodd" clip-rule="evenodd" d="M15.433 13H.145l11.343 23L.145 59h15.288l11.342-23-11.342-23z"/></mask><path d="M.145 13v-1h-1.608l.711 1.442L.145 13zm15.288 0l.897-.442-.275-.558h-.622v1zm-3.945 23l.897.442.218-.442-.218-.442-.897.442zM.145 59l-.897-.442-.71 1.442H.144v-1zm15.288 0v1h.622l.275-.558-.897-.442zm11.342-23l.897.442.218-.442-.218-.442-.897.442zM.145 14h15.288v-2H.145v2zm12.24 21.558l-11.343-23-1.794.884 11.343 23 1.794-.884zm-1.794 0l-11.343 23 1.794.884 11.343-23-1.794-.884zM.145 60h15.288v-2H.145v2zm16.185-.558l11.342-23-1.794-.884-11.342 23 1.794.884zm-1.794-46l11.342 23 1.794-.884-11.342-23-1.794.884z" fill="#92C9EC" mask="url(#c)"/></svg>