<svg width="73" height="72" fill="none" xmlns="http://www.w3.org/2000/svg"><rect x="18" y="1" width="38" height="70" rx="3" fill="#92C9EC" stroke="#92C9EC" stroke-width="2"/><circle cx="37" cy="67" r="2" fill="#fff"/><path stroke="#92C9EC" stroke-width="2" d="M33 6h8M43 6h3"/><path fill="#fff" d="M17 9h40v53H17z"/><path stroke="#fff" stroke-width="2" stroke-linecap="round" d="M34 5h6M44 5h1"/><path stroke="#92C9EC" stroke-width="3" d="M55.5 62V9M18.5 62V9"/><circle cx="18.5" cy="34.5" r="8.5" fill="#fff"/><path d="M34.495 37.04l-.017-3.881c-.013-.393-.22-.747-.57-.917l-4.132-2.132 1.368-4.437a1.047 1.047 0 00-.252-1.044l-2.765-2.737a1.048 1.048 0 00-1.053-.252l-4.424 1.42-2.165-4.106a1.03 1.03 0 00-.922-.554l-3.891.02a1.04 1.04 0 00-.92.56l-2.119 4.139-4.45-1.376a1.021 1.021 0 00-1.04.263L4.407 24.77a1.016 1.016 0 00-.245 1.04l1.424 4.435-4.115 2.168a1.044 1.044 0 00-.554.923l.02 3.891c0 .387.217.738.557.91l4.142 2.13-1.378 4.44c-.106.37-.011.778.262 1.041l2.765 2.736c.277.274.677.37 1.054.253l4.423-1.421 2.169 4.116c.181.342.535.553.922.555l3.887-.03a1.052 1.052 0 00.92-.56l2.119-4.14 4.45 1.376c.364.12.767.015 1.04-.262l2.736-2.765c.267-.264.368-.677.245-1.04l-1.42-4.425 4.11-2.178c.346-.172.554-.535.555-.922zM22.34 39.777a6.516 6.516 0 01-2.375 1.527 6.546 6.546 0 01-6.839-1.477 6.501 6.501 0 01-1.938-4.599 6.497 6.497 0 011.888-4.617 6.374 6.374 0 012.37-1.537 6.555 6.555 0 016.843 1.488 6.524 6.524 0 01.051 9.215z" fill="#103654"/></svg>