<svg width="101" height="100" viewBox="0 0 101 100" fill="none" xmlns="http://www.w3.org/2000/svg">
<path fill-rule="evenodd" clip-rule="evenodd" d="M50.8247 100C78.3799 100 100.718 77.6142 100.718 50C100.718 22.3858 78.3799 0 50.8247 0C23.2695 0 0.931641 22.3858 0.931641 50C0.931641 77.6142 23.2695 100 50.8247 100Z" fill="white"/>
<path d="M43.3793 64.7128L34.3205 69.2181C33.2374 69.7568 31.9222 69.3677 31.3064 68.3265C30.6498 67.2161 31.0309 65.7829 32.1525 65.1454L39.7192 60.8446L44.9806 51.5154L46.1244 43.3239L41.0917 44.0066L34.6133 49.7141C33.7535 50.4715 32.4537 50.4322 31.6413 49.6241C30.7943 48.7817 30.7852 47.4139 31.6209 46.5602L38.5754 39.4557L47.2682 36.9528H57.1048L64.1963 31.7193L68.3744 25.2144C68.9784 24.2741 70.2194 23.9824 71.179 24.5551C72.1342 25.1252 72.4687 26.3478 71.9367 27.3247L66.9414 36.4977C64.5776 38.2422 59.5754 41.9587 58.4773 42.8688C58.2943 47.7837 57.4861 51.743 57.1048 53.1082V63.8027L50.0522 75.1048C49.3987 76.152 48.0206 76.4723 46.9722 75.8206C45.9779 75.2024 45.6281 73.9224 46.1699 72.8845L51.3858 62.8925L50.0133 57.4315L43.3793 64.7128Z" fill="#92C9EC"/>
<circle cx="53.0279" cy="27.3472" r="5.34722" fill="#92C9EC"/>
</svg>
