<svg width="72" height="72" fill="none" xmlns="http://www.w3.org/2000/svg"><g clip-path="url(#clip0)"><path d="M62.641 30.814l6.412 10.903a3 3 0 01-1.713 4.39l-5.153 1.568v8.865c-.076 2.617-1.722 7.853-7.692 7.853h-7.38V72H19.19v-5.153C19.19 53.105 5.94 50 5.94 36.732c0-26.215 12.438-32.641 31.197-32.641 18.94 0 25.072 16.097 25.072 25.056 0 .585.137 1.163.433 1.667z" fill="#92C9EC"/><circle r="9" transform="matrix(-1 0 0 1 17.377 18)" fill="#fff"/><path d="M.262 14.548l3.895-2.028-1.32-4.2a1.613 1.613 0 01.403-1.626l2.848-2.848a1.613 1.613 0 011.625-.402l4.2 1.32L13.942.868c.274-.531.821-.87 1.433-.87h4.039c.595 0 1.159.339 1.432.87l2.028 3.894 4.2-1.32a1.577 1.577 0 011.61.403l2.864 2.848c.435.435.58 1.063.402 1.626l-1.32 4.2 3.895 2.028c.531.273.87.82.87 1.432v4.04c0 .595-.339 1.158-.87 1.432l-3.894 2.027 1.32 4.184c.177.58.032 1.207-.403 1.626l-2.864 2.864a1.577 1.577 0 01-1.61.403l-4.2-1.32-2.028 3.895c-.273.53-.837.869-1.432.869h-4.04a1.605 1.605 0 01-1.432-.87l-2.027-3.894-4.2 1.32a1.613 1.613 0 01-1.626-.403L3.24 29.29a1.596 1.596 0 01-.403-1.626l1.32-4.184-3.895-2.027a1.623 1.623 0 01-.869-1.433V15.98c0-.611.338-1.159.87-1.432zm17.123 10.766a7.328 7.328 0 007.322-7.322c0-4.024-3.282-7.306-7.322-7.306-4.023 0-7.306 3.283-7.306 7.306 0 4.039 3.283 7.322 7.306 7.322z" fill="#103654"/></g><defs><clipPath id="clip0"><path fill="#fff" d="M0 0h72v72H0z"/></clipPath></defs></svg>