<svg width="80" height="80" fill="none" xmlns="http://www.w3.org/2000/svg">
  <g clip-path="url(#a)" stroke="#92C9EC">
    <path d="M71.111 59.054 40.406 40.876m0 0L10 27.142m30.406 13.734 30.558-22.132M40.406 40.876l-3.914-34.21m3.914 34.21-11.23 30.235" stroke-width="1.3"/>
    <circle cx="28.889" cy="71.111" r="8.389" fill="#fff"/>
    <circle cx="71.112" cy="58.889" r="6.167" fill="#fff"/>
    <circle cx="40.556" cy="40.556" r="10.056" fill="#fff"/>
    <circle cx="71.112" cy="18.889" r="8.389" fill="#fff"/>
    <path d="M42.833 6.667a6.167 6.167 0 1 1-12.333 0 6.167 6.167 0 0 1 12.333 0ZM19.5 26.667a9.5 9.5 0 0 1-9.5 9.5 9.5 9.5 0 1 1 9.5-9.5Z" fill="#fff"/>
  </g>
  <defs>
    <clipPath id="a">
      <path fill="#fff" d="M0 0h80v80H0z"/>
    </clipPath>
  </defs>
</svg>
