<svg width="101" height="100" viewBox="0 0 101 100" fill="none" xmlns="http://www.w3.org/2000/svg">
<path fill-rule="evenodd" clip-rule="evenodd" d="M50.8247 100C78.3799 100 100.718 77.6142 100.718 50C100.718 22.3858 78.3799 0 50.8247 0C23.2695 0 0.931641 22.3858 0.931641 50C0.931641 77.6142 23.2695 100 50.8247 100Z" fill="white"/>
<rect x="24" y="30.1667" width="55" height="36.6667" rx="4" fill="#92C9EC"/>
<path d="M50.7363 50.7917V60.7222H75.1808M50.7363 56.75L56.5501 54.2292L63.0138 56.75L69.8577 52.7014L75.1808 55.375" stroke="#103654" stroke-width="2" stroke-linejoin="round"/>
<path d="M50.7363 35.5139V41.0139M75.1808 44.6806H50.7363V41.0139M50.7363 41.0139L54.5385 39.5472L58.7209 41.0139L62.1429 35.8806L65.9451 41.0139L69.7473 37.7139L73.5494 41.0139" stroke="#103654" stroke-width="2" stroke-linejoin="round"/>
<path d="M45.389 60.7222H40.8057" stroke="#103654" stroke-width="2"/>
<path d="M39.2777 60.7222L27.8193 60.7222" stroke="#103654" stroke-width="2"/>
<path d="M27.8193 56.9028H33.1665" stroke="#103654" stroke-width="2"/>
<path d="M35.4581 56.9028H45.3887" stroke="#103654" stroke-width="2"/>
<mask id="path-10-inside-1" fill="white">
<path d="M35.7839 34.8643C37.6066 34.5797 39.4727 34.8292 41.1566 35.5826C42.8405 36.336 44.2702 37.561 45.2727 39.1096C46.2752 40.6582 46.8076 42.464 46.8057 44.3088C46.8037 46.1536 46.2674 47.9583 45.2616 49.5047L37.2571 44.2986L35.7839 34.8643Z"/>
</mask>
<path d="M35.7839 34.8643C37.6066 34.5797 39.4727 34.8292 41.1566 35.5826C42.8405 36.336 44.2702 37.561 45.2727 39.1096C46.2752 40.6582 46.8076 42.464 46.8057 44.3088C46.8037 46.1536 46.2674 47.9583 45.2616 49.5047L37.2571 44.2986L35.7839 34.8643Z" fill="white" stroke="#103654" stroke-width="4" mask="url(#path-10-inside-1)"/>
<path d="M37.2571 35.75C41.9784 35.75 45.8057 39.5774 45.8057 44.2986C45.8057 49.0199 41.9784 52.8472 37.2571 52.8472C32.5358 52.8472 28.7085 49.0199 28.7085 44.2986C28.7085 39.5774 32.5358 35.75 37.2571 35.75Z" stroke="#103654" stroke-width="2"/>
</svg>
