<svg width="101" height="100" viewBox="0 0 101 100" fill="none" xmlns="http://www.w3.org/2000/svg">
<path fill-rule="evenodd" clip-rule="evenodd" d="M50.8247 100C78.3799 100 100.718 77.6142 100.718 50C100.718 22.3858 78.3799 0 50.8247 0C23.2695 0 0.931641 22.3858 0.931641 50C0.931641 77.6142 23.2695 100 50.8247 100Z" fill="white"/>
<circle cx="51.5002" cy="49.4999" r="16.0417" fill="#92C9EC"/>
<path d="M74.3639 38.8843C72.3358 34.5162 69.0989 30.8205 65.0362 28.2345C60.9735 25.6484 56.2551 24.2802 51.4392 24.2918" stroke="#92C9EC" stroke-width="3"/>
<path d="M77.3836 34.0246L74.5735 40.3902L68.167 37.562" stroke="#92C9EC" stroke-width="3"/>
<line x1="59.7515" y1="40.6226" x2="55.6574" y2="44.7168" stroke="#103654" stroke-width="2"/>
<line x1="51.4551" y1="36.1941" x2="51.4551" y2="41.9841" stroke="#103654" stroke-width="2"/>
<path d="M62.116 72.3641C66.484 70.336 70.1797 67.0991 72.7658 63.0365C75.3518 58.9738 76.72 54.2553 76.7084 49.4394" stroke="#92C9EC" stroke-width="3"/>
<path d="M66.9754 75.3841L60.6098 72.574L63.438 66.1674" stroke="#92C9EC" stroke-width="3"/>
<line x1="60.3774" y1="57.752" x2="56.2832" y2="53.6579" stroke="#103654" stroke-width="2"/>
<line x1="64.8062" y1="49.4556" x2="59.0161" y2="49.4556" stroke="#103654" stroke-width="2"/>
<path d="M28.6361 60.1157C30.6642 64.4838 33.9011 68.1795 37.9638 70.7655C42.0265 73.3516 46.7449 74.7198 51.5608 74.7082" stroke="#92C9EC" stroke-width="3"/>
<path d="M25.6164 64.9754L28.4265 58.6098L34.833 61.438" stroke="#92C9EC" stroke-width="3"/>
<line x1="43.2485" y1="58.3774" x2="47.3426" y2="54.2832" stroke="#103654" stroke-width="2"/>
<line x1="51.5449" y1="62.8059" x2="51.5449" y2="57.0159" stroke="#103654" stroke-width="2"/>
<path d="M40.884 26.6359C36.516 28.664 32.8203 31.9008 30.2342 35.9635C27.6482 40.0262 26.28 44.7447 26.2916 49.5606" stroke="#92C9EC" stroke-width="3"/>
<path d="M36.0246 23.6159L42.3902 26.426L39.562 32.8326" stroke="#92C9EC" stroke-width="3"/>
<line x1="42.6226" y1="41.248" x2="46.7168" y2="45.3421" stroke="#103654" stroke-width="2"/>
<line x1="38.1938" y1="49.5444" x2="43.9839" y2="49.5444" stroke="#103654" stroke-width="2"/>
</svg>
