<svg width="72" height="74" fill="none" xmlns="http://www.w3.org/2000/svg"><path d="M22.852 33.932c2.753.773 5.99 2.282 7.33 4.27 1.012 1.503.855 4.038.718 5.185-.041.34-5.244 2.033-15.27 2.033C5.601 45.42.14 43.726.1 43.387c-.137-1.147-.294-3.682.719-5.185 1.339-1.988 4.575-3.497 7.328-4.27 2.753-.773 3.637-2.494 3.442-3.295-.196-.8-.8-.551-1.412-1.694-.522-.973-.877-3.248-.877-3.248s-1.255-.414-1.394-2.29c-.14-1.878 0-2.569.474-2.79.474-.22.67-.192.67-.192s-.131-.717-.248-1.657c0 0-.375-3.396.014-4.113.728-1.078 1.361-3.233 6.684-3.233 3.482-.054 5 .486 6.5 3.886.2.722.265 1.178.262 1.886-.002.56-.312 3.23-.312 3.23s.196-.027.67.194c.475.22.614.91.475 2.788-.14 1.877-1.395 2.291-1.395 2.291s-.355 2.275-.877 3.248c-.612 1.143-1.216.894-1.411 1.694-.195.801.688 2.522 3.44 3.295z" fill="#92C9EC"/><path fill-rule="evenodd" clip-rule="evenodd" d="M41.819 38.202c1.339-1.988 4.576-3.497 7.328-4.27 2.753-.773 4.048-2.494 3.853-3.295-.195-.8-1.211-.551-1.823-1.694-.522-.973-.877-3.248-.877-3.248s-1.255-.413-1.395-2.29c-.139-1.878 0-2.568.475-2.79.474-.22.67-.192.67-.192s-.31-2.671-.313-3.23c-.002-.71-.066-1.405.134-2.126.724-2.595 3.724-3.7 7.206-3.645 3.482.056 3.536 1.105 4.259 1.878.723.772 1.205.165 1.848 1.352.389.718.014 4.114.014 4.114-.117.94-.248 1.657-.248 1.657s.196-.028.67.193c.474.22.614.91.474 2.789-.139 1.877-1.394 2.29-1.394 2.29s-.355 2.275-.877 3.248c-.612 1.143-1.628.894-1.823 1.694-.195.801 1.1 2.522 3.853 3.295 2.753.773 5.99 2.282 7.328 4.27 1.013 1.503.856 4.039.719 5.185-.04.34-5.502 2.033-15.53 2.033-10.026 0-15.229-1.694-15.27-2.033-.136-1.146-.294-3.682.719-5.185z" fill="#92C9EC"/><path d="M59.351 47.274l1.047-.01-.058-1.046c-.087-1.572-.415-3.41-1.383-4.822-1.14-1.663-3.023-3.051-5.074-4.154-2.068-1.112-4.396-1.983-6.528-2.57-1.919-.53-3.108-1.363-3.773-2.122-.704-.803-.743-1.41-.707-1.555.038-.154.08-.204.103-.231.05-.056.117-.108.33-.258.44-.31 1.036-.747 1.601-1.784.468-.858.822-2.188 1.052-3.204a34.461 34.461 0 0 0 .371-1.886v-.003l.003-.01.029-.142c.022-.12.052-.301.088-.564.072-.527.168-1.396.274-2.8.091-1.206.46-2.023.753-2.622l.057-.116c.056-.113.114-.23.161-.332.063-.137.141-.318.187-.51.046-.189.09-.508-.05-.85a1.303 1.303 0 0 0-.68-.686 6.07 6.07 0 0 0-.33-.14c.04-.35.086-.772.134-1.212.114-1.065.24-2.327.242-2.806v-.001c0-.166.004-.342.008-.526.02-.851.042-1.875-.248-2.9-.645-2.273-2.3-3.84-4.416-4.808-2.1-.96-4.702-1.36-7.42-1.318-2.696.042-4.258.46-5.307 1.16a4.914 4.914 0 0 0-1.156 1.096c-.108.138-.194.252-.27.354a5 5 0 0 1-.393.482c-.274.288-.436.336-.778.436-.07.02-.148.043-.236.071a2.85 2.85 0 0 0-.99.518c-.348.284-.65.67-.933 1.186-.155.281-.233.608-.28.882-.049.294-.078.62-.093.954-.032.668-.015 1.432.02 2.141a47.78 47.78 0 0 0 .19 2.484l.017.166.005.045.001.012v.004l.995-.11-.994.11.002.015c.077.61.158 1.157.225 1.583a6.11 6.11 0 0 0-.286.122 1.385 1.385 0 0 0-.64.573c-.16.283-.185.569-.174.781.018.338.148.712.24.978l.016.048.015.043c.216.627.506 1.466.599 2.694.109 1.445.307 2.375.5 2.97a4.136 4.136 0 0 0 .294.71l.066.368c.064.348.158.828.278 1.356.23 1.016.585 2.346 1.053 3.205.565 1.036 1.16 1.473 1.6 1.783.214.15.281.202.331.258.024.027.066.077.104.23.036.146-.003.752-.709 1.556-.665.759-1.854 1.591-3.773 2.121-2.131.588-4.46 1.459-6.528 2.571-2.05 1.103-3.935 2.49-5.075 4.154-1.062 1.55-1.356 3.625-1.401 5.31l-.028 1.038 1.037-.01 46.683-.46z" stroke="#fff" stroke-width="2"/><path fill-rule="evenodd" clip-rule="evenodd" d="M58.123 42.03c-2.018-2.953-6.895-5.195-11.043-6.343-4.149-1.148-5.48-3.704-5.185-4.894.294-1.19 1.204-.82 2.127-2.517.786-1.446 1.32-4.824 1.32-4.824s1.892-.615 2.103-3.403c.21-2.79 0-3.815-.716-4.143-.715-.327-1.01-.287-1.01-.287s.468-3.967.471-4.798c.004-1.053.101-2.086-.201-3.158C44.899 3.81 40.378 2.17 35.13 2.25c-5.247.082-5.328 1.64-6.418 2.79-1.089 1.147-1.816.244-2.785 2.008-.585 1.066-.02 6.111-.02 6.111.175 1.396.373 2.46.373 2.46s-.295-.04-1.01.287c-.714.328-.925 1.354-.714 4.143.21 2.788 2.101 3.403 2.101 3.403s.535 3.378 1.322 4.824c.921 1.698 1.832 1.328 2.127 2.517.294 1.19-1.038 3.746-5.186 4.895-4.148 1.147-9.026 3.39-11.044 6.342-1.525 2.233-1.289 6-1.082 7.702.061.504 8.29 3.02 23.4 3.02s22.95-2.516 23.012-3.02c.206-1.703.444-5.469-1.083-7.702z" fill="#92C9EC"/></svg>