<svg width="130" height="130" viewBox="0 0 130 130" fill="none" xmlns="http://www.w3.org/2000/svg">
<g clip-path="url(#clip0)">
<path d="M71.563 15.6665H109.354C111.564 15.6665 113.193 15.6669 114.48 15.7704C115.762 15.8734 116.663 16.0762 117.426 16.4574C118.879 17.1834 120.057 18.3613 120.783 19.8142C121.164 20.5772 121.367 21.478 121.47 22.7599C121.573 24.0475 121.574 25.6759 121.574 27.8865V117.279C121.574 119.49 121.573 121.118 121.47 122.406C121.367 123.688 121.164 124.589 120.783 125.352C120.057 126.804 118.879 127.982 117.426 128.708C116.663 129.09 115.762 129.292 114.48 129.395C113.193 129.499 111.564 129.499 109.354 129.499H71.563C69.3524 129.499 67.7241 129.499 66.4364 129.395C65.1545 129.292 64.2537 129.09 63.4907 128.708C62.0378 127.982 60.8599 126.804 60.1339 125.352C59.7527 124.589 59.5499 123.688 59.4469 122.406C59.3434 121.118 59.343 119.49 59.343 117.279V27.8865C59.343 25.6759 59.3434 24.0475 59.4469 22.7599C59.5499 21.478 59.7527 20.5772 60.1339 19.8142C60.8599 18.3613 62.0378 17.1834 63.4907 16.4574C64.2537 16.0762 65.1545 15.8734 66.4364 15.7704C67.7241 15.6669 69.3524 15.6665 71.563 15.6665Z" fill="white" stroke="#92C9EC"/>
<path d="M121.709 23.8882H59.2053" stroke="#92C9EC"/>
<line x1="86.2336" y1="19.7542" x2="94.6819" y2="19.7542" stroke="#92C9EC" stroke-linecap="round"/>
<line x1="60.0691" y1="116.417" x2="121.573" y2="116.417" stroke="#92C9EC" stroke-linecap="round"/>
<line x1="98.5881" y1="19.7542" x2="99.7685" y2="19.7542" stroke="#92C9EC" stroke-linecap="round"/>
<rect x="82.1185" y="121.051" width="17.8965" height="4.08752" rx="2.04376" stroke="#92C9EC"/>
<path d="M17.9264 0.500732H69.5084C74.7551 0.500732 79.0083 4.75403 79.0083 10.0007V120C79.0083 125.247 74.755 129.5 69.5083 129.5H17.9264C12.6797 129.5 8.42639 125.247 8.42639 120V10.0007C8.42639 4.75403 12.6797 0.500732 17.9264 0.500732Z" fill="white" stroke="#92C9EC"/>
<path d="M24.8815 0.5H64.1977V4.22781C64.1977 6.16081 62.6307 7.72781 60.6977 7.72781H28.3815C26.4485 7.72781 24.8815 6.16081 24.8815 4.22781V0.5Z" stroke="#92C9EC"/>
<line x1="35.5784" y1="3.61353" x2="52.6795" y2="3.61353" stroke="#92C9EC" stroke-linecap="round"/>
<line x1="27.351" y1="124.563" x2="60.085" y2="124.562" stroke="#92C9EC" stroke-linecap="round"/>
<line x1="56.1472" y1="3.61353" x2="57.6156" y2="3.61353" stroke="#92C9EC" stroke-linecap="round"/>
</g>
<defs>
<clipPath id="clip0">
<rect width="130" height="130" fill="white"/>
</clipPath>
</defs>
</svg>
