<svg width="88" height="89" fill="none" xmlns="http://www.w3.org/2000/svg"><path d="M9 59.79h33.53M9 40.903h38.253V77.64H9z" stroke="#92C9EC"/><path stroke="#92C9EC" d="M42.066 40.903h5.187v36.492h-5.187zM9 40.903h5.187v36.492H9zM42.304 75.155h4.529M42.304 70.033h4.529M42.304 64.912h4.529M42.304 59.79h4.529M42.304 54.668h4.529M42.304 49.546h4.529M42.304 44.425h4.529M9.648 75.155h4.53M9.648 70.033h4.53M9.648 64.912h4.53M9.648 59.79h4.53M9.648 54.668h4.53M9.648 49.546h4.53M9.648 44.425h4.53M38.5 39.704V18.485m29.824 14.816V12.083M38.5 18.485V7.876l29.824-6.402v10.61M38.5 18.484l29.824-6.402"/><ellipse cx="31.525" cy="40.075" rx="6.975" ry="6.888" fill="#fff" stroke="#92C9EC"/><ellipse cx="60.913" cy="33.584" rx="7.411" ry="7.318" stroke="#92C9EC"/></svg>