<svg width="88" height="88" viewBox="0 0 88 88" fill="none" xmlns="http://www.w3.org/2000/svg">
<g clip-path="url(#clip0)">
<path d="M87.7102 69V79.9436H79.9999" stroke="#92C9EC"/>
<path d="M0 69V79.9436H7.71026" stroke="#92C9EC"/>
<path d="M0 18.9436V8H7.71026" stroke="#92C9EC"/>
<path d="M87.7102 18.9436V8H79.9999" stroke="#92C9EC"/>
<circle cx="43.541" cy="43.8308" r="32.3308" stroke="#92C9EC"/>
<path d="M43.7897 64.7744C61.3519 64.7744 76.6438 55.9373 84.5795 42.8872C76.6438 29.8371 61.3519 21 43.7897 21C26.2276 21 10.9357 29.8371 3 42.8872C10.9357 55.9373 26.2276 64.7744 43.7897 64.7744Z" fill="white"/>
<path d="M7.72254 49.1731C5.94793 47.2011 4.36512 45.0808 3 42.8359C10.9357 29.7858 26.2276 20.9487 43.7897 20.9487C61.3519 20.9487 76.6438 29.7858 84.5795 42.8359C76.6438 55.886 61.3519 64.7231 43.7897 64.7231C31.2145 64.7231 19.8032 60.1921 11.4231 52.8279" stroke="#92C9EC"/>
<path d="M25.1123 31.4467C28.0034 26.7688 32.5652 23.3654 37.8728 21.9265C43.1805 20.4877 48.8366 21.1212 53.6945 23.6985C58.5523 26.2759 62.2482 30.6042 64.0327 35.8058C65.8173 41.0074 65.5569 46.693 63.3044 51.7097C61.0519 56.7264 56.9759 60.6988 51.9028 62.8213C46.8297 64.9439 41.1393 65.0577 35.9854 63.1398C30.8315 61.2219 26.5998 57.4157 24.1485 52.4931C21.6971 47.5705 21.2095 41.8999 22.7845 36.6311" stroke="#92C9EC"/>
<path d="M52.3603 38.237C53.4352 40.2984 53.7541 42.6713 53.2614 44.9434C52.7688 47.2154 51.4958 49.2432 49.6636 50.6743C47.8314 52.1054 45.5558 52.8494 43.232 52.7772C40.9083 52.7049 38.6833 51.8209 36.9435 50.2787C35.2037 48.7366 34.0592 46.6337 33.7087 44.3354C33.3581 42.0371 33.8238 39.6886 35.0247 37.698C36.2257 35.7073 38.086 34.2002 40.2826 33.4386C42.4791 32.6769 44.8731 32.7088 47.0486 33.5286" stroke="#92C9EC"/>
</g>
<defs>
<clipPath id="clip0">
<rect width="88" height="88" fill="white"/>
</clipPath>
</defs>
</svg>