<svg width="73" height="133" fill="none" xmlns="http://www.w3.org/2000/svg"><path d="M15 107.5l3.017 21.545a4 4 0 0 0 3.962 3.445H47.02a4 4 0 0 0 3.962-3.445L54 107.5M15 25.5l3.018-21.553A4 4 0 0 1 21.979.502h25.042a4 4 0 0 1 3.961 3.445L54 25.5" stroke="#92C9EC"/><rect x=".5" y="25.5" width="68" height="82" rx="13.5" stroke="#92C9EC"/><rect x="5.5" y="31.5" width="58" height="70" rx="11.5" stroke="#92C9EC"/><path d="M68.5 42.5H71a1.5 1.5 0 0 1 1.5 1.5v11a1.5 1.5 0 0 1-1.5 1.5h-2.5v-14z" stroke="#92C9EC"/><path d="M14.526 71.526h6.135l5.662-11.467L33.87 86l7.548-42 6.29 27.52H54" stroke="#92C9EC" stroke-linecap="round" stroke-linejoin="round"/></svg>