<svg width="72" height="72" fill="none" xmlns="http://www.w3.org/2000/svg"><path fill-rule="evenodd" clip-rule="evenodd" d="M56.441 28.006a10.49 10.49 0 014.393 2.456 10.483 10.483 0 012.612 3.88l4.591-.061a14.851 14.851 0 00-4.2-7.027 14.8 14.8 0 00-7.566-3.773l-.112-2.993-6.336 5.26 6.72 4.976-.102-2.718z" fill="#103654"/><path fill-rule="evenodd" clip-rule="evenodd" d="M28.988 59.472a10.49 10.49 0 01-4.393-2.456 10.482 10.482 0 01-2.611-3.881l-4.591.062a14.851 14.851 0 004.199 7.026 14.8 14.8 0 007.566 3.774l.113 2.993 6.336-5.26-6.721-4.976.102 2.718z" fill="#92C9EC"/><path d="M71.184 51.848l-3.659-1.905 1.24-3.945c.166-.53.03-1.12-.378-1.527l-2.676-2.676a1.515 1.515 0 00-1.527-.378l-3.945 1.24-1.905-3.659a1.507 1.507 0 00-1.346-.816h-3.794c-.56 0-1.089.317-1.346.816l-1.905 3.659-3.945-1.24a1.482 1.482 0 00-1.512.378l-2.691 2.676a1.515 1.515 0 00-.378 1.527l1.24 3.945-3.659 1.905a1.507 1.507 0 00-.816 1.346v3.794c0 .56.317 1.089.816 1.346l3.659 1.904-1.24 3.931a1.5 1.5 0 00.378 1.527l2.69 2.69c.394.409.983.545 1.513.379l3.945-1.24 1.905 3.658c.257.5.786.817 1.346.817h3.794c.575 0 1.089-.318 1.346-.817l1.904-3.658 3.946 1.24c.53.166 1.119.03 1.527-.378l2.676-2.691a1.5 1.5 0 00.378-1.527l-1.24-3.93 3.659-1.905c.498-.258.816-.787.816-1.346v-3.794c0-.575-.318-1.089-.816-1.346zM55.098 61.962a6.884 6.884 0 01-6.878-6.879c0-3.78 3.084-6.863 6.878-6.863 3.78 0 6.864 3.084 6.864 6.863 0 3.795-3.084 6.879-6.864 6.879z" fill="#103654"/><path d="M45.985 34.975l1.93-5.306c.18-.542.075-1.13-.317-1.537l-4.567-4.99 4.1-5.367c.346-.452.407-1.04.18-1.552l-2.396-5.126a1.525 1.525 0 00-1.311-.874l-6.752-.286-.89-6.694a1.498 1.498 0 00-.979-1.22l-5.32-1.93a1.514 1.514 0 00-1.537.301l-4.974 4.583-5.38-4.115a1.485 1.485 0 00-1.553-.166l-5.124 2.397a1.478 1.478 0 00-.86 1.296l-.286 6.769-6.706.89a1.519 1.519 0 00-1.221.979l-1.93 5.321a1.482 1.482 0 00.302 1.523l4.582 4.99L.86 30.226c-.331.452-.406 1.055-.165 1.553l2.396 5.125c.241.513.739.844 1.311.874l6.752.287.89 6.708a1.52 1.52 0 00.98 1.221l5.32 1.915a1.528 1.528 0 001.537-.302l4.973-4.583 5.38 4.116c.438.346 1.04.407 1.553.165l5.124-2.396c.498-.226.844-.739.86-1.297l.286-6.753 6.706-.905c.558-.06 1.025-.452 1.221-.98zM28.02 32.594a9.478 9.478 0 01-4.009.89 9.52 9.52 0 01-8.59-5.458 9.456 9.456 0 01-.332-7.25 9.449 9.449 0 014.898-5.352 9.273 9.273 0 014.009-.905c3.662 0 7.038 2.156 8.59 5.472 2.216 4.734.166 10.387-4.566 12.603z" fill="#92C9EC"/></svg>