<svg xmlns="http://www.w3.org/2000/svg" width="60" height="60" viewBox="0 0 60 60"><title>icon-advertising</title><path d="M0,4A4,4,0,0,1,4,0H56a4,4,0,0,1,4,4V56a4,4,0,0,1-4,4H4a4,4,0,0,1-4-4ZM2,8V56a2,2,0,0,0,2,2H56a2,2,0,0,0,2-2V8Z" fill="#92c9ec" fill-rule="evenodd"/><path d="M7,2H7A2,2,0,0,1,9,4H9A2,2,0,0,1,7,6H7A2,2,0,0,1,5,4H5A2,2,0,0,1,7,2Z" fill="#fff"/><path d="M13,2h0a2,2,0,0,1,2,2h0a2,2,0,0,1-2,2h0a2,2,0,0,1-2-2h0A2,2,0,0,1,13,2Z" fill="#fff"/><path d="M19,2h0a2,2,0,0,1,2,2h0a2,2,0,0,1-2,2h0a2,2,0,0,1-2-2h0A2,2,0,0,1,19,2Z" fill="#fff"/><path d="M37,43a3,3,0,0,1-3-3V20a3,3,0,0,1,6,0V40A3,3,0,0,1,37,43Zm0-24a1,1,0,0,0-1,1V40a1,1,0,0,0,2,0V20A1,1,0,0,0,37,19Z" fill="#103654"/><path d="M34.29,40.71A1,1,0,0,0,35,41a.84.84,0,0,0,.38-.08A1,1,0,0,0,36,40V20a1,1,0,0,0-.62-.92,1,1,0,0,0-1.09.21C28.34,25.25,15.84,25,15.07,25h0a1,1,0,0,0-.73.28A1,1,0,0,0,14,26v8a1,1,0,0,0,.31.72A.9.9,0,0,0,15,35h0C15.61,35,28.28,34.69,34.29,40.71Z" fill="#103654"/><path d="M15,35H11a1,1,0,0,1-1-1V26a1,1,0,0,1,1-1h4a1,1,0,0,1,1,1v8A1,1,0,0,1,15,35Zm-3-2h2V27H12Z" fill="#103654"/><path d="M18.48,47.86l4,.38a1,1,0,0,0,.81-.3,1,1,0,0,0,.28-.82l-1.3-9.9c-.62-.11-1.32-.22-2.06-.33l1.21,9.24L19.46,46l-1.22-9.3c-.67-.08-1.36-.14-2-.18L17.58,47A1,1,0,0,0,18.48,47.86Z" fill="#103654"/><path d="M49,31H43a1,1,0,0,1,0-2h6a1,1,0,0,1,0,2Z" fill="#103654"/><path d="M46,27H43a1,1,0,0,1,0-2h3a2,2,0,0,0,2-2,1,1,0,0,1,2,0A4,4,0,0,1,46,27Z" fill="#103654"/><path d="M49,38a1,1,0,0,1-1-1,2,2,0,0,0-2-2H43a1,1,0,0,1,0-2h3a4,4,0,0,1,4,4A1,1,0,0,1,49,38Z" fill="#103654"/></svg>
