<svg width="73" height="72" fill="none" xmlns="http://www.w3.org/2000/svg"><circle cx="36.5" cy="36" r="12" fill="#92C9EC"/><circle cx="36.5" cy="6" r="6" fill="#92C9EC"/><circle cx="36.5" cy="66" r="6" fill="#92C9EC"/><path stroke="#92C9EC" stroke-width="2" d="M36.5 66V6"/><circle cx="14.985" cy="15" r="6" transform="rotate(-45 14.985 15)" fill="#92C9EC"/><circle cx="57.985" cy="57" r="6" transform="rotate(-45 57.985 57)" fill="#92C9EC"/><path stroke="#92C9EC" stroke-width="2" d="M57.793 57.707L15.367 15.281"/><circle cx="6.5" cy="36" r="6" transform="rotate(-90 6.5 36)" fill="#92C9EC"/><circle cx="66.5" cy="36" r="6" transform="rotate(-90 66.5 36)" fill="#92C9EC"/><path stroke="#92C9EC" stroke-width="2" d="M66.5 36h-60"/><circle cx="15.5" cy="57.515" r="6" transform="rotate(-135 15.5 57.515)" fill="#92C9EC"/><circle cx="57.5" cy="14.515" r="6" transform="rotate(-135 57.5 14.515)" fill="#92C9EC"/><path stroke="#92C9EC" stroke-width="2" d="M58.207 14.707L15.781 57.133"/></svg>