<svg width="101" height="100" viewBox="0 0 101 100" fill="none" xmlns="http://www.w3.org/2000/svg">
<path fill-rule="evenodd" clip-rule="evenodd" d="M50.8247 100C78.3799 100 100.718 77.6142 100.718 50C100.718 22.3858 78.3799 0 50.8247 0C23.2695 0 0.931641 22.3858 0.931641 50C0.931641 77.6142 23.2695 100 50.8247 100Z" fill="white"/>
<path d="M24 48.9194L51.5 61.0194L79 48.9194" stroke="#103654" stroke-width="6"/>
<mask id="mask0" mask-type="alpha" maskUnits="userSpaceOnUse" x="26" y="28" width="51" height="51">
<circle cx="51.5001" cy="53.3194" r="7.9" stroke="black" stroke-width="4"/>
<path d="M67.1004 53.3195C67.1004 61.9351 60.116 68.9195 51.5004 68.9195C42.8847 68.9195 35.9004 61.9351 35.9004 53.3195C35.9004 44.7038 42.8847 37.7195 51.5004 37.7195C60.116 37.7195 67.1004 44.7038 67.1004 53.3195Z" stroke="black" stroke-width="4"/>
<path d="M74.8002 53.3195C74.8002 66.1878 64.3684 76.6195 51.5002 76.6195C38.632 76.6195 28.2002 66.1878 28.2002 53.3195C28.2002 40.4513 38.632 30.0195 51.5002 30.0195C64.3684 30.0195 74.8002 40.4513 74.8002 53.3195Z" stroke="black" stroke-width="4"/>
</mask>
<g mask="url(#mask0)">
<path d="M79.0001 40.1196L52.0501 53.3196L25.1001 40.1196V23.6196H79.0001V40.1196Z" fill="#92C9EC"/>
</g>
</svg>
