<svg width="74" height="72" fill="none" xmlns="http://www.w3.org/2000/svg">
  <path d="M73 64.5h.744l-.281-.689-18.364-45-.127-.311H49.523l-.126.311-18.365 45-.281.689h5.522l.126-.314 4.314-10.75h23.07l4.313 10.75.126.314H73ZM42.392 48.927l9.823-24.473 9.886 24.473H42.392Z" fill="#fff" stroke="#DEEFF9"/>
  <path d="M65.137 64.5h.744l-.281-.689-21.425-52.5-.127-.311H37.804l-.127.311-21.425 52.5-.281.689h6.262l.125-.314 5.054-12.595H54.44l5.053 12.595.126.314h5.518ZM29.305 46.498 40.888 17.64l11.657 28.858h-23.24Z" fill="#fff" stroke="#C5E2F5"/>
  <path d="M56.34 64.5h.744l-.281-.689-24.486-60-.127-.311H25.15l-.127.311-24.486 60-.281.689h7.002l.126-.314 5.793-14.439h30.985l5.794 14.44.126.313h6.258ZM15.283 44.07l13.344-33.244L42.055 44.07H15.283Z" fill="#fff" stroke="#92C9EC"/>
</svg>
