<svg width="101" height="100" viewBox="0 0 101 100" fill="none" xmlns="http://www.w3.org/2000/svg">
<path fill-rule="evenodd" clip-rule="evenodd" d="M50.8247 100C78.3799 100 100.718 77.6142 100.718 50C100.718 22.3858 78.3799 0 50.8247 0C23.2695 0 0.931641 22.3858 0.931641 50C0.931641 77.6142 23.2695 100 50.8247 100Z" fill="white"/>
<path fill-rule="evenodd" clip-rule="evenodd" d="M31.5598 39.5696C30.3378 39.5696 29.3472 40.5602 29.3472 41.7822C29.3472 42.9677 30.2814 43.9425 31.4658 43.9929L44.9224 44.5655V74.7435C44.9224 75.9898 45.9327 77.0001 47.1789 77.0001C48.3722 77.0001 49.3592 76.0711 49.4314 74.88L50.2763 60.9382C50.2763 58.5045 53.1967 58.1395 54.6569 59.478C55.984 60.6946 56.8505 61.4975 57.3811 61.994C57.7399 62.3296 57.6949 62.9 57.2924 63.1818L53.0252 66.1689C51.8295 67.0058 51.6488 68.7062 52.642 69.7757C53.3962 70.588 54.6078 70.7796 55.5759 70.2397L63.1908 65.9929C64.967 65.0023 65.4308 62.6551 64.1647 61.0634L58.0639 53.3939V44.6107L71.524 43.9989C72.7074 43.9451 73.6392 42.97 73.6392 41.7854C73.6392 40.5616 72.6471 39.5696 71.4234 39.5696H31.5598Z" fill="#92C9EC"/>
<ellipse cx="51.4998" cy="30.4029" rx="6.11111" ry="6.11111" fill="#92C9EC"/>
</svg>
