<svg xmlns="http://www.w3.org/2000/svg" width="58" height="58" fill="none" viewBox="0 0 58 58"><path fill="#92C9EC" fill-rule="evenodd" d="M53.1667 0H4.83333C2.16823 0 0 2.16823 0 4.83333V41.0833c0 2.6651 2.16823 4.8334 4.83333 4.8334H53.1667c2.6651 0 4.8333-2.1683 4.8333-4.8334V4.83333C58 2.16823 55.8318 0 53.1667 0zM1.93333 4.83333c0-1.59886 1.30114-2.9 2.9-2.9H53.1667c1.5988 0 2.9 1.30114 2.9 2.9V38.6667H1.93333V4.83333z" clip-rule="evenodd"/><path fill="#92C9EC" d="M31.4167 48.3333h-4.8334v4.8334h-8.2166c-1.5989 0-2.9 1.3011-2.9 2.9v.9666c0 .5346.4321.9667.9666.9667h25.1334c.5345 0 .9666-.4321.9666-.9667v-.9666c0-1.5989-1.3011-2.9-2.9-2.9h-8.2166v-4.8334z"/><path fill="#103654" d="M31.6052 28.668v.6802c0 .5344-.3933.9717-.9096 1.0446l-.1721.6073c-.0983.3158-.3933.5587-.7375.5587h-1.6471c-.3442 0-.6638-.2429-.7375-.5587l-.1721-.6073c-.5163-.0729-.9096-.5102-.9096-1.0446v-.6802c0-.3401.2704-.6559.6637-.6559h3.9827c.3687.0243.6391.3158.6391.6559zM28.3601 9.16103v2.23487c0 .3401.2705.6317.6392.6317.3688 0 .6392-.2673.6392-.6317V9.16103c0-.3401-.2704-.63161-.6392-.63161-.3687 0-.6392.29151-.6392.63161zM21.4274 19.5097c0-.3401-.2704-.6316-.6392-.6316h-2.2371c-.3442 0-.6392.2672-.6392.6316 0 .3644.2704.6316.6392.6316h2.2617c.3196-.0243.6146-.2915.6146-.6316zm18.0202-.6316h-2.2617c-.3442 0-.6392.2672-.6392.6316 0 .3644.2704.6316.6392.6316h2.2617c.3442 0 .6392-.2672.6392-.6316.0246-.3644-.2459-.6316-.6392-.6316zm-16.7172 5.9031l-1.598 1.579c-.2704.2672-.2704.6559 0 .8988.1229.1215.2704.1944.4425.1944.1721 0 .3196-.0729.4425-.1944l1.598-1.579c.2704-.2672.2704-.6559 0-.8988-.2213-.2429-.6146-.2429-.885 0zM35.9566 11.736l-1.5979 1.5791c-.2705.2672-.2705.6559 0 .8988.1475.1215.295.1943.4671.1943.1721 0 .3196-.0728.4425-.1943l1.598-1.579c.2704-.2672.2704-.6559 0-.8989-.2705-.2429-.6638-.2672-.9097 0zm-13.9392 0c-.2704-.2672-.6638-.2672-.9096 0-.2704.2673-.2704.6559 0 .8989l1.6226 1.579c.1229.1215.2704.1943.4425.1943.1721 0 .3196-.0728.4425-.1943.2704-.2672.2704-.6559 0-.8988l-1.598-1.5791zm13.2509 13.0452c-.2704-.2672-.6638-.2672-.9096 0-.2459.2672-.2705.6559 0 .8988l1.5979 1.579c.123.1215.2705.1944.4426.1944.172 0 .3196-.0729.4425-.1944.2704-.2672.2704-.6559 0-.8988l-1.5734-1.579zm-.3196-5.2229c0 1.5061-.6146 3.0123-1.6717 4.0811-.6146.6316-1.008 1.409-1.1309 2.2592-.1229.7288-.7621 1.2876-1.5242 1.2876h-3.2943c-.7621 0-1.4013-.5345-1.5242-1.2876-.1229-.8502-.5409-1.6519-1.1309-2.2592-1.0571-1.0931-1.6471-2.5021-1.6717-4.0083-.0246-3.2552 2.6305-5.9274 5.9002-5.9516h.0492c3.2942.0242 5.9985 2.6479 5.9985 5.8788z"/></svg>
