<svg width="74" height="72" fill="none" xmlns="http://www.w3.org/2000/svg">
  <mask id="a" maskUnits="userSpaceOnUse" x="0" y="2" width="74" height="70" fill="#000">
    <path fill="#fff" d="M0 2h74v70H0z"/>
    <path fill-rule="evenodd" clip-rule="evenodd" d="M37 69c19.882 0 36-14.775 36-33S56.882 3 37 3 1 17.775 1 36c0 6.12 1.817 11.85 4.983 16.762l-4.22 17.543 17.472-5.596C24.477 67.44 30.54 69 37 69Z"/>
  </mask>
  <path d="m5.983 52.762.973.234.1-.416-.232-.36-.84.542Zm-4.22 17.543-.972-.234-.416 1.728 1.693-.542-.305-.952Zm17.472-5.596.463-.887-.37-.193-.398.128.305.952ZM72 36c0 17.593-15.586 32-35 32v2c20.35 0 37-15.142 37-34h-2ZM37 4c19.414 0 35 14.407 35 32h2C74 17.142 57.35 2 37 2v2ZM2 36C2 18.407 17.586 4 37 4V2C16.65 2 0 17.142 0 36h2Zm4.824 16.22C3.756 47.46 2 41.917 2 36H0c0 6.321 1.878 12.238 5.143 17.304l1.68-1.084Zm-1.813.308L.791 70.071l1.944.468 4.22-17.543-1.944-.468Zm-2.943 18.73 17.473-5.597-.61-1.904-17.473 5.595.61 1.905ZM37 68c-6.299 0-12.203-1.52-17.302-4.178l-.925 1.774C24.157 68.4 30.378 70 37 70v-2Z" fill="#92C9EC" mask="url(#a)"/>
  <path d="M28.979 29.086a2 2 0 0 1 .663-1.487l4.696-4.22a4 4 0 0 0 1.199-1.974l1.262-4.877a3.714 3.714 0 0 1 3.66 3.082l.238 1.382a8.964 8.964 0 0 1-.02 3.158l-.75 4.045h11.032a4 4 0 0 1 4 4v1.963a4 4 0 0 1-.34 1.612l-4.604 10.454a4 4 0 0 1-3.66 2.387H30.978a2 2 0 0 1-2-2V29.086ZM23.483 28.694h2.997v19.417h-2.997z" fill="#fff" stroke="#92C9EC"/>
</svg>
