<svg width="72" height="72" fill="none" xmlns="http://www.w3.org/2000/svg"><g clip-path="url(#a)"><path d="M37.05 48.812c-4.17 0-8.342.04-12.512-.011-5.112-.062-9.422-3.523-10.676-8.48-1.597-6.316 2.688-12.774 9.124-13.724.464-.068.596-.237.672-.684a10.155 10.155 0 0 1 9.529-8.443c4.62-.228 8.885 2.899 10.108 7.44.11.402.293.562.678.655 2.814.666 4.712 2.39 5.733 5.078.146.385.306.542.728.579 4.578.402 8.185 4.462 8.03 9.011-.16 4.727-3.913 8.461-8.617 8.58-.119.002-.234.008-.352.008H37.053v-.009h-.003Z" fill="#92C9EC"/><path d="M63.753 20.32c1.125-.638 2.3-1.307 3.476-1.973 6.298 10.116 7.454 27.217-3.372 40.407C52.2 72.956 33.772 74.801 21.21 68.716c.734-1.147 1.473-2.303 2.176-3.396 14.666 5.111 27.308 2.271 37.613-9.715 8.14-11.154 8.829-22.885 2.755-35.285ZM48.733 2.407c-.663 1.21-1.313 2.393-1.974 3.596-13.136-3.939-24.968-1.546-34.3 8.818C3.144 25.165 2.005 37.157 7.344 50.007c-.523.259-1.138.568-1.757.872-.607.297-1.217.593-1.825.888-5.207-9.58-6.09-25.78 4.395-38.552C19.055-.059 36.193-2.648 48.733 2.407Z" fill="#92C9EC"/><path d="M62.741 9.124c-.042 3.391-2.82 6.107-6.191 6.051-3.335-.053-6.065-2.84-6.037-6.16.03-3.414 2.812-6.116 6.248-6.068 3.348.045 6.02 2.806 5.977 6.177h.003ZM7.687 61.462c.054-3.388 2.846-6.11 6.2-6.043 3.355.068 6.054 2.838 6.015 6.167-.04 3.43-2.8 6.11-6.245 6.056-3.343-.05-6.023-2.826-5.97-6.183v.003Z" fill="#103654"/></g><defs><clipPath id="a"><path fill="#fff" d="M0 0h72v72H0z"/></clipPath></defs></svg>