<svg width="72" height="72" fill="none" xmlns="http://www.w3.org/2000/svg"><circle cx="36" cy="36" r="21" fill="#92C9EC"/><path d="M65.931 22.103A33 33 0 0035.921 3M69.885 15.741l-3.68 8.334-8.386-3.703" stroke="#92C9EC" stroke-width="3"/><path stroke="#103654" stroke-width="2" d="M46.584 24.16l-5.36 5.36M35.632 18.581v7.58"/><path d="M49.897 65.931A33 33 0 0069 35.921M56.259 69.885l-8.334-3.68 3.703-8.386" stroke="#92C9EC" stroke-width="3"/><path stroke="#103654" stroke-width="2" d="M47.84 46.584l-5.36-5.36M53.419 35.632h-7.58"/><path d="M6.069 49.897A33 33 0 0036.079 69M2.115 56.259l3.68-8.334 8.386 3.703" stroke="#92C9EC" stroke-width="3"/><path transform="rotate(-45 71.663 -7.26)" stroke="#103654" stroke-width="2" d="M0-1h7.58"/><path stroke="#103654" stroke-width="2" d="M36.368 53.419v-7.58"/><path d="M22.103 6.069A33 33 0 003 36.079M15.741 2.115l8.334 3.68-3.703 8.386" stroke="#92C9EC" stroke-width="3"/><path stroke="#103654" stroke-width="2" d="M24.16 25.416l5.36 5.36M18.581 36.368h7.58"/></svg>