<svg width="26" height="26" fill="none" xmlns="http://www.w3.org/2000/svg"><rect x=".5" y=".5" width="25" height="25" rx="2.5" stroke="#51A9E1"/><path d="M12.5 2.5v6m0 8h3l2 7.5m-5-7.5h-3l-2 7.5m5-7.5v-8m0 0H17l1.5 3.5v3m-6-6.5H8L6.5 12v3" stroke="#51A9E1"/><circle cx="17.5" cy="8.5" r="1.5" fill="#51A9E1"/><circle cx="6.5" cy="13.5" r="1.5" fill="#51A9E1"/><circle cx="12.5" cy="3.5" r="1.5" fill="#51A9E1"/><circle cx="7.5" cy="8.5" r="1.5" fill="#51A9E1"/><circle cx="18.5" cy="13.5" r="1.5" fill="#51A9E1"/><circle cx="12.5" cy="16.5" r="1.5" fill="#51A9E1"/><circle cx="12.5" cy="8.5" r="1.5" fill="#51A9E1"/><circle cx="16" cy="17" r="1" fill="#51A9E1"/><circle cx="16.5" cy="22.5" r="1.5" fill="#51A9E1"/><circle cx="8.5" cy="22.5" r="1.5" fill="#51A9E1"/><circle cx="9" cy="17" r="1" fill="#51A9E1"/></svg>