<svg width="101" height="100" viewBox="0 0 101 100" fill="none" xmlns="http://www.w3.org/2000/svg">
<path fill-rule="evenodd" clip-rule="evenodd" d="M50.8247 100C78.3799 100 100.718 77.6142 100.718 50C100.718 22.3858 78.3799 0 50.8247 0C23.2695 0 0.931641 22.3858 0.931641 50C0.931641 77.6142 23.2695 100 50.8247 100Z" fill="white"/>
<path d="M27.0557 64.0139V71.9445C27.0557 73.049 27.9511 73.9445 29.0557 73.9445H73.9445C75.0491 73.9445 75.9445 73.049 75.9445 71.9445V64.0139" stroke="#103654" stroke-width="6" stroke-linecap="round"/>
<path d="M51.5 29.6389L51.5 59.4306" stroke="#92C9EC" stroke-width="6" stroke-linecap="round"/>
<path d="M72.125 46.4443L65.25 52.9515L65.25 61.7221" stroke="#92C9EC" stroke-width="6" stroke-linecap="round"/>
<path d="M30.875 46.4443L37.75 52.9515L37.75 61.7221" stroke="#92C9EC" stroke-width="6" stroke-linecap="round"/>
<path d="M50.6781 23.1864C51.0758 22.6124 51.9244 22.6124 52.3221 23.1864L58.3513 31.8888C58.8108 32.552 58.3361 33.4583 57.5293 33.4583H45.4709C44.6641 33.4583 44.1894 32.552 44.6489 31.8888L50.6781 23.1864Z" fill="#92C9EC"/>
<path d="M77.7343 41.3711C78.4319 41.3406 78.9452 42.0165 78.7286 42.6803L75.4448 52.7451C75.1945 53.5121 74.1857 53.6822 73.6977 53.0397L66.4047 43.4367C65.9167 42.7942 66.3514 41.8681 67.1575 41.8329L77.7343 41.3711Z" fill="#92C9EC"/>
<path d="M24.8961 41.3711C24.1984 41.3406 23.6852 42.0165 23.9018 42.6803L27.1856 52.7451C27.4359 53.5121 28.4447 53.6822 28.9327 53.0397L36.2257 43.4367C36.7136 42.7942 36.279 41.8681 35.4729 41.8329L24.8961 41.3711Z" fill="#92C9EC"/>
</svg>
