<svg width="88" height="88" fill="none" xmlns="http://www.w3.org/2000/svg"><path d="M27.118 5c8.047 0 14.185 5.674 16.248 8.511C45.43 10.674 51.568 5 59.616 5c10.058 0 20.117 6.964 20.117 20.891 0 18.57-13.928 27.082-36.367 43.33C20.927 52.974 7 44.462 7 25.892 7 11.964 17.059 5 27.118 5z" stroke="#92C9EC"/><path fill="#fff" d="M7 34.135h8.265v4.959H7z"/><path d="M7.413 36.642l10.42.006 3.094-5.416 4.643 10.832 5.416-22.439 6.19 29.403 7.738-17.796 4.642 10.832 4.643-5.416h10.058" stroke="#92C9EC"/><circle cx="63.616" cy="36.393" r="2.066" fill="#92C9EC"/></svg>