<svg width="72" height="72" fill="none" xmlns="http://www.w3.org/2000/svg">
  <g clip-path="url(#a)" fill="#92C9EC">
    <path d="M38.118 55.066V72h-4.214V55.052H29.69v12.736h-4.237V55.035H14.9v-8.44H4.214v-4.237h10.607v-4.214H0v-4.237h14.835v-4.214H4.212v-4.238h10.64v-8.44h10.553v-12.8h4.237v12.719h4.214V0h4.237v16.948h4.214V4.212h4.237v12.753h10.553v8.44h10.686v4.237h-10.61v4.214h14.821v4.237H57.16v4.214h10.624v4.237h-10.64v8.44H46.59v12.799h-4.237V55.06h-4.24l.005.005Zm-.036-27.475H25.48V44.4h4.203v-4.127h4.231v4.144h4.164V27.59h.003Zm4.304-.011v16.815h4.144V27.58h-4.144Z"/>
    <path d="M29.704 31.811h4.127v4.141h-4.127v-4.141Z"/>
  </g>
  <defs>
    <clipPath id="a">
      <path fill="#fff" d="M0 0h72v72H0z"/>
    </clipPath>
  </defs>
</svg>
