<svg width="72" height="73" viewBox="0 0 72 73" fill="none" xmlns="http://www.w3.org/2000/svg">
<path d="M16 4.14795H18V0.147949H16V4.14795ZM2 2.14795V0.147949C0.895431 0.147949 7.15256e-07 1.04338 5.96046e-07 2.14795L2 2.14795ZM0 16.148V18.1479H4L4 16.148H0ZM16 0.147949H2V4.14795H16V0.147949ZM4 16.148L4 2.14795L5.96046e-07 2.14795L0 16.148H4Z" fill="#103654"/>
<path d="M4 56.148L4 54.148L-6.99382e-07 54.148L-6.11959e-07 56.148L4 56.148ZM2 70.1479L0 70.1479C4.82822e-08 71.2525 0.895431 72.1479 2 72.1479L2 70.1479ZM16 72.1479L18 72.1479L18 68.1479L16 68.1479L16 72.1479ZM-6.11959e-07 56.148L0 70.1479L4 70.1479L4 56.148L-6.11959e-07 56.148ZM16 68.1479L2 68.1479L2 72.1479L16 72.1479L16 68.1479Z" fill="#103654"/>
<path d="M56 4.14795H54V0.147949H56V4.14795ZM70 2.14795V0.147949C71.1046 0.147949 72 1.04338 72 2.14795L70 2.14795ZM72 16.148V18.1479H68L68 16.148H72ZM56 0.147949H70V4.14795H56V0.147949ZM68 16.148L68 2.14795L72 2.14795L72 16.148H68Z" fill="#103654"/>
<path d="M68 56.148L68 54.148L72 54.148L72 56.148L68 56.148ZM70 70.1479L72 70.1479C72 71.2525 71.1046 72.1479 70 72.1479L70 70.1479ZM56 72.1479L54 72.1479L54 68.1479L56 68.1479L56 72.1479ZM72 56.148L72 70.1479L68 70.1479L68 56.148L72 56.148ZM56 68.1479L70 68.1479L70 72.1479L56 72.1479L56 68.1479Z" fill="#103654"/>
<rect x="13" y="13.1479" width="46" height="46" rx="2" fill="#92C9EC"/>
<path d="M21 13.1479H31V32.1479L26 27.8729L21 32.1479V13.1479Z" fill="#5586B5"/>
<circle cx="53.5" cy="18.6479" r="11.5" fill="white"/>
<circle cx="53.5" cy="18.6479" r="9.30952" fill="#103654"/>
<rect x="56.0664" y="14.6221" width="2.09544" height="9.77871" transform="rotate(45 56.0664 14.6221)" fill="white"/>
<rect x="49.1519" y="16.1035" width="2.09544" height="9.77871" transform="rotate(-45 49.1519 16.1035)" fill="white"/>
</svg>
