<svg width="72" height="72" fill="none" xmlns="http://www.w3.org/2000/svg"><rect x="9.594" width="58.406" height="72" rx="2" fill="#92C9EC"/><path d="M25.373 7.579H16.19v8.339" stroke="#103654" stroke-width="2"/><path d="M25.373 7.579H16.19v8.339M16.189 31.45v8.34h9.184M52.221 7.579h9.185v8.339M61.406 31.45v8.34H52.22" stroke="#103654" stroke-width="2"/><rect x="4" y="47.421" width="30.029" height="16.947" rx="1" fill="#fff" stroke="#92C9EC" stroke-width="2"/><path d="M9.802 59.82c-.837 0-1.504-.265-2.001-.795l.61-1.012c.385.417.814.625 1.289.625.407 0 .727-.125.96-.375.242-.25.363-.584.363-1V52.1h1.322v5.184c0 .834-.234 1.467-.7 1.899-.468.424-1.082.637-1.843.637zM15.278 59.684h-1.323v-7.583h3.313c.76 0 1.36.228 1.797.682.445.455.667 1.02.667 1.694 0 .667-.222 1.232-.667 1.694-.437.455-1.036.682-1.797.682h-1.99v2.831zm1.809-4.002c.377 0 .686-.11.927-.33.24-.219.361-.51.361-.875 0-.363-.12-.655-.361-.875-.241-.22-.55-.33-.927-.33h-1.809v2.41h1.809zM24.45 59.832c-1.115 0-2.053-.364-2.814-1.092-.762-.727-1.142-1.674-1.142-2.842 0-1.167.38-2.11 1.142-2.83.76-.728 1.699-1.092 2.814-1.092 1.297 0 2.31.527 3.041 1.58l-1.085.614a2.454 2.454 0 0 0-.836-.727 2.257 2.257 0 0 0-1.12-.284c-.746 0-1.367.257-1.865.773-.49.515-.735 1.17-.735 1.966s.245 1.456.735 1.978c.497.516 1.12.774 1.865.774.355 0 .69-.069 1.006-.205.325-.136.585-.296.78-.477v-1.183h-2.25v-1.17h3.573v2.841c-.821.917-1.858 1.376-3.109 1.376z" fill="#92C9EC"/><path stroke="#fff" stroke-width="2" d="M21.37 14.158h14.085M21.37 20.842h34.384M21.37 26.526h34.384M21.37 32.21h34.384"/></svg>