<svg width="72" height="72" viewBox="0 0 72 72" fill="none" xmlns="http://www.w3.org/2000/svg">
<path d="M72 36C72 55.8823 55.8823 72 36 72C16.1178 72 0 55.8823 0 36C0 16.1178 16.1178 0 36 0C55.8823 0 72 16.1178 72 36Z" fill="#92C9EC"/>
<path d="M38.7248 61.7338V57.0701C45.0342 56.0708 48.8996 51.0739 49.2 45.0777C49.2 32.0859 31.6238 33.2518 31.6238 26.4228C31.6238 23.4247 34.0274 21.426 37.1821 21.426C40.7875 21.426 43.792 23.5913 44.8435 24.5906C44.9937 24.9238 45.4444 24.7572 45.5946 24.4241L47.9982 19.4272C48.1484 19.2607 47.9982 18.9275 47.848 18.761C46.9466 17.9282 43.6774 15.4154 38.72 14.9157V10.2663C38.72 9.93322 38.4196 9.6001 38.1191 9.6001H35.1051C34.8047 9.6001 34.5042 9.93322 34.5042 10.2663V15.0966C28.7957 16.096 24.5633 20.7597 24.5633 26.7559C24.5633 39.0815 42.1395 38.4152 42.1395 45.4108C42.1395 48.7421 39.5857 50.4077 36.7314 50.4077C32.5252 50.4077 29.07 47.5761 27.8683 46.4102C27.718 46.2436 27.2674 46.2436 27.1171 46.5768L24.1127 51.2405C23.9624 51.5736 23.9624 51.9067 24.1127 52.0733C25.1642 53.0727 28.9417 56.4039 34.5 57.0701V61.7338C34.5 62.067 34.8005 62.4001 35.1009 62.4001H38.1239C38.4244 62.4001 38.7248 62.067 38.7248 61.7338Z" fill="white"/>
</svg>
