<svg width="72" height="72" viewBox="0 0 72 72" fill="none" xmlns="http://www.w3.org/2000/svg">
<g clip-path="url(#clip0_2325_1856)">
<path d="M36.0089 71.997C29.5902 71.997 23.1715 71.997 16.7497 71.997C16.5489 71.997 16.351 72.006 16.1501 71.994C15.3766 71.952 14.9509 71.4034 15.0828 70.6239C15.4486 68.4414 16.1501 66.3697 17.1934 64.421C19.8677 59.4204 23.897 55.9937 29.2454 54.1229C32.0935 53.1246 35.0465 52.8278 38.0265 53.1156C42.7934 53.5743 46.9666 55.448 50.4772 58.7338C53.9429 61.9777 56.0865 65.95 56.9259 70.6209C57.0668 71.3974 56.6381 71.952 55.8647 71.994C55.6668 72.006 55.4659 71.997 55.265 71.997C48.8463 71.997 42.4276 71.997 36.0059 71.997H36.0089Z" fill="#92C9EC"/>
<path d="M59.2256 5.30434e-05C66.2529 -0.047915 71.997 5.71724 72.012 12.7266C72.03 19.7659 66.2888 25.54 59.2196 25.534C52.1892 25.525 46.4661 19.7419 46.4661 12.7595C46.4721 5.72624 52.2582 -0.041919 59.2256 5.30434e-05ZM57.5407 13.9258C56.6862 13.0593 55.9008 12.2559 55.1093 11.4584C54.9174 11.2635 54.7196 11.0687 54.4977 10.9098C53.7332 10.3522 52.7349 10.4151 52.0963 11.0417C51.4547 11.6713 51.3138 12.8225 51.9464 13.4971C53.4004 15.041 54.8994 16.549 56.4404 18.003C57.1449 18.6686 58.0773 18.5637 58.8238 17.9191C58.9377 17.8202 59.0427 17.7122 59.1476 17.6073C61.486 15.2479 63.8275 12.8915 66.1629 10.529C66.3698 10.3192 66.5707 10.0853 66.7146 9.8275C67.1343 9.06301 66.9244 8.06767 66.2559 7.52504C65.5693 6.97041 64.6879 6.95841 63.9774 7.51304C63.7825 7.66594 63.6086 7.84882 63.4318 8.0257C61.6899 9.77953 59.9481 11.5364 58.2062 13.2902C58.0174 13.4821 57.8165 13.6649 57.5377 13.9288L57.5407 13.9258Z" fill="#92C9EC"/>
<path d="M12.7265 -9.92857e-05C19.7628 -0.0630573 25.51 5.6991 25.543 12.6964C25.576 19.7447 19.8408 25.5249 12.7805 25.5339C5.74119 25.5399 0.0120106 19.7627 1.86262e-05 12.7894C-0.0119734 5.74407 5.76817 -0.0270813 12.7265 -9.92857e-05ZM10.0793 12.7654C9.88143 12.9753 9.71654 13.1581 9.54566 13.332C8.68223 14.1984 7.81581 15.0619 6.94939 15.9313C6.79049 16.0902 6.6256 16.2461 6.49069 16.426C6.04099 17.0226 6.02001 17.6911 6.29882 18.3417C6.58663 19.0102 7.13826 19.367 7.89076 19.394C8.50535 19.418 9.00002 19.2021 9.43173 18.7644C10.3941 17.784 11.3714 16.8187 12.3458 15.8503C12.4807 15.7154 12.6366 15.6015 12.8195 15.4516C13.8568 16.4919 14.8581 17.5022 15.8624 18.5066C16.0573 18.7014 16.2462 18.9023 16.468 19.0642C17.3914 19.7477 18.8275 19.385 19.2532 18.3297C19.562 17.5592 19.475 16.8097 18.8514 16.1861C17.8621 15.1968 16.8728 14.2074 15.8864 13.2151C15.7485 13.0772 15.6286 12.9273 15.4727 12.7534C15.6676 12.5465 15.8295 12.3637 16.0033 12.1898C16.8668 11.3234 17.7332 10.4569 18.5966 9.59051C18.7555 9.43161 18.9204 9.27272 19.0523 9.09584C19.499 8.49923 19.52 7.83068 19.2412 7.18011C18.9504 6.50856 18.3988 6.1578 17.6493 6.13081C17.0347 6.10683 16.54 6.32568 16.1113 6.76339C15.1489 7.74374 14.1716 8.70909 13.1972 9.67745C13.0623 9.81236 12.9064 9.92329 12.7295 10.0702C11.7102 9.04787 10.7239 8.05553 9.73453 7.06919C9.53966 6.87432 9.35378 6.67045 9.13793 6.50257C8.52334 6.02888 7.8338 6.0049 7.15925 6.3077C6.49069 6.61049 6.15492 7.17112 6.13993 7.92062C6.12793 8.50523 6.3288 8.98491 6.74552 9.39264C7.68989 10.322 8.62227 11.2604 9.55465 12.1988C9.72554 12.3727 9.88743 12.5555 10.0793 12.7624V12.7654Z" fill="#103654"/>
<path d="M36.003 30.0999C41.4773 29.986 46.7778 34.4261 46.7598 40.8418C46.7418 47.0506 41.7891 51.5986 35.976 51.5806C30.2198 51.5656 25.2371 47.0297 25.2581 40.7758C25.2791 34.3781 30.5856 29.986 36.006 30.0999H36.003Z" fill="#92C9EC"/>
<path d="M26.859 30.4057C26.862 31.2901 25.9416 31.9077 25.1652 31.5599C24.9673 31.47 24.7814 31.3231 24.6255 31.1702C23.2974 29.8511 21.9783 28.5229 20.6502 27.2008C20.2934 26.8441 20.0835 26.4513 20.2244 25.9297C20.4373 25.1322 21.2737 24.7635 21.9963 25.1682C22.1672 25.2641 22.32 25.402 22.461 25.5399C23.7531 26.8261 25.0392 28.1182 26.3314 29.4014C26.6282 29.6952 26.823 30.0249 26.856 30.4087L26.859 30.4057Z" fill="#92C9EC"/>
<path d="M51.8474 26.3824C51.7605 26.5443 51.6645 26.8741 51.4547 27.0929C50.0786 28.505 48.6905 29.908 47.2724 31.2781C46.5469 31.9797 45.5606 31.7158 45.2278 30.7984C45.0839 30.4027 45.2008 30.0639 45.3987 29.7342C45.4736 29.6082 45.5876 29.5033 45.6955 29.3984C46.9816 28.1092 48.2738 26.8231 49.5599 25.528C49.8717 25.2162 50.2075 24.9913 50.6752 25.0153C51.3437 25.0483 51.8504 25.5669 51.8504 26.3824H51.8474Z" fill="#92C9EC"/>
</g>
<defs>
<clipPath id="clip0_2325_1856">
<rect width="72" height="72" fill="white"/>
</clipPath>
</defs>
</svg>
