<svg width="130" height="130" viewBox="0 0 130 130" fill="none" xmlns="http://www.w3.org/2000/svg">
<path d="M70.8888 11.622L70.8889 11.6219C75.0961 6.08624 80.1192 3.30697 84.0893 1.9098C86.0753 1.21089 87.7971 0.858208 89.0191 0.680364C89.63 0.591467 90.1154 0.54634 90.4458 0.523454C90.4645 0.522159 90.4827 0.520935 90.5004 0.519779C90.5006 0.521794 90.5008 0.523818 90.5011 0.525846C90.5317 0.823944 90.5668 1.26497 90.583 1.82762C90.6155 2.95319 90.5725 4.56366 90.2687 6.48919C89.6612 10.3386 88.0119 15.4456 83.8365 20.4628C79.3725 25.8204 74.621 28.043 71.003 28.9343C69.1909 29.3807 67.6584 29.4941 66.5834 29.4966C66.046 29.4979 65.6234 29.4714 65.338 29.4451C65.3102 29.4426 65.2838 29.44 65.2586 29.4375C65.258 29.4334 65.2574 29.4293 65.2567 29.4252C65.2203 29.1844 65.1755 28.8248 65.1445 28.3601C65.0827 27.4307 65.0765 26.0818 65.3034 24.4234C65.7566 21.1097 67.1415 16.5504 70.8888 11.622Z" stroke="#92C9EC"/>
<path d="M113.913 44.0818C113.862 44.1116 113.807 44.144 113.748 44.1791C113.353 44.416 112.791 44.7725 112.119 45.2545C110.774 46.2182 108.985 47.6862 107.195 49.7084C103.611 53.7565 100.028 60.0279 100.028 68.8965C100.028 78.9023 104.493 85.6412 108.953 89.8679C111.181 91.9788 113.407 93.4642 115.078 94.4225C115.913 94.9019 116.611 95.2501 117.102 95.4793C117.226 95.5373 117.337 95.5876 117.433 95.6306C117.341 95.8779 117.21 96.2238 117.042 96.6551C116.676 97.5922 116.135 98.9322 115.434 100.541C114.031 103.759 111.991 108.046 109.437 112.33C106.881 116.618 103.824 120.88 100.395 124.065C96.9616 127.254 93.2065 129.316 89.2448 129.316C85.5827 129.316 82.3151 128.096 78.9051 126.822L78.8053 126.785C75.3818 125.506 71.8189 124.19 67.7079 124.19C63.5283 124.19 59.3857 125.548 55.6806 126.874C55.2734 127.02 54.872 127.165 54.4764 127.309C53.06 127.821 51.7185 128.307 50.4561 128.692C48.8403 129.186 47.4007 129.5 46.1561 129.5C42.5508 129.5 38.6359 127.546 34.76 124.108C30.8931 120.677 27.1193 115.816 23.8052 110.119C17.1743 98.7206 12.4332 84.0647 12.4332 71.0322C12.4332 45.4134 28.4316 32.1152 43.2748 32.1151C48.1081 32.1193 52.4151 33.5138 56.1887 34.9301C56.79 35.1558 57.3806 35.3832 57.9584 35.6056C59.1814 36.0764 60.3471 36.5251 61.4358 36.8893C63.041 37.4262 64.5426 37.8026 65.907 37.8026C67.1032 37.8026 68.5116 37.3959 70.0658 36.8285C70.946 36.5071 71.9099 36.1194 72.9322 35.7082C73.7086 35.3958 74.5188 35.0699 75.3517 34.7492C79.2554 33.2461 83.8868 31.7627 89.11 31.7627C98.1316 31.7627 104.4 34.9645 108.412 38.1552C110.42 39.7525 111.865 41.3488 112.807 42.543C113.277 43.1399 113.622 43.6357 113.847 43.9801C113.87 44.0156 113.892 44.0495 113.913 44.0818Z" stroke="#92C9EC"/>
</svg>
