<svg width="73" height="72" fill="none" xmlns="http://www.w3.org/2000/svg"><rect x="7.181" width="58" height="37" rx="2" fill="#92C9EC"/><rect x="8.181" y="38" width="56" height="33" rx="1" stroke="#103654" stroke-width="2" stroke-miterlimit="3.864" stroke-dasharray="5 4"/><path stroke="#fff" stroke-width="2" d="M16.18 15h15M16.18 22h15M16.18 8h15M16.18 37h41M16.18 30h41"/><path fill="#fff" d="M36.181 7h21v16h-21z"/><path d="M.18 37l72 .055" stroke="#103654" stroke-width="4"/><path stroke="#103654" stroke-width="2" d="M16.18 59h5M25.18 59h5M34.181 59h5M43.181 59h7M16.18 52h5M25.18 52h7.001M36.181 52h6M16.18 45h5M25.18 45h5M34.181 45h5M43.181 45h9"/></svg>