<svg width="94" height="125" fill="none" xmlns="http://www.w3.org/2000/svg"><path d="M87.428 8.4L93 45.503H-31l5.603-37.12" stroke="#92C9EC"/><path d="M87.454.5h-112.95v8h112.95v-8zM53.77 113.451H89M53.493 45.51v77.999m-80.997 0h117V45.51h-117v77.999zM53.389 87.515h-80.39M45.997 99.516H19.984M33.484 92.99v6.526M34.996 112.506H7.997M21.497 119.005v-6.499M60.495 79v8M89.5 21.5H-28M91 34.5H-29M72.501 8.5v37.01M51.487 8.5v37.01M31.497 8.5v37.01M11.5 8.5v37.01M-8.5 8.5v37.01" stroke="#92C9EC"/></svg>