<svg width="72" height="72" fill="none" xmlns="http://www.w3.org/2000/svg"><path fill-rule="evenodd" clip-rule="evenodd" d="M66.84 56.7c-2.792-4.209-9.54-7.404-15.28-9.04-5.74-1.637-7.582-5.28-7.175-6.975.408-1.696 1.667-1.169 2.943-3.587 1.088-2.061 1.827-6.876 1.827-6.876s2.617-.877 2.91-4.85c.29-3.976 0-5.437-.99-5.904-.99-.468-1.397-.41-1.397-.41s.646-5.654.651-6.838c.005-1.5.14-2.973-.279-4.5-1.51-5.494-6.88-5.336-14.14-5.22-7.26.118-8.257-.158-9.764 1.48-1.508 1.635-2.026.506-3.367 3.02-.81 1.52-.516 8.552-.516 8.552.243 1.99.516 3.506.516 3.506s-.407-.058-1.397.41c-.988.467-1.28 1.928-.988 5.904.29 3.973 2.908 4.85 2.908 4.85s.74 4.815 1.828 6.876c1.275 2.418 2.536 1.891 2.943 3.587.408 1.695-1.435 5.338-7.175 6.975-5.74 1.636-12.489 4.831-15.281 9.04-2.11 3.182-1.783 8.55-1.498 10.977.085.718 11.472 4.305 32.379 4.305 20.907 0 31.755-3.587 31.84-4.305.286-2.427.614-7.795-1.498-10.977z" fill="#92C9EC"/><path fill-rule="evenodd" clip-rule="evenodd" d="M18.91 17c0-9.389 7.835-17 17.5-17s17.5 7.611 17.5 17v6h-35v-6z" fill="#92C9EC"/><path fill="#fff" d="M17.91 16h37v3h-37zM30.91 30c2.4 0 5-2.121 6-3.182 1 1.06 3.6 3.182 6 3.182 3 0 5-3.182 5-7h-22c0 3.818 2 7 5 7z"/><path d="M31.41 27c-2 0-2.5-2-2.5-3l5 1c0 .667-.5 2-2.5 2zM42.41 27c2 0 2.5-2 2.5-3l-5 1c0 .667.5 2 2.5 2z" fill="#92C9EC"/><path d="M36.91 35.206c3.057 0 3.76 1.196 3.73 1.794h-7.46c-.03-.598.673-1.794 3.73-1.794z" fill="#fff"/></svg>