<svg xmlns="http://www.w3.org/2000/svg" width="68" height="35" viewBox="0 0 68 35"><title>icon-finance-banking</title><path d="M35,17.5A17.5,17.5,0,1,1,17.5,0,17.5,17.5,0,0,1,35,17.5Z" transform="translate(0 0)" fill="#92c9ec"/><path d="M35.12,25.86a19.53,19.53,0,0,0,0-16.72,17.5,17.5,0,1,1,0,16.72Z" transform="translate(0 0)" fill="#92c9ec"/><path d="M19,29.68v-2.2a5.83,5.83,0,0,0,5-5.68c0-6.15-8.37-5.6-8.37-8.83a2.43,2.43,0,0,1,2.65-2.37,5.77,5.77,0,0,1,3.65,1.5c.07.16.28.08.35-.08l1.15-2.37c.07-.08,0-.23-.07-.31A7.8,7.8,0,0,0,19,7.52V5.32A.33.33,0,0,0,18.72,5H17.29a.33.33,0,0,0-.29.32V7.6a5.57,5.57,0,0,0-4.73,5.52c0,5.84,8.37,5.52,8.37,8.84a2.35,2.35,0,0,1-2.58,2.36,6.57,6.57,0,0,1-4.22-1.89.24.24,0,0,0-.36.08l-1.43,2.21a.38.38,0,0,0,0,.39A9,9,0,0,0,17,27.48v2.2a.33.33,0,0,0,.29.32h1.44A.32.32,0,0,0,19,29.68Z" transform="translate(0 0)" fill="#103654"/><path d="M53.58,28a11.69,11.69,0,0,0,3.06-.44c.2-.06.41-.22.36-.45l-.58-2.81c0-.13-.13-.27-.29-.22a12.43,12.43,0,0,1-2.33.3A6.37,6.37,0,0,1,48.11,20h5.1c.14,0,.29-.07.29-.22l.3-1.49a.32.32,0,0,0-.3-.3h-6a9.35,9.35,0,0,1,0-2h6.39c.15,0,.29-.08.29-.23l.31-1.48a.31.31,0,0,0-.29-.3H48c.87-2.44,2.86-3.6,5.56-3.6a10.66,10.66,0,0,1,2,.22c.15,0,.29-.07.29-.22l.73-2.81c0-.15-.07-.29-.22-.29A16.68,16.68,0,0,0,53.58,7a9.52,9.52,0,0,0-9.52,7H42.29a.32.32,0,0,0-.29.3v1.41a.32.32,0,0,0,.29.3H43.6a9.33,9.33,0,0,0,0,2H42.29a.32.32,0,0,0-.29.3V19.7a.32.32,0,0,0,.29.3h1.64C45.1,24.44,48.77,28,53.58,28Z" transform="translate(0 0)" fill="#103654"/></svg>
