<svg width="72" height="72" viewBox="0 0 72 72" fill="none" xmlns="http://www.w3.org/2000/svg">
<path d="M0 4H72V37H47.1877L36 25.0833L25 37H0V4Z" fill="#103654"/>
<path d="M3 38.3505H22.3285C22.8993 38.3505 23.4429 38.1066 23.8224 37.6803L34.5061 25.6782C35.3016 24.7846 36.6984 24.7846 37.4939 25.6782L48.1776 37.6803C48.5571 38.1066 49.1007 38.3505 49.6715 38.3505H69V70C69 71.1046 68.1046 72 67 72H5C3.89543 72 3 71.1046 3 70V38.3505Z" fill="#92C9EC"/>
<rect x="52" y="45" width="9" height="13" rx="2" fill="white"/>
<rect x="11" y="45" width="9" height="13" rx="2" fill="white"/>
<path d="M28 51C28 46.5817 31.5817 43 36 43C40.4183 43 44 46.5817 44 51V72H28V51Z" fill="white"/>
<path d="M2 38H24.037L36 24L47.963 38H70" stroke="white" stroke-width="2"/>
</svg>
