<svg width="89" height="90" fill="none" xmlns="http://www.w3.org/2000/svg"><path d="M44.371 51.843c-23.194 0-42.079-6.36-43.257-14.352H1v14.562c0 8.362 19.418 15.138 43.371 15.138 23.953 0 43.371-6.776 43.371-15.138V37.491h-.114C86.45 45.484 67.565 51.843 44.37 51.843" stroke="#77BCE8"/><path d="M44.371 31.47c-23.194 0-42.079-6.358-43.257-14.351H1V31.68c0 8.362 19.418 15.138 43.371 15.138 23.953 0 43.371-6.776 43.371-15.138V17.119h-.114C86.45 25.11 67.565 31.47 44.37 31.47M44.371 73.652c-23.194 0-42.079-6.36-43.257-14.352H1v14.562C1 82.225 20.418 89 44.371 89c23.953 0 43.371-6.775 43.371-15.138V59.3h-.114C86.45 67.293 67.565 73.652 44.37 73.652M5.807 65.465v15.381M15.448 69.975v15.358M25.089 72.041v15.126M34.73 73.365V89M44.371 73.875V89M54.012 73.365V89M63.653 72.041v15.126M73.294 70.208v15.125M82.935 65.625V80.75M5.807 43.656v15.381M15.448 48.166v15.358M25.089 50.232v15.125M34.73 51.556V67.19M44.371 52.066V67.19M54.012 51.556V67.19M63.653 50.232v15.125M73.294 48.399v15.125M82.935 43.816V58.94M5.807 23.283v15.382M15.448 27.794v15.358M25.089 29.86v15.125M34.73 31.183v15.635M44.371 31.694v15.125M54.012 31.183V46.82M63.653 29.86v15.125M73.294 28.027v15.125M82.935 23.444v15.125" stroke="#77BCE8"/><path d="M87.742 16.556c0 8.36-19.418 15.137-43.371 15.137C20.418 31.694 1 24.916 1 16.556c.001-8.36 19.417-15.138 43.37-15.138 23.953 0 43.37 6.778 43.37 15.138" stroke="#77BCE8"/></svg>