<svg width="72" height="72" fill="none" xmlns="http://www.w3.org/2000/svg">
  <g clip-path="url(#a)" stroke="#92C9EC">
    <rect x=".5" y="6.5" width="52" height="39" rx="3.5"/>
    <path d="m30.71 37.473 9.756-9.876L52.5 40.248v2.142a3.5 3.5 0 0 1-3.5 3.5H4a3.5 3.5 0 0 1-3.5-3.5v-3.118c.3-.32 1.013-1.092 1.997-2.157 1.11-1.202 2.565-2.776 4.157-4.495 3.215-3.467 7.006-7.537 9.715-10.372l13.613 15.207.355.397.373-.379Z"/>
    <circle cx="32" cy="18" r="4.5"/>
    <rect x="19.5" y="27.5" width="52" height="39" rx="3.5" fill="#fff"/>
    <path d="m53.28 44.12-10.835-5.417a2 2 0 0 0-2.894 1.789v10.834a2 2 0 0 0 2.894 1.788l10.834-5.416c1.474-.737 1.474-2.841 0-3.578Z"/>
  </g>
  <defs>
    <clipPath id="a">
      <path fill="#fff" d="M0 0h72v72H0z"/>
    </clipPath>
  </defs>
</svg>
