<svg width="72" height="72" viewBox="0 0 72 72" fill="none" xmlns="http://www.w3.org/2000/svg">
<path d="M3.2 56.1434V53.7535H8.8V24.2782H5.6V21.0917L8.8 11.5322H12.8V7.54906H24.8V2.76929H47.2V7.54906H59.2V11.5322H63.2L66.4 21.0917V24.2782H63.2V53.7535H68.8V56.1434H72V60.9231H0V56.1434H3.2ZM20 14.7187H16V21.0917H20V14.7187ZM27.2 14.7187H23.2V21.0917H27.2V14.7187ZM34.4 14.7187H30.4V21.0917H34.4V14.7187ZM56 14.7187H52V21.0917H56V14.7187ZM60.88 14.7187H59.2V21.0917H63.04L60.88 14.7187ZM44.8 53.7535H59.2V29.058H44.8V53.7535ZM44.8 21.0917H48.8V14.7187H44.8V21.0917ZM41.6 14.7187H37.6V21.0917H41.6V14.7187ZM12.8 44.9906H40.8V29.058H12.8V44.9906ZM12.8 21.0917V14.7187H11.12L8.96 21.0917H12.8Z" fill="#92C9EC"/>
</svg>
