<svg width="72" height="72" fill="none" xmlns="http://www.w3.org/2000/svg"><path d="M15.928 14.524S5.071 11.132 4.044 20.423c-1.027 9.29 16.248 20.499 16.248 20.499M56.011 14.524s10.857-3.392 11.884 5.899c1.028 9.29-16.9 20.72-16.9 20.72" stroke="#92C9EC" stroke-width="2"/><path d="M23.707 69.228a15.11 15.11 0 005.939-12.018v-5.152s1.89.903 5.864.861c3.973-.041 5.8-.861 5.8-.861v4.617c0 4.956 2.422 9.597 6.479 12.413l2.623 1.821c.48.333.246 1.091-.34 1.091h-28.23c-.57 0-.814-.729-.36-1.076l2.225-1.696z" fill="#92C9EC"/><path fill-rule="evenodd" clip-rule="evenodd" d="M13.447 7.552s9.227-1.918 21.634-1.918c12.405 0 23.381 1.918 23.381 1.918l-4.669 29.385c-1.56 8.896-9.25 15.381-18.236 15.381-9.17 0-16.959-6.745-18.314-15.86L13.448 7.551z" fill="#92C9EC" stroke="#fff" stroke-width="2"/><path fill-rule="evenodd" clip-rule="evenodd" d="M46.289 30.15c0 5.976-4.82 10.821-10.766 10.821-5.945 0-10.763-4.845-10.763-10.82 0-5.976 4.818-10.82 10.763-10.82 5.946 0 10.766 4.844 10.766 10.82z" fill="#103654"/><path fill-rule="evenodd" clip-rule="evenodd" d="M36.846 34.952h-1.76v-7.174a2.864 2.864 0 01-1.208.498l-.152-1.494c.147-.037.31-.106.494-.207.184-.102.36-.224.53-.367.17-.142.322-.293.454-.455.133-.161.23-.32.295-.478h1.347v9.677z" fill="#fff"/><path fill-rule="evenodd" clip-rule="evenodd" d="M42.04 18.002H29.48v-1.804h12.56v1.803z" fill="#92C9EC"/><path fill-rule="evenodd" clip-rule="evenodd" d="M40.81.087L30.684 14.965h3.658L44.282.087H40.81zm5.737 0L36.42 14.965h3.658L50.018.087h-3.471z" fill="#103654"/><path opacity=".591" fill-rule="evenodd" clip-rule="evenodd" d="M24.381.087l10.127 14.878H30.85L20.91.087h3.471zm5.737 0l10.127 14.878h-3.659L26.646.087h3.472z" fill="#103654"/></svg>