<svg width="72" height="72" fill="none" xmlns="http://www.w3.org/2000/svg"><path d="M15.462 27.136c.3-8.526 5.565-25.49 24.233-25.13 18.668.359 24.233 16.903 24.681 25.13" stroke="#103654" stroke-width="3"/><path d="M53.879 58.1H51.4c-.477 0-.885.337-1.003.799a19.23 19.23 0 0 1-.768 2.342c-1.47 3.68-4.449 7.902-9.37 7.629-4.82-.268-7.942-4.213-9.59-7.629a18.73 18.73 0 0 1-.965-2.4 1.05 1.05 0 0 0-.988-.741h-2.054a1 1 0 0 1-.965-.737l-1.512-5.546-2.326-8.526c-1.205-6.103-1.72-15.28.681-22.886 1.818-5.76 5.308-10.618 11.436-12.558 1.846-.585 3.931-.905 6.282-.905 2.354 0 4.439.325 6.283.922 5.973 1.932 9.413 6.716 11.213 12.54 2.732 8.836 1.692 20.067.006 27.375l-1.23 4.038-1.696 5.574a1 1 0 0 1-.956.709Z" fill="#92C9EC"/><path d="m24.186 51.817 1.512 5.546a1 1 0 0 0 .965.737h2.054c.455 0 .85.308.988.741.232.723.552 1.545.965 2.4m-6.484-9.424-2.326-8.526c-1.205-6.103-1.72-15.28.681-22.886m1.645 31.412h9.688a1 1 0 0 1 1 1v7.424a1 1 0 0 1-1 1H30.67m0 0c1.648 3.416 4.77 7.361 9.59 7.629 4.921.273 7.9-3.949 9.37-7.629m6.902-9.424 1.229-4.038c1.686-7.308 2.726-18.539-.006-27.374m-1.223 31.412-1.697 5.574a1 1 0 0 1-.956.709H51.4c-.477 0-.885.337-1.003.799a19.23 19.23 0 0 1-.768 2.342m6.902-9.424h-9.887a1 1 0 0 0-1 1v7.424a1 1 0 0 0 1 1h2.985M46.542 7.864c-1.844-.597-3.93-.922-6.283-.922-2.35 0-4.436.32-6.282.905m12.565.017V24.34a1 1 0 0 0 1 1h3.834a1 1 0 0 0 1-1v-2.936a1 1 0 0 1 1-1h4.38M46.541 7.864c5.973 1.932 9.413 6.716 11.213 12.54m-35.214 0h4.153a1 1 0 0 1 1 1v2.937a1 1 0 0 0 1 1h4.283a1 1 0 0 0 1-1v-3.039m-11.436-.897c1.818-5.76 5.308-10.618 11.436-12.558m0 8.519v-8.52" stroke="#103654" stroke-width="3" stroke-linecap="round"/><circle cx="48.786" cy="38.803" r="2.539" stroke="#103654" stroke-width="3"/><circle cx="32.631" cy="38.803" r="2.539" stroke="#103654" stroke-width="3"/><rect x="10.078" y="25.79" width="10.77" height="20.643" rx="5" fill="#103654"/><rect x="59.44" y="25.79" width="10.77" height="20.643" rx="5" fill="#103654"/><path d="M11.873 34.765H8a6 6 0 0 0-6 6v19.412a6 6 0 0 0 6 6h1.629" stroke="#103654" stroke-width="3"/><rect x="10.078" y="62.587" width="13.463" height="7.18" rx="3.59" fill="#92C9EC" stroke="#103654" stroke-width="3"/></svg>