<svg xmlns="http://www.w3.org/2000/svg" width="58" height="89" fill="none" viewBox="0 0 58 89"><rect width="40" height="60" x="3" y="15" fill="#92C9EC" rx="3"/><path fill="#92C9EC" d="M9 9a1 1 0 0 1 1-1h26a1 1 0 0 1 1 1v3H9V9zM0 73a1 1 0 0 1 1-1h44a1 1 0 0 1 1 1v5H0v-5zM13 5a1 1 0 0 1 1-1h18a1 1 0 0 1 1 1v3H13V5zm4-4a1 1 0 0 1 1-1h10a1 1 0 0 1 1 1v3H17V1z"/><path fill="#fff" d="M26 24h10v10H26zm-16 0h10v10H10zm16 16h10v10H26zm-16 0h10v10H10zm0 16h10v10H10z"/><circle cx="40.5" cy="71.5" r="16" fill="#103654" stroke="#fff" stroke-width="3"/><path stroke="#fff" d="M30.37 77.5L40.5 60l10.13 17.5H30.37zm1.13-1l14-8m4 8l-14-8"/><circle cx="49.5" cy="76.5" r="2" fill="#103654" stroke="#fff"/><circle cx="31.5" cy="76.5" r="2" fill="#103654" stroke="#fff"/><circle cx="40.5" cy="60.5" r="2" fill="#103654" stroke="#fff"/><circle cx="35.5" cy="68.5" r="2" fill="#103654" stroke="#fff"/><circle cx="45.5" cy="68.5" r="2" fill="#103654" stroke="#fff"/></svg>
