<svg width="72" height="72" fill="none" xmlns="http://www.w3.org/2000/svg"><path fill-rule="evenodd" clip-rule="evenodd" d="M9.897 23a2.897 2.897 0 00-.124 5.791l17.616.75v39.505a2.954 2.954 0 005.903.18l1.106-18.252c0-3.186 3.823-3.664 5.735-1.912a502.86 502.86 0 013.566 3.294.999.999 0 01-.116 1.555l-5.586 3.91a3.148 3.148 0 003.339 5.33l9.968-5.56a4.314 4.314 0 001.275-6.453l-7.986-10.04V29.6l17.62-.801A2.9 2.9 0 0062.082 23H9.897z" fill="#92C9EC"/><circle cx="36" cy="11.001" r="8" fill="#92C9EC"/><path d="M17 4h2V0h-2v4zM2 2V0a2 2 0 00-2 2h2zM0 17v2h4v-2H0zM17 0H2v4h15V0zM4 17V2H0v15h4zM4 56v-2H0v2h4zM2 70H0a2 2 0 002 2v-2zm14 2h2v-4h-2v4zM0 56v14h4V56H0zm16 12H2v4h14v-4zM56 4h-2V0h2v4zm14-2V0a2 2 0 012 2h-2zm2 14v2h-4v-2h4zM56 0h14v4H56V0zm12 16V2h4v14h-4zM68 56v-2h4v2h-4zm2 14h2a2 2 0 01-2 2v-2zm-14 2h-2v-4h2v4zm16-16v14h-4V56h4zM56 68h14v4H56v-4z" fill="#103654"/><path d="M10.5 25.5H36m25 0H36m0 0V39m0 0l14 14.5-9.5 6.5M36 39l-5.5 7v22" stroke="#103654"/><circle cx="10.5" cy="25.5" r="1.5" fill="#103654"/><circle cx="49.5" cy="53.501" r="1.5" fill="#103654"/><circle cx="39.5" cy="60.501" r="1.5" fill="#103654"/><circle cx="30.5" cy="68.501" r="1.5" fill="#103654"/><circle cx="30.5" cy="46.501" r="1.5" fill="#103654"/><circle cx="43.5" cy="46.501" r="1.5" fill="#103654"/><circle cx="30.5" cy="57.501" r="1.5" fill="#103654"/><circle cx="36" cy="40.001" r="2" fill="#103654"/><circle cx="61.5" cy="25.5" r="1.5" fill="#103654"/><circle cx="36" cy="26" r="2" fill="#103654"/></svg>