<svg width="88" height="88" fill="none" xmlns="http://www.w3.org/2000/svg"><mask id="a" maskUnits="userSpaceOnUse" x="0" y="0" width="88" height="88"><path fill="#C4C4C4" d="M0 0h88v88H0z"/></mask><g mask="url(#a)" stroke="#92C9EC"><path d="M96.578 22.374l-38.61 20.259-39.04-20.363L57.804 2.592l38.775 19.782zm0 0v41.944l-38.8 20.103m38.8-62.047L57.783 42.653l-.005 41.768m0 0V42.575L18.973 22.29v41.945L57.778 84.42zM74.07 10.964L35.03 30.67M81.658 14.964L42.618 34.67" stroke-linecap="round"/><path d="M42.593 34.707v16.88l-7.586-3.906V30.695M10.034 69.153l8.905-4.986M10.034 17.1l8.905 4.985M.5 72.632a3.725 3.725 0 0 0 3.717 3.731 3.725 3.725 0 0 0 3.718-3.731A3.725 3.725 0 0 0 4.217 68.9 3.725 3.725 0 0 0 .5 72.632zM.5 14.27a3.725 3.725 0 0 0 3.717 3.732 3.725 3.725 0 0 0 3.718-3.732 3.725 3.725 0 0 0-3.718-3.732A3.725 3.725 0 0 0 .5 14.27z"/></g></svg>