<svg width="27" height="26" fill="none" xmlns="http://www.w3.org/2000/svg"><path d="M12 6.138C12 3.202 13.923 1 17 1s5 2.202 5 5.138c0 3.437-1.204 5.724-2.692 6.862M11.527 13C10.134 13.74 7 15.222 7 18.185V21.5a1 1 0 001 1h15.5a3 3 0 003-3v-1.315c0-2.368-2.002-3.79-3.517-4.643" stroke="#51A9E1" stroke-linecap="round"/><path d="M1 20.185C1 17.222 4.214 15.741 5.643 15h10.714c1.429.74 4.643 2.222 4.643 5.185V24a1 1 0 01-1 1H2a1 1 0 01-1-1v-3.815z" fill="#fff"/><path d="M6 8.2c0 5.2 2.692 7.8 5 7.8s5-2.6 5-7.8C16 5.229 14.077 3 11 3S6 5.229 6 8.2z" fill="#fff" stroke="#51A9E1" stroke-linecap="round"/><path d="M5.863 15c-1.357.778-4.41 2.333-4.41 5.444v2.057a3 3 0 003 2.999h13a3 3 0 003-3v-2.056c0-2.645-2.208-4.165-3.704-5.04" stroke="#51A9E1" stroke-linecap="round"/></svg>