<svg width="72" height="72" fill="none" xmlns="http://www.w3.org/2000/svg"><path d="M61.102 24.898A35.5 35.5 0 0171.497 49.5H53.316a17.324 17.324 0 00-4.511-11.167L59.84 23.697c.43.39.85.79 1.261 1.2zM15.271 21.18a35.5 35.5 0 0141.458 0L45.78 35.7a17.324 17.324 0 00-19.558 0l-10.95-14.52zm7.924 17.152a17.324 17.324 0 00-4.51 11.167H.503a35.5 35.5 0 0111.655-25.803l11.036 14.636zM37.96 57.957c-.502 1.098-1.918 1.605-3.211 1.015-1.294-.59-1.84-1.992-1.338-3.09.14-.309.826-1.451 1.828-3.059.99-1.588 2.263-3.587 3.548-5.576a376.883 376.883 0 013.621-5.512c.222-.33.432-.64.627-.925-.088.334-.184.696-.288 1.08a377.061 377.061 0 01-1.79 6.347 436.983 436.983 0 01-1.886 6.334c-.557 1.811-.97 3.078-1.111 3.386z" stroke="#92C9EC"/></svg>