<svg width="88" height="89" viewBox="0 0 88 89" fill="none" xmlns="http://www.w3.org/2000/svg">
<path d="M24.7872 6.84229C34.3021 6.84229 41.5603 13.5571 44 16.9146C46.4397 13.5571 53.6979 6.84229 63.2128 6.84229C75.1064 6.84229 87 15.0832 87 31.5652C87 53.5411 70.5319 63.6134 44 82.8423C17.4681 63.6134 1 53.5411 1 31.5652C1 15.0832 12.8936 6.84229 24.7872 6.84229Z" stroke="#92C9EC"/>
<mask id="path-2-outside-1" maskUnits="userSpaceOnUse" x="26" y="26.8423" width="36" height="36" fill="black">
<rect fill="white" x="26" y="26.8423" width="36" height="36"/>
<path fill-rule="evenodd" clip-rule="evenodd" d="M49.6668 27.8423H39.0001V39.5091L27 39.5091V50.1758H39.0001V61.8423H49.6668V50.1758H61V39.5091L49.6668 39.5091V27.8423Z"/>
</mask>
<path fill-rule="evenodd" clip-rule="evenodd" d="M49.6668 27.8423H39.0001V39.5091L27 39.5091V50.1758H39.0001V61.8423H49.6668V50.1758H61V39.5091L49.6668 39.5091V27.8423Z" fill="white"/>
<path d="M39.0001 27.8423V26.8423H38.0001V27.8423H39.0001ZM49.6668 27.8423H50.6668V26.8423H49.6668V27.8423ZM39.0001 39.5091L39.0001 40.5091L40.0001 40.5091V39.5091H39.0001ZM27 39.5091L27 38.5091L26 38.5091V39.5091H27ZM27 50.1758H26V51.1758H27V50.1758ZM39.0001 50.1758H40.0001V49.1758H39.0001V50.1758ZM39.0001 61.8423H38.0001V62.8423H39.0001V61.8423ZM49.6668 61.8423V62.8423H50.6668V61.8423H49.6668ZM49.6668 50.1758V49.1758H48.6668V50.1758H49.6668ZM61 50.1758V51.1758H62V50.1758H61ZM61 39.5091H62V38.5091L61 38.5091L61 39.5091ZM49.6668 39.5091H48.6668V40.5091L49.6668 40.5091L49.6668 39.5091ZM39.0001 28.8423H49.6668V26.8423H39.0001V28.8423ZM40.0001 39.5091V27.8423H38.0001V39.5091H40.0001ZM27 40.5091L39.0001 40.5091L39.0001 38.5091L27 38.5091L27 40.5091ZM28 50.1758V39.5091H26V50.1758H28ZM39.0001 49.1758H27V51.1758H39.0001V49.1758ZM40.0001 61.8423V50.1758H38.0001V61.8423H40.0001ZM49.6668 60.8423H39.0001V62.8423H49.6668V60.8423ZM48.6668 50.1758V61.8423H50.6668V50.1758H48.6668ZM61 49.1758H49.6668V51.1758H61V49.1758ZM60 39.5091V50.1758H62V39.5091H60ZM49.6668 40.5091L61 40.5091L61 38.5091L49.6668 38.5091L49.6668 40.5091ZM48.6668 27.8423V39.5091H50.6668V27.8423H48.6668Z" fill="#92C9EC" mask="url(#path-2-outside-1)"/>
</svg>
