<svg width="88" height="88" fill="none" xmlns="http://www.w3.org/2000/svg"><path d="M83.135 6.825L87 32.56H1L4.886 6.815M83 1.5H4.97v5.242H83V1.5zM59.792 79.683h24.434M59.6 32.563V86.66m-56.175 0H84.57V32.563H3.425V86.66zM59.528 61.696H3.774M54.4 70.02H36.36M45.723 65.492v4.527M22.49 74.167H3.77M13.134 69.661v4.162M46.772 79.028H28.047M37.41 83.535v-4.507M64.456 55.79v5.549M84.573 15.911H3.08M85.613 24.927H2.387M72.783 6.895v25.668M58.21 6.895v25.668M44.344 6.895v25.668M30.476 6.895v25.668M16.605 6.895v25.668" stroke="#92C9EC"/></svg>