<svg width="54" height="54" viewBox="0 0 54 54" fill="none" xmlns="http://www.w3.org/2000/svg">
<path d="M12.1562 3.5H13.6562V0.5H12.1562V3.5ZM2 2V0.5C1.17157 0.5 0.5 1.17157 0.5 2L2 2ZM0.5 12.1562L0.5 13.6562H3.5L3.5 12.1562H0.5ZM12.1562 0.5H2V3.5H12.1562V0.5ZM3.5 12.1562L3.5 2L0.5 2L0.5 12.1562H3.5Z" fill="#103654"/>
<path d="M12.1562 3.5H13.6562V0.5H12.1562V3.5ZM2 2V0.5C1.17157 0.5 0.5 1.17157 0.5 2L2 2ZM0.5 12.1562L0.5 13.6562H3.5L3.5 12.1562H0.5ZM12.1562 0.5H2V3.5H12.1562V0.5ZM3.5 12.1562L3.5 2L0.5 2L0.5 12.1562H3.5Z" fill="#103654"/>
<path d="M3.5 41.8437L3.5 40.3437L0.499999 40.3438L0.5 41.8438L3.5 41.8437ZM2 52L0.5 52C0.5 52.8284 1.17157 53.5 2 53.5L2 52ZM12.1563 53.5L13.6563 53.5L13.6563 50.5L12.1563 50.5L12.1563 53.5ZM0.5 41.8438L0.5 52L3.5 52L3.5 41.8437L0.5 41.8438ZM12.1563 50.5L2 50.5L2 53.5L12.1563 53.5L12.1563 50.5Z" fill="#103654"/>
<path d="M41.8438 3.5H40.3438V0.5H41.8438V3.5ZM52 2V0.5C52.8284 0.5 53.5 1.17157 53.5 2L52 2ZM53.5 12.1562L53.5 13.6562H50.5L50.5 12.1562H53.5ZM41.8438 0.5H52V3.5H41.8438V0.5ZM50.5 12.1562L50.5 2L53.5 2L53.5 12.1562H50.5Z" fill="#103654"/>
<path d="M50.5 41.8437L50.5 40.3437L53.5 40.3438L53.5 41.8438L50.5 41.8437ZM52 52L53.5 52C53.5 52.8284 52.8284 53.5 52 53.5L52 52ZM41.8437 53.5L40.3437 53.5L40.3438 50.5L41.8438 50.5L41.8437 53.5ZM53.5 41.8438L53.5 52L50.5 52L50.5 41.8437L53.5 41.8438ZM41.8438 50.5L52 50.5L52 53.5L41.8437 53.5L41.8438 50.5Z" fill="#103654"/>
<path d="M11.375 43.2075C12.7854 42.5838 14.2473 42.0695 15.6284 41.679C19.781 40.5039 21.1142 37.8887 20.8194 36.672C20.6744 36.0733 20.38 35.8607 20.0084 35.5925C19.6248 35.3155 19.1589 34.9792 18.6903 34.0973C17.9025 32.618 17.3676 29.162 17.3676 29.162C17.3676 29.162 15.4741 28.5328 15.2641 25.6805C15.0529 22.8271 15.2641 21.778 15.9788 21.4426C16.6947 21.1072 16.9894 21.1488 16.9894 21.1488C16.9894 21.1488 16.7921 20.0604 16.6158 18.632C16.6158 18.632 16.0507 13.4711 16.6367 12.3804C17.1912 11.3489 17.6665 11.2088 18.1756 11.0586C18.5571 10.9461 18.9576 10.8279 19.4248 10.3251C19.6139 10.1214 19.7726 9.9051 19.9332 9.68628C20.699 8.64275 21.5072 7.54149 25.8492 7.4717C31.1018 7.38842 35.6268 9.06669 36.7186 13.0096C36.9638 13.8973 36.9466 14.7591 36.9293 15.6265C36.9252 15.8306 36.9212 16.035 36.9205 16.2401C36.917 17.0902 36.4494 21.1488 36.4494 21.1488C36.4494 21.1488 36.7441 21.1072 37.46 21.4426C38.1759 21.778 38.3859 22.8271 38.1759 25.6805C37.9648 28.5328 36.0712 29.162 36.0712 29.162C36.0712 29.162 35.5363 32.618 34.7496 34.0973C34.2806 34.979 33.8148 35.3154 33.4314 35.5923C33.0598 35.8606 32.7656 36.0731 32.6205 36.672C32.3258 37.8887 33.6578 40.5039 37.8104 41.679C39.1198 42.0492 40.5018 42.5307 41.8438 43.1112C37.314 44.7904 32.0688 45.75 26.4781 45.75C20.9951 45.75 15.8444 44.827 11.375 43.2075Z" fill="#92C9EC"/>
</svg>
