<svg width="88" height="89" fill="none" xmlns="http://www.w3.org/2000/svg"><path d="M16 74.045h28.484M16.5 58.5h31.496v30H16.5z" stroke="#92C9EC"/><path stroke="#92C9EC" d="M44.589 58.5h3.406v30h-3.406zM16.5 58.5h3.406v30H16.5zM44.292 87.097h3.847M44.292 82.747h3.847M44.292 78.396h3.847M44.292 74.045h3.847M44.292 69.694h3.847M44.292 65.343h3.847M44.292 60.992h3.847M16.55 87.097h3.848M16.55 82.747h3.848M16.55 78.396h3.848M16.55 74.045h3.848M16.55 69.694h3.848M16.55 65.343h3.848M16.55 60.992h3.848M42.445 31.33V14.76m23.292 11.57V9.76m-23.292 5V6.473l23.292-5V9.76m-23.292 5l23.292-5"/><ellipse cx="36.997" cy="31.621" rx="5.448" ry="5.379" stroke="#92C9EC"/><ellipse cx="59.949" cy="26.552" rx="5.788" ry="5.715" stroke="#92C9EC"/></svg>