<svg width="72" height="72" viewBox="0 0 72 72" fill="none" xmlns="http://www.w3.org/2000/svg">
<g clip-path="url(#clip0)">
<path d="M0 0H72V72H0V0Z" fill="white"/>
<circle cx="36" cy="36" r="34" stroke="#92C9EC" stroke-width="4"/>
<path d="M36.001 14.062L17.7985 5.68794L36.001 0.939453L52.8938 5.17184L36.001 14.062Z" fill="#92C9EC"/>
<path d="M22.5168 53.7953L27.9147 70.3042L11.9151 61.9433L2.3154 46.8731L22.5168 53.7953Z" fill="#92C9EC"/>
<path d="M49.4858 53.7953L44.3268 70.9236L58.1578 63.2854L70.0288 46.5635L49.4858 53.7953Z" fill="#92C9EC"/>
<path d="M36.0003 20.8206L39.3214 22.8194C42.2884 24.6052 45.0953 26.6445 47.7105 28.9145L50.6379 31.4553L49.7631 35.2316C48.9816 38.6052 47.9094 41.9049 46.5587 45.0936L45.0468 48.6628L41.1851 48.9977C37.7351 49.297 34.2656 49.297 30.8155 48.9977L26.9538 48.6628L25.4419 45.0936C24.0912 41.9049 23.0191 38.6052 22.2376 35.2316L21.3628 31.4553L24.2901 28.9145C26.9054 26.6445 29.7122 24.6052 32.6792 22.8194L36.0003 20.8206Z" fill="#92C9EC"/>
<path d="M14.2091 29.9474L10.2633 11.4682L2.21229 26.4352L2.21229 45.0151L14.2091 29.9474Z" fill="#92C9EC"/>
<path d="M57.7915 30.1239L62.3079 13.8465L67.8492 27.657L68.4804 43.6736L57.7915 30.1239Z" fill="#92C9EC"/>
</g>
<defs>
<clipPath id="clip0">
<path d="M0 0H72V72H0V0Z" fill="white"/>
</clipPath>
</defs>
</svg>
