<svg width="72" height="72" fill="none" xmlns="http://www.w3.org/2000/svg">
  <g clip-path="url(#a)" stroke="#92C9EC">
    <path d="M23.437 55.127h-.002a.795.795 0 0 0-.42.718l.047 3.258a.81.81 0 0 0 .44.705h.002l3.165 1.59.375.19-.12.401-1.014 3.386-.001.002a.788.788 0 0 0 .205.8l.008.008 2.33 2.276c.221.215.534.28.81.19l3.373-1.114.398-.131.2.369 1.68 3.117.001.002c.139.26.411.424.717.42l3.258-.047a.81.81 0 0 0 .705-.44l.001-.002 1.59-3.165.188-.375.402.12 3.403 1.016a.772.772 0 0 0 .786-.206l.006-.007 2.277-2.344.007-.007a.788.788 0 0 0 .182-.805v-.002l-1.112-3.356-.132-.398.37-.199 3.117-1.681.002-.001a.81.81 0 0 0 .42-.717l-.047-3.258a.795.795 0 0 0-.44-.705h-.003l-3.165-1.591-.374-.188.12-.402 1.015-3.403a.801.801 0 0 0-.212-.805l-2.343-2.263-.008-.008a.772.772 0 0 0-.79-.183h-.001l-3.373 1.114-.398.131-.199-.369-1.68-3.118-.002-.002a.81.81 0 0 0-.717-.42l-3.258.048a.795.795 0 0 0-.704.44l-.001.002-1.59 3.165-.189.374-.401-.12-3.404-1.015a.801.801 0 0 0-.805.213l-.358-.348.358.348-2.264 2.33a.801.801 0 0 0-.19.811l1.114 3.373.131.398-.368.199-3.118 1.68Zm20.02 2.045a6.412 6.412 0 0 1-6.313 6.5c-3.522.05-6.435-2.781-6.486-6.315-.05-3.521 2.78-6.434 6.3-6.485 3.535-.051 6.449 2.778 6.5 6.3ZM6.467 37.516v.002a.468.468 0 0 0 .013.49l1.315 2.049c.094.147.27.232.44.216h.001l2.637-.24.418-.038.11.405.692 2.549v.001c.052.182.19.305.349.337l.01.002 2.377.526a.473.473 0 0 0 .466-.157l1.701-2.038.269-.321.364.208 2.297 1.316h.002c.15.087.337.085.49-.013l2.049-1.315a.479.479 0 0 0 .216-.44v-.002l-.24-2.636-.038-.417.405-.11 2.56-.699a.45.45 0 0 0 .327-.343l.002-.01.52-2.386.003-.009a.463.463 0 0 0-.16-.457l-.002-.002-2.03-1.69-.321-.269.208-.364 1.316-2.297v-.002a.479.479 0 0 0-.012-.49l-1.316-2.049a.468.468 0 0 0-.44-.216h-.001l-2.637.24-.417.038-.11-.405-.699-2.56a.473.473 0 0 0-.357-.337l-2.38-.512-.01-.003a.45.45 0 0 0-.449.154l-1.701 2.038-.269.321-.364-.208-2.297-1.316h-.002a.479.479 0 0 0-.489.013l-2.05 1.315a.467.467 0 0 0-.216.44v.002l.24 2.636.038.417-.405.11-2.56.699a.472.472 0 0 0-.337.358l-.489-.107.489.107-.518 2.372a.473.473 0 0 0 .157.466l2.038 1.701.321.269-.208.364-1.316 2.297Zm13.513-6.732a4.918 4.918 0 0 1-1.482 6.79c-2.274 1.46-5.319.795-6.783-1.486a4.914 4.914 0 0 1 1.479-6.777c2.281-1.465 5.326-.802 6.786 1.473ZM32.323 17.008l-.002.001a1.324 1.324 0 0 0-.715 1.184l.004 4.59c0 .492.282.959.717 1.182l.002.001 4.428 2.301.372.194-.126.4-1.494 4.751v.002a1.314 1.314 0 0 0 .327 1.339l.007.007 3.239 3.252c.361.36.88.479 1.344.332l4.771-1.503.4-.126.194.372L48.1 39.71v.002c.227.437.677.716 1.185.716l4.59-.004c.492 0 .959-.283 1.182-.718l.001-.001 2.301-4.428.193-.372.4.126 4.774 1.495c.467.146.98.024 1.319-.328l.006-.007 3.253-3.258.007-.006c.348-.337.474-.85.325-1.34v-.001l-1.503-4.75-.126-.4.372-.193 4.423-2.308.002-.001c.435-.225.716-.692.716-1.184l-.004-4.59c0-.508-.28-.958-.718-1.183h-.001l-4.428-2.301-.372-.194.126-.4 1.495-4.774a1.333 1.333 0 0 0-.334-1.342l-3.258-3.234-.007-.008a1.292 1.292 0 0 0-1.319-.326l-4.772 1.504-.4.126-.193-.372-2.308-4.424-.001-.001A1.345 1.345 0 0 0 53.84.515l-4.59.004c-.508 0-.958.28-1.183.717v.002l-2.301 4.428-.194.372-.4-.126L40.4 4.417a1.333 1.333 0 0 0-1.343.335l-.354-.354.354.354-3.234 3.239c-.36.361-.48.88-.333 1.344l1.504 4.772.126.4-.372.193-4.424 2.308Zm28.05 3.447c.005 4.866-3.946 8.824-8.813 8.828-4.848.004-8.805-3.948-8.81-8.814-.003-4.848 3.948-8.805 8.796-8.81 4.865-.003 8.824 3.947 8.828 8.796Z"/>
  </g>
  <defs>
    <clipPath id="a">
      <path fill="#fff" d="M0 0h72v72H0z"/>
    </clipPath>
  </defs>
</svg>
