<svg width="72" height="72" viewBox="0 0 72 72" fill="none" xmlns="http://www.w3.org/2000/svg">
<path fill-rule="evenodd" clip-rule="evenodd" d="M66 0H6C2.6916 0 0 2.6916 0 6V51C0 54.3084 2.6916 57 6 57H66C69.3084 57 72 54.3084 72 51V6C72 2.6916 69.3084 0 66 0ZM2.4 6C2.4 4.0152 4.0152 2.4 6 2.4H66C67.9848 2.4 69.6 4.0152 69.6 6V48H2.4V6Z" fill="#92C9EC"/>
<path d="M39 60H33V66H22.8C20.8152 66 19.2 67.6152 19.2 69.6V70.8C19.2 71.4636 19.7364 72 20.4 72H51.6C52.2636 72 52.8 71.4636 52.8 70.8V69.6C52.8 67.6152 51.1848 66 49.2 66H39V60Z" fill="#92C9EC"/>
<rect x="20" y="6" width="32" height="4" rx="2" fill="#103654"/>
<path d="M26.6554 20.7306C24.9678 19.7562 23.0204 19.3268 21.0795 19.5008C19.1385 19.6749 17.2987 20.4441 15.8113 21.7032C14.324 22.9624 13.2617 24.65 12.7697 26.5357C12.2777 28.4213 12.3799 30.4128 13.0624 32.2381C13.7449 34.0634 14.9743 35.6335 16.5827 36.7338C18.1912 37.834 20.1001 38.4108 22.0487 38.3852C23.9973 38.3597 25.8904 37.7331 27.4695 36.5911C29.0485 35.4491 30.2364 33.8473 30.8708 32.0047L21.9247 28.9245L26.6554 20.7306Z" fill="#92C9EC"/>
<path d="M30.1186 33.6553C30.7399 32.5793 31.1431 31.3914 31.3053 30.1595C31.4674 28.9276 31.3854 27.6759 31.0638 26.4757C30.7422 25.2755 30.1874 24.1505 29.431 23.1647C28.6746 22.179 27.7315 21.3519 26.6554 20.7306L21.9247 28.9245L30.1186 33.6553Z" fill="#EAF5FB"/>
<path d="M42.1092 33.6826C42.8282 35.0625 43.8764 36.2437 45.1609 37.1217C46.4455 37.9997 47.9268 38.5474 49.4736 38.7161C51.0203 38.8849 52.5849 38.6696 54.0286 38.0893C55.4723 37.509 56.7506 36.5817 57.7503 35.3893C58.7499 34.197 59.4401 32.7765 59.7597 31.2538C60.0793 29.731 60.0184 28.1529 59.5824 26.6593C59.1464 25.1656 58.3488 23.8026 57.2602 22.6908C56.1716 21.5791 54.8256 20.753 53.3415 20.2857L50.4999 29.3104L42.1092 33.6826Z" fill="#EAF5FB"/>
<path d="M42.6492 23.9733C41.8083 25.204 41.27 26.616 41.0784 28.0942C40.8867 29.5724 41.047 31.075 41.5462 32.4796C42.0453 33.8841 42.8693 35.1508 43.9509 36.1764C45.0325 37.2021 46.3412 37.9577 47.7702 38.3817C49.1992 38.8056 50.7082 38.886 52.1742 38.6161C53.6401 38.3463 55.0216 37.7339 56.206 36.8289C57.3904 35.9238 58.3442 34.7518 58.9897 33.4082C59.6352 32.0646 59.9541 30.5876 59.9204 29.0973L50.4613 29.3109L42.6492 23.9733Z" fill="#92C9EC"/>
<path d="M54.0912 20.557C52.0428 19.7166 49.7646 19.6212 47.6531 20.2873C45.5417 20.9535 43.7307 22.3391 42.5355 24.2028L50.4999 29.3104L54.0912 20.557Z" fill="#6E93AA"/>
</svg>
