<svg width="95" height="147" fill="none" xmlns="http://www.w3.org/2000/svg"><path d="M-19.5 49.618l45.775 23.937 46.284-24.059L26.47 26.245-19.5 49.618zm0 0v49.559l46 23.753m-46-73.312l45.994 23.96.005 49.352m0 0V73.486l46.009-23.965V99.08l-46.009 23.85zM7.185 36.137l46.284 23.285M-1.811 40.863l46.284 23.285" stroke="#92C9EC" stroke-linecap="round"/><path d="M44.503 64.19v19.945l8.994-4.615V59.45M83.104 104.89l-10.557-5.891M83.104 43.387l-10.557 5.89" stroke="#92C9EC"/><circle cx="90" cy="109" r="4.5" stroke="#92C9EC"/><circle cx="90" cy="40.043" r="4.5" stroke="#92C9EC"/><circle cx="26.278" cy="142" r="4.5" stroke="#92C9EC"/><circle cx="26.5" cy="5" r="4.5" stroke="#92C9EC"/><path d="M26.53 123v10.5M26.5 14.995v11.25" stroke="#92C9EC"/></svg>