<svg xmlns="http://www.w3.org/2000/svg" width="53" height="65" fill="none" viewBox="0 0 53 65"><path stroke="#92C9EC" stroke-width="2" d="M10.5555 11.3893s-8.56493-2.67627-9.37547 4.6534c-.810529 7.3297 12.81827 16.172 12.81827 16.172M42.1775 11.3893s8.5648-2.67627 9.3754 4.6534c.8105 7.3297-13.3334 16.3458-13.3334 16.3458"/><path fill="#92C9EC" d="M16.6925 54.5462c2.9518-2.2499 4.6852-5.7587 4.6852-9.4819V41s1.4919.7126 4.6261.6797C29.138 41.6467 30.5801 41 30.5801 41v3.643c0 3.9097 1.9102 7.5708 5.1107 9.7928l2.0693 1.4365c.3787.2626.1944.8603-.2677.8603H15.2217c-.4495 0-.6426-.5748-.2841-.8489l1.7549-1.3375z"/><path fill="#92C9EC" fill-rule="evenodd" stroke="#fff" stroke-width="2" d="M8.59839 5.88885S15.8775 4.37549 25.6655 4.37549c9.7867 0 18.4455 1.51336 18.4455 1.51336L40.4277 29.0709c-1.2305 7.0178-7.2969 12.1344-14.3871 12.1344-7.2339 0-13.3783-5.3216-14.4473-12.5128L8.59839 5.88885z" clip-rule="evenodd"/><path fill="#103654" fill-rule="evenodd" d="M34.507 23.7171c0 4.7143-3.8026 8.5365-8.4929 8.5365-4.6902 0-8.4916-3.8222-8.4916-8.5365 0-4.7142 3.8014-8.5364 8.4916-8.5364 4.6903 0 8.4929 3.8222 8.4929 8.5364z" clip-rule="evenodd"/><path fill="#fff" fill-rule="evenodd" d="M27.058 27.5048h-1.3888v-5.6597c-.303.2107-.6212.3427-.9532.3934l-.1199-1.1789c.1161-.0291.2449-.0837.3901-.1637.1452-.0799.2841-.1763.4179-.2893.1338-.1117.2537-.2309.3585-.3591.1048-.1269.1818-.2525.2323-.3769h1.0631v7.6342z" clip-rule="evenodd"/><path fill="#92C9EC" fill-rule="evenodd" d="M31.155 14.1325h-9.9082V12.71h9.9082v1.4225z" clip-rule="evenodd"/><path fill="#103654" fill-rule="evenodd" d="M30.1858 0l-7.9891 11.7369h2.8861L32.9242 0h-2.7384zm4.5256 0l-7.9892 11.7369h2.8861L37.4498 0h-2.7384z" clip-rule="evenodd"/><path fill="#103654" fill-rule="evenodd" d="M17.2246 0l7.9892 11.7369h-2.8861L14.4862 0h2.7384zm4.5256 0l7.9892 11.7369h-2.8861L19.0118 0h2.7384z" clip-rule="evenodd" opacity=".590777"/></svg>
