<svg width="72" height="72" fill="none" xmlns="http://www.w3.org/2000/svg"><path fill-rule="evenodd" clip-rule="evenodd" d="M47.512 14.556a30.927 30.927 0 00-16.44-4.7C13.912 9.856 0 23.767 0 40.928 0 58.088 13.911 72 31.072 72c17.16 0 31.072-13.911 31.072-31.072a30.927 30.927 0 00-4.754-16.525l-.745.745a29.904 29.904 0 014.473 15.78c0 16.594-13.452 30.046-30.046 30.046S1.026 57.522 1.026 40.928s13.452-30.046 30.046-30.046a29.905 29.905 0 0115.693 4.42l.747-.746zm-6.164 6.155a22.58 22.58 0 00-10.276-2.457c-12.523 0-22.674 10.151-22.674 22.674s10.151 22.674 22.674 22.674 22.674-10.151 22.674-22.674c0-3.738-.904-7.264-2.506-10.373l-.764.764a21.558 21.558 0 012.244 9.609c0 11.956-9.692 21.648-21.648 21.648S9.424 52.884 9.424 40.928 19.116 19.28 31.072 19.28c3.412 0 6.64.79 9.51 2.195l.766-.765zm2.899 3.039l.732-.732a22.805 22.805 0 013.938 3.92l-.73.732a21.775 21.775 0 00-3.94-3.92zm-9.365 3.416a14.29 14.29 0 00-3.81-.514c-7.885 0-14.276 6.391-14.276 14.276s6.391 14.276 14.276 14.276 14.276-6.391 14.276-14.276c0-1.364-.19-2.682-.548-3.931l-.84.84c.236.992.362 2.027.362 3.091 0 7.318-5.932 13.25-13.25 13.25s-13.25-5.932-13.25-13.25 5.932-13.25 13.25-13.25c1.019 0 2.011.115 2.964.333l.846-.845zm3.336 2.602l.743-.74a14.355 14.355 0 013.95 3.92l-.74.74a13.321 13.321 0 00-3.953-3.92zm15.94-8.071a30.22 30.22 0 00-3.931-3.918l.73-.728a31.263 31.263 0 013.93 3.917l-.73.729z" fill="#92C9EC"/><path d="M51.908 10.216l8.827-8.827v9.807h9.629l-8.649 8.827h-5.884L32.887 42.974l-3.945-3.944L51.908 16.1v-5.885z" fill="#fff"/><mask id="a" fill="#fff"><path fill-rule="evenodd" clip-rule="evenodd" d="M60.735 1.39l-8.827 8.825V16.1L32.862 35.116a6.2 6.2 0 103.94 3.942l19.03-19.035h5.883l8.649-8.827h-9.63V1.39z"/></mask><path d="M51.908 10.216l-.725-.726-.3.3v.426h1.025zm8.827-8.827h1.026v-2.478L60.01.663l.726.726zM51.908 16.1l.726.727.3-.3V16.1h-1.026zM32.862 35.117l-.322.974.6.2.447-.448-.725-.726zm3.94 3.942l-.726-.725-.447.447.198.6.975-.322zm19.03-19.035v-1.027h-.426l-.3.3.725.727zm5.883 0v1.026h.432l.302-.308-.733-.718zm8.649-8.827l.733.719 1.71-1.745h-2.443v1.026zm-9.63 0h-1.026v1.027h1.027v-1.027zm-8.1-.255l8.827-8.826L60.009.663 51.183 9.49l1.451 1.451zm.3 5.159v-5.885h-2.052V16.1h2.053zM33.588 35.842l19.047-19.016-1.45-1.453L32.136 34.39l1.45 1.452zm-.403-1.7a7.22 7.22 0 00-2.27-.365v2.053c.57 0 1.116.092 1.626.26l.644-1.948zm-2.27-.365a7.226 7.226 0 00-7.226 7.226h2.053a5.173 5.173 0 015.172-5.173v-2.053zm-7.226 7.226a7.226 7.226 0 007.225 7.226v-2.053a5.173 5.173 0 01-5.172-5.173h-2.053zm7.225 7.226a7.226 7.226 0 007.226-7.226h-2.053a5.173 5.173 0 01-5.173 5.173v2.053zm7.226-7.226c0-.79-.127-1.552-.363-2.267l-1.95.644c.169.51.26 1.054.26 1.623h2.053zm16.966-21.706l-19.03 19.036 1.453 1.45 19.03-19.035-1.453-1.451zm6.61-.3h-5.884v2.052h5.884v-2.053zm7.915-8.52l-8.648 8.827 1.467 1.437 8.648-8.826-1.467-1.437zm-8.895 1.746h9.629V10.17h-9.63v2.053zM59.708 1.389v9.807h2.053V1.39h-2.053z" fill="#92C9EC" mask="url(#a)"/></svg>