<svg width="72" height="72" fill="none" xmlns="http://www.w3.org/2000/svg"><rect x="1.855" y="2" width="68" height="68" rx="2" fill="#92C9EC"/><path d="M55.88 59h-7.21L30.96 38l-4.69 5.32V59h-5.81V12.31h5.81v24.15l20.65-24.15h7.28L34.74 34.5 55.88 59z" fill="#fff"/><path d="M15.813 4h2V0h-2v4zM2 2V0a2 2 0 0 0-2 2h2zM0 15.813v2h4v-2H0zM15.813 0H2v4h13.813V0zM4 15.813V2H0v13.813h4z" fill="#103654"/><path d="M15.813 4h2V0h-2v4zM2 2V0a2 2 0 0 0-2 2h2zM0 15.813v2h4v-2H0zM15.813 0H2v4h13.813V0zM4 15.813V2H0v13.813h4zM4 56.188v-2H0v2h4zM2 70H0a2 2 0 0 0 2 2v-2zm13.813 2h2v-4h-2v4zM0 56.187V70h4V56.187H0zM15.813 68H2v4h13.813v-4zM56.188 4h-2V0h2v4zM70 2V0a2 2 0 0 1 2 2h-2zm2 13.813v2h-4v-2h4zM56.187 0H70v4H56.187V0zM68 15.813V2h4v13.813h-4zM68 56.188v-2h4v2h-4zM70 70h2a2 2 0 0 1-2 2v-2zm-13.813 2h-2v-4h2v4zM72 56.187V70h-4V56.187h4zM56.187 68H70v4H56.187v-4z" fill="#103654"/></svg>