<svg width="72" height="72" fill="none" xmlns="http://www.w3.org/2000/svg"><path d="M14 3.5h1.5v-3H14v3ZM2 2V.5A1.5 1.5 0 0 0 .5 2H2ZM.5 14v1.5h3V14h-3ZM14 .5H2v3h12v-3ZM3.5 14V2h-3v12h3ZM3.5 58v-1.5h-3V58h3ZM2 70H.5A1.5 1.5 0 0 0 2 71.5V70Zm12 1.5h1.5v-3H14v3ZM.5 58v12h3V58h-3ZM14 68.5H2v3h12v-3ZM58 3.5h-1.5v-3H58v3ZM70 2V.5A1.5 1.5 0 0 1 71.5 2H70Zm1.5 12v1.5h-3V14h3ZM58 .5h12v3H58v-3ZM68.5 14V2h3v12h-3ZM68.5 58v-1.5h3V58h-3ZM70 70h1.5a1.5 1.5 0 0 1-1.5 1.5V70Zm-12 1.5h-1.5v-3H58v3ZM71.5 58v12h-3V58h3ZM58 68.5h12v3H58v-3Z" fill="#103654"/><path fill-rule="evenodd" clip-rule="evenodd" d="M55.727 20.494c0 3.747-8.608 6.785-19.227 6.785-10.62 0-19.227-3.038-19.227-6.785 0-3.747 8.608-6.785 19.227-6.785 10.618 0 19.227 3.038 19.227 6.785Z" fill="#92C9EC"/><path fill-rule="evenodd" clip-rule="evenodd" d="M36.5 30.803c-10.282 0-18.654-2.85-19.177-6.433h-.05v6.527c0 3.749 8.608 6.786 19.227 6.786s19.227-3.037 19.227-6.786V24.37h-.05c-.523 3.583-8.895 6.433-19.177 6.433Z" fill="#92C9EC"/><path fill-rule="evenodd" clip-rule="evenodd" d="M36.5 41.282c-10.282 0-18.654-2.85-19.177-6.432h-.05v6.527c0 3.748 8.608 6.785 19.227 6.785s19.227-3.037 19.227-6.785V34.85h-.05c-.523 3.582-8.895 6.432-19.177 6.432Z" fill="#92C9EC"/><path fill-rule="evenodd" clip-rule="evenodd" d="M36.5 51.058c-10.282 0-18.654-2.85-19.177-6.433h-.05v8.676c2.097 2.14-2.447.713 19.227.713 20.626 0 13.983.713 19.227.713V44.625h-.05c-.523 3.583-8.895 6.433-19.177 6.433Z" fill="#92C9EC"/><path fill-rule="evenodd" clip-rule="evenodd" d="m29.3 49.6 1.24 1.28c.484.498 1.44 1.308 2.627 1.982 1.2.682 2.484 1.139 3.662 1.139 1.146 0 2.227-.435 3.217-1.083.992-.649 1.79-1.443 2.366-2.038l1.24-1.28 1.242 1.28c.483.499 1.438 1.308 2.625 1.982 1.2.682 2.483 1.139 3.661 1.139 1.18 0 2.478-.458 3.693-1.142 1.202-.677 2.167-1.486 2.645-1.979L60 53.13c-.699.721-1.923 1.732-3.416 2.572-1.48.834-3.384 1.589-5.404 1.589-2.022 0-3.914-.757-5.384-1.592a16.622 16.622 0 0 1-2.092-1.413c-.496.444-1.084.92-1.751 1.357-1.328.869-3.07 1.648-5.124 1.648-2.022 0-3.915-.757-5.385-1.592-.81-.46-1.537-.97-2.144-1.455-.607.485-1.335.995-2.145 1.455-1.47.835-3.363 1.592-5.385 1.592-2.021 0-3.915-.757-5.385-1.592-1.483-.842-2.692-1.853-3.385-2.569l2.482-2.25c.483.498 1.439 1.308 2.626 1.982 1.2.682 2.484 1.139 3.662 1.139s2.462-.457 3.662-1.139c1.188-.674 2.144-1.484 2.627-1.982l1.24-1.28Z" fill="#103654"/><path d="M3.06 69.06 11.122 61M70.06 69.06 62 61M2 2l8.06 8.06M70.06 2 62 10.06" stroke="#103654" stroke-width="3"/></svg>