<svg width="66" height="54" viewBox="0 0 66 54" fill="none" xmlns="http://www.w3.org/2000/svg">
<path fill-rule="evenodd" clip-rule="evenodd" d="M43.5083 7.67059C43.5083 11.9068 33.7685 15.3412 21.7539 15.3412C9.73938 15.3412 0.000579834 11.9068 0.000579834 7.67059C0.000579834 3.43439 9.73938 0 21.7539 0C33.7685 0 43.5083 3.43439 43.5083 7.67059" fill="#92C9EC"/>
<path fill-rule="evenodd" clip-rule="evenodd" d="M21.7544 19.3249C10.1207 19.3249 0.648282 16.1025 0.057232 12.0525H0V19.4314C0 23.6687 9.73984 27.102 21.7544 27.102C33.7689 27.102 43.5088 23.6687 43.5088 19.4314V12.0525H43.4515C42.8605 16.1025 33.3881 19.3249 21.7544 19.3249" fill="#92C9EC"/>
<path fill-rule="evenodd" clip-rule="evenodd" d="M21.7544 31.1718C10.1207 31.1718 0.648282 27.9494 0.057232 23.8994H0V31.2783C0 35.5156 9.73984 38.9489 21.7544 38.9489C33.7689 38.9489 43.5088 35.5156 43.5088 31.2783V23.8994H43.4515C42.8605 27.9494 33.3881 31.1718 21.7544 31.1718" fill="#92C9EC"/>
<path fill-rule="evenodd" clip-rule="evenodd" d="M21.7544 42.2228C10.1207 42.2228 0.648282 39.0005 0.057232 34.9504H0V42.3294C0 46.5667 9.73984 50 21.7544 50C33.7689 50 43.5088 46.5667 43.5088 42.3294V34.9504H43.4515C42.8605 39.0005 33.3881 42.2228 21.7544 42.2228" fill="#92C9EC"/>
<mask id="path-5-outside-1" maskUnits="userSpaceOnUse" x="21.0175" y="21" width="45" height="33" fill="black">
<rect fill="white" x="21.0175" y="21" width="45" height="33"/>
<path fill-rule="evenodd" clip-rule="evenodd" d="M55.7566 37.4269H55.565C55.9515 36.334 55.9964 35.148 55.6937 34.0285C55.3909 32.9091 54.755 31.9099 53.8714 31.1654C52.9879 30.4209 51.8992 29.9668 50.7518 29.8643C49.6043 29.7618 48.4533 30.0157 47.4534 30.5918C46.2768 27.3302 43.1718 25 39.5271 25C34.8711 25 31.0964 28.8019 31.0964 33.4909C31.0964 34.3279 31.2176 35.1359 31.4419 35.8989C27.894 35.9034 25.0175 38.8031 25.0175 42.3778V43.5211C25.0175 47.0997 27.8984 50 31.4519 50H55.7572C59.2053 50 62 47.1864 62 43.7141C62 40.2418 59.2046 37.4269 55.7572 37.4269"/>
</mask>
<path fill-rule="evenodd" clip-rule="evenodd" d="M55.7566 37.4269H55.565C55.9515 36.334 55.9964 35.148 55.6937 34.0285C55.3909 32.9091 54.755 31.9099 53.8714 31.1654C52.9879 30.4209 51.8992 29.9668 50.7518 29.8643C49.6043 29.7618 48.4533 30.0157 47.4534 30.5918C46.2768 27.3302 43.1718 25 39.5271 25C34.8711 25 31.0964 28.8019 31.0964 33.4909C31.0964 34.3279 31.2176 35.1359 31.4419 35.8989C27.894 35.9034 25.0175 38.8031 25.0175 42.3778V43.5211C25.0175 47.0997 27.8984 50 31.4519 50H55.7572C59.2053 50 62 47.1864 62 43.7141C62 40.2418 59.2046 37.4269 55.7572 37.4269" fill="#103654"/>
<path d="M55.565 37.4269L51.7939 36.0932L49.9076 41.4269H55.565V37.4269ZM47.4534 30.5918L43.6907 31.9492L45.3117 36.4426L49.4505 34.0576L47.4534 30.5918ZM31.4419 35.8989L31.4469 39.8989L36.7847 39.8923L35.2796 34.771L31.4419 35.8989ZM55.7566 33.4269H55.565V41.4269H55.7566V33.4269ZM59.3361 38.7606C59.9934 36.9022 60.0695 34.8868 59.5549 32.9841L51.8324 35.0729C51.9234 35.4091 51.9097 35.7657 51.7939 36.0932L59.3361 38.7606ZM59.5549 32.9841C59.0403 31.0813 57.9581 29.3782 56.4489 28.1065L51.294 34.2242C51.5519 34.4416 51.7415 34.7369 51.8324 35.0729L59.5549 32.9841ZM56.4489 28.1065C54.9394 26.8346 53.0757 26.056 51.1078 25.8802L50.3957 33.8484C50.7227 33.8776 51.0364 34.0072 51.294 34.2242L56.4489 28.1065ZM51.1078 25.8802C49.1398 25.7043 47.1673 26.1401 45.4562 27.1261L49.4505 34.0576C49.7392 33.8912 50.0688 33.8192 50.3957 33.8484L51.1078 25.8802ZM51.2161 29.2345C49.4908 24.452 44.9255 21 39.5271 21V29C41.418 29 43.0628 30.2085 43.6907 31.9492L51.2161 29.2345ZM39.5271 21C32.6351 21 27.0964 26.6197 27.0964 33.4909H35.0964C35.0964 30.9841 37.1071 29 39.5271 29V21ZM27.0964 33.4909C27.0964 34.7161 27.2741 35.9037 27.6042 37.0268L35.2796 34.771C35.1611 34.3681 35.0964 33.9397 35.0964 33.4909H27.0964ZM31.4369 31.8989C25.6551 31.9062 21.0175 36.6226 21.0175 42.3778H29.0175C29.0175 40.9835 30.1328 39.9006 31.4469 39.8989L31.4369 31.8989ZM21.0175 42.3778V43.5211H29.0175V42.3778H21.0175ZM21.0175 43.5211C21.0175 49.283 25.6634 54 31.4519 54V46C30.1333 46 29.0175 44.9164 29.0175 43.5211H21.0175ZM31.4519 54H55.7572V46H31.4519V54ZM55.7572 54C61.4401 54 66 49.3697 66 43.7141H58C58 45.0031 56.9704 46 55.7572 46V54ZM66 43.7141C66 38.0593 61.4403 33.4269 55.7572 33.4269V41.4269C56.969 41.4269 58 42.4243 58 43.7141H66Z" fill="white" mask="url(#path-5-outside-1)"/>
</svg>
