<svg width="101" height="100" viewBox="0 0 101 100" fill="none" xmlns="http://www.w3.org/2000/svg">
<path fill-rule="evenodd" clip-rule="evenodd" d="M50.8247 100C78.3799 100 100.718 77.6142 100.718 50C100.718 22.3858 78.3799 0 50.8247 0C23.2695 0 0.931641 22.3858 0.931641 50C0.931641 77.6142 23.2695 100 50.8247 100Z" fill="white"/>
<path d="M33.3731 50.3369C28.8119 51.8798 25.5303 56.1774 25.5303 61.2377C25.5303 67.5949 30.7095 72.7484 37.0983 72.7484C43.4872 72.7484 48.6664 67.5949 48.6664 61.2377H61.7931" stroke="#92C9EC" stroke-width="4" stroke-linecap="round"/>
<mask id="path-4-inside-1" fill="white">
<ellipse cx="65.5201" cy="61.5427" rx="4.38089" ry="4.35916"/>
</mask>
<ellipse cx="65.5201" cy="61.5427" rx="4.38089" ry="4.35916" fill="#103654"/>
<path d="M62.9009 61.5427C62.9009 60.0515 64.1064 58.9019 65.52 58.9019V72.9019C71.7727 72.9019 76.9009 67.849 76.9009 61.5427H62.9009ZM65.52 58.9019C66.9337 58.9019 68.1392 60.0515 68.1392 61.5427H54.1392C54.1392 67.849 59.2674 72.9019 65.52 72.9019V58.9019ZM68.1392 61.5427C68.1392 63.034 66.9337 64.1836 65.52 64.1836V50.1836C59.2674 50.1836 54.1392 55.2365 54.1392 61.5427H68.1392ZM65.52 64.1836C64.1064 64.1836 62.9009 63.034 62.9009 61.5427H76.9009C76.9009 55.2365 71.7727 50.1836 65.52 50.1836V64.1836Z" fill="#103654" mask="url(#path-4-inside-1)"/>
<path d="M57.872 70.349C61.4954 73.5081 66.8767 74.1872 71.2809 71.657C76.8138 68.4784 78.7095 61.4386 75.5151 55.9331C72.3207 50.4276 65.2458 48.5413 59.7128 51.7199L53.1495 40.4083" stroke="#92C9EC" stroke-width="4" stroke-linecap="round"/>
<mask id="path-7-inside-2" fill="white">
<ellipse rx="4.3646" ry="4.37547" transform="matrix(-0.501866 -0.864945 0.867099 -0.498136 51.5513 37.0443)"/>
</mask>
<ellipse rx="4.3646" ry="4.37547" transform="matrix(-0.501866 -0.864945 0.867099 -0.498136 51.5513 37.0443)" fill="#103654"/>
<path d="M52.8739 39.3238C51.6313 40.0376 50.0142 39.6248 49.2755 38.3517L61.4149 31.3778C58.2567 25.9348 51.2811 24.0932 45.8478 27.2146L52.8739 39.3238ZM49.2755 38.3517C48.5368 37.0786 48.986 35.4787 50.2287 34.7648L57.2548 46.8741C62.6881 43.7527 64.5731 36.8208 61.4149 31.3778L49.2755 38.3517ZM50.2287 34.7648C51.4713 34.051 53.0883 34.4638 53.827 35.7369L41.6876 42.7108C44.8458 48.1538 51.8215 49.9954 57.2548 46.8741L50.2287 34.7648ZM53.827 35.7369C54.5657 37.01 54.1165 38.6099 52.8739 39.3238L45.8478 27.2146C40.4145 30.3359 38.5294 37.2678 41.6876 42.7108L53.827 35.7369Z" fill="#103654" mask="url(#path-7-inside-2)"/>
<path d="M63.3003 39.2811C64.2381 34.5792 62.1384 29.6025 57.7342 27.0723C52.2013 23.8937 45.1264 25.78 41.932 31.2855C38.7375 36.791 40.6332 43.8308 46.1662 47.0094L39.6028 58.321" stroke="#92C9EC" stroke-width="4" stroke-linecap="round"/>
<mask id="path-10-inside-3" fill="white">
<ellipse rx="4.3646" ry="4.37546" transform="matrix(-0.501866 0.864945 -0.867099 -0.498136 37.4741 61.38)"/>
</mask>
<ellipse rx="4.3646" ry="4.37546" transform="matrix(-0.501866 0.864945 -0.867099 -0.498136 37.4741 61.38)" fill="#103654"/>
<path d="M38.7967 59.1005C40.0393 59.8144 40.4885 61.4143 39.7498 62.6874L27.6104 55.7135C24.4523 61.1565 26.3373 68.0884 31.7706 71.2097L38.7967 59.1005ZM39.7498 62.6874C39.0111 63.9605 37.3941 64.3733 36.1515 63.6595L43.1776 51.5502C37.7443 48.4289 30.7686 50.2704 27.6104 55.7135L39.7498 62.6874ZM36.1515 63.6595C34.9089 62.9456 34.4597 61.3457 35.1984 60.0726L47.3377 67.0465C50.4959 61.6035 48.6109 54.6716 43.1776 51.5502L36.1515 63.6595ZM35.1984 60.0726C35.9371 58.7995 37.5541 58.3866 38.7967 59.1005L31.7706 71.2097C37.2039 74.3311 44.1796 72.4895 47.3377 67.0465L35.1984 60.0726Z" fill="#103654" mask="url(#path-10-inside-3)"/>
</svg>
