<svg width="72" height="72" fill="none" xmlns="http://www.w3.org/2000/svg"><path d="M35.718 17.702c-.512 0-1.048.091-1.548.141C15.163 18.785.325 33.746.325 33.746c-.432.418-.432 1.2 0 1.618 0 0 14.838 15.098 33.846 16.044.614.031 1.209.07 1.83.07.56-.002 1.143-.023 1.689-.07 19.076-.877 33.986-16.044 33.986-16.044.433-.418.433-1.2 0-1.618 0 0-15.786-16.044-35.675-16.044H35.718zm.212 2.252c.096 0 .185-.002.281 0 .4.002.801.055 1.196.07h.141c7.343.811 13.088 7.032 13.088 14.566 0 7.584-5.82 13.817-13.229 14.566-.47.047-.925.068-1.407.07-.528 0-1.027-.048-1.548-.07-7.394-.748-13.088-6.975-13.088-14.566A14.54 14.54 0 0 1 34.24 20.095c.563-.066 1.107-.141 1.689-.141zm-10.696 1.618c-3.734 3.102-6.122 7.786-6.122 13.018 0 5.234 2.388 9.987 6.122 13.088C12.95 44.138 4.124 35.746 2.928 34.59c1.162-1.124 9.99-9.473 22.306-13.018zm21.462 0c12.35 3.535 21.212 11.892 22.376 13.018-1.198 1.158-10.058 9.559-22.376 13.088a16.965 16.965 0 0 0 6.192-13.088c0-5.236-2.42-9.917-6.192-13.018zm-12.007.704c-4.58 0-8.595 3.034-9.78 7.459-.17.572.2 1.245.774 1.412.573.166 1.244-.204 1.407-.779a7.856 7.856 0 0 1 7.6-5.84c.594 0 1.143-.531 1.143-1.126 0-.595-.549-1.135-1.144-1.126zM36 27.835c-3.723 0-6.755 3.045-6.755 6.755 0 3.711 3.032 6.755 6.755 6.755 3.722 0 6.755-3.036 6.755-6.755 0-3.718-3.033-6.755-6.755-6.755zm0 2.252a4.487 4.487 0 0 1 4.503 4.503A4.486 4.486 0 0 1 36 39.094a4.48 4.48 0 0 1-4.503-4.504A4.481 4.481 0 0 1 36 30.087z" fill="#103654"/><circle cx="35.811" cy="34.781" r="14.876" fill="#92C9EC"/><circle r="4.958" transform="matrix(1 0 0 -1 35.811 34.781)" fill="#103654"/></svg>