<svg width="72" height="72" fill="none" xmlns="http://www.w3.org/2000/svg"><path d="M10.407 43.447V0h36.371V12.787c0 1.36.419 1.775 1.79 1.779h13.015V43.45H10.407v-.004Zm11.69-14.406c.262-.286.461-.512.668-.728 1.2-1.264 2.42-2.514 3.601-3.794.592-.645.559-1.397-.01-1.922-.545-.506-1.28-.513-1.859.083a404.654 404.654 0 0 0-5.214 5.474c-.472.505-.536 1.157-.067 1.666a261.804 261.804 0 0 0 5.384 5.653c.53.539 1.3.476 1.79-.043.505-.536.535-1.134.106-1.733-.143-.2-.326-.376-.499-.555-1.277-1.344-2.557-2.684-3.904-4.094l.003-.007Zm27.86-.026c-.24.262-.435.492-.642.708-1.203 1.264-2.417 2.517-3.608 3.794-.578.622-.572 1.41-.036 1.93.535.518 1.283.538 1.859-.047a368.85 368.85 0 0 0 5.224-5.467c.499-.532.549-1.2.05-1.733a273.026 273.026 0 0 0-5.338-5.59c-.535-.545-1.277-.492-1.792.003-.499.48-.535 1.217-.08 1.803.153.196.34.366.509.545 1.274 1.34 2.547 2.684 3.85 4.054h.004Zm-15.862 7.974c.203-.226.705-.568.89-1.037.643-1.616 1.171-3.28 1.743-4.925.931-2.69 1.87-5.378 2.78-8.075.356-1.047-.269-1.965-1.257-1.892-.748.057-1.067.566-1.29 1.217-1.09 3.19-2.201 6.375-3.305 9.561-.38 1.098-.785 2.185-1.134 3.292-.32 1.015.292 1.9 1.573 1.86Z" fill="#92C9EC"/><path d="M67.02 63.942H5V46.201h62.02v17.741Zm-42.739-9.254c-1.01-1.683-1.972-3.266-2.92-4.856-.362-.605-.844-.974-1.57-.778-.718.193-.99.728-.99 1.447.003 3.156-.007 6.312.006 9.467.004.922.54 1.49 1.314 1.487.775-.003 1.3-.569 1.32-1.5.027-1.3.004-2.6.014-3.904 0-.193.05-.386.086-.645.116.116.163.146.19.193.415.685.827 1.373 1.247 2.055.764 1.25 1.852 1.244 2.62-.017.452-.738.891-1.486 1.337-2.228.196.32.196.582.196.848 0 1.274-.013 2.547.01 3.821.017.815.529 1.35 1.25 1.377.719.026 1.277-.482 1.374-1.277.03-.246.017-.499.017-.745v-8.137c0-.36.1-.782-.054-1.065-.24-.445-.602-1.03-1.01-1.127-.406-.093-1.028.246-1.384.579-.41.382-.629.967-.928 1.463l-2.128 3.545.003-.003Zm22.833 1.672c.941 0 1.75.053 2.544-.01 2.118-.166 3.658-1.872 3.601-3.927-.056-2.092-1.732-3.718-3.89-3.755a111.04 111.04 0 0 0-3.326 0c-1.094.01-1.58.486-1.583 1.57-.01 3.103-.007 6.209 0 9.311 0 .995.502 1.573 1.317 1.577.808 0 1.32-.589 1.334-1.57.013-1.017 0-2.038 0-3.19l.003-.006Zm-10.09.522c-.236-.498-.392-.818-.538-1.14-.888-1.966-1.756-3.938-2.664-5.893-.353-.762-1.028-1.018-1.703-.738-.718.299-.987.987-.695 1.792.047.13.11.253.167.38 1.346 2.999 2.703 5.995 4.04 9.001.273.619.595 1.141 1.35 1.16.802.02 1.14-.528 1.427-1.17 1.327-2.98 2.67-5.949 4.007-8.925.113-.253.23-.509.283-.778.126-.652-.137-1.141-.725-1.43-.609-.3-1.144-.13-1.56.362-.19.226-.303.526-.426.802-.967 2.138-1.928 4.28-2.96 6.574l-.003.003Z" fill="#103654"/><path d="M61.6 72H10.447v-5.298H61.6V72Z" fill="#92C9EC"/><path d="m49.675 1.869 9.47 9.98h-9.653V2.032l.183-.163Z" fill="#51A9E1"/><path d="M47.157 51.329c.815 0 1.587-.043 2.348.013.665.047 1.054.499 1.084 1.15.03.666-.346 1.138-1.01 1.195-.789.07-1.584.016-2.422.016V51.33Z" fill="#103654"/></svg>