<svg width="26" height="26" fill="none" xmlns="http://www.w3.org/2000/svg"><path d="M4.163 14.252c1.627 3.21 6.11 5.88 8.145 6.748.19-.137.587-.788.675-1.778.111-1.238-.296-1.52-.296-2.87s.666-1.556.98-1.762c1.323 1.34 2.46 1.313 3.496 1.313 1.497 1.519 2.44 1.443 3.125 1.443.547 0 1.165-.312 1.405-.468a3.995 3.995 0 010-.525c.019-.338.26-.507.26-1.032.221-1.65-.37-1.668-.889-2.175-2.625-2.869-2.404-3.525-2.496-4.163-.074-.51-.351-.8-.48-.88L16.422 6.79c.196-.723.499-2.114.086-2.638-.2-.253-.49-.145-.74 0s-1.62 1.275-2.101 1.925c0-.394-.444-1.313-.796-1.463-6.36 1.425-8.617 7.913-8.71 8.213-.092.3-.314.825 0 1.425z" stroke="#51A9E1"/><circle cx="15" cy="10" r="1" fill="#51A9E1"/><rect x=".5" y=".5" width="25" height="25" rx="2.5" stroke="#51A9E1"/></svg>