<svg width="72" height="72" fill="none" xmlns="http://www.w3.org/2000/svg"><path d="M72 64h-4.44l-4.44-11.065H39.376L34.935 64h-4.44L48.86 19h4.777L72 64zM61.842 49.427L51.214 23.115 40.653 49.427h21.19z" fill="#DEEFF9"/><path d="M64.137 64h-5.18l-5.18-12.908H26.075L20.894 64h-5.18L37.14 11.5h5.572L64.137 64zm-11.85-17.002l-12.4-30.697L27.565 47h24.722z" fill="#C5E2F5"/><path d="M55.34 64h-5.92L43.5 49.247H11.84L5.92 64H0L24.486 4h6.368L55.34 64zM41.796 44.57L27.625 9.487 13.543 44.57h28.253z" fill="#92C9EC"/></svg>