<?xml version="1.0" encoding="utf-8"?>
<!-- Generator: Adobe Illustrator 23.0.5, SVG Export Plug-In . SVG Version: 6.00 Build 0)  -->
<svg version="1.1" id="Layer_1" xmlns="http://www.w3.org/2000/svg" xmlns:xlink="http://www.w3.org/1999/xlink" x="0px" y="0px"
	 viewBox="0 0 130 130" style="enable-background:new 0 0 130 130;" xml:space="preserve">
<style type="text/css">
	.st0{clip-path:url(#SVGID_2_);}
	.st1{fill:none;stroke:#92C9EC;}
	.st2{fill:none;stroke:#92C9EC;stroke-width:0.9835;}
</style>
<g>
	<defs>
		<polyline id="SVGID_1_" points="130,0 130,130 0,130 0,0 		"/>
	</defs>
	<clipPath id="SVGID_2_">
		<use xlink:href="#SVGID_1_"  style="overflow:visible;"/>
	</clipPath>
	<g class="st0">
		<path class="st1" d="M50.8,129.2L50.8,129.2c2,0,3.4-0.4,4.4-1c1-0.6,1.7-1.4,2.2-2.2c0.5-0.8,0.7-1.6,0.8-2.3
			c0.1-0.3,0.1-0.8,0.1-1v0l0,0v0l0,0l0,0v-18.5v-0.5h0.5h12.9h0.5v0.5v18l0,0c0,0,0,0,0,0.1c0,0.1,0,0.1,0,0.2
			c0,0.2,0.1,0.5,0.1,0.8c0.1,0.7,0.4,1.6,0.9,2.6c0.5,0.9,1.2,1.8,2.2,2.5c1,0.7,2.3,1.1,4.1,1.1c1.8,0,3.1-0.5,4.1-1.1
			c1-0.7,1.7-1.6,2.2-2.5c0.5-0.9,0.7-1.9,0.9-2.6c0.1-0.3,0.1-0.6,0.1-0.8c0-0.1,0-0.2,0-0.2c0,0,0,0,0-0.1l0,0v-18.5v-0.5h0.5h7.8
			c1.8,0,2.9-1.1,3.7-2.3c0.4-0.6,0.6-1.2,0.8-1.7c0.1-0.2,0.1-0.4,0.2-0.5c0-0.1,0-0.1,0-0.1V41.3H30.6v57c0,1.4,0.3,2.4,0.8,3.1
			c0.5,0.7,1.1,1.2,1.7,1.5c0.6,0.3,1.3,0.4,1.8,0.5c0.2,0,0.4,0,0.6,0c0.1,0,0.1,0,0.2,0c0,0,0,0,0,0h0l0,0h0h0h0h0l0,0h0h7.6h0.5
			v0.5v18.3c0,1.8,0.4,3.1,1.1,4c0.6,1,1.5,1.6,2.4,2.1c0.9,0.4,1.8,0.7,2.4,0.8c0.3,0.1,0.6,0.1,0.8,0.1
			C50.6,129.2,50.7,129.2,50.8,129.2C50.8,129.2,50.8,129.2,50.8,129.2L50.8,129.2L50.8,129.2C50.8,129.2,50.8,129.2,50.8,129.2"/>
		<path class="st1" d="M119.7,81.6L119.7,81.6L119.7,81.6L119.7,81.6L119.7,81.6L119.7,81.6L119.7,81.6L119.7,81.6
			c0,0.1,0,0.1,0,0.1c0,0,0,0.1,0,0.2c0,0.2,0,0.4,0,0.8c-0.1,0.6-0.2,1.5-0.6,2.3c-0.4,0.8-1,1.6-1.9,2.2c-0.9,0.6-2.3,1-4.2,1
			c-3.8,0-5.7-1.3-6.6-2.7c-1-1.5-1-3.2-1-4.3V48.4v0v0v0v0c0,0,0,0,0-0.1c0,0,0-0.1,0-0.2c0-0.2,0-0.5,0.1-0.8
			c0.1-0.7,0.3-1.6,0.8-2.5c0.4-0.9,1.1-1.8,2.1-2.4c1-0.7,2.3-1.1,4.1-1.1c1.8,0,3.2,0.4,4.2,1c1,0.6,1.6,1.4,2.1,2.2
			c0.9,1.7,0.9,3.5,0.9,4V81.6z"/>
		<path class="st1" d="M24.5,81.6L24.5,81.6L24.5,81.6L24.5,81.6L24.5,81.6L24.5,81.6L24.5,81.6L24.5,81.6
			C24.5,81.6,24.5,81.6,24.5,81.6c0,0.1,0,0.1,0,0.1c0,0,0,0.1,0,0.2c0,0.2,0,0.4,0,0.8c-0.1,0.6-0.2,1.5-0.6,2.3
			c-0.4,0.8-1,1.6-1.9,2.2c-0.9,0.6-2.3,1-4.2,1c-3.8,0-5.7-1.3-6.6-2.7c-1-1.5-1-3.2-1-4.3V48.4v0v0v0l0,0c0,0,0,0,0-0.1
			c0,0,0-0.1,0-0.2c0-0.2,0-0.5,0.1-0.8c0.1-0.7,0.3-1.6,0.8-2.5c0.4-0.9,1.1-1.8,2.1-2.4c1-0.7,2.3-1.1,4.1-1.1
			c1.8,0,3.2,0.4,4.2,1c1,0.6,1.6,1.4,2.1,2.2c0.9,1.7,0.9,3.5,0.9,4V81.6z"/>
		<path class="st1" d="M83.7,22.1c0,0.7-0.2,1.3-0.6,1.9c-0.4,0.6-0.9,1-1.5,1.3c-0.6,0.3-1.3,0.3-2,0.2c-0.7-0.1-1.3-0.5-1.7-0.9
			c-0.5-0.5-0.8-1.1-0.9-1.7c-0.1-0.7-0.1-1.3,0.2-2c0.3-0.6,0.7-1.2,1.3-1.5c0.6-0.4,1.2-0.6,1.9-0.6c0.9,0,1.8,0.4,2.4,1
			C83.4,20.3,83.7,21.2,83.7,22.1z"/>
		<path class="st1" d="M53.7,22.1c0,0.7-0.2,1.3-0.6,1.9s-0.9,1-1.5,1.3c-0.6,0.3-1.3,0.3-2,0.2c-0.7-0.1-1.3-0.5-1.7-0.9
			c-0.5-0.5-0.8-1.1-0.9-1.7c-0.1-0.7-0.1-1.3,0.2-2c0.3-0.6,0.7-1.2,1.3-1.5c0.6-0.4,1.2-0.6,1.9-0.6c0.9,0,1.8,0.4,2.4,1
			S53.7,21.2,53.7,22.1z"/>
	</g>
</g>
<path class="st2" d="M81.1,11.1l0.2-0.3L88,1.3l-0.7-0.6l-6.9,10c-4.6-2-9.7-3.2-15.2-3.2l0,0c-0.1,0-0.1,0-0.2,0
	c-0.1,0-0.1,0-0.2,0l0,0c-5.5,0-10.6,1.2-15.2,3.2l-6.9-10L42,1.3l6.6,9.5l0.2,0.3C39,15.8,32,24.5,30.6,34.9H65h0h34.4
	C98,24.5,91,15.8,81.1,11.1z"/>
</svg>
