<svg width="72" height="72" fill="none" xmlns="http://www.w3.org/2000/svg"><path fill-rule="evenodd" clip-rule="evenodd" d="M63.25 2H5.75C2.58 2 0 4.58 0 7.75v43.125c0 3.17 2.58 5.75 5.75 5.75h57.5c3.17 0 5.75-2.58 5.75-5.75V7.75C69 4.58 66.42 2 63.25 2zM2.3 7.75A3.454 3.454 0 015.75 4.3h57.5a3.454 3.454 0 013.45 3.45V48H2.3V7.75z" fill="#92C9EC"/><path d="M37.375 59.5h-5.75v5.75H21.85a3.454 3.454 0 00-3.45 3.45v1.15c0 .636.514 1.15 1.15 1.15h29.9c.636 0 1.15-.514 1.15-1.15V68.7a3.454 3.454 0 00-3.45-3.45h-9.775V59.5zM6.708 9.667h55.583v5.75H6.708zM6.708 19.25h25.875v13.417H6.708z" fill="#92C9EC"/><rect x="6.708" y="36.5" width="25.875" height="2.875" rx="1.438" fill="#92C9EC"/><rect x="6.708" y="41.292" width="25.875" height="2.875" rx="1.438" fill="#92C9EC"/><rect x="36.417" y="36.5" width="25.875" height="2.875" rx="1.438" fill="#92C9EC"/><rect x="36.417" y="41.292" width="25.875" height="2.875" rx="1.438" fill="#92C9EC"/><path fill="#92C9EC" d="M36.417 19.25h25.875v13.417H36.417z"/><rect x="54.458" y="38.458" width="17.083" height="32.083" rx="1.375" fill="#103654" stroke="#103654" stroke-width=".917"/><ellipse cx="63" cy="68.708" rx=".9" ry=".917" fill="#fff"/><path stroke="#103654" stroke-width=".917" d="M61.2 40.75h3.6M65.7 40.75h1.35"/><path fill="#fff" d="M54 42h18v25H54z"/><path fill="#92C9EC" d="M57 44h12v4H57zM57 50h12v11H57z"/><rect x="57" y="63" width="12" height="2" rx="1" fill="#92C9EC"/><path stroke="#fff" stroke-width=".922" stroke-linecap="round" d="M61.839 40.306h2.767M66.45 40.306h.461"/><path stroke="#103654" stroke-width="1.383" d="M71.308 67.589v-26M54.692 67.589v-26"/></svg>