<svg width="101" height="100" viewBox="0 0 101 100" fill="none" xmlns="http://www.w3.org/2000/svg">
<path fill-rule="evenodd" clip-rule="evenodd" d="M50.8247 100C78.3799 100 100.718 77.6142 100.718 50C100.718 22.3858 78.3799 0 50.8247 0C23.2695 0 0.931641 22.3858 0.931641 50C0.931641 77.6142 23.2695 100 50.8247 100Z" fill="white"/>
<path d="M24.0002 67.125L24 37.9861C24 36.3293 25.3432 34.9861 27 34.9861H38.8586C39.2445 34.9861 39.5959 34.7641 39.7616 34.4156L42.1253 29.4455C42.291 29.097 42.6425 28.875 43.0284 28.875H59.2479C59.5978 28.875 59.9223 29.0579 60.1035 29.3573L63.2177 34.5038C63.3989 34.8032 63.7234 34.9861 64.0733 34.9861H75.9999C77.6568 34.9861 78.9999 36.3292 78.9999 37.9861L79.0001 67.125C79.0001 68.7818 77.6569 70.125 76.0001 70.125H27.0002C25.3433 70.125 24.0002 68.7819 24.0002 67.125Z" fill="#92C9EC"/>
<ellipse cx="51.8818" cy="52.1736" rx="10.3125" ry="10.3125" fill="white"/>
<ellipse cx="31.6388" cy="42.6249" rx="2.29167" ry="2.29167" fill="#103654"/>
</svg>
