<svg width="88" height="88" fill="none" xmlns="http://www.w3.org/2000/svg"><path d="M21.814 3.24A2.5 2.5 0 0 1 24.303.5h37.394a2.5 2.5 0 0 1 2.489 2.74l-6.22 64.556a7.5 7.5 0 0 1-7.465 6.78H35.499a7.5 7.5 0 0 1-7.465-6.78L21.814 3.24zM32.952 74.962h20.096V85a2.5 2.5 0 0 1-2.5 2.5H35.452a2.5 2.5 0 0 1-2.5-2.5V74.962zM47.52 64.5H27.63M22.206 9.346h41.588M28.733 4.923v4.308M35.966 4.923v4.308M43.199 4.923v4.308M50.431 4.923v4.308M57.664 4.923v4.308M37.774 83.077v4.308M43.199 83.077v4.308M48.623 83.077v4.308" stroke="#77BCE8"/><path d="M32.653 45.654l-2.06-20.539h24.813l-2.06 20.539H32.654z" stroke="#77BCE8"/><path d="M44.209 30.873a.5.5 0 0 0 .703.255l1.762-.955a.5.5 0 0 1 .715.59l-.627 1.972a.5.5 0 0 0 .37.64l1.998.434a.5.5 0 0 1 .163.91l-1.742 1.112a.5.5 0 0 0-.128.725l1.261 1.65a.5.5 0 0 1-.468.798l-2-.286a.5.5 0 0 0-.57.477l-.07 2.045a.5.5 0 0 1-.875.314l-1.326-1.503a.5.5 0 0 0-.75 0L41.3 41.554a.5.5 0 0 1-.875-.314l-.07-2.045a.5.5 0 0 0-.57-.477l-2 .286a.5.5 0 0 1-.468-.799l1.261-1.649a.5.5 0 0 0-.128-.725l-1.742-1.112a.5.5 0 0 1 .163-.91l1.998-.434a.5.5 0 0 0 .37-.64l-.627-1.971a.5.5 0 0 1 .715-.591l1.762.956a.5.5 0 0 0 .703-.256l.744-1.88a.5.5 0 0 1 .93 0l.744 1.88z" stroke="#77BCE8" stroke-linejoin="round"/></svg>