<svg width="88" height="88" fill="none" xmlns="http://www.w3.org/2000/svg"><rect x="-.5" y=".5" width="52" height="9" rx="2.5" transform="matrix(-1 0 0 1 67.65 57.134)" stroke="#92C9EC"/><path d="M61.15 66.634h-38v6.5a2.5 2.5 0 002.5 2.5h33a2.5 2.5 0 002.5-2.5v-6.5zM47.15 75.634h-10v2.5a2.5 2.5 0 002.5 2.5h5a2.5 2.5 0 002.5-2.5v-2.5zM36.15 23.634h12v34h-12z" stroke="#92C9EC"/><rect x="68.15" y="23.634" width="52" height="9" rx="2.5" transform="rotate(-180 68.15 23.634)" stroke="#92C9EC"/><path d="M61.15 14.634h-38v-6.5a2.5 2.5 0 012.5-2.5h33a2.5 2.5 0 012.5 2.5v6.5zM47.15 5.634h-10v-2.5a2.5 2.5 0 012.5-2.5h5a2.5 2.5 0 012.5 2.5v2.5z" stroke="#92C9EC"/></svg>