<svg width="248" height="248" fill="none" xmlns="http://www.w3.org/2000/svg"><circle cx="128.227" cy="131.045" r="108.5" fill="#92C9EC" fill-opacity=".3"/><circle cx="119.773" cy="139.5" r="107.5" stroke="#92C9EC" stroke-width="2"/><path d="M25.363 138.091c0 22.393 8.439 42.971 22.546 59.182M73.582 236.727c-2.025-7.052-3.127-14.64-3.127-22.545 0-37.355 24.604-67.637 54.954-67.637 30.351 0 54.955 30.282 54.955 67.637 0 5.018-.444 9.909-1.287 14.615" stroke="#92C9EC" stroke-width="2"/><path d="M156.818 132.455c0 16.527-14.02 30-31.409 30S94 148.982 94 132.455c0-16.528 14.02-30 31.409-30s31.409 13.472 31.409 30z" fill="#fff" stroke="#92C9EC" stroke-width="2"/><path d="M104.273 135.273c0-12.452 10.094-22.546 22.545-22.546" stroke="#92C9EC" stroke-width="2"/><circle cx="44.909" cy="61.818" r="27" fill="#fff" stroke="#92C9EC" stroke-width="2"/><circle cx="194.273" cy="61.818" r="27" fill="#fff" stroke="#92C9EC" stroke-width="2"/><circle cx="121" cy="28" r="27" fill="#fff" stroke="#92C9EC" stroke-width="2"/><path d="M202.439 48H191.48L186 68.15h7.672V79l12.055-16.792h-8.767L202.439 48z" fill="#92C9EC" stroke="#92C9EC" stroke-width="2"/><circle cx="121.182" cy="28.182" r="18.727" stroke="#92C9EC" stroke-width="2"/><path d="M128.227 36.636c-1.409 1.41-3.879 2.819-7.045 2.819s-5.637-1.41-7.046-2.819" stroke="#92C9EC" stroke-width="2"/><ellipse cx="115.545" cy="25.364" rx="2.818" ry="2.818" fill="#92C9EC"/><ellipse cx="126.818" cy="25.364" rx="2.818" ry="2.818" fill="#92C9EC"/><path d="M35.408 51c5.819 0 8.486 3.889 9.092 6.667.606-2.778 3.273-6.667 9.092-6.667 7.274 0 12.729 16.667-9.092 25-21.821-8.333-16.366-25-9.092-25z" fill="#92C9EC" stroke="#92C9EC" stroke-width="2"/></svg>