<svg width="248" height="248" fill="none" xmlns="http://www.w3.org/2000/svg"><circle cx="132.455" cy="115.545" r="95.818" fill="#DFEFFA"/><circle cx="124" cy="124" r="94.818" stroke="#77BCE8" stroke-width="2"/><path d="M192.698 188.276c-.51-1.567-1.155-3.041-1.965-4.357-6.087-9.887-20.8-17.393-33.313-21.235-12.513-3.845-16.527-12.404-15.639-16.386.888-3.982 3.633-2.744 6.416-8.426 2.37-4.841 3.982-16.151 3.982-16.151s5.706-2.059 6.342-11.394c.633-9.338 0-12.77-2.157-13.869-2.157-1.097-3.045-.961-3.045-.961s1.409-13.282 1.42-16.064c.01-3.525.304-6.984-.609-10.573-3.29-12.903-16.925-18.396-32.753-18.123-15.827.276-16.072 5.492-19.359 9.338-3.286 3.842-5.478.821-8.401 6.726-1.766 3.57-.063 20.46-.063 20.46.531 4.674 1.126 8.236 1.126 8.236s-.888-.136-3.046.961c-2.153 1.098-2.79 4.531-2.153 13.869.633 9.335 6.338 11.394 6.338 11.394s1.612 11.31 3.986 16.151c2.78 5.682 5.528 4.444 6.416 8.426.888 3.982-3.129 12.541-15.642 16.386-12.514 3.842-27.226 11.348-33.313 21.235a19.4 19.4 0 0 0-1.665 3.49" stroke="#77BCE8" stroke-width="2"/><path d="M129.918 234.755L124 225.736l-5.918 9.019M124 225.736V248M49.882 206.291l2.254-10.427-10.427 2.254M52.136 195.864l-15.782 15.781M13.245 129.918L22.264 124l-9.019-5.918M22.264 124H0M41.709 49.882l10.427 2.255-2.254-10.428M52.136 52.136L36.354 36.355M118.082 13.245L124 22.264l5.918-9.019M124 22.264V0M198.118 41.71l-2.254 10.426 10.427-2.254M195.864 52.136l15.782-15.781M234.755 118.082L225.736 124l9.019 5.918M225.736 124H248M206.291 198.118l-10.427-2.254 2.254 10.427M195.864 195.864l15.782 15.781" stroke="#77BCE8" stroke-width="2" stroke-miterlimit="10"/></svg>