<svg width="248" height="248" fill="none" xmlns="http://www.w3.org/2000/svg"><path d="M221.227 47.515l25.578 61.378a15.46 15.46 0 0 1-3.2 16.755 15.315 15.315 0 0 1-5.092 3.456l-11.656 4.878a15.254 15.254 0 0 1-11.775.044c-2.103-.863-3.907-2.187-5.407-3.819l-10.623 4.041c.286 1.212.441 2.45.41 3.735-.052 2.732-.943 6.452-4.445 10.05-.777.8-1.694 1.6-2.76 2.395l-11.445 8.457c-1.633 1.687-3.665 3.079-6.153 3.684-1.022.247-2.061.271-3.096.224-.897 2.153-2.329 4.914-4.489 7.14-1.539 1.582-3.421 2.865-5.729 3.47-3.496.915-7.117.013-10.808-2.579-.705 3.16-2.223 6.254-4.461 8.955l-3.878 4.731c-.411.493-.829.965-1.266 1.411-6.394 6.572-15.451 8.011-21.078 3.357-2.478-2.062-4.027-5.127-4.354-8.639-.078-.724.002-1.462.036-2.184-5.547 2.826-11.432 3.076-15.648.138-2.652-1.841-4.375-4.755-4.859-8.201-.194-1.338-.19-2.722-.03-4.124-3.476.521-6.886-.18-9.613-2.245-4.222-3.214-5.851-8.762-4.9-14.567-4.53 1.968-9.922 1.465-14.058-1.721-2.968-2.286-4.852-5.581-5.341-9.293-.323-2.487.073-4.93 1.008-7.177-.187-.25-.41-.471-.538-.782-1.544-3.496-4.294-5.169-6.392-5.977-.735 1.856-1.765 3.54-3.16 4.963-4.136 4.26-10.421 5.735-16.041 3.767l-11.765-4.108c-3.865-1.356-6.964-4.135-8.71-7.818a14.951 14.951 0 0 1-.606-11.564l21.819-61.321c2.711-7.683 11.77-11.966 19.454-9.278l11.775 4.119c3.847 1.35 6.948 4.113 8.71 7.797.645 1.353 1.012 2.773 1.238 4.223l52.991-4.255c3.018-1.131 14.047-4.225 28.052 4.268 3.889 2.599 15.274 8.425 21.25 4.956-.73-6.627 2.87-13.504 9.254-16.155l11.643-4.893c3.792-1.6 7.99-1.604 11.796-.042 3.805 1.58 6.787 4.541 8.362 8.35z" fill="#DFEFFA"/><path d="M241.807 120.412c-4.456-10.823-8.702-21.747-13.043-32.61-3.237-8.128-6.455-16.255-9.71-24.363-1.619-4.014-3.047-8.108-4.875-12.002-2.875-6.09-10.148-9.046-16.203-6.55-3.884 1.598-7.711 3.395-11.577 5.053-1.846.798-3.693 1.637-5.14 3.115-3.561 3.634-4.799 8.087-4.094 13.18.095.699-.038 1.098-.666 1.537-3.466 2.397-7.274 2.596-11.158 1.878-4.97-.939-9.596-2.956-13.899-5.712-4.627-2.955-9.406-5.471-14.795-6.51-3.484-.659-6.969-.719-10.491-.12-1.504.26-2.913.999-4.398 1.199-3.256.399-6.55.599-9.825.858-2.799.22-5.617.4-8.416.64-4.227.359-8.435.778-12.662 1.137-3.903.34-7.806.66-11.728.999-4.799.4-9.578.819-14.376 1.198-.819.06-1.942.4-2.36 0-.496-.48-.42-1.657-.553-2.536-.78-5.691-3.865-9.366-8.987-11.243-3.56-1.318-7.102-2.596-10.663-3.934-2.513-.938-5.026-1.578-7.71-1.018-5.066 1.058-8.721 3.934-10.55 9.106-.742 2.077-1.408 4.193-2.132 6.29-4.627 13.6-9.272 27.199-13.9 40.778-2.17 6.43-4.397 12.861-6.568 19.291-.857 2.496-1.618 4.992-1.219 7.768.781 5.412 3.523 9.206 8.34 11.183 3.98 1.638 8.073 2.956 12.09 4.473 2 .759 4.037 1.119 6.15.959 3.656-.28 6.665-1.937 9.064-4.813 1.39-1.657 2.113-3.694 2.818-5.731.266-.779.533-1.119 1.333-.659.495.279 1.066.419 1.599.639 2.875 1.138 5.35 2.855 7.216 5.472.895 1.258 1.371 2.775 2.38 3.953.553.64.495 1.239.172 1.997-1.029 2.377-1.505 4.833-1.048 7.449 1.2 6.989 7.598 11.283 13.748 9.945 1.256-.28 2.456-.759 3.617-1.278 8.054-5.192 8.835-14.857 8.835-14.857-.038-.3-.076-.6-.095-.899-.648-6.79-6.188-11.762-12.624-11.183-3.275.299-5.979 1.817-8.073 4.513-.628.799-1.314 1.538-1.942 2.317-.362.459-.571.559-.952-.04a52.663 52.663 0 0 0-2.342-3.515c-2.114-2.936-4.894-4.873-8.15-6.111-.628-.239-1.237-.519-1.865-.719-.553-.179-.667-.419-.457-.998 3.77-11.023 7.502-22.067 11.271-33.11 3.409-10.005 6.836-20.01 10.225-30.014.172-.52.343-.819.952-.859 3.618-.28 7.255-.639 10.872-.938 2.8-.24 5.617-.4 8.416-.64 3.522-.299 7.045-.658 10.586-.958 2.8-.24 5.617-.42 8.416-.639 3.523-.3 7.064-.639 10.587-.938 2.17-.18 4.36-.32 6.835-.5-1.295.979-2.342 1.778-3.408 2.576-5.465 4.074-10.948 8.168-16.432 12.222-.685.499-1.085 1.218-1.485 1.917-2.247 4.173-3.694 8.627-4.15 13.44-.191 2.076-.077 4.113.094 6.15a3.59 3.59 0 0 1-.342 1.897c-1.2 2.696-2.057 5.492-2 8.527.058 2.796 1.524 4.953 4.075 5.851 3.941 1.378 7.94 1.738 11.938.479 5.255-1.657 8.625-5.531 10.796-10.643 1.752-4.094 2.666-8.427 3.104-12.86.171-1.698.171-1.658 1.847-1.738 2.284-.1 4.55-.26 6.816-.42.609-.04 1.047.18 1.523.62 4.437 4.233 8.892 8.427 13.328 12.64 3.599 3.415 7.179 6.85 10.777 10.245 4.303 4.074 8.625 8.147 12.928 12.221 2.933 2.776 5.884 5.552 8.797 8.387 2.114 2.057 4.436 3.875 6.398 6.091 2.227 2.536 4.188 5.232 5.464 8.447 1.619 4.074.933 8.328-1.942 11.543-1.314 1.477-2.913 2.576-4.322 3.894-.267.239-.495.14-.8.08-2.875-.46-5.274-2.017-7.597-3.695-3.694-2.656-6.95-5.871-10.301-8.966-4.055-3.714-8.149-7.389-12.204-11.083a2041.786 2041.786 0 0 1-9.578-8.787c-2.094-1.917-4.189-3.854-6.302-5.771-.59-.539-1.238-.479-1.771.1-.552.599-.323 1.158.191 1.637a802.627 802.627 0 0 0 7.406 6.85c3.085 2.816 6.188 5.591 9.273 8.407 4.189 3.794 8.397 7.569 12.547 11.423 2.361 2.196 4.684 4.473 7.198 6.49a56.751 56.751 0 0 0 4.531 3.295c.419.279.857.519.552 1.158-1.161 2.496-2.208 5.092-4.074 7.149-3.237 3.555-6.493 3.994-10.472 1.378-1.371-.899-2.59-2.017-3.789-3.155a1822.485 1822.485 0 0 0-8.892-8.248c-2.59-2.376-5.217-4.732-7.845-7.089-3.713-3.375-7.425-6.73-11.138-10.104-2.019-1.818-4.018-3.655-6.017-5.492-.171-.16-.324-.32-.495-.459-.571-.42-1.123-.46-1.599.139-.457.58-.419 1.159.114 1.658 1.809 1.677 3.598 3.355 5.426 4.992 2.609 2.377 5.217 4.713 7.826 7.09 3.713 3.374 7.445 6.709 11.119 10.104 3.485 3.235 7.121 6.291 10.472 9.685 1.276 1.298 2.78 2.317 4.227 3.375.305.22.705.4.476.919-1.199 2.776-2.284 5.631-4.398 7.868-2.666 2.796-5.826 3.195-9.101 1.218a19.648 19.648 0 0 1-3.58-2.776c-5.483-5.332-11.233-10.344-16.869-15.496l-13.386-12.242c-1.618-1.477-3.237-2.975-4.874-4.453-1.2-1.078-1.523-1.038-2.551.02-.514.519-.324.779.133 1.158 1.733 1.438 3.446 2.936 5.16 4.394.247.199.666.439.076.679-3.18 1.318-6.264 2.835-9.349 4.772.133-2.376.057-4.533.419-6.589.495-2.816-.514-5.113-1.809-7.309-2.494-4.234-7.026-5.831-11.862-4.374-2.704.819-5.026 2.277-7.102 4.274-.362.339-.723.679-1.085 1.038-5.503 5.971-9.178 15.537-9.178 15.537-.4 2.536-.761 5.072-.266 7.648.819 4.273 2.913 7.429 7.045 8.846 2.266.779 4.512.42 6.76 0 2.303-.439 2.227-.479 1.903 2.017-.266 2.057-.457 4.154-.095 6.251.838 4.693 4.436 7.888 8.987 8.028 3.256.1 6.169-.939 8.987-2.477l3.941-2.156c.229.439.057.759.076 1.078.058 2.556-.514 5.092-.095 7.648.838 5.053 4.589 8.388 9.463 8.488 4.379.079 7.978-1.798 11.139-4.773 2.513-2.377 4.417-5.292 6.55-8.008 1.675-2.137 2.894-4.533 3.579-7.189.419-1.598.743-3.215 1.066-4.833.153-.739.324-.898.972-.419a95.476 95.476 0 0 0 3.922 2.836c4.836 3.315 9.177 2.795 13.119-1.578 1.846-2.037 2.989-4.513 4.017-7.069.685-1.718.685-1.758 2.437-1.498 2.018.3 3.827-.22 5.503-1.338 2.97-1.997 4.836-4.932 6.226-8.227.952-2.257.914-2.277 3.218-1.858.19.04.362.12.552.14 1.39.18 2.818.2 3.884-.819 1.409-1.338 2.951-2.516 4.189-4.033 1.999-2.457 3.199-5.212 3.199-8.507 0-1.798-.457-3.475-.838-5.173-.133-.579.038-.758.476-.938 4.684-1.857 9.368-3.655 14.014-5.612 1.104-.459 1.637-.119 2.285.719 3.522 4.573 9.691 6.231 14.87 4.014 4.037-1.737 8.035-3.614 12.11-5.252 7.102-2.915 10.872-11.223 7.597-19.171zM54.203 144.795c1.18-1.677 2.285-3.435 3.694-4.912 2.722-2.856 6.016-3.755 9.672-2.496 3.618 1.258 5.75 4.053 6.379 7.947.38 2.317-.02 4.593-1.314 6.57-1.276 1.937-2.552 3.875-4.113 5.592-1.809 1.977-4.055 3.015-6.816 2.955-4.475.26-8.854-3.854-9.254-8.726-.21-2.556.324-4.873 1.752-6.93zm4.97-78.8c-2.285 7.03-4.723 14.019-7.103 21.028-4.188 12.321-8.377 24.623-12.566 36.944-1.238 3.654-2.475 7.329-3.751 10.963-1.676 4.753-7.007 7.908-11.805 6.97-3.256-.639-6.245-2.137-9.368-3.195-1.714-.58-3.408-1.279-5.103-1.858-4.131-1.437-7.273-6.05-7.064-10.624-.266-2.296.838-4.473 1.58-6.709 2.152-6.45 4.38-12.881 6.57-19.311 4.626-13.6 9.272-27.179 13.899-40.778.628-1.837 1.2-3.714 1.885-5.531 2.151-5.592 7.864-8.408 13.328-6.51a440.567 440.567 0 0 1 13.271 4.832c5.236 1.977 8.035 8.188 6.226 13.78zm61.652 99.529s7.235 6.67 9.806 8.966c-5.655-.519-8.797 1.378-10.949 2.037 2.399-4.613 1.143-11.003 1.143-11.003zm-39.414 12.64c-4.131.42-7.73-2.895-8.358-7.508-.61-4.513.57-8.547 2.875-12.281a98.787 98.787 0 0 1 4.817-7.17c2.075-2.795 4.665-4.932 7.94-6.07 5.636-1.937 10.91 1.917 11.043 8.127v1.099c.076 2.716-.495 5.312-1.732 7.648-2.38 4.513-5.084 8.827-8.683 12.381-2.19 2.197-4.874 3.455-7.902 3.774zm25.4 11.024c-3.199 2.975-6.892 4.912-11.348 4.812-3.484-.08-6.169-2.436-6.778-6.03-.648-3.755.4-7.17 2.075-10.405 1.923-3.734 4.817-6.729 7.274-10.044 1.96-2.636 4.398-4.693 7.254-6.151 2.589-1.338 5.312-2.117 8.263-1.538 3.123.619 5.465 3.375 5.598 6.75.019.459 0 .939 0 1.398.019 3.575-1.142 6.81-3.084 9.665-2.78 4.074-5.655 8.168-9.254 11.543zm27.628 4.353c-2.095 3.075-4.284 6.111-6.931 8.687-2.647 2.596-5.75 4.333-10.301 4.353-3.522.12-6.55-3.195-6.778-7.848-.191-4.054 1.199-7.628 3.541-10.783a148.359 148.359 0 0 1 5.103-6.431c2.761-3.295 6.15-5.491 10.396-5.671 3.979-.18 7.083 2.137 7.788 6.909.571 4.034-.667 7.609-2.818 10.784zm69.573-55.635c-4.532 1.797-9.063 3.574-13.576 5.431-.933.38-1.428.28-1.98-.639-2.228-3.714-5.16-6.769-8.378-9.585-2.799-2.436-5.426-5.092-8.13-7.668-3.846-3.655-7.711-7.309-11.558-10.964-3.598-3.414-7.178-6.849-10.776-10.244l-11.082-10.484c-2.323-2.217-4.665-4.393-6.949-6.67-.743-.739-1.505-1.018-2.476-.918-3.046.319-6.131.459-9.196.598-1.276.06-1.619.48-1.733 1.798-.514 5.651-1.39 11.203-4.132 16.215-2.208 4.014-5.369 6.77-9.805 7.648-2.856.58-5.674.26-8.435-.619-.743-.239-1.619-.159-2.17-1.018-.858-1.318-1.124-2.736-.896-4.274a20.711 20.711 0 0 1 2.095-6.67c.305-.599.4-1.178.324-1.817-.248-1.937-.343-3.874-.21-5.85.343-4.873 1.77-9.347 4.208-13.48.666-1.118 1.885-1.658 2.875-2.397 6.569-4.932 13.176-9.785 19.745-14.717 1.618-1.218 3.446-1.618 5.293-1.997 1.314-.26 2.647-.24 3.979-.26 6.436-.02 12.224 2.237 17.613 5.751 5.179 3.395 10.624 6.071 16.66 7.19 4.17.778 8.206.26 11.976-1.878.762-.439 1.047-.3 1.39.56 4.132 10.504 8.321 20.968 12.491 31.452 4.493 11.283 9.006 22.545 13.499 33.808.514 1.238.514 1.218-.666 1.698zm36.633-11.822c0 5.072-2.608 9.126-7.007 11.043-4.036 1.757-8.073 3.535-12.109 5.272-5.674 2.456-11.938-.3-14.318-6.271-4.399-11.023-8.797-22.066-13.195-33.089-4.684-11.762-9.387-23.524-14.052-35.306-2.304-5.792.305-12.402 5.807-14.858 4.189-1.877 8.397-3.734 12.605-5.571 5.35-2.337 11.614.24 14.052 5.85 1.561 3.595 2.932 7.29 4.379 10.924 3.237 8.128 6.473 16.235 9.71 24.363 4.494 11.283 8.987 22.546 13.462 33.829.495 1.278.742 2.616.666 3.814z" fill="#91C8EB"/></svg>