<svg width="248" height="248" fill="none" xmlns="http://www.w3.org/2000/svg"><path d="M35.75 95.16l-19.172 29.249c-2.988 4.5-3.237 10.25-.996 15 2.739 4.75 7.47 7.75 12.948 7.75H36v27c0 10.5 8.466 19 18.924 19h20.169v27.75c0 3.5 1.494 7 4.233 9.5 2.49 2.25 5.478 3.5 8.715 3.5h.996l65.238-5.75c6.723-.5 11.703-6 11.703-12.75v-43.75c0-1.25.996-2.25 1.494-2.75 20.418-17.5 32.619-43.75 32.619-70 0-1-.249-1.75-.249-2.75 0-28.594-23.955-78.75-73.206-78.75-2.739-.25-5.478-.5-8.466-.5-42.58 0-77.688 32.25-81.423 75-.25 1.25-.498 2.25-.996 3.25z" fill="#DFEFFA"/><path d="M180.56 133.809c-5.381 14.798-14.562 28.35-26.685 38.763-.49.493-1.471 1.48-1.471 2.714v43.182c0 6.662-4.905 12.09-11.526 12.584l-64.25 5.675h-.98c-3.189 0-6.131-1.233-8.584-3.454-2.697-2.468-4.168-5.922-4.168-9.377v-27.389H43.031c-10.3 0-18.637-8.39-18.637-18.754v-26.649h-7.357c-5.395 0-10.054-2.961-12.752-7.649-2.207-4.689-1.962-10.364.981-14.806l18.883-28.87c.49-.987.735-1.974.98-3.207 3.679-42.195 38.256-74.026 80.19-74.026 2.943 0 5.64.246 8.338.493 12.292 0 22.984 3.18 32.097 8.386" stroke="#92C9EC" stroke-width="2"/><path d="M120.18 89.099l-.009.01-.009.008c-.764.777-.998 1.918-.624 3.027l5.202 13.999.001.003c.405 1.062 1.359 1.829 2.466 1.946l.013.001.013.002 18.113 2.39.832.11.037.838.773 17.843v.015c.03 1.076.724 2.093 1.727 2.54v-.001l.01.005 13.839 6.332.003.001c1.062.49 2.29.357 3.161-.319l.007-.005.007-.006 14.531-10.873.658-.492.611.55 13.421 12.098.006.005a3.18 3.18 0 0 0 3.152.602l.004-.001 14.358-5.055.005-.001c1.085-.397 1.841-1.329 1.992-2.421v-.001l2.401-17.721.113-.83.837-.034 18.225-.757h.005c1.193-.063 2.2-.734 2.687-1.744v-.001l6.471-13.539.003-.006.003-.007c.467-.942.339-2.13-.346-3.05l-11.105-14.17-.529-.675.587-.626 12.374-13.183.003-.003c.758-.802.996-1.95.605-2.98l-.002-.008-5.208-14.052-.001-.003a3.085 3.085 0 0 0-2.491-1.949h-.001L221 44.561l-.834-.108-.036-.84-.774-17.883v-.015c-.03-1.073-.682-2.057-1.738-2.544h-.001l-13.837-6.332-.003-.001a3.085 3.085 0 0 0-3.174.33h-.001l-14.531 10.873-.658.492-.611-.55-13.426-12.102a3.157 3.157 0 0 0-3.147-.605l-.007.003-14.369 5.098-.008.003-.008.002c-1.051.353-1.819 1.302-1.973 2.413v.002l-2.401 17.681-.113.83-.837.035-18.225.756h-.005c-1.193.063-2.2.734-2.686 1.743l-.001.002-6.466 13.529a2.95 2.95 0 0 0 .369 3.064l.001.002 11.071 14.178.527.674-.585.625-12.333 13.183zm51.731 12.016l-.003-.001c-13.276-6.082-19.05-21.614-12.819-34.636 4.362-9.117 13.835-15.027 24.104-15.027 3.887 0 7.694.828 11.246 2.482 6.424 2.937 11.292 8.155 13.746 14.696l.002.005c2.414 6.547 2.074 13.638-.931 19.934h-.001c-4.363 9.12-13.837 14.987-24.103 14.987-3.888 0-7.693-.827-11.241-2.44z" stroke="#92C9EC" stroke-width="2"/></svg>