<svg width="88" height="89" viewBox="0 0 88 89" fill="none" xmlns="http://www.w3.org/2000/svg">
<rect x="16.5" y="1.34229" width="48" height="87" rx="7.5" stroke="#92C9EC"/>
<line x1="29.5" y1="84.3423" x2="51.5" y2="84.3423" stroke="#92C9EC" stroke-linecap="round"/>
<path d="M26.5 1.34229H54.5V4.84229C54.5 6.223 53.3807 7.34229 52 7.34229H29C27.6193 7.34229 26.5 6.223 26.5 4.84229V1.34229Z" stroke="#92C9EC"/>
<line x1="35" y1="4.34229" x2="44" y2="4.34229" stroke="#92C9EC"/>
<line x1="45" y1="4.34229" x2="48" y2="4.34229" stroke="#92C9EC"/>
<path d="M24.9973 48.3131L24.9968 48.3137C24.7547 48.5549 24.5744 48.8516 24.4704 49.1779C24.3665 49.5041 24.3417 49.851 24.3981 50.1889L24.3982 50.1895L25.7988 58.5127C25.8953 59.0864 25.2905 59.5206 24.7778 59.2458L17.478 55.3329L17.4778 55.3328C17.1767 55.1716 16.8411 55.0871 16.5 55.0871C16.1589 55.0871 15.8233 55.1716 15.5222 55.3328L15.522 55.3329L8.22224 59.2458C7.70949 59.5206 7.1047 59.0864 7.20124 58.5127L8.6018 50.1895L8.60191 50.1889C8.65829 49.851 8.63351 49.5041 8.52955 49.1779C8.42558 48.8516 8.24527 48.5549 8.00325 48.3137L8.00273 48.3131L2.05051 42.398C1.64182 41.9919 1.87141 41.2935 2.44137 41.2091L10.6446 39.994C10.6446 39.994 10.6446 39.994 10.6447 39.994C10.9824 39.944 11.3024 39.8111 11.5772 39.6076C11.852 39.404 12.0731 39.1361 12.2224 38.8276L15.8699 31.2917C16.1249 30.765 16.8751 30.765 17.1301 31.2917L20.7776 38.8276C20.7776 38.8276 20.7776 38.8276 20.7776 38.8276C20.9269 39.1361 21.148 39.404 21.4228 39.6075C21.6976 39.8111 22.0176 39.944 22.3554 39.994C22.3554 39.994 22.3554 39.994 22.3554 39.994L30.5586 41.209C31.1286 41.2934 31.3582 41.9918 30.9495 42.3979L24.9973 48.3131Z" fill="white" stroke="#92C9EC"/>
</svg>
