<svg width="73" height="75" viewBox="0 0 73 75" fill="none" xmlns="http://www.w3.org/2000/svg">
<path d="M37.5555 23.2137L7.55554 8.20263L37.5555 53.0017M37.5555 23.2137L67.5555 38.2249L37.5555 53.0017M37.5555 23.2137L7.55554 67.7786L37.5555 53.0017M37.5555 23.2137L7.55554 38.2249L37.5555 53.0017" stroke="#103654" stroke-width="3"/>
<ellipse cx="66.2222" cy="37.7804" rx="6.66667" ry="6.66667" fill="#92C9EC"/>
<ellipse cx="6.66667" cy="67.1139" rx="6.66667" ry="6.66667" fill="#92C9EC"/>
<circle cx="6.66667" cy="8.44718" r="6.66667" fill="#92C9EC"/>
<circle cx="6.66667" cy="37.7804" r="6.66667" fill="#92C9EC"/>
<ellipse cx="36.8889" cy="52.8915" rx="6.66667" ry="6.66667" fill="#92C9EC"/>
<path d="M43.5556 22.6694C43.5556 26.3513 40.5708 29.3361 36.8889 29.3361C33.207 29.3361 30.2222 26.3513 30.2222 22.6694C30.2222 18.9875 33.207 16.0027 36.8889 16.0027C40.5708 16.0027 43.5556 18.9875 43.5556 22.6694Z" fill="#92C9EC"/>
</svg>
