<svg width="753" height="298" fill="none" xmlns="http://www.w3.org/2000/svg">
  <path d="M162.753 145h-2.288v-7.472L157.457 145h-.992l-3.008-7.472V145h-2.272v-10.672h3.184l2.592 6.448 2.592-6.448h3.2V145Zm8.744 0h-2.032v-.8c-.555.661-1.371.992-2.448.992a2.904 2.904 0 0 1-1.872-.672c-.544-.459-.816-1.088-.816-1.888 0-.832.267-1.456.8-1.872a3.021 3.021 0 0 1 1.888-.624c1.099 0 1.915.315 2.448.944v-1.04c0-.395-.155-.709-.464-.944-.309-.235-.72-.352-1.232-.352-.843 0-1.595.304-2.256.912l-.768-1.36c.917-.811 2.043-1.216 3.376-1.216.992 0 1.803.229 2.432.688.629.459.944 1.205.944 2.24V145Zm-3.664-1.184c.757 0 1.301-.224 1.632-.672v-.96c-.331-.448-.875-.672-1.632-.672-.416 0-.763.107-1.04.32-.277.203-.416.485-.416.848 0 .352.139.629.416.832.277.203.624.304 1.04.304Zm9.279 1.376c-1.194 0-2.176-.379-2.944-1.136-.768-.757-1.152-1.733-1.152-2.928 0-1.184.384-2.155 1.152-2.912.768-.757 1.75-1.136 2.944-1.136 1.366 0 2.384.464 3.056 1.392l-1.328 1.248c-.373-.555-.917-.832-1.632-.832-.618 0-1.125.208-1.52.624-.384.405-.576.944-.576 1.616 0 .672.192 1.216.576 1.632.395.416.902.624 1.52.624.694 0 1.238-.277 1.632-.832l1.328 1.232c-.672.939-1.69 1.408-3.056 1.408Zm11.649-.192h-2.032v-4.704c0-.512-.123-.875-.368-1.088-.246-.213-.603-.32-1.072-.32-.715 0-1.302.304-1.76.912v5.2h-2.032v-10.672h2.032v3.952c.277-.331.65-.613 1.12-.848a3.588 3.588 0 0 1 1.6-.352c.832 0 1.456.213 1.872.64.426.427.64 1.024.64 1.792V145Zm3.025-8.56c-.331 0-.619-.117-.864-.352a1.207 1.207 0 0 1-.352-.864c0-.331.117-.613.352-.848.245-.235.533-.352.864-.352.341 0 .629.117.864.352s.352.517.352.848c0 .331-.117.619-.352.864a1.174 1.174 0 0 1-.864.352Zm1.024 8.56h-2.032v-7.728h2.032V145Zm9.263 0h-2.032v-4.672c0-.96-.475-1.44-1.424-1.44-.736 0-1.323.304-1.76.912v5.2h-2.032v-7.728h2.032v1.008c.672-.8 1.573-1.2 2.704-1.2.832 0 1.456.219 1.872.656.427.437.64 1.04.64 1.808V145Zm5.65.192c-1.195 0-2.182-.373-2.96-1.12-.779-.747-1.168-1.728-1.168-2.944 0-1.141.373-2.101 1.12-2.88.757-.779 1.717-1.168 2.88-1.168 1.152 0 2.085.395 2.8 1.184.714.779 1.072 1.803 1.072 3.072v.448h-5.744c.064.512.293.939.688 1.28.394.341.906.512 1.536.512.341 0 .709-.069 1.104-.208.405-.139.725-.325.96-.56l.896 1.312c-.779.715-1.84 1.072-3.184 1.072Zm1.776-4.784a1.937 1.937 0 0 0-.528-1.184c-.31-.352-.768-.528-1.376-.528-.576 0-1.024.176-1.344.528-.32.341-.507.736-.56 1.184h3.808ZM223.86 145h-6.784v-10.672h2.272V143h4.512v2Zm5.003.192c-1.195 0-2.181-.373-2.96-1.12-.779-.747-1.168-1.728-1.168-2.944 0-1.141.373-2.101 1.12-2.88.757-.779 1.717-1.168 2.88-1.168 1.152 0 2.085.395 2.8 1.184.715.779 1.072 1.803 1.072 3.072v.448h-5.744c.064.512.293.939.688 1.28.395.341.907.512 1.536.512.341 0 .709-.069 1.104-.208.405-.139.725-.325.96-.56l.896 1.312c-.779.715-1.84 1.072-3.184 1.072Zm1.776-4.784a1.937 1.937 0 0 0-.528-1.184c-.309-.352-.768-.528-1.376-.528-.576 0-1.024.176-1.344.528-.32.341-.507.736-.56 1.184h3.808ZM240.747 145h-2.032v-.8c-.555.661-1.371.992-2.448.992a2.904 2.904 0 0 1-1.872-.672c-.544-.459-.816-1.088-.816-1.888 0-.832.267-1.456.8-1.872a3.021 3.021 0 0 1 1.888-.624c1.099 0 1.915.315 2.448.944v-1.04c0-.395-.155-.709-.464-.944-.309-.235-.72-.352-1.232-.352-.843 0-1.595.304-2.256.912l-.768-1.36c.917-.811 2.043-1.216 3.376-1.216.992 0 1.803.229 2.432.688.629.459.944 1.205.944 2.24V145Zm-3.664-1.184c.757 0 1.301-.224 1.632-.672v-.96c-.331-.448-.875-.672-1.632-.672-.416 0-.763.107-1.04.32-.277.203-.416.485-.416.848 0 .352.139.629.416.832.277.203.624.304 1.04.304Zm7.711 1.184h-2.032v-7.728h2.032v1.056a3.402 3.402 0 0 1 1.104-.896 2.901 2.901 0 0 1 1.36-.352v1.984a2.68 2.68 0 0 0-1.648.208c-.384.171-.656.379-.816.624V145Zm10.982 0h-2.032v-4.672c0-.96-.475-1.44-1.424-1.44-.736 0-1.323.304-1.76.912v5.2h-2.032v-7.728h2.032v1.008c.672-.8 1.573-1.2 2.704-1.2.832 0 1.456.219 1.872.656.427.437.64 1.04.64 1.808V145Zm3.026-8.56c-.331 0-.619-.117-.864-.352a1.207 1.207 0 0 1-.352-.864c0-.331.117-.613.352-.848.245-.235.533-.352.864-.352.341 0 .629.117.864.352.234.235.352.517.352.848 0 .331-.118.619-.352.864a1.174 1.174 0 0 1-.864.352Zm1.024 8.56h-2.032v-7.728h2.032V145Zm9.263 0h-2.032v-4.672c0-.96-.475-1.44-1.424-1.44-.736 0-1.323.304-1.76.912v5.2h-2.032v-7.728h2.032v1.008c.672-.8 1.573-1.2 2.704-1.2.832 0 1.456.219 1.872.656.426.437.64 1.04.64 1.808V145Zm5.185 3.136c-1.333 0-2.443-.384-3.328-1.152l.912-1.472c.576.64 1.381.96 2.416.96.576 0 1.072-.155 1.488-.464.427-.299.64-.795.64-1.488v-.784c-.64.811-1.435 1.216-2.384 1.216-1.003 0-1.824-.341-2.464-1.024-.629-.693-.944-1.664-.944-2.912 0-1.237.315-2.203.944-2.896.64-.693 1.461-1.04 2.464-1.04.96 0 1.755.395 2.384 1.184v-.992h2.048v7.2c0 .704-.128 1.307-.384 1.808-.245.501-.581.88-1.008 1.136a4.604 4.604 0 0 1-1.328.544 5.747 5.747 0 0 1-1.456.176Zm.384-4.992c.331 0 .661-.085.992-.256.331-.171.581-.379.752-.624v-2.496c-.171-.256-.421-.464-.752-.624a2.08 2.08 0 0 0-.992-.256c-.587 0-1.061.192-1.424.576-.352.384-.528.901-.528 1.552s.176 1.168.528 1.552c.363.384.837.576 1.424.576ZM291.231 145h-2.032v-.8c-.554.661-1.37.992-2.448.992a2.904 2.904 0 0 1-1.872-.672c-.544-.459-.816-1.088-.816-1.888 0-.832.267-1.456.8-1.872a3.023 3.023 0 0 1 1.888-.624c1.099 0 1.915.315 2.448.944v-1.04c0-.395-.154-.709-.464-.944-.309-.235-.72-.352-1.232-.352-.842 0-1.594.304-2.256.912l-.768-1.36c.918-.811 2.043-1.216 3.376-1.216.992 0 1.803.229 2.432.688.63.459.944 1.205.944 2.24V145Zm-3.664-1.184c.758 0 1.302-.224 1.632-.672v-.96c-.33-.448-.874-.672-1.632-.672-.416 0-.762.107-1.04.32-.277.203-.416.485-.416.848 0 .352.139.629.416.832.278.203.624.304 1.04.304ZM300.495 145h-2.032v-4.672c0-.96-.475-1.44-1.424-1.44-.736 0-1.323.304-1.76.912v5.2h-2.032v-7.728h2.032v1.008c.672-.8 1.573-1.2 2.704-1.2.832 0 1.456.219 1.872.656.426.437.64 1.04.64 1.808V145Zm9.377 0h-2.048v-.992c-.629.789-1.424 1.184-2.384 1.184-1.002 0-1.824-.357-2.464-1.072-.64-.725-.96-1.717-.96-2.976 0-1.237.32-2.224.96-2.96.64-.736 1.462-1.104 2.464-1.104.982 0 1.776.395 2.384 1.184v-3.936h2.048V145Zm-3.808-1.616c.342 0 .678-.08 1.008-.24.331-.171.582-.384.752-.64v-2.736c-.17-.256-.421-.464-.752-.624a2.168 2.168 0 0 0-1.008-.256c-.576 0-1.045.208-1.408.624-.362.416-.544.96-.544 1.632 0 .661.182 1.2.544 1.616.363.416.832.624 1.408.624ZM325.981 145h-2.592l-.656-1.808h-4.576l-.672 1.808h-2.592l4.128-10.672h2.848L325.981 145Zm-3.872-3.808-1.664-4.592-1.664 4.592h3.328Zm7.13 3.808h-2.272v-10.672h2.272V145ZM116.93 15h-2.272V4.328h4.992c1.12 0 1.994.33 2.624.992.64.65.96 1.467.96 2.448 0 .97-.32 1.787-.96 2.448-.64.661-1.515.992-2.624.992h-2.72V15Zm2.416-5.792c.458 0 .832-.128 1.12-.384.298-.267.448-.619.448-1.056 0-.437-.15-.784-.448-1.04-.288-.267-.662-.4-1.12-.4h-2.416v2.88h2.416Zm7.28 5.792h-2.032V7.272h2.032v1.056a3.402 3.402 0 0 1 1.104-.896 2.902 2.902 0 0 1 1.36-.352v1.984a2.595 2.595 0 0 0-.56-.048c-.341 0-.704.085-1.088.256-.384.17-.656.379-.816.624V15Zm7.366.192c-1.195 0-2.182-.373-2.96-1.12-.779-.747-1.168-1.728-1.168-2.944 0-1.141.373-2.101 1.12-2.88.757-.779 1.717-1.168 2.88-1.168 1.152 0 2.085.395 2.8 1.184.714.779 1.072 1.803 1.072 3.072v.448h-5.744c.064.512.293.939.688 1.28.394.341.906.512 1.536.512.341 0 .709-.07 1.104-.208.405-.139.725-.325.96-.56l.896 1.312c-.779.715-1.84 1.072-3.184 1.072Zm1.776-4.784a1.936 1.936 0 0 0-.528-1.184c-.31-.352-.768-.528-1.376-.528-.576 0-1.024.176-1.344.528-.32.341-.507.736-.56 1.184h3.808ZM146.563 15h-2.048v-.992c-.629.79-1.424 1.184-2.384 1.184-1.002 0-1.824-.357-2.464-1.072-.64-.725-.96-1.717-.96-2.976 0-1.237.32-2.224.96-2.96.64-.736 1.462-1.104 2.464-1.104.982 0 1.776.395 2.384 1.184V4.328h2.048V15Zm-3.808-1.616c.342 0 .678-.08 1.008-.24.331-.17.582-.384.752-.64V9.768c-.17-.256-.421-.464-.752-.624a2.172 2.172 0 0 0-1.008-.256c-.576 0-1.045.208-1.408.624-.362.416-.544.96-.544 1.632 0 .661.182 1.2.544 1.616.363.416.832.624 1.408.624Zm6.831-6.944c-.33 0-.618-.117-.864-.352a1.212 1.212 0 0 1-.352-.864c0-.33.118-.613.352-.848.246-.235.534-.352.864-.352.342 0 .63.117.864.352.235.235.352.517.352.848 0 .33-.117.619-.352.864a1.173 1.173 0 0 1-.864.352ZM150.61 15h-2.032V7.272h2.032V15Zm5.615.192c-1.194 0-2.176-.379-2.944-1.136-.768-.757-1.152-1.733-1.152-2.928 0-1.184.384-2.155 1.152-2.912.768-.757 1.75-1.136 2.944-1.136 1.366 0 2.384.464 3.056 1.392l-1.328 1.248c-.373-.555-.917-.832-1.632-.832-.618 0-1.125.208-1.52.624-.384.405-.576.944-.576 1.616 0 .672.192 1.216.576 1.632.395.416.902.624 1.52.624.694 0 1.238-.277 1.632-.832l1.328 1.232c-.672.939-1.69 1.408-3.056 1.408Zm6.977 0c-.715 0-1.259-.181-1.632-.544-.374-.363-.56-.885-.56-1.568V9.048h-1.28V7.272h1.28V5.16h2.048v2.112h1.568v1.776h-1.568v3.488c0 .245.064.448.192.608.128.16.298.24.512.24.32 0 .554-.075.704-.224l.432 1.536c-.374.33-.939.496-1.696.496Zm3.822-8.752c-.331 0-.619-.117-.864-.352a1.208 1.208 0 0 1-.352-.864c0-.33.117-.613.352-.848.245-.235.533-.352.864-.352.341 0 .629.117.864.352.234.235.352.517.352.848 0 .33-.118.619-.352.864a1.176 1.176 0 0 1-.864.352Zm1.024 8.56h-2.032V7.272h2.032V15Zm6.207 0h-2.192l-3.104-7.728h2.176l2.016 5.376 2.016-5.376h2.192L174.255 15Zm7.643.192c-1.195 0-2.182-.373-2.96-1.12-.779-.747-1.168-1.728-1.168-2.944 0-1.141.373-2.101 1.12-2.88.757-.779 1.717-1.168 2.88-1.168 1.152 0 2.085.395 2.8 1.184.714.779 1.072 1.803 1.072 3.072v.448h-5.744c.064.512.293.939.688 1.28.394.341.906.512 1.536.512.341 0 .709-.07 1.104-.208.405-.139.725-.325.96-.56l.896 1.312c-.779.715-1.84 1.072-3.184 1.072Zm1.776-4.784a1.936 1.936 0 0 0-.528-1.184c-.31-.352-.768-.528-1.376-.528-.576 0-1.024.176-1.344.528-.32.341-.507.736-.56 1.184h3.808ZM201.203 15h-2.592l-.656-1.808h-4.576L192.707 15h-2.592l4.128-10.672h2.848L201.203 15Zm-3.872-3.808L195.667 6.6l-1.664 4.592h3.328ZM209.389 15h-2.032v-4.672c0-.96-.475-1.44-1.424-1.44-.736 0-1.323.304-1.76.912V15h-2.032V7.272h2.032V8.28c.672-.8 1.573-1.2 2.704-1.2.832 0 1.456.219 1.872.656.426.437.64 1.04.64 1.808V15Zm8.689 0h-2.032v-.8c-.554.661-1.37.992-2.448.992a2.904 2.904 0 0 1-1.872-.672c-.544-.459-.816-1.088-.816-1.888 0-.832.267-1.456.8-1.872a3.023 3.023 0 0 1 1.888-.624c1.099 0 1.915.315 2.448.944v-1.04c0-.395-.154-.71-.464-.944-.309-.235-.72-.352-1.232-.352-.842 0-1.594.304-2.256.912l-.768-1.36c.918-.81 2.043-1.216 3.376-1.216.992 0 1.803.23 2.432.688.63.459.944 1.205.944 2.24V15Zm-3.664-1.184c.758 0 1.302-.224 1.632-.672v-.96c-.33-.448-.874-.672-1.632-.672-.416 0-.762.107-1.04.32-.277.203-.416.485-.416.848 0 .352.139.63.416.832.278.203.624.304 1.04.304ZM222.126 15h-2.032V4.328h2.032V15Zm1.743 3.024.304-1.824c.192.085.405.128.64.128.544 0 .901-.187 1.072-.56l.288-.656-3.136-7.84h2.176l2.016 5.376 2.016-5.376h2.192l-3.632 8.992c-.267.683-.64 1.157-1.12 1.424-.48.277-1.083.427-1.808.448-.374 0-.71-.037-1.008-.112Zm11.067-2.832c-.715 0-1.259-.181-1.632-.544-.373-.363-.56-.885-.56-1.568V9.048h-1.28V7.272h1.28V5.16h2.048v2.112h1.568v1.776h-1.568v3.488c0 .245.064.448.192.608.128.16.299.24.512.24.32 0 .555-.075.704-.224l.432 1.536c-.373.33-.939.496-1.696.496Zm3.822-8.752c-.33 0-.618-.117-.864-.352a1.212 1.212 0 0 1-.352-.864c0-.33.118-.613.352-.848.246-.235.534-.352.864-.352.342 0 .63.117.864.352.235.235.352.517.352.848 0 .33-.117.619-.352.864a1.173 1.173 0 0 1-.864.352Zm1.024 8.56h-2.032V7.272h2.032V15Zm5.615.192c-1.195 0-2.176-.379-2.944-1.136-.768-.757-1.152-1.733-1.152-2.928 0-1.184.384-2.155 1.152-2.912.768-.757 1.749-1.136 2.944-1.136 1.365 0 2.384.464 3.056 1.392l-1.328 1.248c-.373-.555-.917-.832-1.632-.832-.619 0-1.125.208-1.52.624-.384.405-.576.944-.576 1.616 0 .672.192 1.216.576 1.632.395.416.901.624 1.52.624.693 0 1.237-.277 1.632-.832l1.328 1.232c-.672.939-1.691 1.408-3.056 1.408Zm7.168 0a5.9 5.9 0 0 1-1.936-.32c-.608-.213-1.114-.507-1.52-.88l.88-1.424c.299.277.704.523 1.216.736.512.213.998.32 1.456.32.427 0 .747-.075.96-.224a.696.696 0 0 0 .336-.608c0-.192-.117-.347-.352-.464a2.473 2.473 0 0 0-.848-.272c-.33-.053-.698-.133-1.104-.24a7.952 7.952 0 0 1-1.104-.384 2.143 2.143 0 0 1-.848-.704c-.224-.33-.336-.736-.336-1.216 0-.683.283-1.259.848-1.728.566-.47 1.339-.704 2.32-.704 1.195 0 2.235.352 3.12 1.056l-.816 1.392c-.245-.256-.576-.47-.992-.64a3.303 3.303 0 0 0-1.296-.256c-.362 0-.656.075-.88.224-.224.139-.336.32-.336.544 0 .17.112.315.336.432.224.107.507.187.848.24.342.053.71.139 1.104.256.395.107.763.24 1.104.4.342.15.624.395.848.736.224.341.336.757.336 1.248 0 .725-.298 1.323-.896 1.792-.586.459-1.402.688-2.448.688ZM156.802 35h-2.592c-.224-.213-.491-.48-.8-.8-.875.661-1.846.992-2.912.992-1.024 0-1.867-.267-2.528-.8-.662-.533-.992-1.296-.992-2.288 0-.736.202-1.344.608-1.824.416-.48.976-.896 1.68-1.248-.47-.885-.704-1.653-.704-2.304 0-.725.288-1.333.864-1.824.576-.49 1.306-.736 2.192-.736.789 0 1.45.208 1.984.624.544.405.816.95.816 1.632 0 .384-.07.73-.208 1.04-.139.31-.352.581-.64.816a5.734 5.734 0 0 1-.8.576 16.09 16.09 0 0 1-.976.496c.234.31.544.693.928 1.152.117.15.282.352.496.608l.4.48c.426-.661.752-1.35.976-2.064l1.632.752c-.448.981-.944 1.84-1.488 2.576A80.74 80.74 0 0 0 156.802 35Zm-6.016-1.408c.522 0 1.034-.181 1.536-.544a30.574 30.574 0 0 1-1.184-1.36 26.665 26.665 0 0 1-1.072-1.408c-.619.437-.928.981-.928 1.632 0 .501.16.907.48 1.216.32.31.709.464 1.168.464Zm-.192-6.816c0 .373.154.853.464 1.44.522-.245.917-.496 1.184-.752.277-.256.416-.565.416-.928 0-.277-.091-.496-.272-.656a.981.981 0 0 0-.672-.24c-.32 0-.587.112-.8.336-.214.213-.32.48-.32.8ZM167.879 35h-5.792V24.328h5.616c.971 0 1.723.267 2.256.8a2.56 2.56 0 0 1 .816 1.92c0 .65-.176 1.195-.528 1.632-.352.437-.789.71-1.312.816.576.085 1.062.379 1.456.88.395.501.592 1.083.592 1.744 0 .832-.272 1.52-.816 2.064-.544.544-1.306.816-2.288.816Zm-.672-6.4c.384 0 .688-.107.912-.32.224-.213.336-.49.336-.832 0-.341-.117-.619-.352-.832-.224-.224-.522-.336-.896-.336h-2.848v2.32h2.848Zm.08 4.432c.427 0 .763-.107 1.008-.32.246-.224.368-.528.368-.912 0-.352-.122-.645-.368-.88-.245-.245-.581-.368-1.008-.368h-2.928v2.48h2.928Zm6.37-6.592c-.331 0-.619-.117-.864-.352a1.208 1.208 0 0 1-.352-.864c0-.33.117-.613.352-.848.245-.235.533-.352.864-.352.341 0 .629.117.864.352.234.235.352.517.352.848 0 .33-.118.619-.352.864a1.176 1.176 0 0 1-.864.352Zm1.024 8.56h-2.032v-7.728h2.032V35Zm5.183 3.136c-1.334 0-2.443-.384-3.328-1.152l.912-1.472c.576.64 1.381.96 2.416.96.576 0 1.072-.155 1.488-.464.426-.299.64-.795.64-1.488v-.784c-.64.81-1.435 1.216-2.384 1.216-1.003 0-1.824-.341-2.464-1.024-.63-.693-.944-1.664-.944-2.912 0-1.237.314-2.203.944-2.896.64-.693 1.461-1.04 2.464-1.04.96 0 1.754.395 2.384 1.184v-.992h2.048v7.2c0 .704-.128 1.307-.384 1.808-.246.501-.582.88-1.008 1.136-.427.256-.87.437-1.328.544a5.739 5.739 0 0 1-1.456.176Zm.384-4.992c.33 0 .661-.085.992-.256.33-.17.581-.379.752-.624v-2.496c-.171-.256-.422-.464-.752-.624a2.083 2.083 0 0 0-.992-.256c-.587 0-1.062.192-1.424.576-.352.384-.528.901-.528 1.552 0 .65.176 1.168.528 1.552.362.384.837.576 1.424.576ZM194.405 35h-4.208V24.328h4.208c1.674 0 3.034.49 4.08 1.472 1.056.981 1.584 2.272 1.584 3.872s-.523 2.89-1.568 3.872c-1.046.97-2.411 1.456-4.096 1.456Zm0-2c1.024 0 1.834-.32 2.432-.96.608-.64.912-1.43.912-2.368 0-.981-.294-1.781-.88-2.4-.587-.63-1.408-.944-2.464-.944h-1.936V33h1.936Zm13.9 2h-2.032v-.8c-.555.661-1.371.992-2.448.992a2.904 2.904 0 0 1-1.872-.672c-.544-.459-.816-1.088-.816-1.888 0-.832.267-1.456.8-1.872a3.021 3.021 0 0 1 1.888-.624c1.099 0 1.915.315 2.448.944v-1.04c0-.395-.155-.71-.464-.944-.309-.235-.72-.352-1.232-.352-.843 0-1.595.304-2.256.912l-.768-1.36c.917-.81 2.043-1.216 3.376-1.216.992 0 1.803.23 2.432.688.629.459.944 1.205.944 2.24V35Zm-3.664-1.184c.757 0 1.301-.224 1.632-.672v-.96c-.331-.448-.875-.672-1.632-.672-.416 0-.763.107-1.04.32-.277.203-.416.485-.416.848 0 .352.139.63.416.832.277.203.624.304 1.04.304Zm8.272 1.376c-.715 0-1.259-.181-1.632-.544-.374-.363-.56-.885-.56-1.568v-4.032h-1.28v-1.776h1.28V25.16h2.048v2.112h1.568v1.776h-1.568v3.488c0 .245.064.448.192.608.128.16.298.24.512.24.32 0 .554-.075.704-.224l.432 1.536c-.374.33-.939.496-1.696.496Zm9.486-.192h-2.032v-.8c-.555.661-1.371.992-2.448.992a2.9 2.9 0 0 1-1.872-.672c-.544-.459-.816-1.088-.816-1.888 0-.832.266-1.456.8-1.872a3.021 3.021 0 0 1 1.888-.624c1.098 0 1.914.315 2.448.944v-1.04c0-.395-.155-.71-.464-.944-.31-.235-.72-.352-1.232-.352-.843 0-1.595.304-2.256.912l-.768-1.36c.917-.81 2.042-1.216 3.376-1.216.992 0 1.802.23 2.432.688.629.459.944 1.205.944 2.24V35Zm-3.664-1.184c.757 0 1.301-.224 1.632-.672v-.96c-.331-.448-.875-.672-1.632-.672-.416 0-.763.107-1.04.32-.278.203-.416.485-.416.848 0 .352.138.63.416.832.277.203.624.304 1.04.304ZM529.287 35.192c-1.622 0-2.976-.512-4.064-1.536-1.078-1.035-1.616-2.363-1.616-3.984s.538-2.944 1.616-3.968c1.088-1.035 2.442-1.552 4.064-1.552 1.994 0 3.482.87 4.464 2.608l-1.952.96a2.869 2.869 0 0 0-1.04-1.104 2.6 2.6 0 0 0-1.472-.448c-.971 0-1.771.33-2.4.992-.63.661-.944 1.499-.944 2.512s.314 1.85.944 2.512c.629.661 1.429.992 2.4.992.533 0 1.024-.144 1.472-.432a2.837 2.837 0 0 0 1.04-1.12l1.952.944c-1.014 1.75-2.502 2.624-4.464 2.624ZM540.88 35h-2.848l-4.128-10.672h2.592l2.96 8.208 2.944-8.208h2.592L540.88 35Zm15.816 0h-2.032v-.8c-.555.661-1.371.992-2.448.992a2.9 2.9 0 0 1-1.872-.672c-.544-.459-.816-1.088-.816-1.888 0-.832.266-1.456.8-1.872a3.021 3.021 0 0 1 1.888-.624c1.098 0 1.914.315 2.448.944v-1.04c0-.395-.155-.71-.464-.944-.31-.235-.72-.352-1.232-.352-.843 0-1.595.304-2.256.912l-.768-1.36c.917-.81 2.042-1.216 3.376-1.216.992 0 1.802.23 2.432.688.629.459.944 1.205.944 2.24V35Zm-3.664-1.184c.757 0 1.301-.224 1.632-.672v-.96c-.331-.448-.875-.672-1.632-.672-.416 0-.763.107-1.04.32-.278.203-.416.485-.416.848 0 .352.138.63.416.832.277.203.624.304 1.04.304ZM565.959 35h-2.032v-4.672c0-.96-.475-1.44-1.424-1.44-.736 0-1.323.304-1.76.912V35h-2.032v-7.728h2.032v1.008c.672-.8 1.573-1.2 2.704-1.2.832 0 1.456.219 1.872.656.427.437.64 1.04.64 1.808V35Zm9.378 0h-2.048v-.992c-.63.79-1.424 1.184-2.384 1.184-1.003 0-1.824-.357-2.464-1.072-.64-.725-.96-1.717-.96-2.976 0-1.237.32-2.224.96-2.96.64-.736 1.461-1.104 2.464-1.104.981 0 1.776.395 2.384 1.184v-3.936h2.048V35Zm-3.808-1.616c.341 0 .677-.08 1.008-.24.33-.17.581-.384.752-.64v-2.736c-.171-.256-.422-.464-.752-.624a2.178 2.178 0 0 0-1.008-.256c-.576 0-1.046.208-1.408.624-.363.416-.544.96-.544 1.632 0 .661.181 1.2.544 1.616.362.416.832.624 1.408.624Zm15.021 1.808c-1.611 0-2.944-.517-4.001-1.552-1.045-1.045-1.567-2.368-1.567-3.968s.522-2.917 1.567-3.952c1.057-1.045 2.39-1.568 4.001-1.568 1.621 0 2.954.517 4 1.552 1.056 1.035 1.584 2.357 1.584 3.968 0 1.61-.528 2.933-1.584 3.968-1.046 1.035-2.379 1.552-4 1.552Zm-2.352-3.008c.597.661 1.381.992 2.352.992.97 0 1.754-.33 2.352-.992.597-.661.896-1.499.896-2.512s-.299-1.85-.896-2.512c-.598-.661-1.382-.992-2.352-.992-.971 0-1.755.33-2.352.992-.587.661-.88 1.499-.88 2.512s.293 1.85.88 2.512Zm14.698 3.008c-1.621 0-2.976-.512-4.064-1.536-1.077-1.035-1.616-2.363-1.616-3.984s.539-2.944 1.616-3.968c1.088-1.035 2.443-1.552 4.064-1.552 1.995 0 3.483.87 4.464 2.608l-1.952.96a2.862 2.862 0 0 0-1.04-1.104 2.6 2.6 0 0 0-1.472-.448c-.971 0-1.771.33-2.4.992-.629.661-.944 1.499-.944 2.512s.315 1.85.944 2.512c.629.661 1.429.992 2.4.992.533 0 1.024-.144 1.472-.432a2.83 2.83 0 0 0 1.04-1.12l1.952.944c-1.013 1.75-2.501 2.624-4.464 2.624ZM613.352 35h-2.608l-2.096-3.792h-1.664V35h-2.272V24.328h4.992c1.099 0 1.968.32 2.608.96.651.64.976 1.467.976 2.48 0 .875-.229 1.584-.688 2.128-.448.544-.997.89-1.648 1.04l2.4 4.064Zm-3.984-5.792c.47 0 .854-.128 1.152-.384.299-.267.448-.619.448-1.056 0-.437-.149-.784-.448-1.04-.298-.267-.682-.4-1.152-.4h-2.384v2.88h2.384ZM439.1 35h-2.192l-5.088-6.96V35h-2.272V24.328h2.336l4.944 6.704v-6.704h2.272V35Zm8.888 0h-6.784V24.328h2.272V33h4.512v2Zm3.863 0h-2.272V24.328h4.992c1.12 0 1.995.33 2.624.992.64.65.96 1.467.96 2.448 0 .97-.32 1.787-.96 2.448-.64.661-1.514.992-2.624.992h-2.72V35Zm2.416-5.792c.459 0 .832-.128 1.12-.384.299-.267.448-.619.448-1.056 0-.437-.149-.784-.448-1.04-.288-.267-.661-.4-1.12-.4h-2.416v2.88h2.416ZM641.547 145l-4.112-10.672h-2.848L630.459 145h2.592l.672-1.808h4.576l.656 1.808h2.592Zm-3.872-3.808h-3.328l1.664-4.592 1.664 4.592Zm7.13 3.808v-10.672h-2.272V145h2.272Zm17.78 0v-10.672h-3.2l-2.592 6.448-2.592-6.448h-3.184V145h2.272v-7.472l3.008 7.472h.992l3.008-7.472V145h2.288Zm5.655.192c2.56 0 4.096-1.856 4.096-4.064 0-2.192-1.536-4.048-4.096-4.048-2.544 0-4.08 1.856-4.08 4.048 0 2.208 1.536 4.064 4.08 4.064Zm0-1.808c-1.264 0-1.968-1.04-1.968-2.256 0-1.2.704-2.24 1.968-2.24s1.984 1.04 1.984 2.24c0 1.216-.72 2.256-1.984 2.256Zm7.636-.864v-2.736c.336-.512 1.088-.896 1.744-.896 1.184 0 1.968.912 1.968 2.256 0 1.344-.784 2.24-1.968 2.24-.656 0-1.408-.368-1.744-.864Zm0 2.48v-.992c.608.768 1.456 1.184 2.384 1.184 1.952 0 3.424-1.472 3.424-4.048 0-2.528-1.456-4.064-3.424-4.064-.912 0-1.776.4-2.384 1.184v-3.936h-2.032V145h2.032Zm8.351-8.56c.672 0 1.216-.544 1.216-1.216 0-.672-.544-1.2-1.216-1.2-.656 0-1.216.528-1.216 1.2 0 .672.56 1.216 1.216 1.216Zm1.024 8.56v-7.728h-2.032V145h2.032Zm4.047 0v-10.672h-2.032V145h2.032Zm5.647.192c1.2 0 2.416-.368 3.184-1.072l-.896-1.312c-.496.48-1.408.768-2.064.768-1.312 0-2.096-.816-2.224-1.792h5.744v-.448c0-2.528-1.568-4.256-3.872-4.256-2.352 0-4 1.808-4 4.048 0 2.48 1.776 4.064 4.128 4.064Zm1.776-4.784h-3.808c.096-.768.64-1.712 1.904-1.712 1.344 0 1.856.976 1.904 1.712ZM714.25 145l-4.112-10.672h-2.848L703.162 145h2.592l.672-1.808h4.576l.656 1.808h2.592Zm-3.872-3.808h-3.328l1.664-4.592 1.664 4.592Zm9.226 4c1.984 0 3.424-1.488 3.424-4.064s-1.44-4.048-3.424-4.048c-.944 0-1.792.416-2.384 1.168v-.976h-2.032v10.672h2.032v-3.936c.624.8 1.472 1.184 2.384 1.184Zm-.64-1.808c-.656 0-1.408-.4-1.744-.88v-2.736c.336-.496 1.088-.88 1.744-.88 1.168 0 1.952.912 1.952 2.24 0 1.344-.784 2.256-1.952 2.256Zm9.968 1.808c1.984 0 3.424-1.488 3.424-4.064s-1.44-4.048-3.424-4.048c-.944 0-1.792.416-2.384 1.168v-.976h-2.032v10.672h2.032v-3.936c.624.8 1.472 1.184 2.384 1.184Zm-.64-1.808c-.656 0-1.408-.4-1.744-.88v-2.736c.336-.496 1.088-.88 1.744-.88 1.168 0 1.952.912 1.952 2.24 0 1.344-.784 2.256-1.952 2.256Zm8.336 1.808c2.144 0 3.344-1.072 3.344-2.48 0-3.12-4.576-2.16-4.576-3.312 0-.432.48-.768 1.216-.768.944 0 1.824.4 2.288.896l.816-1.392c-.768-.608-1.808-1.056-3.12-1.056-2.032 0-3.168 1.136-3.168 2.432 0 3.04 4.592 2 4.592 3.28 0 .48-.416.832-1.296.832-.96 0-2.112-.528-2.672-1.056l-.88 1.424c.816.752 2.112 1.2 3.456 1.2ZM642.225 165c3.344 0 5.664-2.112 5.664-5.328s-2.32-5.344-5.664-5.344h-4.208V165h4.208Zm0-2h-1.936v-6.672h1.936c2.192 0 3.344 1.456 3.344 3.344 0 1.808-1.232 3.328-3.344 3.328Zm10.86 2.192c1.2 0 2.416-.368 3.184-1.072l-.896-1.312c-.496.48-1.408.768-2.064.768-1.312 0-2.096-.816-2.224-1.792h5.744v-.448c0-2.528-1.568-4.256-3.872-4.256-2.352 0-4 1.808-4 4.048 0 2.48 1.776 4.064 4.128 4.064Zm1.776-4.784h-3.808c.096-.768.64-1.712 1.904-1.712 1.344 0 1.856.976 1.904 1.712Zm7.628 4.592 3.104-7.728h-2.192l-2.016 5.376-2.016-5.376h-2.176l3.104 7.728h2.192Zm7.643.192c1.2 0 2.416-.368 3.184-1.072l-.896-1.312c-.496.48-1.408.768-2.064.768-1.312 0-2.096-.816-2.224-1.792h5.744v-.448c0-2.528-1.568-4.256-3.872-4.256-2.352 0-4 1.808-4 4.048 0 2.48 1.776 4.064 4.128 4.064Zm1.776-4.784H668.1c.096-.768.64-1.712 1.904-1.712 1.344 0 1.856.976 1.904 1.712Zm5.468 4.592v-10.672h-2.032V165h2.032Zm5.599.192c2.56 0 4.096-1.856 4.096-4.064 0-2.192-1.536-4.048-4.096-4.048-2.544 0-4.08 1.856-4.08 4.048 0 2.208 1.536 4.064 4.08 4.064Zm0-1.808c-1.264 0-1.968-1.04-1.968-2.256 0-1.2.704-2.24 1.968-2.24s1.984 1.04 1.984 2.24c0 1.216-.72 2.256-1.984 2.256Zm10.019 1.808c1.984 0 3.424-1.488 3.424-4.064s-1.44-4.048-3.424-4.048c-.944 0-1.792.416-2.384 1.168v-.976h-2.032v10.672h2.032v-3.936c.624.8 1.472 1.184 2.384 1.184Zm-.64-1.808c-.656 0-1.408-.4-1.744-.88v-2.736c.336-.496 1.088-.88 1.744-.88 1.168 0 1.952.912 1.952 2.24 0 1.344-.784 2.256-1.952 2.256ZM709.538 165v-5.584c0-1.584-.848-2.336-2.272-2.336-1.184 0-2.208.704-2.656 1.408-.288-.88-1.008-1.408-2.144-1.408-1.184 0-2.208.736-2.528 1.2v-1.008h-2.032V165h2.032v-5.2c.304-.432.896-.912 1.6-.912.832 0 1.152.512 1.152 1.232V165h2.048v-5.216c.288-.416.88-.896 1.6-.896.832 0 1.152.512 1.152 1.232V165h2.048Zm5.625.192c1.2 0 2.416-.368 3.184-1.072l-.896-1.312c-.496.48-1.408.768-2.064.768-1.312 0-2.096-.816-2.224-1.792h5.744v-.448c0-2.528-1.568-4.256-3.872-4.256-2.352 0-4 1.808-4 4.048 0 2.48 1.776 4.064 4.128 4.064Zm1.776-4.784h-3.808c.096-.768.64-1.712 1.904-1.712 1.344 0 1.856.976 1.904 1.712ZM727.623 165v-5.456c0-1.504-.816-2.464-2.512-2.464-1.264 0-2.208.608-2.704 1.2v-1.008h-2.032V165h2.032v-5.2c.336-.464.96-.912 1.76-.912.864 0 1.424.368 1.424 1.44V165h2.032Zm4.61.192c.848 0 1.392-.224 1.696-.496l-.432-1.536c-.112.112-.4.224-.704.224-.448 0-.704-.368-.704-.848v-3.488h1.568v-1.776h-1.568v-2.112h-2.048v2.112h-1.28v1.776h1.28v4.032c0 1.376.768 2.112 2.192 2.112ZM67.358 273.416v-10.672h-3.2l-2.592 6.448-2.592-6.448H55.79v10.672h2.272v-7.472l3.008 7.472h.992l3.008-7.472v7.472h2.288Zm8.744 0v-4.992c0-2.224-1.616-2.928-3.376-2.928-1.216 0-2.432.384-3.376 1.216l.768 1.36c.656-.608 1.424-.912 2.256-.912 1.024 0 1.696.512 1.696 1.296v1.04c-.512-.608-1.424-.944-2.448-.944-1.232 0-2.688.688-2.688 2.496 0 1.728 1.456 2.56 2.688 2.56 1.008 0 1.92-.368 2.448-.992v.8h2.032Zm-3.664-1.184c-.8 0-1.456-.416-1.456-1.136 0-.752.656-1.168 1.456-1.168.656 0 1.296.224 1.632.672v.96c-.336.448-.976.672-1.632.672Zm8.463 1.376c2.144 0 3.344-1.072 3.344-2.48 0-3.12-4.576-2.16-4.576-3.312 0-.432.48-.768 1.216-.768.944 0 1.824.4 2.288.896l.816-1.392c-.768-.608-1.808-1.056-3.12-1.056-2.032 0-3.168 1.136-3.168 2.432 0 3.04 4.592 2 4.592 3.28 0 .48-.416.832-1.296.832-.96 0-2.112-.528-2.672-1.056l-.88 1.424c.816.752 2.112 1.2 3.456 1.2Zm7.433 0c.848 0 1.392-.224 1.696-.496l-.432-1.536c-.112.112-.4.224-.704.224-.448 0-.704-.368-.704-.848v-3.488h1.568v-1.776H88.19v-2.112h-2.048v2.112h-1.28v1.776h1.28v4.032c0 1.376.768 2.112 2.192 2.112Zm6.447 0c1.2 0 2.416-.368 3.184-1.072l-.896-1.312c-.496.48-1.408.768-2.064.768-1.312 0-2.096-.816-2.224-1.792h5.744v-.448c0-2.528-1.568-4.256-3.872-4.256-2.352 0-4 1.808-4 4.048 0 2.48 1.776 4.064 4.128 4.064Zm1.776-4.784h-3.808c.096-.768.64-1.712 1.904-1.712 1.344 0 1.856.976 1.904 1.712Zm5.467 4.592v-5.104c.336-.496 1.232-.88 1.904-.88.224 0 .416.016.56.048v-1.984c-.96 0-1.92.56-2.464 1.248v-1.056h-2.032v7.728h2.032Zm6.166-9.2c0-1.04-.688-1.632-1.44-1.632-.672 0-1.248.576-1.248 1.28 0 .672.48 1.152 1.088 1.152a.718.718 0 0 0 .304-.064c-.128.576-.72 1.248-1.232 1.52l.88.72c.976-.704 1.648-1.776 1.648-2.976Zm3.946 9.392c2.144 0 3.344-1.072 3.344-2.48 0-3.12-4.576-2.16-4.576-3.312 0-.432.48-.768 1.216-.768.944 0 1.824.4 2.288.896l.816-1.392c-.768-.608-1.808-1.056-3.12-1.056-2.032 0-3.168 1.136-3.168 2.432 0 3.04 4.592 2 4.592 3.28 0 .48-.416.832-1.296.832-.96 0-2.112-.528-2.672-1.056l-.88 1.424c.816.752 2.112 1.2 3.456 1.2Zm13.191-.192c3.344 0 5.664-2.112 5.664-5.328s-2.32-5.344-5.664-5.344h-4.209v10.672h4.209Zm0-2h-1.936v-6.672h1.936c2.192 0 3.344 1.456 3.344 3.344 0 1.808-1.232 3.328-3.344 3.328Zm10.86 2.192c1.2 0 2.416-.368 3.184-1.072l-.896-1.312c-.496.48-1.408.768-2.064.768-1.312 0-2.096-.816-2.224-1.792h5.744v-.448c0-2.528-1.568-4.256-3.872-4.256-2.352 0-4 1.808-4 4.048 0 2.48 1.776 4.064 4.128 4.064Zm1.776-4.784h-3.808c.096-.768.64-1.712 1.904-1.712 1.344 0 1.856.976 1.904 1.712Zm6.604 7.728c1.904 0 4.176-.72 4.176-3.664v-7.2h-2.048v.992c-.624-.784-1.456-1.184-2.384-1.184-1.952 0-3.408 1.408-3.408 3.936 0 2.576 1.472 3.936 3.408 3.936.944 0 1.776-.448 2.384-1.216v.784c0 1.52-1.152 1.952-2.128 1.952-.976 0-1.792-.272-2.416-.96l-.912 1.472c.976.848 2 1.152 3.328 1.152Zm.384-4.992c-1.152 0-1.952-.8-1.952-2.128s.8-2.128 1.952-2.128c.672 0 1.408.368 1.744.88v2.496c-.336.496-1.072.88-1.744.88Zm7.839 1.856v-5.104c.336-.496 1.232-.88 1.904-.88.224 0 .416.016.56.048v-1.984c-.96 0-1.92.56-2.464 1.248v-1.056h-2.032v7.728h2.032Zm7.366.192c1.2 0 2.416-.368 3.184-1.072l-.896-1.312c-.496.48-1.408.768-2.064.768-1.312 0-2.096-.816-2.224-1.792h5.744v-.448c0-2.528-1.568-4.256-3.872-4.256-2.352 0-4 1.808-4 4.048 0 2.48 1.776 4.064 4.128 4.064Zm1.776-4.784h-3.808c.096-.768.64-1.712 1.904-1.712 1.344 0 1.856.976 1.904 1.712Zm7.067 4.784c1.2 0 2.416-.368 3.184-1.072l-.896-1.312c-.496.48-1.408.768-2.064.768-1.312 0-2.096-.816-2.224-1.792h5.744v-.448c0-2.528-1.568-4.256-3.872-4.256-2.352 0-4 1.808-4 4.048 0 2.48 1.776 4.064 4.128 4.064Zm1.776-4.784h-3.808c.096-.768.64-1.712 1.904-1.712 1.344 0 1.856.976 1.904 1.712Zm8.538-3.968c.672 0 1.216-.544 1.216-1.216 0-.672-.544-1.2-1.216-1.2-.656 0-1.216.528-1.216 1.2 0 .672.56 1.216 1.216 1.216Zm1.024 8.56v-7.728h-2.032v7.728h2.032Zm9.263 0v-5.456c0-1.504-.816-2.464-2.512-2.464-1.264 0-2.208.608-2.704 1.2v-1.008h-2.032v7.728h2.032v-5.2c.336-.464.96-.912 1.76-.912.864 0 1.424.368 1.424 1.44v4.672h2.032Zm16.111 0-4.112-10.672h-2.848l-4.128 10.672h2.592l.672-1.808h4.576l.656 1.808h2.592Zm-3.872-3.808h-3.328l1.664-4.592 1.664 4.592Zm9.226 4c1.984 0 3.424-1.488 3.424-4.064s-1.44-4.048-3.424-4.048c-.944 0-1.792.416-2.384 1.168v-.976h-2.032v10.672h2.032v-3.936c.624.8 1.472 1.184 2.384 1.184Zm-.64-1.808c-.656 0-1.408-.4-1.744-.88v-2.736c.336-.496 1.088-.88 1.744-.88 1.168 0 1.952.912 1.952 2.24 0 1.344-.784 2.256-1.952 2.256Zm9.968 1.808c1.984 0 3.424-1.488 3.424-4.064s-1.44-4.048-3.424-4.048c-.944 0-1.792.416-2.384 1.168v-.976h-2.032v10.672h2.032v-3.936c.624.8 1.472 1.184 2.384 1.184Zm-.64-1.808c-.656 0-1.408-.4-1.744-.88v-2.736c.336-.496 1.088-.88 1.744-.88 1.168 0 1.952.912 1.952 2.24 0 1.344-.784 2.256-1.952 2.256Zm7.584 1.616v-10.672h-2.032v10.672h2.032Zm3.023-8.56c.672 0 1.216-.544 1.216-1.216 0-.672-.544-1.2-1.216-1.2-.656 0-1.216.528-1.216 1.2 0 .672.56 1.216 1.216 1.216Zm1.024 8.56v-7.728h-2.032v7.728h2.032Zm5.647.192c1.2 0 2.416-.368 3.184-1.072l-.896-1.312c-.496.48-1.408.768-2.064.768-1.312 0-2.096-.816-2.224-1.792h5.744v-.448c0-2.528-1.568-4.256-3.872-4.256-2.352 0-4 1.808-4 4.048 0 2.48 1.776 4.064 4.128 4.064Zm1.776-4.784h-3.808c.096-.768.64-1.712 1.904-1.712 1.344 0 1.856.976 1.904 1.712Zm10.795 4.592v-10.672h-2.048v3.936a2.976 2.976 0 0 0-2.384-1.184c-1.968 0-3.424 1.536-3.424 4.064 0 2.576 1.472 4.048 3.424 4.048.928 0 1.776-.416 2.384-1.184v.992h2.048Zm-3.808-1.616c-1.152 0-1.952-.912-1.952-2.24 0-1.344.8-2.256 1.952-2.256.688 0 1.424.368 1.76.88v2.736c-.336.512-1.072.88-1.76.88Zm21.533 1.616v-10.672h-3.2l-2.592 6.448-2.592-6.448h-3.184v10.672h2.272v-7.472l3.008 7.472h.992l3.008-7.472v7.472h2.288Zm8.744 0v-4.992c0-2.224-1.616-2.928-3.376-2.928-1.216 0-2.432.384-3.376 1.216l.768 1.36c.656-.608 1.424-.912 2.256-.912 1.024 0 1.696.512 1.696 1.296v1.04c-.512-.608-1.424-.944-2.448-.944-1.232 0-2.688.688-2.688 2.496 0 1.728 1.456 2.56 2.688 2.56 1.008 0 1.92-.368 2.448-.992v.8h2.032Zm-3.664-1.184c-.8 0-1.456-.416-1.456-1.136 0-.752.656-1.168 1.456-1.168.656 0 1.296.224 1.632.672v.96c-.336.448-.976.672-1.632.672Zm8.271 1.376c.848 0 1.392-.224 1.696-.496l-.432-1.536c-.112.112-.4.224-.704.224-.448 0-.704-.368-.704-.848v-3.488h1.568v-1.776h-1.568v-2.112h-2.048v2.112h-1.28v1.776h1.28v4.032c0 1.376.768 2.112 2.192 2.112Zm10.078-.192v-5.488c0-1.504-.816-2.432-2.512-2.432-1.264 0-2.224.608-2.72 1.2v-3.952h-2.032v10.672h2.032v-5.2c.352-.464.976-.912 1.76-.912.88 0 1.44.336 1.44 1.408v4.704h2.032Zm5.65.192c1.2 0 2.416-.368 3.184-1.072l-.896-1.312c-.496.48-1.408.768-2.064.768-1.312 0-2.096-.816-2.224-1.792h5.744v-.448c0-2.528-1.568-4.256-3.872-4.256-2.352 0-4 1.808-4 4.048 0 2.48 1.776 4.064 4.128 4.064Zm1.776-4.784h-3.808c.096-.768.64-1.712 1.904-1.712 1.344 0 1.856.976 1.904 1.712Zm15.067 4.592v-5.584c0-1.584-.848-2.336-2.272-2.336-1.184 0-2.208.704-2.656 1.408-.288-.88-1.008-1.408-2.144-1.408-1.184 0-2.208.736-2.528 1.2v-1.008h-2.032v7.728h2.032v-5.2c.304-.432.896-.912 1.6-.912.832 0 1.152.512 1.152 1.232v4.88h2.048V268.2c.288-.416.88-.896 1.6-.896.832 0 1.152.512 1.152 1.232v4.88h2.048Zm8.665 0v-4.992c0-2.224-1.616-2.928-3.376-2.928-1.216 0-2.432.384-3.376 1.216l.768 1.36c.656-.608 1.424-.912 2.256-.912 1.024 0 1.696.512 1.696 1.296v1.04c-.512-.608-1.424-.944-2.448-.944-1.232 0-2.688.688-2.688 2.496 0 1.728 1.456 2.56 2.688 2.56 1.008 0 1.92-.368 2.448-.992v.8h2.032Zm-3.664-1.184c-.8 0-1.456-.416-1.456-1.136 0-.752.656-1.168 1.456-1.168.656 0 1.296.224 1.632.672v.96c-.336.448-.976.672-1.632.672Zm8.272 1.376c.848 0 1.392-.224 1.696-.496l-.432-1.536c-.112.112-.4.224-.704.224-.448 0-.704-.368-.704-.848v-3.488h1.568v-1.776h-1.568v-2.112h-2.048v2.112h-1.28v1.776h1.28v4.032c0 1.376.768 2.112 2.192 2.112Zm3.822-8.752c.672 0 1.216-.544 1.216-1.216 0-.672-.544-1.2-1.216-1.2-.656 0-1.216.528-1.216 1.2 0 .672.56 1.216 1.216 1.216Zm1.024 8.56v-7.728h-2.032v7.728h2.032Zm5.615.192c1.584 0 2.544-.688 3.056-1.408l-1.328-1.232a1.95 1.95 0 0 1-1.632.832c-1.232 0-2.096-.912-2.096-2.256 0-1.344.864-2.24 2.096-2.24.704 0 1.264.288 1.632.832l1.328-1.248c-.512-.704-1.472-1.392-3.056-1.392-2.384 0-4.096 1.68-4.096 4.048 0 2.384 1.712 4.064 4.096 4.064Zm7.168 0c2.144 0 3.344-1.072 3.344-2.48 0-3.12-4.576-2.16-4.576-3.312 0-.432.48-.768 1.216-.768.944 0 1.824.4 2.288.896l.816-1.392c-.768-.608-1.808-1.056-3.12-1.056-2.032 0-3.168 1.136-3.168 2.432 0 3.04 4.592 2 4.592 3.28 0 .48-.416.832-1.296.832-.96 0-2.112-.528-2.672-1.056l-.88 1.424c.816.752 2.112 1.2 3.456 1.2Zm7.273-.976c0-1.04-.688-1.632-1.44-1.632-.672 0-1.248.576-1.248 1.28 0 .688.48 1.152 1.088 1.152.112 0 .256-.032.304-.048-.128.56-.72 1.232-1.232 1.504l.88.72c.976-.704 1.648-1.776 1.648-2.976Zm9.596.976c2.88 0 4.272-1.472 4.272-3.424 0-3.984-6.128-2.848-6.128-4.544 0-.64.544-1.072 1.52-1.072 1.088 0 2.24.368 3.104 1.168l1.264-1.664c-1.056-.976-2.464-1.488-4.16-1.488-2.512 0-4.048 1.472-4.048 3.248 0 4.016 6.144 2.72 6.144 4.608 0 .608-.608 1.184-1.856 1.184a4.679 4.679 0 0 1-3.392-1.44l-1.232 1.728c.992 1.008 2.464 1.696 4.512 1.696Zm5.279 2.832c.256.064.768.112 1.008.112 1.328-.032 2.352-.416 2.928-1.872l3.632-8.992h-2.192l-2.016 5.376-2.016-5.376h-2.177l3.137 7.84-.288.656c-.192.416-.544.56-1.072.56-.192 0-.464-.048-.64-.128l-.304 1.824Zm11.259-2.832c2.144 0 3.344-1.072 3.344-2.48 0-3.12-4.576-2.16-4.576-3.312 0-.432.48-.768 1.216-.768.944 0 1.824.4 2.288.896l.816-1.392c-.768-.608-1.808-1.056-3.12-1.056-2.032 0-3.168 1.136-3.168 2.432 0 3.04 4.592 2 4.592 3.28 0 .48-.416.832-1.296.832-.96 0-2.112-.528-2.672-1.056l-.88 1.424c.816.752 2.112 1.2 3.456 1.2Zm7.433 0c.848 0 1.392-.224 1.696-.496l-.432-1.536c-.112.112-.4.224-.704.224-.448 0-.704-.368-.704-.848v-3.488h1.568v-1.776h-1.568v-2.112h-2.048v2.112h-1.28v1.776h1.28v4.032c0 1.376.768 2.112 2.192 2.112Zm6.446 0c1.2 0 2.416-.368 3.184-1.072l-.896-1.312c-.496.48-1.408.768-2.064.768-1.312 0-2.096-.816-2.224-1.792h5.744v-.448c0-2.528-1.568-4.256-3.872-4.256-2.352 0-4 1.808-4 4.048 0 2.48 1.776 4.064 4.128 4.064Zm1.776-4.784h-3.808c.096-.768.64-1.712 1.904-1.712 1.344 0 1.856.976 1.904 1.712Zm15.068 4.592v-5.584c0-1.584-.848-2.336-2.272-2.336-1.184 0-2.208.704-2.656 1.408-.288-.88-1.008-1.408-2.144-1.408-1.184 0-2.208.736-2.528 1.2v-1.008h-2.032v7.728h2.032v-5.2c.304-.432.896-.912 1.6-.912.832 0 1.152.512 1.152 1.232v4.88h2.048V268.2c.288-.416.88-.896 1.6-.896.832 0 1.152.512 1.152 1.232v4.88h2.048Zm-281.828 20-4.112-10.672h-2.848l-4.128 10.672h2.592l.672-1.808h4.576l.656 1.808h2.592Zm-3.872-3.808h-3.328l1.664-4.592 1.664 4.592Zm12.058 3.808v-5.456c0-1.504-.816-2.464-2.512-2.464-1.264 0-2.208.608-2.704 1.2v-1.008h-2.032v7.728h2.032v-5.2c.336-.464.96-.912 1.76-.912.864 0 1.424.368 1.424 1.44v4.672h2.032Zm8.689 0v-4.992c0-2.224-1.616-2.928-3.376-2.928-1.216 0-2.432.384-3.376 1.216l.768 1.36c.656-.608 1.424-.912 2.256-.912 1.024 0 1.696.512 1.696 1.296v1.04c-.512-.608-1.424-.944-2.448-.944-1.232 0-2.688.688-2.688 2.496 0 1.728 1.456 2.56 2.688 2.56 1.008 0 1.92-.368 2.448-.992v.8h2.032Zm-3.664-1.184c-.8 0-1.456-.416-1.456-1.136 0-.752.656-1.168 1.456-1.168.656 0 1.296.224 1.632.672v.96c-.336.448-.976.672-1.632.672Zm7.712 1.184v-10.672h-2.032v10.672h2.032Zm1.743 3.024c.256.064.768.112 1.008.112 1.328-.032 2.352-.416 2.928-1.872l3.632-8.992h-2.192l-2.016 5.376-2.016-5.376h-2.176l3.136 7.84-.288.656c-.192.416-.544.56-1.072.56-.192 0-.464-.048-.64-.128l-.304 1.824Zm11.259-2.832c2.144 0 3.344-1.072 3.344-2.48 0-3.12-4.576-2.16-4.576-3.312 0-.432.48-.768 1.216-.768.944 0 1.824.4 2.288.896l.816-1.392c-.768-.608-1.808-1.056-3.12-1.056-2.032 0-3.168 1.136-3.168 2.432 0 3.04 4.592 2 4.592 3.28 0 .48-.416.832-1.296.832-.96 0-2.112-.528-2.672-1.056l-.88 1.424c.816.752 2.112 1.2 3.456 1.2Zm5.849-8.752c.672 0 1.216-.544 1.216-1.216 0-.672-.544-1.2-1.216-1.2-.656 0-1.216.528-1.216 1.2 0 .672.56 1.216 1.216 1.216Zm1.024 8.56v-7.728h-2.032v7.728h2.032Zm4.799.192c2.144 0 3.344-1.072 3.344-2.48 0-3.12-4.576-2.16-4.576-3.312 0-.432.48-.768 1.216-.768.944 0 1.824.4 2.288.896l.816-1.392c-.768-.608-1.808-1.056-3.12-1.056-2.032 0-3.168 1.136-3.168 2.432 0 3.04 4.592 2 4.592 3.28 0 .48-.416.832-1.296.832-.96 0-2.112-.528-2.672-1.056l-.88 1.424c.816.752 2.112 1.2 3.456 1.2Zm7.273-.976c0-1.04-.688-1.632-1.44-1.632-.672 0-1.248.576-1.248 1.28 0 .688.48 1.152 1.088 1.152.112 0 .256-.032.304-.048-.128.56-.72 1.232-1.232 1.504l.88.72c.976-.704 1.648-1.776 1.648-2.976Zm12.427.784v-4.992c0-2.224-1.616-2.928-3.376-2.928-1.216 0-2.432.384-3.376 1.216l.768 1.36c.656-.608 1.424-.912 2.256-.912 1.024 0 1.696.512 1.696 1.296v1.04c-.512-.608-1.424-.944-2.448-.944-1.232 0-2.688.688-2.688 2.496 0 1.728 1.456 2.56 2.688 2.56 1.008 0 1.92-.368 2.448-.992v.8h2.032Zm-3.664-1.184c-.8 0-1.456-.416-1.456-1.136 0-.752.656-1.168 1.456-1.168.656 0 1.296.224 1.632.672v.96c-.336.448-.976.672-1.632.672Zm12.928 1.184v-5.456c0-1.504-.816-2.464-2.512-2.464-1.264 0-2.208.608-2.704 1.2v-1.008h-2.032v7.728h2.032v-5.2c.336-.464.96-.912 1.76-.912.864 0 1.424.368 1.424 1.44v4.672h2.032Zm9.377 0v-10.672h-2.048v3.936a2.976 2.976 0 0 0-2.384-1.184c-1.968 0-3.424 1.536-3.424 4.064 0 2.576 1.472 4.048 3.424 4.048.928 0 1.776-.416 2.384-1.184v.992h2.048Zm-3.808-1.616c-1.152 0-1.952-.912-1.952-2.24 0-1.344.8-2.256 1.952-2.256.688 0 1.424.368 1.76.88v2.736c-.336.512-1.072.88-1.76.88Zm15.133 1.808c2.352 0 3.696-1.296 4.464-2.624l-1.952-.944c-.448.88-1.408 1.552-2.512 1.552-1.936 0-3.344-1.488-3.344-3.504s1.408-3.504 3.344-3.504c1.104 0 2.064.688 2.512 1.552l1.952-.96c-.752-1.328-2.112-2.608-4.464-2.608-3.2 0-5.68 2.24-5.68 5.52 0 3.28 2.48 5.52 5.68 5.52Zm9.353 0c2.56 0 4.096-1.856 4.096-4.064 0-2.192-1.536-4.048-4.096-4.048-2.544 0-4.08 1.856-4.08 4.048 0 2.208 1.536 4.064 4.08 4.064Zm0-1.808c-1.264 0-1.968-1.04-1.968-2.256 0-1.2.704-2.24 1.968-2.24s1.984 1.04 1.984 2.24c0 1.216-.72 2.256-1.984 2.256Zm17.235 1.616v-5.584c0-1.584-.848-2.336-2.272-2.336-1.184 0-2.208.704-2.656 1.408-.288-.88-1.008-1.408-2.144-1.408-1.184 0-2.208.736-2.528 1.2v-1.008h-2.032v7.728h2.032v-5.2c.304-.432.896-.912 1.6-.912.832 0 1.152.512 1.152 1.232v4.88h2.048V288.2c.288-.416.88-.896 1.6-.896.832 0 1.152.512 1.152 1.232v4.88h2.048Zm6.409.192c1.984 0 3.424-1.488 3.424-4.064s-1.44-4.048-3.424-4.048c-.944 0-1.792.416-2.384 1.168v-.976h-2.032v10.672h2.032v-3.936c.624.8 1.472 1.184 2.384 1.184Zm-.64-1.808c-.656 0-1.408-.4-1.744-.88v-2.736c.336-.496 1.088-.88 1.744-.88 1.168 0 1.952.912 1.952 2.24 0 1.344-.784 2.256-1.952 2.256Zm12.8 1.616v-7.728h-2.032v5.232c-.352.448-.976.88-1.76.88-.864 0-1.424-.352-1.424-1.424v-4.688h-2.032v5.488c0 1.504.8 2.432 2.496 2.432 1.264 0 2.192-.576 2.72-1.168v.976h2.032Zm4.61.192c.848 0 1.392-.224 1.696-.496l-.432-1.536c-.112.112-.4.224-.704.224-.448 0-.704-.368-.704-.848v-3.488h1.568v-1.776h-1.568v-2.112h-2.048v2.112h-1.28v1.776h1.28v4.032c0 1.376.768 2.112 2.192 2.112Zm6.446 0c1.2 0 2.416-.368 3.184-1.072l-.896-1.312c-.496.48-1.408.768-2.064.768-1.312 0-2.096-.816-2.224-1.792h5.744v-.448c0-2.528-1.568-4.256-3.872-4.256-2.352 0-4 1.808-4 4.048 0 2.48 1.776 4.064 4.128 4.064Zm1.776-4.784h-3.808c.096-.768.64-1.712 1.904-1.712 1.344 0 1.856.976 1.904 1.712Zm5.468 4.592v-5.104c.336-.496 1.232-.88 1.904-.88.224 0 .416.016.56.048v-1.984c-.96 0-1.92.56-2.464 1.248v-1.056h-2.032v7.728h2.032Zm11.667.192c2.88 0 4.272-1.472 4.272-3.424 0-3.984-6.128-2.848-6.128-4.544 0-.64.544-1.072 1.52-1.072 1.088 0 2.24.368 3.104 1.168l1.264-1.664c-1.056-.976-2.464-1.488-4.16-1.488-2.512 0-4.048 1.472-4.048 3.248 0 4.016 6.144 2.72 6.144 4.608 0 .608-.608 1.184-1.856 1.184a4.679 4.679 0 0 1-3.392-1.44l-1.232 1.728c.992 1.008 2.464 1.696 4.512 1.696Zm9.354 0c1.584 0 2.544-.688 3.056-1.408l-1.328-1.232a1.95 1.95 0 0 1-1.632.832c-1.232 0-2.096-.912-2.096-2.256 0-1.344.864-2.24 2.096-2.24.704 0 1.264.288 1.632.832l1.328-1.248c-.512-.704-1.472-1.392-3.056-1.392-2.384 0-4.096 1.68-4.096 4.048 0 2.384 1.712 4.064 4.096 4.064Zm5.392-8.752c.672 0 1.216-.544 1.216-1.216 0-.672-.544-1.2-1.216-1.2-.656 0-1.216.528-1.216 1.2 0 .672.56 1.216 1.216 1.216Zm1.024 8.56v-7.728h-2.032v7.728h2.032Zm5.647.192c1.2 0 2.416-.368 3.184-1.072l-.896-1.312c-.496.48-1.408.768-2.064.768-1.312 0-2.096-.816-2.224-1.792h5.744v-.448c0-2.528-1.568-4.256-3.872-4.256-2.352 0-4 1.808-4 4.048 0 2.48 1.776 4.064 4.128 4.064Zm1.776-4.784h-3.808c.096-.768.64-1.712 1.904-1.712 1.344 0 1.856.976 1.904 1.712Zm10.684 4.592v-5.456c0-1.504-.816-2.464-2.512-2.464-1.264 0-2.208.608-2.704 1.2v-1.008h-2.032v7.728h2.032v-5.2c.336-.464.96-.912 1.76-.912.864 0 1.424.368 1.424 1.44v4.672h2.032Zm5.618.192c1.584 0 2.544-.688 3.056-1.408l-1.328-1.232a1.95 1.95 0 0 1-1.632.832c-1.232 0-2.096-.912-2.096-2.256 0-1.344.864-2.24 2.096-2.24.704 0 1.264.288 1.632.832l1.328-1.248c-.512-.704-1.472-1.392-3.056-1.392-2.384 0-4.096 1.68-4.096 4.048 0 2.384 1.712 4.064 4.096 4.064Zm8.016 0c1.2 0 2.416-.368 3.184-1.072l-.896-1.312c-.496.48-1.408.768-2.064.768-1.312 0-2.096-.816-2.224-1.792h5.744v-.448c0-2.528-1.568-4.256-3.872-4.256-2.352 0-4 1.808-4 4.048 0 2.48 1.776 4.064 4.128 4.064Zm1.776-4.784h-3.808c.096-.768.64-1.712 1.904-1.712 1.344 0 1.856.976 1.904 1.712ZM481.918 273.416c2.032 0 3.104-1.28 3.104-2.88 0-1.344-.912-2.448-2.048-2.624 1.008-.208 1.84-1.104 1.84-2.448 0-1.424-1.04-2.72-3.072-2.72h-5.616v10.672h5.792Zm-.672-6.4h-2.848v-2.32h2.848c.768 0 1.248.496 1.248 1.168 0 .672-.48 1.152-1.248 1.152Zm.08 4.432h-2.928v-2.48h2.928c.896 0 1.376.576 1.376 1.248 0 .768-.512 1.232-1.376 1.232Zm12.034 1.968v-4.992c0-2.224-1.616-2.928-3.376-2.928-1.216 0-2.432.384-3.376 1.216l.768 1.36c.656-.608 1.424-.912 2.256-.912 1.024 0 1.696.512 1.696 1.296v1.04c-.512-.608-1.424-.944-2.448-.944-1.232 0-2.688.688-2.688 2.496 0 1.728 1.456 2.56 2.688 2.56 1.008 0 1.92-.368 2.448-.992v.8h2.032Zm-3.664-1.184c-.8 0-1.456-.416-1.456-1.136 0-.752.656-1.168 1.456-1.168.656 0 1.296.224 1.632.672v.96c-.336.448-.976.672-1.632.672Zm9.279 1.376c1.584 0 2.544-.688 3.056-1.408l-1.328-1.232a1.95 1.95 0 0 1-1.632.832c-1.232 0-2.096-.912-2.096-2.256 0-1.344.864-2.24 2.096-2.24.704 0 1.264.288 1.632.832l1.328-1.248c-.512-.704-1.472-1.392-3.056-1.392-2.384 0-4.096 1.68-4.096 4.048 0 2.384 1.712 4.064 4.096 4.064Zm11.649-.192v-5.488c0-1.504-.816-2.432-2.512-2.432-1.264 0-2.224.608-2.72 1.2v-3.952h-2.032v10.672h2.032v-5.2c.352-.464.976-.912 1.76-.912.88 0 1.44.336 1.44 1.408v4.704h2.032Zm5.649.192c1.2 0 2.416-.368 3.184-1.072l-.896-1.312c-.496.48-1.408.768-2.064.768-1.312 0-2.096-.816-2.224-1.792h5.744v-.448c0-2.528-1.568-4.256-3.872-4.256-2.352 0-4 1.808-4 4.048 0 2.48 1.776 4.064 4.128 4.064Zm1.776-4.784h-3.808c.096-.768.64-1.712 1.904-1.712 1.344 0 1.856.976 1.904 1.712Zm5.468 4.592v-10.672h-2.032v10.672h2.032Zm5.598.192c2.56 0 4.096-1.856 4.096-4.064 0-2.192-1.536-4.048-4.096-4.048-2.544 0-4.08 1.856-4.08 4.048 0 2.208 1.536 4.064 4.08 4.064Zm0-1.808c-1.264 0-1.968-1.04-1.968-2.256 0-1.2.704-2.24 1.968-2.24s1.984 1.04 1.984 2.24c0 1.216-.72 2.256-1.984 2.256Zm7.636 1.616v-5.104c.336-.496 1.232-.88 1.904-.88.224 0 .416.016.56.048v-1.984c-.96 0-1.92.56-2.464 1.248v-1.056h-2.032v7.728h2.032Zm6.166-9.2c0-1.04-.688-1.632-1.44-1.632-.672 0-1.248.576-1.248 1.28 0 .672.48 1.152 1.088 1.152a.718.718 0 0 0 .304-.064c-.128.576-.72 1.248-1.232 1.52l.88.72c.976-.704 1.648-1.776 1.648-2.976Zm3.945 9.392c2.144 0 3.344-1.072 3.344-2.48 0-3.12-4.576-2.16-4.576-3.312 0-.432.48-.768 1.216-.768.944 0 1.824.4 2.288.896l.816-1.392c-.768-.608-1.808-1.056-3.12-1.056-2.032 0-3.168 1.136-3.168 2.432 0 3.04 4.592 2 4.592 3.28 0 .48-.416.832-1.296.832-.96 0-2.112-.528-2.672-1.056l-.88 1.424c.816.752 2.112 1.2 3.456 1.2Zm13.191-.192c3.344 0 5.664-2.112 5.664-5.328s-2.32-5.344-5.664-5.344h-4.208v10.672h4.208Zm0-2h-1.936v-6.672h1.936c2.192 0 3.344 1.456 3.344 3.344 0 1.808-1.232 3.328-3.344 3.328Zm10.86 2.192c1.2 0 2.416-.368 3.184-1.072l-.896-1.312c-.496.48-1.408.768-2.064.768-1.312 0-2.096-.816-2.224-1.792h5.744v-.448c0-2.528-1.568-4.256-3.872-4.256-2.352 0-4 1.808-4 4.048 0 2.48 1.776 4.064 4.128 4.064Zm1.776-4.784h-3.808c.096-.768.64-1.712 1.904-1.712 1.344 0 1.856.976 1.904 1.712Zm6.604 7.728c1.904 0 4.176-.72 4.176-3.664v-7.2h-2.048v.992c-.624-.784-1.456-1.184-2.384-1.184-1.952 0-3.408 1.408-3.408 3.936 0 2.576 1.472 3.936 3.408 3.936.944 0 1.776-.448 2.384-1.216v.784c0 1.52-1.152 1.952-2.128 1.952-.976 0-1.792-.272-2.416-.96l-.912 1.472c.976.848 2 1.152 3.328 1.152Zm.384-4.992c-1.152 0-1.952-.8-1.952-2.128s.8-2.128 1.952-2.128c.672 0 1.408.368 1.744.88v2.496c-.336.496-1.072.88-1.744.88Zm7.84 1.856v-5.104c.336-.496 1.232-.88 1.904-.88.224 0 .416.016.56.048v-1.984c-.96 0-1.92.56-2.464 1.248v-1.056h-2.032v7.728h2.032Zm7.365.192c1.2 0 2.416-.368 3.184-1.072l-.896-1.312c-.496.48-1.408.768-2.064.768-1.312 0-2.096-.816-2.224-1.792h5.744v-.448c0-2.528-1.568-4.256-3.872-4.256-2.352 0-4 1.808-4 4.048 0 2.48 1.776 4.064 4.128 4.064Zm1.776-4.784h-3.808c.096-.768.64-1.712 1.904-1.712 1.344 0 1.856.976 1.904 1.712Zm7.068 4.784c1.2 0 2.416-.368 3.184-1.072l-.896-1.312c-.496.48-1.408.768-2.064.768-1.312 0-2.096-.816-2.224-1.792h5.744v-.448c0-2.528-1.568-4.256-3.872-4.256-2.352 0-4 1.808-4 4.048 0 2.48 1.776 4.064 4.128 4.064Zm1.776-4.784h-3.808c.096-.768.64-1.712 1.904-1.712 1.344 0 1.856.976 1.904 1.712ZM662.302 273.192c3.248 0 4.816-1.808 4.816-4.464v-6.4h-2.32v6.336c0 1.488-.848 2.512-2.496 2.512-1.648 0-2.512-1.024-2.512-2.512v-6.336h-2.304v6.416c0 2.624 1.568 4.448 4.816 4.448ZM676.42 273v-5.456c0-1.504-.816-2.464-2.512-2.464-1.264 0-2.208.608-2.704 1.2v-1.008h-2.032V273h2.032v-5.2c.336-.464.96-.912 1.76-.912.864 0 1.424.368 1.424 1.44V273h2.032Zm3.026-8.56c.672 0 1.216-.544 1.216-1.216 0-.672-.544-1.2-1.216-1.2-.656 0-1.216.528-1.216 1.2 0 .672.56 1.216 1.216 1.216Zm1.024 8.56v-7.728h-2.032V273h2.032Zm6.207 0 3.104-7.728h-2.192l-2.016 5.376-2.016-5.376h-2.176l3.104 7.728h2.192Zm7.643.192c1.2 0 2.416-.368 3.184-1.072l-.896-1.312c-.496.48-1.408.768-2.064.768-1.312 0-2.096-.816-2.224-1.792h5.744v-.448c0-2.528-1.568-4.256-3.872-4.256-2.352 0-4 1.808-4 4.048 0 2.48 1.776 4.064 4.128 4.064Zm1.776-4.784h-3.808c.096-.768.64-1.712 1.904-1.712 1.344 0 1.856.976 1.904 1.712Zm5.467 4.592v-5.104c.336-.496 1.232-.88 1.904-.88.224 0 .416.016.56.048v-1.984c-.96 0-1.92.56-2.464 1.248v-1.056h-2.032V273h2.032Zm6.518.192c2.144 0 3.344-1.072 3.344-2.48 0-3.12-4.576-2.16-4.576-3.312 0-.432.48-.768 1.216-.768.944 0 1.824.4 2.288.896l.816-1.392c-.768-.608-1.808-1.056-3.12-1.056-2.032 0-3.168 1.136-3.168 2.432 0 3.04 4.592 2 4.592 3.28 0 .48-.416.832-1.296.832-.96 0-2.112-.528-2.672-1.056l-.88 1.424c.816.752 2.112 1.2 3.456 1.2Zm5.849-8.752c.672 0 1.216-.544 1.216-1.216 0-.672-.544-1.2-1.216-1.2-.656 0-1.216.528-1.216 1.2 0 .672.56 1.216 1.216 1.216Zm1.024 8.56v-7.728h-2.032V273h2.032Zm4.607.192c.848 0 1.392-.224 1.696-.496l-.432-1.536c-.112.112-.4.224-.704.224-.448 0-.704-.368-.704-.848v-3.488h1.568v-1.776h-1.568v-2.112h-2.048v2.112h-1.28v1.776h1.28v4.032c0 1.376.768 2.112 2.192 2.112Zm2.542 2.832c.256.064.768.112 1.008.112 1.328-.032 2.352-.416 2.928-1.872l3.632-8.992h-2.192l-2.016 5.376-2.016-5.376h-2.176l3.136 7.84-.288.656c-.192.416-.544.56-1.072.56-.192 0-.464-.048-.64-.128l-.304 1.824Zm-82.231 17.168c3.248 0 4.816-1.808 4.816-4.464v-6.4h-2.32v6.336c0 1.488-.848 2.512-2.496 2.512-1.648 0-2.512-1.024-2.512-2.512v-6.336h-2.304v6.416c0 2.624 1.568 4.448 4.816 4.448ZM653.99 293v-5.456c0-1.504-.816-2.464-2.512-2.464-1.264 0-2.208.608-2.704 1.2v-1.008h-2.032V293h2.032v-5.2c.336-.464.96-.912 1.76-.912.864 0 1.424.368 1.424 1.44V293h2.032Zm9.378 0v-10.672h-2.048v3.936a2.976 2.976 0 0 0-2.384-1.184c-1.968 0-3.424 1.536-3.424 4.064 0 2.576 1.472 4.048 3.424 4.048.928 0 1.776-.416 2.384-1.184V293h2.048Zm-3.808-1.616c-1.152 0-1.952-.912-1.952-2.24 0-1.344.8-2.256 1.952-2.256.688 0 1.424.368 1.76.88v2.736c-.336.512-1.072.88-1.76.88Zm9.455 1.808c1.2 0 2.416-.368 3.184-1.072l-.896-1.312c-.496.48-1.408.768-2.064.768-1.312 0-2.096-.816-2.224-1.792h5.744v-.448c0-2.528-1.568-4.256-3.872-4.256-2.352 0-4 1.808-4 4.048 0 2.48 1.776 4.064 4.128 4.064Zm1.776-4.784h-3.808c.096-.768.64-1.712 1.904-1.712 1.344 0 1.856.976 1.904 1.712Zm5.468 4.592v-5.104c.336-.496 1.232-.88 1.904-.88.224 0 .416.016.56.048v-1.984c-.96 0-1.92.56-2.464 1.248v-1.056h-2.032V293h2.032Zm6.901 3.136c1.904 0 4.176-.72 4.176-3.664v-7.2h-2.048v.992c-.624-.784-1.456-1.184-2.384-1.184-1.952 0-3.408 1.408-3.408 3.936 0 2.576 1.472 3.936 3.408 3.936.944 0 1.776-.448 2.384-1.216v.784c0 1.52-1.152 1.952-2.128 1.952-.976 0-1.792-.272-2.416-.96l-.912 1.472c.976.848 2 1.152 3.328 1.152Zm.384-4.992c-1.152 0-1.952-.8-1.952-2.128s.8-2.128 1.952-2.128c.672 0 1.408.368 1.744.88v2.496c-.336.496-1.072.88-1.744.88Zm7.84 1.856v-5.104c.336-.496 1.232-.88 1.904-.88.224 0 .416.016.56.048v-1.984c-.96 0-1.92.56-2.464 1.248v-1.056h-2.032V293h2.032Zm10.405 0v-4.992c0-2.224-1.616-2.928-3.376-2.928-1.216 0-2.432.384-3.376 1.216l.768 1.36c.656-.608 1.424-.912 2.256-.912 1.024 0 1.696.512 1.696 1.296v1.04c-.512-.608-1.424-.944-2.448-.944-1.232 0-2.688.688-2.688 2.496 0 1.728 1.456 2.56 2.688 2.56 1.008 0 1.92-.368 2.448-.992v.8h2.032Zm-3.664-1.184c-.8 0-1.456-.416-1.456-1.136 0-.752.656-1.168 1.456-1.168.656 0 1.296.224 1.632.672v.96c-.336.448-.976.672-1.632.672Zm13.04 1.184v-10.672h-2.048v3.936a2.976 2.976 0 0 0-2.384-1.184c-1.968 0-3.424 1.536-3.424 4.064 0 2.576 1.472 4.048 3.424 4.048.928 0 1.776-.416 2.384-1.184V293h2.048Zm-3.808-1.616c-1.152 0-1.952-.912-1.952-2.24 0-1.344.8-2.256 1.952-2.256.688 0 1.424.368 1.76.88v2.736c-.336.512-1.072.88-1.76.88ZM720.428 293v-7.728h-2.032v5.232c-.352.448-.976.88-1.76.88-.864 0-1.424-.352-1.424-1.424v-4.688h-2.032v5.488c0 1.504.8 2.432 2.496 2.432 1.264 0 2.192-.576 2.72-1.168V293h2.032Zm8.69 0v-4.992c0-2.224-1.616-2.928-3.376-2.928-1.216 0-2.432.384-3.376 1.216l.768 1.36c.655-.608 1.424-.912 2.256-.912 1.024 0 1.696.512 1.696 1.296v1.04c-.512-.608-1.425-.944-2.448-.944-1.232 0-2.688.688-2.688 2.496 0 1.728 1.456 2.56 2.688 2.56 1.008 0 1.92-.368 2.448-.992v.8h2.032Zm-3.664-1.184c-.8 0-1.456-.416-1.456-1.136 0-.752.656-1.168 1.456-1.168.656 0 1.296.224 1.632.672v.96c-.336.448-.976.672-1.632.672Zm8.271 1.376c.848 0 1.392-.224 1.696-.496l-.432-1.536c-.112.112-.4.224-.704.224-.448 0-.704-.368-.704-.848v-3.488h1.568v-1.776h-1.568v-2.112h-2.048v2.112h-1.28v1.776h1.28v4.032c0 1.376.768 2.112 2.192 2.112Zm6.446 0c1.2 0 2.416-.368 3.184-1.072l-.896-1.312c-.496.48-1.408.768-2.064.768-1.312 0-2.096-.816-2.224-1.792h5.744v-.448c0-2.528-1.568-4.256-3.872-4.256-2.352 0-4 1.808-4 4.048 0 2.48 1.776 4.064 4.128 4.064Zm1.776-4.784h-3.808c.096-.768.64-1.712 1.904-1.712 1.344 0 1.856.976 1.904 1.712Zm6.22 4.784c2.144 0 3.344-1.072 3.344-2.48 0-3.12-4.576-2.16-4.576-3.312 0-.432.48-.768 1.216-.768.944 0 1.824.4 2.288.896l.816-1.392c-.768-.608-1.808-1.056-3.12-1.056-2.032 0-3.168 1.136-3.168 2.432 0 3.04 4.592 2 4.592 3.28 0 .48-.416.832-1.296.832-.96 0-2.112-.528-2.672-1.056l-.88 1.424c.816.752 2.112 1.2 3.456 1.2Z" fill="#2F8ACE"/>
  <path d="M627.5 106.704v5.814a8 8 0 0 1-8 8H248.68c-4.569 0-8.273 3.665-8.273 8.186 0-4.521-2.67-8.186-7.239-8.186H9.296a8 8 0 0 1-8-8v-5.814" stroke="url(#a)"/>
  <path d="M737.038 106.704v5.814a8 8 0 0 1-8 8H692c-4.569 0-8.273 3.665-8.273 8.186 0-4.521-2.67-8.186-7.239-8.186H635a8 8 0 0 1-8-8v-5.814" stroke="url(#b)"/>
  <mask id="c" style="mask-type:alpha" maskUnits="userSpaceOnUse" x="1" y="185" width="736" height="56">
    <path d="M1 185h728a8 8 0 0 1 8 8v40a8 8 0 0 1-8 8H1v-56Z" fill="#C4C4C4"/>
  </mask>
  <g mask="url(#c)">
    <path fill-rule="evenodd" clip-rule="evenodd" d="M9 185a8 8 0 0 0-8 8v40a8 8 0 0 0 8 8h418.24a8 8 0 0 0 8-8v-40a8 8 0 0 0-8-8H9Zm631 0a8 8 0 0 1 8 8v40a8 8 0 0 1-8 8h89a8 8 0 0 0 8-8v-40a8 8 0 0 0-8-8h-89Z" fill="url(#d)"/>
    <g filter="url(#e)">
      <path fill-rule="evenodd" clip-rule="evenodd" d="M427.24 241H640a8 8 0 0 0 8-8v-40a8 8 0 0 0-8-8H427.24a8 8 0 0 1 8 8v40a8 8 0 0 1-8 8Z" fill="url(#f)"/>
    </g>
    <path d="M1 185h426.24a8 8 0 0 1 8 8v40a8 8 0 0 1-8 8H1v-56Z" fill="url(#g)"/>
  </g>
  <path d="M194.644 225.412c5.523 0 9.16-3.054 9.16-7.925 0-4.631-3.465-7.41-7.342-7.41-2.092 0-3.945.823-5.043 1.921v-5.592h10.841v-4.288h-15.712v13.139l3.396.892c1.372-1.303 2.916-1.852 4.803-1.852 2.607 0 4.117 1.372 4.117 3.396 0 1.852-1.544 3.396-4.254 3.396-2.402 0-4.529-.892-6.072-2.504l-2.71 3.396c1.955 2.127 4.837 3.431 8.816 3.431Zm19.397-.035c6.758 0 10.634-4.905 10.634-11.801 0-6.484-2.916-11.835-9.845-11.835-5.215 0-8.783 3.396-8.783 7.856 0 4.871 3.705 7.444 7.822 7.444 2.504 0 4.803-1.406 5.901-2.95v.514c0 3.294-1.956 6.45-5.729 6.45-2.025 0-3.328-.618-4.563-1.784l-2.161 3.739c1.612 1.441 3.945 2.367 6.724 2.367Zm1.2-12.521c-2.127 0-4.219-1.029-4.219-3.431 0-1.578 1.44-3.362 4.048-3.362 3.224 0 4.459 2.47 4.665 4.666a5.869 5.869 0 0 1-4.494 2.127Zm17.338.309c3.534 0 5.832-2.436 5.832-5.627 0-3.224-2.298-5.763-5.832-5.763-3.499 0-5.797 2.539-5.797 5.763 0 3.191 2.298 5.627 5.797 5.627Zm.343 11.835 14.649-22.882h-2.607L230.349 225h2.573Zm12.247.412c3.5 0 5.832-2.47 5.832-5.661 0-3.225-2.332-5.763-5.832-5.763-3.499 0-5.797 2.538-5.797 5.763 0 3.191 2.298 5.661 5.797 5.661Zm-12.59-14.923c-1.543 0-2.71-1.167-2.71-2.951 0-1.921 1.167-3.053 2.71-3.053 1.578 0 2.71 1.132 2.71 3.053 0 1.784-1.132 2.951-2.71 2.951Zm12.59 12.247c-1.578 0-2.71-1.132-2.71-2.985 0-1.887 1.132-3.053 2.71-3.053 1.579 0 2.745 1.166 2.745 3.053 0 1.853-1.166 2.985-2.745 2.985ZM526.131 225v-4.288H516.8c5.935-4.323 9.16-7.719 9.16-11.63 0-4.563-3.877-7.307-8.748-7.307-3.191 0-6.587 1.166-8.817 3.739l2.779 3.225c1.544-1.612 3.533-2.641 6.141-2.641 1.886 0 3.705.994 3.705 2.984 0 2.813-2.745 5.18-12.11 12.11V225h17.221Zm10.759.377c6.758 0 10.635-4.905 10.635-11.801 0-6.484-2.916-11.835-9.846-11.835-5.215 0-8.782 3.396-8.782 7.856 0 4.871 3.705 7.444 7.821 7.444 2.505 0 4.803-1.406 5.901-2.95v.514c0 3.294-1.956 6.45-5.729 6.45-2.024 0-3.328-.618-4.563-1.784l-2.161 3.739c1.612 1.441 3.945 2.367 6.724 2.367Zm1.2-12.521c-2.127 0-4.219-1.029-4.219-3.431 0-1.578 1.441-3.362 4.048-3.362 3.225 0 4.46 2.47 4.665 4.666a5.866 5.866 0 0 1-4.494 2.127Zm17.339.309c3.533 0 5.831-2.436 5.831-5.627 0-3.224-2.298-5.763-5.831-5.763-3.5 0-5.798 2.539-5.798 5.763 0 3.191 2.298 5.627 5.798 5.627Zm.343 11.835 14.648-22.882h-2.607L553.199 225h2.573Zm12.247.412c3.499 0 5.832-2.47 5.832-5.661 0-3.225-2.333-5.763-5.832-5.763-3.499 0-5.798 2.538-5.798 5.763 0 3.191 2.299 5.661 5.798 5.661Zm-12.59-14.923c-1.544 0-2.711-1.167-2.711-2.951 0-1.921 1.167-3.053 2.711-3.053 1.578 0 2.71 1.132 2.71 3.053 0 1.784-1.132 2.951-2.71 2.951Zm12.59 12.247c-1.578 0-2.71-1.132-2.71-2.985 0-1.887 1.132-3.053 2.71-3.053s2.744 1.166 2.744 3.053c0 1.853-1.166 2.985-2.744 2.985Z" fill="#D3EEFF"/>
  <path d="M673.516 225v-22.882h-4.253l-7.205 7.239 2.779 2.916 3.808-3.877V225h4.871Zm21.103 0v-4.288h-9.331c5.935-4.323 9.16-7.719 9.16-11.63 0-4.563-3.877-7.307-8.748-7.307-3.191 0-6.587 1.166-8.817 3.739l2.779 3.225c1.543-1.612 3.533-2.641 6.14-2.641 1.887 0 3.705.994 3.705 2.984 0 2.813-2.744 5.18-12.109 12.11V225h17.221Zm8.426-11.835c3.533 0 5.832-2.436 5.832-5.627 0-3.224-2.299-5.763-5.832-5.763-3.499 0-5.798 2.539-5.798 5.763 0 3.191 2.299 5.627 5.798 5.627Zm.343 11.835 14.648-22.882h-2.607L700.815 225h2.573Zm12.247.412c3.499 0 5.832-2.47 5.832-5.661 0-3.225-2.333-5.763-5.832-5.763-3.499 0-5.798 2.538-5.798 5.763 0 3.191 2.299 5.661 5.798 5.661Zm-12.59-14.923c-1.544 0-2.71-1.167-2.71-2.951 0-1.921 1.166-3.053 2.71-3.053 1.578 0 2.71 1.132 2.71 3.053 0 1.784-1.132 2.951-2.71 2.951Zm12.59 12.247c-1.578 0-2.71-1.132-2.71-2.985 0-1.887 1.132-3.053 2.71-3.053s2.745 1.166 2.745 3.053c0 1.853-1.167 2.985-2.745 2.985Z" fill="#ECF8FF"/>
  <mask id="h" style="mask-type:alpha" maskUnits="userSpaceOnUse" x="1" y="48" width="736" height="56">
    <path d="M1 48h728a8 8 0 0 1 8 8v40a8 8 0 0 1-8 8H1V48Z" fill="#C4C4C4"/>
  </mask>
  <g mask="url(#h)">
    <g filter="url(#i)">
      <path fill-rule="evenodd" clip-rule="evenodd" d="M361 104h147a8 8 0 0 0 8-8V56a8 8 0 0 0-8-8H361a8 8 0 0 1 8 8v40a8 8 0 0 1-8 8Z" fill="url(#j)"/>
    </g>
    <path fill-rule="evenodd" clip-rule="evenodd" d="M627 96a8 8 0 0 1-8 8h110a8 8 0 0 0 8-8V56a8 8 0 0 0-8-8H619a8 8 0 0 1 8 8v40Z" fill="url(#k)"/>
    <g filter="url(#l)">
      <path fill-rule="evenodd" clip-rule="evenodd" d="M516 96a8 8 0 0 1-8 8h111a8 8 0 0 0 8-8V56a8 8 0 0 0-8-8H508a8 8 0 0 1 8 8v40Z" fill="url(#m)"/>
    </g>
    <path d="M1 48h360a8 8 0 0 1 8 8v40a8 8 0 0 1-8 8H1V48Z" fill="url(#n)"/>
    <path d="M555.366 88.5V65.618h-4.254l-7.204 7.239 2.778 2.916 3.808-3.877V88.5h4.872Zm12.766.412c5.523 0 9.16-3.053 9.16-7.925 0-4.631-3.465-7.41-7.342-7.41-2.092 0-3.945.823-5.043 1.921v-5.592h10.841v-4.288h-15.712v13.14l3.396.891c1.372-1.303 2.916-1.852 4.803-1.852 2.607 0 4.117 1.372 4.117 3.396 0 1.852-1.544 3.396-4.254 3.396-2.402 0-4.529-.892-6.072-2.504l-2.711 3.396c1.956 2.127 4.838 3.43 8.817 3.43Zm17.064-12.248c3.533 0 5.832-2.435 5.832-5.626 0-3.224-2.299-5.763-5.832-5.763-3.5 0-5.798 2.539-5.798 5.763 0 3.19 2.298 5.627 5.798 5.627Zm.343 11.836 14.648-22.882h-2.607L582.966 88.5h2.573Zm12.247.412c3.499 0 5.832-2.47 5.832-5.66 0-3.225-2.333-5.764-5.832-5.764-3.499 0-5.798 2.538-5.798 5.763 0 3.19 2.299 5.66 5.798 5.66Zm-12.59-14.923c-1.544 0-2.711-1.167-2.711-2.95 0-1.922 1.167-3.054 2.711-3.054 1.578 0 2.71 1.132 2.71 3.053 0 1.784-1.132 2.95-2.71 2.95Zm12.59 12.247c-1.578 0-2.71-1.132-2.71-2.985 0-1.887 1.132-3.053 2.71-3.053s2.744 1.166 2.744 3.053c0 1.853-1.166 2.985-2.744 2.985ZM160.943 88.412c5.523 0 9.16-3.053 9.16-7.925 0-4.631-3.465-7.41-7.342-7.41-2.092 0-3.945.823-5.043 1.921v-5.592h10.841v-4.288h-15.712v13.14l3.396.891c1.372-1.303 2.916-1.852 4.803-1.852 2.607 0 4.117 1.372 4.117 3.396 0 1.852-1.544 3.396-4.254 3.396-2.402 0-4.529-.892-6.072-2.504l-2.71 3.396c1.955 2.127 4.837 3.43 8.816 3.43Zm21.009 0c6.518 0 9.468-5.935 9.468-11.836 0-5.9-2.95-11.801-9.468-11.801-6.553 0-9.469 5.9-9.469 11.801 0 5.9 2.916 11.836 9.469 11.836Zm0-4.323c-3.293 0-4.528-3.293-4.528-7.513s1.235-7.478 4.528-7.478c3.259 0 4.494 3.259 4.494 7.478 0 4.22-1.235 7.513-4.494 7.513Zm17.328-7.924c3.534 0 5.832-2.436 5.832-5.627 0-3.224-2.298-5.763-5.832-5.763-3.499 0-5.797 2.539-5.797 5.763 0 3.19 2.298 5.627 5.797 5.627ZM199.623 88l14.649-22.882h-2.607L197.05 88h2.573Zm12.247.412c3.5 0 5.832-2.47 5.832-5.66 0-3.225-2.332-5.764-5.832-5.764-3.499 0-5.797 2.538-5.797 5.763 0 3.19 2.298 5.66 5.797 5.66Zm-12.59-14.923c-1.543 0-2.71-1.167-2.71-2.95 0-1.922 1.167-3.054 2.71-3.054 1.578 0 2.71 1.132 2.71 3.053 0 1.784-1.132 2.95-2.71 2.95Zm12.59 12.247c-1.578 0-2.71-1.132-2.71-2.985 0-1.887 1.132-3.053 2.71-3.053 1.579 0 2.745 1.166 2.745 3.053 0 1.853-1.166 2.985-2.745 2.985Z" fill="#D3EEFF"/>
    <path d="M665.366 88.5V65.618h-4.254l-7.204 7.239 2.778 2.916 3.808-3.877V88.5h4.872Zm12.766.412c5.523 0 9.16-3.053 9.16-7.925 0-4.631-3.465-7.41-7.342-7.41-2.092 0-3.945.823-5.043 1.921v-5.592h10.841v-4.288h-15.712v13.14l3.396.891c1.372-1.303 2.916-1.852 4.803-1.852 2.607 0 4.117 1.372 4.117 3.396 0 1.852-1.544 3.396-4.254 3.396-2.402 0-4.529-.892-6.072-2.504l-2.711 3.396c1.956 2.127 4.838 3.43 8.817 3.43Zm17.064-12.248c3.533 0 5.832-2.435 5.832-5.626 0-3.224-2.299-5.763-5.832-5.763-3.5 0-5.798 2.539-5.798 5.763 0 3.19 2.298 5.627 5.798 5.627Zm.343 11.836 14.648-22.882h-2.607L692.966 88.5h2.573Zm12.247.412c3.499 0 5.832-2.47 5.832-5.66 0-3.225-2.333-5.764-5.832-5.764-3.499 0-5.798 2.538-5.798 5.763 0 3.19 2.299 5.66 5.798 5.66Zm-12.59-14.923c-1.544 0-2.711-1.167-2.711-2.95 0-1.922 1.167-3.054 2.711-3.054 1.578 0 2.71 1.132 2.71 3.053 0 1.784-1.132 2.95-2.71 2.95Zm12.59 12.247c-1.578 0-2.71-1.132-2.71-2.985 0-1.887 1.132-3.053 2.71-3.053s2.744 1.166 2.744 3.053c0 1.853-1.166 2.985-2.744 2.985Z" fill="#ECF8FF"/>
    <path d="M439.93 88.5v-4.288h-9.331c5.935-4.323 9.16-7.719 9.16-11.63 0-4.563-3.877-7.307-8.748-7.307-3.191 0-6.587 1.166-8.817 3.74l2.779 3.224c1.544-1.612 3.533-2.642 6.141-2.642 1.886 0 3.705.995 3.705 2.985 0 2.813-2.745 5.18-12.11 12.11V88.5h17.221Zm12.371.412c6.518 0 9.468-5.935 9.468-11.836 0-5.9-2.95-11.801-9.468-11.801-6.552 0-9.468 5.9-9.468 11.801 0 5.9 2.916 11.836 9.468 11.836Zm0-4.323c-3.293 0-4.528-3.293-4.528-7.513s1.235-7.478 4.528-7.478c3.259 0 4.494 3.259 4.494 7.478 0 4.22-1.235 7.513-4.494 7.513Zm17.329-7.924c3.533 0 5.831-2.436 5.831-5.627 0-3.224-2.298-5.763-5.831-5.763-3.5 0-5.798 2.539-5.798 5.763 0 3.19 2.298 5.627 5.798 5.627Zm.343 11.835 14.648-22.882h-2.607L467.4 88.5h2.573Zm12.247.412c3.499 0 5.832-2.47 5.832-5.66 0-3.225-2.333-5.764-5.832-5.764-3.499 0-5.798 2.538-5.798 5.763 0 3.19 2.299 5.66 5.798 5.66Zm-12.59-14.923c-1.544 0-2.711-1.167-2.711-2.95 0-1.922 1.167-3.054 2.711-3.054 1.578 0 2.71 1.132 2.71 3.053 0 1.784-1.132 2.95-2.71 2.95Zm12.59 12.247c-1.578 0-2.71-1.132-2.71-2.985 0-1.887 1.132-3.053 2.71-3.053s2.744 1.166 2.744 3.053c0 1.853-1.166 2.985-2.744 2.985Z" fill="#D3EEFF"/>
  </g>
  <path d="M1 8v284" stroke="url(#o)"/>
  <defs>
    <linearGradient id="a" x1="258.5" y1="107" x2="258.5" y2="129" gradientUnits="userSpaceOnUse">
      <stop offset=".333" stop-color="#74BAE2" stop-opacity="0"/>
      <stop offset="1" stop-color="#2796D7"/>
    </linearGradient>
    <linearGradient id="b" x1="736.634" y1="107" x2="736.634" y2="129" gradientUnits="userSpaceOnUse">
      <stop offset=".333" stop-color="#74BAE2" stop-opacity="0"/>
      <stop offset="1" stop-color="#2796D7"/>
    </linearGradient>
    <linearGradient id="d" x1="734.5" y1="215.5" x2="647.5" y2="213" gradientUnits="userSpaceOnUse">
      <stop stop-color="#A1DDFF"/>
      <stop offset="1" stop-color="#6FC6F7"/>
    </linearGradient>
    <linearGradient id="f" x1="648" y1="213" x2="434.5" y2="213" gradientUnits="userSpaceOnUse">
      <stop stop-color="#54C2FF"/>
      <stop offset="1" stop-color="#178ED3"/>
    </linearGradient>
    <linearGradient id="g" x1="435" y1="212.518" x2="1" y2="212.518" gradientUnits="userSpaceOnUse">
      <stop offset=".005" stop-color="#4CACF4"/>
      <stop offset=".873" stop-color="#1F7BC1"/>
    </linearGradient>
    <linearGradient id="j" x1="515.789" y1="72.5" x2="361" y2="72.5" gradientUnits="userSpaceOnUse">
      <stop stop-color="#54C2FF"/>
      <stop offset=".691" stop-color="#178ED3"/>
    </linearGradient>
    <linearGradient id="k" x1="737" y1="76" x2="632.385" y2="76" gradientUnits="userSpaceOnUse">
      <stop stop-color="#A3DEFF"/>
      <stop offset="1" stop-color="#45B7F5"/>
    </linearGradient>
    <linearGradient id="m" x1="626.838" y1="72.5" x2="508" y2="72.5" gradientUnits="userSpaceOnUse">
      <stop stop-color="#6CCBFF"/>
      <stop offset="1" stop-color="#38A6E6"/>
    </linearGradient>
    <linearGradient id="n" x1="369" y1="76" x2="1" y2="76" gradientUnits="userSpaceOnUse">
      <stop offset=".05" stop-color="#67BDFC"/>
      <stop offset=".834" stop-color="#1F7BC1"/>
    </linearGradient>
    <linearGradient id="o" x1="1.5" y1="8" x2="1.5" y2="292" gradientUnits="userSpaceOnUse">
      <stop stop-color="#77BCE8" stop-opacity="0"/>
      <stop offset=".129" stop-color="#77BCE8"/>
      <stop offset=".495" stop-color="#77BCE8"/>
      <stop offset=".85" stop-color="#77BCE8"/>
      <stop offset="1" stop-color="#77BCE8" stop-opacity="0"/>
    </linearGradient>
    <filter id="e" x="418.24" y="175" width="240.76" height="76" filterUnits="userSpaceOnUse" color-interpolation-filters="sRGB">
      <feFlood flood-opacity="0" result="BackgroundImageFix"/>
      <feColorMatrix in="SourceAlpha" values="0 0 0 0 0 0 0 0 0 0 0 0 0 0 0 0 0 0 127 0" result="hardAlpha"/>
      <feOffset dx="1"/>
      <feGaussianBlur stdDeviation="5"/>
      <feColorMatrix values="0 0 0 0 0.238281 0 0 0 0 0.574188 0 0 0 0 0.7625 0 0 0 0.56 0"/>
      <feBlend in2="BackgroundImageFix" result="effect1_dropShadow_124_691"/>
      <feColorMatrix in="SourceAlpha" values="0 0 0 0 0 0 0 0 0 0 0 0 0 0 0 0 0 0 127 0" result="hardAlpha"/>
      <feOffset dx="1"/>
      <feGaussianBlur stdDeviation=".5"/>
      <feColorMatrix values="0 0 0 0 0.239216 0 0 0 0 0.572549 0 0 0 0 0.760784 0 0 0 0.1 0"/>
      <feBlend in2="effect1_dropShadow_124_691" result="effect2_dropShadow_124_691"/>
      <feBlend in="SourceGraphic" in2="effect2_dropShadow_124_691" result="shape"/>
    </filter>
    <filter id="i" x="352" y="38" width="175" height="76" filterUnits="userSpaceOnUse" color-interpolation-filters="sRGB">
      <feFlood flood-opacity="0" result="BackgroundImageFix"/>
      <feColorMatrix in="SourceAlpha" values="0 0 0 0 0 0 0 0 0 0 0 0 0 0 0 0 0 0 127 0" result="hardAlpha"/>
      <feOffset dx="1"/>
      <feGaussianBlur stdDeviation="5"/>
      <feColorMatrix values="0 0 0 0 0.238281 0 0 0 0 0.574188 0 0 0 0 0.7625 0 0 0 0.56 0"/>
      <feBlend in2="BackgroundImageFix" result="effect1_dropShadow_124_691"/>
      <feColorMatrix in="SourceAlpha" values="0 0 0 0 0 0 0 0 0 0 0 0 0 0 0 0 0 0 127 0" result="hardAlpha"/>
      <feOffset dx="1"/>
      <feGaussianBlur stdDeviation=".5"/>
      <feColorMatrix values="0 0 0 0 0.239216 0 0 0 0 0.572549 0 0 0 0 0.760784 0 0 0 0.1 0"/>
      <feBlend in2="effect1_dropShadow_124_691" result="effect2_dropShadow_124_691"/>
      <feBlend in="SourceGraphic" in2="effect2_dropShadow_124_691" result="shape"/>
    </filter>
    <filter id="l" x="499" y="38" width="139" height="76" filterUnits="userSpaceOnUse" color-interpolation-filters="sRGB">
      <feFlood flood-opacity="0" result="BackgroundImageFix"/>
      <feColorMatrix in="SourceAlpha" values="0 0 0 0 0 0 0 0 0 0 0 0 0 0 0 0 0 0 127 0" result="hardAlpha"/>
      <feOffset dx="1"/>
      <feGaussianBlur stdDeviation="5"/>
      <feColorMatrix values="0 0 0 0 0.238281 0 0 0 0 0.574188 0 0 0 0 0.7625 0 0 0 0.56 0"/>
      <feBlend in2="BackgroundImageFix" result="effect1_dropShadow_124_691"/>
      <feColorMatrix in="SourceAlpha" values="0 0 0 0 0 0 0 0 0 0 0 0 0 0 0 0 0 0 127 0" result="hardAlpha"/>
      <feOffset dx="1"/>
      <feGaussianBlur stdDeviation=".5"/>
      <feColorMatrix values="0 0 0 0 0.239216 0 0 0 0 0.572549 0 0 0 0 0.760784 0 0 0 0.1 0"/>
      <feBlend in2="effect1_dropShadow_124_691" result="effect2_dropShadow_124_691"/>
      <feBlend in="SourceGraphic" in2="effect2_dropShadow_124_691" result="shape"/>
    </filter>
  </defs>
</svg>
