<svg xmlns="http://www.w3.org/2000/svg" width="928" height="103" fill="none" viewBox="0 0 928 103"><path fill="url(#paint0_linear)" d="M8 9.5c23.75 0 40.86 5.38 54.68 13.4 13.87 8.03 24.49 18.76 35.25 29.65 10.73 10.86 21.62 21.88 35.88 30.15 14.3 8.3 31.94 13.8 56.19 13.8v-3c-23.75 0-40.86-5.38-54.69-13.4-13.86-8.03-24.48-18.76-35.24-29.65C89.33 39.59 78.45 28.57 64.19 20.3 49.89 12 32.25 6.5 8 6.5v3zm182 87c24.25 0 41.89-5.5 56.19-13.8 14.26-8.27 25.14-19.29 35.88-30.15 10.76-10.89 21.38-21.62 35.25-29.66C331.13 14.87 348.25 9.5 372 9.5v-3c-24.25 0-41.89 5.5-56.19 13.8-14.26 8.27-25.14 19.29-35.88 30.15-10.76 10.89-21.38 21.62-35.25 29.66C230.87 88.13 213.75 93.5 190 93.5v3zm183-87c23.75 0 40.86 5.38 54.69 13.4 13.86 8.03 24.48 18.76 35.24 29.65 10.74 10.86 21.62 21.88 35.88 30.15 14.3 8.3 31.94 13.8 56.19 13.8v-3c-23.75 0-40.86-5.38-54.69-13.4-13.86-8.03-24.48-18.76-35.24-29.65-10.74-10.86-21.62-21.88-35.88-30.15C414.89 12 397.25 6.5 373 6.5v3zm367 0c23.75 0 40.86 5.38 54.68 13.4 13.87 8.03 24.49 18.76 35.25 29.65 10.74 10.86 21.62 21.88 35.88 30.15 14.3 8.3 31.94 13.8 56.19 13.8v-3c-23.75 0-40.86-5.38-54.68-13.4-13.87-8.03-24.49-18.76-35.25-29.65-10.74-10.86-21.62-21.88-35.88-30.15C781.89 12 764.25 6.5 740 6.5v3zm-185 87c24.25 0 41.89-5.5 56.19-13.8 14.26-8.27 25.14-19.29 35.88-30.15 10.76-10.89 21.38-21.62 35.25-29.66C696.14 14.87 713.25 9.5 737 9.5v-3c-24.25 0-41.89 5.5-56.19 13.8-14.26 8.27-25.14 19.29-35.88 30.15-10.76 10.89-21.38 21.62-35.25 29.66C595.86 88.13 578.75 93.5 555 93.5v3z"/><circle cx="8" cy="8" r="6.5" fill="#fff" stroke="#FF9C01" stroke-width="3"/><circle cx="373" cy="8" r="6.5" fill="#fff" stroke="#FF9C01" stroke-width="3"/><circle cx="738" cy="8" r="6.5" fill="#fff" stroke="#FF9C01" stroke-width="3"/><circle cx="190" cy="95" r="6.5" fill="#fff" stroke="#EC8265" stroke-width="3"/><circle cx="553" cy="95" r="6.5" fill="#fff" stroke="#EC8265" stroke-width="3"/><circle cx="920" cy="95" r="6.5" fill="#fff" stroke="#EC8265" stroke-width="3"/><defs><linearGradient id="paint0_linear" x1="8" x2="8" y1="8.28" y2="95" gradientUnits="userSpaceOnUse"><stop stop-color="#FF9C00"/><stop offset="1" stop-color="#EC8266"/></linearGradient></defs></svg>