<svg width="89" height="20" fill="none" xmlns="http://www.w3.org/2000/svg">
  <path d="M5.004 15.406c-1.861 0-3.343-.537-4.445-1.61l1.03-1.633c.387.401.91.745 1.568 1.031.659.286 1.31.43 1.955.43.658 0 1.16-.13 1.503-.387.358-.258.537-.594.537-1.01 0-.372-.215-.658-.644-.859-.43-.214-.952-.379-1.568-.494a28.854 28.854 0 0 1-1.847-.45 3.496 3.496 0 0 1-1.568-.967c-.43-.458-.644-1.052-.644-1.783 0-.887.365-1.632 1.095-2.233.73-.616 1.725-.924 2.985-.924 1.59 0 2.936.487 4.038 1.46l-.945 1.59c-.33-.372-.766-.673-1.31-.902a4.492 4.492 0 0 0-1.761-.344c-.587 0-1.06.122-1.418.365-.343.23-.515.53-.515.902 0 .287.15.523.451.71.315.171.702.3 1.16.386.472.086.98.207 1.525.365a10.27 10.27 0 0 1 1.503.515c.473.2.86.53 1.16.988.315.444.472.988.472 1.633 0 .945-.38 1.718-1.138 2.32-.759.6-1.818.901-3.179.901ZM14.705 15.406c-.873 0-1.539-.229-1.997-.687-.444-.458-.666-1.117-.666-1.976V6.751h-1.718V4.775h1.718V1.94h2.255v2.835h2.105v1.976h-2.105v5.434c0 .372.086.673.258.902.172.215.415.322.73.322.458 0 .795-.122 1.01-.365l.536 1.696c-.472.444-1.18.666-2.126.666ZM17.998 19.208l.344-2.02c.258.115.544.173.86.173.73 0 1.223-.301 1.481-.902l.516-1.182-4.253-10.502h2.405l3.029 7.775 3.028-7.775h2.427l-5.004 12.242c-.616 1.532-1.804 2.312-3.565 2.341-.473 0-.895-.05-1.267-.15ZM31.506 15.149h-2.255V.822h2.255v14.325ZM39.221 15.406c-1.575 0-2.878-.5-3.909-1.503-1.016-1.017-1.525-2.334-1.525-3.952 0-1.518.494-2.8 1.482-3.844 1.003-1.06 2.263-1.59 3.78-1.59 1.532 0 2.764.53 3.694 1.59.945 1.06 1.418 2.412 1.418 4.059v.537H36.15a3.138 3.138 0 0 0 1.01 2.04c.586.544 1.352.816 2.297.816.53 0 1.06-.1 1.59-.3.544-.2.995-.48 1.353-.838l1.03 1.482c-1.045 1.002-2.448 1.503-4.209 1.503Zm2.75-6.293c-.03-.716-.294-1.353-.795-1.911-.487-.558-1.196-.838-2.127-.838-.888 0-1.582.28-2.083.838a3.107 3.107 0 0 0-.838 1.911h5.842ZM53.324 15.428c-2.12 0-3.902-.688-5.348-2.062-1.446-1.375-2.17-3.164-2.17-5.37 0-2.204.724-3.987 2.17-5.347C49.422 1.274 51.205.587 53.324.587c2.463 0 4.388.995 5.777 2.985l-2.062 1.16a4.655 4.655 0 0 0-1.589-1.375 4.304 4.304 0 0 0-2.126-.536c-1.418 0-2.599.486-3.544 1.46-.93.974-1.396 2.212-1.396 3.716 0 1.503.465 2.749 1.396 3.737.945.973 2.126 1.46 3.544 1.46.673 0 1.31-.129 1.911-.387.616-.257 1.11-.558 1.482-.902V9.672h-4.274V7.46h6.787v5.369c-1.56 1.732-3.53 2.599-5.906 2.599ZM74.627 15.149h-2.856l-1.052-2.75h-6.572l-1.053 2.75h-2.856L65.865.822H69l5.626 14.325Zm-4.617-4.962-2.577-6.83-2.578 6.83h5.155ZM88.606 15.149h-2.427L78.705 4.925V15.15h-2.513V.822h2.577l7.324 9.944V.823h2.513v14.325Z" fill="#141414"/>
</svg>
