<svg width="78" height="19" fill="none" xmlns="http://www.w3.org/2000/svg"><g clip-path="url(#clip0)" fill="#11557C"><path d="M5.287 1.298v3.496h4.576v1.573H5.287v6.686c0 .909.172 1.543.515 1.902s.941.539 1.795.539h2.266v1.616H7.4c-1.51 0-2.576-.304-3.196-.912-.62-.609-.931-1.657-.931-3.145V6.367H0V4.794h3.273V1.298h2.014zm18.27 8.18v7.632h-2.025V9.479c0-1.107-.193-1.92-.58-2.441-.387-.521-.992-.781-1.817-.781-.941 0-1.668.337-2.178 1.011-.504.668-.756 1.628-.756 2.882v6.96h-2.014V0h2.014v6.642c.358-.704.843-1.235 1.456-1.595.613-.366 1.34-.55 2.179-.55 1.248 0 2.178.415 2.791 1.243.62.821.93 2.067.93 3.739zM46.71 10.92h-.668c-1.175 0-2.061.21-2.66.627-.59.41-.886 1.026-.886 1.848 0 .74.222 1.315.667 1.726.446.41 1.062.616 1.85.616 1.11 0 1.982-.385 2.617-1.155.634-.777.956-1.847.963-3.21v-.452H46.71zm3.908-.835v7.026h-2.025v-1.825c-.43.733-.974 1.275-1.631 1.627-.65.345-1.442.517-2.376.517-1.247 0-2.244-.352-2.988-1.056-.744-.71-1.117-1.66-1.117-2.848 0-1.37.456-2.412 1.369-3.123.92-.71 2.266-1.066 4.04-1.066h2.703v-.319c-.007-.982-.255-1.693-.744-2.133-.49-.447-1.27-.671-2.343-.671a7.62 7.62 0 00-2.08.297c-.7.198-1.383.487-2.047.868V5.355a13.601 13.601 0 012.135-.638 9.523 9.523 0 011.992-.22c1.014 0 1.88.15 2.594.451.723.3 1.307.752 1.752 1.353.277.366.474.82.591 1.363.117.536.175 1.342.175 2.42zm13.4-.605v7.631h-2.026V9.479c0-1.107-.193-1.92-.58-2.441-.387-.521-.993-.781-1.817-.781-.942 0-1.668.337-2.179 1.011-.503.668-.755 1.628-.755 2.882v6.96h-2.014V4.794h2.014v1.848c.358-.704.843-1.235 1.456-1.595.613-.366 1.339-.55 2.178-.55 1.248 0 2.179.415 2.792 1.243.62.821.93 2.067.93 3.739zm8.724-3.266c-1.022 0-1.796.4-2.321 1.199-.526.799-.788 1.982-.788 3.551 0 1.562.263 2.746.788 3.552.525.799 1.3 1.198 2.32 1.198 1.03 0 1.807-.399 2.332-1.198.526-.806.789-1.99.789-3.552 0-1.569-.263-2.752-.789-3.551-.525-.8-1.302-1.2-2.331-1.2zm0-1.716c1.7 0 3 .554 3.897 1.66.905 1.108 1.357 2.71 1.357 4.806 0 2.104-.449 3.71-1.346 4.817-.898 1.1-2.2 1.65-3.908 1.65-1.7 0-3-.55-3.897-1.65-.898-1.107-1.347-2.713-1.347-4.817 0-2.096.45-3.698 1.347-4.805.897-1.107 2.196-1.66 3.897-1.66z"/><path d="M31.36 17.764c-1.62-.317-2.57-.751-3.482-2.066-.663-.954-.77-1.735-.783-3.08-.006-.642.013-.781.143-1.098l.15-.363.177.388c.205.445.405.76.537.844.078.05.099-.054.141-.714a18.6 18.6 0 01.09-1.042c.04-.269.041-.27.394-.404.672-.257 1.923-.29 4.176-.11 1.032.083 3.254.128 3.49-.077.244-.213.274-.31.197-.894-.092-.689.005-.845-.285-1.42-.753-1.492-2.003-2.127-3.655-2.131-1.489-.004-2.683.543-3.404 1.76-.635 1.072-.918 2.221-1.086 4.404l-.047.612-.141-.204c-.677-.976-1.097-2.682-.806-3.98.226-1.004.686-1.877 1.433-2.716.645-.725 1.706-1.14 2.979-1.385.82-.157 1.38-.157 2.2 0 1.272.244 2.194.71 2.839 1.435.74.83 1.207 1.71 1.425 2.683.147.657.17 1.653.047 1.967-.109.275-.908 1.172-.935 1.048a.29.29 0 01.051-.194c.11-.157.011-.222-.156-.102-.13.093-.153.096-.228.026-.16-.146-.219.006-.072.187.17.209.172.28.012.28-.069 0-.14.02-.16.043-.153.188-2.523.233-4.405.082-1.392-.111-2.498-.087-2.757.06-.213.12-.495.547-.59.893-.09.328-.038 1.325.09 1.725.13.404.591.992 1.073 1.367 1.344 1.05 3.564 1.062 4.916.027.68-.52 1.229-1.357 1.068-1.627a.684.684 0 01-.074-.295c0-.172.195-.525.323-.585.18-.085.383-.424.383-.639 0-.249.088-.414.22-.414.204 0 .18-.64-.035-.913-.166-.21-.15-.254.04-.117.123.089.16.098.16.04 0-.042.05-.107.11-.144.096-.06.101-.057.047.03-.033.055-.051.317-.041.584.017.44.033.492.168.574.122.073.155.15.183.422.023.234.095.431.241.666.17.272.202.375.175.555a.59.59 0 01-.162.328c-.16.133-.813.995-.879 1.16-.119.303-.52.935-.78 1.236-.405.463-.84.742-1.594 1.018-1.126.413-2.002.488-3.12.27z" stroke="#fff" stroke-width=".246"/></g><defs><clipPath id="clip0"><path fill="#fff" d="M0 0h78v18.063H0z"/></clipPath></defs></svg>