<svg width="58" height="19" fill="none" xmlns="http://www.w3.org/2000/svg"><path d="M7.18 7.548C5.866 7.39 5.769 5.606 4.083 5.763c-.818 0-1.578.345-1.578 1.105 0 1.143 1.744 1.252 2.796 1.538 1.793.552 3.527.926 3.527 2.898 0 2.504-1.939 3.372-4.501 3.372-2.144 0-4.316-.769-4.316-2.76 0-.553.526-.986 1.032-.986.644 0 .868.276 1.092.73.497.886 1.052 1.36 2.435 1.36.877 0 1.774-.335 1.774-1.104 0-1.095-1.101-1.332-2.241-1.598C2.085 9.746.35 9.451.146 7.183-.068 3.318 7.892 3.17 8.35 6.562c-.01.611-.575.986-1.17.986zm9.47-3.392c2.797 0 4.385 2.367 4.385 5.285 0 2.928-1.54 5.284-4.384 5.284-1.579 0-2.563-.68-3.274-1.725v3.865c0 1.163-.37 1.725-1.208 1.725-1.023 0-1.208-.66-1.208-1.725V5.625c0-.917.38-1.479 1.208-1.479.78 0 1.208.622 1.208 1.48v.315c.79-1.006 1.695-1.785 3.274-1.785zm-.662 8.558c1.637 0 2.368-1.528 2.368-3.313 0-1.745-.74-3.312-2.368-3.312-1.705 0-2.494 1.42-2.494 3.312 0 1.844.799 3.313 2.494 3.313zm6.947-5.797c0-2.031 2.31-2.76 4.55-2.76 3.147 0 4.443.926 4.443 4.002v2.958c0 .7.428 2.1.428 2.524 0 .64-.584 1.045-1.208 1.045-.691 0-1.208-.828-1.578-1.42-1.023.828-2.105 1.42-3.76 1.42-1.832 0-3.274-1.095-3.274-2.899 0-1.597 1.13-2.514 2.494-2.83 0 .01 4.384-1.044 4.384-1.054 0-1.36-.477-1.962-1.89-1.962-1.247 0-1.88.345-2.368 1.104-.39.572-.34.917-1.09.917-.605-.01-1.131-.424-1.131-1.045zm3.741 6.103c1.92 0 2.728-1.026 2.728-3.066V9.52c-.516.177-2.601.7-3.166.788-.604.119-1.208.572-1.208 1.292.02.789.818 1.42 1.646 1.42zM40.774.3c2.709 0 5.642 1.637 5.642 4.24 0 .67-.497 1.222-1.15 1.222-.887 0-1.013-.483-1.403-1.163-.653-1.213-1.423-2.021-3.098-2.021-2.592-.02-3.751 2.228-3.751 5.028 0 2.82.964 4.85 3.643 4.85 1.783 0 2.768-1.044 3.274-2.395.205-.621.575-1.223 1.345-1.223.604 0 1.208.622 1.208 1.292 0 2.76-2.787 4.673-5.651 4.673-3.137 0-4.91-1.34-5.885-3.569-.477-1.065-.78-2.169-.78-3.687C34.15 3.269 36.615.3 40.775.3zm15.492 3.855c.692 0 1.091.454 1.091 1.164 0 .286-.224.857-.312 1.163l-3.332 8.864c-.74 1.922-1.296 3.253-3.82 3.253-1.198 0-2.24-.109-2.24-1.163 0-.612.458-.917 1.091-.917.117 0 .312.059.429.059.185 0 .312.059.428.059 1.267 0 1.443-1.311 1.89-2.218l-3.215-8.055c-.185-.434-.311-.73-.311-.986 0-.71.545-1.223 1.276-1.223.819 0 1.14.651 1.345 1.36l2.124 6.39L54.833 6c.322-.917.351-1.844 1.433-1.844z" fill="#09A3D5"/></svg>