<svg width="222" height="20" fill="none" xmlns="http://www.w3.org/2000/svg"><path d="M30.927 11.334l-.506 1.435h-.042a10.18 10.18 0 00-.493-1.407l-2.715-6.824h-2.66v10.876h1.76V8.703c0-.422 0-.9-.015-1.491-.014-.296-.042-.52-.056-.69h.042c.085.422.183.732.253.929l3.264 7.935h1.239l3.236-8.006c.07-.182.14-.548.21-.858h.043c-.042.802-.07 1.52-.085 1.956v6.894h1.872V4.51h-2.561l-2.786 6.824zm7.12-3.757h1.828v7.795h-1.829V7.577zm.928-3.292c-.31 0-.563.113-.774.31a.999.999 0 00-.324.76.99.99 0 00.324.745c.211.197.464.296.774.296s.577-.113.774-.296a.99.99 0 00.323-.746c0-.295-.112-.548-.323-.76-.183-.196-.45-.309-.774-.309zm7.386 3.222a5.102 5.102 0 00-1.027-.112c-.83 0-1.59.182-2.223.548-.633.366-1.14.873-1.463 1.506-.338.647-.506 1.393-.506 2.25 0 .746.168 1.408.492 2.013.324.59.774 1.069 1.379 1.393.577.323 1.252.492 2.012.492.872 0 1.618-.183 2.209-.52l.014-.015v-1.688l-.07.056a3.143 3.143 0 01-.887.465c-.324.112-.62.168-.872.168-.732 0-1.309-.21-1.717-.675-.422-.45-.633-1.07-.633-1.843 0-.802.211-1.435.647-1.9.436-.464 1.013-.703 1.717-.703.59 0 1.196.197 1.744.591l.07.056V7.803l-.013-.015c-.24-.098-.507-.21-.873-.28zm6.036-.056c-.45 0-.872.14-1.238.436-.31.253-.52.619-.703 1.055h-.015V7.577h-1.829v7.795h1.83V11.39c0-.675.14-1.238.45-1.646.31-.422.703-.633 1.181-.633.17 0 .338.042.55.07.196.057.337.113.435.183l.07.057V7.59l-.041-.014c-.127-.084-.38-.126-.69-.126zm4.98-.042c-1.28 0-2.307.38-3.024 1.125-.732.746-1.084 1.773-1.084 3.067 0 1.21.366 2.195 1.07 2.913.703.703 1.66 1.069 2.856 1.069 1.252 0 2.25-.38 2.968-1.14.732-.76 1.084-1.772 1.084-3.025 0-1.238-.338-2.223-1.027-2.94-.662-.718-1.632-1.07-2.842-1.07zm1.464 5.993c-.338.436-.873.647-1.534.647s-1.196-.21-1.576-.675c-.38-.436-.562-1.07-.562-1.871 0-.83.197-1.463.563-1.914.38-.45.9-.675 1.561-.675.647 0 1.154.211 1.52.647.365.436.563 1.07.563 1.9-.029.844-.183 1.505-.535 1.941zm6.486-2.589c-.577-.239-.943-.422-1.112-.577-.14-.14-.21-.337-.21-.59 0-.211.084-.422.295-.563.21-.14.45-.211.802-.211.31 0 .633.056.942.14.31.085.591.212.816.38l.07.057V7.732l-.042-.014a5.081 5.081 0 00-.83-.239 5.641 5.641 0 00-.9-.084c-.872 0-1.59.21-2.153.675-.562.436-.83 1.027-.83 1.716 0 .366.056.69.183.957s.31.52.563.732c.253.197.619.422 1.125.633.423.183.746.323.943.436.197.112.324.24.422.338a.8.8 0 01.113.436c0 .52-.394.774-1.196.774-.31 0-.633-.057-1.013-.183a3.915 3.915 0 01-1.027-.52l-.07-.057v1.787l.042.014c.267.126.59.21.985.31.394.07.745.126 1.055.126.942 0 1.716-.211 2.265-.676.563-.45.858-1.027.858-1.772 0-.52-.14-.985-.45-1.337a5.704 5.704 0 00-1.646-.97zm6.922-3.404c-1.28 0-2.307.38-3.025 1.125-.718.746-1.083 1.773-1.083 3.067 0 1.21.365 2.195 1.069 2.913.703.703 1.66 1.069 2.856 1.069 1.252 0 2.251-.38 2.969-1.14.731-.76 1.083-1.772 1.083-3.025 0-1.238-.338-2.223-1.027-2.94-.661-.718-1.632-1.07-2.842-1.07zm1.449 5.993c-.338.436-.872.647-1.533.647-.676 0-1.196-.21-1.576-.675-.38-.436-.563-1.07-.563-1.871 0-.83.197-1.463.563-1.914.38-.45.9-.675 1.561-.675.633 0 1.154.211 1.52.647.366.436.563 1.07.563 1.9 0 .844-.183 1.505-.535 1.941zm12.198-4.32V7.578h-1.843V5.27l-.056.014-1.745.52-.042.015v1.758h-2.758v-.984c0-.45.113-.802.31-1.027.197-.226.492-.338.858-.338.253 0 .52.056.816.183l.07.042v-1.59l-.042-.014c-.253-.084-.59-.14-1.027-.14-.549 0-1.027.126-1.463.337a2.44 2.44 0 00-.999.999c-.24.422-.366.9-.366 1.45v1.082h-1.28V9.07h1.28v6.303h1.843v-6.29h2.758v4.01c0 1.647.774 2.477 2.321 2.477.254 0 .521-.042.774-.085.267-.056.464-.126.577-.182l.014-.015v-1.505l-.07.056a1.19 1.19 0 01-.38.17c-.14.041-.267.055-.366.055-.366 0-.619-.084-.802-.295-.169-.197-.253-.52-.253-.999V9.083h1.871z" fill="#737373"/><path d="M.931.88h8.625v8.625H.93V.88z" fill="#F25022"/><path d="M10.456.88h8.625v8.625h-8.625V.88z" fill="#7FBA00"/><path d="M.931 10.405h8.625v8.625H.93v-8.625z" fill="#00A4EF"/><path d="M10.456 10.405h8.625v8.625h-8.625v-8.625z" fill="#FFB900"/><path d="M99.997 14.913c-.812.429-1.822.643-3.031.643-1.561 0-2.811-.502-3.75-1.508-.939-1.005-1.408-2.324-1.408-3.956 0-1.755.528-3.174 1.584-4.256 1.056-1.081 2.395-1.622 4.018-1.622 1.04 0 1.903.15 2.587.452v1.37a5.246 5.246 0 00-2.603-.659c-1.26 0-2.283.421-3.069 1.263-.78.842-1.17 1.967-1.17 3.375 0 1.337.364 2.403 1.094 3.2.735.79 1.697 1.185 2.885 1.185 1.102 0 2.056-.244 2.863-.734v1.247zM104.712 15.556c-1.159 0-2.085-.365-2.779-1.094-.688-.735-1.033-1.707-1.033-2.916 0-1.317.36-2.345 1.079-3.084.72-.74 1.692-1.11 2.916-1.11 1.169 0 2.079.36 2.732 1.079.659.72.988 1.717.988 2.992 0 1.25-.355 2.253-1.064 3.008-.704.75-1.651 1.125-2.839 1.125zm.091-7.148c-.806 0-1.443.275-1.913.827-.469.545-.704 1.3-.704 2.265 0 .928.237 1.66.712 2.196.474.536 1.109.804 1.905.804.812 0 1.434-.263 1.868-.788.439-.526.658-1.273.658-2.243 0-.98-.219-1.734-.658-2.265-.434-.53-1.056-.796-1.868-.796zM121.121 15.372h-1.255v-4.5c0-.867-.136-1.495-.406-1.882-.265-.388-.714-.582-1.347-.582-.536 0-.992.245-1.37.735-.372.49-.559 1.076-.559 1.76v4.47h-1.255v-4.654c0-1.54-.594-2.311-1.783-2.311-.551 0-1.005.232-1.362.696-.357.46-.536 1.06-.536 1.799v4.47h-1.255V7.535h1.255v1.24h.031c.556-.95 1.367-1.424 2.433-1.424.536 0 1.003.15 1.401.451.398.296.671.687.819 1.171.581-1.081 1.449-1.622 2.602-1.622 1.724 0 2.587 1.064 2.587 3.191v4.83zM124.152 14.24h-.031v4.737h-1.255V7.536h1.255v1.377h.031c.617-1.04 1.52-1.561 2.709-1.561 1.01 0 1.799.352 2.365 1.056.566.699.85 1.638.85 2.816 0 1.312-.319 2.363-.957 3.153-.638.786-1.51 1.18-2.617 1.18-1.016 0-1.799-.44-2.35-1.317zm-.031-3.161v1.094c0 .648.21 1.2.628 1.653.423.45.959.674 1.607.674.76 0 1.355-.29 1.783-.873.434-.581.651-1.39.651-2.426 0-.872-.202-1.556-.605-2.05-.403-.496-.949-.743-1.638-.743-.729 0-1.316.255-1.76.765-.444.505-.666 1.14-.666 1.906zM137.791 15.372h-1.255v-1.24h-.031c-.52.95-1.327 1.424-2.418 1.424-1.868 0-2.802-1.112-2.802-3.337V7.536h1.248v4.484c0 1.653.633 2.48 1.898 2.48.612 0 1.115-.225 1.508-.674.398-.454.597-1.046.597-1.775V7.536h1.255v7.836zM143.34 15.296c-.296.163-.686.245-1.171.245-1.373 0-2.059-.766-2.059-2.296V8.607h-1.347V7.536h1.347V5.622l1.255-.405v2.319h1.975v1.071h-1.975v4.416c0 .525.09.9.268 1.125.179.224.475.337.888.337.316 0 .589-.087.819-.26v1.07zM150.688 11.768h-5.534c.021.872.255 1.546.704 2.02.449.475 1.067.712 1.853.712.882 0 1.693-.29 2.433-.873v1.18c-.689.5-1.599.75-2.732.75-1.107 0-1.977-.356-2.61-1.065-.632-.714-.949-1.717-.949-3.007 0-1.22.345-2.212 1.033-2.978.694-.77 1.554-1.155 2.58-1.155 1.025 0 1.819.331 2.38.995.561.663.842 1.584.842 2.763v.658zm-1.286-1.064c-.005-.725-.181-1.288-.528-1.691-.342-.403-.819-.605-1.431-.605-.592 0-1.095.212-1.508.635-.413.424-.668.977-.765 1.66h4.232zM156.053 8.806c-.219-.168-.536-.253-.949-.253-.536 0-.985.253-1.347.758-.357.505-.536 1.194-.536 2.066v3.995h-1.255V7.536h1.255V9.15h.031c.179-.55.452-.98.819-1.285a1.857 1.857 0 011.232-.467c.327 0 .577.035.75.107v1.3zM168.789 4.398l-4.064 10.974h-1.415l-3.98-10.974h1.431l3.038 8.701c.097.281.171.605.222.972h.031c.041-.306.125-.635.253-.987l3.099-8.686h1.385zM170.213 5.546a.797.797 0 01-.811-.812c0-.234.079-.428.237-.581a.784.784 0 01.574-.237c.23 0 .424.079.582.237a.764.764 0 01.245.581.77.77 0 01-.245.574.79.79 0 01-.582.238zm.613 9.826h-1.255V7.536h1.255v7.836zM172.265 15.09v-1.348a3.715 3.715 0 002.258.758c1.102 0 1.653-.367 1.653-1.102a.926.926 0 00-.145-.528 1.329 1.329 0 00-.383-.39 2.679 2.679 0 00-.566-.299 22.55 22.55 0 00-.697-.283 10.012 10.012 0 01-.918-.413 3 3 0 01-.658-.475 1.864 1.864 0 01-.398-.604 2.175 2.175 0 01-.131-.789c0-.367.085-.691.253-.972.168-.285.393-.523.673-.712a3.1 3.1 0 01.957-.436 4.305 4.305 0 011.118-.145c.678 0 1.285.117 1.821.352v1.27c-.577-.377-1.24-.566-1.99-.566-.235 0-.446.028-.635.084a1.543 1.543 0 00-.49.222 1.088 1.088 0 00-.314.352.926.926 0 00-.107.444c0 .204.036.375.107.513.077.138.187.26.329.367.143.107.317.204.521.291.204.087.436.181.696.283.347.133.658.27.934.413.276.138.51.296.704.475.194.173.342.375.444.604.107.23.161.503.161.82 0 .387-.087.724-.261 1.01a2.153 2.153 0 01-.681.711c-.285.19-.614.33-.987.421a4.87 4.87 0 01-1.171.138c-.806 0-1.505-.155-2.097-.467zM179.414 5.546a.794.794 0 01-.574-.23.775.775 0 01-.237-.582c0-.234.079-.428.237-.581a.78.78 0 01.574-.237c.229 0 .423.079.582.237a.763.763 0 01.244.581.77.77 0 01-.244.574.794.794 0 01-.582.238zm.612 9.826h-1.255V7.536h1.255v7.836zM185.216 15.556c-1.159 0-2.085-.365-2.778-1.094-.689-.735-1.034-1.707-1.034-2.916 0-1.317.36-2.345 1.079-3.084.72-.74 1.692-1.11 2.916-1.11 1.169 0 2.079.36 2.733 1.079.658.72.987 1.717.987 2.992 0 1.25-.355 2.253-1.064 3.008-.704.75-1.651 1.125-2.839 1.125zm.091-7.148c-.806 0-1.443.275-1.913.827-.469.545-.704 1.3-.704 2.265 0 .928.237 1.66.712 2.196.474.536 1.11.804 1.905.804.812 0 1.434-.263 1.868-.788.439-.526.658-1.273.658-2.243 0-.98-.219-1.734-.658-2.265-.434-.53-1.056-.796-1.868-.796zM197.002 15.372h-1.255v-4.47c0-1.662-.607-2.494-1.821-2.494-.628 0-1.148.237-1.562.712-.408.47-.612 1.064-.612 1.783v4.47h-1.255V7.535h1.255v1.3h.031c.592-.99 1.449-1.484 2.571-1.484.857 0 1.513.278 1.967.834.454.551.681 1.35.681 2.396v4.79zM211.085 15.372h-1.423l-1.163-3.076h-4.654l-1.094 3.076h-1.431l4.209-10.974h1.332l4.224 10.974zm-3.007-4.232l-1.722-4.676a4.463 4.463 0 01-.169-.735h-.03c-.051.312-.11.556-.176.735l-1.707 4.676h3.804zM213.367 11.224v4.148h-1.286V4.398h3.015c1.174 0 2.082.285 2.725.857.648.571.972 1.377.972 2.418 0 1.041-.36 1.893-1.079 2.556-.715.664-1.681.995-2.901.995h-1.446zm0-5.663v4.5h1.347c.887 0 1.563-.201 2.028-.605.469-.408.704-.982.704-1.722 0-1.449-.857-2.173-2.572-2.173h-1.507zM221.526 15.372h-1.286V4.398h1.286v10.974z" fill="#737373"/></svg>