<svg width="81" height="80" fill="none" xmlns="http://www.w3.org/2000/svg">
  <path d="M24.684 66.789a5.71 5.71 0 0 1-1.63 4.387 6.648 6.648 0 0 1-4.708 1.523h-3.283V61.102H18.7c1.61-.1 3.195.439 4.41 1.5a5.514 5.514 0 0 1 1.574 4.187Zm-2.554.064c0-2.49-1.099-3.735-3.3-3.735h-1.308v7.55h1.054c2.37 0 3.555-1.271 3.555-3.815h-.001Zm11.73 5.846-.84-2.764h-4.227l-.84 2.764h-2.65l4.094-11.636h3.006l4.11 11.636H33.86Zm-1.426-4.823c-.776-2.501-1.212-3.916-1.31-4.243a13.739 13.739 0 0 1-.21-.777c-.175.679-.675 2.352-1.5 5.021l3.02-.001Zm5.536 4.821V61.102h2.458v9.565h4.704v2.036l-7.162-.006Zm9.176 0V61.102h2.459v9.565h4.704v2.036l-7.163-.006Zm8.646-1.134a1.328 1.328 0 0 1 .357-1.008 1.454 1.454 0 0 1 1.038-.34c.372-.024.739.102 1.018.349a1.328 1.328 0 0 1 .361.999 1.326 1.326 0 0 1-.365.987 1.38 1.38 0 0 1-1.018.361 1.421 1.421 0 0 1-1.032-.353 1.32 1.32 0 0 1-.359-.995Zm11.842 1.134h-6.678V61.102h6.678v2.016h-4.218v2.545h3.927v2.015h-3.928v2.99h4.219v2.03ZM62.66 25.203c.58-1.708.779-3.527.58-5.333a12.658 12.658 0 0 0-1.7-5.097c-2.818-4.833-8.47-7.32-14.007-6.153a12.981 12.981 0 0 0-5.666-3.625 13.382 13.382 0 0 0-6.742-.36c-2.237.471-4.32 1.5-6.02 3.013a12.864 12.864 0 0 0-3.682 5.583 12.814 12.814 0 0 0-4.971 2.167 12.628 12.628 0 0 0-3.626 3.986c-2.847 4.82-2.196 10.916 1.6 15.055a12.554 12.554 0 0 0-.595 5.32 12.636 12.636 0 0 0 1.686 5.097c2.818 4.833 8.484 7.319 14.008 6.152a12.928 12.928 0 0 0 4.377 3.167 12.944 12.944 0 0 0 5.31 1.097c5.666 0 10.68-3.597 12.423-8.916a12.814 12.814 0 0 0 4.971-2.167 12.627 12.627 0 0 0 3.626-3.986 12.676 12.676 0 0 0-1.615-15h.043Zm-19.405 26.75a9.735 9.735 0 0 1-6.19-2.209l.312-.166L47.66 43.73c.255-.153.468-.361.624-.611.141-.25.226-.542.226-.834V27.995l4.349 2.472s.042.028.056.042a.105.105 0 0 1 .029.07v11.846c0 5.264-4.335 9.528-9.674 9.528h-.015Zm-20.778-8.75a9.339 9.339 0 0 1-1.147-6.389l.311.18 10.283 5.848c.255.153.539.222.836.222.297 0 .58-.083.836-.222l12.563-7.139v4.944s0 .056-.014.07c0 .028-.029.041-.057.055l-10.41 5.917c-4.632 2.625-10.538 1.07-13.215-3.486h.014ZM19.772 21.12a9.596 9.596 0 0 1 5.085-4.18v12.04c0 .293.07.584.212.834s.354.459.623.611L38.2 37.536l-4.348 2.472s-.057.014-.071.014c-.014 0-.057 0-.071-.014l-10.396-5.916c-4.618-2.639-6.204-8.458-3.541-13.028v.056Zm35.707 8.18-12.55-7.18 4.335-2.472s.056-.014.07-.014c.015 0 .057 0 .071.014l10.397 5.916a9.634 9.634 0 0 1 3.739 3.834 9.387 9.387 0 0 1 1.062 5.208 9.524 9.524 0 0 1-1.926 4.972 9.653 9.653 0 0 1-4.334 3.18V30.717a1.675 1.675 0 0 0-.864-1.417Zm4.32-6.416-.312-.18L49.218 16.8a1.652 1.652 0 0 0-.85-.223 1.8 1.8 0 0 0-.85.223l-12.563 7.138v-5.014c0-.027.029-.041.043-.055l10.396-5.917a9.752 9.752 0 0 1 5.255-1.263 9.72 9.72 0 0 1 5.113 1.708 9.618 9.618 0 0 1 3.4 4.153 9.411 9.411 0 0 1 .608 5.291v.042h.029ZM32.604 31.66l-4.348-2.472s-.043-.027-.057-.055c0-.014-.028-.042-.028-.07V17.245c0-1.806.524-3.583 1.515-5.11a9.603 9.603 0 0 1 4.066-3.515 9.802 9.802 0 0 1 5.34-.82 9.843 9.843 0 0 1 4.957 2.126l-.312.166-10.283 5.848a1.856 1.856 0 0 0-.623.61c-.142.25-.227.542-.227.834V31.66Zm2.366-5.013 5.594-3.18 5.61 3.18v6.36l-5.581 3.181-5.61-3.18v-6.361h-.013Z" fill="#141414"/>
</svg>
