<svg width="140" height="60" fill="none" xmlns="http://www.w3.org/2000/svg">
  <path d="M80.065 17H78.07l-.735-1.92h-4.59L72.01 17h-1.995l3.93-10.005h2.19L80.065 17Zm-3.225-3.465-1.8-4.77-1.8 4.77h3.6ZM86.528 17h-5.745v-1.185l3.585-4.68h-3.585v-1.38h5.685v1.155l-3.615 4.725h3.675V17Zm8.184 0h-1.575v-.96c-.68.76-1.535 1.14-2.565 1.14-1.55 0-2.325-.765-2.325-2.295v-5.13h1.575v4.56c0 .53.125.91.375 1.14.25.22.61.33 1.08.33.38 0 .735-.09 1.065-.27a2.4 2.4 0 0 0 .795-.675V9.755h1.575V17Zm3.62 0h-1.575V9.755h1.575v1.065c.28-.36.63-.655 1.05-.885.42-.23.855-.345 1.305-.345v1.56a2.388 2.388 0 0 0-.495-.045c-.33 0-.685.1-1.065.3-.37.19-.635.41-.795.66V17Zm6.971.18c-1.1 0-2.01-.35-2.73-1.05-.71-.71-1.065-1.63-1.065-2.76 0-1.06.345-1.955 1.035-2.685.7-.74 1.58-1.11 2.64-1.11 1.07 0 1.93.37 2.58 1.11.66.74.99 1.685.99 2.835v.375h-5.595c.06.57.295 1.045.705 1.425.41.38.945.57 1.605.57.37 0 .74-.07 1.11-.21.38-.14.695-.335.945-.585l.72 1.035c-.73.7-1.71 1.05-2.94 1.05Zm1.92-4.395c-.02-.5-.205-.945-.555-1.335-.34-.39-.835-.585-1.485-.585-.62 0-1.105.195-1.455.585-.35.38-.545.825-.586 1.335h4.081ZM81.46 35h-1.755v-7.425L76.63 35h-.75l-3.06-7.425V35h-1.755V24.995h2.475l2.715 6.585 2.73-6.585h2.475V35Zm8.084 0H87.97v-.78c-.56.64-1.34.96-2.34.96-.66 0-1.245-.21-1.755-.63-.51-.43-.765-1.02-.765-1.77 0-.77.25-1.355.75-1.755.51-.4 1.1-.6 1.77-.6 1.03 0 1.81.31 2.34.93v-1.08c0-.42-.155-.75-.465-.99-.31-.24-.72-.36-1.23-.36-.81 0-1.525.305-2.145.915l-.645-1.095c.82-.78 1.835-1.17 3.045-1.17.89 0 1.615.21 2.175.63.56.42.84 1.085.84 1.995V35Zm-3.3-.9c.79 0 1.365-.25 1.725-.75v-1.095c-.36-.5-.935-.75-1.725-.75-.45 0-.82.12-1.11.36-.29.24-.435.555-.435.945 0 .39.145.705.435.945.29.23.66.345 1.11.345Zm8.642 1.08c-1.1 0-2-.355-2.7-1.065-.7-.72-1.05-1.635-1.05-2.745 0-1.1.35-2.005 1.05-2.715.7-.72 1.6-1.08 2.7-1.08 1.21 0 2.135.43 2.775 1.29l-1.035.96c-.4-.57-.955-.855-1.665-.855-.66 0-1.19.225-1.59.675-.4.44-.6 1.015-.6 1.725 0 .71.2 1.29.6 1.74.4.45.93.675 1.59.675.69 0 1.245-.285 1.665-.855l1.035.96c-.64.86-1.565 1.29-2.775 1.29Zm10.636-.18h-1.575v-4.56c0-.53-.13-.905-.39-1.125-.25-.23-.61-.345-1.08-.345-.37 0-.72.095-1.05.285-.33.19-.6.42-.81.69V35h-1.575V24.995h1.575v3.75c.27-.32.63-.595 1.08-.825.46-.23.955-.345 1.485-.345 1.56 0 2.34.765 2.34 2.295V35Zm2.826-8.13a.973.973 0 0 1-.69-.285.94.94 0 0 1-.285-.69c0-.27.095-.5.285-.69.2-.19.43-.285.69-.285.27 0 .5.095.69.285.19.19.285.42.285.69 0 .27-.095.5-.285.69a.94.94 0 0 1-.69.285Zm.795 8.13h-1.575v-7.245h1.575V35Zm8.508 0h-1.575v-4.53c0-1-.485-1.5-1.455-1.5-.38 0-.735.095-1.065.285-.33.19-.595.42-.795.69V35h-1.575v-7.245h1.575v.99c.27-.32.63-.595 1.08-.825.45-.23.94-.345 1.47-.345.77 0 1.35.2 1.74.6.4.4.6.975.6 1.725V35Zm5.391.18c-1.1 0-2.01-.35-2.73-1.05-.71-.71-1.065-1.63-1.065-2.76 0-1.06.345-1.955 1.035-2.685.7-.74 1.58-1.11 2.64-1.11 1.07 0 1.93.37 2.58 1.11.66.74.99 1.685.99 2.835v.375h-5.595c.06.57.295 1.045.705 1.425.41.38.945.57 1.605.57.37 0 .74-.07 1.11-.21.38-.14.695-.335.945-.585l.72 1.035c-.73.7-1.71 1.05-2.94 1.05Zm1.92-4.395c-.02-.5-.205-.945-.555-1.335-.34-.39-.835-.585-1.485-.585-.62 0-1.105.195-1.455.585a2.17 2.17 0 0 0-.585 1.335h4.08ZM77.23 53h-6.165V42.995h1.755v8.46h4.41V53Zm4.664.18c-1.1 0-2.01-.35-2.73-1.05-.71-.71-1.065-1.63-1.065-2.76 0-1.06.345-1.955 1.035-2.685.7-.74 1.58-1.11 2.64-1.11 1.07 0 1.93.37 2.58 1.11.66.74.99 1.685.99 2.835v.375H79.75c.06.57.295 1.045.705 1.425.41.38.945.57 1.605.57.37 0 .74-.07 1.11-.21.38-.14.695-.335.945-.585l.72 1.035c-.73.7-1.71 1.05-2.94 1.05Zm1.92-4.395c-.02-.5-.205-.945-.555-1.335-.34-.39-.835-.585-1.485-.585-.62 0-1.105.195-1.455.585a2.17 2.17 0 0 0-.585 1.335h4.08ZM92.9 53h-1.575v-.78c-.56.64-1.34.96-2.34.96-.66 0-1.245-.21-1.755-.63-.51-.43-.765-1.02-.765-1.77 0-.77.25-1.355.75-1.755.51-.4 1.1-.6 1.77-.6 1.03 0 1.81.31 2.34.93v-1.08c0-.42-.155-.75-.465-.99-.31-.24-.72-.36-1.23-.36-.81 0-1.525.305-2.145.915l-.645-1.095c.82-.78 1.835-1.17 3.045-1.17.89 0 1.615.21 2.175.63.56.42.84 1.085.84 1.995V53Zm-3.3-.9c.79 0 1.365-.25 1.725-.75v-1.095c-.36-.5-.935-.75-1.725-.75-.45 0-.82.12-1.11.36-.29.24-.435.555-.435.945 0 .39.145.705.435.945.29.23.66.345 1.11.345Zm6.917.9H94.94v-7.245h1.575v1.065c.28-.36.63-.655 1.05-.885.42-.23.855-.345 1.305-.345v1.56a2.388 2.388 0 0 0-.495-.045c-.33 0-.685.1-1.065.3-.37.19-.635.41-.795.66V53Zm10.09 0h-1.575v-4.53c0-1-.485-1.5-1.455-1.5-.38 0-.735.095-1.065.285-.33.19-.595.42-.795.69V53h-1.575v-7.245h1.575v.99c.27-.32.63-.595 1.08-.825.45-.23.94-.345 1.47-.345.77 0 1.35.2 1.74.6.4.4.6.975.6 1.725V53Zm2.826-8.13a.973.973 0 0 1-.69-.285.94.94 0 0 1-.285-.69c0-.27.095-.5.285-.69.2-.19.43-.285.69-.285.27 0 .5.095.69.285.19.19.285.42.285.69 0 .27-.095.5-.285.69a.94.94 0 0 1-.69.285Zm.795 8.13h-1.575v-7.245h1.575V53Zm8.508 0h-1.575v-4.53c0-1-.485-1.5-1.455-1.5-.38 0-.735.095-1.065.285-.33.19-.595.42-.795.69V53h-1.575v-7.245h1.575v.99c.27-.32.63-.595 1.08-.825.45-.23.94-.345 1.47-.345.77 0 1.35.2 1.74.6.4.4.6.975.6 1.725V53Zm4.986 2.94c-1.23 0-2.24-.36-3.03-1.08l.735-1.14c.54.62 1.305.93 2.295.93.6 0 1.105-.16 1.515-.48.42-.31.63-.805.63-1.485v-.87c-.62.8-1.395 1.2-2.325 1.2-.95 0-1.725-.33-2.325-.99-.59-.66-.885-1.57-.885-2.73 0-1.15.295-2.055.885-2.715.6-.67 1.375-1.005 2.325-1.005.95 0 1.725.395 2.325 1.185v-1.005h1.575v6.87c0 .62-.11 1.155-.33 1.605-.21.46-.5.805-.87 1.035-.37.24-.765.41-1.185.51a5.14 5.14 0 0 1-1.335.165Zm.285-4.32c.36 0 .715-.095 1.065-.285.35-.19.615-.42.795-.69v-2.7c-.18-.27-.445-.5-.795-.69a2.21 2.21 0 0 0-1.065-.285c-.62 0-1.115.215-1.485.645-.37.42-.555.98-.555 1.68s.185 1.265.555 1.695c.37.42.865.63 1.485.63Z" fill="#141414"/>
  <path d="M51.865 60H3.88L0 45.53h55.746L51.865 60Z" fill="#198AB3"/>
  <path d="M20.464 0v22.588L0 45.53 3.881 60l31.401-37.41V0H20.464Z" fill="url(#a)"/>
  <path d="M51.865 60 29.99 37.412l9.173-10.588 16.583 18.705L51.865 60Z" fill="#32BEDD"/>
  <defs>
    <linearGradient id="a" x1=".117" y1="29.961" x2="35.47" y2="29.961" gradientUnits="userSpaceOnUse">
      <stop stop-color="#50C7E8"/>
      <stop offset=".25" stop-color="#4CC3E4"/>
      <stop offset=".51" stop-color="#41B6DA"/>
      <stop offset=".77" stop-color="#2FA2C8"/>
      <stop offset="1" stop-color="#1989B2"/>
    </linearGradient>
  </defs>
</svg>
