<svg width="91" height="34" viewBox="0 0 91 34" fill="none" xmlns="http://www.w3.org/2000/svg">
<path d="M0 26.3769V13.1771H2.95757V14.8494C3.70375 13.4943 5.32874 12.7883 6.79235 12.7883C8.49723 12.7883 9.98796 13.5756 10.6815 15.1211C11.6961 13.3853 13.214 12.7883 14.8917 12.7883C17.2373 12.7883 19.4742 14.3076 19.4742 17.8069V26.3769H16.4911V18.321C16.4911 16.7755 15.7178 15.6091 13.9858 15.6091C12.3607 15.6091 11.295 16.9105 11.295 18.5373V26.3753H8.25914V18.321C8.25914 16.8032 7.50977 15.6172 5.75216 15.6172C4.10161 15.6172 3.06143 16.865 3.06143 18.5455V26.3833L0 26.3769Z" fill="#333333"/>
<path d="M23.2549 26.3768V6.73975H26.3466V26.3768H23.2549Z" fill="#333333"/>
<path d="M25.105 33.5641C25.8 33.7609 26.4248 33.8894 27.751 33.8894C30.2164 33.8894 33.1244 32.4741 33.8898 28.5015L37.0503 12.5735H41.7495L42.3231 9.92343H37.576L38.2151 6.75771C38.7041 4.29962 40.0398 3.05351 42.1841 3.05351C42.7418 3.05351 42.5852 3.10231 43.0821 3.19829L43.7692 0.484797C43.1076 0.283074 42.5149 0.162691 41.2238 0.162691C39.8608 0.141825 38.5301 0.585613 37.4433 1.42345C36.2402 2.37025 35.4461 3.76116 35.0834 5.55714L34.1934 9.92343H29.9911L29.6476 12.5752H33.6741L30.7724 27.3025C30.4529 28.9732 29.5197 30.971 26.8418 30.971C26.2346 30.971 26.4551 30.9238 25.9055 30.8327L25.105 33.5641Z" fill="#0194E2"/>
<path d="M59.9487 14.0051C57.2517 12.0837 53.5796 12.4615 51.3147 14.8934C49.0497 17.3252 48.8742 21.0787 50.9018 23.7187L52.9263 22.2058C51.9213 20.9365 51.7173 19.1943 52.4008 17.7201C53.0843 16.2458 54.5352 15.2989 56.1363 15.2822L56.0884 16.8927L59.9487 14.0051Z" fill="#43C9ED"/>
<path d="M44.5328 26.2696H41.4426L45.6785 6.45679H48.7686L44.5328 26.2696Z" fill="#0194E2"/>
<path d="M61.4458 15.5082C61.3787 15.4139 61.3084 15.3211 61.2365 15.2316L59.2872 16.6958C60.3876 17.9356 60.6731 19.7167 60.0169 21.2485C59.3608 22.7803 57.8845 23.7791 56.2433 23.8016L56.2912 22.1927L52.3877 25.121C55.0628 26.955 58.6456 26.5663 60.8811 24.1996C63.1167 21.8329 63.3582 18.1728 61.4538 15.5228L61.4458 15.5082Z" fill="#0194E2"/>
<path d="M65.196 13.1689H68.5722L69.2592 22.1895L74.0671 13.1689L77.2723 13.2161L78.5315 22.1895L82.7672 13.1689L85.8573 13.2161L79.447 26.385H76.3568L74.8676 16.9447L69.9463 26.385H66.7411L65.196 13.1689Z" fill="#0194E2"/>
<path d="M87.7206 13.4032H87.0811V13.1771H88.6214V13.408H87.9827V15.3146H87.7206V13.4032Z" fill="#0194E2"/>
<path d="M89.0081 13.1771H89.3278L89.7302 14.3158C89.782 14.4622 89.8296 14.6119 89.8788 14.7615H89.8938C89.9431 14.6119 89.9882 14.4622 90.0374 14.3158L90.4365 13.1771H90.7563V15.3146H90.5075V14.1353C90.5075 13.9482 90.5275 13.6911 90.5409 13.5007H90.5275L90.368 13.9888L89.9715 15.0967H89.7978L89.3963 13.9904L89.2368 13.5024H89.2243C89.2385 13.6928 89.2594 13.9498 89.2594 14.1369V15.3163H89.0164L89.0081 13.1771Z" fill="#0194E2"/>
</svg>
