<svg width="94" height="21" fill="none" xmlns="http://www.w3.org/2000/svg">
  <path d="M11.246 20.136H.518V.5H10.92c1.798 0 3.191.49 4.18 1.472 1.007.962 1.51 2.14 1.51 3.533 0 1.197-.325 2.198-.977 3.003-.652.804-1.462 1.305-2.43 1.501 1.066.157 1.965.697 2.696 1.62.731.922 1.097 1.991 1.097 3.208 0 1.531-.504 2.797-1.512 3.798-1.007 1-2.42 1.501-4.238 1.501ZM10.002 8.36c.71 0 1.274-.196 1.689-.588.415-.393.622-.903.622-1.531 0-.628-.217-1.139-.652-1.531-.415-.412-.968-.618-1.66-.618H4.727V8.36h5.276Zm.148 8.155c.79 0 1.412-.196 1.867-.588.454-.413.682-.972.682-1.679 0-.647-.228-1.187-.682-1.619-.454-.451-1.077-.677-1.867-.677H4.726v4.563h5.424ZM41.74 20.136H27.752V.5H41.74v3.68h-9.78v4.151h9.573v3.68H31.96v4.445h9.78v3.68ZM68.617 20.136h-4.831l-3.882-6.977H56.82v6.977h-4.208V.5h9.247c2.035 0 3.645.589 4.83 1.766 1.206 1.178 1.808 2.699 1.808 4.564 0 1.609-.425 2.914-1.274 3.915-.83 1.001-1.848 1.639-3.053 1.914l4.446 7.477ZM61.237 9.48c.87 0 1.58-.235 2.134-.706.553-.491.83-1.139.83-1.943 0-.805-.277-1.443-.83-1.914-.553-.49-1.265-.736-2.134-.736h-4.416v5.3h4.416ZM88.041 20.136h-4.238V4.18h-5.779V.5h15.767v3.68h-5.75v15.956Z" fill="#141414"/>
</svg>
