<svg width="191" height="37" fill="none" xmlns="http://www.w3.org/2000/svg"><path d="M14.727 19.812l4.904-2.787 4.842 2.787-4.842 2.727-4.904-2.668v-.059z" fill="#F6BD3A"/><path d="M.017 11.571L19.631.662 34.22 8.785l-4.843 8.24-9.746-5.454-14.71 8.181-4.904-8.18z" fill="#F6BD3A"/><path d="M14.728 30.72v-5.454l4.842-2.727 4.903-2.727v5.454l-4.842 2.728v5.454l-4.903 2.786v-5.513zm0-10.908l-4.904-2.727-4.903 2.667v-5.454l14.71-8.182v10.91l-4.903 2.786zm14.588-5.514v-2.727l4.904-2.786.06 5.454-4.903 2.786-.06-2.727z" fill="#EB8C23"/><path d="M9.824 33.329V17.085l4.843-2.668.06 5.395 4.904 2.668v5.514l-4.903-2.55v10.79L9.824 33.33zm-7.385-15L.017 16.908V11.57l4.904 2.727v5.454L2.439 18.33zm17.192-6.758V6.117l9.685 5.454.06 5.454-9.745-5.454z" fill="#E35A2B"/><path d="M47.028 12.935v20.45h-3.673v-20.45H36.22V9.406h17.943v3.529h-7.135z" fill="#EF6639"/><path d="M66.316 20.369c.315 1.096.322 2.539.298 2.722L54.76 26.533c.094.867.067.515.346 1.132.28.617.63 1.125 1.05 1.524.42.4.885.697 1.399.89a4.51 4.51 0 001.609.293c.769 0 1.475-.126 2.116-.377a7.921 7.921 0 001.871-1.062l2.134 2.26a9.054 9.054 0 01-2.728 1.748c-1.003.41-2.204.616-3.603.616a7.75 7.75 0 01-3.06-.616 7.151 7.151 0 01-2.536-1.816c-.724-.799-1.295-1.781-1.714-2.946-.42-1.165-.63-2.49-.63-3.973 0-1.53.198-2.878.595-4.043.396-1.164.944-2.14 1.644-2.928a6.852 6.852 0 012.535-1.799c.992-.411 2.082-.617 3.27-.617 1.306 0 2.443.24 3.411.72a6.895 6.895 0 012.413 1.952c.642.822 1.12 1.782 1.434 2.878zm-3.444.813c-.047-.617-.482-1.372-.84-1.84a3.07 3.07 0 00-1.312-.977c-.536-.208-1.265-.296-1.906-.268-1.203.05-2.541.458-3.217 1.368-.676.909-.861 2.438-.837 4.088l8.112-2.371zm16.753 11.999V23.006c0-1.827-.332-3.105-.996-3.837-.665-.73-1.592-1.096-2.781-1.096-1.213 0-2.145.4-2.799 1.2-.652.798-.979 1.929-.979 3.391V33.18h-3.602V15.196h3.602v1.713c.467-.663 1.114-1.177 1.941-1.542a6.558 6.558 0 012.676-.548c2.145 0 3.772.674 4.88 2.021 1.107 1.348 1.661 3.357 1.661 6.03v10.31h-3.603zm18.4-4.728c0 1.004-.193 1.844-.578 2.518a4.69 4.69 0 01-1.52 1.627c-.63.41-1.36.708-2.187.89-.828.183-1.697.274-2.606.274a11.38 11.38 0 01-3.76-.65c-1.248-.435-2.337-.983-3.27-1.645l1.643-2.672c.863.594 1.756 1.04 2.677 1.336.92.297 1.813.445 2.675.445 2.239 0 3.358-.662 3.358-1.987 0-.685-.38-1.233-1.137-1.644-.758-.41-1.801-.868-3.13-1.37-.98-.366-1.813-.736-2.501-1.113s-1.248-.782-1.679-1.216a3.84 3.84 0 01-.927-1.456c-.186-.537-.28-1.16-.28-1.867 0-.8.152-1.507.455-2.124a4.165 4.165 0 011.294-1.541c.56-.412 1.224-.72 1.994-.925a9.725 9.725 0 012.518-.309 10.5 10.5 0 013.375.548c1.084.366 2.035.846 2.851 1.439l-1.574 2.707a8.592 8.592 0 00-2.273-1.166 7.974 7.974 0 00-2.484-.376c-.886 0-1.528.154-1.924.462-.396.309-.594.703-.594 1.182 0 .228.046.44.14.634.093.194.268.394.524.6.257.205.6.416 1.032.633.432.217.997.463 1.696.736 1.027.389 1.924.76 2.694 1.114.77.354 1.416.753 1.941 1.199.525.445.915.965 1.172 1.559.256.593.385 1.313.385 2.157zm16.754-4.145c0 1.484-.21 2.814-.629 3.99-.42 1.176-1.003 2.17-1.749 2.98a7.477 7.477 0 01-2.624 1.85c-1.002.423-2.098.634-3.287.634-1.166 0-2.239-.223-3.218-.668a7.51 7.51 0 01-2.554-1.901c-.722-.823-1.288-1.804-1.696-2.946-.408-1.142-.612-2.42-.612-3.837 0-1.461.21-2.774.63-3.939.42-1.165.997-2.152 1.731-2.963a7.339 7.339 0 012.588-1.85c.991-.423 2.07-.634 3.235-.634 1.166 0 2.251.223 3.254.668a7.803 7.803 0 012.605 1.867c.735.8 1.306 1.775 1.714 2.93.408 1.152.612 2.425.612 3.819zm-3.637.102c0-1.85-.414-3.317-1.242-4.402-.828-1.084-1.977-1.627-3.446-1.627-1.375 0-2.454.543-3.235 1.627-.781 1.085-1.172 2.518-1.172 4.3 0 1.986.42 3.5 1.26 4.538.839 1.04 1.947 1.559 3.323 1.559.675 0 1.293-.16 1.854-.479a4.625 4.625 0 001.433-1.285c.397-.537.7-1.17.91-1.901a8.436 8.436 0 00.315-2.33zm15.249-5.275a6.159 6.159 0 00-1.223-.48c-.42-.114-.934-.17-1.539-.17-1.143 0-2.029.387-2.659 1.164-.629.776-.944 1.93-.944 3.46v10.276h-3.603V15.401h3.603v1.713c.419-.594.997-1.09 1.731-1.49.735-.4 1.557-.6 2.466-.6.746 0 1.359.063 1.836.189.478.125.904.314 1.277.565l-.945 3.357z" fill="#EF6639"/><path d="M132.443 12.935v6.269h7.031v3.527h-7.031v10.654h-3.672V9.406h15.775v3.529h-12.103zm12.699 20.45V10.263l3.603-1.85v24.972h-3.603zm22.001-9.077c0 1.484-.21 2.814-.63 3.99-.42 1.176-1.003 2.17-1.749 2.98a7.465 7.465 0 01-2.623 1.85c-1.003.423-2.099.634-3.288.634-1.166 0-2.238-.223-3.218-.668a7.506 7.506 0 01-2.553-1.901c-.723-.823-1.288-1.804-1.696-2.946-.408-1.142-.613-2.42-.613-3.837 0-1.461.21-2.774.63-3.94.42-1.164.997-2.151 1.731-2.962a7.342 7.342 0 012.589-1.85c.991-.423 2.069-.634 3.235-.634s2.25.223 3.253.668a7.807 7.807 0 012.606 1.867c.734.8 1.305 1.775 1.714 2.929.407 1.153.612 2.427.612 3.82zm-3.638.102c0-1.85-.414-3.317-1.241-4.402-.828-1.084-1.977-1.627-3.446-1.627-1.376 0-2.455.543-3.236 1.627-.781 1.085-1.171 2.518-1.171 4.3 0 1.986.419 3.5 1.259 4.538.839 1.04 1.947 1.559 3.323 1.559.676 0 1.294-.16 1.854-.479a4.64 4.64 0 001.434-1.285c.396-.537.699-1.17.909-1.901.21-.731.315-1.507.315-2.33zm21.406 8.975h-3.078l-2.483-9.077c-.191-.7-.371-1.403-.542-2.107a67.881 67.881 0 01-.402-1.73 88.427 88.427 0 01-.945 3.87l-2.448 9.045h-3.078L166.898 15.4h3.568l2.168 8.736c.194.715.368 1.435.524 2.158l.386 1.782.454-1.782c.183-.72.37-1.44.56-2.158l2.448-8.736h2.903l2.484 8.77c.187.713.368 1.426.542 2.141.175.72.32 1.308.437 1.765.116-.457.251-1.057.402-1.799a34.27 34.27 0 01.507-2.14l2.169-8.736h3.568l-5.107 17.984z" fill="#A6A7A9"/></svg>