<svg width="68" height="30" fill="none" xmlns="http://www.w3.org/2000/svg">
  <path d="M14.164 11.968c-1.991 0-3.569-.593-4.732-1.779l1.292-1.812c.962 1.007 2.148 1.51 3.557 1.51.615 0 1.09-.117 1.426-.352.347-.246.52-.543.52-.89 0-.302-.162-.553-.486-.755-.313-.2-.71-.346-1.191-.436-.47-.09-.985-.218-1.544-.386-.56-.167-1.08-.358-1.56-.57a2.929 2.929 0 0 1-1.192-1.007c-.313-.458-.47-1.018-.47-1.678 0-.962.386-1.767 1.158-2.416.772-.66 1.801-.99 3.087-.99 1.779 0 3.233.52 4.363 1.56l-1.326 1.746c-.883-.817-1.968-1.225-3.255-1.225-.503 0-.895.1-1.174.302a.96.96 0 0 0-.42.822c0 .268.157.498.47.688a4.02 4.02 0 0 0 1.191.403c.481.089.996.223 1.544.402.56.168 1.074.364 1.544.587.48.213.878.554 1.191 1.024.324.459.486 1.012.486 1.661 0 1.074-.385 1.94-1.157 2.6-.76.66-1.868.99-3.322.99ZM22.686 11.968c-.75 0-1.32-.19-1.711-.57-.392-.381-.588-.93-.588-1.645V5.525h-1.342V3.662h1.342V1.447h2.148v2.215h1.644v1.863h-1.644v3.657c0 .258.067.47.201.638a.653.653 0 0 0 .537.252c.336 0 .582-.079.739-.235l.453 1.61c-.392.347-.985.52-1.779.52ZM32.634 11.766h-2.13v-.839c-.583.694-1.438 1.04-2.568 1.04a3.043 3.043 0 0 1-1.963-.704c-.57-.481-.856-1.141-.856-1.98 0-.872.28-1.527.84-1.963a3.17 3.17 0 0 1 1.979-.654c1.152 0 2.008.33 2.567.99V6.565a1.18 1.18 0 0 0-.486-.99c-.325-.246-.755-.37-1.292-.37-.884 0-1.673.32-2.366.957l-.806-1.426c.962-.85 2.142-1.275 3.54-1.275 1.041 0 1.891.24 2.551.721.66.481.99 1.264.99 2.35v5.234Zm-3.842-1.241c.794 0 1.364-.235 1.711-.705V8.813c-.347-.47-.917-.704-1.711-.704-.437 0-.8.111-1.09.335-.292.213-.437.51-.437.89 0 .369.145.66.436.872.29.212.654.319 1.09.319ZM36.878 9.166c.18.257.442.475.789.654a2.37 2.37 0 0 0 1.04.252c.615 0 1.113-.213 1.494-.638.38-.436.57-1.007.57-1.711 0-.705-.19-1.276-.57-1.712-.38-.436-.879-.654-1.494-.654-.346 0-.693.09-1.04.268-.347.18-.61.403-.789.671v2.87Zm0 2.6h-2.13V.575h2.13v4.128c.638-.828 1.471-1.242 2.5-1.242 1.052 0 1.913.386 2.584 1.158.671.771 1.007 1.806 1.007 3.104 0 1.32-.336 2.36-1.007 3.12-.67.75-1.532 1.125-2.584 1.125-1.006 0-1.84-.414-2.5-1.242v1.04ZM46.71 11.766h-2.131V.575h2.13v11.191ZM52.631 11.968c-1.253 0-2.287-.392-3.104-1.175-.816-.783-1.225-1.812-1.225-3.087 0-1.197.392-2.204 1.175-3.02.794-.817 1.8-1.225 3.02-1.225 1.208 0 2.187.414 2.936 1.242.75.816 1.124 1.89 1.124 3.221v.47h-6.023c.067.537.308.984.721 1.342.414.358.951.537 1.611.537.358 0 .744-.073 1.158-.218.425-.146.76-.341 1.007-.587l.94 1.376c-.817.749-1.93 1.124-3.34 1.124Zm1.863-5.017c-.034-.459-.218-.873-.554-1.242-.324-.369-.805-.553-1.443-.553-.604 0-1.074.184-1.41.553a2.148 2.148 0 0 0-.587 1.242h3.994ZM5.278 29.476H.866V18.285h4.412c1.757 0 3.183.514 4.279 1.543 1.107 1.03 1.661 2.383 1.661 4.06 0 1.678-.548 3.032-1.644 4.061-1.096 1.018-2.528 1.527-4.296 1.527Zm0-2.097c1.074 0 1.924-.336 2.55-1.007.638-.671.957-1.499.957-2.483 0-1.03-.307-1.868-.923-2.517-.615-.66-1.476-.99-2.584-.99h-2.03v6.997h2.03ZM13.916 20.5c-.347 0-.65-.124-.906-.37a1.268 1.268 0 0 1-.37-.906c0-.346.123-.643.37-.89.257-.245.559-.368.906-.368.358 0 .66.123.906.369s.369.543.369.89c0 .346-.123.648-.37.905-.245.246-.547.37-.905.37Zm1.073 8.976h-2.13v-8.104h2.13v8.104ZM19.72 29.476h-2.148v-6.242H16.23v-1.862h1.342v-.436c0-.862.252-1.544.755-2.047.504-.515 1.163-.772 1.98-.772.94 0 1.644.252 2.114.755l-.805 1.258c-.224-.223-.52-.335-.89-.335a.97.97 0 0 0-.738.302c-.179.19-.268.47-.268.839v.436h1.644v1.862H19.72v6.242Zm5.486 0H23.06v-6.242h-1.343v-1.862h1.343v-.436c0-.862.251-1.544.755-2.047.503-.515 1.163-.772 1.98-.772.94 0 1.644.252 2.114.755l-.806 1.258c-.223-.223-.52-.335-.889-.335a.97.97 0 0 0-.738.302c-.18.19-.269.47-.269.839v.436h1.645v1.862h-1.645v6.242ZM35.698 29.476h-2.131v-1.024c-.727.817-1.678 1.225-2.853 1.225-.872 0-1.526-.224-1.963-.67-.436-.448-.654-1.075-.654-1.88v-5.755h2.13v4.916c0 .995.498 1.493 1.494 1.493.75 0 1.365-.307 1.846-.923v-5.486h2.13v8.104ZM40.733 29.677a6.184 6.184 0 0 1-2.03-.335c-.638-.224-1.17-.532-1.594-.923l.922-1.493c.314.29.739.548 1.276.771.537.224 1.045.336 1.526.336.448 0 .784-.078 1.007-.235a.73.73 0 0 0 .353-.637c0-.202-.123-.364-.37-.487a2.601 2.601 0 0 0-.889-.285c-.347-.056-.732-.14-1.157-.252a8.275 8.275 0 0 1-1.158-.403 2.241 2.241 0 0 1-.89-.738c-.234-.347-.352-.772-.352-1.275 0-.716.296-1.32.89-1.812.592-.492 1.403-.738 2.432-.738 1.253 0 2.344.369 3.272 1.107l-.856 1.46c-.257-.269-.604-.492-1.04-.671a3.465 3.465 0 0 0-1.359-.269c-.38 0-.688.078-.923.235-.235.145-.352.335-.352.57 0 .18.117.33.352.453.235.112.532.196.89.252.357.056.743.145 1.157.269.414.111.8.251 1.158.419.358.157.654.414.89.772.234.358.352.794.352 1.309 0 .76-.314 1.387-.94 1.879-.615.48-1.471.721-2.567.721ZM46.866 20.5c-.346 0-.648-.124-.906-.37a1.268 1.268 0 0 1-.369-.906c0-.346.123-.643.37-.89.257-.245.559-.368.905-.368.358 0 .66.123.907.369.246.246.369.543.369.89 0 .346-.123.648-.37.905-.246.246-.548.37-.906.37Zm1.074 8.976h-2.13v-8.104h2.13v8.104ZM56.932 28.452c-.783.817-1.823 1.225-3.12 1.225-1.298 0-2.338-.408-3.121-1.225-.772-.827-1.158-1.84-1.158-3.037 0-1.196.386-2.203 1.158-3.02.783-.816 1.823-1.224 3.12-1.224 1.298 0 2.338.408 3.121 1.224.783.817 1.175 1.824 1.175 3.02 0 1.197-.392 2.21-1.175 3.037Zm-4.63-1.342c.369.448.872.671 1.51.671.637 0 1.14-.223 1.51-.67.38-.46.57-1.024.57-1.695 0-.66-.19-1.214-.57-1.662-.37-.458-.873-.688-1.51-.688-.638 0-1.141.23-1.51.688-.37.448-.554 1.002-.554 1.662 0 .67.184 1.235.553 1.694ZM67.288 29.476h-2.13v-4.9c0-1.006-.498-1.51-1.494-1.51-.772 0-1.387.32-1.845.957v5.453h-2.131v-8.104h2.13v1.057c.705-.839 1.65-1.258 2.836-1.258.873 0 1.527.229 1.963.687.448.46.671 1.091.671 1.896v5.722Z" fill="#141414"/>
</svg>
