<svg width="81" height="80" fill="none" xmlns="http://www.w3.org/2000/svg">
  <path d="M23.164 72.331h-2.416l-1.356-5.258a25.18 25.18 0 0 1-.257-1.163c-.122-.59-.191-.983-.21-1.182a15.39 15.39 0 0 1-.205 1.189c-.11.546-.194.934-.253 1.163l-1.348 5.251h-2.41l-2.555-10.01h2.089l1.28 5.462c.224 1.008.386 1.881.486 2.618.027-.26.09-.663.188-1.209.097-.546.19-.967.277-1.264l1.455-5.607h2.01l1.455 5.607c.064.252.144.635.24 1.15.096.517.17.957.222 1.323.046-.356.119-.8.22-1.332.1-.533.192-.961.273-1.286l1.274-5.463h2.088L23.164 72.33Zm10.708 0h-2.081V67.86c0-1.105-.411-1.657-1.232-1.657a1.401 1.401 0 0 0-1.267.597 3.637 3.637 0 0 0-.39 1.93v3.601h-2.095V61.674h2.09v2.17c0 .169-.017.566-.049 1.191l-.048.617h.11a2.418 2.418 0 0 1 2.217-1.123 2.712 2.712 0 0 1 2.047.727c.498.575.749 1.323.698 2.082v4.993Zm2.061-9.639c0-.679.379-1.018 1.136-1.018.758 0 1.136.34 1.136 1.018a.996.996 0 0 1-.29.756 1.195 1.195 0 0 1-.853.27c-.752.005-1.129-.338-1.129-1.026Zm2.182 9.634h-2.092v-7.65h2.09l.002 7.65Zm7.532-2.274a2.108 2.108 0 0 1-.822 1.804 4.042 4.042 0 0 1-2.448.616 7.69 7.69 0 0 1-1.423-.117 5.379 5.379 0 0 1-1.102-.332v-1.725c.42.194.859.347 1.309.458.419.114.85.176 1.284.185.758 0 1.136-.22 1.136-.658a.549.549 0 0 0-.145-.4 2.183 2.183 0 0 0-.521-.349c-.246-.13-.575-.282-.986-.455a6.189 6.189 0 0 1-1.298-.685 1.927 1.927 0 0 1-.602-.727 2.384 2.384 0 0 1-.187-1.004 1.818 1.818 0 0 1 .79-1.578 3.852 3.852 0 0 1 2.244-.559c.93.002 1.849.207 2.69.602l-.63 1.507a13.022 13.022 0 0 0-1.074-.404 3.378 3.378 0 0 0-1.018-.157c-.616 0-.924.167-.924.5a.582.582 0 0 0 .291.486c.417.242.855.446 1.31.61.461.171.901.399 1.308.677.261.19.473.439.617.728.14.308.206.644.196.983l.005-.006Zm5.83 2.416a2.538 2.538 0 0 1-2.117-.979h-.115c.073.64.11 1.01.11 1.11V75.7h-2.082V64.676h1.697l.291.993h.096a2.417 2.417 0 0 1 2.17-1.135 2.484 2.484 0 0 1 2.123 1.047c.557.864.826 1.882.766 2.909a5.745 5.745 0 0 1-.36 2.13 2.986 2.986 0 0 1-1.017 1.375 2.618 2.618 0 0 1-1.563.473Zm-.617-6.265a1.32 1.32 0 0 0-1.13.476 2.732 2.732 0 0 0-.37 1.57v.226a3.225 3.225 0 0 0 .367 1.766 1.309 1.309 0 0 0 1.163.534c.936 0 1.404-.772 1.404-2.314a3.304 3.304 0 0 0-.35-1.696 1.18 1.18 0 0 0-1.084-.562Zm8.455-.184a1.325 1.325 0 0 0-1.041.42 1.949 1.949 0 0 0-.437 1.194h2.931a1.746 1.746 0 0 0-.404-1.194 1.367 1.367 0 0 0-1.049-.42Zm.29 6.449a3.951 3.951 0 0 1-2.888-1.018 3.865 3.865 0 0 1-1.041-2.889 4.249 4.249 0 0 1 .961-2.974 3.426 3.426 0 0 1 2.66-1.052 3.371 3.371 0 0 1 2.532.92 3.49 3.49 0 0 1 .903 2.555v1.018h-4.935a2.01 2.01 0 0 0 .526 1.39 1.854 1.854 0 0 0 1.383.5c.44.003.88-.046 1.31-.145a6.549 6.549 0 0 0 1.287-.458v1.612c-.37.184-.76.32-1.164.407a7.383 7.383 0 0 1-1.529.134h-.004Zm9.093-7.936c.237-.004.473.016.706.061l-.157 1.958a2.395 2.395 0 0 0-.617-.068 2.214 2.214 0 0 0-1.558.513 1.857 1.857 0 0 0-.558 1.439v3.896H64.43v-7.655h1.58l.31 1.287h.102c.23-.42.56-.776.962-1.037.39-.258.85-.396 1.318-.394h-.005ZM62.66 25.203c.58-1.708.779-3.527.58-5.333a12.658 12.658 0 0 0-1.7-5.097c-2.818-4.833-8.47-7.32-14.007-6.153a12.981 12.981 0 0 0-5.666-3.625 13.382 13.382 0 0 0-6.742-.36c-2.237.471-4.32 1.5-6.02 3.013a12.864 12.864 0 0 0-3.682 5.583 12.814 12.814 0 0 0-4.971 2.167 12.628 12.628 0 0 0-3.626 3.986c-2.847 4.82-2.196 10.916 1.6 15.055a12.554 12.554 0 0 0-.595 5.32 12.636 12.636 0 0 0 1.686 5.097c2.818 4.833 8.484 7.319 14.008 6.152a12.928 12.928 0 0 0 4.377 3.167 12.944 12.944 0 0 0 5.31 1.097c5.666 0 10.68-3.597 12.423-8.916a12.814 12.814 0 0 0 4.971-2.167 12.627 12.627 0 0 0 3.626-3.986 12.676 12.676 0 0 0-1.615-15h.043Zm-19.405 26.75a9.735 9.735 0 0 1-6.19-2.209l.312-.166L47.66 43.73c.255-.153.468-.361.624-.611.141-.25.226-.542.226-.834V27.995l4.349 2.472s.042.028.056.042a.105.105 0 0 1 .029.07v11.846c0 5.264-4.335 9.528-9.674 9.528h-.015Zm-20.778-8.75a9.339 9.339 0 0 1-1.147-6.389l.311.18 10.283 5.848c.255.153.539.222.836.222.297 0 .58-.083.836-.222l12.563-7.139v4.944s0 .056-.014.07c0 .028-.029.041-.057.055l-10.41 5.917c-4.632 2.625-10.538 1.07-13.215-3.486h.014ZM19.772 21.12a9.596 9.596 0 0 1 5.085-4.18v12.04c0 .293.07.584.212.834s.354.459.623.611L38.2 37.536l-4.348 2.472s-.057.014-.071.014c-.014 0-.057 0-.071-.014l-10.396-5.916c-4.618-2.639-6.204-8.458-3.541-13.028v.056Zm35.707 8.18-12.55-7.18 4.335-2.472s.056-.014.07-.014c.015 0 .057 0 .071.014l10.397 5.916a9.634 9.634 0 0 1 3.739 3.834 9.387 9.387 0 0 1 1.062 5.208 9.524 9.524 0 0 1-1.926 4.972 9.653 9.653 0 0 1-4.334 3.18V30.717a1.675 1.675 0 0 0-.864-1.417Zm4.32-6.416-.312-.18L49.218 16.8a1.652 1.652 0 0 0-.85-.223 1.8 1.8 0 0 0-.85.223l-12.563 7.138v-5.014c0-.027.029-.041.043-.055l10.396-5.917a9.752 9.752 0 0 1 5.255-1.263 9.72 9.72 0 0 1 5.113 1.708 9.618 9.618 0 0 1 3.4 4.153 9.411 9.411 0 0 1 .608 5.291v.042h.029ZM32.604 31.66l-4.348-2.472s-.043-.027-.057-.055c0-.014-.028-.042-.028-.07V17.245c0-1.806.524-3.583 1.515-5.11a9.603 9.603 0 0 1 4.066-3.515 9.802 9.802 0 0 1 5.34-.82 9.843 9.843 0 0 1 4.957 2.126l-.312.166-10.283 5.848a1.856 1.856 0 0 0-.623.61c-.142.25-.227.542-.227.834V31.66Zm2.366-5.013 5.594-3.18 5.61 3.18v6.36l-5.581 3.181-5.61-3.18v-6.361h-.013Z" fill="#141414"/>
</svg>
