<svg width="246" height="37" fill="none" xmlns="http://www.w3.org/2000/svg"><path d="M15.544 19.886l4.881-2.832 4.82 2.832-4.82 2.771-4.88-2.711v-.06z" fill="#F6BD3A"/><path d="M.902 11.51L20.425.423l14.522 8.255-4.82 8.376-9.702-5.544-14.642 8.316-4.88-8.316z" fill="#F6BD3A"/><path d="M15.545 30.973v-5.544l4.82-2.771 4.88-2.772v5.543l-4.82 2.772v5.544l-4.88 2.832v-5.604zm0-11.087l-4.881-2.772-4.88 2.712v-5.544l14.641-8.315v11.087l-4.88 2.832zm14.521-5.604V11.51l4.88-2.832.061 5.544-4.88 2.832-.06-2.772z" fill="#EB8C23"/><path d="M10.664 33.624v-16.51l4.82-2.711.06 5.483 4.881 2.711v5.604l-4.88-2.59v10.966l-4.881-2.953zM3.313 18.38l-2.41-1.447V11.51l4.88 2.772v5.544l-2.47-1.447zm17.112-6.87V5.967l9.641 5.543.06 5.544-9.7-5.544z" fill="#E35A2B"/><path d="M47.697 12.896v20.785H44.04V12.896h-7.102V9.31h17.86v3.586h-7.102z" fill="#19192B"/><path d="M66.896 20.452c.313 1.114.32 2.58.297 2.766l-11.8 3.498c.093.883.066.525.345 1.152.278.626.626 1.143 1.044 1.549a4.11 4.11 0 001.393.905c.51.197 1.054.298 1.601.296.766 0 1.468-.128 2.107-.383a7.826 7.826 0 001.862-1.08l2.124 2.299a8.995 8.995 0 01-2.716 1.775c-.998.418-2.193.627-3.586.627a7.575 7.575 0 01-3.046-.627 7.135 7.135 0 01-2.524-1.845c-.72-.813-1.288-1.81-1.706-2.994-.418-1.184-.627-2.53-.627-4.039 0-1.555.197-2.924.592-4.108.395-1.184.94-2.176 1.636-2.977a6.83 6.83 0 012.525-1.828c.986-.418 2.071-.626 3.255-.626 1.3 0 2.431.243 3.394.73a6.896 6.896 0 012.403 1.985c.638.836 1.114 1.81 1.427 2.925zm-3.429.826c-.046-.627-.479-1.394-.836-1.87a3.06 3.06 0 00-1.305-.993c-.534-.21-1.26-.3-1.898-.273-1.197.053-2.53.467-3.202 1.391-.672.924-.857 2.479-.833 4.155l8.074-2.41zm16.677 12.195v-10.34c0-1.857-.331-3.157-.993-3.9-.661-.742-1.584-1.114-2.768-1.114-1.207 0-2.135.406-2.785 1.218-.65.813-.975 1.962-.975 3.448v10.688h-3.586V15.195h3.586v1.74c.465-.673 1.109-1.195 1.932-1.566a6.406 6.406 0 012.664-.557c2.135 0 3.754.684 4.857 2.054 1.102 1.37 1.654 3.412 1.654 6.127v10.48h-3.587zm18.314-4.805c0 1.021-.192 1.874-.575 2.559a4.726 4.726 0 01-1.514 1.654c-.627.417-1.352.719-2.176.905-.824.185-1.689.278-2.594.278-1.253 0-2.5-.22-3.743-.661-1.241-.441-2.326-.998-3.255-1.672l1.636-2.715a10.142 10.142 0 002.664 1.358c.917.301 1.805.452 2.663.452 2.229 0 3.343-.673 3.343-2.02 0-.695-.377-1.252-1.132-1.67-.754-.418-1.793-.882-3.116-1.393-.975-.371-1.804-.748-2.49-1.131-.684-.383-1.241-.795-1.67-1.236a3.92 3.92 0 01-.923-1.48c-.186-.546-.278-1.178-.278-1.897 0-.813.15-1.532.452-2.159a4.217 4.217 0 011.288-1.567c.557-.418 1.219-.73 1.985-.94a9.499 9.499 0 012.507-.313c1.16 0 2.28.186 3.36.557 1.078.371 2.024.859 2.837 1.462l-1.567 2.75a8.485 8.485 0 00-2.263-1.183 7.78 7.78 0 00-2.472-.383c-.882 0-1.52.157-1.915.47-.395.313-.592.714-.592 1.201 0 .232.047.447.14.644.092.197.266.4.522.61.255.209.598.423 1.027.644.43.22.992.47 1.688.748 1.022.395 1.915.772 2.681 1.132.766.36 1.41.766 1.933 1.218.522.453.91.98 1.166 1.584.255.604.383 1.335.383 2.194zm16.677-4.213c0 1.509-.209 2.86-.627 4.056-.417 1.195-.998 2.205-1.74 3.029a7.44 7.44 0 01-2.611 1.88c-.998.43-2.089.644-3.273.644-1.161 0-2.228-.226-3.203-.679a7.484 7.484 0 01-2.542-1.932c-.719-.836-1.282-1.834-1.688-2.994-.406-1.16-.61-2.46-.61-3.9 0-1.485.21-2.82.627-4.003.418-1.184.992-2.188 1.724-3.012a7.305 7.305 0 012.576-1.88c.986-.43 2.06-.644 3.22-.644a7.746 7.746 0 015.832 2.576c.731.813 1.3 1.805 1.706 2.977.406 1.172.609 2.466.609 3.882zm-3.621.105c0-1.88-.412-3.372-1.235-4.474-.825-1.103-1.968-1.654-3.43-1.654-1.369 0-2.443.551-3.22 1.654-.778 1.102-1.167 2.559-1.167 4.37 0 2.018.418 3.556 1.254 4.612.835 1.056 1.938 1.584 3.307 1.584.673 0 1.288-.162 1.845-.487a4.637 4.637 0 001.428-1.306c.394-.545.696-1.19.905-1.932a8.704 8.704 0 00.313-2.367zm15.18-5.362a6.064 6.064 0 00-1.218-.488c-.418-.116-.929-.174-1.532-.174-1.138 0-2.02.395-2.646 1.184-.627.79-.94 1.961-.94 3.516v10.445h-3.587V15.403h3.587v1.74c.417-.603.992-1.108 1.723-1.514.731-.406 1.549-.61 2.454-.61.743 0 1.353.065 1.828.192.476.128.9.32 1.271.575l-.94 3.412zM132.717 12.896v6.371h6.998v3.586h-6.998v10.828h-3.655V9.31h15.701v3.586h-12.046zm12.641 20.785v-23.5l3.586-1.88v25.38h-3.586zm21.898-9.226c0 1.509-.209 2.86-.626 4.056-.418 1.195-.998 2.205-1.741 3.029a7.441 7.441 0 01-2.611 1.88c-.998.43-2.089.644-3.273.644-1.161 0-2.228-.226-3.203-.679a7.486 7.486 0 01-2.542-1.932c-.719-.836-1.282-1.834-1.688-2.994-.406-1.16-.61-2.46-.61-3.9 0-1.485.209-2.82.627-4.004.418-1.183.992-2.187 1.724-3.011a7.312 7.312 0 012.576-1.88c.986-.43 2.06-.644 3.22-.644a7.746 7.746 0 015.832 2.576c.731.813 1.3 1.805 1.706 2.977.406 1.172.609 2.466.609 3.882zm-3.621.104c0-1.88-.412-3.371-1.236-4.474-.824-1.102-1.967-1.653-3.429-1.653-1.369 0-2.443.55-3.22 1.653-.778 1.103-1.167 2.56-1.167 4.37 0 2.02.418 3.557 1.254 4.613.835 1.056 1.938 1.584 3.307 1.584.673 0 1.289-.162 1.846-.487a4.633 4.633 0 001.427-1.306c.394-.545.696-1.19.905-1.932a8.703 8.703 0 00.313-2.368zm21.308 9.122h-3.064l-2.472-9.226a82.819 82.819 0 01-.539-2.141 69.204 69.204 0 01-.401-1.759 89.61 89.61 0 01-.94 3.935l-2.437 9.191h-3.064l-5.013-18.278h3.551l2.158 8.878c.193.726.367 1.457.522 2.193l.384 1.81.452-1.81c.183-.732.369-1.463.557-2.193l2.437-8.878h2.89l2.472 8.913c.187.723.366 1.449.539 2.175.175.732.32 1.33.436 1.794.116-.465.249-1.074.4-1.828.145-.73.314-1.456.505-2.176l2.159-8.878h3.551l-5.083 18.278z" fill="#19192B"/><path d="M207.503 33.624v-1.909h-11.854V9.145h-2.092v24.479h13.946zM212.932 13.108c.807 0 1.468-.66 1.468-1.468 0-.807-.661-1.431-1.468-1.431-.771 0-1.468.624-1.468 1.431 0 .808.697 1.468 1.468 1.468zm.954 20.516V15.897h-1.909v17.727h1.909zM223.68 34.064c1.468 0 2.312-.44 3.01-1.1l-.734-1.469c-.404.44-1.138.844-1.982.844-1.248 0-1.835-.99-1.835-2.422V17.586h3.596v-1.688h-3.596v-4.845h-1.945v4.845h-2.936v1.688h2.936V30.21c0 2.422 1.137 3.853 3.486 3.853zM237.788 34.064c2.936 0 5.174-1.027 6.936-2.862l-.991-1.248c-1.505 1.615-3.56 2.459-5.799 2.459-4.183 0-6.753-3.193-6.936-7.047h14.827v-.514c0-5.1-2.973-9.395-8.368-9.395-4.918 0-8.551 4.147-8.551 9.285 0 5.469 3.707 9.322 8.882 9.322zm6.092-10.203h-12.882c.147-3.082 2.239-6.752 6.423-6.752 4.44 0 6.422 3.743 6.459 6.752z" fill="#F16529"/></svg>