<svg xmlns="http://www.w3.org/2000/svg" xmlns:xlink="http://www.w3.org/1999/xlink" width="556" height="512" viewBox="0 0 556 511.66"><defs><linearGradient id="a" x1="418.79" x2="115.74" y1="182.99" y2="182.99" gradientTransform="matrix(1 0 0 -1 0 511.89)" gradientUnits="userSpaceOnUse"><stop offset="0" stop-color="#97c4ed"/><stop offset="1" stop-color="#d0e9fe"/></linearGradient><linearGradient id="b" x1="1150660" x2="1213440" y1="224.64" y2="224.64" xlink:href="#a"/><linearGradient id="c" x1="1150540" x2="1213310" y1="266.35" y2="266.35" xlink:href="#a"/><linearGradient id="d" x1="1150380" x2="1213150" y1="308.08" y2="308.08" xlink:href="#a"/></defs><title>machine-learning-cube-people</title><path fill="none" stroke="#70b1e0" stroke-miterlimit="10" stroke-width=".93" d="M408.59 374.07L486 418.64h20.22l13.93-8.06"/><path fill="none" stroke="#70b1e0" stroke-miterlimit="10" stroke-width=".93" d="M528 412.22c5.93 0 10.71-2.84 10.7-6.26s-4.82-6.14-10.7-6.14-10.7 2.83-10.69 6.25 4.84 6.17 10.76 6.14z"/><path fill="#5d82b0" d="M528 409.16c3 0 5.44-1.44 5.43-3.17s-2.43-3.17-5.43-3.12-5.43 1.44-5.43 3.18 2.46 3.13 5.47 3.11z"/><path fill="none" stroke="#70b1e0" stroke-miterlimit="10" stroke-width=".93" d="M537.18 457.61c5.92 0 10.7-2.83 10.69-6.25s-4.84-6.17-10.76-6.14-10.7 2.83-10.7 6.25 4.84 6.17 10.77 6.14z"/><path fill="#5d82b0" d="M537.16 454.56c3 0 5.44-1.44 5.43-3.18s-2.46-3.13-5.46-3.11-5.44 1.44-5.43 3.17 2.45 3.14 5.46 3.12z"/><path fill="none" stroke="#70b1e0" stroke-miterlimit="10" stroke-width=".5" d="M430.1 508.72c3.19 0 5.76-1.52 5.75-3.35s-2.6-3.32-5.78-3.3-5.76 1.52-5.75 3.36 2.6 3.3 5.78 3.3z"/><path fill="#5d82b0" d="M430.1 507.08c1.61 0 2.92-.77 2.91-1.7s-1.32-1.68-2.93-1.67-2.93.77-2.92 1.7 1.32 1.68 2.93 1.67z"/><path fill="none" stroke="#70b1e0" stroke-miterlimit="10" stroke-width=".93" d="M466.77 475.69c5.92 0 10.7-2.84 10.69-6.26s-4.84-6.17-10.76-6.14-10.7 2.84-10.7 6.26 4.84 6.17 10.77 6.13z"/><path fill="#5d82b0" d="M466.75 472.64c3 0 5.44-1.44 5.43-3.18s-2.46-3.14-5.46-3.12-5.44 1.44-5.43 3.18 2.45 3.13 5.46 3.12z"/><path fill="none" stroke="#70b1e0" stroke-miterlimit="10" stroke-width=".93" d="M340.86 501.56c5.92 0 10.7-2.83 10.69-6.25s-4.84-6.17-10.76-6.14-10.71 2.83-10.7 6.25 4.84 6.17 10.77 6.14z"/><path fill="#5d82b0" d="M340.84 498.52c3 0 5.44-1.45 5.43-3.19s-2.46-3.13-5.46-3.12-5.44 1.44-5.43 3.18 2.45 3.14 5.46 3.12z"/><path fill="none" stroke="#70b1e0" stroke-miterlimit="10" stroke-width=".66" d="M500.19 454.59c4.22 0 7.63-2 7.61-4.45s-3.44-4.4-7.66-4.37-7.63 2-7.61 4.45 3.47 4.4 7.66 4.37z"/><path fill="#5d82b0" d="M500.18 452.42c2.14 0 3.87-1 3.86-2.26s-1.75-2.23-3.89-2.22-3.87 1-3.86 2.26 1.71 2.23 3.89 2.22z"/><path fill="none" stroke="#70b1e0" stroke-miterlimit="10" stroke-width=".45" d="M423.06 488.53c2.88 0 5.2-1.37 5.2-3s-2.36-3-5.23-3-5.2 1.37-5.2 3 2.35 3.02 5.23 3z"/><path fill="#5d82b0" d="M423.05 487.05c1.46 0 2.65-.7 2.64-1.54s-1.2-1.51-2.66-1.5-2.64.7-2.64 1.53 1.2 1.52 2.66 1.51z"/><path fill="none" stroke="#70b1e0" stroke-miterlimit="10" stroke-width=".45" d="M376.84 491.46c2.88 0 5.2-1.37 5.2-3s-2.36-3-5.23-3-5.2 1.37-5.2 3 2.39 3.02 5.23 3z"/><path fill="#5d82b0" d="M376.83 489.98c1.46 0 2.65-.7 2.64-1.53s-1.2-1.52-2.66-1.51-2.64.7-2.63 1.53 1.19 1.52 2.65 1.51z"/><path fill="none" stroke="#70b1e0" stroke-miterlimit="10" stroke-width=".93" d="M391.1 384.17l94.52 54.65 29.63-.05 14.34 8.29m-156.06-52.7l96.55 55.79h22.58m-137.54-45.18l104.08 60.16M338 414.89l85 49.1-.1 18.56m-101-58.35l76.85 44.41-.1 18.57L426 503.05m-120.26-69.53l46.43 26.83-.09 13.8 21.08 12.18m-86.4-41.84l54 31.27-.07 13.39M123.21 369.7l-42.08 24.31h-20.2l-14-8.06"/><path fill="none" stroke="#70b1e0" stroke-miterlimit="10" stroke-width=".93" d="M49.85 381.43c0-3.42-4.77-6.22-10.69-6.25s-10.74 2.71-10.76 6.14 4.77 6.22 10.7 6.25 10.73-2.75 10.75-6.14z"/><path fill="#5d82b0" d="M44.57 381.4c0-1.74-2.42-3.16-5.43-3.18s-5.45 1.39-5.46 3.12 2.42 3.17 5.43 3.18 5.45-1.38 5.46-3.12z"/><path fill="none" stroke="#70b1e0" stroke-miterlimit="10" stroke-width=".93" d="M263.08 450.54l-27.77 16 .07 11.68 13.93 8.06"/><path fill="none" stroke="#70b1e0" stroke-miterlimit="10" stroke-width=".93" d="M267.9 490.92c0-3.43-4.77-6.23-10.7-6.26s-10.73 2.72-10.75 6.14 4.77 6.22 10.69 6.25 10.74-2.72 10.76-6.14z"/><path fill="#5d82b0" d="M262.62 490.88c0-1.74-2.42-3.16-5.43-3.17s-5.45 1.38-5.46 3.12 2.42 3.16 5.43 3.17 5.45-1.38 5.46-3.12z"/><path fill="none" stroke="#70b1e0" stroke-miterlimit="10" stroke-width=".93" d="M42.17 418.57c0-3.42-4.77-6.22-10.69-6.25s-10.74 2.71-10.76 6.14 4.77 6.22 10.7 6.25 10.73-2.72 10.75-6.14z"/><path fill="#5d82b0" d="M36.89 418.54c0-1.74-2.42-3.16-5.43-3.18S26 416.74 26 418.49s2.42 3.16 5.43 3.17 5.45-1.38 5.46-3.12z"/><path fill="none" stroke="#70b1e0" stroke-miterlimit="10" stroke-width=".93" d="M98.75 470.82c0-3.42-4.77-6.22-10.7-6.26s-10.73 2.72-10.75 6.14 4.77 6.22 10.7 6.26 10.73-2.7 10.75-6.14z"/><path fill="#5d82b0" d="M93.47 470.82c0-1.74-2.42-3.16-5.43-3.18s-5.45 1.38-5.46 3.12 2.42 3.15 5.42 3.17 5.46-1.38 5.47-3.11z"/><path fill="none" stroke="#70b1e0" stroke-miterlimit="10" stroke-width=".66" d="M105.5 501.47c0-2.44-3.4-4.43-7.61-4.45s-7.65 1.93-7.66 4.37 3.4 4.42 7.61 4.44 7.65-1.93 7.66-4.36z"/><path fill="#5d82b0" d="M101.74 501.45c0-1.24-1.72-2.25-3.86-2.26s-3.88 1-3.9 2.21 1.73 2.26 3.87 2.27 3.89-1 3.9-2.22z"/><path fill="none" stroke="#70b1e0" stroke-miterlimit="10" stroke-width=".66" d="M215.57 492.59c0-2.44-3.4-4.43-7.61-4.45s-7.65 1.93-7.66 4.37 3.4 4.42 7.61 4.45 7.65-1.94 7.66-4.37z"/><path fill="#5d82b0" d="M209.5 494.62c3.11-.83 3.1-3.3 0-4.14a6.1 6.1 0 0 0-3.06 0c-3.13.83-3.12 3.3 0 4.13a5.78 5.78 0 0 0 3.06.01z"/><path fill="none" stroke="#70b1e0" stroke-miterlimit="10" stroke-width=".66" d="M175.13 506.96c0-2.43-3.4-4.43-7.61-4.45s-7.65 1.93-7.66 4.37 3.4 4.43 7.61 4.45 7.65-1.93 7.66-4.37z"/><path fill="#5d82b0" d="M169 508.99c3.13-.83 3.12-3.3 0-4.13a5.88 5.88 0 0 0-3.06 0c-3.12.85-3.1 3.3 0 4.15a5.88 5.88 0 0 0 3.06-.02z"/><path fill="none" stroke="#70b1e0" stroke-miterlimit="10" stroke-width=".45" d="M23.65 448.25c0-1.66-2.32-3-5.2-3s-5.2 1.32-5.22 3 2.32 3 5.2 3 5.21-1.35 5.22-3z"/><path fill="#5d82b0" d="M21.09 448.23c0-.84-1.18-1.53-2.64-1.54s-2.65.67-2.66 1.51 1.18 1.53 2.64 1.54 2.65-.67 2.66-1.5z"/><path fill="none" stroke="#70b1e0" stroke-miterlimit="10" stroke-width=".45" d="M35.77 464.17c0-1.66-2.31-3-5.2-3s-5.2 1.32-5.22 3 2.32 3 5.2 3 5.21-1.35 5.22-3z"/><path fill="#5d82b0" d="M33.21 464.15c0-.84-1.18-1.53-2.64-1.54s-2.65.67-2.66 1.51 1.18 1.53 2.64 1.54 2.66-.67 2.66-1.5z"/><path fill="none" stroke="#70b1e0" stroke-miterlimit="10" stroke-width=".93" d="M140.7 379.82l-66 38.12-32.7-.07m116.18-27.95l-84.95 49.07-38.71-.05-12.4 7.16m12.12 15.92l18.11-10.46 34 .06 89.3-51.6m17.48 10.1l-97.56 56.3m115.07-46.19l-66 38.13.1 16.08-41.34 23.79m124.72-67.89L168 465.1l.13 37.39m77.58-62l-37.84 21.87.13 25.65"/><path fill="#e2f1fe" d="M117.92 328.7a8.2 8.2 0 0 1 1.68-1.3l134.33-77.58a14.77 14.77 0 0 1 14.8 0l142.5 82.3h7.54v35.1a6.15 6.15 0 0 1-3.1 5.42L281.6 450.1a20 20 0 0 1-20 0l-141.93-82a7.7 7.7 0 0 1-3.89-6.7v-35.28l2.17 2.6z"/><path fill="url(#a)" d="M119.6 319.63L253.93 242a14.77 14.77 0 0 1 14.8 0l147 84.9a6.2 6.2 0 0 1 2.28 8.47 6.21 6.21 0 0 1-2.27 2.28l-134 77.44a20 20 0 0 1-20.05 0l-141.92-82a7.78 7.78 0 0 1-.06-13.46z" transform="translate(0 -.18)"/><path fill="#1c8ebc" d="M119.6 362.08l141.93 82a20 20 0 0 0 20 0l134.06-77.46a6.15 6.15 0 0 0 3.1-5.42v2.69a6.13 6.13 0 0 1-3.1 5.41l-134.02 77.52a20 20 0 0 1-20.05 0l-141.92-82a7.69 7.69 0 0 1-3.9-6.7v-2.68a7.71 7.71 0 0 0 3.9 6.64z" opacity=".2" style="isolation:isolate"/><path fill="#1c8ebc" d="M119.6 336.7l141.93 82a20 20 0 0 0 20 0l134.06-77.45a6.16 6.16 0 0 0 3.1-5.43v2.68a6.18 6.18 0 0 1-3.1 5.43l-134.02 77.46a20 20 0 0 1-20.05 0l-141.92-82a7.66 7.66 0 0 1-3.9-6.7v-2.68a7.71 7.71 0 0 0 3.9 6.71z" opacity=".2" style="isolation:isolate"/><path fill="#e2f1fe" d="M117.92 287.02a8 8 0 0 1 1.68-1.32l134.33-77.63a14.77 14.77 0 0 1 14.8 0l142.5 82.32h7.54v35.15a6.16 6.16 0 0 1-3.1 5.43l-134.06 77.5a20 20 0 0 1-20 0l-141.93-82a7.68 7.68 0 0 1-3.89-6.7v-35.35l2.17 2.6z"/><path fill="url(#b)" d="M119.6 277.93l134.33-77.63a14.77 14.77 0 0 1 14.8 0l147 84.9a6.22 6.22 0 0 1 0 10.77L281.61 373.5a20 20 0 0 1-20 0l-141.93-82a7.78 7.78 0 0 1 0-13.55z" transform="translate(0 -.18)"/><path fill="#1c8ebc" d="M119.6 320.38l141.93 82a20 20 0 0 0 20 0l134.1-77.43a6.16 6.16 0 0 0 3.1-5.43v2.68a6.15 6.15 0 0 1-3.1 5.42L281.6 405.1a20 20 0 0 1-20 0l-141.93-82a7.68 7.68 0 0 1-3.89-6.7v-2.68a7.68 7.68 0 0 0 3.85 6.68z" opacity=".2" style="isolation:isolate"/><path fill="#1c8ebc" d="M119.6 294.92l141.92 82a20.06 20.06 0 0 0 20.05 0l134.06-77.45a6.14 6.14 0 0 0 3.1-5.44v2.68a6.14 6.14 0 0 1-3.1 5.44l-134 77.44a20 20 0 0 1-20 0l-141.93-82a7.7 7.7 0 0 1-3.89-6.7v-2.67a7.71 7.71 0 0 0 3.85 6.7z" opacity=".2" style="isolation:isolate"/><path fill="#e2f1fe" d="M117.92 245.32a7.56 7.56 0 0 1 1.68-1.3l134.33-77.63a14.77 14.77 0 0 1 14.8 0l142.5 82.3h7.54v35.13a6.16 6.16 0 0 1-3.1 5.43L281.6 366.73a20 20 0 0 1-20 0l-141.93-82a7.7 7.7 0 0 1-3.89-6.7v-35.32l2.17 2.6z"/><path fill="url(#c)" d="M119.6 236.23l134.33-77.63a14.77 14.77 0 0 1 14.8 0l147 85a6.22 6.22 0 0 1 0 10.77l-134 77.45a20.06 20.06 0 0 1-20.05 0l-141.92-82a7.81 7.81 0 0 1-2.92-10.64 7.9 7.9 0 0 1 2.86-2.88z" transform="translate(0 -.18)"/><path fill="#1c8ebc" d="M119.6 278.7l141.93 82a20 20 0 0 0 20 0l134.06-77.45a6.14 6.14 0 0 0 3.1-5.44v2.69a6.18 6.18 0 0 1-3.1 5.43L281.57 363.4a20.06 20.06 0 0 1-20.05 0l-141.92-82a7.66 7.66 0 0 1-3.9-6.7v-2.68a7.71 7.71 0 0 0 3.9 6.68z" opacity=".2" style="isolation:isolate"/><path fill="#1c8ebc" d="M119.6 253.22l141.93 82a20 20 0 0 0 20 0l134.1-77.4a6.15 6.15 0 0 0 3.1-5.42v2.68a6.15 6.15 0 0 1-3.1 5.42l-134.07 77.42a20.06 20.06 0 0 1-20.05 0l-141.91-82a7.69 7.69 0 0 1-3.9-6.7v-2.7a7.71 7.71 0 0 0 3.9 6.7z" opacity=".2" style="isolation:isolate"/><path fill="#e2f1fe" d="M117.92 203.62a7.56 7.56 0 0 1 1.68-1.3l134.33-77.63a14.77 14.77 0 0 1 14.8 0l142.5 82.3h7.54v35.15a6.15 6.15 0 0 1-3.1 5.42L281.6 324.98a20 20 0 0 1-20 0l-141.93-82a7.68 7.68 0 0 1-3.89-6.7v-35.27l2.17 2.6z"/><path fill="url(#d)" d="M119.6 194.54l134.33-77.63a14.77 14.77 0 0 1 14.8 0l147 84.9a6.22 6.22 0 0 1 2.26 8.5 6.13 6.13 0 0 1-2.26 2.26L281.61 290a20 20 0 0 1-20 0l-141.97-82a7.76 7.76 0 0 1 0-13.45z" transform="translate(0 -.18)"/><path fill="#1c8ebc" d="M119.6 237l141.93 82a20 20 0 0 0 20 0l134.1-77.52a6.15 6.15 0 0 0 3.1-5.42v2.66a6.16 6.16 0 0 1-3.1 5.44L281.6 321.62a20 20 0 0 1-20 0l-141.93-82a7.7 7.7 0 0 1-3.89-6.71v-2.68a7.7 7.7 0 0 0 3.85 6.78z" opacity=".2" style="isolation:isolate"/><path fill="#1c8ebc" d="M119.6 211.52l141.93 82a20 20 0 0 0 20 0l134.06-77.44a6.16 6.16 0 0 0 3.1-5.43v2.68a6.15 6.15 0 0 1-3.1 5.42l-134.03 77.47a20 20 0 0 1-20.05 0l-141.91-82a7.69 7.69 0 0 1-3.9-6.7v-2.63a7.67 7.67 0 0 0 3.9 6.65z" opacity=".2" style="isolation:isolate"/><path fill="#e2f1fe" d="M117.92 161.92a8.48 8.48 0 0 1 1.68-1.3l134.33-77.63a14.77 14.77 0 0 1 14.8 0l142.5 82.34h7.54v35.15a6.16 6.16 0 0 1-3.1 5.44L281.6 283.36a20 20 0 0 1-20 0l-141.92-82a7.67 7.67 0 0 1-3.93-6.7v-35.34l2.2 2.59z"/><path fill="#1c8ebc" d="M119.6 195.3l141.93 82a20 20 0 0 0 20 0l134.06-77.45a6.1 6.1 0 0 0 3.1-5.42v2.68a6.15 6.15 0 0 1-3.1 5.42L281.57 280a20.06 20.06 0 0 1-20.05 0L119.6 198a7.71 7.71 0 0 1-3.9-6.7v-2.68a7.71 7.71 0 0 0 3.9 6.7z" opacity=".2" style="isolation:isolate"/><path fill="#1c8ebc" d="M119.6 169.82l141.92 82a20.06 20.06 0 0 0 20.05 0l134.06-77.45a6.14 6.14 0 0 0 3.1-5.43v2.68a6.16 6.16 0 0 1-3.1 5.43l-134 77.44a20 20 0 0 1-20 0l-141.92-82a7.68 7.68 0 0 1-3.89-6.7v-2.68a7.74 7.74 0 0 0 3.78 6.71z" opacity=".2" style="isolation:isolate"/><path fill="#badcf1" d="M119.6 152.66l134.33-77.63a14.77 14.77 0 0 1 14.8 0l147 85a6.22 6.22 0 0 1 0 10.77l-134 77.44a20 20 0 0 1-20.05 0l-141.92-82a7.78 7.78 0 0 1-.06-13.5z"/><path fill="none" stroke="#70b1e0" stroke-miterlimit="10" stroke-width=".93" d="M132.12 152.92l121.62-70.3a13.4 13.4 0 0 1 13.39 0l133 76.85a5.63 5.63 0 0 1 0 9.74L278.8 239.33a18.09 18.09 0 0 1-18.14 0l-128.54-74.2a7 7 0 0 1 0-12.2z"/><path fill="none" stroke="#70b1e0" stroke-miterlimit="10" stroke-width=".93" d="M132.12 99.42l121.62-70.3a13.4 13.4 0 0 1 13.39 0l133 76.82a5.63 5.63 0 0 1 0 9.74L278.8 185.82a18.14 18.14 0 0 1-18.14 0l-128.54-74.3a7 7 0 0 1 0-12.12z" opacity=".4" style="isolation:isolate"/><path fill="none" stroke="#70b1e0" stroke-miterlimit="10" stroke-width=".93" d="M132.12 126.14l121.62-70.32a13.4 13.4 0 0 1 13.39 0l133 76.9a5.62 5.62 0 0 1 0 9.74L278.8 212.58a18.14 18.14 0 0 1-18.14 0l-128.54-74.24a7 7 0 0 1 0-12.2z" opacity=".7" style="isolation:isolate"/><path fill="none" stroke="#70b1e0" stroke-miterlimit="10" stroke-width=".93" d="M132.12 72.56l121.62-70.3a13.4 13.4 0 0 1 13.39 0l133 76.86a5.64 5.64 0 0 1 0 9.76L278.8 159a18.14 18.14 0 0 1-18.14 0L132.12 84.82a7 7 0 0 1 0-12.21z" opacity=".1" style="isolation:isolate"/><path fill="#e2f1fe" d="M556 494.58c0 8-16.1 14.55-35.86 14.55s-35.85-6.52-35.85-14.55 16.1-14.54 35.85-14.54 35.86 6.5 35.86 14.54z"/><path fill="#b66651" d="M524.85 483.17a13.25 13.25 0 0 1 3.53 1.61 3.1 3.1 0 0 0 4 0l8.59.51c1 1.23.64 10.6.64 10.6a14.74 14.74 0 0 1-7.47.8 25.93 25.93 0 0 1-14.64-7 7.13 7.13 0 0 1-.8-.85c.6-6.64 5.12-6 6.16-5.7z"/><path fill="#905442" d="M518.94 487.57a27.21 27.21 0 0 0 15.38 7.32 16.32 16.32 0 0 0 7.31-.63v1.56a14.78 14.78 0 0 1-7.48.81 25.9 25.9 0 0 1-14.63-7 6.44 6.44 0 0 1-.8-.85 10.12 10.12 0 0 1 .22-1.34z"/><path fill="#b66651" d="M502.16 486.76a13.21 13.21 0 0 1 3.5 1.6 3.09 3.09 0 0 0 4 0l8.59.52c1 1.22.64 10.58.64 10.58a14.75 14.75 0 0 1-7.47.82 26.05 26.05 0 0 1-15.42-7.82c.62-6.58 5.08-6 6.18-5.7z"/><path fill="#905442" d="M496.23 491.15a27.22 27.22 0 0 0 15.4 7.33 16.41 16.41 0 0 0 7.3-.63v1.6a14.74 14.74 0 0 1-7.47.83 26 26 0 0 1-15.46-7.82c.06-.5.14-.95.23-1.37v.06z"/><path fill="#b8d5fc" d="M542.26 349.88s15 5.75-1.27 24.43z"/><path fill="#70b1e0" d="M541.6 400.56s-.42 31.89-.79 41l3.24 43.49a38.58 38.58 0 0 1-14.27 1.08c-1.39-.11-2.2-2.08-2.3-3.48L524 396.82l17.64 3.75z"/><path fill="#70b1e0" d="M525.7 398.62s1.81 3.79-.85 14.64l-5.43 76.4s-6.16 2.42-15.1-.63l3.67-84 17.7-6.39z"/><path fill="#b8d5fc" d="M510.23 351.72a29.35 29.35 0 0 0-8.32 10.4c-3.38 6.9-4 17.94-2.71 18.42s10 5.5 13.71 1.46-2.68-30.27-2.68-30.27z"/><path fill="#e2f1fe" d="M507.25 410.24c0-2.3 1.07-24.06 1.07-24.06.33-15.51 1.91-34.45 1.91-34.45l12.15-2.91 12.21-1.36 5.23 1.46a4.8 4.8 0 0 1 4.39 3.9 49.63 49.63 0 0 1 .57 8.79c-.1 3.19-1.23 6.4-1.7 9.56-1.84 12.32-1.73 17.39-.78 29.66 0 0 1.66 9.3.36 10.18-9.95 7.54-31.6 1.83-31.6 1.83-2.28-.32-3.77-.76-3.81-2.58z"/><path fill="#b8d5fc" d="M510.23 351.72s5.86 8.56 3.66 12.78-7 14.06-7 14.06l-3.61-8.4 7-18.43z"/><path fill="#f6bca8" d="M534.9 342.82a9.91 9.91 0 0 1-1.27 1.15 29.67 29.67 0 0 1-9.92 4c-.5.12-.26-.38-.8-.29l-.46 1.27c3.25 1.12 6.28 2.12 8.59 1.47 1.73-.44 3.54-1.14 3.63-3l.25-4.58z"/><path fill="#f9d2a8" d="M533.73 323.12a12.13 12.13 0 0 0-15.67 5.58 19.18 19.18 0 0 0 .3 17.58c1.73 2.93 7.07 2.05 9.81 1.46 3.79-.79 7.64-2.62 9.67-6.06a15.83 15.83 0 0 0 1.25-13.08 9.69 9.69 0 0 0-5.36-5.48z"/><path fill="#905442" d="M527.45 322.2a12.08 12.08 0 0 1 6.28.92 9.7 9.7 0 0 1 5.36 5.52 15.83 15.83 0 0 1-1.25 13.08c-2 3.45-5.85 5.28-9.67 6.07a25 25 0 0 1-4.55.57l-.83-4c1.37 0 2.22-1.69 2.47-3.62s-.75-2.58-1.61-2.64-1.07 3.91-1.07 3.91l-1.27-.4a46.69 46.69 0 0 0-.23-6.48 7.86 7.86 0 0 1-6.08-2.53s.16-9.51 12.45-10.4z"/><path fill="#e2f1fe" d="M0 495.97c0 8.6 17.2 15.57 38.38 15.57s38.4-7 38.4-15.57-17.2-15.57-38.4-15.57S0 487.37 0 495.97z"/><path fill="#5a8db7" d="M58.53 489.97a12.38 12.38 0 0 0-3.1 1.46 2.72 2.72 0 0 1-3.5 0l-7.52.45c-.9 1.09-.57 9.3-.57 9.3a13 13 0 0 0 6.55.7 22.64 22.64 0 0 0 13.55-6.86c-.5-5.81-4.4-5.27-5.41-5.05z"/><path fill="#596e9d" d="M63.76 493.82a24 24 0 0 1-13.49 6.42 14.45 14.45 0 0 1-6.4-.56v1.47a12.82 12.82 0 0 0 6.55.7A22.64 22.64 0 0 0 64 495a9.33 9.33 0 0 0-.18-1.18z"/><path fill="#5a8db7" d="M30.23 490.82a12.66 12.66 0 0 0-3.2 1.11 2.7 2.7 0 0 1-3.49-.3l-7.54-.18c-1 1-1.4 9.2-1.4 9.2a13.1 13.1 0 0 0 6.46 1.28 22.82 22.82 0 0 0 13.36-4.95 6.87 6.87 0 0 0 .76-.67c-.07-5.82-4-5.6-5-5.45z"/><path fill="#596e9d" d="M35.12 495.15a23.73 23.73 0 0 1-14 5.2 14.48 14.48 0 0 1-6.34-1.13 11.33 11.33 0 0 1-.09 1.47 13.07 13.07 0 0 0 6.45 1.29 22.82 22.82 0 0 0 13.36-5 8.19 8.19 0 0 0 .76-.68 8.08 8.08 0 0 0-.09-1.2z"/><path fill="#f9d2a8" d="M81.61 372.69l2.7 7.62c6.19.14 7.78-.56 10.74-2.26s3.89-2.56 3.84-5.58a2.74 2.74 0 0 0-2.71-2.77 2.3 2.3 0 0 0-.37 0 20.92 20.92 0 0 1-8.14 2.34s0-1.38 2.31-2.5 1.07-2.34 1.07-2.34-.93-.55-3.63 1.06a48.6 48.6 0 0 0-5.8 4.4z"/><path fill="#b8d5fc" d="M13.77 357.72l3.55-18 6.53 8.19-3.4 11.7-6.68-1.9z"/><path fill="#b8d5fc" d="M13.6 354.28s-13.4 5.23 1.22 24.9l-1.21-24.9z"/><path fill="#719fc2" d="M44.2 413.07l14.17 35.15-3 43.55s-6.65 3.84-12.38 1l1.9-42.2-20.51-32.23 19.82-5.27z"/><path fill="#719fc2" d="M28.37 417.33l.9 34.58-2 40.6s-8.2 2-12.72-.55l1.05-40.84-2.52-37.07 15.3 3.28z"/><path fill="#e2f1fe" d="M48.1 413.96c0-2.34-2.1-22.44-2.1-22.44-.34-15.78-1.84-35.15-1.84-35.15l-11.7-2.93-11.71-1.39-5.05 1.46a4.72 4.72 0 0 0-4.24 4 53.15 53.15 0 0 0-.56 9c.09 3.23 1.19 6.5 1.64 9.73 1.77 12.54-.22 24.77-1.13 37.27a2.3 2.3 0 0 0 1.19 1.86c9.6 7.69 33.91 2.78 33.91 2.78 2.12-.3 1.51-2.32 1.55-4.15z"/><path fill="#f9d2a8" d="M20.59 327.12a25.24 25.24 0 0 1 9.76-.17 11.35 11.35 0 0 1 8.92 8.17c1.36 4.29 2.06 11.53-.34 15.67-1.46 2.6-5.16 2.29-7.78 1.74a31.09 31.09 0 0 1-10-3.5c-3.7-2.41-5.85-8-6.29-12-.37-3.52 1.21-9 5.7-9.86z"/><path fill="#f6bca8" d="M20.48 347.26a12.24 12.24 0 0 0 1.23 1.16 27.56 27.56 0 0 0 9.57 4c.49.12 1 .22 1.54.3l-.32.71c-3.13 1.13-6.06 2.16-8.28 1.55-1.67-.44-3.41-1.15-3.52-3.1l-.22-4.66z"/><path fill="#b8d5fc" d="M81.94 371.55l-21.22 7.11-16.53-22.21c-10.76 4.73 0 19.68 0 19.68l11.28 13.4a4.19 4.19 0 0 0 4.75 1.17l25.08-10.06c1.36-4.7-3.36-9.1-3.36-9.1z"/><path fill="#b76752" d="M40.1 323.69a11 11 0 0 1-.79 2.46 25.84 25.84 0 0 0-9.54-2c-3.36 0-7.8.6-10.62 2.42a11.62 11.62 0 0 0-4.75 11.06 16.71 16.71 0 0 0 6.77 11.43 10.66 10.66 0 0 0 4.83 2.19c14-2.29 6-14.43 6-14.43a12.31 12.31 0 0 1 7.32-1.6s7.1-3.79.8-11.48z"/></svg>
