<svg width="909" height="95" fill="none" xmlns="http://www.w3.org/2000/svg"><path d="m6 95 5.774-10H.226L6 95Zm221 0 5.773-10h-11.546L227 95Zm224 0 5.773-10h-11.546L451 95Zm227 0 5.773-10h-11.546L678 95Zm225 0 5.773-10h-11.546L903 95ZM450 0v53h2V0h-2ZM5 57v29h2V57H5Zm446-5H227v2h224v-2Zm-224 0H10v2h217v-2Zm-1 1v33h2V53h-2Zm224 0v33h2V53h-2Zm1 1h227v-2H451v2Zm226-1v33h2V53h-2Zm1 1h221v-2H678v2Zm224 3v29h2V57h-2Zm-3-3a3 3 0 0 1 3 3h2a5 5 0 0 0-5-5v2ZM7 57a3 3 0 0 1 3-3v-2a5 5 0 0 0-5 5h2Z" fill="#FF9C00"/></svg>