<svg width="540" height="352" fill="none" xmlns="http://www.w3.org/2000/svg"><path fill-rule="evenodd" clip-rule="evenodd" d="M261.584 176.442l-.347.201c-27.878 16.116-65.962 22.797-102.335 20.016l-.106 1.39c36.429 2.785 74.644-3.854 102.789-19.999l67.138 38.603.693-1.209-67.832-39.002z" fill="#DBF2FF"/><path fill-rule="evenodd" clip-rule="evenodd" d="M21.233 37.172l-.699 1.201L87.1 76.9c-23.353 13.767-35.18 31.744-35.18 49.86 0 18.381 12.177 36.62 36.216 50.462l.348.201 36.973-21.275-.696-1.203-36.276 20.874C64.93 162.149 53.31 144.384 53.31 126.76c0-17.711 11.735-35.564 35.52-49.26l1.041-.6-68.639-39.728z" fill="url(#paint0_linear)"/><path fill-rule="evenodd" clip-rule="evenodd" d="M277.445 45.694c-57.028-24.108-133.671-25.647-193.173-4.592l.465 1.316c59.187-20.944 135.471-19.405 192.165 4.562l.543-1.286zM348.892 122.921c-1.333-19.584-12.492-38.913-33.324-55.345l-.861 1.09c20.611 16.259 31.499 35.255 32.798 54.35 1.299 19.088-6.974 38.412-24.965 55.357l.953 1.011c18.223-17.163 26.732-36.872 25.399-56.463zM1.135 132.052c1.717 19.959 13.832 39.603 36.19 56.159l.86-1.111c-22.132-16.388-33.956-35.703-35.631-55.165-1.674-19.454 6.782-39.197 25.509-56.48l-.977-1.014C8.116 91.947-.583 112.085 1.136 132.052z" fill="#DBF2FF"/><path fill-rule="evenodd" clip-rule="evenodd" d="M261.441 75.788l70.916-40.577.695 1.197-71.61 40.976-.348-.2c-39.791-22.84-100.365-26.564-146.966-11.13l-.439-1.311c46.784-15.496 107.563-11.844 147.752 11.045z" fill="url(#paint1_linear)"/><path fill-rule="evenodd" clip-rule="evenodd" d="M292.275 150.942c7.853-13.65 8.787-28.384 3.115-42.173l-1.185.566c5.493 13.353 4.604 27.599-3.032 40.871l1.102.736z" fill="#DBF2FF"/><path fill-rule="evenodd" clip-rule="evenodd" d="M175.465 252.942v-25.5h-.98v25.5h.98z" fill="url(#paint2_linear)"/><path fill-rule="evenodd" clip-rule="evenodd" d="M393.153 126.422h-44.126v.981h44.126v-.981z" fill="url(#paint3_linear)"/><path fill-rule="evenodd" clip-rule="evenodd" d="M174.485.884v25.5h.98V.884h-.98z" fill="url(#paint4_linear)"/><path fill-rule="evenodd" clip-rule="evenodd" d="M52.438 197.038l-34.072 19.895.697 1.192 33.376-19.498c58.002 32.863 146.444 37.6 213.239 14.293l-.465-1.298c-66.599 23.239-154.83 18.429-212.426-14.385l-.349-.199z" fill="url(#paint5_linear)"/><path d="M110.199 121.319l.038 13.437c.028 9.554 6.317 19.095 18.845 26.384 25.241 14.672 66.315 14.672 91.724 0 12.786-7.383 19.17-17.076 19.142-26.754l-.038-13.436c.028 9.68-6.356 19.373-19.142 26.756-25.409 14.673-66.482 14.673-91.724 0-12.54-7.288-18.82-16.83-18.845-26.387z" fill="#7DC4F1"/><path d="M110.211 121.306c-.058-20.751 28.934-37.655 64.754-37.755 35.82-.1 64.905 16.641 64.963 37.392.058 20.752-28.933 37.656-64.754 37.756-35.82.1-64.905-16.641-64.963-37.393z" fill="#fff"/><path d="M110.199 105.115l.038 13.437c.028 9.554 6.317 19.095 18.845 26.384 25.241 14.672 66.315 14.672 91.724 0 12.786-7.384 19.17-17.061 19.142-26.754l-.038-13.437c.028 9.68-6.356 19.373-19.142 26.757-25.409 14.672-66.482 14.672-91.724 0-12.54-7.279-18.82-16.83-18.845-26.387z" fill="#7DC4F1"/><path d="M110.211 105.104c-.058-20.752 28.934-37.656 64.754-37.756 35.82-.1 64.905 16.642 64.963 37.393.058 20.752-28.933 37.656-64.754 37.756-35.82.1-64.905-16.641-64.963-37.393z" fill="#fff"/><path d="M110.211 88.354c-.058-20.752 28.934-37.655 64.754-37.756 35.82-.1 64.905 16.642 64.963 37.393.058 20.752-28.933 37.656-64.754 37.756-35.82.1-64.905-16.641-64.963-37.393z" fill="#DBF2FF"/><path d="M174.966 45.052c-17.838.05-33.951 4.285-45.58 11.066-11.643 6.788-18.703 16.066-18.675 26.188.029 10.123 7.141 19.361 18.82 26.084 11.667 6.716 27.804 10.86 45.642 10.811 17.838-.05 33.951-4.285 45.581-11.066 11.642-6.788 18.702-16.066 18.674-26.189-.028-10.122-7.14-19.36-18.82-26.084-11.667-6.715-27.804-10.86-45.642-10.81z" stroke="#7DC4F1"/><path d="M110.106 88.54l.038 13.386c.029 9.518 6.334 19.023 18.893 26.284 25.306 14.617 66.483 14.617 91.956 0 12.819-7.352 19.219-16.996 19.19-26.652l-.038-13.386c.029 9.644-6.371 19.3-19.19 26.655-25.473 14.617-66.65 14.617-91.956 0-12.572-7.261-18.867-16.766-18.893-26.286z" fill="#7DC4F1"/><path d="M347.557 129.365c-2.979 0-5.394-1.318-5.394-2.943s2.415-2.942 5.394-2.942c2.978 0 5.393 1.317 5.393 2.942 0 1.625-2.415 2.943-5.393 2.943zM95.058 218.615c-2.708 0-4.903-1.317-4.903-2.942 0-1.625 2.195-2.943 4.903-2.943 2.708 0 4.903 1.318 4.903 2.943s-2.195 2.942-4.903 2.942zM233.319 223.519c-1.625 0-2.942-.878-2.942-1.962 0-1.083 1.317-1.961 2.942-1.961 1.625 0 2.942.878 2.942 1.961 0 1.084-1.317 1.962-2.942 1.962zM175.466 28.346c-1.625 0-2.942-.659-2.942-1.471 0-.813 1.317-1.472 2.942-1.472 1.624 0 2.941.659 2.941 1.472 0 .812-1.317 1.47-2.941 1.47zM314.707 69.538c-1.624 0-2.942-.659-2.942-1.471 0-.813 1.318-1.471 2.942-1.471 1.625 0 2.942.658 2.942 1.47 0 .813-1.317 1.472-2.942 1.472zM237.732 36.191c-2.437 0-4.413-1.097-4.413-2.452 0-1.354 1.976-2.451 4.413-2.451 2.437 0 4.413 1.097 4.413 2.451 0 1.355-1.976 2.453-4.413 2.453z" fill="#92C9EC"/><path d="M392.783 346.905l137.849-79.465c12.731-7.341 11.135-20.162-3.566-28.637L426.04 180.352c-14.698-8.476-36.937-9.396-49.668-2.056l-137.851 79.479c-12.732 7.34-11.132 20.161 3.566 28.637l101.026 58.447c14.701 8.466 36.939 9.387 49.67 2.046z" fill="#DBF2FF"/><path d="M308.028 223.271v1.974l3.021-1.116" fill="#BCBEC8"/><path d="M358.557 289.907l105.846-61.037c.422-.244.368-.668-.117-.949l-48.483-27.938a1.816 1.816 0 00-1.644-.07l-105.846 61.038c-.421.24-.367.664.117.949l48.483 27.953a1.821 1.821 0 001.644.054z" fill="#C4E8FE"/><path d="M358.687 252.009h2.163v31.335h-2.163v-31.335z" fill="#42424C"/><path d="M359.77 284.422a1.078 1.078 0 110-2.156 1.079 1.079 0 110 2.156zM313.222 228.24h2.163v31.334h-2.163V228.24z" fill="#42424C"/><path d="M314.305 260.652a1.078 1.078 0 110-2.156 1.079 1.079 0 110 2.156zM459.52 194.413h2.163v31.335h-2.163v-31.335z" fill="#42424C"/><path d="M460.6 226.829a1.079 1.079 0 11-.002-2.158 1.079 1.079 0 01.002 2.158z" fill="#42424C"/><path d="M358.557 253.797l105.846-61.038c.421-.243.367-.667-.117-.949l-48.483-27.941a1.836 1.836 0 00-1.644-.066L308.313 224.84a.636.636 0 00-.228.212c-.14.234-.019.525.345.734l48.483 27.954a1.85 1.85 0 001.644.057zM458.955 207.218v1.99l-.999.091-.293-1.172 1.292-.909z" fill="#BCBEC8"/><path d="M358.557 251.845l105.846-61.037c.421-.244.367-.668-.117-.949l-48.483-27.938a1.82 1.82 0 00-1.644-.07l-105.846 61.038c-.422.24-.368.664.117.948l48.483 27.954a1.82 1.82 0 001.644.054z" fill="#EFF2F6"/><path d="M377.227 213.315c.054.247.187.469.379.633.316.243-.155-1.316-.155-1.316" fill="#2A2A33"/><path d="M371.894 190.226c-.596.342-.887 1.24-.656 2.002l6.214 20.376 25.057-14.446-6.22-20.377c-.231-.762-.906-1.103-1.498-.762l-22.897 13.207z" fill="#6C6C8A"/><path d="M371.75 189.751c-.804.465-1.2 1.677-.887 2.711l6.372 20.873 25.821-14.89-6.369-20.873c-.317-1.034-1.226-1.492-2.03-1.031l-22.907 13.21zm5.701 22.869l-6.22-20.376c-.231-.763.06-1.661.655-2.002l22.904-13.207c.592-.342 1.267 0 1.498.762l6.22 20.376-25.057 14.431" fill="#2A2A33"/><path d="M372.121 189.856c-.805.465-1.2 1.676-.887 2.707l6.369 20.873 25.817-14.893-6.372-20.873c-.317-1.031-1.222-1.492-2.027-1.028l-22.9 13.214zm5.716 22.865l-6.22-20.376c-.231-.759.06-1.658.653-1.999l22.916-13.207c.592-.342 1.267 0 1.498.759l6.21 20.392-25.057 14.447" fill="#42424C"/><path d="M372.269 190.346c-.592.342-.886 1.24-.652 1.999l6.22 20.376 25.057-14.431-6.22-20.376c-.234-.759-.906-1.101-1.498-.759l-22.907 13.191z" fill="#6C6C8A"/><path d="M388.374 191.946a.672.672 0 00-.243.332.67.67 0 00-.001.411.384.384 0 00.557.282l3.376-1.955a.653.653 0 00.244-.74c-.088-.281-.336-.411-.557-.281l-3.376 1.951z" fill="#FFBF20"/><path d="M393.795 188.822a.645.645 0 00-.243.331.646.646 0 00.003.412c.085.281.316.408.551.281l.991-.572a.657.657 0 00.24-.74.377.377 0 00-.554-.282l-.988.57z" fill="#F65849"/><path d="M387.733 189.85a.657.657 0 00-.244.743.373.373 0 00.205.282.375.375 0 00.349-.004l6.41-3.694a.658.658 0 00.244-.74c-.086-.284-.336-.411-.554-.284l-6.41 3.697z" fill="#18B9FC"/><path d="M388.928 186.69a.667.667 0 00-.241.743.385.385 0 00.205.283.379.379 0 00.175.041c.06 0 .12-.014.174-.042l4.573-2.638a.654.654 0 00.244-.74c-.088-.281-.335-.411-.557-.285l-4.573 2.638z" fill="#F0F4FB"/><path d="M382.733 192.73a.668.668 0 00-.244.743.383.383 0 00.558.282l3.373-1.945a.658.658 0 00.243-.743.383.383 0 00-.557-.282l-3.373 1.945z" fill="#FFBF20"/><path d="M384.393 189.305a.667.667 0 00-.244.744.381.381 0 00.554.281l2.565-1.477a.652.652 0 00.244-.74c-.085-.281-.335-.411-.554-.281l-2.565 1.473z" fill="#F65849"/><path d="M387.183 200.605a.657.657 0 00-.241.74c.086.282.317.411.554.285l3.376-1.948a.666.666 0 00.244-.744.393.393 0 00-.067-.167.388.388 0 00-.312-.158.37.37 0 00-.175.044l-3.379 1.948z" fill="#FFBF20"/><path d="M381.476 203.894a.655.655 0 00-.244.743c.086.282.317.408.554.278l3.633-2.093a.658.658 0 00.244-.74.374.374 0 00-.069-.167.387.387 0 00-.489-.115l-3.629 2.094z" fill="#F0F4FB"/><path d="M380.76 201.557a.665.665 0 00-.244.743c.089.282.336.408.558.279l6.41-3.694a.653.653 0 00.24-.74c-.085-.285-.332-.411-.554-.285l-6.41 3.697z" fill="#18B9FC"/><path d="M380.086 199.337a.658.658 0 00-.247.743c.088.282.335.408.557.282l4.405-2.53a.67.67 0 00.241-.744.393.393 0 00-.067-.167.396.396 0 00-.137-.117.37.37 0 00-.176-.041.366.366 0 00-.174.044l-4.402 2.53zM379.408 197.117a.655.655 0 00-.244.743.388.388 0 00.204.285.387.387 0 00.35-.003l7.145-4.112a.654.654 0 00.247-.74c-.089-.284-.336-.411-.557-.284l-7.145 4.111zM378.765 195.017a.664.664 0 00-.244.746.381.381 0 00.558.279l2.216-1.265a.658.658 0 00.247-.744.375.375 0 00-.207-.282.392.392 0 00-.175-.042.393.393 0 00-.175.043l-2.22 1.265zM378.126 192.914a.66.66 0 00-.244.743.381.381 0 00.206.284.383.383 0 00.351-.005l4.402-2.53a.654.654 0 00.244-.74c-.089-.282-.336-.408-.557-.282l-4.402 2.53z" fill="#F0F4FB"/><path d="M390.85 192.99a.661.661 0 00-.241.74.387.387 0 00.554.285l4.574-2.638a.663.663 0 00.243-.743c-.088-.282-.335-.408-.554-.282l-4.576 2.638z" fill="#95F5D4"/><path d="M393.919 193.967a.66.66 0 00-.244.743c.088.282.335.408.554.282l2.217-1.265a.666.666 0 00.241-.741c-.086-.281-.336-.411-.555-.284l-2.213 1.265zM392.095 197.772a.656.656 0 00-.241.743l.066.215a.382.382 0 00.555.281l4.75-2.742a.65.65 0 00.241-.74l-.067-.218a.364.364 0 00-.067-.167.38.38 0 00-.487-.114l-4.75 2.742z" fill="#F0F4FB"/><path d="M388.795 196.924a.659.659 0 00-.26.734.386.386 0 00.382.325.37.37 0 00.176-.044l3.376-1.948a.651.651 0 00.241-.331.65.65 0 00-.001-.409c-.085-.284-.332-.411-.554-.284l-3.36 1.957z" fill="#F65849"/><path d="M385.754 195.928a.657.657 0 00-.24.74c.085.281.316.411.554.285l3.376-1.949a.66.66 0 00.244-.743.393.393 0 00-.067-.167.386.386 0 00-.313-.158.363.363 0 00-.174.044l-3.38 1.948z" fill="#18B9FC"/><path d="M378.29 213.037l.111.434 25.063-14.453 13.903 8.017c.804.465.893 1.167.193 1.581l-23.324 13.457c-.697.401-1.916.351-2.724-.114l-12.804-7.382-1.096-.632v-.512l.678-.396z" fill="#BCBEC8"/><path d="M394.236 222.073l23.337-13.457c.7-.402.611-1.104-.193-1.581l-13.903-8.539-25.865 14.914 13.9 8.539c.801.475 2.021.525 2.724.124z" fill="#DCDBE4"/><path d="M410.14 280.258c-.149 1.717.976 4.484 1.349 8.222.374 3.738.225 6.354-4.117 6.354s-6.046-2.145-9.548-2.783c-4.434-.81-11.037-.209-11.11-4.994-.073-4.785 1.197-5.307 6.062-5.155 4.864.152 8.607 2.018 8.756-1.644.149-3.663 8.608 0 8.608 0z" fill="#686899"/><path d="M422.653 280.22l-4.627 2.666 17.003 9.804 4.627-2.666-17.003-9.804z" fill="#334"/><path d="M420.338 283.439c-1.807 0-3.272-.844-3.272-1.885s1.465-1.885 3.272-1.885c1.807 0 3.271.844 3.271 1.885s-1.464 1.885-3.271 1.885z" fill="#334"/><path d="M422.653 278.967l-4.627 2.666 17.003 9.804 4.627-2.666-17.003-9.804z" fill="#46465B"/><path d="M420.338 282.187c-1.807 0-3.272-.844-3.272-1.885s1.465-1.885 3.272-1.885c1.807 0 3.271.844 3.271 1.885s-1.464 1.885-3.271 1.885z" fill="#46465B"/><path d="M452.194 280.495l4.627 2.669-17.003 9.801-4.627-2.666 17.003-9.804z" fill="#334"/><path d="M451.235 281.829c0 1.041 1.465 1.885 3.271 1.885 1.807 0 3.272-.844 3.272-1.885v-1.535l-1.336-.038-.003.052c-.541-.229-1.21-.364-1.933-.364-1.806 0-3.271.844-3.271 1.885z" fill="#334"/><path d="M452.194 278.967l4.627 2.666-17.003 9.804-4.627-2.666 17.003-9.804z" fill="#46465B"/><path d="M454.506 282.187c-1.806 0-3.271-.844-3.271-1.885s1.465-1.885 3.271-1.885c1.807 0 3.272.844 3.272 1.885s-1.465 1.885-3.272 1.885z" fill="#46465B"/><path d="M422.165 302.136l-4.624-2.669 17.004-9.804 4.623 2.669-17.003 9.804z" fill="#334"/><path d="M416.582 300.801c0 1.041 1.465 1.885 3.272 1.885 1.806 0 3.271-.844 3.271-1.885s-1.465-1.884-3.271-1.884c-.515 0-1.002.068-1.436.19h-1.836v1.694z" fill="#334"/><path d="M422.165 300.469l-4.624-2.666L434.545 288l4.623 2.669-17.003 9.8z" fill="#46465B"/><path d="M437.179 263.114c-.371 1.683.383 4.573.266 8.328-.117 3.755-.605 6.328-4.91 5.762-4.305-.566-5.715-2.914-9.104-4.004-4.291-1.38-10.916-1.645-10.364-6.399.551-4.753 1.879-5.105 6.682-4.321 4.803.785 8.271 3.123 8.896-.489.625-3.611 8.534 1.123 8.534 1.123z" fill="#686899"/><path d="M419.854 301.023c-1.807 0-3.272-.844-3.272-1.885s1.465-1.885 3.272-1.885c1.806 0 3.271.844 3.271 1.885s-1.465 1.885-3.271 1.885z" fill="#46465B"/><path d="M451.71 302.136l4.623-2.669-17.003-9.804-2.502 3.893 14.882 8.58z" fill="#334"/><path d="M450.75 300.801c0 1.041 1.465 1.885 3.272 1.885 1.807 0 3.271-.844 3.271-1.885v-1.731l-1.673-.153-.006.237a5.253 5.253 0 00-1.592-.237c-1.807 0-3.272.843-3.272 1.884z" fill="#334"/><path d="M451.71 300.469l4.623-2.666L439.33 288l-4.624 2.669 17.004 9.8z" fill="#46465B"/><path d="M454.022 301.023c-1.807 0-3.272-.844-3.272-1.885s1.465-1.885 3.272-1.885c1.807 0 3.271.844 3.271 1.885s-1.464 1.885-3.271 1.885z" fill="#46465B"/><path d="M437.313 291.437c-1.814 0-3.284-.848-3.284-1.894 0-1.046 1.47-1.895 3.284-1.895 1.814 0 3.284.849 3.284 1.895s-1.47 1.894-3.284 1.894z" fill="#A1A0C6"/><path d="M434.637 279.625h5.342v9.915h-5.342v-9.915z" fill="#5D5C76"/><path d="M437.31 291.08c-1.475 0-2.67-.69-2.67-1.54 0-.851 1.195-1.54 2.67-1.54 1.474 0 2.669.689 2.669 1.54 0 .85-1.195 1.54-2.669 1.54z" fill="#5D5C76"/><path d="M437.31 281.206c-1.475 0-2.67-.689-2.67-1.54 0-.85 1.195-1.54 2.67-1.54 1.474 0 2.669.69 2.669 1.54 0 .851-1.195 1.54-2.669 1.54z" fill="#363647"/><path d="M437.31 280.887c-1.171 0-2.119-.547-2.119-1.221s.948-1.221 2.119-1.221c1.17 0 2.118.547 2.118 1.221s-.948 1.221-2.118 1.221z" fill="#DCDCEA"/><path d="M435.191 271.212h4.237v8.413h-4.237v-8.413z" fill="#DCDCEA"/><path d="M441.462 272.092l23.714-13.666c1.9-1.1 1.672-3.023-.535-4.295l-22.635-13.048c-2.217-1.265-5.539-1.411-7.448-.317l-23.705 13.666c-1.9 1.103-1.669 3.023.535 4.295l22.634 13.051c2.195 1.278 5.533 1.414 7.44.314z" fill="#334"/><path d="M441.462 268.626l23.714-13.666c1.9-1.1 1.672-3.023-.535-4.295l-22.635-13.051c-2.217-1.266-5.539-1.408-7.448-.317l-23.705 13.666c-1.9 1.1-1.669 3.023.535 4.294l22.634 13.052c2.195 1.278 5.533 1.417 7.44.317z" fill="#46465B"/><path d="M422.327 206.605c-2.797 0-7.867-.019-9.789.427-.523.161-2.176-.317-2.021-.892.273-.699.7-.272 1.321-.582.621-.31.7-.813-.504-.93-1.203-.117-2.486-.582-2.872-2.328-.387-1.745 2.989-1.435 5.01-1.008 2.02.426 3.107 1.084 11.844.543" fill="#FFAA9B"/><path d="M398.587 225.827c-1.637-.282-5.251-.898-7.734-.949-2.483-.051-3.902-1.92-3.566-3.115.39-1.392.342-2.284 7.012-1.898-.057-.676-2.318-2.71.339-2.052 1.149.284 3.167 2.647 4.627 2.704" fill="#FFAC9E"/><path d="M461.04 249.185c3.334-12.483-11.804-13.729-11.804-13.729s-15.138 5.269-29.858.971-22.773-5.411-22.355 3.742c.418 9.152 2.359 40.911 2.359 40.911a6.396 6.396 0 005.276 2.634c3.61 0 7.221-1.11 7.499-2.495.279-1.385.279-30.649.279-30.649s38.172 19.554 48.604-1.385z" fill="#B0AFD0"/><path d="M416.015 231.964c-.418-9.153 7.636-8.04 22.356-3.742l-6.942 14.143h-15.414v-10.401z" fill="#B0AFD0"/><path d="M409.54 256.422l2.812 16.266.085-22.117-2.897 5.851z" fill="#9090AF"/><path d="M447.567 248.698s19.319-2.495 12.5-19.554c-3.61-9.845-1.529-14.836-1.251-19.69.279-4.855-1.824-23.846-10.71-18.976-8.887 4.871-13.453 7.341-21.786 8.451-8.332 1.11-12.082 17.198-15.135 20.942-2.362-.139-13.263-1.145-13.263-1.145a6.767 6.767 0 00-1.583 6.101c.798 3.814 16.699 6.104 16.699 6.104s6.407-1.398 14.182-12.284c-.276 8.043.186 16.088.814 19.646.807 4.63 5.542 12.394 19.533 10.405z" fill="#7DC4F1"/><mask id="a" maskUnits="userSpaceOnUse" x="396" y="189" width="66" height="61"><path d="M447.567 248.698s19.319-2.495 12.5-19.554c-3.61-9.845-1.529-14.836-1.251-19.69.279-4.855-1.824-23.846-10.71-18.976-8.887 4.871-13.453 7.341-21.786 8.451-8.332 1.11-12.082 17.198-15.135 20.942-2.362-.139-13.263-1.145-13.263-1.145a6.767 6.767 0 00-1.583 6.101c.798 3.814 16.699 6.104 16.699 6.104s6.407-1.398 14.182-12.284c-.276 8.043.186 16.088.814 19.646.807 4.63 5.542 12.394 19.533 10.405z" fill="#7DC4F1"/></mask><g mask="url(#a)"><path d="M430.054 214.036a26.233 26.233 0 01-5.415 7.489c-4.434 17.846.95 26.211.95 26.211l6.771 1.246s-3.541-5.822-3.227-14.769c.313-8.947 1.754-13.415.921-20.177z" fill="#4CA2CC"/></g><path d="M444.799 192.221s2.562 5.272-2.644 7.518c-4.561 1.967-7.373-1.139-7.373-2.793" fill="#4CA2CC"/><path d="M443.887 189.802c.003 1.538.165 3.071.485 4.576.418 1.872-2.917 5.338-5.764 4.298-2.847-1.041-3.123-1.265-3.541-6.325-2.216-.139-8.956.484-8.677-10.193 0-6.518 1.666-12.065 11.734-12.065 10.067 0 5.763 19.709 5.763 19.709z" fill="#FFAA9B"/><path d="M438.627 191.032c19.846-3.954 6.053-30.706-10.071-20.924-2.106 2.372.285 3.875 2.502 5.598.874.538 2.265 1.06.463 4.927-.276.557.487 2.787 1.536 2.021 1.187-.869 2.055-.522 2.957.392 1.426 1.446.704 3.584-.164 5.038-.868 1.455.06 3.621 2.777 2.948z" fill="#363646"/><path d="M480.535 217.942l-10.625 28.916s-.95 4.472-6.457 7.906c-5.508 3.435-21.558 12.688-21.558 12.688s-1.78.987-2.85.633c-.836-.279-1.245-1.37-.06-4.374 2.707-6.863 10.207-28.185 10.207-28.185s2.394-6.135 7.601-8.855c5.206-2.72 21.247-12.062 21.247-12.062s4.684-2.283 2.495 3.333z" fill="#334"/><path d="M480.39 214.242l4.228 2.391-5.147 5.582M442.643 270.115l-3.604-2.036 6.004-7.474" fill="#334"/><path d="M484.564 220.235l-10.625 28.916s-.95 4.472-6.458 7.906c-5.507 3.435-21.56 12.691-21.56 12.691s-5.622 3.119-2.914-3.744c2.708-6.863 10.207-28.182 10.207-28.182s2.394-6.135 7.601-8.855c5.206-2.72 21.247-12.065 21.247-12.065s4.687-2.283 2.502 3.333z" fill="#5D5C76"/><path d="M409.554 252.55l.022 3.495 4.111 1.448" fill="#334"/><path d="M410.52 254.644c.263.241.551.453.858.633l6.667 3.845v3.479l-6.667-3.842c-1.326-.769-1.941-1.771-1.802-2.685a2.144 2.144 0 01.944-1.43z" fill="#334"/><path d="M410.843 250.962s.431-.281 1.584-.392c.317.089 5.609 8.539 5.609 8.539l-6.667-3.842c-2.195-1.281-2.435-3.213-.526-4.305z" fill="#46465B"/><path d="M419.169 191.216l-.966-.56.003 1.382.966.56-.003-1.382z" fill="#6685A1"/><path fill-rule="evenodd" clip-rule="evenodd" d="M420.135 183.904l.966.56c.406.228.729.86.779 2.16l-.966-.56c-.05-1.296-.373-1.923-.779-2.16zm.779 2.16l.966.56c.01 2.831-.795 3.941-1.529 4.365a1.735 1.735 0 01-1.182.227l-.966-.56c.409.068.828-.012 1.182-.227.734-.424 1.529-1.534 1.529-4.365z" fill="url(#paint6_linear)"/><path d="M421.446 183.623l-.966-.56c-.601-.348-1.371.028-2.052.42l.966.576c.681-.408 1.444-.784 2.052-.436z" fill="#5EA1CC"/><path d="M419.394 184.059l-.247.145v1.265c.162-.387.453-.706.824-.904.769-.446 1.808-.358 1.9 2.065 0 2.83-.795 3.941-1.53 4.364a1.728 1.728 0 01-1.181.228v1.376c.221-.074.434-.173.633-.294.998-.576 2.79-2.141 2.635-5.93-.253-3.716-1.796-3.046-3.034-2.315z" fill="#7DC4F1"/><path d="M419.394 184.059l-.966-.56-.247.145.966.56.247-.145z" fill="#6685A1"/><path d="M419.147 184.189l-.966-.56.007 1.271.962.563-.003-1.274z" fill="#6685A1"/><path d="M420.322 188.287c-.057.161-.063.402-.019.383a.75.75 0 00.048-.421l-.029.038zm-1.074 2.059c-.167.117-.202.354-.082.373.12.019.279-.262.212-.367-.025-.038-.073-.041-.13 0v-.006zm.704-.595c-.118.146-.134.396-.048.38.086-.016.187-.354.111-.405-.019 0-.048 0-.063.025zm.373-.613c-.057.161-.063.401-.022.382a.72.72 0 00.048-.42l-.026.038zm-7.449-.633a.12.12 0 00-.117 0c-.744.399-.744.399-.75.547v.801c.003.095.025.19.063.278.253.544.779 1.676.966 1.315a.102.102 0 000-.06v-.433a11.215 11.215 0 01-.497-.781c-.181-.307-.149-.266-.152-.316v-.516c-.111-.164-.086-.316.016-.316.101 0 .285.294.18.379a.094.094 0 01-.047 0v.446c0 .026.007.052.022.073.272.446.288.471.475.746v-1.941a.319.319 0 00-.171-.253l.012.031zm.995.389c.206.067.253.285.117.342h-.019v.537a.064.064 0 01-.007.031.077.077 0 01-.021.023c-.295.184-.368.228-.716.434v1.198a.277.277 0 00.044.133.281.281 0 00.238.131.282.282 0 00.136-.033c.915-.566.915-.566.921-.731v-1.581a.351.351 0 00-.107-.24 13.384 13.384 0 00-.972-1.129c-.099-.086-.257-.098-.266.044v1.958c.544-.317.544-.317.551-.367v-.462c-.146-.133-.114-.294.019-.316a.194.194 0 01.076 0l.006.028zm-2.572.712a.07.07 0 000-.035c-.008.14-.003.281.016.421a1.386 1.386 0 000-.386h-.016zm5.885 2.359c-.2.041-.26.237-.143.316.035.02.075.029.115.029a.232.232 0 00.227-.231.143.143 0 00-.026-.059.152.152 0 00-.173-.058v.003zm1.168-.319c-.19.079-.237.3-.114.351.124.05.342-.149.288-.298-.025-.063-.091-.085-.174-.053zm.903-.449c-.168.117-.203.354-.083.373.121.019.279-.263.213-.367-.026-.038-.076-.041-.13 0v-.006zm1.077-1.202c-.057.161-.064.402-.023.383a.716.716 0 00.048-.421l-.025.038zm-9.017.496a2.107 2.107 0 00.016.386 1.386 1.386 0 000-.386h-.016zm.235.633c0-.016-.038-.063-.054 0-.029.107.035.421.098.395.063-.025.025-.262-.044-.382v-.013zm.535.645c-.102-.079-.124.022-.114.108.022.17.155.316.218.249.064-.066 0-.268-.104-.357zm1.764.898c-.184-.044-.225.105-.155.225.069.12.316.18.345.035a.243.243 0 00-.19-.26zm1.064.212c-.206-.016-.25.155-.158.266.091.11.345.101.364-.051a.218.218 0 00-.06-.149.218.218 0 00-.146-.066zm1.175.035c-.206 0-.269.199-.149.316.12.117.377 0 .355-.152a.189.189 0 00-.206-.164zm1.099-.111c-.197.041-.26.237-.143.316a.234.234 0 00.345-.202.153.153 0 00-.137-.123.143.143 0 00-.065.006v.003zm1.172-.319c-.19.079-.238.297-.114.351.123.054.342-.149.288-.297a.127.127 0 00-.076-.066.12.12 0 00-.05-.004.114.114 0 00-.048.016zm.896-.437c-.171.117-.203.355-.086.374.117.019.282-.263.212-.367-.022-.038-.072-.041-.126 0v-.007zm.7-.588c-.118.146-.13.392-.045.38.086-.013.184-.355.111-.408-.022 0-.047 0-.066.028zm.377-.613c-.061.161-.067.401-.023.382a.738.738 0 00.048-.42l-.025.038zm-9.017.487v-.035c-.014.14-.014.281 0 .42a1.653 1.653 0 000-.385zm.219.632s-.041-.063-.054 0c-.032.108.035.421.098.395.063-.025.022-.262-.044-.382v-.013zm.535.645c-.101-.079-.124.022-.114.108.019.171.155.316.218.25.064-.067 0-.269-.104-.358zm.776.513c-.152-.07-.19.06-.143.18.048.12.244.247.301.139.057-.107-.035-.256-.158-.316v-.003zm.988.389c-.184-.045-.228.104-.155.224.073.12.316.18.345.035a.242.242 0 00-.19-.259zm1.064.212c-.209 0-.25.154-.158.265.092.111.345.101.364-.05a.213.213 0 00-.061-.148.216.216 0 00-.145-.067zm1.188.056c-.203 0-.266.2-.146.301.12.101.377 0 .355-.152a.192.192 0 00-.209-.149zm1.102-.11c-.197.041-.26.237-.143.316a.23.23 0 00.229-.004.23.23 0 00.113-.198.16.16 0 00-.025-.06.152.152 0 00-.048-.043.152.152 0 00-.126-.014v.003zm1.172-.32c-.19.079-.238.298-.118.351.121.054.346-.148.289-.297-.023-.063-.092-.085-.171-.054zm.896-.436c-.171.117-.203.354-.086.373.117.019.282-.262.212-.367-.025-.038-.072-.041-.126 0v-.006zm.7-.588c-.118.145-.13.392-.045.379.086-.012.184-.354.111-.408-.022 0-.047 0-.066.029zm.373-.614c-.057.161-.063.402-.019.383a.741.741 0 00.048-.421l-.029.038zm.089-6.325l.025 6.894c0 .68-.449 1.36-1.349 1.879-1.789 1.034-4.681 1.034-6.46 0-.884-.512-1.324-1.183-1.327-1.853l-.019-6.929c0 .67.443 1.344 1.327 1.856 1.776 1.031 4.668 1.031 6.46 0 .9-.522 1.349-1.202 1.346-1.898" fill="url(#paint7_linear)"/><path d="M412.886 191.481a.542.542 0 01-.212-.202c-.656-1.126-.662-1.351-.662-1.423v-.801c0-.095.019-.136.063-.167.044-.032.665-.383.725-.392a.318.318 0 01.251.275v1.942c-.494-.74-.498-.788-.498-.82v-.458c.152-.022.067-.266-.06-.361-.127-.095-.171-.031-.158.092a.378.378 0 00.069.174v.516a.157.157 0 00.023.075l.13.231c.272.453.288.478.497.781v.434c0 .11-.092.129-.168.091M413.412 191.709a.284.284 0 01-.181-.243v-1.199c.744-.433.744-.446.744-.487v-.538c.175-.057.089-.265-.06-.335-.149-.069-.272.032-.212.177a.311.311 0 00.079.108v.461a.056.056 0 01-.006.031.06.06 0 01-.019.023c-.317.196-.333.203-.526.316v-1.957c0-.174.2-.136.317 0 .317.386.659.734.966 1.123a.347.347 0 01.069.199v1.581a.233.233 0 01-.104.202c-.893.601-.893.601-1.055.541M420.325 188.636c-.019.041-.031.047-.041.022-.038-.098.035-.425.067-.409a.86.86 0 01-.026.387zM420.325 189.487c-.015.041-.028.047-.038.022a.687.687 0 01.064-.409.782.782 0 01-.026.387zM420.329 190.337c-.016.041-.029.048-.041.019-.035-.095.034-.421.066-.405a.869.869 0 01-.025.386zM420.332 191.188c0 .041-.032.047-.042.019-.037-.095.035-.422.067-.406a.873.873 0 01-.025.387zM420.335 192.038c-.019.041-.032.048-.041.019-.038-.095.035-.421.066-.405a.854.854 0 01-.025.386zM419.953 190.103c-.07.073-.102 0-.102-.067 0-.152.117-.364.171-.316.054.047 0 .278-.069.374M419.959 191.805c-.07.072-.101 0-.101-.067 0-.152.117-.364.17-.317a.443.443 0 01-.069.374M419.959 192.652c-.067.076-.098 0-.101-.063 0-.152.12-.365.17-.317a.41.41 0 01-.069.371M419.255 190.701c-.117.069-.177-.019-.148-.136.041-.168.214-.298.275-.206a.32.32 0 01-.127.342zM419.255 191.545c-.117.07-.177-.019-.148-.136.037-.168.214-.298.275-.206a.32.32 0 01-.127.342zM419.255 192.396c-.117.07-.177-.019-.148-.136.041-.168.218-.298.275-.206.057.092 0 .269-.127.342zM419.255 193.247c-.117.069-.177-.019-.149-.137.041-.168.215-.297.275-.206.06.092 0 .27-.126.343zM418.355 191.992c-.155.051-.225-.07-.165-.2s.289-.223.336-.096a.273.273 0 01-.171.296zM418.355 192.843c-.152.051-.222-.07-.162-.2s.289-.223.336-.095a.272.272 0 01-.174.295zM418.358 193.693c-.155.051-.222-.069-.161-.2.06-.13.288-.222.317-.095a.272.272 0 01-.032.179.268.268 0 01-.139.116M417.184 192.308c-.188.025-.257-.14-.159-.26.098-.121.339-.121.358.028 0 .056-.02.111-.057.153a.228.228 0 01-.142.079zM417.186 193.159c-.187.026-.26-.14-.158-.26.101-.121.339-.121.358.028 0 .056-.02.111-.057.153a.228.228 0 01-.143.079zM417.186 194.01a.155.155 0 01-.201-.169.153.153 0 01.046-.092c.114-.14.339-.121.355.029a.233.233 0 01-.2.232zM416.088 193.269c-.197 0-.267-.174-.162-.282.105-.108.368-.06.371.098a.203.203 0 01-.209.184zM416.087 194.12c-.196 0-.266-.175-.165-.283.102-.107.371-.06.371.099a.196.196 0 01-.066.133.194.194 0 01-.14.051zM414.893 193.231c-.196-.035-.263-.235-.145-.317.117-.083.371.025.352.184a.185.185 0 01-.075.111.165.165 0 01-.132.025M414.897 194.067c-.197-.035-.263-.235-.146-.318.117-.082.371.026.352.184a.175.175 0 01-.138.137.173.173 0 01-.068 0M413.833 193c-.197-.066-.251-.288-.124-.346.127-.057.362.124.317.273a.148.148 0 01-.077.073.146.146 0 01-.107 0M413.833 193.864c-.194-.066-.248-.289-.121-.346.127-.057.362.124.317.273a.142.142 0 01-.184.073M412.848 193.469c-.172-.098-.216-.317-.108-.368.108-.051.317.206.263.336-.029.054-.089.064-.155.032zM412.066 192.102c-.12-.114-.152-.368-.066-.377.085-.01.246.294.17.386-.025.029-.063.026-.104 0M412.069 192.953c-.123-.114-.152-.368-.066-.377.085-.01.243.294.17.386-.025.029-.063.026-.104 0M411.531 191.469c-.067-.129-.079-.399-.029-.383.051.016.139.393.073.418 0 0-.022 0-.044-.035zM411.534 192.32c-.067-.13-.079-.399-.032-.383.048.016.139.392.076.418 0 0-.022 0-.044-.035zM411.312 189.986a3.55 3.55 0 010-.386c.025.139.032.28.019.421v-.035M411.315 190.837a3.123 3.123 0 010-.387c.026.139.032.281.019.422v-.035M411.315 191.688a2.777 2.777 0 010-.387c.023.14.029.281.019.422v-.035" fill="#224163"/><path d="M411.292 185.378c-.004-1.458 2.037-2.646 4.559-2.653 2.522-.007 4.57 1.17 4.574 2.628.004 1.458-2.037 2.646-4.559 2.653-2.522.007-4.57-1.169-4.574-2.628z" fill="#fff"/><path d="M412.636 183.509c-1.789 1.031-1.802 2.704-.022 3.738 1.78 1.034 4.671 1.031 6.457 0 1.786-1.031 1.802-2.707.025-3.738-1.776-1.031-4.671-1.031-6.46 0z" fill="#5EA1CC"/><path d="M411.929 185.361c-.004-1.256 1.753-2.279 3.923-2.285 2.171-.006 3.934 1.007 3.937 2.263.004 1.256-1.753 2.279-3.924 2.285-2.17.006-3.933-1.007-3.936-2.263z" fill="#7DC4F1"/><path d="M413.082 185.283c1.542-.889 4.032-.889 5.561 0 .369.199.681.487.909.838a2.567 2.567 0 01-.928.85c-1.539.889-4.028.889-5.558 0a2.488 2.488 0 01-.912-.838c.233-.357.552-.649.928-.85z" fill="url(#paint8_linear)"/><path d="M399.591 213.787l2.673 1.543a.774.774 0 00.697-.029l3.965-2.286c.206-.117.228-.297.051-.402l-2.677-1.54a.758.758 0 00-.696.029l-3.962 2.283c-.206.114-.231.294-.051.402z" fill="url(#paint9_linear)"/><path d="M381.508 213.243l7.448 4.295a1.517 1.517 0 001.365-.057l20.383-11.759c.402-.234.447-.585.098-.787l-7.448-4.295a1.517 1.517 0 00-1.365.057l-20.399 11.758c-.389.235-.431.589-.082.788z" fill="url(#paint10_linear)"/><path d="M434.48 156.809c0-.876-.205-1.572-.308-1.81h-6.442c.103.238.308.934.308 1.81 0 1.096-.641 2.437-.641 3.532 0 1.095.333 2.079.333 3.107h6.442c0-1.028-.333-2.012-.333-3.107 0-1.095.641-2.436.641-3.532z" fill="url(#paint11_linear)"/><defs><linearGradient id="paint0_linear" x1="48.963" y1="55.011" x2="20.538" y2="37.167" gradientUnits="userSpaceOnUse"><stop stop-color="#DBF2FF"/><stop offset="1" stop-color="#DBF2FF" stop-opacity="0"/></linearGradient><linearGradient id="paint1_linear" x1="298.526" y1="56.297" x2="333.048" y2="35.205" gradientUnits="userSpaceOnUse"><stop stop-color="#DBF2FF"/><stop offset="1" stop-color="#DBF2FF" stop-opacity="0"/></linearGradient><linearGradient id="paint2_linear" x1="174.975" y1="227.442" x2="174.975" y2="252.942" gradientUnits="userSpaceOnUse"><stop stop-color="#DBF2FF"/><stop offset="1" stop-color="#DBF2FF" stop-opacity="0"/></linearGradient><linearGradient id="paint3_linear" x1="349.027" y1="127.403" x2="393.153" y2="127.403" gradientUnits="userSpaceOnUse"><stop stop-color="#DBF2FF"/><stop offset="1" stop-color="#DBF2FF" stop-opacity="0"/></linearGradient><linearGradient id="paint4_linear" x1="175.465" y1="28.134" x2="174.975" y2=".884" gradientUnits="userSpaceOnUse"><stop stop-color="#DBF2FF"/><stop offset="1" stop-color="#DBF2FF" stop-opacity="0"/></linearGradient><linearGradient id="paint5_linear" x1="51.645" y1="197.038" x2="15.887" y2="219.486" gradientUnits="userSpaceOnUse"><stop stop-color="#DBF2FF"/><stop offset="1" stop-color="#DBF2FF" stop-opacity="0"/></linearGradient><linearGradient id="paint6_linear" x1="420.042" y1="183.904" x2="420.042" y2="191.24" gradientUnits="userSpaceOnUse"><stop stop-color="#458CB9"/><stop offset="1" stop-color="#60A8D6"/></linearGradient><linearGradient id="paint7_linear" x1="420.205" y1="191.965" x2="411.338" y2="190.063" gradientUnits="userSpaceOnUse"><stop stop-color="#B3D9F1"/><stop offset="1" stop-color="#FEFEFD"/></linearGradient><linearGradient id="paint8_linear" x1="419.571" y1="185.956" x2="412.287" y2="185.956" gradientUnits="userSpaceOnUse"><stop stop-color="#DAA58F"/><stop offset="1" stop-color="#AF8278"/></linearGradient><linearGradient id="paint9_linear" x1="403.283" y1="211.003" x2="403.283" y2="215.399" gradientUnits="userSpaceOnUse"><stop stop-color="#CBC9DA"/><stop offset="1" stop-color="#CCCBD6"/></linearGradient><linearGradient id="paint10_linear" x1="403.012" y1="200.857" x2="388.915" y2="216.999" gradientUnits="userSpaceOnUse"><stop stop-color="#CAC9DA"/><stop offset="1" stop-color="#CCCBD6"/></linearGradient><linearGradient id="paint11_linear" x1="430.939" y1="154.999" x2="430.939" y2="163.448" gradientUnits="userSpaceOnUse"><stop stop-color="#fff" stop-opacity="0"/><stop offset=".406" stop-color="#fff"/><stop offset="1" stop-color="#fff" stop-opacity="0"/></linearGradient></defs></svg>