<svg width="1919" height="402" fill="none" xmlns="http://www.w3.org/2000/svg"><mask id="a" maskUnits="userSpaceOnUse" x="0" y="0" width="1920" height="402"><path fill="url(#paint0_radial)" d="M0 .5h1920v401H0z"/></mask><g mask="url(#a)" stroke-miterlimit="10"><path d="M-680.36 368.72L-22.825-11m-598.219 413.981L36.491 23.261m-598.219 413.981L95.807 57.522M-502.41 471.48L155.124 91.76M-443.118 505.74l657.558-379.72m-598.241 413.958l657.535-379.72M-324.484 574.24l657.535-379.72m-598.219 413.981l657.536-379.72m-598.22 413.958l657.535-379.72M-146.535 677L511 297.28m-1190.993 2.734l652.458 376.779m-592.774-411.246L32.149 642.326m-592.774-411.247L91.833 607.858M-500.94 196.611L151.517 573.39m-592.751-411.247l652.435 376.779m-592.75-411.246l652.435 376.778M-321.866 93.208l652.435 376.779M-262.181 58.74l652.435 376.779M-202.498 24.272l652.435 376.779m-592.75-411.247l652.435 376.779" stroke="url(#paint1_linear)"/><path d="M1487.42 21.603l503.82-290.953M1532.87 47.855l503.82-290.953M1578.31 74.107l503.83-290.953m-458.37 317.187l503.82-290.953M1669.2 126.592l503.84-290.952m-458.39 317.187l503.82-290.953M1760.1 179.078l503.82-290.952M1805.55 205.33l503.82-290.952M1851 231.564l503.82-290.952m-458.37 317.204l503.82-290.953M1487.7-31.04l499.93 288.699m-454.2-315.11l499.93 288.7m-454.2-315.11l499.93 288.699m-454.2-315.109l499.93 288.699m-454.18-315.109l499.92 288.699m-454.19-315.109l499.92 288.699m-454.19-315.11l499.92 288.7m-454.18-315.11l499.91 288.7m-454.18-315.11l499.91 288.699M1899.3-268.733l499.91 288.699" stroke="url(#paint2_linear)"/></g><defs><radialGradient id="paint0_radial" cx="0" cy="0" r="1" gradientUnits="userSpaceOnUse" gradientTransform="rotate(139.284 674.653 265.904) scale(1165.68 1173.72)"><stop stop-color="#70B1E0"/><stop offset="1" stop-color="#4F9AD0"/></radialGradient><linearGradient id="paint1_linear" x1="213.574" y1="406.471" x2="341.628" y2="208.751" gradientUnits="userSpaceOnUse"><stop stop-color="#49D5FF"/><stop offset="1" stop-color="#49D5FF" stop-opacity="0"/></linearGradient><linearGradient id="paint2_linear" x1="2022.7" y1="131.715" x2="1952.44" y2="269.062" gradientUnits="userSpaceOnUse"><stop stop-color="#49D5FF"/><stop offset="1" stop-color="#49D5FF" stop-opacity="0"/></linearGradient></defs></svg>