<svg width="49" height="49" xmlns="http://www.w3.org/2000/svg" xmlns:xlink="http://www.w3.org/1999/xlink"><defs><circle id="a" cx="24.5" cy="24.5" r="24.5"/></defs><g fill="none" fill-rule="evenodd"><mask id="b" fill="#fff"><use xlink:href="#a"/></mask><g mask="url(#b)"><circle fill="#77BCE8" cx="24.5" cy="24.5" r="24.5"/><path d="M25.058 24.115c-2.627.036-4.888-2.153-4.841-6.172.038-3.174 2.564-4.943 5.035-4.907 2.473.037 4.586 1.667 4.658 5.205.084 3.93-2.446 5.841-4.852 5.874zm.082 1.184c10.427.294 11.035 8.265 11.035 8.265s-4.502 1.623-11.816 1.419c-7.313-.207-10.36-1.964-10.36-1.964s.826-8.011 11.14-7.72z" fill="#AEE2FF"/><path d="M30.431 34.1c-4.514-.039-8.142-3.727-8.103-8.237.039-4.511 3.73-8.135 8.244-8.095 4.514.039 8.142 3.727 8.103 8.237-.038 4.51-3.729 8.136-8.244 8.095m.833 3.566h.099a.6.6 0 0 1 .594.605l-.112 13.148a.598.598 0 0 1-.604.593l-1.506-.014a.599.599 0 0 1-.594-.604l.112-13.147a.598.598 0 0 1 .603-.593h.002l.016-1.886c-5.19-.33-9.279-4.66-9.233-9.92.046-5.442 4.5-9.814 9.944-9.767 5.447.048 9.824 4.497 9.777 9.94-.044 5.15-4.036 9.341-9.083 9.734l-.015 1.91z" fill="#FFF"/></g></g></svg>
