<svg width="49" height="49" xmlns="http://www.w3.org/2000/svg" xmlns:xlink="http://www.w3.org/1999/xlink"><defs><circle id="a" cx="24.5" cy="24.5" r="24.5"/></defs><g fill="none" fill-rule="evenodd"><mask id="b" fill="#fff"><use xlink:href="#a"/></mask><g mask="url(#b)"><circle fill="#EC8266" cx="24.5" cy="24.5" r="24.5"/><path d="M25.058 24.115c-2.627.036-4.888-2.153-4.841-6.172.038-3.174 2.564-4.943 5.035-4.907 2.473.037 4.586 1.667 4.658 5.205.084 3.93-2.446 5.841-4.852 5.874zm.082 1.184c10.427.294 11.035 8.265 11.035 8.265s-4.502 1.623-11.816 1.419c-7.313-.207-10.36-1.964-10.36-1.964s.826-8.011 11.14-7.72z" fill="#FFC3B7"/><g fill="#FFF"><path d="M34.88 38.855c3.511 0 6.358-2.74 6.358-6.118v-7.529c0-3.379-2.847-6.117-6.358-6.117-3.512 0-6.358 2.738-6.358 6.117v7.53c0 3.378 2.846 6.117 6.358 6.117"/><path d="M43.944 32.796v-2.542h-1.216v2.542c0 4.115-3.48 7.463-7.756 7.463-4.277 0-7.756-3.348-7.756-7.463v-2.901H26v2.901c0 4.302 3.287 7.878 7.572 8.527V49.7h-3.72c-1.322 0-2.393 1.03-2.393 2.3h14.473c0-1.27-1.07-2.3-2.391-2.3h-3.537V41.37c4.463-.494 7.94-4.15 7.94-8.574"/></g></g></g></svg>
