<svg width="49" height="49" xmlns="http://www.w3.org/2000/svg" xmlns:xlink="http://www.w3.org/1999/xlink"><defs><circle id="a" cx="24.5" cy="24.5" r="24.5"/></defs><g fill="none" fill-rule="evenodd"><mask id="b" fill="#fff"><use xlink:href="#a"/></mask><use fill="#51A9E1" xlink:href="#a"/><g mask="url(#b)"><circle fill="#51A9E1" cx="24.5" cy="24.5" r="24.5"/><path d="M12.264 22.329h11.873V36l-11.873-4.76V22.33zm6.705-7.788l5.04 6.966-11.83.086L10 18.348l8.969-3.807zm5.894 7.788h11.873v8.912L24.863 36V22.328zm5.168-7.788L39 18.348l-2.178 3.245-11.831-.086 5.04-6.966z" fill="#C2E9FF"/><path d="M37.843 36.864c-2.103-.907-3.08-3.365-2.182-5.49.898-2.125 3.331-3.111 5.434-2.204 2.102.906 3.08 3.365 2.181 5.49-.898 2.126-3.331 3.112-5.433 2.204m7.37 1.81c.976-.89 3.831-.254 3.831-.254l.932-2.202s-2.397-1.732-2.496-2.855c.008-.203.01-.406.002-.61.2-1.3 2.518-2.8 2.518-2.8l-.884-2.223s-2.98.503-3.796-.259c-.087-.095-.18-.184-.273-.275l-.006-.01c-.75-.837-.185-3.856-.185-3.856l-2.18-.94s-1.635 2.467-2.95 2.498a.27.27 0 0 0-.12.024 6.89 6.89 0 0 0-.18-.003c.028-.057.003-.097-.128-.103-1.315-.06-2.896-2.562-2.896-2.562l-2.199.892s.5 3.031-.263 3.843c-.08.086-.054.124.03.133-.073.07-.142.143-.212.215-.014-.06-.057-.06-.134.01-.823.752-3.81.182-3.81.182l-.93 2.202s2.441 1.651 2.471 2.982c.005.13.038.174.094.15-.002.069-.005.138-.005.206-.058-.043-.1-.036-.106.076-.053 1.119-2.566 2.85-2.566 2.85l.883 2.221s2.884-.575 3.835.343c.081.08.125.078.153.043.038.041.077.082.117.122-.04.026-.028.078.051.167.888.982.256 3.881.256 3.881l2.18.94s1.766-2.499 2.875-2.529c.08-.003.112-.023.11-.055.14.005.28.004.42 0 1.11.194 2.719 2.575 2.719 2.575l2.199-.892s-.518-2.658.23-3.732c.142-.127.278-.258.412-.395" fill="#FFF"/></g></g></svg>
