<svg width="568" height="356" fill="none" xmlns="http://www.w3.org/2000/svg"><path d="M66.996 305.64L171 245.136c36.487 21.12 86.407 29.859 133.786 26.218" stroke="url(#paint0_linear)" stroke-miterlimit="10"/><path d="M484.86 63.248l-88.041 51.344c62.264 36.05 62.264 94.676 0 130.726l-47.741-27.674" stroke="url(#paint1_linear)" stroke-miterlimit="10"/><path d="M401.539 68.346c-77.149-27.31-176.626-25.307-250.508 6.009" stroke="url(#paint2_linear)" stroke-miterlimit="10"/><path d="M101.837 102.758c-54.095 42.786-57.545 100.32-10.347 145.109" stroke="url(#paint3_linear)" stroke-miterlimit="10"/><path d="M59.178 183.415c3.71 0 6.716-1.794 6.716-4.006s-3.007-4.005-6.716-4.005c-3.71 0-6.717 1.793-6.717 4.005 0 2.212 3.008 4.006 6.717 4.006zM476.51 114.41c2.607 0 4.72-1.223 4.72-2.731 0-1.508-2.113-2.731-4.72-2.731-2.606 0-4.719 1.223-4.719 2.731 0 1.508 2.113 2.731 4.719 2.731zM509.366 183.415c3.71 0 6.717-1.794 6.717-4.006s-3.007-4.005-6.717-4.005c-3.709 0-6.716 1.793-6.716 4.005 0 2.212 3.007 4.006 6.716 4.006zM388.288 299.575c3.709 0 6.716-1.793 6.716-4.005 0-2.213-3.007-4.006-6.716-4.006-3.71 0-6.717 1.793-6.717 4.006 0 2.212 3.007 4.005 6.717 4.005zM166.279 293.385c2.106 0 3.812-.978 3.812-2.185 0-1.206-1.706-2.185-3.812-2.185-2.105 0-3.812.979-3.812 2.185 0 1.207 1.707 2.185 3.812 2.185zM284.091 50.868c2.105 0 3.812-.979 3.812-2.185 0-1.207-1.707-2.185-3.812-2.185-2.105 0-3.812.978-3.812 2.185 0 1.206 1.707 2.185 3.812 2.185zM101.837 104.942c2.105 0 3.812-.978 3.812-2.184 0-1.207-1.707-2.185-3.812-2.185-2.105 0-3.812.978-3.812 2.185 0 1.206 1.707 2.184 3.812 2.184zM202.403 61.246c3.008 0 5.446-1.386 5.446-3.095 0-1.71-2.438-3.096-5.446-3.096-3.007 0-5.445 1.386-5.445 3.096 0 1.709 2.438 3.095 5.445 3.095z" fill="#FF9C00"/><path d="M463.44 258.792c56.637-42.969 60.993-101.777 12.889-147.113" stroke="url(#paint4_linear)" stroke-miterlimit="10"/><path d="M363.6 99.662c-60.994-20.391-140.321-15.475-192.42 14.748L82.958 63.43" stroke="url(#paint5_linear)" stroke-miterlimit="10"/><path d="M128.158 155.922c-7.805 17.661-6.535 36.596 4.357 54.075" stroke="url(#paint6_linear)" stroke-miterlimit="10"/><path d="M284.091 310.317v45.645" stroke="url(#paint7_linear)" stroke-miterlimit="10"/><path d="M58.089 179.409H0" stroke="url(#paint8_linear)" stroke-miterlimit="10"/><path d="M284.091 48.683V5.638" stroke="url(#paint9_linear)" stroke-miterlimit="10"/><path d="M510.093 179.409H568" stroke="url(#paint10_linear)" stroke-miterlimit="10"/><path d="M166.279 291.2c86.771 30.77 201.859 24.397 277.012-19.117l60.056 34.496" stroke="url(#paint11_linear)" stroke-miterlimit="10"/><path d="M368.501 172.308v17.479c0 12.563-8.169 24.944-24.506 34.411-32.857 19.118-86.407 19.118-119.445 0-16.701-9.649-25.051-22.394-24.87-34.957v-17.479c0 12.563 8.351 25.308 24.87 34.958 33.038 19.117 86.588 19.117 119.445 0 16.337-9.468 24.506-21.849 24.506-34.412z" fill="url(#paint12_linear)"/><path d="M368.541 172.282c.077-27.149-37.653-49.266-84.271-49.398-46.619-.133-84.473 21.769-84.549 48.919-.077 27.149 37.653 49.266 84.271 49.398 46.619.133 84.473-21.769 84.549-48.919z" fill="#fff"/><path d="M368.501 151.188v17.479c0 12.563-8.169 24.944-24.506 34.411-32.857 19.117-86.407 19.117-119.445 0-16.701-9.65-25.051-22.394-24.87-34.957v-17.479c0 12.563 8.351 25.308 24.87 34.957 33.038 19.118 86.588 19.118 119.445 0 16.337-9.467 24.506-22.03 24.506-34.411z" fill="url(#paint13_linear)"/><path d="M368.404 151.117c.077-27.15-37.652-49.266-84.271-49.399-46.619-.132-84.473 21.77-84.549 48.919-.077 27.15 37.653 49.267 84.271 49.399 46.619.133 84.473-21.769 84.549-48.919z" fill="#fff"/><path d="M368.501 129.886v17.479c0 12.563-8.169 24.943-24.506 34.411-32.857 19.117-86.407 19.117-119.445 0-16.701-9.65-25.051-22.395-24.87-34.957V129.34c0 12.563 8.351 25.308 24.87 34.957 33.038 19.118 86.588 19.118 119.445 0 16.337-9.467 24.506-22.03 24.506-34.411z" fill="url(#paint14_linear)"/><path d="M368.432 129.788c.076-27.15-37.653-49.267-84.272-49.4-46.618-.132-84.472 21.77-84.549 48.92-.077 27.149 37.653 49.266 84.272 49.398 46.618.133 84.472-21.769 84.549-48.918z" fill="#fff"/><g clip-path="url(#clip0)"><path d="M368.912 130.225c.077-27.006-37.917-49.006-84.861-49.139-46.944-.132-85.062 21.654-85.139 48.66-.077 27.007 37.916 49.007 84.861 49.14 46.944.132 85.062-21.654 85.139-48.661z" fill="#FFDFAC"/><path d="M337.78 98.436c13.696 7.615 22.357 18.036 22.559 29.46v5.611c-.202-11.423-8.661-21.844-22.559-29.46v-5.611zM207.862 127.896c-.402-23.047 33.638-41.886 75.735-41.886 21.149 0 40.284 4.81 54.183 12.426v5.611c-13.899-7.615-33.235-12.225-54.384-12.225-42.098 0-75.936 18.638-75.735 41.685.201-1.603.201-4.008.201-5.611z" fill="#FFBB50"/><path d="M360.246 132.006c.066-23.243-34.034-42.181-76.165-42.3-42.132-.119-76.339 18.627-76.405 41.87-.066 23.243 34.034 42.181 76.165 42.3 42.131.118 76.339-18.627 76.405-41.87z" fill="url(#paint15_linear)"/></g><path d="M368.501 172.308v17.479c0 12.563-8.169 24.944-24.506 34.411-32.857 19.118-86.407 19.118-119.445 0-16.701-9.649-25.051-22.394-24.87-34.957v-17.479c0 12.563 8.351 25.308 24.87 34.958 33.038 19.117 86.588 19.117 119.445 0 16.337-9.468 24.506-21.849 24.506-34.412z" fill="url(#paint16_linear)"/><path d="M368.541 172.282c.077-27.149-37.653-49.266-84.271-49.398-46.619-.133-84.473 21.769-84.549 48.919-.077 27.149 37.653 49.266 84.271 49.398 46.619.133 84.473-21.769 84.549-48.919z" fill="#fff"/><path d="M368.501 151.188v17.479c0 12.563-8.169 24.944-24.506 34.411-32.857 19.117-86.407 19.117-119.445 0-16.701-9.65-25.051-22.394-24.87-34.957v-17.479c0 12.563 8.351 25.308 24.87 34.957 33.038 19.118 86.588 19.118 119.445 0 16.337-9.467 24.506-22.03 24.506-34.411z" fill="url(#paint17_linear)"/><path d="M368.404 151.117c.077-27.15-37.652-49.266-84.271-49.399-46.619-.132-84.473 21.77-84.549 48.919-.077 27.15 37.653 49.267 84.271 49.399 46.619.133 84.473-21.769 84.549-48.919z" fill="#fff"/><path d="M368.501 129.886v17.479c0 12.563-8.169 24.943-24.506 34.411-32.857 19.117-86.407 19.117-119.445 0-16.701-9.65-25.051-22.395-24.87-34.957V129.34c0 12.563 8.351 25.308 24.87 34.957 33.038 19.118 86.588 19.118 119.445 0 16.337-9.467 24.506-22.03 24.506-34.411z" fill="url(#paint18_linear)"/><path d="M368.432 129.788c.076-27.15-37.653-49.267-84.272-49.4-46.618-.132-84.472 21.77-84.549 48.92-.077 27.149 37.653 49.266 84.272 49.398 46.618.133 84.472-21.769 84.549-48.918z" fill="#fff"/><g clip-path="url(#clip1)"><path d="M368.912 130.225c.077-27.006-37.917-49.006-84.861-49.139-46.944-.132-85.062 21.654-85.139 48.66-.077 27.007 37.916 49.007 84.861 49.14 46.944.132 85.062-21.654 85.139-48.661z" fill="#D3EEFF"/><path d="M337.78 98.436c13.696 7.615 22.357 18.036 22.559 29.46v5.611c-.202-11.423-8.661-21.844-22.559-29.46v-5.611zM207.862 127.896c-.402-23.047 33.638-41.886 75.735-41.886 21.149 0 40.284 4.81 54.183 12.426v5.611c-13.899-7.615-33.235-12.225-54.384-12.225-42.098 0-75.936 18.638-75.735 41.685.201-1.603.201-4.008.201-5.611z" fill="#B1E1FF"/><path d="M360.246 132.006c.066-23.243-34.034-42.181-76.165-42.3-42.132-.119-76.339 18.627-76.405 41.87-.066 23.243 34.034 42.181 76.165 42.3 42.131.118 76.339-18.627 76.405-41.87z" fill="url(#paint19_linear)"/></g><defs><linearGradient id="paint0_linear" x1="132.591" y1="269.719" x2="78.97" y2="298.352" gradientUnits="userSpaceOnUse"><stop stop-color="#FF9C00"/><stop offset="1" stop-color="#FF9C00" stop-opacity="0"/></linearGradient><linearGradient id="paint1_linear" x1="448.003" y1="88.384" x2="484.86" y2="68.21" gradientUnits="userSpaceOnUse"><stop stop-color="#FF9C00"/><stop offset="1" stop-color="#FF9C00" stop-opacity="0"/></linearGradient><linearGradient id="paint2_linear" x1="401.539" y1="69.79" x2="151.031" y2="74.355" gradientUnits="userSpaceOnUse"><stop stop-color="#FF9C00" stop-opacity="0"/><stop offset=".21" stop-color="#FF9C00"/><stop offset=".479" stop-color="#FF9C00"/><stop offset=".818" stop-color="#FF9C00"/><stop offset="1" stop-color="#FF9C00" stop-opacity="0"/></linearGradient><linearGradient id="paint3_linear" x1="75.429" y1="229.228" x2="88.886" y2="247.867" gradientUnits="userSpaceOnUse"><stop stop-color="#FF9C00"/><stop offset="1" stop-color="#FF9C00" stop-opacity="0"/></linearGradient><linearGradient id="paint4_linear" x1="481.45" y1="243.522" x2="463.44" y2="258.792" gradientUnits="userSpaceOnUse"><stop stop-color="#FF9C00"/><stop offset="1" stop-color="#92C9EC" stop-opacity="0"/><stop offset="1" stop-color="#FF9C00" stop-opacity="0"/></linearGradient><linearGradient id="paint5_linear" x1="127.347" y1="88.92" x2="79.392" y2="63.431" gradientUnits="userSpaceOnUse"><stop stop-color="#FF9C00"/><stop offset="1" stop-color="#FF9C00" stop-opacity="0"/></linearGradient><linearGradient id="paint6_linear" x1="127.841" y1="154.782" x2="132.515" y2="209.997" gradientUnits="userSpaceOnUse"><stop stop-color="#fff" stop-opacity="0"/><stop offset=".234" stop-color="#FF9C00"/><stop offset=".496" stop-color="#FF9C00"/><stop offset=".771" stop-color="#FF9C00"/><stop offset="1" stop-color="#FF9C00" stop-opacity="0"/></linearGradient><linearGradient id="paint7_linear" x1="284.591" y1="310.317" x2="284.591" y2="355.962" gradientUnits="userSpaceOnUse"><stop stop-color="#FF9C00"/><stop offset="1" stop-color="#FF9C00" stop-opacity="0"/></linearGradient><linearGradient id="paint8_linear" y1="179.672" x2="52.252" y2="162.189" gradientUnits="userSpaceOnUse"><stop stop-color="#FFBF59" stop-opacity="0"/><stop offset="1" stop-color="#FF9C00"/></linearGradient><linearGradient id="paint9_linear" x1="284.091" y1="48.683" x2="284.091" y2="5.638" gradientUnits="userSpaceOnUse"><stop stop-color="#FF9C00"/><stop offset="1" stop-color="#FF9C00" stop-opacity="0"/></linearGradient><linearGradient id="paint10_linear" x1="509.482" y1="179.848" x2="568" y2="179.848" gradientUnits="userSpaceOnUse"><stop stop-color="#FF9C00"/><stop offset="1" stop-color="#FF9C00" stop-opacity="0"/></linearGradient><linearGradient id="paint11_linear" x1="443.415" y1="272.083" x2="503.347" y2="307.097" gradientUnits="userSpaceOnUse"><stop offset=".039" stop-color="#FF9C00"/><stop offset="1" stop-color="#FF9C00" stop-opacity="0"/></linearGradient><linearGradient id="paint12_linear" x1="199.677" y1="189.326" x2="368.501" y2="186.868" gradientUnits="userSpaceOnUse"><stop stop-color="#FFBF59"/><stop offset=".506" stop-color="#FF9C00"/><stop offset="1" stop-color="#FFBF59"/></linearGradient><linearGradient id="paint13_linear" x1="199.677" y1="168.206" x2="368.501" y2="165.747" gradientUnits="userSpaceOnUse"><stop stop-color="#FFBF59"/><stop offset=".506" stop-color="#FF9C00"/><stop offset="1" stop-color="#FFBF59"/></linearGradient><linearGradient id="paint14_linear" x1="199.677" y1="146.904" x2="368.501" y2="144.445" gradientUnits="userSpaceOnUse"><stop stop-color="#FFBF59"/><stop offset=".506" stop-color="#FF9C00"/><stop offset="1" stop-color="#FFBF59"/></linearGradient><linearGradient id="paint15_linear" x1="232.053" y1="102.266" x2="332.498" y2="163.833" gradientUnits="userSpaceOnUse"><stop stop-color="#fff"/><stop offset="1" stop-color="#F8FCFF"/></linearGradient><linearGradient id="paint16_linear" x1="199.677" y1="189.326" x2="368.501" y2="186.868" gradientUnits="userSpaceOnUse"><stop stop-color="#C8EAFF"/><stop offset=".506" stop-color="#92C9EC"/><stop offset="1" stop-color="#B8E3FF"/></linearGradient><linearGradient id="paint17_linear" x1="199.677" y1="168.206" x2="368.501" y2="165.747" gradientUnits="userSpaceOnUse"><stop stop-color="#C8EAFF"/><stop offset=".506" stop-color="#92C9EC"/><stop offset="1" stop-color="#B8E3FF"/></linearGradient><linearGradient id="paint18_linear" x1="199.677" y1="146.904" x2="368.501" y2="144.445" gradientUnits="userSpaceOnUse"><stop stop-color="#C8EAFF"/><stop offset=".506" stop-color="#92C9EC"/><stop offset="1" stop-color="#B8E3FF"/></linearGradient><linearGradient id="paint19_linear" x1="232.053" y1="102.266" x2="332.498" y2="163.833" gradientUnits="userSpaceOnUse"><stop stop-color="#fff"/><stop offset="1" stop-color="#F8FCFF"/></linearGradient><clipPath id="clip0"><path fill="#fff" transform="translate(199 81)" d="M0 0h170v98H0z"/></clipPath><clipPath id="clip1"><path fill="#fff" transform="translate(199 81)" d="M0 0h170v98H0z"/></clipPath></defs></svg>