<svg width="72" height="72" fill="none" xmlns="http://www.w3.org/2000/svg"><path d="M50.425 20.796L63.483 37.62l7.105-6.197-12.051-15.865-8.112 5.238zM22.853 20.786L8.517 38.487 1.412 32.29l13.33-16.733 8.111 5.23z" fill="#0E486A"/><path d="M63.934 37.832l.13-.277-.187-.241L50.82 20.49l-.15-.193H39.782l-.068.02-8.117 2.375-8.61-2.387-.315-.087-.206.254-14.336 17.7-.242.3.227.31 6.834 9.334-.45.456s0 0 0 0a4.159 4.159 0 000 5.829 4.039 4.039 0 003.619 1.142 4.164 4.164 0 00.81 4.66h0a4.04 4.04 0 004.023 1.046 4.158 4.158 0 001.017 4.111 4.043 4.043 0 004.62.82 4.151 4.151 0 001.122 3.678 4.042 4.042 0 005.77 0l1.34-1.358.99.808a4.043 4.043 0 005.75-.02 4.159 4.159 0 001.023-4.09 4.042 4.042 0 004.041-1.042 4.158 4.158 0 001.024-4.092 4.042 4.042 0 004.041-1.041 4.158 4.158 0 001.023-4.091 4.042 4.042 0 004.042-1.042 4.161 4.161 0 00.238-5.566l4.943-10.492z" fill="#92C9EC" stroke="#000" stroke-width=".998"/><path d="M71.707 30.551L59.656 14.685a1.4 1.4 0 00-1.877-.334L50 19.366H39.85c-.131 0-.262.029-.388.066l-7.868 2.295-8.164-2.263-7.933-5.113a1.398 1.398 0 00-1.856.309L.313 31.393c-.479.601-.4 1.479.178 1.983l6.986 6.093 6.268 8.56c-1.833 1.98-1.797 5.101.11 7.035a4.941 4.941 0 003.026 1.452 5.163 5.163 0 00-.058.774c0 1.35.519 2.62 1.461 3.575a4.924 4.924 0 003.528 1.481l.054-.001c0 .034-.003.068-.003.103 0 1.35.52 2.62 1.462 3.575a4.926 4.926 0 004.307 1.42 5.06 5.06 0 001.435 3.078A4.938 4.938 0 0032.594 72a4.94 4.94 0 003.529-1.479l.763-.773.32.262a4.937 4.937 0 003.47 1.42 4.938 4.938 0 003.527-1.479 5.078 5.078 0 001.458-3.655 4.945 4.945 0 003.607-1.477 5.082 5.082 0 001.458-3.653 4.927 4.927 0 003.606-1.48 5.078 5.078 0 001.458-3.655 4.941 4.941 0 003.607-1.478c1.694-1.717 1.912-4.371.655-6.33l4.577-9.714 6.88-6a1.444 1.444 0 00.198-1.958zm-56.66-13.1l5.704 3.677L8.343 36.449 3.37 32.112l11.677-14.66zm.805 32.485l1.721-1.745a2.145 2.145 0 011.34-.634l.036-.001a2.14 2.14 0 011.73.68c.798.854.755 2.25-.096 3.112l-1.669 1.692a2.148 2.148 0 01-3.062 0 2.219 2.219 0 010-3.104zm4.429 8.905a2.193 2.193 0 01-.635-1.551c0-.587.226-1.138.635-1.553l3.338-3.383a2.167 2.167 0 012.462-.43c.843.406 1.317 1.333 1.193 2.266a2.329 2.329 0 01-.645 1.322l-3.285 3.33c-.41.414-.953.642-1.532.642a2.137 2.137 0 01-1.531-.643zM25.32 64a2.193 2.193 0 01-.634-1.551c0-.587.225-1.138.634-1.553l3.338-3.383a2.168 2.168 0 012.618-.348c.765.451 1.165 1.337 1.034 2.218-.072.485-.3.941-.642 1.288L28.384 64c-.409.414-.953.642-1.531.642A2.137 2.137 0 0125.32 64zm5.742 4.499a2.218 2.218 0 010-3.104l1.721-1.745c.053-.053.107-.102.163-.15l.004-.002a2.146 2.146 0 011.168-.481c.025-.003.05-.003.075-.004.05-.003.1-.007.151-.006a2.139 2.139 0 011.685.854c.649.86.562 2.138-.244 2.955l-1.66 1.683a2.148 2.148 0 01-3.063 0zM57.4 52.529a2.147 2.147 0 01-3.063 0 1.27 1.27 0 00-.096-.087l-9.078-9.298a1.399 1.399 0 00-1.997-.01 1.444 1.444 0 00-.01 2.023l9.176 9.397.004.004a2.219 2.219 0 010 3.104c-.41.415-.953.643-1.532.643a2.135 2.135 0 01-1.531-.643l-6.139-6.286a1.398 1.398 0 00-1.996-.01 1.445 1.445 0 00-.01 2.023l6.044 6.19c.03.039.064.076.099.112a2.219 2.219 0 010 3.104 2.149 2.149 0 01-3.064 0l-3.35-3.432a1.399 1.399 0 00-1.997-.01 1.444 1.444 0 00-.01 2.023l3.257 3.335c.03.039.063.077.1.112a2.219 2.219 0 010 3.105 2.147 2.147 0 01-3.063 0c-.097-.099-.212-.175-.32-.26-.093-.07-.117-.12-.07-.234.046-.115.116-.22.162-.335.052-.129.094-.262.134-.396.217-.707.28-1.467.183-2.201a5.045 5.045 0 00-2.108-3.482 4.918 4.918 0 00-2.1-.825c.363-1.626-.074-3.389-1.21-4.605a4.922 4.922 0 00-3.705-1.582c.03-1.314-.44-2.62-1.334-3.576a4.925 4.925 0 00-3.557-1.582 5.014 5.014 0 00-1.204.13 5.037 5.037 0 00-1.65-3.067 4.911 4.911 0 00-3.192-1.227 4.962 4.962 0 00-3.408 1.3l-5.458-7.453 13.057-16.12 4.16 1.153-5.434 9.719a5.082 5.082 0 00-.467 3.84 5.013 5.013 0 003.184 3.434 4.895 4.895 0 002.955.092 4.969 4.969 0 003.01-2.38l3.532-6.317 6.305.454L57.4 49.425a2.22 2.22 0 010 3.104zm.585-6.559L42.233 30.007a1.403 1.403 0 00-.898-.415l-7.72-.556a1.43 1.43 0 00-1.329.722l-3.97 7.102c-.285.51-.75.877-1.307 1.033a2.127 2.127 0 01-1.645-.206 2.177 2.177 0 01-1.02-1.324 2.204 2.204 0 01.203-1.668l5.3-9.48 2.148-.627.043-.014 8.016-2.346h9.686L61.83 37.806l-3.846 8.164zm5.696-10.41L52.499 21.146l5.707-3.678 10.448 13.755-4.973 4.337z" fill="#fff"/><path d="M43.62 16.68c.361 0 .723-.14.998-.42l9.644-9.773a1.444 1.444 0 000-2.024 1.398 1.398 0 00-1.997 0l-9.643 9.774a1.445 1.445 0 000 2.024c.275.279.637.419.998.419zM27.382 16.26a1.399 1.399 0 001.997 0 1.445 1.445 0 000-2.023l-9.644-9.774a1.398 1.398 0 00-1.997 0 1.444 1.444 0 000 2.024l9.644 9.774zM36 16.68c.78 0 1.412-.641 1.412-1.431V7.16c0-.79-.632-1.43-1.412-1.43-.78 0-1.411.64-1.411 1.43v8.089c0 .79.632 1.43 1.411 1.43zM34.697 1.974c.224.55.783.912 1.372.88a1.428 1.428 0 001.274-.99A1.453 1.453 0 0036.86.292a1.412 1.412 0 00-1.642-.055 1.452 1.452 0 00-.52 1.737z" fill="#92C9EC"/></svg>