<svg width="72" height="72" fill="none" xmlns="http://www.w3.org/2000/svg"><rect x="9" width="54" height="72" rx="4" fill="#92C9EC"/><path d="M16 59h20.066M16 37.824h39M16 46.824h39M40 20h15M40 29h15M40 11h15" stroke="#fff" stroke-width="2"/><path fill="#fff" d="M17 9.823h17v20H17z"/><path d="m28.137 12.46-.005.002a3.45 3.45 0 0 0-4.968 0 3.633 3.633 0 0 0-1.024 2.55c0 1.001.39 1.903 1.024 2.553a3.459 3.459 0 0 0 2.487 1.057c.97 0 1.847-.404 2.481-1.057l.005.003a3.662 3.662 0 0 0 1.023-2.556c0-.998-.391-1.9-1.023-2.553ZM25.65 30.646H16.09V9H35.212v21.647h-9.56Zm7.222-2.404v-.304c0-1.795-.794-3.583-2.146-4.89-1.265-1.223-3.02-2.024-5.076-2.024-2.056 0-3.813.8-5.077 2.024-1.352 1.307-2.149 3.095-2.149 4.89v.304h14.448Z" fill="#103654"/></svg>