<svg width="72" height="72" fill="none" xmlns="http://www.w3.org/2000/svg"><g clip-path="url(#a)"><path d="M42.001 72c-7.11-.135-13.628-2.688-18.987-7.974C17.843 58.923 12.649 53.839 7.619 48.6 1.922 42.668-.526 35.487.093 27.288c.349-4.597 1.857-8.812 4.375-12.67 2.169-3.326 6.6-4.007 9.506-1.285 3.146 2.947 6.187 6.012 9.158 9.135 2.318 2.436 2.186 6.155-.13 8.599-.934.987-1.921 1.923-2.875 2.89-1.066 1.08-1.075 2.26-.005 3.332 4.852 4.859 9.711 9.712 14.57 14.562 1.075 1.074 2.248 1.071 3.331.003.9-.889 1.784-1.794 2.69-2.68 2.69-2.637 6.504-2.657 9.18-.017a788.687 788.687 0 0 1 8.403 8.402c3.123 3.174 2.594 7.69-1.148 10.086-4.495 2.879-9.427 4.29-15.147 4.355Z" fill="#92C9EC"/><path d="M52.996.006c4.102 0 8.204-.003 12.308 0C69.32.01 71.997 2.694 72 6.712c.003 5.387.006 10.777 0 16.164-.003 3.965-2.7 6.65-6.676 6.653-4.994 0-9.987.008-14.978-.012-.487 0-.822.144-1.162.487-2.375 2.398-4.769 4.777-7.155 7.164-.66.664-1.415.993-2.352.675-.911-.31-1.432-1.057-1.437-2.103a325.14 325.14 0 0 1 .008-5.975c.006-.442-.14-.633-.534-.827-2.406-1.186-3.678-3.14-3.689-5.826a2055.18 2055.18 0 0 1-.003-16.656C34.031 2.77 36.78.028 40.48.01 44.651-.009 48.824.006 53 .006h-.003Zm-8.412 16.867c1.145-.008 2.099-.978 2.09-2.12a2.129 2.129 0 0 0-2.121-2.089c-1.145.008-2.099.979-2.09 2.12.008 1.144.979 2.098 2.12 2.09Zm8.44-4.209c-1.142-.011-2.113.942-2.124 2.086-.011 1.142.945 2.112 2.087 2.123a2.13 2.13 0 0 0 2.124-2.086c.012-1.145-.942-2.112-2.087-2.123Zm8.432 4.21a2.13 2.13 0 0 0 2.096-2.115 2.129 2.129 0 0 0-2.116-2.095c-1.145.006-2.102.97-2.096 2.114.006 1.145.97 2.1 2.116 2.095Z" fill="#103654"/></g><defs><clipPath id="a"><path fill="#fff" d="M0 0h72v72H0z"/></clipPath></defs></svg>