<svg width="72" height="72" fill="none" xmlns="http://www.w3.org/2000/svg"><path d="M20.237 36.369c-.022.72.074 1.44.282 2.129.206.594.464 1.169.77 1.718.109.16.171.346.179.54a.923.923 0 0 1-.462.717l-1.513 1c-.18.13-.394.2-.616.206a.975.975 0 0 1-.718-.334 6.106 6.106 0 0 1-.872-1.102c-.23-.41-.462-.873-.718-1.411A8.823 8.823 0 0 1 9.54 43.14a6.515 6.515 0 0 1-4.77-1.719 6.052 6.052 0 0 1-1.745-4.591 6.233 6.233 0 0 1 2.155-4.925 8.798 8.798 0 0 1 5.874-1.847c.858-.004 1.716.056 2.565.18.898.128 1.796.307 2.744.512v-1.744a5.284 5.284 0 0 0-1.128-3.822 5.438 5.438 0 0 0-3.899-1.103 11.29 11.29 0 0 0-2.565.308c-.875.207-1.732.482-2.565.82l-.847.309H5c-.359 0-.513-.257-.513-.744v-1.18a1.59 1.59 0 0 1 .154-.821c.191-.22.427-.394.693-.513.96-.462 1.966-.823 3-1.077a14.622 14.622 0 0 1 3.72-.462 8.645 8.645 0 0 1 6.259 1.95 7.695 7.695 0 0 1 1.975 5.873l-.051 7.824ZM10.54 40.01a7.695 7.695 0 0 0 2.565-.436 5.131 5.131 0 0 0 2.257-1.539c.396-.428.678-.948.821-1.513.166-.68.243-1.378.23-2.078v-1.077a19.286 19.286 0 0 0-2.282-.334h-2.257a5.464 5.464 0 0 0-3.54.95 3.335 3.335 0 0 0-1.18 2.77 3.335 3.335 0 0 0 .872 2.565 3.411 3.411 0 0 0 2.514.692Zm19.212 2.565c-.325.03-.65-.05-.923-.23-.26-.26-.439-.59-.513-.95l-5.592-18.468a3.567 3.567 0 0 1-.205-.975c0-.385.18-.59.564-.59h2.36c.325-.03.65.051.923.231.25.263.42.593.488.95l4.027 15.954 3.77-15.93c.04-.36.203-.695.462-.948.282-.18.616-.261.95-.231h1.923c.341-.03.683.05.975.23.24.267.4.596.461.95l3.72 15.929 4.13-16.006c.068-.357.237-.686.487-.95.273-.179.598-.26.924-.23h2.231a.538.538 0 0 1 .59.59c.01.128.01.256 0 .385 0 0 0 .333-.154.59l-5.797 18.468a1.898 1.898 0 0 1-.487.95 1.54 1.54 0 0 1-.924.23h-2.052a1.36 1.36 0 0 1-.949-.256 1.642 1.642 0 0 1-.462-.95l-3.719-15.39-3.694 15.39a1.642 1.642 0 0 1-.461.95 1.41 1.41 0 0 1-.95.256l-2.103.051Zm30.781.616a16.132 16.132 0 0 1-3.694-.41 10.797 10.797 0 0 1-2.744-.95 1.769 1.769 0 0 1-.744-.666 1.693 1.693 0 0 1-.154-.693v-1.206c0-.487.18-.744.539-.744a1.46 1.46 0 0 1 .461 0l.59.257a12.21 12.21 0 0 0 2.565.82c.936.204 1.89.308 2.848.309a6.336 6.336 0 0 0 3.488-.795 2.565 2.565 0 0 0 1.231-2.258 2.258 2.258 0 0 0-.64-1.667 5.874 5.874 0 0 0-2.412-1.257l-3.463-1.103a7.259 7.259 0 0 1-3.822-2.411 5.747 5.747 0 0 1-1.206-3.489 5.13 5.13 0 0 1 .642-2.565 6.335 6.335 0 0 1 1.718-1.975 7.694 7.694 0 0 1 2.566-1.231 10.516 10.516 0 0 1 3.026-.41c.53-.038 1.061-.038 1.59 0l1.565.256 1.36.385 1 .41c.269.159.51.358.718.59.143.24.215.516.206.795v1.129c0 .513-.18.77-.54.77a2.36 2.36 0 0 1-.922-.308 11.159 11.159 0 0 0-4.618-.924 6.438 6.438 0 0 0-3.18.667 2.36 2.36 0 0 0-1.129 2.155 2.334 2.334 0 0 0 .718 1.693 7.13 7.13 0 0 0 2.565 1.308l3.386 1.077a7.388 7.388 0 0 1 3.694 2.309 5.387 5.387 0 0 1 1.103 3.36 6.104 6.104 0 0 1-.616 2.77 6.003 6.003 0 0 1-1.744 2.104 7.698 7.698 0 0 1-2.565 1.36c-1.12.36-2.287.55-3.463.564l.077-.026Z" fill="#92C9EC"/><path fill-rule="evenodd" clip-rule="evenodd" d="M64.972 54.991a51.481 51.481 0 0 1-29.114 8.901A52.686 52.686 0 0 1 .306 50.348c-.744-.666 0-1.59.821-1.077a71.335 71.335 0 0 0 35.552 9.44 70.644 70.644 0 0 0 27.138-5.54c1.334-.565 2.463.871 1.155 1.82Z" fill="#103654"/><path fill-rule="evenodd" clip-rule="evenodd" d="M68.255 51.323c-1.026-1.308-6.67-.615-9.208-.308-.77 0-.873-.59-.18-1.077 4.489-3.155 11.876-2.257 12.825-1.18.95 1.077-.23 8.465-4.463 12.005-.641.538-1.257.23-.975-.462.872-2.437 3.001-7.747 2.001-8.978Z" fill="#103654"/></svg>