<svg width="72" height="72" viewBox="0 0 72 72" fill="none" xmlns="http://www.w3.org/2000/svg">
<g clip-path="url(#clip0)">
<ellipse cx="24.5455" cy="31.9091" rx="23.7273" ry="23.7273" stroke="#92C9EC"/>
<rect x="45" y="57.2727" width="8.18182" height="21.2727" rx="4.09091" transform="rotate(-45 45 57.2727)" stroke="#92C9EC"/>
<path d="M41.7273 48.2727L47.798 54.3434" stroke="#92C9EC"/>
<path d="M5.83759 30.2643H16.4932L24.0464 42.5454L28.9613 30.2643H35.2166L39.8176 18.7676M67.3233 21.1083L55.264 21.1082L47.0883 0.599915L42.3206 12.5131" stroke="#92C9EC"/>
<circle cx="23.7273" cy="41.7273" r="1.95455" fill="white" stroke="#92C9EC"/>
<path d="M30.5909 30.2727C30.5909 31.3522 29.7158 32.2273 28.6364 32.2273C27.5569 32.2273 26.6818 31.3522 26.6818 30.2727C26.6818 29.1933 27.5569 28.3182 28.6364 28.3182C29.7158 28.3182 30.5909 29.1933 30.5909 30.2727Z" fill="white" stroke="#92C9EC"/>
<path d="M48.5909 2.45455C48.5909 3.53401 47.7158 4.40909 46.6364 4.40909C45.5569 4.40909 44.6818 3.53401 44.6818 2.45455C44.6818 1.37508 45.5569 0.5 46.6364 0.5C47.7158 0.5 48.5909 1.37508 48.5909 2.45455Z" fill="white" stroke="#92C9EC"/>
<path d="M57.5909 20.4545C57.5909 21.534 56.7158 22.4091 55.6364 22.4091C54.5569 22.4091 53.6818 21.534 53.6818 20.4545C53.6818 19.3751 54.5569 18.5 55.6364 18.5C56.7158 18.5 57.5909 19.3751 57.5909 20.4545Z" fill="white" stroke="#92C9EC"/>
<path d="M7.68183 30.2727C7.68183 31.3522 6.80675 32.2273 5.72728 32.2273C4.64782 32.2273 3.77274 31.3522 3.77274 30.2727C3.77274 29.1933 4.64782 28.3182 5.72728 28.3182C6.80675 28.3182 7.68183 29.1933 7.68183 30.2727Z" fill="white" stroke="#92C9EC"/>
<path d="M18.3182 30.2727C18.3182 31.3522 17.4431 32.2273 16.3636 32.2273C15.2842 32.2273 14.4091 31.3522 14.4091 30.2727C14.4091 29.1933 15.2842 28.3182 16.3636 28.3182C17.4431 28.3182 18.3182 29.1933 18.3182 30.2727Z" fill="white" stroke="#92C9EC"/>
<path d="M64.9955 23.795L67.691 21.0996L64.9955 18.4041" stroke="#92C9EC"/>
</g>
<defs>
<clipPath id="clip0">
<rect width="72" height="72" fill="white"/>
</clipPath>
</defs>
</svg>
