<svg width="88" height="88" fill="none" xmlns="http://www.w3.org/2000/svg"><g clip-path="url(#clip0)" stroke="#92C9EC"><path clip-rule="evenodd" d="M70.332 74.878c-2.18-3.246-7.45-5.711-11.933-6.973-4.483-1.263-5.921-4.073-5.603-5.38.318-1.308 1.301-.902 2.298-2.768.85-1.59 1.427-5.304 1.427-5.304s2.044-.676 2.272-3.741c.227-3.067 0-4.194-.773-4.555-.773-.36-1.09-.315-1.09-.315s.504-4.362.508-5.276c.004-1.157.109-2.293-.218-3.471-1.179-4.238-6.063-6.041-11.733-5.952-5.67.091-5.758 1.804-6.936 3.067-1.177 1.261-1.962.27-3.01 2.209-.632 1.172-.022 6.718-.022 6.718.19 1.535.403 2.705.403 2.705s-.318-.045-1.09.316c-.772.36-1 1.487-.772 4.554.227 3.065 2.27 3.741 2.27 3.741s.578 3.714 1.429 5.304c.995 1.866 1.98 1.46 2.298 2.767.318 1.308-1.121 4.118-5.604 5.381-4.482 1.262-9.753 3.727-11.934 6.973-1.648 2.455-1.392 6.596-1.17 8.468.067.554 8.96 3.321 25.287 3.321 16.328 0 24.8-2.767 24.866-3.321.223-1.872.48-6.013-1.17-8.468z"/><path d="M52.187 15.405h0a1.827 1.827 0 00-.516 1.606v.001l1.306 7.712-6.822-3.636h0a1.789 1.789 0 00-1.681 0h0l-6.821 3.636 1.304-7.712h0a1.84 1.84 0 00-.515-1.606h0l-5.533-5.468 7.639-1.125c.29-.043.565-.157.801-.33.237-.175.427-.404.556-.668 0 0 0 0 0 0l3.41-7.006 3.41 7.006c.128.264.318.493.554.667l.297-.402-.297.402c.237.174.512.288.802.33h0l7.639 1.126-5.533 5.467zM72.952 18.605l-2.847 2.824a1.258 1.258 0 00-.354 1.104l.67 3.976-3.496-1.87a1.232 1.232 0 00-1.162 0l-3.497 1.87.628-4.57a1.261 1.261 0 00-.311-.51l-2.847-2.824 3.926-.58a1.233 1.233 0 00.935-.69l1.747-3.603 1.748 3.604a1.252 1.252 0 00.935.689l3.925.58zM26.91 17.796c.163.12.353.2.553.229l3.926.58-2.847 2.824a1.259 1.259 0 00-.354 1.104l.67 3.976-3.497-1.87a1.232 1.232 0 00-1.16 0l-3.498 1.87.628-4.57a1.262 1.262 0 00-.312-.51l-2.846-2.824 3.925-.58a1.233 1.233 0 00.935-.69l1.748-3.603 1.747 3.604c.088.181.22.34.382.46zm0 0l.28-.38"/></g><defs><clipPath id="clip0"><path fill="#fff" d="M0 0h88v88H0z"/></clipPath></defs></svg>