<svg width="32" height="40" fill="none" xmlns="http://www.w3.org/2000/svg"><g clip-path="url(#clip0)"><path d="M12.151 13.838a7.402 7.402 0 01-3.142-3.575 7.38 7.38 0 012.336-8.698 7.423 7.423 0 019.025 0 7.38 7.38 0 012.336 8.698 7.4 7.4 0 01-3.142 3.575l-2.232-3.857a2.944 2.944 0 001.374-3.31 2.953 2.953 0 00-5.697 0 2.936 2.936 0 001.374 3.31l-2.232 3.857z" fill="#F85050"/><path d="M28.024 15.629a7.4 7.4 0 013.142 3.575 7.38 7.38 0 01-2.335 8.698 7.423 7.423 0 01-9.025 0 7.38 7.38 0 01-2.336-8.698 7.401 7.401 0 013.142-3.575l2.232 3.857a2.945 2.945 0 00-1.374 3.31 2.942 2.942 0 002.848 2.18 2.954 2.954 0 002.848-2.18 2.936 2.936 0 00-1.373-3.31l2.231-3.857z" fill="#4F4FCC"/><path d="M14.969 22.034c0 1.628-.539 3.21-1.532 4.502a7.428 7.428 0 01-8.717 2.33 7.408 7.408 0 01-3.583-3.134 7.382 7.382 0 011.178-8.928 7.419 7.419 0 018.947-1.175l-2.231 3.857a2.955 2.955 0 00-3.56.467 2.94 2.94 0 00.957 4.8 2.955 2.955 0 003.468-.928c.395-.514.609-1.143.609-1.791h4.464z" fill="#30D930"/><path fill-rule="evenodd" clip-rule="evenodd" d="M2.26 31.203a8.181 8.181 0 011.886.034c.385.068.793.167 1.082.447.303.337.377.805.444 1.237.109.895.096 1.804 0 2.7-.065.438-.128.91-.415 1.266-.314.317-.777.408-1.201.474a8.51 8.51 0 01-1.892.034c-.427-.044-.872-.119-1.234-.361-.235-.149-.361-.411-.447-.665-.172-.53-.194-1.093-.217-1.645-.003-.73.011-1.467.154-2.184.077-.335.17-.704.454-.927.4-.29.908-.36 1.386-.41zm.104 1c.532-.043 1.075-.055 1.6.048.204.04.445.14.483.37.16.652.122 1.33.129 1.997-.02.473-.009.963-.168 1.416-.139.298-.517.322-.802.366-.572.032-1.166.061-1.721-.108-.256-.068-.337-.342-.376-.572-.107-.68-.072-1.374-.059-2.06.028-.385.023-.784.162-1.15.16-.245.488-.267.752-.307zM7.97 33.278c.38-.242.854-.28 1.293-.241.41.035.866.174 1.086.551.262.473.277 1.032.295 1.56-.012.542-.022 1.109-.246 1.613-.129.307-.423.508-.739.587-.483.118-1.014.13-1.48-.062-.252-.098-.426-.311-.57-.53v2.48H6.545v-6.158c.345-.002.69-.002 1.033 0-.012.211-.024.422-.03.634.128-.156.247-.327.421-.434zm.346.554c.298-.023.613-.029.892.094.176.076.27.262.3.442.094.466.082.947.049 1.419-.033.284-.079.653-.393.763a1.72 1.72 0 01-1.135-.013c-.334-.14-.373-.543-.406-.855-.02-.48-.044-.974.092-1.44.072-.265.348-.39.6-.41zM11.917 33.286c.524-.268 1.136-.278 1.71-.25.478.04 1.058.119 1.321.575.297.55.249 1.198.29 1.802h-2.91c.033.312-.007.648.15.934.135.225.42.272.662.285.299.002.62.026.895-.112.158-.123.159-.342.18-.523h1.02c-.012.355-.058.752-.343 1.002-.428.383-1.041.423-1.59.433-.483-.014-.994-.038-1.427-.276-.35-.207-.463-.63-.524-1.005a6.521 6.521 0 01-.032-1.678c.055-.44.173-.958.598-1.187zm.623.676c.29-.177.65-.14.976-.136.202.022.448.033.58.212.134.22.11.49.111.737-.626.001-1.252.003-1.878 0 .01-.275-.012-.61.21-.813zM17.505 33.283c.368-.255.844-.29 1.277-.24.369.038.76.179.977.496.193.264.247.6.25.918-.002.974 0 1.947-.001 2.92h-1.01c-.002-.92 0-1.841-.002-2.762-.01-.2-.002-.433-.154-.588-.162-.175-.416-.21-.642-.208-.273-.001-.57.046-.78.234-.206.175-.284.458-.285.719-.002.869 0 1.737-.001 2.605h-1.01v-4.3h.993c-.001.252-.026.502-.034.754.109-.204.223-.418.422-.548zM21.838 31.4c.557-.188 1.152-.214 1.735-.235.565.003 1.156.008 1.684.236.268.111.453.355.544.625.147.403.152.84.155 1.264l-1.167-.001c-.006-.298.017-.633-.168-.887-.188-.19-.48-.19-.729-.22-.505-.009-1.032-.041-1.516.133-.174.055-.265.23-.3.397-.1.45-.1.915-.1 1.374.007.614-.003 1.236.128 1.84.035.221.239.357.443.406.473.117.966.1 1.448.072.252-.033.559-.05.717-.28.168-.275.14-.614.131-.922.393-.002.785-.002 1.178 0-.005.487-.014.991-.191 1.453a.923.923 0 01-.525.54c-.481.191-1.008.203-1.518.234-.59.01-1.19-.004-1.767-.142-.34-.088-.71-.243-.867-.579-.2-.444-.237-.938-.288-1.417a20.544 20.544 0 01-.056-1.897c.03-.513.077-1.053.354-1.5.148-.248.407-.403.675-.495zM26.212 31.22c.406.001.811-.01 1.216.006.395 1.248.828 2.484 1.226 3.73.155.48.264.972.424 1.45.18-.515.295-1.05.47-1.567.39-1.205.789-2.407 1.177-3.613.4-.017.802-.002 1.202-.008v.133c-.658 2.003-1.302 4.011-1.947 6.02-.602.011-1.206.013-1.808-.002-.642-2.053-1.315-4.096-1.96-6.148z" fill="#050505"/></g><defs><clipPath id="clip0"><path fill="#fff" d="M0 0h31.927v39.236H0z"/></clipPath></defs></svg>