<svg width="171" height="59" fill="none" xmlns="http://www.w3.org/2000/svg"><path d="M32.844 35.144a5.696 5.696 0 100-11.392 5.696 5.696 0 000 11.392z" fill="#00D8FF"/><path clip-rule="evenodd" d="M32.844 17.866c7.647 0 14.752 1.098 20.109 2.942 6.454 2.222 10.422 5.59 10.422 8.64 0 3.178-4.205 6.756-11.136 9.052-5.24 1.736-12.136 2.643-19.395 2.643-7.444 0-14.492-.851-19.79-2.662C6.348 36.19 2.31 32.565 2.31 29.448c0-3.025 3.789-6.367 10.152-8.586 5.377-1.874 12.657-2.995 20.38-2.995h0z" stroke="#00D8FF" stroke-width="2.725"/><path clip-rule="evenodd" d="M22.762 23.69c3.82-6.624 8.32-12.23 12.594-15.95 5.15-4.48 10.05-6.236 12.691-4.712 2.753 1.587 3.752 7.018 2.279 14.17-1.113 5.406-3.774 11.832-7.4 18.12-3.72 6.448-7.977 12.13-12.193 15.814-5.334 4.663-10.49 6.35-13.191 4.793-2.621-1.51-3.623-6.463-2.366-13.084 1.062-5.594 3.728-12.46 7.585-19.15h0z" stroke="#00D8FF" stroke-width="2.725"/><path clip-rule="evenodd" d="M22.772 35.336c-3.832-6.618-6.44-13.317-7.53-18.877-1.31-6.7-.383-11.821 2.256-13.35 2.75-1.591 7.954.256 13.414 5.103 4.128 3.666 8.367 9.179 12.004 15.462 3.73 6.441 6.524 12.968 7.611 18.46 1.376 6.95.263 12.26-2.435 13.822-2.618 1.516-7.41-.089-12.517-4.485-4.316-3.713-8.934-9.452-12.803-16.136v0z" stroke="#00D8FF" stroke-width="2.725"/><path fill-rule="evenodd" clip-rule="evenodd" d="M96.072 44L89.09 33.454c3.528-.312 6.708-2.868 6.708-7.539 0-4.753-3.373-7.795-8.104-7.795h-10.39v25.862h3.218V33.705h5.157l6.592 10.276 3.8.02zm-8.764-13.105h-6.785v-9.888h6.785c3.065 0 5.158 2.016 5.158 4.925s-2.094 4.966-5.157 4.966v-.003zm20.746 13.57c3.064 0 5.583-1.008 7.445-2.869l-1.396-1.9c-1.475 1.512-3.645 2.364-5.777 2.364-4.032 0-6.515-2.946-6.748-6.473h15.16v-.738c0-5.621-3.335-10.043-8.997-10.043-5.351 0-9.227 4.383-9.227 9.81 0 5.856 3.994 9.834 9.538 9.834l.002.015zm5.818-11.014H101.58c.156-2.868 2.131-6.244 6.126-6.244 4.266 0 6.126 3.452 6.166 6.244zM136.052 44V31.126c0-4.537-3.294-6.322-7.25-6.322-3.065 0-5.467 1.008-7.483 3.103l1.357 2.016c1.666-1.783 3.491-2.598 5.739-2.598 2.714 0 4.732 1.434 4.732 3.955v3.373c-1.513-1.746-3.645-2.56-6.205-2.56-3.18 0-6.556 1.978-6.556 6.165 0 4.071 3.373 6.205 6.556 6.205 2.52 0 4.654-.892 6.205-2.598v2.13l2.905.004zm-8.063-1.629c-2.714 0-4.615-1.704-4.615-4.07 0-2.405 1.901-4.111 4.615-4.111 2.055 0 4.032.775 5.158 2.327v3.529c-1.125 1.55-3.103 2.327-5.158 2.327v-.002zm22.125 2.095c3.412 0 5.428-1.397 6.864-3.257l-1.939-1.783c-1.241 1.667-2.83 2.442-4.753 2.442-3.994 0-6.474-3.102-6.474-7.25 0-4.149 2.482-7.212 6.474-7.212 1.939 0 3.529.738 4.753 2.442l1.939-1.783c-1.434-1.862-3.452-3.256-6.864-3.256-5.584 0-9.345 4.266-9.345 9.81 0 5.584 3.761 9.833 9.345 9.833v.014zm15.668 0c1.704 0 2.753-.505 3.491-1.202l-.853-2.171c-.388.426-1.147.775-1.978.775-1.278 0-1.901-1.008-1.901-2.404V27.83h3.802v-2.558h-3.802v-5.119h-2.909v5.119h-3.102v2.56h3.102v12.253c0 2.793 1.396 4.383 4.15 4.383v-.003z" fill="#00D8FF"/></svg>