<svg width="72" height="71" fill="none" xmlns="http://www.w3.org/2000/svg"><g clip-path="url(#clip0)"><path d="M71.445 0h-71v71h71V0z" fill="#F7DF1E"/><path d="M48.139 55.469c1.43 2.335 3.29 4.051 6.581 4.051 2.765 0 4.53-1.381 4.53-3.29 0-2.288-1.814-3.098-4.857-4.43l-1.668-.715c-4.814-2.051-8.013-4.62-8.013-10.053 0-5.004 3.813-8.813 9.771-8.813 4.242 0 7.292 1.477 9.49 5.342l-5.196 3.336c-1.144-2.051-2.378-2.86-4.294-2.86-1.954 0-3.192 1.24-3.192 2.86 0 2.002 1.24 2.812 4.102 4.052l1.668.714c5.669 2.43 8.87 4.91 8.87 10.481 0 6.007-4.72 9.298-11.056 9.298-6.197 0-10.2-2.953-12.158-6.823l5.422-3.15zm-23.57.578c1.049 1.86 2.002 3.432 4.295 3.432 2.192 0 3.574-.858 3.574-4.193V32.6h6.672v22.776c0 6.909-4.05 10.053-9.962 10.053-5.342 0-8.436-2.764-10.01-6.094l5.432-3.288z" fill="#000"/></g><defs><clipPath id="clip0"><path fill="#fff" transform="translate(.444)" d="M0 0h71v71H0z"/></clipPath></defs></svg>