<svg width="66" height="35" fill="none" xmlns="http://www.w3.org/2000/svg"><g clip-path="url(#clip0)"><path d="M50.135 29.676c7.908-7.908 9.223-19.415 2.935-25.702C46.784-2.313 35.277-.998 27.37 6.91c-7.909 7.908-5.621 23.016-2.936 25.702 2.17 2.17 17.794 4.972 25.702-2.936z" fill="#F89939"/><path d="M17.684 18.25C13.095 13.66 6.418 12.896 2.77 16.545-.878 20.194-.115 26.872 4.474 31.459c4.589 4.59 13.355 3.262 14.913 1.703 1.26-1.258 2.886-10.324-1.703-14.913z" fill="#3499CD"/><path d="M33.514 27.738c-.81.746-1.522 1.297-2.133 1.65-.61.356-1.194.533-1.748.533-.638 0-1.153-.247-1.543-.742-.391-.495-.586-1.16-.586-1.995 0-1.252.272-2.755.814-4.507a28.61 28.61 0 011.976-4.848l2.272-.841a.566.566 0 01.162-.036c.172 0 .314.127.424.38.11.254.166.595.166 1.024 0 1.217-.28 2.394-.841 3.533-.561 1.14-1.437 2.355-2.63 3.65-.048.62-.071 1.045-.071 1.278 0 .52.095.93.286 1.234.19.305.444.456.76.456.323 0 .665-.115 1.029-.348.363-.232.918-.715 1.663-1.449v1.028zm-3.425-3.496a10.913 10.913 0 001.842-2.83c.471-1.046.706-1.944.706-2.697 0-.22-.032-.398-.097-.532-.066-.134-.15-.202-.251-.202-.22 0-.54.55-.961 1.648-.421 1.098-.834 2.636-1.24 4.613z" fill="#010101"/><path d="M40.205 27.738c-.758.746-1.437 1.297-2.04 1.65a3.855 3.855 0 01-1.994.533c-.811 0-1.465-.26-1.964-.778-.497-.52-.746-1.201-.746-2.048 0-1.264.438-2.408 1.316-3.43.875-1.023 1.847-1.534 2.915-1.534.554 0 .998.143 1.332.43.334.286.501.661.501 1.126 0 1.235-1.311 2.236-3.935 3.005.238 1.162.861 1.744 1.87 1.744.393 0 .768-.105 1.126-.317.358-.212.897-.682 1.619-1.409v1.028zm-4.687-1.654c1.526-.43 2.29-1.222 2.29-2.38 0-.571-.21-.857-.626-.857-.394 0-.77.299-1.127.899-.358.599-.537 1.378-.537 2.338z" fill="#010101"/><path d="M49.756 27.738c-.954.907-1.636 1.497-2.047 1.772-.412.274-.805.411-1.181.411-.943 0-1.386-.831-1.333-2.495-.596.852-1.147 1.481-1.65 1.888-.504.405-1.024.607-1.561.607-.524 0-.97-.245-1.337-.737s-.55-1.096-.55-1.812c0-.894.246-1.747.737-2.558a6.071 6.071 0 011.892-1.967c.769-.501 1.45-.752 2.04-.752.745 0 1.267.343 1.565 1.029l1.828-1.01h.501l-.79 2.62c-.405 1.318-.608 2.221-.608 2.71 0 .513.181.769.545.769.232 0 .489-.124.769-.371.28-.248.673-.625 1.18-1.132v1.028zm-6.547.493c.597 0 1.158-.508 1.687-1.525.528-1.017.791-1.955.791-2.814 0-.333-.075-.594-.223-.782a.725.725 0 00-.6-.282c-.596 0-1.161.507-1.694 1.521-.534 1.014-.8 1.947-.8 2.799 0 .322.079.583.236.783.158.2.358.3.603.3z" fill="#010101"/><path d="M56.438 27.738c-1.497 1.467-2.651 2.2-3.462 2.2-.364 0-.671-.153-.92-.46-.25-.306-.377-.687-.377-1.14 0-.84.451-1.967 1.351-3.38a4.989 4.989 0 01-1.449.473c-.387.715-.996 1.485-1.824 2.307h-.206v-.804c.465-.483.886-1.002 1.261-1.557-.513-.226-.77-.563-.77-1.01 0-.46.157-.95.47-1.472.314-.521.744-.782 1.293-.782.465 0 .697.238.697.715 0 .376-.134.912-.402 1.61.99-.107 1.854-.864 2.594-2.272l.813-.036-.831 2.29c-.346.966-.57 1.624-.67 1.972a3.378 3.378 0 00-.153.926c0 .25.058.45.174.599.116.15.273.224.47.224.214 0 .42-.073.617-.219.197-.147.638-.55 1.324-1.212v1.028z" fill="#010101"/><path d="M65.221 27.738c-1.377 1.456-2.558 2.183-3.542 2.183-.4 0-.721-.14-.966-.42-.245-.28-.367-.656-.367-1.127 0-.638.263-1.613.788-2.924.28-.704.42-1.152.42-1.342 0-.19-.075-.286-.223-.286-.083 0-.194.042-.331.125-.126.083-.272.2-.439.349a14.195 14.195 0 00-1.019 1.073l-.502.582c-.22.268-.357.55-.41.849-.09.506-.15.972-.18 1.396-.018.315-.027.741-.027 1.279l-1.976.464a24.638 24.638 0 01-.099-1.797c0-.96.112-1.87.336-2.728.223-.86.582-1.825 1.078-2.899l2.181-.42c-.459 1.235-.76 2.206-.903 2.916.978-1.091 1.754-1.846 2.328-2.267.574-.421 1.085-.63 1.531-.63a.97.97 0 01.76.343c.202.23.303.517.303.862 0 .572-.256 1.514-.768 2.826-.352.9-.529 1.484-.529 1.754 0 .359.147.538.44.538.436 0 1.142-.576 2.116-1.726v1.027z" fill="#010101"/><path d="M38.69 17.01h-.466a.429.429 0 00-.181-.345c-.114-.082-.267-.123-.458-.123-.195 0-.343.034-.445.102a.331.331 0 00-.15.295c0 .09.03.16.092.21.062.05.18.094.355.135l.466.108c.327.077.552.175.677.294.126.118.189.282.189.492 0 .302-.103.536-.308.703-.205.165-.497.247-.876.247-.365 0-.647-.086-.845-.258-.196-.173-.298-.422-.305-.744h.466c.015.193.084.338.205.437.12.096.293.144.516.144.205 0 .367-.04.486-.12a.374.374 0 00.182-.327c0-.104-.028-.183-.084-.237-.056-.054-.174-.102-.353-.145l-.534-.137c-.3-.073-.509-.168-.626-.284-.118-.116-.177-.275-.177-.479 0-.263.094-.469.282-.618.19-.15.452-.224.787-.224s.602.08.802.237a.752.752 0 01.303.626v.011zM41.535 17.16h-.469a.615.615 0 00-.192-.445c-.116-.105-.274-.158-.476-.158a.625.625 0 00-.548.28c-.128.183-.192.446-.192.786 0 .351.063.618.187.8.127.183.31.274.553.274a.64.64 0 00.466-.177.811.811 0 00.223-.492h.453c-.021.344-.137.614-.347.808-.21.195-.492.292-.845.292-.368 0-.657-.132-.866-.397-.209-.267-.313-.636-.313-1.108 0-.461.11-.824.329-1.09.22-.264.52-.397.9-.397.337 0 .608.094.813.282.207.186.315.433.324.742zM42.024 16.223h.474v2.819h-.474v-2.819zm0-1.058h.474v.545h-.474v-.545zM43.208 15.165h.474v2.308l1.203-1.25h.586l-1.007 1.03.997 1.788h-.53l-.786-1.45-.463.469v.982h-.474v-3.877zM45.919 16.223h.473v2.819h-.473v-2.819zm0-1.058h.473v.545h-.473v-.545zM47.19 15.436h.473v.787h.498v.377h-.498v1.731c0 .128.017.213.05.255.034.04.093.06.177.06.04 0 .082 0 .126-.002l.145-.013v.405c-.08.014-.155.025-.221.032a1.82 1.82 0 01-.19.01c-.203 0-.348-.043-.434-.131-.084-.088-.126-.24-.126-.456V16.6h-.416v-.376h.416v-.787z" fill="#fff"/></g><defs><clipPath id="clip0"><path fill="#fff" transform="translate(.464)" d="M0 0h64.757v34.924H0z"/></clipPath></defs></svg>