<svg width="173" height="56" fill="none" xmlns="http://www.w3.org/2000/svg"><mask id="a" maskUnits="userSpaceOnUse" x="0" y="0" width="67" height="56"><path d="M0 36.75V.179L16.71 18.53 33.494.18l16.56 18.256L66.736.18v36.655L50.24 55.413 33.493 37.085 16.747 55.413 0 36.75z" fill="#fff"/></mask><g mask="url(#a)"><path d="M0 36.75V.179L16.71 18.53 33.494.18l16.56 18.256L66.736.18v36.655L50.24 55.413 33.493 37.085 16.747 55.413 0 36.75z" fill="#5B2E6E"/><path d="M8.374 27.796l8.373-9.206L0 .179l8.374 27.617z" fill="url(#paint0_linear)"/><path d="M0 .179l6.132 6.678 6.64 21.293-6.454 1.982L0 .179z" fill="url(#paint1_linear)"/><path d="M8.309 30.348l-2.435-8.095 9.154-5.537 3.632 3.97L8.31 30.348z" fill="url(#paint2_linear)"/><path d="M49.99 18.506l16.747 18.328V.18L49.99 18.506z" fill="url(#paint3_linear)"/><path d="M49.995 18.514l3.486-3.81 13.256 14.85v7.28l-16.742-18.32z" fill="url(#paint4_linear)"/><path d="M50.24 55.413l16.497-18.579L43.99 11.728l6.249 43.685z" fill="url(#paint5_linear)"/><path d="M33.493 37.085L50.24 55.413l-6.249-43.685-10.498 25.357z" fill="url(#paint6_linear)"/><path d="M16.747 55.413l16.746-18.328V.18L16.747 55.413z" fill="url(#paint7_linear)"/><path d="M16.747 55.413l6.548-7.167L33.493 10.96V.179L16.747 55.413z" fill="url(#paint8_linear)"/><path d="M33.493 37.085l10.498-25.357L33.493.179v36.906z" fill="url(#paint9_linear)"/><path d="M8.248 27.76c.574 1.887 8.5 27.653 8.5 27.653L33.493.179 8.248 27.76z" fill="url(#paint10_linear)"/><path d="M7.57 28.485l5.927-6.46 8.386 27.772-5.136 5.615L7.57 28.485z" fill="url(#paint11_linear)"/><path d="M0 36.955l16.747 18.458L0 .179 0 36.955z" fill="url(#paint12_linear)"/></g><path d="M172.716 34.575l-4.999-6.026 4.999-6.026c.098-.319.221-.635.25-1.004-.029-.824-.721-1.506-1.5-1.506-.531 0-.951.219-1.25.502l-4.249 5.523-4.499-5.523a1.788 1.788 0 00-1.25-.502c-.779 0-1.471.682-1.499 1.506.028.369.152.661.25 1.005l4.999 6.025-4.999 6.026a1.446 1.446 0 01-.25.502c-.169.885.325 1.738 1.249 2.008.534.12 1.153-.149 1.5-.753l4.499-5.272 4.249 5.272c.348.604.991.872 1.5.753.925-.27 1.419-1.098 1.25-2.008a1.649 1.649 0 01-.25-.502zm-16.497-13.056c0-.823-.677-1.506-1.5-1.506-.822 0-1.475.658-1.499 1.506 0-.018 0 .006 0 0 0 .006 0 .03 0 0v14.06c0-.055 0-.03 0 0 0 .823.677 1.506 1.499 1.506.823 0 1.5-.683 1.5-1.506 0-.055 0-.08 0 0v-14.06c-.024.055 0 .055 0 0zm-24.495 7.03c0-4.731-3.81-8.536-8.498-8.536-4.689 0-8.499 3.829-8.499 8.536 0 4.536 3.541 8.22 7.999 8.536.109-.049.207 0 .25 0 .885 0 1.568-.683 1.499-1.506.069-.835-.566-1.494-1.249-1.507-.122-.036-.147-.036-.25 0 .079-.036.079-.036 0 0 .054-.036.054-.036 0 0-2.314-.133-4.268-1.694-4.999-3.766h11.997c.163-.074.187-.05.25 0 .792-.05 1.476-.733 1.5-1.506 0-.129-.024-.202 0-.251zm-13.747-1.255c.619-2.446 2.773-4.268 5.499-4.268 2.475 0 4.654 1.822 5.249 4.268h-10.748zm-4.749-6.277c-.27-.683-1.105-1.17-2-1.004-.43.199-.773.589-1 1.004l-2.999 11.298-4.999-6.277c-.216-.316-.584-.487-1-.502-.418.015-.786.186-1 .502l-4.999 6.277-3-11.298c-.204-.415-.572-.805-.999-1.004-.898-.167-1.732.32-2 1.004-.027.365-.002.584 0 .753l3.75 14.31c.223.369.59.807 1.25 1.005.519.12 1.132-.149 1.5-.753l5.498-6.779 5.499 6.779c.413.604 1.051.872 1.75.753.455-.198.823-.612.999-1.004l3.75-14.31c0-.145.024-.389 0-.754zm28.994-1.004c-2.125-.062-4.005.745-5.499 2.008v-9.289c.004.034.029.01 0 0 .029-.822-.655-1.506-1.5-1.506-.816 0-1.475.66-1.499 1.506 0 .01 0 .034 0 0 0 .034 0 .058 0 0v15.566c.024.11 0 .16 0 .251 0 4.699 3.809 8.536 8.498 8.536 4.689 0 8.498-3.837 8.498-8.536-.024-4.785-3.834-8.598-8.498-8.536zm0 14.06c-3.031 0-5.499-2.469-5.499-5.524s2.468-5.523 5.499-5.523c3.03 0 5.499 2.468 5.499 5.523 0 3.055-2.469 5.523-5.499 5.523zm12.497-20.086a1.507 1.507 0 000 3.013 1.507 1.507 0 000-3.013z" fill="#000"/><defs><linearGradient id="paint0_linear" x1="2.166" y1="2.679" x2="18.02" y2="14.65" gradientUnits="userSpaceOnUse"><stop stop-color="#67337A"/><stop offset="1" stop-color="#723986"/></linearGradient><linearGradient id="paint1_linear" x1="8.034" y1="14.439" x2="4.008" y2="15.665" gradientUnits="userSpaceOnUse"><stop stop-color="#623274" stop-opacity="0"/><stop offset="1" stop-color="#542C65"/></linearGradient><linearGradient id="paint2_linear" x1="10.102" y1="20.064" x2="12.979" y2="24.155" gradientUnits="userSpaceOnUse"><stop stop-color="#623274" stop-opacity="0"/><stop offset="1" stop-color="#542C65"/></linearGradient><linearGradient id="paint3_linear" x1="65.343" y1="2.231" x2="48.645" y2="18.215" gradientUnits="userSpaceOnUse"><stop stop-color="#8A519F"/><stop offset="1" stop-color="#8A53A0"/></linearGradient><linearGradient id="paint4_linear" x1="60.413" y1="24.814" x2="57.472" y2="27.847" gradientUnits="userSpaceOnUse"><stop stop-color="#8A529F" stop-opacity=".1"/><stop offset="1" stop-color="#542C65"/></linearGradient><linearGradient id="paint5_linear" x1="49.609" y1="25.445" x2="65.614" y2="30.795" gradientUnits="userSpaceOnUse"><stop stop-color="#5C2E6D"/><stop offset="1" stop-color="#6D377B"/></linearGradient><linearGradient id="paint6_linear" x1="35.561" y1="26.781" x2="47.918" y2="28.093" gradientUnits="userSpaceOnUse"><stop stop-color="#612E74"/><stop offset="1" stop-color="#7F4395"/></linearGradient><linearGradient id="paint7_linear" x1="33.493" y1=".179" x2="33.493" y2="38.489" gradientUnits="userSpaceOnUse"><stop stop-color="#582C6A"/><stop offset="1" stop-color="#743983"/></linearGradient><linearGradient id="paint8_linear" x1="25.12" y1="41.487" x2="19.985" y2="41.329" gradientUnits="userSpaceOnUse"><stop stop-color="#623274" stop-opacity="0"/><stop offset="1" stop-color="#542C65"/></linearGradient><linearGradient id="paint9_linear" x1="33.493" y1=".179" x2="33.493" y2="37.085" gradientUnits="userSpaceOnUse"><stop stop-color="#723A85"/><stop offset="1" stop-color="#8C519C"/></linearGradient><linearGradient id="paint10_linear" x1="8.248" y1="20.023" x2="24.345" y2="21.297" gradientUnits="userSpaceOnUse"><stop stop-color="#66397A"/><stop offset="1" stop-color="#9F69AB"/></linearGradient><linearGradient id="paint11_linear" x1="16.092" y1="37.81" x2="10.891" y2="39.394" gradientUnits="userSpaceOnUse"><stop stop-color="#623274" stop-opacity="0"/><stop offset="1" stop-color="#542C65"/></linearGradient><linearGradient id="paint12_linear" x1="8.373" y1="11.8" x2="8.373" y2="43.367" gradientUnits="userSpaceOnUse"><stop stop-color="#5D306E"/><stop offset="1" stop-color="#9F6AAA"/></linearGradient></defs></svg>