<svg width="178" height="48" fill="none" xmlns="http://www.w3.org/2000/svg"><g clip-path="url(#clip0)" fill-rule="evenodd" clip-rule="evenodd"><path d="M89.92 0a.723.723 0 00-.359.096.725.725 0 00-.358.622v18.304c0 .18-.084.34-.239.431a.497.497 0 01-.501 0l-2.985-1.723a1.428 1.428 0 00-1.432 0L72.13 24.621a1.47 1.47 0 00-.716 1.268v13.783c0 .514.271.986.716 1.244l11.915 6.89c.445.258.987.258 1.432 0l11.915-6.89c.445-.258.716-.73.716-1.244V5.312a1.46 1.46 0 00-.74-1.268L90.277.072A.7.7 0 0089.92 0zM13.274 17.204c-.227.009-.44.049-.644.167L.716 24.262A1.43 1.43 0 000 25.507l.024 18.495c0 .258.132.496.358.622a.694.694 0 00.716 0l7.068-4.067c.447-.267.74-.73.74-1.244v-8.638c0-.515.27-.988.716-1.244l3.009-1.747c.224-.13.465-.191.716-.191.245 0 .498.06.716.191l3.009 1.747c.445.256.716.729.716 1.244v8.638c0 .514.295.98.74 1.244l7.068 4.067a.694.694 0 00.716 0 .72.72 0 00.358-.622l.024-18.495c0-.519-.27-.988-.716-1.245l-11.915-6.89a1.335 1.335 0 00-.644-.168h-.144zm107.063.167a1.42 1.42 0 00-.716.192l-11.915 6.89a1.432 1.432 0 00-.716 1.245V39.48c0 .518.291.988.74 1.244l11.819 6.748c.437.25.969.268 1.409.024l7.163-3.996a.726.726 0 00.382-.622.71.71 0 00-.358-.623l-11.986-6.89a.772.772 0 01-.382-.647v-4.307c0-.257.159-.493.382-.622l3.724-2.153a.715.715 0 01.717 0l3.724 2.153a.716.716 0 01.359.622v3.398a.715.715 0 001.074.622l7.139-4.163c.443-.258.716-.73.716-1.244v-3.326c0-.514-.272-.986-.716-1.245l-11.843-6.89a1.416 1.416 0 00-.716-.192zM84.714 27.66a.4.4 0 01.191.047l4.083 2.37c.11.064.191.182.191.31v4.738c0 .129-.08.247-.191.311l-4.083 2.369a.36.36 0 01-.358 0l-4.083-2.369a.37.37 0 01-.19-.311v-4.738c0-.128.08-.246.19-.31l4.083-2.37a.314.314 0 01.167-.047z" fill="#404137"/><path d="M156.034 17.036c-.413 0-.815.086-1.17.287l-11.246 6.509a2.375 2.375 0 00-1.17 2.057v12.993c0 .844.442 1.637 1.17 2.058l2.937 1.699c1.426.704 1.953.693 2.602.693 2.113 0 3.319-1.284 3.319-3.517V26.99c0-.181-.157-.311-.334-.311h-1.409c-.18 0-.334.13-.334.311v12.825c0 .99-1.029 1.985-2.698 1.149l-3.056-1.795c-.108-.059-.192-.163-.192-.287V25.889a.38.38 0 01.192-.31l11.221-6.485a.332.332 0 01.335 0l11.222 6.484a.381.381 0 01.191.311v12.993a.36.36 0 01-.167.311l-11.246 6.484a.347.347 0 01-.335 0l-2.889-1.722a.298.298 0 00-.286 0c-.798.453-.948.505-1.695.765-.185.065-.464.165.095.479l3.773 2.225c.359.208.759.311 1.17.311.416 0 .81-.103 1.17-.311l11.245-6.484a2.38 2.38 0 001.17-2.058V25.889c0-.844-.442-1.636-1.17-2.057l-11.245-6.509a2.342 2.342 0 00-1.17-.287zM49.066 17.3c-.248 0-.494.063-.716.192l-11.914 6.867a1.47 1.47 0 00-.717 1.268v13.782c0 .516.272.987.717 1.245l11.914 6.89c.446.258.987.258 1.433 0l11.914-6.89c.445-.258.716-.73.716-1.245V25.626c0-.515-.27-1.01-.716-1.268l-11.914-6.867a1.424 1.424 0 00-.717-.192zm123.657.073v.334h.932v2.465h.382v-2.465h.955v-.334h-2.269zm2.603 0v2.799h.358V18.52c0-.067.003-.172 0-.311-.005-.142 0-.266 0-.335v-.072l.788 2.369h.382l.812-2.37c0 .152-.02.297-.024.432-.002.13 0 .229 0 .287v1.65H178v-2.799h-.525l-.812 2.37-.788-2.37h-.549zm-16.284 8.948c-3.202 0-5.11 1.366-5.11 3.637 0 2.464 1.893 3.141 4.967 3.446 3.677.36 3.963.901 3.963 1.627 0 1.258-1.001 1.794-3.366 1.794-2.972 0-3.626-.743-3.844-2.225-.026-.159-.148-.287-.311-.287h-1.456a.341.341 0 00-.335.335c0 1.897 1.03 4.14 5.946 4.14 3.558 0 5.611-1.4 5.611-3.853 0-2.431-1.658-3.084-5.11-3.541-3.488-.463-3.82-.689-3.82-1.508 0-.675.282-1.579 2.865-1.579 2.308 0 3.16.499 3.51 2.058.03.147.159.263.31.263h1.457c.09 0 .176-.055.239-.12.061-.068.104-.146.095-.239-.225-2.685-2.012-3.948-5.611-3.948zm-38.728 3.278c-.047 0-.1 0-.143.024l-2.292 1.34a.279.279 0 00-.143.24v2.631c0 .1.057.19.143.24l2.292 1.316a.25.25 0 00.263 0l2.292-1.316a.281.281 0 00.143-.24v-2.632c0-.099-.058-.19-.143-.239l-2.292-1.34c-.043-.025-.072-.024-.12-.024z" fill="#83CD29"/></g><defs><clipPath id="clip0"><path fill="#fff" d="M0 0h178v48H0z"/></clipPath></defs></svg>