<svg width="57" height="26" fill="none" xmlns="http://www.w3.org/2000/svg"><g clip-path="url(#clip0)"><path d="M24.906 3.417c.83-1.296 1.809-2.831 2.128-3.332-3.635.273-6.996 1.217-9.84 2.656.438.818 1.007 1.848 1.445 2.644a19.125 19.125 0 014.874-1.115 1.882 1.882 0 001.393-.853z" fill="#ABD038"/><path d="M38.175 8.66c.791.375 1.559.489 2.634.489 1.968 0 5.682.006 7.724.011-1.798-2.985-4.88-5.47-8.742-7.096-1.37.916-5.295 3.543-5.921 3.958 2.48 1.21 3.526 2.268 4.306 2.638z" fill="#EE332D"/><path d="M27.784.04c-.108.318-1.075 3.218-1.382 4.156 1.559.069 3.06.307 4.465.7a3.458 3.458 0 002.508-.25l5.665-2.889C36.11.637 32.778 0 29.235 0c-.49 0-.973.017-1.45.04z" fill="#F2BA1A"/><path d="M9.42 9.934l1.836.005a1.77 1.77 0 001.303-.568c.995-1.086 2.218-2.042 3.623-2.832.5-.279.779-.841.688-1.404-.137-.887-.285-1.803-.324-2.047-3.202 1.734-5.694 4.1-7.127 6.846z" fill="#3DAE2B"/><path d="M53.122 11.446h-.426v-.318h1.217v.318h-.42v1.098h-.37v-1.098zM55.682 11.128v1.415h-.398V11.47l-.285 1.075h-.284l-.284-1.075h-.006v1.075h-.347v-1.416h.523l.285.944.227-.944M10.118 12.629a4.77 4.77 0 00-1.642-1.24c-.644-.307-1.377-.46-2.19-.46s-1.541.153-2.19.46a5.032 5.032 0 00-1.643 1.24 5.552 5.552 0 00-1.027 1.825 6.795 6.795 0 00-.361 2.206 6.7 6.7 0 00.361 2.223 5.552 5.552 0 001.027 1.825c.446.524.994.933 1.643 1.234.643.302 1.377.455 2.19.455s1.54-.153 2.19-.455a4.864 4.864 0 001.642-1.234 5.553 5.553 0 001.028-1.825 6.85 6.85 0 00.36-2.223c0-.779-.118-1.512-.36-2.206a5.553 5.553 0 00-1.028-1.825zm-.71 5.566a4.3 4.3 0 01-.588 1.342c-.265.392-.61.71-1.027.944-.423.233-.926.352-1.502.352-.58 0-1.078-.119-1.5-.352a2.89 2.89 0 01-1.028-.944 4.174 4.174 0 01-.587-1.342 6.086 6.086 0 01-.192-1.535c0-.523.062-1.035.192-1.535s.322-.95.587-1.342c.265-.393.61-.705 1.027-.944.423-.233.926-.353 1.502-.353.58 0 1.078.12 1.5.353.424.233.769.551 1.028.944.265.392.463.841.587 1.342.13.5.192 1.012.192 1.535 0 .523-.068 1.035-.192 1.535zM19.59 15.227a3.247 3.247 0 00-1.152-.904c-.463-.222-1.005-.33-1.625-.33a3.37 3.37 0 00-1.417.301c-.44.2-.78.53-1.022.99h-.028v-1.08h-1.648v10.86h1.738v-3.958h.028c.13.216.3.404.497.558.198.159.412.29.65.392.23.102.48.176.733.222.254.045.508.068.762.068.581 0 1.084-.114 1.513-.347a3.082 3.082 0 001.06-.921c.283-.381.492-.825.627-1.325.136-.5.204-1.018.204-1.552a5.72 5.72 0 00-.232-1.643c-.152-.5-.384-.95-.688-1.331zm-.937 3.969c-.08.33-.204.631-.384.893-.18.261-.407.472-.677.636-.277.165-.61.245-1.005.245-.356 0-.672-.074-.937-.216a2.083 2.083 0 01-.694-.586 2.521 2.521 0 01-.435-.881 4.094 4.094 0 01-.147-1.115c0-.847.186-1.53.559-2.04.373-.513.926-.769 1.654-.769.355 0 .672.08.948.24.277.159.502.369.689.63.186.262.321.558.412.899.09.335.135.688.135 1.04-.006.353-.04.694-.118 1.024zM27.904 15.415a3.642 3.642 0 00-1.23-1.035c-.492-.262-1.05-.393-1.672-.393-.592 0-1.117.114-1.586.336-.468.227-.869.529-1.196.915-.333.381-.587.83-.762 1.337a4.73 4.73 0 00-.265 1.603c0 .614.084 1.177.253 1.689.17.512.418.95.746 1.319.333.37.733.654 1.213.859.48.204 1.027.307 1.648.307a4.21 4.21 0 001.23-.177c.39-.119.746-.29 1.062-.523.316-.227.587-.511.807-.853.226-.335.384-.722.474-1.148h-1.648c-.152.438-.384.767-.694.99-.31.22-.723.329-1.23.329-.368 0-.684-.063-.949-.193a1.845 1.845 0 01-.655-.512 2.158 2.158 0 01-.39-.75 3.131 3.131 0 01-.129-.893h5.797a4.429 4.429 0 00-.824-3.207zm-4.979 2.058a2.37 2.37 0 01.175-.83c.107-.256.249-.478.43-.665.18-.188.389-.336.643-.444a2.06 2.06 0 01.83-.16c.293 0 .564.058.8.177.238.12.441.273.61.46.17.188.3.41.396.666.096.256.152.523.175.796h-4.059zM35.89 14.664c-.496-.449-1.18-.676-2.043-.676-.52 0-.993.125-1.416.375a2.93 2.93 0 00-1.04 1.035l-.027-.029v-1.165h-1.649v7.932h1.739v-4.68c0-.284.045-.557.135-.813.09-.256.22-.478.384-.665a1.77 1.77 0 01.593-.444c.231-.108.497-.16.796-.16.52 0 .903.143 1.146.422.242.278.378.733.395 1.359v4.986h1.738v-5.447c0-.904-.254-1.58-.75-2.03zM45.34 17.848c-.086.683-.328 1.246-.712 1.672-.378.415-.914.631-1.592.631-.508 0-.937-.096-1.287-.295a2.466 2.466 0 01-.858-.78c-.22-.323-.383-.699-.485-1.114a5.409 5.409 0 01-.152-1.285c0-.46.05-.91.152-1.342.102-.426.265-.807.485-1.143.22-.33.503-.591.858-.79.35-.193.785-.296 1.287-.296a2.31 2.31 0 011.965 1.08c.13.211.214.444.254.7l.016.108h2.53l-.018-.142a4.536 4.536 0 00-.525-1.706 4.134 4.134 0 00-1.06-1.25 4.65 4.65 0 00-1.446-.769 5.469 5.469 0 00-1.71-.261c-.841 0-1.609.148-2.27.45-.66.295-1.23.716-1.692 1.239a5.618 5.618 0 00-1.062 1.848 6.949 6.949 0 00-.367 2.268c0 .785.125 1.536.367 2.23a5.299 5.299 0 001.062 1.819 4.943 4.943 0 001.693 1.222c.66.296 1.428.45 2.269.45.672 0 1.298-.108 1.857-.319a4.376 4.376 0 002.495-2.337 5.692 5.692 0 00.474-1.865l.011-.136h-2.523l-.017.113zM48.822 11.127v11.009h7.823v-2.24h-5.216v-8.769h-2.607z" fill="#010101"/></g><defs><clipPath id="clip0"><path fill="#fff" transform="translate(.927)" d="M0 0h56v25.064H0z"/></clipPath></defs></svg>