<svg width="72" height="72" fill="none" xmlns="http://www.w3.org/2000/svg"><path fill="#fff" d="M0 0h72v72H0z"/><path d="M64.017 15.057c-1.044.185-1.977.806-2.596 1.725a4.52 4.52 0 00-.702 3.183l2.45 15.579a5.195 5.195 0 01-.1 2.034 4.994 4.994 0 01-.87 1.812l-5.67 7.424a1.306 1.306 0 01-.767.509 1.24 1.24 0 01-.893-.14c-.16-.1-.297-.234-.404-.396a1.462 1.462 0 01-.194-1.126c.046-.192.13-.37.246-.524l4.93-6.462c.633-.8.967-1.823.938-2.871a4.404 4.404 0 00-1.096-2.807 3.843 3.843 0 00-1.342-.927 3.629 3.629 0 00-3.12.172c-.48.26-.904.625-1.244 1.07L43.32 46.76c-3.196 4.184-4.717 9.552-4.233 14.932L39.163 72h18.785l-.075-9.924 11.98-15.716a10.473 10.473 0 001.832-3.848c.347-1.408.408-2.879.18-4.314l-3.249-19.633c-.177-1.116-.761-2.112-1.623-2.77a3.799 3.799 0 00-2.976-.738zM14.13 62.078L14.056 72h18.781l.075-10.307c.484-5.379-1.037-10.745-4.232-14.929L18.42 33.351a3.92 3.92 0 00-1.245-1.07 3.629 3.629 0 00-3.12-.172 3.84 3.84 0 00-1.34.926 4.402 4.402 0 00-1.096 2.806 4.435 4.435 0 00.938 2.87l4.929 6.461c.112.153.193.33.236.52a1.464 1.464 0 01-.193 1.11c-.104.16-.239.294-.395.393a1.24 1.24 0 01-.893.14 1.305 1.305 0 01-.767-.51l-5.669-7.421a4.993 4.993 0 01-.87-1.812 5.194 5.194 0 01-.1-2.034l2.45-15.575a4.524 4.524 0 00-.697-3.195c-.62-.924-1.556-1.546-2.604-1.731a3.802 3.802 0 00-2.985.747c-.863.662-1.445 1.665-1.617 2.787L.134 38.211a10.89 10.89 0 00.183 4.315 10.47 10.47 0 001.836 3.846L14.13 62.078z" fill="#92C9EC"/><path d="M36 30c35.223-18.525 9.549-39.465 0-25.386C26.451-9.465.777 11.461 36 30z" fill="#103654"/></svg>