<svg width="308" height="222" fill="none" xmlns="http://www.w3.org/2000/svg"><rect x="46" y="37" width="216" height="121" rx="8" fill="#fff" filter="url(#filter0_ddd)"/><path d="M214 82.5v75" stroke="url(#paint0_linear)"/><path d="M154 112v46" stroke="url(#paint1_linear)"/><mask id="a" maskUnits="userSpaceOnUse" x="46" y="37" width="216" height="121"><rect x="46" y="37" width="216" height="121" rx="8" fill="#fff"/></mask><g mask="url(#a)"><path d="M134 109.5c35.5-3 37-19 64-27.5s57.603-12 64.5-24.5V163L57 173.5c-7.167-10.667-19.1-32.1-9.5-32.5 8.879-.37 11.314-.768 11.498-.958L59 140c33.2-4.8 38-24 75-30.5z" fill="url(#paint2_linear)"/><path d="M262.5 57.5c-6.897 12.5-38 16.5-65 25S169 107 133.5 110c-37 6.5-41.8 25.7-75 30.5" stroke="#51A9E1" stroke-width="2"/></g><circle cx="214" cy="78" r="5" fill="#51A9E1" stroke="#fff" stroke-width="2"/><circle cx="154" cy="106" r="5" fill="#51A9E1" stroke="#fff" stroke-width="2"/><circle cx="98" cy="124" r="2.5" fill="#51A9E1" stroke="#fff"/><path fill="url(#paint3_linear)" d="M64 47h112v6H64z"/><path fill="url(#paint4_linear)" d="M64 64h95v6H64z"/><defs><filter id="filter0_ddd" x="0" y="0" width="308" height="222" filterUnits="userSpaceOnUse" color-interpolation-filters="sRGB"><feFlood flood-opacity="0" result="BackgroundImageFix"/><feColorMatrix in="SourceAlpha" values="0 0 0 0 0 0 0 0 0 0 0 0 0 0 0 0 0 0 127 0"/><feOffset dy="11"/><feGaussianBlur stdDeviation="7.5"/><feColorMatrix values="0 0 0 0 0.317647 0 0 0 0 0.662745 0 0 0 0 0.882353 0 0 0 0.1 0"/><feBlend in2="BackgroundImageFix" result="effect1_dropShadow"/><feColorMatrix in="SourceAlpha" values="0 0 0 0 0 0 0 0 0 0 0 0 0 0 0 0 0 0 127 0"/><feOffset dy="9"/><feGaussianBlur stdDeviation="23"/><feColorMatrix values="0 0 0 0 0.317647 0 0 0 0 0.662745 0 0 0 0 0.882353 0 0 0 0.02 0"/><feBlend in2="effect1_dropShadow" result="effect2_dropShadow"/><feColorMatrix in="SourceAlpha" values="0 0 0 0 0 0 0 0 0 0 0 0 0 0 0 0 0 0 127 0"/><feOffset dy="24"/><feGaussianBlur stdDeviation="20"/><feColorMatrix values="0 0 0 0 0.317647 0 0 0 0 0.662745 0 0 0 0 0.882353 0 0 0 0.04 0"/><feBlend in2="effect2_dropShadow" result="effect3_dropShadow"/><feBlend in="SourceGraphic" in2="effect3_dropShadow" result="shape"/></filter><linearGradient id="paint0_linear" x1="214.5" y1="82.5" x2="214.5" y2="157.5" gradientUnits="userSpaceOnUse"><stop stop-color="#51A9E1" stop-opacity=".26"/><stop offset="1" stop-color="#D4EEFF" stop-opacity="0"/></linearGradient><linearGradient id="paint1_linear" x1="154.5" y1="112" x2="154.5" y2="158" gradientUnits="userSpaceOnUse"><stop stop-color="#51A9E1" stop-opacity=".26"/><stop offset="1" stop-color="#D4EEFF" stop-opacity="0"/></linearGradient><linearGradient id="paint2_linear" x1="150.5" y1="107" x2="159" y2="149" gradientUnits="userSpaceOnUse"><stop stop-color="#009CFF" stop-opacity=".17"/><stop offset="1" stop-color="#009CFF" stop-opacity="0"/></linearGradient><linearGradient id="paint3_linear" x1="176" y1="51.5" x2="64" y2="51.5" gradientUnits="userSpaceOnUse"><stop stop-color="#F5F8FD"/><stop offset="1" stop-color="#ECF1F9"/></linearGradient><linearGradient id="paint4_linear" x1="159" y1="68.5" x2="64" y2="68.5" gradientUnits="userSpaceOnUse"><stop stop-color="#F5F8FD"/><stop offset="1" stop-color="#ECF1F9"/></linearGradient></defs></svg>