<svg width="211" height="132" fill="none" xmlns="http://www.w3.org/2000/svg"><rect x="14" y="11" width="182.082" height="102.246" rx="8" fill="#fff" filter="url(#filter0_ddd)"/><path fill="url(#paint0_linear)" d="M106.442 25.006h79.836v5.603h-79.836z"/><path fill="url(#paint1_linear)" d="M106.442 41.814h63.029v5.603h-63.029z"/><path fill="url(#paint2_linear)" d="M106.442 58.622h75.634v5.603h-75.634z"/><path fill="url(#paint3_linear)" d="M106.442 75.429h79.836v5.603h-79.836z"/><path fill="url(#paint4_linear)" d="M106.442 92.237h72.833v5.603h-72.833z"/><path d="M57.018 29a31.185 31.185 0 0 0-15.471 6.047A31.091 31.091 0 0 0 31.392 48.17a31.024 31.024 0 0 0 4.863 31.59 31.149 31.149 0 0 0 13.634 9.477 31.209 31.209 0 0 0 16.576 1.134 31.17 31.17 0 0 0 14.802-7.532 31.073 31.073 0 0 0 8.815-14.055" stroke="#F3F3F3" stroke-width="6" stroke-linecap="round"/><path d="M60.231 28.702a31.15 31.15 0 0 1 18.31 56.35" stroke="url(#paint5_angular)" stroke-width="6" stroke-linecap="round"/><path d="M49.386 68h-2.808v-3.624h-7.632V62.12l6.576-10.128h3.864v9.912h2.136v2.472h-2.136V68zm-2.808-6.096v-7.392l-4.872 7.392h4.872zm15.89 5.664c-.848.48-1.808.72-2.88.72-1.072 0-2.032-.24-2.88-.72a5.534 5.534 0 0 1-2.016-1.92 9.74 9.74 0 0 1-1.128-2.64c-.256-.96-.384-1.96-.384-3s.128-2.04.384-3a9.378 9.378 0 0 1 1.128-2.616 5.534 5.534 0 0 1 2.016-1.92c.848-.48 1.808-.72 2.88-.72 1.072 0 2.032.24 2.88.72.848.48 1.52 1.12 2.016 1.92a9.378 9.378 0 0 1 1.128 2.616c.256.96.384 1.96.384 3s-.128 2.04-.384 3a9.74 9.74 0 0 1-1.128 2.64 5.534 5.534 0 0 1-2.016 1.92zM56.9 64.16c.576 1.088 1.472 1.632 2.688 1.632 1.216 0 2.112-.544 2.688-1.632.576-1.088.864-2.472.864-4.152 0-1.072-.112-2.024-.336-2.856-.208-.832-.592-1.52-1.152-2.064-.544-.56-1.232-.84-2.064-.84-.832 0-1.528.28-2.088.84-.544.544-.928 1.232-1.152 2.064-.208.832-.312 1.784-.312 2.856 0 1.68.288 3.064.864 4.152zm14.717-4.464c-1.168 0-2.12-.368-2.856-1.104-.736-.752-1.104-1.696-1.104-2.832 0-1.152.368-2.104 1.104-2.856.736-.768 1.688-1.152 2.856-1.152 1.184 0 2.144.384 2.88 1.152.752.752 1.128 1.704 1.128 2.856 0 1.136-.376 2.08-1.128 2.832-.736.736-1.696 1.104-2.88 1.104zM71.665 68H70.08l10.224-16.008h1.608L71.665 68zm11.424-.816c-.736.736-1.688 1.104-2.856 1.104s-2.12-.368-2.856-1.104c-.736-.752-1.104-1.696-1.104-2.832 0-1.152.368-2.104 1.104-2.856.736-.768 1.688-1.152 2.856-1.152s2.12.384 2.856 1.152c.752.768 1.128 1.72 1.128 2.856s-.376 2.08-1.128 2.832zm-11.472-9.072c.624 0 1.136-.216 1.536-.648.4-.448.6-1.016.6-1.704 0-.72-.2-1.296-.6-1.728-.4-.448-.912-.672-1.536-.672s-1.136.224-1.536.672c-.384.432-.576 1.008-.576 1.728 0 .688.2 1.256.6 1.704.4.432.904.648 1.512.648zm7.08 7.944c.4.432.912.648 1.536.648s1.136-.216 1.536-.648c.4-.448.6-1.016.6-1.704 0-.72-.2-1.296-.6-1.728-.4-.448-.912-.672-1.536-.672s-1.136.224-1.536.672c-.384.432-.576 1.008-.576 1.728 0 .688.192 1.256.576 1.704z" fill="#99CDEE"/><defs><filter id="filter0_ddd" x="0" y="0" width="210.082" height="131.246" filterUnits="userSpaceOnUse" color-interpolation-filters="sRGB"><feFlood flood-opacity="0" result="BackgroundImageFix"/><feColorMatrix in="SourceAlpha" values="0 0 0 0 0 0 0 0 0 0 0 0 0 0 0 0 0 0 127 0"/><feOffset dy="4"/><feGaussianBlur stdDeviation="2.5"/><feColorMatrix values="0 0 0 0 0.317647 0 0 0 0 0.662745 0 0 0 0 0.882353 0 0 0 0.1 0"/><feBlend in2="BackgroundImageFix" result="effect1_dropShadow"/><feColorMatrix in="SourceAlpha" values="0 0 0 0 0 0 0 0 0 0 0 0 0 0 0 0 0 0 127 0"/><feOffset dy="3"/><feGaussianBlur stdDeviation="7"/><feColorMatrix values="0 0 0 0 0.317647 0 0 0 0 0.662745 0 0 0 0 0.882353 0 0 0 0.02 0"/><feBlend in2="effect1_dropShadow" result="effect2_dropShadow"/><feColorMatrix in="SourceAlpha" values="0 0 0 0 0 0 0 0 0 0 0 0 0 0 0 0 0 0 127 0"/><feOffset dy="8"/><feGaussianBlur stdDeviation="5"/><feColorMatrix values="0 0 0 0 0.317647 0 0 0 0 0.662745 0 0 0 0 0.882353 0 0 0 0.04 0"/><feBlend in2="effect2_dropShadow" result="effect3_dropShadow"/><feBlend in="SourceGraphic" in2="effect3_dropShadow" result="shape"/></filter><linearGradient id="paint0_linear" x1="186.278" y1="29.208" x2="106.442" y2="29.208" gradientUnits="userSpaceOnUse"><stop stop-color="#F5F8FD"/><stop offset="1" stop-color="#ECF1F9"/></linearGradient><linearGradient id="paint1_linear" x1="169.47" y1="46.016" x2="106.442" y2="46.016" gradientUnits="userSpaceOnUse"><stop stop-color="#F5F8FD"/><stop offset="1" stop-color="#ECF1F9"/></linearGradient><linearGradient id="paint2_linear" x1="182.076" y1="62.824" x2="106.442" y2="62.824" gradientUnits="userSpaceOnUse"><stop stop-color="#F5F8FD"/><stop offset="1" stop-color="#ECF1F9"/></linearGradient><linearGradient id="paint3_linear" x1="186.278" y1="79.631" x2="106.442" y2="79.631" gradientUnits="userSpaceOnUse"><stop stop-color="#F5F8FD"/><stop offset="1" stop-color="#ECF1F9"/></linearGradient><linearGradient id="paint4_linear" x1="179.275" y1="96.439" x2="106.442" y2="96.439" gradientUnits="userSpaceOnUse"><stop stop-color="#F5F8FD"/><stop offset="1" stop-color="#ECF1F9"/></linearGradient><radialGradient id="paint5_angular" cx="0" cy="0" r="1" gradientUnits="userSpaceOnUse" gradientTransform="rotate(133.805 17.353 42.77) scale(33.9483)"><stop stop-color="#9CE"/><stop offset="1" stop-color="#56ACE2"/></radialGradient></defs></svg>