<svg width="74" height="73" viewBox="0 0 74 73" fill="none" xmlns="http://www.w3.org/2000/svg">
<path fill-rule="evenodd" clip-rule="evenodd" d="M35.3442 6.58466L35.3442 13.3098L38.7068 13.3098L38.7068 6.58466L41.2287 6.58466L37.0255 0.700145L32.8223 6.58466L35.3442 6.58466Z" fill="#103654"/>
<path fill-rule="evenodd" clip-rule="evenodd" d="M67.2886 35.1666H60.5635V38.5292H67.2886V41.0511L73.1731 36.8479L67.2886 32.6447V35.1666Z" fill="#103654"/>
<path fill-rule="evenodd" clip-rule="evenodd" d="M6.76241 38.5292L13.4875 38.5292L13.4875 35.1666L6.76241 35.1666L6.76241 32.6447L0.877907 36.8479L6.76241 41.0511L6.76241 38.5292Z" fill="#103654"/>
<path fill-rule="evenodd" clip-rule="evenodd" d="M38.7069 67.1111L38.7069 60.3859L35.3443 60.3859L35.3443 67.1111L32.8224 67.1111L37.0255 72.9956L41.2288 67.1111L38.7069 67.1111Z" fill="#103654"/>
<path d="M54.0893 45.6053L55.5758 41.5164C55.7152 41.0982 55.6339 40.6451 55.332 40.3315L51.8129 36.4864L54.9719 32.351C55.239 32.0026 55.2855 31.5494 55.1113 31.1547L53.2647 27.2049C53.0789 26.8102 52.6956 26.5545 52.2543 26.5312L47.0513 26.3106L46.366 21.1529C46.308 20.7231 46.0176 20.3514 45.6112 20.212L41.5115 18.7251C41.105 18.5741 40.6521 18.6671 40.3268 18.9575L36.4943 22.4888L32.3481 19.3175C31.9997 19.0504 31.5468 19.0039 31.1519 19.1898L27.2032 21.0367C26.8084 21.2226 26.5528 21.6059 26.5412 22.0357L26.3205 27.2514L21.1524 27.9369C20.7227 27.9949 20.3627 28.2853 20.2117 28.6919L18.7251 32.7925C18.5741 33.1992 18.667 33.6521 18.9574 33.9657L22.488 37.8108L19.3174 41.9462C19.0619 42.2946 19.0038 42.7594 19.1897 43.1427L21.0362 47.0923C21.2221 47.4872 21.6053 47.7427 22.0466 47.766L27.2497 47.9868L27.9349 53.156C27.9929 53.5858 28.2833 53.9458 28.6898 54.097L32.7895 55.5721C32.9173 55.6186 33.0566 55.6419 33.1844 55.6419C33.4747 55.6419 33.7534 55.5374 33.9741 55.3399L37.8066 51.8084L41.9528 54.9798C42.2896 55.247 42.7542 55.2933 43.1491 55.1074L47.0977 53.2605C47.481 53.0862 47.7481 52.6913 47.7597 52.2615L47.9804 47.0574L53.1486 46.3603C53.5783 46.3139 53.9383 46.0119 54.0893 45.6053ZM40.2456 43.7699C39.27 44.2231 38.2247 44.4553 37.1563 44.4553C34.3341 44.4553 31.7326 42.8058 30.5364 40.2502C29.7118 38.4845 29.6189 36.498 30.2809 34.6627C30.9545 32.8273 32.2901 31.3637 34.0554 30.539C35.0309 30.0743 36.0762 29.8419 37.1446 29.8419C39.9668 29.8419 42.5684 31.5031 43.7646 34.0588C45.4718 37.7062 43.8923 42.0623 40.2456 43.7699Z" fill="#92C9EC"/>
</svg>
