<svg width="314" height="50" fill="none" xmlns="http://www.w3.org/2000/svg"><path d="M36.803 12.854h1.77l5.04-5.04.249-2.14A22.66 22.66 0 0 0 6.993 16.729a2.731 2.731 0 0 1 1.77-.106l10.084-1.663s.509-.85.778-.799a12.577 12.577 0 0 1 17.214-1.307h-.036Z" fill="#EA4335"/><path d="M50.793 16.73a22.696 22.696 0 0 0-6.845-11.036l-7.073 7.074a12.583 12.583 0 0 1 4.617 9.977v1.256a6.3 6.3 0 0 1 0 12.597H28.896l-1.256 1.276v7.552l1.256 1.256h12.596a16.385 16.385 0 0 0 9.301-29.953Z" fill="#4285F4"/><path d="M16.279 46.606h12.596V36.522H16.28a6.27 6.27 0 0 1-2.578-.57l-1.77.55-5.085 5.039-.443 1.77a16.272 16.272 0 0 0 9.876 3.295Z" fill="#34A853"/><path d="M16.279 13.897A16.38 16.38 0 0 0 6.393 43.26l7.308-7.303a6.296 6.296 0 1 1 8.33-8.33l7.302-7.287a16.343 16.343 0 0 0-13.054-6.443Z" fill="#FBBC05"/><path d="M92.245 40.484a16.123 16.123 0 0 1-11.694-4.75 16.049 16.049 0 0 1 0-23.105 16.124 16.124 0 0 1 11.694-4.908 15.658 15.658 0 0 1 11.203 4.54l-3.153 3.203a11.364 11.364 0 0 0-8.062-3.19 11.24 11.24 0 0 0-8.32 3.545 11.927 11.927 0 0 0 0 16.725 11.89 11.89 0 0 0 16.578.197 9.41 9.41 0 0 0 2.454-5.51h-10.65v-4.528h15.031c.144.913.201 1.838.172 2.761a14.183 14.183 0 0 1-3.878 10.455 15.092 15.092 0 0 1-11.375 4.565Zm34.935-2.958a10.847 10.847 0 0 1-15.007 0 10.774 10.774 0 0 1 0-15.056 10.86 10.86 0 0 1 15.007 0 10.748 10.748 0 0 1 0 15.056Zm-11.694-2.957a5.742 5.742 0 0 0 8.111.27l.27-.27a6.811 6.811 0 0 0 0-9.154 5.833 5.833 0 0 0-6.328-1.397 5.82 5.82 0 0 0-1.918 1.225l-.172.172a6.788 6.788 0 0 0 0 9.154h.037Zm34.751 2.957a10.848 10.848 0 0 1-15.007 0 10.774 10.774 0 0 1 0-15.056 10.846 10.846 0 0 1 15.007 0 10.773 10.773 0 0 1 0 15.056Zm-11.694-2.957a5.742 5.742 0 0 0 8.111.27l.27-.27a6.811 6.811 0 0 0 0-9.154 5.83 5.83 0 0 0-8.234-.172l-.172.172a6.788 6.788 0 0 0 0 9.154h.025Zm26.848 15.425a9.29 9.29 0 0 1-5.902-1.878 10.867 10.867 0 0 1-3.436-4.356l4.037-1.681a6.79 6.79 0 0 0 2 2.638 5.044 5.044 0 0 0 3.314 1.117 5.323 5.323 0 0 0 4.123-1.595 6.481 6.481 0 0 0 1.472-4.602v-1.522h-.159a6.767 6.767 0 0 1-5.498 2.369 9.614 9.614 0 0 1-7.08-3.08 10.678 10.678 0 0 1 0-14.897 9.592 9.592 0 0 1 7.08-3.105 7.632 7.632 0 0 1 3.264.724 6.553 6.553 0 0 1 2.307 1.682h.16v-1.681h4.393V39.01a11.037 11.037 0 0 1-2.823 8.234 9.903 9.903 0 0 1-7.215 2.749h-.037Zm.319-13.609a5.151 5.151 0 0 0 4.001-1.767 6.556 6.556 0 0 0 1.607-4.54 6.691 6.691 0 0 0-1.607-4.626 5.146 5.146 0 0 0-4.001-1.767 5.483 5.483 0 0 0-4.147 1.767 6.461 6.461 0 0 0-1.767 4.59 6.352 6.352 0 0 0 1.767 4.54 5.48 5.48 0 0 0 4.196 1.816l-.049-.013Zm17.523-27.45v30.96h-4.577V8.935h4.577Zm12.663 31.549a10.046 10.046 0 0 1-7.362-2.97 10.26 10.26 0 0 1-2.994-7.51 10.406 10.406 0 0 1 2.884-7.583 9.508 9.508 0 0 1 7.08-2.957 8.946 8.946 0 0 1 3.546.687 8.343 8.343 0 0 1 2.712 1.767 12.305 12.305 0 0 1 1.767 2.147c.409.66.758 1.353 1.043 2.074l.478 1.227-14.197 5.755a5.32 5.32 0 0 0 5.105 3.19 6.048 6.048 0 0 0 5.19-2.92l3.547 2.393a11.644 11.644 0 0 1-3.399 3.227 9.647 9.647 0 0 1-5.4 1.473Zm-5.914-10.86 9.424-3.914a3.238 3.238 0 0 0-1.473-1.608 4.795 4.795 0 0 0-2.454-.626 5.474 5.474 0 0 0-3.804 1.681 5.604 5.604 0 0 0-1.632 4.528l-.061-.06ZM229.236 40.484a14.59 14.59 0 0 1-14.847-14.345v-.589a14.602 14.602 0 0 1 14.246-14.933h.589a13.222 13.222 0 0 1 10.504 4.675l-2.553 2.454a9.624 9.624 0 0 0-7.939-3.681 10.829 10.829 0 0 0-7.878 3.153 12.273 12.273 0 0 0 0 16.517 10.83 10.83 0 0 0 7.878 3.153 11.266 11.266 0 0 0 8.86-4.147l2.552 2.552a13.937 13.937 0 0 1-4.908 3.681 14.936 14.936 0 0 1-6.504 1.51ZM247.52 39.907h-3.682V11.29h3.682v28.616ZM253.569 22.679a10.26 10.26 0 0 1 14.455 0 11.177 11.177 0 0 1 0 14.884 10.26 10.26 0 0 1-14.455 0 11.18 11.18 0 0 1 0-14.884Zm2.724 12.577a6.146 6.146 0 0 0 4.317 1.951 6.133 6.133 0 0 0 4.42-1.705l.245-.246a7.9 7.9 0 0 0 0-10.27 6.13 6.13 0 0 0-6.698-1.542 6.142 6.142 0 0 0-2.038 1.296l-.246.246a7.852 7.852 0 0 0 0 10.258v.012ZM291.118 39.907h-3.546v-2.712h-.111a6.832 6.832 0 0 1-2.589 2.454 7.216 7.216 0 0 1-3.681.97 6.898 6.898 0 0 1-5.559-2.234 8.871 8.871 0 0 1-1.902-5.988v-12.05h3.681v11.375c0 3.649 1.612 5.473 4.835 5.473a4.5 4.5 0 0 0 3.681-1.767 6.676 6.676 0 0 0 1.436-4.233V20.347h3.681v19.56h.074ZM303.573 40.484a8.596 8.596 0 0 1-6.553-2.994 11.398 11.398 0 0 1 0-14.848 8.59 8.59 0 0 1 6.553-2.994 8.318 8.318 0 0 1 4 .957 6.768 6.768 0 0 1 2.663 2.393h.159l-.159-2.712V11.23h3.681v28.616h-3.546v-2.712h-.16a6.754 6.754 0 0 1-2.663 2.392 8.305 8.305 0 0 1-3.975.958Zm.601-3.35a5.836 5.836 0 0 0 4.405-1.915 8.395 8.395 0 0 0 0-10.307 5.99 5.99 0 0 0-8.847 0 8.328 8.328 0 0 0 0 10.27 5.824 5.824 0 0 0 4.442 2.013v-.061Z" fill="#5F6368"/></svg>