<svg width="72" height="72" fill="none" xmlns="http://www.w3.org/2000/svg"><g clip-path="url(#a)" fill="#92C9EC"><path d="m10.997 35.565-2.01-1.168c-2.133-1.235-4.267-2.464-6.397-3.701-.388-.224-.778-.454-1.128-.727-.738-.574-1.178-1.355-1.364-2.262-.284-1.396.06-2.653.913-3.779.706-.936 1.648-1.458 2.814-1.61 1.039-.135 1.978.117 2.868.631 1.481.859 2.966 1.717 4.447 2.579 1.146.666 2.291 1.335 3.437 2 1.482.862 2.963 1.72 4.447 2.576 1.04.6 2.088 1.186 3.121 1.798 1.19.709 1.8 1.785 1.996 3.143.152 1.069-.046 2.065-.52 3.015a3.637 3.637 0 0 1-1.444 1.536c-1.932 1.129-3.873 2.243-5.808 3.368-1.45.841-2.894 1.688-4.344 2.53-1.525.884-3.047 1.774-4.583 2.641a6.983 6.983 0 0 1-2.423.83c-1.215.175-2.337-.118-3.293-.925C.592 47.081 0 45.864.032 44.391c.02-1.082.41-2.044 1.157-2.854.465-.505 1.02-.878 1.608-1.217 1.378-.79 2.747-1.59 4.123-2.386l3.672-2.119c.118-.069.23-.144.405-.25ZM60.99 35.568c.459.273.84.505 1.231.73a6684.81 6684.81 0 0 0 6.202 3.588c.39.224.787.437 1.171.672 1.26.767 2.093 1.832 2.317 3.328.175 1.16-.086 2.213-.766 3.155-.925 1.284-2.188 1.95-3.776 1.938-.75-.006-1.461-.224-2.11-.594-2.116-1.212-4.22-2.44-6.331-3.664-2.423-1.404-4.85-2.808-7.273-4.209-.692-.399-1.395-.784-2.081-1.194-.899-.534-1.473-1.341-1.671-2.346-.279-1.421-.095-2.788.766-4.008a3.78 3.78 0 0 1 1.226-1.088c1.298-.753 2.599-1.502 3.9-2.251l4.383-2.535c2.12-1.232 4.235-2.467 6.357-3.693.52-.298 1.037-.617 1.594-.832 1.61-.623 3.37-.253 4.527.973 1.304 1.38 1.75 3.29.962 5.03-.39.861-1.027 1.487-1.852 1.944-.993.551-1.978 1.125-2.963 1.691-1.452.835-2.902 1.677-4.352 2.515-.462.267-.925.54-1.453.847l-.009.003ZM48.718 14.178c.184-.083.287-.12.382-.175 1.476-.844 2.951-1.691 4.424-2.538 1.27-.727 2.541-1.45 3.81-2.18.79-.456 1.634-.686 2.547-.628.925.06 1.76.364 2.458.987.827.741 1.38 1.657 1.553 2.757.215 1.366-.083 2.604-1.062 3.64-.35.37-.761.643-1.197.893-1.258.72-2.516 1.447-3.77 2.174-1.353.78-2.708 1.564-4.06 2.345-1.32.764-2.639 1.53-3.957 2.297-1.134.66-2.253 1.353-3.408 1.973-1.708.919-3.376.764-4.938-.37-.861-.627-1.324-1.517-1.513-2.55a4.626 4.626 0 0 1-.083-.818c0-5.809 0-11.614.005-17.423 0-1.025.25-1.986.89-2.808.836-1.07 1.918-1.682 3.3-1.748 1.329-.063 2.463.382 3.382 1.326.778.801 1.205 1.775 1.205 2.906.006 3.13 0 6.256.006 9.386 0 .158.012.316.023.548l.003.006ZM23.3 14.348v-.492c0-3.166.005-6.333 0-9.5-.003-1.25.46-2.3 1.35-3.15a4.184 4.184 0 0 1 2.87-1.2c1.425-.04 2.587.491 3.512 1.55.574.658.913 1.436.979 2.309.049.634.069 1.272.069 1.91.006 5.282.008 10.565 0 15.848 0 .962-.178 1.892-.732 2.71-.902 1.33-2.16 2.022-3.764 2.033-.67.006-1.301-.198-1.887-.543-1.28-.758-2.572-1.498-3.859-2.245-1.145-.666-2.29-1.332-3.44-1.998l-4.09-2.369-3.438-1.998c-.25-.144-.5-.284-.749-.425-1.062-.6-1.737-1.502-1.987-2.688-.172-.818-.14-1.639.155-2.437.35-.942.902-1.734 1.735-2.297.881-.597 1.866-.815 2.928-.669.72.1 1.361.393 1.981.76 2.28 1.353 4.568 2.694 6.854 4.038.387.23.775.46 1.163.686.094.055.195.095.35.167ZM48.718 57.194c.184.083.287.12.382.175 1.476.844 2.951 1.691 4.424 2.538 1.27.727 2.541 1.45 3.81 2.18.79.456 1.634.686 2.547.628.925-.06 1.76-.364 2.458-.987.827-.741 1.38-1.657 1.553-2.757.215-1.366-.083-2.604-1.062-3.64-.35-.37-.761-.643-1.197-.893a975.09 975.09 0 0 1-3.77-2.174c-1.353-.78-2.708-1.564-4.06-2.345-1.32-.764-2.639-1.53-3.957-2.297-1.134-.66-2.253-1.353-3.408-1.973-1.708-.919-3.376-.764-4.938.37-.861.627-1.324 1.517-1.513 2.55-.049.27-.083.546-.083.819 0 5.808 0 11.613.005 17.422 0 1.025.25 1.986.89 2.808.836 1.07 1.918 1.682 3.3 1.748 1.329.063 2.463-.382 3.382-1.326.778-.801 1.205-1.775 1.205-2.906.006-3.13 0-6.256.006-9.386 0-.158.012-.316.023-.548l.003-.006ZM23.3 57.025v.49c0 3.167.005 6.334 0 9.501-.003 1.25.46 2.3 1.35 3.15a4.183 4.183 0 0 0 2.87 1.2c1.425.04 2.587-.49 3.512-1.55a3.901 3.901 0 0 0 .979-2.309c.049-.634.069-1.272.069-1.91.006-5.282.008-10.565 0-15.848 0-.962-.178-1.892-.732-2.71-.902-1.33-2.16-2.022-3.764-2.033-.67-.006-1.301.198-1.887.543-1.28.758-2.572 1.498-3.859 2.245a3310.091 3310.091 0 0 1-7.53 4.367l-3.438 1.998c-.25.144-.5.284-.749.425-1.062.6-1.737 1.502-1.987 2.688-.172.818-.14 1.639.155 2.437.35.942.902 1.734 1.735 2.297.881.597 1.866.816 2.928.669.72-.1 1.361-.393 1.981-.76 2.28-1.353 4.568-2.694 6.854-4.038.387-.23.775-.459 1.163-.686.094-.054.195-.095.35-.166ZM35.999 44.032c-.264 0-.526-.008-.79 0-.405.017-.735-.14-1.01-.416-2.039-2.033-4.075-4.071-6.11-6.107a1.43 1.43 0 0 1-.428-1.048v-1.464c0-.422.15-.776.45-1.077 2.03-2.024 4.06-4.048 6.079-6.084.342-.345.75-.454 1.186-.462.548-.012 1.096.031 1.645.054a.976.976 0 0 1 .666.31c.692.707 1.375 1.419 2.067 2.125.517.528 1.042 1.048 1.56 1.576l2.46 2.53c.264.273.399.603.405.982.005.5.026 1.002-.006 1.501-.032.52-.187.99-.58 1.381a799.13 799.13 0 0 0-5.63 5.63c-.397.4-.827.632-1.399.572-.186-.02-.376-.003-.562-.003h-.003Zm3.009-8.332c.023-.393-.204-.68-.463-.939-.557-.557-1.128-1.1-1.7-1.642a1.048 1.048 0 0 0-.315-.192c-.517-.216-.925.014-1.292.35-.279.252-.537.525-.798.795-.313.325-.64.637-.922.985-.362.445-.322 1.016.083 1.433a86.71 86.71 0 0 0 1.78 1.777c.471.453 1.069.453 1.542 0a97.317 97.317 0 0 0 1.806-1.806.962.962 0 0 0 .284-.76h-.005Z"/></g><defs><clipPath id="a"><path fill="#fff" d="M0 0h72v72H0z"/></clipPath></defs></svg>