<svg width="82" height="40" fill="none" xmlns="http://www.w3.org/2000/svg">
  <g clip-path="url(#a)">
    <g clip-path="url(#b)">
      <path d="M25.338 39.625c-.531-.006-1.062-.008-1.592-.008l-1.37.001-5.789-.001c-.293 0-.588 0-.883.002l-.884.002c-.184 0-.368 0-.552-.002a12.81 12.81 0 0 1-3.164-.399c-3.925-1.027-6.9-3.355-8.835-6.919-.928-1.71-1.456-3.62-1.568-5.68-.05-.915-.003-1.854.14-2.789.016-.112.037-.223.057-.335l.045-.255.077.075c.04.04.053.082.062.113.038.125.074.251.11.376.075.261.152.531.244.79.667 1.904 1.68 3.688 3.099 5.456.056.07.098.147.122.222a8.621 8.621 0 0 0 2.483 3.803c1.135 1.016 2.495 1.777 4.05 2.265a12.141 12.141 0 0 1-2.748-1.625c-1.353-1.067-2.329-2.373-2.898-3.882-.057-.151-.104-.334-.028-.537.026-.069.044-.14.063-.212.012-.05.024-.099.04-.148.306-1.002.772-1.788 1.423-2.4.606-.572 1.378-.99 2.361-1.28.918-.27 1.875-.39 2.801-.509l.397-.05a66.107 66.107 0 0 0 1.552-.227l.306-.047c.114-.017.226-.042.344-.068l.285-.06-.075.128c-.006.011-.01.02-.019.03a7.853 7.853 0 0 0-1.199 1.78.255.255 0 0 1-.139.123l-.204.067c-.216.072-.44.146-.666.191-.244.049-.494.084-.736.118-.194.027-.388.054-.58.09-.65.115-1.152.323-1.531.641.083-.02.17-.032.253-.044.118-.017.24-.035.35-.073.598-.208 1.254-.305 2.065-.305h.11c.145.002.29.009.438.016l.285.011-.021.07c-.583 1.902-.566 3.768.046 5.558-.256-1.213-.303-2.34-.144-3.429a7.245 7.245 0 0 1 2.18-4.262c.813-.786 1.832-1.445 3.116-2.015 1.115-.495 2.277-.793 3.37-1.056l.208-.05c.78-.188 1.587-.382 2.369-.612 1.172-.343 2.19-.908 3.028-1.68.125-.117.268-.248.38-.393.8-1.037 1.732-1.772 2.848-2.248a.225.225 0 0 0 .093-.087c.365-.596.804-1.035 1.34-1.343a.712.712 0 0 1 .355-.104.72.72 0 0 1 .437.166c.054.041.103.085.147.13.188.188.339.42.475.729.017.037.032.049.074.054.136.018.276.036.416.064 2.28.45 3.869 2.206 4.144 4.58.008.063.013.127.018.19.012.151.024.307.07.447.056.177.14.351.224.518.037.075.074.15.108.226.03.065.06.13.092.194.072.152.146.309.208.468.094.244.105.496.033.75-.032.108-.097.124-.134.124a.168.168 0 0 1-.088-.028 2.21 2.21 0 0 1-.18-.131 2.608 2.608 0 0 0-.084-.065 3.086 3.086 0 0 1-.093-.073c-.073-.058-.142-.114-.218-.155a.173.173 0 0 0-.084-.024.15.15 0 0 0-.083.026l.107.096c.192.17.384.34.572.514.04.036.066.102.063.157-.023.356-.147.652-.371.88-.267.27-.547.4-.855.4-.066 0-.133-.005-.201-.018-.013.12-.038.165-.138.218-.63.342-1.245.508-1.878.508h-.099c-.431 0-.851.122-1.322.385a1.92 1.92 0 0 1-.44.187 5.631 5.631 0 0 1-1.182.165c.159.021.324.032.502.032.114 0 .23-.004.357-.013l.072-.007c.053-.005.108-.01.16-.01.069 0 .126.009.174.029.33.134.653.298.955.453.06.03.102.043.142.043a.179.179 0 0 0 .066-.013l.088-.033c.165-.062.336-.127.499-.199.387-.172.721-.253 1.05-.253.09 0 .177.006.265.019.226.03.49.082.727.228.118.072.275.193.289.418 0 .004.009.017.027.034.029.027.059.052.09.077.03.026.061.052.09.08.185.168.266.383.244.637-.008.07-.023.238-.166.238a.375.375 0 0 1-.164-.052.455.455 0 0 0-.081-.034c.07.042.137.085.203.13.158.107.235.271.227.487-.015.472-.51.917-1.02.917a.853.853 0 0 1-.178-.019c-.15-.033-.337-.096-.45-.292a.066.066 0 0 0-.019-.015l-.086.004a1.666 1.666 0 0 0-.305.031l-.029.007a2.304 2.304 0 0 1-.512.076c-.07 0-.136-.006-.2-.018-.077-.015-.155-.034-.234-.054l-.057-.013c-.09.294-.237.57-.435.822-.444.564-1.036.962-1.809 1.215a5.726 5.726 0 0 1-1.79.277 7.33 7.33 0 0 1-1.03-.076c-1.391-.198-2.363-.955-2.888-2.248-.088-.216-.147-.446-.205-.67a10.161 10.161 0 0 0-.088-.324 6.946 6.946 0 0 0-.636-1.515c-.477-.833-1.067-1.427-1.805-1.815a4.072 4.072 0 0 0-1.916-.468 5.055 5.055 0 0 0-1.074.12c.214.01.418.02.624.041.955.097 1.823.39 2.583.87 1.033.657 1.668 1.471 1.938 2.491a8.89 8.89 0 0 0 .64 1.687c.16.32.361.688.652 1 .41.438.94.739 1.664.943.198.056.395.116.591.18.108.034.184.11.23.23.114.294.142.594.084.89-.085.436-.292.839-.633 1.232-.27.31-.603.536-.927.755a4.815 4.815 0 0 0-.454.344.463.463 0 0 0-.174.376c.01.23.028.24.07.24a.701.701 0 0 0 .186-.044 1.6 1.6 0 0 0 .134-.052l.27-.117c.153-.066.306-.133.461-.197a2.57 2.57 0 0 1 .988-.212c.17 0 .34.02.506.06.597.143.988.497 1.164 1.054.047.151.04.28-.021.384a.284.284 0 0 1-.212.13c-.073 0-.14-.064-.192-.12a.199.199 0 0 1-.041-.11l-.008-.035c-.052-.198-.126-.328-.236-.415.197.269.286.556.27.876a.553.553 0 0 1-.618.536c-.123-.007-.2-.074-.214-.183-.008-.076-.008-.153-.009-.227v-.214c0-.088 0-.17-.011-.25-.024-.175-.128-.293-.308-.35a.179.179 0 0 0-.039-.01.339.339 0 0 1 .135.136c.067.124.124.236.155.358.08.322.001.573-.228.727a.978.978 0 0 1-.405.127c-.055.008-.108.01-.162.01-.2 0-.397-.047-.586-.091l-.096-.024a2.203 2.203 0 0 0-.491-.062c-.13 0-.266.025-.397.05l-.061.01c-.994.18-1.888.266-2.731.266l-.15.001Z" fill="#E65270"/>
      <path opacity=".2" d="M33.43 28.02s-1.465 1.749-3.956.747c-2.28-.919-1.448-3.448-1.448-3.448s.404 1.569 1.584 2.163c1.708.86 3.82.538 3.82.538ZM26.209 28.77c.317.322.323.652.423 1.054.188.757.42 1.414.901 2.036a3.886 3.886 0 0 0 1.735 1.297c.62.238 1.418.167 1.299 1.091l-.208.779c-1.586 0-3.071-.724-3.676-2.298-.53-1.38.094-3.049-1.514-5.385.129.158.876 1.256 1.04 1.424v.001Z" fill="#430A1D"/>
      <path d="M25.581 28.082c.024.099.047.198.069.298a.352.352 0 0 1-.069-.297Z" fill="#2B2B2B" opacity=".2"/>
      <path d="M7.103 34.119c-5.98-.591-6.687-6.547-6.687-6.547s-.325-2.76.433-5.467c.487 4.926 4.439 8.336 4.439 8.336s.868 2.807 1.814 3.677h.001Z" fill="url(#c)"/>
      <path opacity=".2" d="M5.612 31.85s-1.255.12-2.928-1.912c1.613 2.928 3.705 2.988 3.705 2.988l-.777-1.076Z" fill="#2B2B2B"/>
      <path d="M8.846 35.269c-.314-5.507 2.92-2.952 4.588-5.872.47-2.555 1.877-4.172 1.877-4.172S5.299 23.348 5.14 30.65c.35 1.581 1.882 3.11 2.84 3.937-.187-.423-2.577-6.998 5.382-6.464-2.747-.234-6.712 2.636-4.824 6.935.19.138.305.211.305.211h.002Z" fill="url(#d)"/>
      <path opacity=".2" d="M11.55 27.329c-2.069.778-5.58.774-4.584 6.052-.16.12-.96-1.12-.76-1-.92-4.721 3.212-4.446 5.341-5.055l.003.003Z" fill="#fff"/>
      <path opacity=".6" d="M14.172 25.437c2.012-.796.378 1.461.092 1.822-.66.835-2.331.563-3.222.842-.512.16-2.565.462-3.245 2.405-.303.862-.416 2.27.228 3.984-.16.12-1.219-1.038-1.018-.92-1.699-7.586 6.315-4.862 7.166-8.131l-.001-.002Z" fill="#8B4FBA"/>
      <path d="M34.176 22.339c.055-.151.149-.344.267-.457.027.012.057.014.08.028.195-.127.505-.11.752-.11.147 0 .363-.04.505.014.207.08.184.299.27.464.163.308.664.312.666.749.001.205.053.483 0 .684-.04.15-.206.104-.35.104-.435 0-.869.012-1.305.012l-.603-.45c-.16.052-.287-.285-.309-.4-.036-.19-.04-.451.027-.638Z" fill="#F9E0E7"/>
      <path d="M36.19 22.936c.074-.03.182-.148.228-.218.033-.05.023-.081.094-.08.184.006.186.254.176.382-.01.164-.077.315-.101.477-.06-.015-.093-.09-.16-.11-.053-.015-.13-.008-.185-.005-.082.003-.195.058-.269.027l.217-.473Z" fill="#fff"/>
      <path d="M12.347 14.868c.027-.032.034-.042.043-.05.799-.746 1.222-1.687 1.45-2.74.15-.688-.041-1.296-.351-1.89-.006-.01-.016-.02-.026-.033-.063.194-.119.384-.185.572-.162.461-.358.908-.67 1.29-.124.152-5.341 3.043-4.804 9.443.004.04.01.078.016.122.096-.09.18-.183.278-.26.347-.272.748-.444 1.167-.561.765-.214 1.536-.41 2.308-.599.878-.215 1.76-.414 2.608-.739a6.475 6.475 0 0 0 1.349-.714 7.396 7.396 0 0 0 1.65-1.552c.275-.35.403-.617.527-1.028.078.211.037.8-.08 1.177a2.903 2.903 0 0 1-.599 1.039c.065-.02.136-.031.193-.064.747-.426 1.408-.95 1.896-1.668a3.052 3.052 0 0 0 .555-1.594c0-.008.004-.017.007-.03.155.72.133 1.944-.678 2.814.286-.101.545-.203.81-.282a.827.827 0 0 0 .486-.386c.532-.842.973-1.725 1.212-2.699.185-.752.23-1.507.024-2.262-.235-.854-.75-1.511-1.453-2.034a6.719 6.719 0 0 0-1.589-.853l-.102-.04c-.005-.002-.008-.008-.03-.032.196.054.371.1.544.15.809.241 1.584.554 2.27 1.056.612.447 1.08 1.005 1.315 1.74.21.656.191 1.32.04 1.984-.219.969-.67 1.831-1.22 2.648l-.049.076c-.002.004-.002.01-.005.024.023-.008.04-.014.057-.023 1.15-.588 2.173-1.34 2.988-2.351.791-.982 1.367-2.074 1.64-3.312.345-1.562-.033-2.949-1.044-4.172-.64-.774-1.43-1.36-2.305-1.837a10.693 10.693 0 0 0-3.602-1.201c-.723-.105-1.447-.126-2.17.013-.397.076-.654.18-1.094.435.055-.048.108-.098.167-.141.395-.3.85-.456 1.33-.552.79-.16 1.588-.159 2.386-.066a10.69 10.69 0 0 1 3.529 1.04c.109.054.217.11.337.172 0-.1-.005-.19.002-.277.01-.135.078-.212.184-.225.102-.012.161.026.181.126.016.084.02.17.033.256a.908.908 0 0 0 .25.499.245.245 0 0 0 .044.038c.008.005.018.005.047.01V5.13c-.002-.13-.007-.259-.005-.388.002-.032.024-.083.046-.09.03-.007.085.008.104.032.05.067.105.139.128.218.05.168.074.344.126.51.035.109.09.215.158.305.076.098.152.076.18-.044.027-.112.037-.229.054-.343.006-.04.007-.08.02-.117.009-.032.032-.059.05-.088.025.024.063.042.075.071a.67.67 0 0 1 .055.21c.008.155-.006.311.005.466.006.083.034.17.074.242.045.08.117.07.141-.019.036-.127.054-.258.08-.388l.057-.283c.104.088.13.187.14.282.026.254.04.51.061.764.018.19.083.358.196.52.204.297.385.61.568.922.095.159.182.173.27.01.1-.187.173-.386.258-.58.037-.086.068-.173.107-.257.018-.04.048-.075.076-.117.1.072.124.167.105.261-.029.142-.081.28-.118.42-.04.153-.082.306-.106.462a.385.385 0 0 0 .048.199c.04.088.105.099.174.03.07-.07.125-.155.193-.226.039-.041.092-.066.139-.098.026.057.08.117.075.171a1.24 1.24 0 0 1-.08.345c-.088.222-.205.433-.28.658-.054.163-.064.342-.082.515-.005.043.03.117.064.13.035.012.104-.023.135-.057.142-.156.276-.322.416-.482.034-.04.08-.068.12-.102l.04.02c-.013.09-.01.189-.043.273a2.55 2.55 0 0 1-.205.405c-.127.203-.272.394-.402.594-.24.37-.399.774-.499 1.204-.072.31-.174.612-.263.916-.01.038-.024.075-.026.117.079-.125.155-.252.235-.376.17-.26.365-.5.627-.673.132-.086.274-.164.421-.218.759-.279 1.526-.539 2.249-.902.206-.105.402-.231.59-.367.236-.172.324-.412.253-.702l-.15-.613c-.123.195-.23.383-.354.56a1.187 1.187 0 0 1-.504.427c.02-.038.026-.055.037-.069.318-.44.502-.938.644-1.455.015-.054-.002-.118-.011-.176-.066-.377-.034-.754-.017-1.132a1.195 1.195 0 0 0-.007-.228c-.004-.034-.032-.077-.062-.09-.02-.01-.072.018-.09.042-.073.103-.154.203-.204.317-.197.459-.386.921-.574 1.383-.235.577-.5 1.136-.903 1.618-.182.217-.39.407-.644.54a.99.99 0 0 1-.155.061c.394-.408.483-.924.5-1.451.024-.676.01-1.354.017-2.03.007-.732.068-1.457.286-2.162.008-.028-.006-.068-.021-.097-.062-.12-.14-.232-.19-.356-.108-.26-.197-.527-.302-.789-.061-.153-.082-.165-.247-.153-.177.013-.283-.09-.378-.215-.071-.095-.1-.093-.15.019-.054.121-.097.247-.155.366-.02.04-.07.067-.108.1-.028-.041-.075-.082-.08-.126-.015-.145-.01-.291-.021-.436a.775.775 0 0 0-.039-.213c-.012-.032-.06-.066-.095-.07-.026-.001-.069.042-.08.073-.035.104-.057.211-.09.315-.025.084-.063.093-.113.025-.363-.495-.847-.846-1.365-1.157-.152-.092-.303-.188-.454-.281l-.032.01.059.505-.04.02c-.049-.04-.104-.074-.144-.122-.1-.119-.192-.245-.294-.364-.201-.237-.456-.406-.7-.462l.224.767-.035.016c-.026-.031-.055-.06-.076-.095a6.684 6.684 0 0 1-.172-.29 1.384 1.384 0 0 0-1.064-.734 12.935 12.935 0 0 0-.97-.099 1.841 1.841 0 0 1-.682-.155c-.152-.069-.315-.116-.475-.169-.027-.01-.063.002-.094.004.002.034-.005.074.009.102.075.148.157.292.233.44.028.052.046.11.068.167l-.022.023c-.048-.016-.098-.027-.143-.049-.21-.101-.421-.196-.623-.31-.205-.116-.431-.126-.654-.145-.697-.058-1.385-.011-2.058.192a3 3 0 0 0-1.12.598c.041-.005.084-.005.125-.013.407-.083.814-.162 1.232-.148.285.01.562.055.812.199.04.023.066.07.098.106-.056.02-.115.057-.17.05-.129-.015-.256-.063-.387-.074-.417-.037-.818.06-1.215.168-.96.264-1.83.713-2.639 1.29-.197.14-.401.27-.606.4a3.177 3.177 0 0 0-.976.978.782.782 0 0 0-.077.15c-.052.146-.014.267.124.34.097.05.207.088.315.114 1.436.35 2.505 1.534 2.671 2.998.062.55.139 1.1.111 1.656a5.255 5.255 0 0 1-1.374 3.344c-.507.566-1.108 1.016-1.764 1.395l-.066.033-.001.001Z" fill="url(#e)"/>
      <path opacity=".2" d="M30.75 6.379c-.61 4.764-2.724 3.686-4.105 6.346-.076-.1-.25.713.098-.797.35-1.511 1.349-.829 2.295-2.557 1.198-2.185.959-2.38 1.714-2.991l-.002-.001Z" fill="#8B4FBA"/>
      <path opacity=".3" d="M24.431 6.47c-.227 1.363-2.154 1.3-3.804.722-1.793-.628-5.518-.83-5.816-.08-.15.172-.45-.535-.45-.535s2.828-3.086 7.563.17c-.193-.3 1.702-1.177 1.702-1.177s.57-.172.805.899Z" fill="#fff"/>
      <path opacity=".2" d="M14.62 19.561c.102.256.94.083 1.018-.315-1.236-1.4 2.017-3.971-.983-7.327 1.964 5.18-2.216 5.389-.036 7.641v.001Z" fill="#8B4FBA"/>
      <path opacity=".6" d="M14.62 19.561c.102.256.084.182.162-.216-1.236-1.4 2.055-3.44-.127-7.425 1.964 5.18-2.216 5.388-.036 7.641Z" fill="#8B4FBA"/>
      <path d="M19.124 18.54c5.938-6.249-1.57-5.2-4.015-9.443.004-.073.009-.144.009-.219 0-.59-.143-1.144-.392-1.636 2.29 3.396 8.093.401 6.967 7.343-.102.357-.91 3.875-2.57 3.952v.003Z" fill="url(#f)"/>
      <path d="M19.124 18.54c-2.445 1.2-4.58 1.234-4.482.878 4.858-3.295.936-6.691.022-9.89.062-.258.453-.355.453-.648 0-.031-.004-.061-.005-.092.07.317.238.427.398.588 2.258 2.278 9.435 3.039 3.612 9.165l.002-.002Z" fill="url(#g)"/>
      <path d="M18.358 18.447c3.76-5.617-3.26-6.684-3.208-8.462-.56 3.662 6.17 5.228-.153 9.611-.101.357.916.051 3.36-1.149Z" fill="#E65271"/>
      <path d="M28.862 8.69c.299.5-.033 1.088-.38 1.64-.322.509-1.097.342-1.623 1.57l.045-.957c.583-1.015-.403-2.413-.677-3.357-.467-1.61-.975-3.094-.356-4.725.042-.11.078-.23.12-.343.309.228.542.456.808.802.175.23.114-.593.345-.42.169.125-.009.707.153.842.181.153.29-.733.422-.537.306.46.482.168.613.307.118.125.394 1.09.506 1.22.109.127.213.258.316.39-.062.702-.199 1.492-.425 2.126-.213.598-.223.848.133 1.444V8.69Z" fill="url(#h)"/>
      <path d="M20.506 1.355c.018.006.034.01.044.01.164-.004-.444-.768-.269-.768.295 0 .711.305 1 .327.609.047 1.24.033 1.78.28.517.237.747.973.863 1.004.117.032-.281-.85-.167-.812.193.065.348.161.476.267.51.73.675 4.349-.073 4.259-.787-.099 1.24.277 1.249.247.678-2.56-.833-4.133-.764-4.043.089.118.161.21.238.239.16.062-.1-.617.047-.527.468.286.8.488 1.073.691.008.012.01.04.024.035.2-.084 1.44-.376.497 4.081 1.433-2.9.311-4.038.421-3.92.509.55.613 1.892.679 2.687.062.746-.408 2.447-1.016 3.01-.428.395-.42-.095-.58-.473-.265-.622-.75-1.123-1.189-1.634-.327-.38-.724-.66-1.084-1-.392-.371-.599-.89-.95-1.297-.312-.365-.698-.655-.996-1.035-.334-.425-.557-.912-.926-1.303-.117-.126-.249-.22-.377-.32v-.005Z" fill="#E65271"/>
      <path d="M23.255.95c.876-.002 1.426.418 2.15.819.601.333 1.34.337 1.847.797.674.611.966 1.218 1.093 2.114.144 1.019.162 2.32-.031 3.335-.099.522-.47 1.59-.86 1.971l-.469-.298c-.924-2.387-3.71-3.366-4.764-5.71-.311-.691-.428-1.588-.436-2.343-.008-.79.831-.681 1.47-.683V.95Z" fill="url(#i)"/>
      <path d="M14.537 6.912a3.64 3.64 0 0 0-2.264-1.585c-.24-.054-.672-.204-.245-.718.457-.714 1.114-.988 1.468-1.25 1.422-1.055.834-1.163 1.664-1.26.324-.037.238-.065.403 0 .164.067-.127-.045-.23-.114-.926-.612-.86.61-.462.345C16.056 1.414 18.785.771 19.55.902c.111.02.88.463.998.462.164-.003-.443-.767-.269-.767.295 0 .712.304 1 .327.597.045 2.412.878 2.4 3.07-.005.67.037 1.139-.054 1.575-.661 3.206-7.363-1.293-9.09 1.343h.002Z" fill="#F6E8A0"/>
      <path d="M22.56 4.938c-.311-.388-2.33-1.086-2.33-1.086s-3.351-1.155-6.444 2.134c1.58-1.255 4.357-.729 6.362-.497.265.031-.573-.236-.354-.318.746-.275 1.437.498 2.18.349.346-.07.555-.258.582-.582h.003Z" fill="#fff"/>
      <path d="M19.988 4.397c-1.23-.324-2.46.15-2.698.165.111-.168.293-.555 1.205-.688.21-.031.63.003.85.002.394 0 .638.094.986.262.222.107.758.22.928.194 0 0 1.886.142 1.262.782-.625.64-1.536-.825-3.535-.357 0-.065.457-.39 1.002-.36Z" fill="#F6E8A0"/>
      <path d="M18.122 1.744c-.777-.515-2.137-.073-2.314-.076-.004-.018.007-.038.038-.059 1.185-.916 2.94-.834 3.706-.703.006 0 .014.004.023.007a.224.224 0 0 1 .013.005c.166.063.707.368.904.435 1.153.654 2.975 2.034 3.136 4.22-.655-.292-1.126-.575-1.488-.852-.122-.093-2.878-2.973-10.173.488 0 0-.203-.112-.087-.372 1.647-2.647 4.654-3.407 9.443-.9-.68-.81-1.009-1.543-3.203-2.194h.002Z" fill="#F8D285"/>
      <path d="M22.785 16.618c2.702-2.763 3.803-4.827 2.495-7.049-2.118-3.602-8.638.155-11.476-3.48.3.344.94 1.025 1.558 1.359 2.102 1.374 6.06.932 7.32 1.994 1.622 1.365 2.036 4.12.102 7.178l.001-.002Z" fill="url(#j)"/>
      <path d="M13.984 10.845c-.004.185.42 1.254.354 1.5-.57 2.1-3.035 3.132-3.035 3.132S8.54 16.588 8.102 21.67c-.504.362-.434-.41-.418-.753.313-6.664 5.855-5.918 6.299-10.07v-.002Z" fill="url(#k)"/>
      <path d="M23.38 21.853c-.045-.02-.089-.048-.136-.062-.242-.067-.486-.13-.729-.198-.076-.022-.15-.057-.224-.086l.001-.048c.087-.016.173-.043.26-.045.349-.004.697.001 1.046.002.491.001.986-.001 1.46-.145.232-.07.457-.177.67-.295 2.242-1.248 3.826-3.074 4.78-5.455.195-.486.345-.989.46-1.5.007-.028.01-.057.019-.106l-.084.048a11.782 11.782 0 0 1-4.505 1.887c-.585.11-1.175.165-1.77.183a.203.203 0 0 0-.13.048c-.89.907-1.94 1.578-3.074 2.135-.904.445-1.859.714-2.84.905-1.259.245-2.52.477-3.78.72-1.546.296-3.084.626-4.58 1.132-.948.32-1.867.705-2.706 1.257-.633.415-1.196.907-1.593 1.561-.14.23-.24.486-.36.73a.464.464 0 0 1-.079.122c-.834.815-1.162 1.807-1.034 2.957.095.852.4 1.63.835 2.363.052.086.095.176.135.251.02-.186.037-.394.066-.6.185-1.311.86-2.288 2.009-2.94a7.6 7.6 0 0 1 2.134-.797 65.66 65.66 0 0 1 2.467-.482c1.002-.18 2.008-.332 2.982-.639.189-.06.376-.128.562-.198.24-.09.463-.206.671-.36a9.714 9.714 0 0 1 2.243-1.21l.064-.026c.002-.003.002-.007.005-.016l-.036-.003c-.892 0-1.785.006-2.676 0-.798-.004-1.593.02-2.384.125a14.184 14.184 0 0 0-3.188.822c-1.218.464-2.37 1.059-3.488 1.726a.284.284 0 0 1-.1.043c.02-.017.04-.036.06-.051 1.223-.928 2.526-1.72 3.964-2.275 1-.386 2.034-.64 3.101-.753.94-.099 1.881-.09 2.822-.021.814.059 1.628.118 2.442.174a.595.595 0 0 0 .215-.024c.805-.245 1.629-.39 2.46-.507.491-.07.976-.188 1.463-.285.033-.007.064-.025.096-.038l.005-.028v.002Z" fill="url(#l)"/>
      <path opacity=".2" d="M8.395 24.597c3.188-3.809 11.46-1.812 14.985-2.744-2.232 1.283-4.047 1.061-4.047 1.061s-7.618-.841-10.938 1.683Z" fill="#fff"/>
      <path d="M32.775 10.143c-.108.018-.188.023-.26.047-.288.09-.587.157-.857.286-.256.124-.493.3-.716.48-.43.35-.84.722-1.266 1.077-.347.29-.717.55-1.156.684a3.372 3.372 0 0 1-.437.092c.573-.288.893-.802 1.226-1.33-.029.005-.039.004-.046.007-.874.428-1.73.884-2.507 1.476a1.56 1.56 0 0 0-.489.583c-.186.39-.423.757-.638 1.133l-.046.079c.188-.04.353-.066.515-.108.684-.175 1.32-.471 1.946-.793a25.333 25.333 0 0 0 2.806-1.716.32.32 0 0 1 .091-.048c-.008.011-.014.024-.024.033-1.07 1.067-2.27 1.945-3.671 2.527a6.694 6.694 0 0 1-1.89.49c-.024.002-.055.01-.069.027-.146.176-.288.354-.449.553.4-.085.775-.16 1.148-.247 1.044-.242 2.067-.55 3.045-.995.722-.328 1.41-.714 1.99-1.262a6.157 6.157 0 0 0 1.655-2.586c.049-.148.064-.307.099-.49Z" fill="#E65271"/>
      <path opacity=".6" d="M14.714 19.838c.31-.104.662-.232 1.038-.377 4.44-1.384 5.903-2.537 5.903-2.537l4.459-3.3s.728.557 1.671-.172c-.643.772-2.614 1.372-2.614 1.372s-.09.606-.734 1.078c1.755-.596 4.702-.426 6.747-2.267-1.547 4.372-5.385 1.04-9.098 3.76-.428.257-6.09 1.704-3.276 1.605 2.813-.099 4.666 1.82 7.017 1.192-2.205.8-4.156-.482-7.225-.698.478.096 1.133.36 1.412.72-1.114-.796-3.294-.833-3.811-.65-.47.059-.965.148-1.485.274h-.004Z" fill="#8B4FBA"/>
      <path opacity=".2" d="M25.358 21.187c-3.233 1.284-14.66-2.436-19.789 3.335 0 0-.384-.172 1.659-2.462 8.034-3.84 14.011-.208 18.132-.873h-.002Z" fill="#2B2B2B"/>
      <path opacity=".7" d="M30.354 16.072c.956-.538.179.777-.777 1.553-3.766 2.63-5.467-.362-9.204 1.078 5.715-3.15 6.272.775 9.98-2.631Z" fill="url(#m)"/>
      <path opacity=".2" d="M30.063 16.818c.957-.538.472.03-.484.808-3.766 2.63-5.467-.363-9.204 1.077 3.677-2.045 5.982 1.521 9.686-1.885h.002Z" fill="#8B4FBA"/>
      <path opacity=".7" d="M11.472 15.41c-1.742 1.594-.376 5.086-.376 5.086l-1.24.266s-1.251-3.375 1.616-5.35v-.003Z" fill="url(#n)"/>
      <path opacity=".7" d="M14.478 12.733c1.313 2.336-2.169 5.55-.299 6.688-.03.153-1.07.674-1.02.524-2.308-3.54 1.498-4.384.998-6.598-2.668 3.64-2.697 4.36-1.4 6.664-.017.013-.16.199-.301.093-2.027-1.52-2.598-3.228 2.022-7.371Z" fill="url(#o)"/>
      <path opacity=".2" d="M18.768 17.482c.083 1.094.848-.684.963-1.91.1-4.593-4.556-3.482-4.768-7.195-.453 4.227 4.584 4.133 3.805 9.106v-.001Z" fill="#8B4FBA"/>
      <path opacity=".3" d="M23.281 15.66c.083 1.095 2.28-1.722 2.396-2.948-.737-7.877-8.846-3.086-10.966-5.99 1.751 3.18 13.085-1.243 8.568 8.938h.002Z" fill="#fff"/>
      <path d="M38.117 30.999c-.12.104-.217.199-.325.281a1.72 1.72 0 0 1-.278.172c-.237.114-.475.13-.715.002-.373-.198-.774-.213-1.182-.168a.294.294 0 0 0-.252.18c-.409.843-1.091 1.384-1.945 1.726-.098.039-.144.084-.161.19-.044.269-.062.533.002.8.103.427.369.734.727.97.375.247.793.393 1.225.5.52.13 1.045.216 1.581.214.273 0 .543-.032.805-.111.586-.177.948-.568 1.08-1.16.087-.384.168-.772.207-1.163.09-.895-.15-1.698-.741-2.388-.011-.012-.018-.029-.028-.045Z" fill="url(#p)"/>
      <path opacity=".3" d="M36.425 31.065c.044.27.55.342.783.334.413-.014.68-.254.948-.567.043-.05.077-.101.106-.152.467.372.728.877.656 1.39-.127.907-1.243 1.5-2.493 1.324-.863-.122-1.565-.579-1.872-1.15.228-.291.317-.663.618-.915.294-.245.873-.28 1.254-.264Z" fill="#F6E8A0"/>
      <path d="M6.047 22.54c.27.134.46.163.627.102a13.047 13.047 0 0 1-.26-2.966c.039-1.102.23-2.175.713-3.18a2.58 2.58 0 0 1 .216-.369c-.005.02-.009.04-.016.058-.26.654-.38 1.336-.42 2.036-.062 1.091.067 2.165.303 3.228.005.026.013.05.024.089.154-.104.304-.203.45-.307.018-.013.019-.06.015-.091a8.681 8.681 0 0 1 0-1.936c.1-.922.327-1.812.652-2.678a14.638 14.638 0 0 1 1.813-3.38l.052-.073c.004-.005.003-.013.008-.033l-.313.11c-.69.25-1.364.533-2.014.873-.102.053-.2.119-.286.194-.915.811-1.454 1.835-1.698 3.023-.036.177-.062.357-.111.534.01-.197.016-.395.033-.592.082-.937.257-1.858.573-2.746.08-.226.024-.43-.01-.641-.01-.066-.057-.127-.088-.19-.05.05-.113.09-.15.149-.259.412-.426.867-.563 1.332-.21.712-.336 1.444-.439 2.18a14.524 14.524 0 0 0-.154 2.071c.004.703.058 1.398.291 2.069.111.318.26.617.476.878.077.094.172.173.258.26l.018-.004Z" fill="url(#q)"/>
      <path opacity=".2" d="M9.227 13.066s-1.745.246-2.481 1.445c-.736 1.2-.948 3.263-.948 3.263s-.377 3.077.872 4.867c-.791-6.57 2.557-9.576 2.557-9.576v.001Z" fill="#2B2B2B"/>
      <path d="m6.048 22.54-.019.003a2 2 0 0 1-.87-.687c-.336-.443-.512-.956-.62-1.493-.161-.8-.175-1.608-.106-2.417.039-.462.107-.922.162-1.382.002-.016.003-.032.004-.066-.028.025-.048.038-.064.055a13.436 13.436 0 0 0-2.995 4.784.272.272 0 0 0 .003.16 15.24 15.24 0 0 0 1.655 3.538c.293.468.617.918.928 1.376.024.036.052.068.097.127.011-.23.134-.417.04-.643-.122-.287-.2-.59-.184-.909a.586.586 0 0 1 .116-.337c.081.231.144.458.325.633a.318.318 0 0 0 .03-.279c-.126-.376-.213-.76-.19-1.16.008-.122.036-.243.07-.366.109.3.29.546.499.782.012-.018.023-.03.03-.044.279-.577.636-1.101 1.062-1.58.02-.022.018-.063.027-.095Z" fill="url(#r)"/>
      <path opacity=".2" d="M4.697 24.08s-1.962-3.841-1.044-7.14c.115-.09-.184.143-.539.551-.054.062-.712 4.416.623 6.339-1.795-2.13-.945-5.934-1.02-5.824a3.38 3.38 0 0 0-.4.771c-.918 4.302 2.255 6.888 2.255 6.888l.125-1.586Z" fill="#2B2B2B"/>
      <path d="M34.726 37.906c-.082.123-.175.248-.25.384a.5.5 0 0 0-.037.405c.056.173.172.24.351.214.144-.022.289-.044.434-.05.154-.004.165.017.182.166.004.04.01.08.024.117.058.148.144.275.316.298.166.022.284-.071.374-.2a.605.605 0 0 0-.421-.957c-.145-.02-.296.004-.444.008-.029.001-.057.007-.086.01l-.021-.027c.04-.047.07-.109.12-.138a.56.56 0 0 1 .352-.07c.8.092 1.563-.003 2.24-.482.377-.266.655-.616.868-1.022 0-.003.004-.005.005-.008.027-.074.081-.164.008-.22-.042-.033-.139-.018-.203.003-.298.098-.588.222-.89.305-.442.12-.9.124-1.354.1-.615-.033-1.218-.13-1.798-.349a5.206 5.206 0 0 1-1.747-1.063 1.497 1.497 0 0 0-.183-.153c-.11-.073-.187-.037-.19.097-.004.095.005.193.027.286.217.949.793 1.616 1.644 2.057.222.116.462.198.679.29Z" fill="#E65270"/>
      <path d="M.953 20.248c-.034 3.423 1.067 6.394 3.359 8.917-.032-.232-.075-.464-.095-.696a35.307 35.307 0 0 1-.072-1.191.373.373 0 0 0-.07-.21c-.858-1.239-1.646-2.52-2.274-3.893-.318-.697-.59-1.412-.737-2.167-.047-.244-.073-.492-.11-.758v-.002Z" fill="url(#s)"/>
      <path d="M28.945 8.993c.41-.71.834-1.394.984-2.199.025-.134.017-.277.009-.416a5.92 5.92 0 0 1 .287-2.274c.022-.066.05-.135.048-.201a.282.282 0 0 0-.067-.163c-.047-.056-.11-.036-.171-.001-.194.11-.334.27-.447.457-.23.377-.351.793-.436 1.22-.234 1.167-.27 2.348-.223 3.534 0 .007.004.012.016.043Z" fill="url(#t)"/>
      <path opacity=".4" d="M29.184 4.471c.075-.158.381-.505.505-.605l.277-.177c-.279.71-.379 1.435-.379 2.192 0 .638.197 1.23.228 1.866.025.523-.203.786-.475 1.212-.122.191-.29.606-.555.608-.123-.303-.104-.682-.107-1.006-.003-.387-.065-.765-.05-1.156.03-.739.428-2.661.556-2.934Z" fill="#8B4FBA"/>
      <path d="m38.74 35.06-.016.014c-.302.62-.838.892-1.487.946-1.07.091-2.098-.11-3.073-.558-.411-.189-.763-.464-.96-.886-.086-.182-.128-.386-.192-.586-.212-.001-.466.209-.483.436a.475.475 0 0 0 .06.225c.134.279.35.49.586.68.606.49 1.3.798 2.053.98.99.24 1.978.247 2.956-.05.231-.07.45-.187.666-.302a.412.412 0 0 0 .226-.44.551.551 0 0 0-.335-.458Z" fill="#E65270"/>
      <path opacity=".4" d="m38.74 35.06-.016.014c-.302.62-.838.892-1.487.946-1.07.091-2.098-.11-3.073-.558-.411-.189-.763-.464-.96-.886-.086-.182-.128-.386-.192-.586-.212-.001-.466.209-.483.436a.475.475 0 0 0 .06.225c.134.279.35.49.586.68.606.49 1.3.798 2.053.98.99.24 1.978.247 2.956-.05.231-.07.45-.187.666-.302a.412.412 0 0 0 .226-.44.551.551 0 0 0-.335-.458Z" fill="#2B2B2B"/>
      <path d="M27.987 25.214c-.007.383.073.744.238 1.086.334.687.886 1.137 1.576 1.431.603.258 1.235.345 1.887.312.008 0 .016-.004.044-.013a5.84 5.84 0 0 1-1.29-.347c-.71-.284-1.336-.688-1.823-1.29a3.476 3.476 0 0 1-.591-1.073c-.012-.036-.027-.071-.041-.106ZM33.305 19.727c.702-.428.853-1.434.404-2.009.105.718-.04 1.385-.404 2.01ZM34.463 23.675c.343.28.755.358 1.186.35.172-.003.343-.032.515-.04.093-.005.19.001.282.021.173.04.25.013.31-.153.134-.38.197-.773.152-1.174a2.012 2.012 0 0 0-.138-.565c-.3-.7-1.206-.987-1.878-.605-.086.049-.168.107-.245.17-.082.066-.155.143-.24.222.037.044.069.086.104.122a.304.304 0 0 1 .087.293c-.077.348.074.594.364.753a4.012 4.012 0 0 0 1.017.361.114.114 0 0 0 .082-.03c.18-.117.31-.27.39-.471.044.118.035.315-.003.461-.024.09-.008.312.038.376a.098.098 0 0 0-.01.012.902.902 0 0 1-.063-.033c-.232-.143-.492-.188-.757-.22-.328-.042-.646-.117-.925-.306a1.156 1.156 0 0 1-.536-.95c0-.012-.003-.024-.007-.057-.304.594-.21 1.064.275 1.463Z" fill="#0D0D0D"/>
      <path d="M34.906 22.396a.669.669 0 1 0 1.338 0 .669.669 0 0 0-1.338 0Z" fill="url(#u)"/>
      <g clip-path="url(#v)">
        <path d="M35.123 22.285a.079.079 0 0 0 .041-.012l.158-.098a.08.08 0 0 0 .037-.067v-.198a.079.079 0 0 0-.037-.067l-.158-.098a.079.079 0 0 0-.083 0l-.158.098a.079.079 0 0 0-.037.067v.198c0 .027.014.052.037.067l.158.098a.079.079 0 0 0 .041.012Z" fill="#fff"/>
      </g>
      <path d="M37.897 33.663c.118.074.303.043.372-.087.285-.542.259-1.175-.02-1.714-.16-.31-.64-.06-.48.249.19.368.23.821.04 1.182-.068.13-.044.29.088.37Z" fill="#fff"/>
      <path opacity=".2" d="M8.858 35.226c-.17-4.836 2.812-3.263 4.136-5.303.109-.127.172-.27.221-.38-1.488.819-5.66.271-4.36 5.683h.003Z" fill="#430A1D"/>
      <path opacity=".2" d="M6.59 25.802c4.093-3.525 12.174-3.14 12.766-3.09-3.39 2.418-13.56.145-13.933 7.504-.66-2.09.19-3.574 1.166-4.415v.001Z" fill="#2B2B2B"/>
      <path opacity=".2" d="M13.132 29.735v1.823c0 .754-.948.343-1.314-.693.914-.358 1.314-1.13 1.314-1.13Z" fill="#430A1D"/>
      <path opacity=".2" d="M12.626 30.092c.685-1.21-.02-2.257-.129-2.301.39-.02 1.138-.752 1.317-.995.278-.381.295-.934.319-1.387.553-.025.942-.363 1.445-.484-.428.4-1.008.875-1.268 1.415a11.11 11.11 0 0 0-.582 1.543c-.127.418-.245.833-.324 1.264-.058.321-.247.753-.213 1.066 0 0-.07 2.814.494 4.203-1.069-.364-1.63-1.236-1.824-1.573-.22-.382-.635-1.331-.121-1.936.332-.121.695-.48.886-.816v.001Z" fill="#430A1D"/>
      <path d="M2.617 33.75c2.152 2.964 5.028 4.87 8.607 5.699 1.192.276 2.403.351 3.626.346 2.99-.013 5.98-.005 8.968-.005 2.01-.001 4.022 0 6.032-.005.478-.001.956-.033 1.413-.192.45-.156.796-.43.988-.877.277-.643.04-1.452-.556-1.888-.438-.32-.94-.413-1.47-.39-.142.007-.284.03-.425.044-.033.004-.068.011-.099.004-.045-.01-.088-.032-.133-.049.026-.037.044-.081.077-.109a3.329 3.329 0 0 0 1.103-1.734c.066-.252.085-.51.061-.77l-.004-.059c-.005-.134.04-.176.173-.182.391-.018.782-.033 1.172-.064.186-.015.37-.06.58-.073-.024.032-.042.08-.075.094a1.12 1.12 0 0 0-.617.705c-.12.377-.204.762-.187 1.162.027.646.278 1.202.687 1.692.368.44.82.77 1.333 1.021.066.033.083.06.06.135a.99.99 0 0 0 .017.636.517.517 0 0 0 .246.289c.27.15.58.17.873.048.008.042.015.09.026.13.085.322.292.45.606.639h.219c.009 0 .017-.024.026-.025.552-.094.784-.598.72-1.076-.016-.124-.052-.245-.076-.356.25-.066.508-.117.754-.203 1.136-.395 1.886-1.162 2.204-2.33.127-.468.049-.887-.314-1.234-.023-.022-.025-.077-.02-.115.071-.441.18-.88.209-1.324.068-1.054-.264-1.978-.996-2.749-.043-.045-.046-.083-.035-.139.048-.236.104-.472.133-.71.06-.483-.124-.883-.446-1.23-.028-.031-.06-.065-.073-.103a.983.983 0 0 0-.52-.574c-.495-.25-1.02-.3-1.56-.21-.354.06-.677.208-.997.36-.141.067-.27.1-.401-.014-.022-.02-.057-.024-.078-.043-.036-.034-.097-.081-.09-.11.01-.044.062-.094.107-.112.249-.098.506-.15.776-.15.202 0 .405-.006.605-.03.639-.078 1.224-.308 1.774-.636a.342.342 0 0 1 .119-.048 1.695 1.695 0 0 0 1.406-1.374c.012-.072.01-.154.047-.21.301-.466.326-.96.152-1.47-.11-.32-.263-.628-.385-.946a2.045 2.045 0 0 1-.147-.522 8.218 8.218 0 0 0-.246-1.49c-.288-1.038-.802-1.938-1.628-2.644-.833-.712-1.81-1.087-2.892-1.202-.095-.01-.145-.04-.187-.135-.237-.536-.625-.912-1.184-1.107a.56.56 0 0 0-.427 0c-.195.089-.393.179-.568.301-.456.32-.818.733-1.118 1.201-.023.036-.05.082-.085.094-.047.015-.116.02-.152-.005-.028-.018-.034-.095-.023-.139.012-.052.052-.098.084-.144a9.31 9.31 0 0 0 1.534-3.794.256.256 0 0 1 .07-.123c.196-.199.398-.39.591-.591a2.38 2.38 0 0 0 .648-1.48c.002-.036-.032-.072-.049-.109-.037.022-.086.035-.109.066-.053.072-.09.155-.139.23-.032.049-.074.091-.112.138-.012-.028-.009-.043-.003-.058.208-.53.353-1.076.423-1.642.02-.157.033-.317.037-.475.003-.116-.074-.19-.151-.158a.352.352 0 0 0-.109.083c-.31.307-.674.534-1.047.749-.009-.012-.015-.017-.015-.023l-.029-.166c-.1-.653-.272-1.289-.471-1.919-.152-.48-.238-.973-.154-1.48.05-.302.157-.575.413-.768.02-.014.033-.037.055-.063-.03-.016-.048-.03-.069-.035-.37-.082-.753-.034-.96.391-.024.048-.056.091-.099.162-.046-.093-.093-.154-.108-.221a3.313 3.313 0 0 1-.06-1.02c.04-.422.189-.81.373-1.187.047-.098.093-.2.123-.303.055-.188-.05-.327-.247-.324a.887.887 0 0 0-.29.052 2.008 2.008 0 0 0-1.098.96c-.02.037-.038.074-.06.119-.194-.19-.371-.373-.463-.625a3.775 3.775 0 0 0-.218-.468c-.058-.109-.101-.106-.172-.007-.019.026-.036.055-.057.08-.054.066-.096.067-.139-.007a1.3 1.3 0 0 1-.092-.208 1.926 1.926 0 0 0-.617-.85c-.02-.015-.041-.027-.086-.054.016.108.03.191.04.275.013.086.022.172.033.263-.026-.003-.033-.003-.038-.006A11.041 11.041 0 0 0 23.623.727c-.413-.098-.846-.133-1.22-.367-.008-.006-.018-.008-.027-.013-.074-.029-.128-.013-.186.045-.036.036-.101.052-.153.051-.166-.004-.331-.04-.497-.054a2.895 2.895 0 0 1-.453-.084C20.837.242 20.594 0 20.349 0h-.18c-.057 0-.125.165-.171.223-.082.101-.181.22-.309.229-.845.052-1.68.175-2.503.38-1.253.31-2.43.793-3.485 1.551-.77.555-1.43 1.214-1.9 2.048-.095.17-.171.352-.247.531a.601.601 0 0 0-.023.429c.04.119.13.185.25.166.69-.108 1.272.143 1.81.534.534.39.942.887 1.174 1.51.342.921.157 1.745-.488 2.475-.065.074-.139.14-.218.22-.03-.112-.055-.213-.084-.315-.146-.498-.355-.964-.71-1.352-.206-.227-.287.042-.235.452.111.872-.157 1.622-.764 2.252a.374.374 0 0 1-.145.082c-.64.226-1.283.442-1.92.678-1.135.423-2.232.93-3.271 1.556-.014.009-.03.017-.045.025a.286.286 0 0 1-.134-.265c.005-.141.028-.282.045-.423.002-.017.007-.033.009-.05.033-.248-.064-.33-.294-.218a.97.97 0 0 0-.303.247c-.265.317-.429.692-.586 1.068-.083.199-.15.405-.233.603a.538.538 0 0 1-.139.196c-.9.765-1.738 1.589-2.449 2.537a14.082 14.082 0 0 0-1.55 2.6c-.01.024-.023.048-.034.071-.004.006-.01.009-.023.02a9.024 9.024 0 0 1-.085-2.43c-.064.242-.136.483-.193.726a10 10 0 0 0-.234 2.984.431.431 0 0 1-.025.155c-.3.942-.506 1.904-.594 2.887-.308 3.436.527 6.578 2.554 9.372v-.003Zm-.816-10.573c.628 1.373 1.416 2.654 2.274 3.892.045.065.066.13.07.21.019.397.04.794.072 1.19.02.234.063.466.095.697C2.02 26.645.919 23.676.953 20.25c.039.265.064.513.111.756.146.756.419 1.471.737 2.169v.002Zm8.423-10.134c-.005.02-.005.027-.008.032l-.052.073a14.644 14.644 0 0 0-1.814 3.38 10.966 10.966 0 0 0-.652 2.678 8.682 8.682 0 0 0 0 1.936c.004.03.004.078-.014.091-.146.105-.297.204-.45.307-.011-.037-.02-.063-.025-.089-.236-1.063-.364-2.136-.302-3.228.04-.7.16-1.382.42-2.035.007-.02.01-.04.015-.058a2.618 2.618 0 0 0-.215.369c-.484 1.005-.675 2.078-.713 3.18-.034.995.067 1.985.26 2.966-.168.06-.356.031-.627-.102-.008.032-.007.073-.026.096a6.88 6.88 0 0 0-1.063 1.579c-.007.014-.017.026-.03.044-.209-.237-.39-.482-.5-.782a1.818 1.818 0 0 0-.068.366c-.024.4.064.784.19 1.16.033.101.023.183-.03.279-.181-.174-.244-.402-.325-.633a.587.587 0 0 0-.117.337c-.016.32.062.622.184.91.094.224-.028.412-.04.642-.044-.059-.073-.09-.097-.127-.31-.458-.634-.907-.928-1.376-.695-1.111-1.262-2.284-1.654-3.538a.272.272 0 0 1-.003-.16 13.422 13.422 0 0 1 2.994-4.784c.017-.017.037-.03.065-.055-.002.033-.002.05-.004.066-.056.46-.124.92-.163 1.382-.069.81-.055 1.618.106 2.417.109.537.285 1.05.62 1.493.23.305.51.547.871.687-.087-.086-.18-.165-.258-.26a2.816 2.816 0 0 1-.476-.878c-.234-.67-.287-1.365-.29-2.068-.004-.695.057-1.385.153-2.072.103-.735.229-1.466.439-2.18.137-.465.304-.919.564-1.332.036-.057.099-.099.15-.148.03.063.076.124.087.19.035.212.09.416.01.64a10.998 10.998 0 0 0-.573 2.747c-.017.197-.022.395-.033.592.049-.178.075-.357.111-.534.244-1.188.783-2.212 1.698-3.023.086-.075.184-.142.286-.194.65-.34 1.325-.623 2.014-.873l.313-.11Zm20.051-9.137c.002.067-.025.136-.047.201a5.904 5.904 0 0 0-.288 2.274c.008.139.016.282-.009.417-.15.804-.574 1.488-.984 2.198-.011-.03-.015-.036-.015-.041-.046-1.186-.01-2.368.223-3.535.085-.427.207-.843.436-1.22.112-.186.253-.347.447-.457.06-.034.124-.054.171.001a.28.28 0 0 1 .066.162Zm.49 6.287a4.421 4.421 0 0 1-.589.367c-.724.364-1.49.623-2.249.902-.147.055-.29.132-.42.219-.263.171-.458.412-.627.673-.081.123-.157.25-.235.375.002-.042.015-.079.025-.116.09-.305.192-.607.263-.916.1-.432.26-.835.5-1.205.13-.2.274-.39.4-.593.08-.128.15-.266.206-.406.033-.084.03-.182.043-.273l-.04-.02c-.04.034-.086.063-.12.103-.14.16-.273.325-.416.481-.03.035-.1.07-.135.057-.033-.013-.069-.087-.064-.13.018-.173.028-.352.082-.515.075-.225.192-.435.28-.658.042-.108.07-.228.08-.344.005-.055-.049-.115-.075-.172-.047.032-.1.058-.139.098-.068.072-.123.156-.193.226s-.134.058-.174-.03c-.028-.061-.057-.136-.048-.198.024-.156.067-.31.106-.463.037-.14.09-.278.118-.419a.243.243 0 0 0-.105-.262c-.028.042-.058.077-.076.117-.04.084-.07.172-.107.257-.085.194-.159.394-.258.58-.088.163-.175.149-.27-.01-.182-.311-.363-.624-.568-.92a1.06 1.06 0 0 1-.195-.522c-.023-.254-.036-.51-.062-.763a.397.397 0 0 0-.14-.283l-.057.283c-.026.13-.044.261-.08.389-.024.089-.096.098-.141.018a.595.595 0 0 1-.074-.241c-.01-.155.003-.312-.005-.467a.663.663 0 0 0-.055-.21c-.012-.028-.05-.047-.075-.07-.018.028-.041.055-.05.087-.013.037-.014.078-.02.117-.017.115-.026.232-.053.344-.029.12-.105.141-.18.043a1.011 1.011 0 0 1-.159-.304c-.053-.167-.075-.342-.126-.51a.734.734 0 0 0-.128-.219c-.019-.024-.074-.04-.104-.03-.022.005-.044.056-.046.088-.002.13.003.259.005.388v.197c-.029-.006-.04-.006-.046-.01a.25.25 0 0 1-.046-.039.907.907 0 0 1-.25-.499c-.012-.086-.016-.172-.032-.256-.02-.1-.08-.138-.18-.125-.107.012-.174.09-.185.225-.007.087-.001.175-.001.277-.121-.062-.229-.12-.338-.173a10.69 10.69 0 0 0-3.529-1.04c-.798-.092-1.596-.095-2.387.066-.478.097-.934.253-1.33.552-.057.044-.11.093-.166.14.44-.254.698-.358 1.095-.434.723-.138 1.446-.118 2.169-.013 1.271.185 2.473.586 3.602 1.201.875.478 1.665 1.063 2.305 1.837.048.058.093.118.139.176-1.31-.624-2.788.552-4.267.03 2.027 1.045 3.227-.301 4.369.57.29.221.342.792-.323.696-.634-.09.956.224 1.24 1.876-.015.27-.053.544-.115.824-.273 1.238-.849 2.33-1.64 3.312-.815 1.011-1.838 1.763-2.988 2.352a.38.38 0 0 0-.058.019c.004-.014.003-.02.006-.024l.049-.076c.55-.817 1-1.68 1.22-2.647.15-.664.169-1.329-.04-1.986-.235-.733-.704-1.292-1.316-1.739-.686-.502-1.461-.815-2.27-1.055-.172-.051-.348-.097-.543-.15.022.023.024.03.03.031l.101.04a6.7 6.7 0 0 1 1.59.854c.701.522 1.218 1.178 1.452 2.033.207.755.16 1.51-.024 2.262-.238.974-.68 1.856-1.212 2.7a.83.83 0 0 1-.485.385c-.265.078-.524.18-.81.281.81-.87.833-2.095.677-2.813-.003.012-.006.02-.006.03-.028.585-.228 1.112-.555 1.593-.488.718-1.15 1.242-1.896 1.668-.058.033-.128.044-.193.064.27-.31.477-.65.598-1.039.118-.376.159-.966.08-1.177-.123.41-.251.679-.526 1.028a7.36 7.36 0 0 1-1.651 1.551c-.425.291-.87.532-1.349.715-.847.324-1.73.523-2.608.738-.772.19-1.542.385-2.308.599-.418.117-.82.29-1.167.561-.062-.138-.179-.626-.183-1.014-.05-4.572 3.587-7.013 4.694-8.293.323-.372.508-.829.67-1.29.066-.187.122-.377.184-.572.011.014.021.023.026.033.31.595.5 1.202.352 1.89-.228 1.054-.651 1.994-1.45 2.74-.009.008-.016.019-.043.05.039-.02.052-.025.065-.034.657-.378 1.257-.828 1.764-1.394a5.254 5.254 0 0 0 1.375-3.344c.027-.557-.05-1.107-.112-1.656-.165-1.464-1.234-2.649-2.67-2.998a1.39 1.39 0 0 1-.316-.115c-.138-.073-.176-.194-.124-.339a.782.782 0 0 1 .077-.15 3.19 3.19 0 0 1 .977-.978c.204-.13.409-.26.606-.4.808-.578 1.678-1.026 2.639-1.29.397-.109.798-.205 1.215-.168.13.01.257.059.387.074.054.007.113-.03.17-.048-.032-.036-.058-.084-.098-.106-.25-.145-.528-.19-.812-.199-.418-.014-.825.065-1.231.148-.041.008-.085.008-.127.012a2.993 2.993 0 0 1 1.121-.597c.673-.204 1.361-.25 2.058-.192.223.019.449.028.654.144.202.114.414.21.623.31.045.023.095.034.144.05l.021-.023c-.022-.057-.04-.115-.068-.168-.075-.148-.157-.292-.233-.44-.014-.028-.007-.067-.009-.102.031-.001.067-.013.094-.003.16.053.323.1.476.172.217.103.444.138.682.155.323.022.647.052.969.098.471.068.831.312 1.064.734.055.098.113.195.172.29.021.035.05.064.076.095l.035-.015-.224-.767c.245.055.499.225.7.462.103.118.194.245.295.364.04.047.095.081.142.122l.041-.021c-.02-.168-.04-.336-.058-.505l.03-.01c.153.093.303.188.456.28.517.312 1.002.663 1.365 1.158.05.068.087.058.113-.025.033-.104.054-.211.09-.315.01-.031.054-.074.079-.072.035.003.083.037.095.069.024.067.034.14.039.213.01.145.006.291.022.436.004.044.051.085.08.126.037-.033.088-.058.108-.1.057-.119.1-.245.154-.366.05-.112.079-.114.15-.019.095.126.2.228.378.215.165-.013.186 0 .247.153.105.262.194.529.301.789.051.124.13.237.191.356.015.029.029.069.021.097-.218.704-.279 1.43-.286 2.162-.006.677.007 1.354-.016 2.03-.018.528-.107 1.044-.501 1.451a.98.98 0 0 0 .155-.062c.254-.132.462-.321.644-.54.403-.481.668-1.04.903-1.617.188-.462.377-.924.575-1.383.049-.114.13-.214.203-.317.018-.024.07-.052.09-.042.03.013.058.056.062.09.01.075.01.153.007.228-.017.378-.048.755.017 1.132.01.058.026.123.011.176-.142.517-.326 1.016-.644 1.455-.01.014-.016.03-.037.07.227-.102.38-.252.504-.428.123-.177.232-.365.354-.56l.15.613c.07.292-.017.532-.254.704h.003Zm.257 3.03c-.58.548-1.267.934-1.99 1.262-.977.445-2 .753-3.045.995-.373.087-.749.162-1.147.247.16-.199.302-.377.448-.553.014-.017.045-.025.07-.028a6.706 6.706 0 0 0 1.889-.489c1.402-.582 2.601-1.46 3.67-2.527.01-.01.018-.022.026-.033a.315.315 0 0 0-.091.048c-.903.626-1.831 1.21-2.807 1.716-.625.322-1.262.618-1.946.793-.161.041-.326.069-.515.107.026-.044.037-.06.046-.078.215-.376.452-.743.639-1.133a1.56 1.56 0 0 1 .488-.583c.777-.592 1.633-1.048 2.507-1.476.008-.003.018-.002.046-.007-.332.527-.653 1.041-1.226 1.33.148-.024.295-.049.437-.092.44-.135.81-.394 1.157-.684.424-.355.835-.728 1.266-1.077.222-.18.46-.355.716-.48.269-.13.568-.197.856-.286.073-.024.152-.029.26-.047-.035.182-.05.341-.098.49a6.158 6.158 0 0 1-1.656 2.585Zm-5.29 7.755a3.49 3.49 0 0 1-.67.295c-.474.143-.969.146-1.46.145-.349-.001-.697-.006-1.045-.002-.088.001-.174.029-.26.044l-.002.049c.075.029.148.064.224.085.243.07.487.131.729.199.047.013.09.04.136.062l-.004.028c-.032.013-.063.03-.097.038-.486.096-.971.214-1.462.284-.831.118-1.655.262-2.46.507a.62.62 0 0 1-.215.026c-.814-.056-1.628-.115-2.442-.174a15.836 15.836 0 0 0-2.822.021c-1.068.113-2.101.366-3.101.752-1.437.556-2.74 1.347-3.964 2.275-.021.016-.04.034-.061.051a.295.295 0 0 0 .1-.042c1.118-.667 2.27-1.263 3.489-1.727a14.184 14.184 0 0 1 3.187-.821 17.342 17.342 0 0 1 2.384-.125c.892.005 1.785 0 2.677 0l.036.003-.005.013-.064.027a9.71 9.71 0 0 0-2.243 1.209c-.209.154-.433.27-.672.36-.186.07-.372.139-.562.199-.973.307-1.98.458-2.981.639-.825.148-1.65.3-2.468.481a7.596 7.596 0 0 0-2.134.797c-1.149.653-1.824 1.63-2.008 2.94-.03.207-.046.415-.067.6-.04-.074-.083-.165-.135-.25-.435-.733-.74-1.512-.834-2.363-.128-1.15.2-2.143 1.033-2.958a.457.457 0 0 0 .08-.122c.12-.244.22-.5.359-.73.398-.653.96-1.145 1.593-1.561.84-.552 1.759-.937 2.706-1.257 1.495-.505 3.033-.835 4.58-1.133 1.26-.242 2.521-.474 3.78-.719.982-.19 1.937-.459 2.84-.904 1.135-.558 2.184-1.228 3.073-2.135.03-.03.086-.047.131-.049a11.212 11.212 0 0 0 1.77-.182 11.781 11.781 0 0 0 4.506-1.887c.022-.015.046-.026.083-.048-.008.049-.012.078-.019.106a9.827 9.827 0 0 1-.46 1.5c-.953 2.38-2.537 4.207-4.78 5.455v-.001Zm13.156 12.457c-.04.391-.121.779-.207 1.163-.133.591-.494.983-1.08 1.16-.263.079-.532.11-.805.111a6.5 6.5 0 0 1-1.581-.213c-.433-.109-.85-.254-1.226-.502-.357-.235-.624-.542-.727-.97-.063-.266-.045-.53-.002-.798.017-.107.063-.153.161-.192.855-.34 1.537-.882 1.946-1.725a.292.292 0 0 1 .251-.18c.409-.045.809-.03 1.182.168.24.127.48.113.716-.002.097-.048.192-.106.278-.172.108-.082.205-.177.324-.282.01.018.017.033.028.046.591.69.83 1.493.742 2.388Zm-6.32 1.745c.066.044.125.099.184.153.509.474 1.096.819 1.746 1.063.58.218 1.184.315 1.798.348.454.025.912.02 1.354-.1.302-.082.592-.206.89-.305.065-.02.161-.035.204-.002.072.056.018.145-.009.22l-.005.008c-.213.405-.49.756-.867 1.022-.678.479-1.44.573-2.24.482a.557.557 0 0 0-.352.07c-.05.028-.081.09-.121.138l.022.026c.028-.003.056-.008.085-.01.148-.004.3-.027.444-.007.467.062.69.577.422.957-.09.128-.208.22-.375.2-.172-.023-.257-.15-.316-.299a.46.46 0 0 1-.024-.116c-.017-.15-.028-.17-.182-.165-.145.004-.29.027-.433.048-.18.026-.295-.04-.352-.214a.5.5 0 0 1 .037-.405c.075-.136.169-.26.25-.383-.217-.091-.456-.173-.679-.289-.85-.44-1.426-1.107-1.643-2.056a1.095 1.095 0 0 1-.028-.286c.004-.135.08-.171.19-.098Zm.444-1.186c.064.2.106.403.191.586.198.422.55.697.96.886.976.448 2.003.649 3.074.558.648-.055 1.185-.326 1.487-.946l.017-.013a.551.551 0 0 1 .335.46.412.412 0 0 1-.226.439c-.215.114-.435.232-.666.302-.978.297-1.967.29-2.956.05-.752-.182-1.447-.49-2.053-.98-.236-.19-.452-.401-.587-.68a.476.476 0 0 1-.059-.226c.018-.227.27-.438.483-.436ZM1.948 29.013C1.154 27.632.74 26.166.74 25.941c-.002-.703.052-1.404.157-2.102.025-.161.057-.322.085-.483.03.03.04.06.048.09.118.39.22.784.354 1.168.706 2.012 1.78 3.815 3.108 5.471.049.06.09.132.114.206.29.89.704 1.697 1.235 2.428-.596-.254-1.275-.345-2.083-1.276.993 1.916 3.346 2.675 3.346 2.675 1.31 1.172 2.834 1.946 4.522 2.41.136.037.274.066.411.1-.03-.03-.064-.042-.097-.055a12.155 12.155 0 0 1-3.462-1.902c-1.304-1.028-2.29-2.294-2.88-3.857-.063-.168-.093-.325-.028-.497.044-.118.067-.244.103-.364.278-.905.711-1.72 1.409-2.376.667-.63 1.469-1.01 2.338-1.267 1.042-.305 2.118-.418 3.19-.558.62-.08 1.239-.179 1.858-.274.166-.025.33-.066.508-.102-.013.022-.017.032-.024.04a7.911 7.911 0 0 0-1.207 1.792.195.195 0 0 1-.106.094c-.286.09-.57.198-.864.256-.435.087-.88.12-1.315.207-2.334.463-3.054 1.713-3.043 1.702.709-.753 1.843-.965 2.142-1.07.699-.242 1.423-.308 2.156-.3.215.002.428.015.649.024-.658 2.148-.571 4.242.32 6.295a.422.422 0 0 0-.017-.113c-.349-1.325-.49-2.665-.29-4.03a7.163 7.163 0 0 1 2.163-4.231c.901-.872 1.962-1.499 3.099-2.004 1.08-.48 2.216-.778 3.361-1.054.862-.208 1.728-.412 2.579-.662 1.14-.334 2.171-.883 3.05-1.694.136-.125.274-.254.386-.4.74-.959 1.644-1.709 2.755-2.198.07-.235.193-.483.384-.742.272-.363.608-.663.97-.932a.935.935 0 0 1 .366-.144c.139-.029.222.038.27.173a.899.899 0 0 1 .028.115.774.774 0 0 1 .221.122c.05.038.098.08.142.124.204.206.347.45.464.713.025.057.058.08.117.087.138.018.276.037.412.063 2.21.438 3.82 2.117 4.101 4.533.026.218.024.444.09.648.082.26.22.501.335.75.1.22.212.436.299.66.09.23.1.471.03.713-.023.083-.072.105-.137.065-.09-.057-.173-.13-.26-.194-.105-.079-.204-.169-.318-.231-.093-.052-.198-.04-.282.054.02.015.036.026.05.04.227.202.456.403.68.61a.156.156 0 0 1 .044.111c-.02.322-.127.612-.355.843-.293.297-.638.456-1.066.355-.011.16-.022.188-.114.237-.596.323-1.228.513-1.912.5-.502-.008-.956.151-1.388.393a1.875 1.875 0 0 1-.427.182c-.467.124-.946.16-1.428.172-.04 0-.079.003-.118.005a.13.13 0 0 0 .074.042c.385.091.775.103 1.167.075.128-.01.27-.037.382.008.324.132.638.29.95.45.088.046.165.067.253.034.199-.074.398-.147.59-.233.411-.183.831-.293 1.285-.23.248.033.49.088.706.22.14.086.25.196.262.375.002.026.024.053.045.072.058.054.122.102.18.155a.68.68 0 0 1 .225.59c-.018.197-.076.23-.247.143-.083-.042-.168-.076-.255-.01.11.07.217.133.32.203.153.105.207.257.202.44-.016.507-.615.957-1.13.844-.169-.038-.32-.105-.413-.265-.012-.022-.047-.044-.07-.042-.135.007-.272.006-.401.035-.238.054-.473.111-.717.064-.113-.02-.224-.052-.34-.079-.092.317-.242.6-.442.854-.465.591-1.076.966-1.782 1.197-.914.3-1.854.333-2.794.198-1.36-.194-2.324-.932-2.844-2.213-.13-.317-.195-.659-.292-.989a7.046 7.046 0 0 0-.64-1.527c-.445-.777-1.029-1.416-1.828-1.837-.898-.474-1.853-.568-2.841-.392-.188.033-.372.081-.58.128.361.022.694.03 1.023.063a5.793 5.793 0 0 1 2.558.862c.929.59 1.624 1.362 1.914 2.457.155.585.373 1.154.645 1.697.18.365.38.714.66 1.013.465.497 1.048.778 1.69.96.199.055.395.116.59.179.096.031.157.1.195.197.107.28.139.565.08.859-.09.462-.316.854-.62 1.205-.261.303-.588.524-.916.745-.16.107-.314.223-.459.347a.517.517 0 0 0-.194.421c.014.3.031.347.33.248.046-.016.092-.034.138-.054.244-.105.486-.211.731-.314.47-.196.958-.269 1.459-.148.555.132.947.458 1.123 1.016.036.114.045.235-.016.338-.03.05-.105.1-.162.102-.05.001-.11-.056-.151-.102-.026-.028-.025-.08-.037-.122-.057-.215-.15-.405-.362-.51-.04-.02-.085-.025-.128-.037.28.292.433.622.413 1.02-.016.303-.253.5-.558.483-.088-.005-.15-.047-.16-.133-.013-.104-.008-.21-.01-.316-.003-.126.006-.254-.012-.377-.027-.202-.152-.333-.346-.396a.348.348 0 0 0-.271.03c.122.026.239.063.3.178.06.11.12.224.15.344.064.258.033.507-.204.666a.934.934 0 0 1-.383.118c-.281.04-.551-.04-.823-.103a2.262 2.262 0 0 0-.499-.064c-.157 0-.316.033-.472.062-.949.17-1.903.098-2.869.086-1.045-.013-2.09-.006-3.136-.007h-5.612c-.773 0-1.546.007-2.319.002a12.703 12.703 0 0 1-3.15-.397c-3.925-1.027-6.864-3.152-8.8-6.715-.853-1.571-1.34-3.253-1.512-5.016-.02-.208 1.152 1.975 1.14 1.761h-.003Z" fill="#0D0D0D"/>
      <path d="M32.642 19.756c-.33-.702-.334-.999.03-1.663.275-.502 1.005-.055.907-.616-.042-.486-.552-1.021-.647-1.138-.116-.137-.18-.273-.352-.238a1.115 1.115 0 0 0-.432.202c-.446.331-.86.701-1.195 1.149-.606.808-.356 1.298.353 1.943.3.272 1.371.436 1.336.361Z" fill="#E65270"/>
      <path opacity=".2" d="M31.986 17.09c.175-.19.447-.375.73-.564.151-.1-.297 1.126-.428 1.453-.428 1.071.133 1.734-.021 1.652-.34-.18-.826-.81-.86-1.2-.037-.422.29-1.024.58-1.34Z" fill="#2B2B2B"/>
      <path d="M32.508 19.69c-.33-.701-.333-.998.032-1.663.274-.5.401-1.006.302-1.567a1.26 1.26 0 0 0-.043-.186c-.059-.168-.162-.25-.334-.215a1.154 1.154 0 0 0-.45.178c-.447.332-.86.702-1.196 1.15-.465.62-.414 1.042-.062 1.512.101.134.163.13.293.154.168.032.202-.202.149-.296-.123-.218-.204-.437-.22-.608-.036-.423.2-.881.489-1.197.267-.293.809-.747 1.178-.858.09.343-.1 1.025-.221 1.356-.147.405-.591 1.143-.48 1.624 0 0 .157.445.323.558.166.113.24.059.24.059Z" fill="#0D0D0D"/>
      <path d="M12.496 27.792a.229.229 0 0 1-.121-.02.277.277 0 0 1 .12.02Z" fill="#8B4FBA" opacity=".2"/>
      <path opacity=".2" d="M32.787 33.675c.385-.584.818-.782 1.307-1.243.465-.436.822-.964 1.285-1.392.363.076.77.014 1.143.033.266.657 1.558.032 1.676-.392l.172.257c.372.734-.964.783-1.725.707-.533-.053-2.837.552-2.762 3.524-.259.398-.87.01-.87.528-.001.532.008 1.469.467 1.807-.132.464-.588-.026-.714-.212-.282-.415-.685-1.151-.776-1.644-.155-.842.376-1.333.797-1.973Z" fill="#430A1D"/>
    </g>
    <path d="M43.856 29.644v3.375h5.451v1.917h-5.45V40h-2.075V27.713h8.193l-.018 1.934-6.1-.003ZM54.06 40h-1.97V26.955h1.97V40ZM58.861 40h-1.97v-9.352h1.97V40Zm-1.846-11.218a1.2 1.2 0 0 1-.369-.879c0-.34.123-.633.37-.88a1.2 1.2 0 0 1 .878-.369c.34 0 .633.124.88.37.246.246.369.539.369.879a1.2 1.2 0 0 1-.37.88 1.2 1.2 0 0 1-.879.368c-.34 0-.633-.123-.879-.369ZM63.713 34.936V40h-1.97v-9.352h1.97v1.706a3.526 3.526 0 0 1 3.112-1.846c1.055 0 1.904.322 2.55.966.656.645.984 1.577.984 2.796v5.733h-1.97v-5.134c0-1.723-.714-2.585-2.144-2.585-.68 0-1.272.229-1.776.686-.504.446-.756 1.102-.756 1.97v-.004ZM75.05 40h-1.97V26.955h1.97v7.664l3.797-3.974h2.532l-3.552 3.71L81.643 40H79.25l-2.777-4.096-1.425 1.441V40Z" fill="#000"/>
  </g>
  <defs>
    <linearGradient id="c" x1="11.558" y1="-7.35" x2=".176" y2="44.79" gradientUnits="userSpaceOnUse">
      <stop offset=".384" stop-color="#FAA100"/>
      <stop offset=".658" stop-color="#BF73F2"/>
      <stop offset=".665" stop-color="#C370E6"/>
      <stop offset=".685" stop-color="#CC68C7"/>
      <stop offset=".708" stop-color="#D461AB"/>
      <stop offset=".734" stop-color="#DB5B95"/>
      <stop offset=".764" stop-color="#E05784"/>
      <stop offset=".802" stop-color="#E35479"/>
      <stop offset=".854" stop-color="#E55272"/>
      <stop offset="1" stop-color="#E65270"/>
    </linearGradient>
    <linearGradient id="d" x1="17.838" y1="-8.045" x2="5.671" y2="47.494" gradientUnits="userSpaceOnUse">
      <stop offset=".384" stop-color="#FAA100"/>
      <stop offset=".658" stop-color="#BF73F2"/>
      <stop offset=".665" stop-color="#C370E6"/>
      <stop offset=".685" stop-color="#CC68C7"/>
      <stop offset=".708" stop-color="#D461AB"/>
      <stop offset=".734" stop-color="#DB5B95"/>
      <stop offset=".764" stop-color="#E05784"/>
      <stop offset=".802" stop-color="#E35479"/>
      <stop offset=".854" stop-color="#E55272"/>
      <stop offset="1" stop-color="#E65270"/>
    </linearGradient>
    <linearGradient id="e" x1="19.8" y1="-4.52" x2="19.015" y2="28.428" gradientUnits="userSpaceOnUse">
      <stop stop-color="#FAA7B5"/>
      <stop offset=".384" stop-color="#FAA100"/>
      <stop offset=".732" stop-color="#BF73F2"/>
    </linearGradient>
    <linearGradient id="f" x1="10.773" y1="-1.133" x2="19.015" y2="12.568" gradientUnits="userSpaceOnUse">
      <stop stop-color="#F6E8A0"/>
      <stop offset="1" stop-color="#E65271"/>
    </linearGradient>
    <linearGradient id="g" x1="12.343" y1="7.101" x2="19.015" y2="18.916" gradientUnits="userSpaceOnUse">
      <stop stop-color="#F6E8A0"/>
      <stop offset="1" stop-color="#E65271"/>
    </linearGradient>
    <linearGradient id="h" x1="27.649" y1="-1.632" x2="26.864" y2="12.172" gradientUnits="userSpaceOnUse">
      <stop stop-color="#F6E8A0"/>
      <stop offset="1" stop-color="#E65271"/>
    </linearGradient>
    <linearGradient id="i" x1="26.864" y1="12.156" x2="22.155" y2="-8.049" gradientUnits="userSpaceOnUse">
      <stop stop-color="#E65271"/>
      <stop offset=".384" stop-color="#FAA100"/>
    </linearGradient>
    <linearGradient id="j" x1="11.166" y1="2.042" x2="28.042" y2="16.421" gradientUnits="userSpaceOnUse">
      <stop stop-color="#F6E8A0"/>
      <stop offset="1" stop-color="#E65271"/>
    </linearGradient>
    <linearGradient id="k" x1="26.472" y1="12.093" x2="9.988" y2="16.555" gradientUnits="userSpaceOnUse">
      <stop stop-color="#FAA7B5"/>
      <stop offset=".384" stop-color="#FAA100"/>
      <stop offset=".732" stop-color="#BF73F2"/>
    </linearGradient>
    <linearGradient id="l" x1="70.037" y1="-7.083" x2="-7.281" y2="34.229" gradientUnits="userSpaceOnUse">
      <stop stop-color="#FAA7B5"/>
      <stop offset=".384" stop-color="#FAA100"/>
      <stop offset=".732" stop-color="#BF73F2"/>
    </linearGradient>
    <linearGradient id="p" x1="38.246" y1="28.506" x2="33.929" y2="38.248" gradientUnits="userSpaceOnUse">
      <stop offset=".004" stop-color="#FAA7B5"/>
      <stop offset=".384" stop-color="#FAA100"/>
    </linearGradient>
    <linearGradient id="q" x1="9.595" y1=".378" x2="6.063" y2="27.302" gradientUnits="userSpaceOnUse">
      <stop stop-color="#FAA7B5"/>
      <stop offset=".384" stop-color="#FAA100"/>
      <stop offset=".732" stop-color="#BF73F2"/>
    </linearGradient>
    <linearGradient id="r" x1="6.456" y1="-.011" x2="2.923" y2="26.913" gradientUnits="userSpaceOnUse">
      <stop stop-color="#FAA7B5"/>
      <stop offset=".384" stop-color="#FAA100"/>
      <stop offset=".732" stop-color="#BF73F2"/>
    </linearGradient>
    <linearGradient id="s" x1="1.353" y1="11.469" x2="2.923" y2="30.206" gradientUnits="userSpaceOnUse">
      <stop stop-color="#FAA7B5"/>
      <stop offset=".384" stop-color="#FAA100"/>
      <stop offset=".732" stop-color="#BF73F2"/>
    </linearGradient>
    <linearGradient id="t" x1="29.612" y1="-4.308" x2="28.827" y2="28.64" gradientUnits="userSpaceOnUse">
      <stop stop-color="#FAA7B5"/>
      <stop offset=".384" stop-color="#FAA100"/>
      <stop offset=".732" stop-color="#BF73F2"/>
    </linearGradient>
    <linearGradient id="u" x1="36.284" y1="20.899" x2="34.714" y2="23.791" gradientUnits="userSpaceOnUse">
      <stop stop-color="#FAA7B5"/>
      <stop offset=".384" stop-color="#FAA100"/>
      <stop offset=".732" stop-color="#BF73F2"/>
    </linearGradient>
    <radialGradient id="m" cx="0" cy="0" r="1" gradientUnits="userSpaceOnUse" gradientTransform="matrix(-2.67235 -.80948 1.56099 -5.15333 27.138 17.813)">
      <stop offset=".009" stop-color="#fff"/>
      <stop offset="1" stop-color="#fff" stop-opacity="0"/>
    </radialGradient>
    <radialGradient id="n" cx="0" cy="0" r="1" gradientUnits="userSpaceOnUse" gradientTransform="rotate(180 6.159 7.404) scale(4.36634)">
      <stop offset=".009" stop-color="#fff"/>
      <stop offset="1" stop-color="#fff" stop-opacity="0"/>
    </radialGradient>
    <radialGradient id="o" cx="0" cy="0" r="1" gradientUnits="userSpaceOnUse" gradientTransform="rotate(180 6.159 7.405) scale(4.36634)">
      <stop offset=".009" stop-color="#fff"/>
      <stop offset="1" stop-color="#fff" stop-opacity="0"/>
    </radialGradient>
    <clipPath id="a">
      <path fill="#fff" d="M0 0h82v40H0z"/>
    </clipPath>
    <clipPath id="b">
      <path fill="#fff" d="M-.001 39.993H39.6V-.005H-.001z"/>
    </clipPath>
    <clipPath id="v">
      <path fill="#fff" d="M35.36 22.285h-.475v-.553h.474z"/>
    </clipPath>
  </defs>
</svg>
