<svg width="111" height="40" viewBox="0 0 111 40" fill="none" xmlns="http://www.w3.org/2000/svg">
<g clip-path="url(#clip0_1474_958)">
<path d="M68.4991 6.18448V33.4901H62.9653V30.7053C62.3867 31.6818 61.5551 32.4774 60.5422 32.9838C59.4573 33.5263 58.2275 33.8156 56.9982 33.8156C55.4791 33.8518 53.96 33.4178 52.6942 32.5498C51.3924 31.6818 50.3795 30.4883 49.7284 29.0778C49.0053 27.4503 48.6435 25.7143 48.6795 23.9422C48.6435 22.17 49.0053 20.434 49.7284 18.8427C50.3795 17.4684 51.3924 16.2749 52.6582 15.4431C53.96 14.6112 55.4791 14.2134 56.9982 14.2496C58.1915 14.2496 59.3849 14.5027 60.4338 15.0452C61.4467 15.5515 62.2782 16.3111 62.8569 17.2514V8.02897L68.4991 6.18448ZM61.8444 28.1013C62.5675 27.161 62.9653 25.7867 62.9653 24.0145C62.9653 22.2423 62.604 20.9042 61.8444 19.9639C61.0849 19.0235 59.8911 18.4811 58.6618 18.5172C57.432 18.4449 56.2387 18.9874 55.4427 19.9277C54.6835 20.868 54.2853 22.2062 54.2853 23.9422C54.2853 25.7143 54.6835 27.0887 55.4427 28.0651C56.2022 29.0416 57.432 29.5841 58.6618 29.5479C60.036 29.5479 61.1209 29.0416 61.8444 28.1013Z" fill="#262A38"/>
<path d="M88.2822 15.4069C89.584 16.2387 90.5969 17.4322 91.2115 18.8065C91.9346 20.3979 92.2964 22.1339 92.2604 23.906C92.2964 25.6782 91.9346 27.4503 91.2115 29.0416C90.5604 30.4521 89.548 31.6456 88.2458 32.5136C86.98 33.3454 85.4609 33.7794 83.9422 33.7432C82.7124 33.7794 81.4827 33.4901 80.3978 32.9114C79.3853 32.4051 78.5533 31.6095 78.0107 30.6329V33.4539H72.4413V8.02897L78.0471 6.18448V17.3237C78.5893 16.3472 79.4213 15.5516 80.4338 15.0452C81.5191 14.4666 82.7124 14.1772 83.9422 14.2134C85.4609 14.1772 86.98 14.6112 88.2822 15.4069ZM85.5333 28.0651C86.2929 27.0887 86.6547 25.7143 86.6547 23.906C86.6547 22.17 86.2929 20.8319 85.5333 19.8915C84.7738 18.9512 83.7249 18.4811 82.3506 18.4811C81.1213 18.4087 79.9275 18.9512 79.132 19.9277C78.3724 20.9042 78.0107 22.2423 78.0107 23.9783C78.0107 25.7505 78.3724 27.1248 79.132 28.0651C79.8915 29.0416 81.0849 29.5841 82.3506 29.5118C83.5804 29.5841 84.7738 29.0416 85.5333 28.0651Z" fill="#262A38"/>
<path d="M100 18.8788V26.1844C100 27.2333 100.289 27.9928 100.796 28.4629C101.375 28.9693 102.134 29.2224 102.93 29.1863C103.544 29.1863 104.196 29.0778 104.774 28.9331V33.2731C103.725 33.6347 102.64 33.8155 101.555 33.7794C99.2409 33.7794 97.4684 33.1284 96.2386 31.8264C95.0093 30.5244 94.3942 28.6799 94.3942 26.293V10.2712L100 8.46292V14.6835H104.774V18.8788H100Z" fill="#262A38"/>
<path d="M38.3002 1.66365C39.2405 2.56781 39.8553 3.7613 40 5.06329C40 5.60578 39.8553 5.96747 39.5298 6.65462C39.2044 7.34178 35.1899 14.2857 33.9964 16.2025C33.3092 17.3237 32.9476 18.6619 32.9476 19.9638C32.9476 21.302 33.3092 22.604 33.9964 23.7252C35.1899 25.642 39.2044 32.622 39.5298 33.3092C39.8553 33.9964 40 34.3219 40 34.8644C39.8553 36.1664 39.2767 37.3599 38.3364 38.2279C37.4322 39.1682 36.2387 39.783 34.9729 39.8915C34.4304 39.8915 34.0687 39.7468 33.4177 39.4213C32.7667 39.0958 25.6781 35.1899 23.7613 33.9964C23.6166 33.924 23.472 33.8156 23.2912 33.7432L13.8156 28.1374C14.0325 29.9457 14.8282 31.6817 16.1302 32.9476C16.3834 33.2007 16.6365 33.4177 16.9259 33.6347C16.7088 33.7432 16.4557 33.8517 16.2387 33.9964C14.3219 35.1899 7.34178 39.2044 6.65462 39.5298C5.96747 39.8553 5.64196 40 5.06329 40C3.7613 39.8553 2.56781 39.2767 1.69982 38.3364C0.759493 37.4322 0.144665 36.2387 0 34.9367C0.0361664 34.3942 0.180832 33.8517 0.470164 33.3816C0.795662 32.6944 4.81013 25.7143 6.0036 23.7975C6.69076 22.6763 7.05244 21.3743 7.05244 20.0362C7.05244 18.698 6.69076 17.396 6.0036 16.2748C4.81013 14.2857 0.759493 7.3056 0.470164 6.61844C0.180832 6.14827 0.0361664 5.60578 0 5.06329C0.144665 3.7613 0.723329 2.56781 1.66365 1.66365C2.56781 0.723329 3.7613 0.144665 5.06329 0C5.60578 0.0361664 6.14827 0.180832 6.65462 0.470164C7.23329 0.723329 12.3327 3.68897 15.0452 5.28031L15.66 5.64196C15.877 5.78662 16.0579 5.89511 16.2025 5.96747L16.4919 6.14827L26.1483 11.8626C25.9313 9.69258 24.8101 7.70342 23.0741 6.36529C23.2912 6.2568 23.5443 6.14827 23.7613 6.0036C25.6781 4.81013 32.6582 0.759493 33.3454 0.470164C33.8156 0.180832 34.358 0.0361664 34.9367 0C36.2025 0.144665 37.396 0.723329 38.3002 1.66365ZM20.5063 22.5678L22.5678 20.5063C22.8572 20.217 22.8572 19.783 22.5678 19.4937L20.5063 17.4322C20.217 17.1428 19.783 17.1428 19.4937 17.4322L17.4322 19.4937C17.1428 19.783 17.1428 20.217 17.4322 20.5063L19.4937 22.5678C19.7468 22.821 20.217 22.821 20.5063 22.5678Z" fill="#FF694A"/>
<path d="M109.813 31.7616L109.176 33.554H108.94L108.303 31.7662V33.554H107.893V31.1111H108.403L109.058 32.9262L109.713 31.1111H110.222V33.554H109.813V31.7616ZM107.534 31.4796H106.865V33.554H106.451V31.4796H105.778V31.1111H107.534V31.4796Z" fill="#262A38"/>
</g>
<defs>
<clipPath id="clip0_1474_958">
<rect width="110.222" height="40" fill="white"/>
</clipPath>
</defs>
</svg>
