<svg width="104" height="40" fill="none" xmlns="http://www.w3.org/2000/svg">
  <g clip-path="url(#a)">
    <mask id="b" style="mask-type:luminance" maskUnits="userSpaceOnUse" x="0" y="0" width="104" height="40">
      <path d="M103.396 0H0v40h103.396V0Z" fill="#fff"/>
    </mask>
    <g mask="url(#b)">
      <path d="M.955 39.415 19.72 20.153a.347.347 0 0 0 .042-.444c-1.142-1.596-3.247-1.873-4.027-2.945-2.312-3.175-2.898-4.972-3.892-4.86a.303.303 0 0 0-.18.094l-6.778 6.959C.985 22.96.425 31.774.323 39.154c-.004.333.4.5.632.26Z" fill="#017CEE"/>
      <path d="M39.36 38.939 20.123 20.148a.346.346 0 0 0-.443-.042c-1.594 1.143-1.87 3.25-2.94 4.032-3.171 2.315-4.966 2.902-4.854 3.897.007.07.045.132.095.18l6.948 6.789c3.998 3.905 12.799 4.465 20.169 4.567.333.005.498-.4.26-.632Z" fill="#00AD46"/>
      <path fill-rule="evenodd" clip-rule="evenodd" d="M18.93 35.004c-2.183-2.133-3.197-6.353.99-15.056-6.804 3.045-9.188 7.047-8.015 8.193l7.025 6.863Z" fill="#04D659"/>
      <path d="M38.883.481 20.119 19.743a.347.347 0 0 0-.042.444c1.141 1.596 3.246 1.872 4.026 2.944 2.312 3.176 2.899 4.973 3.892 4.862a.303.303 0 0 0 .18-.096l6.778-6.958c3.9-4.003 4.46-12.817 4.562-20.197a.368.368 0 0 0-.632-.261Z" fill="#00C7D4"/>
      <path fill-rule="evenodd" clip-rule="evenodd" d="M34.954 20.939c-2.13 2.186-6.345 3.201-15.035-.991 3.04 6.813 7.037 9.2 8.181 8.026l6.854-7.035Z" fill="#11E1EE"/>
      <path d="m.48.957 19.235 18.791c.12.118.306.14.443.042 1.594-1.143 1.87-3.251 2.94-4.032 3.171-2.315 4.966-2.903 4.854-3.897a.304.304 0 0 0-.095-.18L20.91 4.891C16.91.987 8.11.427.74.324a.368.368 0 0 0-.26.633Z" fill="#E43921"/>
      <path fill-rule="evenodd" clip-rule="evenodd" d="M20.909 4.892c2.183 2.133 3.196 6.353-.99 15.056 6.803-3.045 9.188-7.047 8.015-8.193l-7.025-6.863Z" fill="#FF7557"/>
      <path fill-rule="evenodd" clip-rule="evenodd" d="M4.885 18.957c2.13-2.187 6.344-3.201 15.034.99-3.04-6.812-7.037-9.2-8.18-8.025l-6.854 7.035Z" fill="#0CB6FF"/>
      <path d="M19.933 20.785a.84.84 0 1 0-.022-1.679.84.84 0 0 0 .021 1.68Z" fill="#4A4848"/>
      <path d="M44.743 13.126a.142.142 0 0 1-.104-.044.143.143 0 0 1-.044-.104c0-.04.002-.067.007-.082l1.841-4.81c.04-.109.119-.163.238-.163h.504c.119 0 .198.054.238.163l1.834 4.81.014.082c0 .04-.014.074-.044.104a.142.142 0 0 1-.104.044h-.379a.192.192 0 0 1-.126-.037.234.234 0 0 1-.06-.089l-.408-1.056h-2.434L45.307 13a.21.21 0 0 1-.067.09.179.179 0 0 1-.118.036h-.379Zm3.192-1.82-1.002-2.64-1.002 2.64h2.004Zm2.212 3.233a.172.172 0 0 1-.127-.052.16.16 0 0 1-.044-.12V9.433c0-.05.015-.09.044-.12a.172.172 0 0 1 .127-.051h.341c.05 0 .09.017.119.052.035.03.052.07.052.119v.327c.277-.382.683-.572 1.217-.572.52 0 .908.163 1.166.49.262.327.403.748.423 1.264.005.054.007.139.007.253 0 .114-.002.198-.007.252-.02.51-.161.932-.424 1.264-.262.327-.65.49-1.165.49-.514 0-.915-.185-1.202-.557v1.725a.16.16 0 0 1-.045.119.148.148 0 0 1-.119.052h-.363Zm1.573-1.94c.352 0 .606-.11.765-.328.163-.218.252-.505.267-.862.005-.05.008-.121.008-.215 0-.937-.347-1.405-1.04-1.405-.341 0-.599.114-.772.342-.168.223-.26.49-.274.802l-.008.283.008.29c.01.292.104.547.282.765.178.218.433.328.764.328Zm3.747.602a1.55 1.55 0 0 1-.676-.149 1.293 1.293 0 0 1-.497-.401.992.992 0 0 1-.178-.573c0-.327.133-.595.4-.803.273-.213.639-.351 1.1-.416l1.105-.156v-.216c0-.505-.29-.758-.868-.758a.932.932 0 0 0-.846.461.203.203 0 0 1-.06.097c-.02.02-.05.03-.089.03h-.32a.177.177 0 0 1-.118-.045.177.177 0 0 1-.044-.12c.004-.118.059-.252.163-.4.109-.154.274-.285.497-.394.223-.114.497-.171.824-.171.554 0 .953.13 1.195.394.243.257.364.58.364.966v2.408c0 .05-.017.092-.052.127a.16.16 0 0 1-.119.044h-.341a.187.187 0 0 1-.126-.044.188.188 0 0 1-.045-.127v-.32a1.282 1.282 0 0 1-.475.402c-.208.11-.473.164-.794.164Zm.156-.558c.321 0 .584-.104.787-.312.207-.213.311-.518.311-.914v-.208l-.86.126c-.352.05-.617.134-.795.253-.178.114-.268.26-.268.438 0 .198.082.352.246.461.163.104.356.156.579.156Zm4.422.558c-.53 0-.945-.149-1.247-.446-.297-.303-.456-.724-.475-1.264l-.008-.297.008-.298c.02-.54.178-.959.475-1.256.302-.302.718-.453 1.247-.453.356 0 .658.064.905.193.248.129.431.287.55.476.124.188.19.376.2.565a.13.13 0 0 1-.044.119.187.187 0 0 1-.126.044h-.357c-.05 0-.087-.01-.111-.03a.306.306 0 0 1-.074-.119c-.084-.238-.203-.406-.357-.505a1.01 1.01 0 0 0-.579-.156c-.306 0-.551.096-.735.29-.178.188-.274.478-.289.87l-.007.267.007.253c.015.396.111.689.29.877.178.188.423.282.734.282.233 0 .426-.05.58-.148.153-.104.272-.275.356-.513.024-.06.05-.1.074-.12.025-.024.062-.036.111-.036h.357c.05 0 .091.017.126.052.035.03.05.07.044.119-.01.183-.076.371-.2.565a1.382 1.382 0 0 1-.55.475c-.242.13-.544.194-.905.194Zm2.715-.075a.187.187 0 0 1-.126-.044.188.188 0 0 1-.045-.127V8.02c0-.05.015-.089.045-.118a.172.172 0 0 1 .126-.052h.371c.05 0 .09.017.119.052.035.03.052.069.052.118v1.733c.144-.184.312-.323.505-.417.193-.099.433-.148.72-.148.475 0 .844.153 1.106.46.267.303.4.707.4 1.212v2.096c0 .05-.017.092-.052.127a.16.16 0 0 1-.118.044h-.371a.187.187 0 0 1-.127-.044.188.188 0 0 1-.044-.127v-2.059c0-.352-.087-.624-.26-.817-.168-.194-.413-.29-.735-.29-.311 0-.561.099-.75.297-.183.193-.274.463-.274.81v2.06c0 .049-.017.091-.052.126a.16.16 0 0 1-.119.044h-.371Zm5.89.075c-.51 0-.919-.156-1.226-.469-.301-.317-.467-.748-.497-1.293l-.007-.253.007-.245c.035-.535.203-.962.505-1.279.307-.317.71-.475 1.21-.475.55 0 .975.175 1.277.527.302.347.452.818.452 1.413v.126c0 .05-.017.092-.052.127a.16.16 0 0 1-.118.044h-2.569v.067c.015.322.112.597.29.825a.886.886 0 0 0 .72.335c.228 0 .413-.045.556-.134.15-.094.258-.191.327-.29a.403.403 0 0 1 .097-.104.26.26 0 0 1 .126-.022h.364c.044 0 .081.012.11.037.03.024.046.06.046.104 0 .109-.07.24-.208.394a1.669 1.669 0 0 1-.572.401 2.028 2.028 0 0 1-.839.164Zm1.016-2.29v-.022c0-.342-.094-.62-.282-.833-.183-.218-.43-.327-.742-.327s-.56.11-.742.327c-.178.213-.268.49-.268.833v.022h2.034Z" fill="#51504F"/>
      <path d="m44.602 12.896-.053-.02-.001.002.054.018Zm1.841-4.81.053.02-.053-.02Zm.98 0-.054.02.054-.02Zm1.833 4.81.056-.01a.052.052 0 0 0-.002-.01l-.054.02Zm.015.082h.057v-.01l-.057.01Zm-.653.111-.04.04a.033.033 0 0 0 .003.004l.037-.044Zm-.06-.089.055-.018-.001-.003-.053.021Zm-.408-1.056.053-.02a.057.057 0 0 0-.053-.037v.057Zm-2.434 0v-.057a.057.057 0 0 0-.054.037l.054.02ZM45.307 13l-.053-.02v.002l.053.018Zm-.067.09.037.043-.037-.044Zm2.695-1.785v.057a.057.057 0 0 0 .053-.077l-.053.02Zm-1.002-2.639.053-.02a.057.057 0 0 0-.106 0l.053.02Zm-1.002 2.64-.054-.021a.057.057 0 0 0 .054.077v-.057Zm-1.188 1.763a.085.085 0 0 1-.063-.028l-.081.081a.2.2 0 0 0 .144.062v-.115Zm-.063-.028a.086.086 0 0 1-.028-.063h-.114a.2.2 0 0 0 .06.144l.082-.08Zm-.028-.063c0-.04.002-.059.004-.064l-.108-.036a.347.347 0 0 0-.01.1h.114Zm.003-.062 1.841-4.81-.106-.04-1.841 4.81.106.04Zm1.842-4.81a.188.188 0 0 1 .067-.095.2.2 0 0 1 .117-.031v-.114a.313.313 0 0 0-.181.05.301.301 0 0 0-.11.15l.107.04Zm.184-.126h.504v-.114h-.504v.114Zm.504 0a.2.2 0 0 1 .116.03c.028.02.052.05.068.096l.108-.04a.3.3 0 0 0-.111-.15.312.312 0 0 0-.18-.05v.114Zm.184.127 1.834 4.81.107-.041-1.834-4.81-.106.04Zm1.831 4.8.015.08.112-.02-.014-.081-.113.02Zm.014.07a.086.086 0 0 1-.028.064l.08.081a.2.2 0 0 0 .062-.144h-.114Zm-.028.064a.085.085 0 0 1-.063.028v.114a.2.2 0 0 0 .144-.06l-.08-.082Zm-.063.028h-.379v.114h.379v-.114Zm-.379 0c-.046 0-.074-.01-.09-.024l-.073.088c.044.036.1.05.163.05v-.114Zm-.086-.02a.176.176 0 0 1-.045-.067l-.108.036a.29.29 0 0 0 .073.112l.08-.081Zm-.046-.07-.409-1.055-.106.041.408 1.056.107-.042Zm-.462-1.092h-2.434v.115h2.434v-.115Zm-2.488.037-.408 1.055.106.042.409-1.056-.107-.041Zm-.409 1.058a.157.157 0 0 1-.05.064l.075.087a.268.268 0 0 0 .083-.115l-.108-.036Zm-.05.063c-.016.014-.041.024-.081.024v.114c.059 0 .112-.014.155-.05l-.073-.088Zm-.081.024h-.379v.114h.379v-.114Zm2.867-1.784-1.003-2.64-.106.042 1.002 2.638.107-.04Zm-1.11-2.64-1.002 2.64.107.04 1.002-2.638-.106-.041Zm-.948 2.717h2.004v-.114h-2.004v.114Zm4.676-2.05-.044.038a.113.113 0 0 0 .006.006l.038-.043Zm.052.447h-.057a.057.057 0 0 0 .103.034l-.046-.034Zm2.382-.082-.044.036.044-.036Zm.424 1.264-.058.002v.003l.058-.005Zm0 .505-.057-.005v.003l.057.002Zm-.424 1.264.045.036-.045-.036Zm-2.367-.067.045-.035a.057.057 0 0 0-.102.035h.057Zm-.045 1.844-.04-.04a.022.022 0 0 0-.003.003l.043.037Zm1.856-2.216-.046-.034.046.034Zm.267-.862-.057-.006v.004l.057.002Zm-2.078-.476-.057-.002v.001l.057.002Zm-.008.283-.057-.002v.003l.057-.001Zm.008.29-.057.001.057-.001Zm-.527 2.976a.115.115 0 0 1-.086-.036l-.081.081a.229.229 0 0 0 .167.069v-.114Zm-.086-.036c-.017-.017-.028-.04-.028-.078h-.114c0 .062.019.117.06.16l.082-.082Zm-.028-.078V9.432h-.114v4.936h.114Zm0-4.936c0-.037.01-.062.028-.079l-.081-.08a.218.218 0 0 0-.061.159h.114Zm.028-.079a.115.115 0 0 1 .086-.035v-.114a.229.229 0 0 0-.167.069l.08.08Zm.086-.035h.341v-.114h-.341v.114Zm.341 0c.035 0 .057.011.075.032l.087-.074a.205.205 0 0 0-.162-.072v.114Zm.081.038a.092.092 0 0 1 .033.076h.114a.206.206 0 0 0-.072-.162l-.075.086Zm.033.076v.327h.114v-.327h-.114Zm.103.36c.265-.364.652-.548 1.171-.548v-.115c-.55 0-.974.198-1.263.596l.092.068Zm1.171-.548c.507 0 .877.159 1.12.469l.09-.071c-.27-.344-.678-.513-1.21-.513v.115Zm1.12.469c.254.316.392.724.411 1.23l.115-.004c-.02-.525-.164-.959-.436-1.298l-.09.072Zm.412 1.233c.005.052.007.134.007.248h.114c0-.115-.002-.201-.008-.258l-.113.01Zm.007.248c0 .113-.002.195-.007.247l.113.01c.006-.057.008-.143.008-.257h-.114Zm-.008.25c-.019.501-.157.91-.41 1.23l.09.072c.27-.344.415-.777.435-1.297l-.114-.005Zm-.41 1.23c-.249.31-.62.47-1.121.47v.114c.528 0 .934-.168 1.21-.512l-.09-.072Zm-1.121.47c-.499 0-.882-.18-1.157-.536l-.09.07c.298.387.717.58 1.247.58v-.114Zm-1.26-.5v1.724h.115v-1.725h-.114Zm0 1.724c0 .037-.01.061-.027.078l.08.081a.218.218 0 0 0 .062-.16h-.114Zm-.03.082a.092.092 0 0 1-.076.032v.114c.065 0 .12-.024.162-.072l-.086-.074Zm-.076.032h-.363v.114h.363v-.114Zm1.21-1.826c.364 0 .639-.114.81-.35l-.091-.068c-.145.199-.38.303-.719.303v.115Zm.81-.35c.172-.23.264-.53.28-.894l-.115-.005c-.014.349-.101.624-.256.83l.091.069Zm.279-.891c.005-.053.008-.127.008-.221h-.114c0 .093-.003.163-.008.21l.114.01Zm.008-.221c0-.474-.088-.84-.272-1.088-.186-.252-.464-.374-.825-.374v.114c.332 0 .574.111.734.328.162.22.248.557.248 1.02h.115ZM51.72 9.732c-.355 0-.631.119-.817.364l.09.07c.16-.212.4-.32.727-.32v-.114Zm-.817.364c-.176.233-.271.512-.286.835l.114.005c.014-.302.102-.558.263-.77l-.091-.07Zm-.286.836-.008.282.114.003.008-.282-.114-.003Zm-.008.285.008.29.114-.003-.008-.29-.114.003Zm.008.29c.01.305.108.572.294.8l.089-.072a1.186 1.186 0 0 1-.27-.731l-.113.004Zm.294.8c.191.234.464.349.81.349v-.115c-.319 0-.556-.103-.721-.306l-.089.073Zm3.383.344-.047.032v.002l.047-.034Zm.223-1.376.034.045-.034-.045Zm1.098-.416.008.057-.008-.057Zm1.106-.156.008.057a.057.057 0 0 0 .05-.057h-.058Zm-1.403-.833.031.049.001-.001-.032-.048Zm-.312.32-.05-.028a.057.057 0 0 0-.004.01l.054.018Zm-.059.097-.036-.045-.004.004.04.04Zm-.527-.015-.043.037a.05.05 0 0 0 .006.006l.037-.043Zm-.044-.12-.057-.002v.003h.056Zm.163-.4-.047-.034.047.034Zm.497-.394.025.05h.001l-.026-.05Zm2.02.223-.043.038.042-.038Zm-.275 3.5-.044.038a.04.04 0 0 0 .006.006l.038-.043Zm-.045-.445h.057a.057.057 0 0 0-.04-.055.057.057 0 0 0-.064.022l.047.033Zm-.015-1.427h.057a.057.057 0 0 0-.065-.057l.008.057Zm-.86.126.007.056-.008-.056Zm-.795.253.03.048h.002l-.032-.048Zm-.022.9-.032.047.032-.048Zm.423.656c-.235 0-.451-.048-.651-.144l-.05.104c.216.103.45.154.7.154v-.114ZM54.816 13a1.238 1.238 0 0 1-.476-.383l-.092.067c.13.177.303.317.519.42l.049-.104Zm-.475-.382a.934.934 0 0 1-.168-.54h-.114c0 .22.063.422.188.605l.094-.065Zm-.168-.54c0-.308.125-.56.378-.758l-.07-.09a1.03 1.03 0 0 0-.422.848h.114Zm.379-.758c.261-.205.617-.34 1.07-.404l-.015-.114c-.467.066-.843.207-1.126.428l.07.09Zm1.071-.404 1.106-.156-.016-.114-1.106.156.016.114Zm1.155-.213v-.216h-.114v.216h.114Zm0-.216c0-.263-.076-.47-.236-.611-.16-.14-.393-.204-.69-.204v.114c.283 0 .484.062.615.176.128.112.197.284.197.525h.114Zm-.925-.815a.988.988 0 0 0-.567.151l.064.095a.876.876 0 0 1 .503-.132v-.114Zm-.566.15a.97.97 0 0 0-.33.34l.1.056a.857.857 0 0 1 .292-.3l-.062-.096Zm-.335.35a.15.15 0 0 1-.04.07l.07.09a.258.258 0 0 0 .078-.124l-.108-.036Zm-.045.074c-.006.006-.018.013-.049.013v.115a.177.177 0 0 0 .13-.047l-.081-.08Zm-.049.013h-.32v.115h.32v-.115Zm-.32 0a.12.12 0 0 1-.08-.03l-.075.086a.234.234 0 0 0 .156.059v-.115Zm-.075-.024a.12.12 0 0 1-.03-.082h-.114c0 .058.02.111.058.156l.086-.074Zm-.03-.08c.004-.103.052-.227.153-.37l-.094-.066c-.107.153-.168.297-.173.431l.113.005Zm.152-.37c.102-.144.26-.27.476-.376l-.05-.103a1.341 1.341 0 0 0-.519.412l.093.067Zm.477-.377c.213-.108.478-.164.798-.164v-.115c-.333 0-.617.059-.85.178l.052.101Zm.798-.164c.547 0 .926.13 1.153.375l.084-.077c-.258-.28-.675-.413-1.237-.413v.115Zm1.154.376c.231.246.348.554.348.927h.114c0-.4-.126-.736-.38-1.006l-.082.079Zm.348.927v2.408h.114v-2.408h-.114Zm0 2.408a.114.114 0 0 1-.035.086l.08.081a.23.23 0 0 0 .069-.167h-.114Zm-.035.086c-.018.018-.041.028-.079.028v.114a.217.217 0 0 0 .16-.06l-.081-.082Zm-.079.028h-.341v.114h.341v-.114Zm-.341 0a.131.131 0 0 1-.09-.03l-.074.086c.046.04.102.059.164.059v-.115Zm-.083-.024a.131.131 0 0 1-.03-.09h-.115c0 .062.019.118.058.164l.087-.074Zm-.03-.09v-.32h-.115v.32h.114Zm-.105-.352c-.103.15-.253.278-.455.383l.053.102a1.34 1.34 0 0 0 .496-.42l-.094-.065Zm-.455.383c-.197.104-.452.158-.767.158v.114c.327 0 .602-.056.82-.17l-.053-.101Zm-.612-.286c.336 0 .613-.109.828-.33l-.081-.079c-.191.196-.438.295-.747.295v.114Zm.828-.33c.221-.226.328-.547.328-.953h-.114c0 .386-.101.675-.295.874l.081.08Zm.328-.953v-.208h-.114v.208h.114Zm-.065-.265-.861.126.016.113.861-.126-.016-.113Zm-.86.126c-.356.05-.63.136-.819.262l.063.095c.168-.112.423-.194.771-.243l-.016-.114Zm-.818.261c-.19.123-.294.285-.294.487h.114c0-.155.076-.284.242-.39l-.062-.097Zm-.294.487a.58.58 0 0 0 .27.509l.064-.095a.466.466 0 0 1-.22-.414h-.114Zm.272.51c.174.11.378.164.61.164v-.114a.998.998 0 0 1-.549-.147l-.061.096Zm3.785.219-.04.04.04-.04Zm-.475-1.264-.057.001v.001l.057-.002Zm-.008-.297-.057-.002v.003l.057-.001Zm.008-.298-.057-.002.057.002Zm3.177-1.04-.049.03.001.001.048-.031Zm.2.565-.057.003v.002l.057-.005Zm-.712.014-.054.02v.002l.054-.022Zm-.357-.505-.032.047h.001l.031-.047Zm-1.603 1.004-.057-.003.057.003Zm-.007.267-.057-.002v.004l.057-.002Zm.007.253-.057.002.057-.002Zm1.603 1.01.031.049h.001l-.032-.048Zm.357-.512-.053-.022-.001.003.054.019Zm.074-.12.035.045a.09.09 0 0 0 .005-.004l-.04-.04Zm.594.016-.04.04.002.003.038-.043Zm.044.119-.057-.006v.003l.057.003Zm-.2.565-.048-.031.048.03Zm-.55.475-.026-.05.026.05Zm-.905.137c-.519 0-.919-.146-1.207-.43l-.08.081c.315.31.746.463 1.287.463v-.114Zm-1.206-.43c-.285-.289-.44-.695-.46-1.225l-.113.004c.02.55.182.987.491 1.302l.082-.08Zm-.46-1.224-.007-.298-.114.003.008.297.114-.002Zm-.007-.295.008-.297-.114-.003-.008.297.114.003Zm.008-.297c.02-.53.174-.933.458-1.218l-.08-.08c-.31.31-.472.744-.492 1.294l.114.004Zm.458-1.218c.289-.289.689-.436 1.207-.436v-.115c-.541 0-.973.155-1.288.47l.081.081Zm1.207-.436c.35 0 .642.063.88.187l.052-.102c-.258-.134-.57-.2-.932-.2v.115Zm.88.187c.24.125.414.277.526.455l.097-.06a1.438 1.438 0 0 0-.571-.497l-.053.102Zm.527.456c.12.181.182.36.191.537l.114-.006c-.01-.2-.081-.399-.21-.594l-.095.063Zm.191.54c.004.032-.005.053-.025.07l.075.086a.188.188 0 0 0 .064-.168l-.114.011Zm-.025.07a.13.13 0 0 1-.089.03v.114a.245.245 0 0 0 .164-.058l-.075-.087Zm-.089.03h-.356v.114h.356v-.114Zm-.356 0c-.043 0-.065-.009-.076-.017l-.07.089a.231.231 0 0 0 .146.042v-.114Zm-.076-.017a.259.259 0 0 1-.057-.097l-.105.044a.356.356 0 0 0 .091.142l.071-.09Zm-.056-.094c-.086-.245-.211-.426-.379-.534l-.062.096c.14.09.252.246.334.476l.108-.038Zm-.378-.533a1.066 1.066 0 0 0-.61-.166v.114c.223 0 .404.05.546.146l.064-.094Zm-.61-.166c-.32 0-.581.101-.777.307l.083.08c.17-.181.4-.273.693-.273v-.114Zm-.777.307c-.192.203-.29.509-.305.907l.114.005c.015-.385.11-.659.274-.833l-.083-.079Zm-.305.908-.007.268.113.003.008-.268-.114-.003Zm-.007.27.007.254.114-.004-.008-.253-.113.004Zm.007.254c.015.403.113.712.305.914l.083-.078c-.165-.174-.26-.45-.274-.84l-.114.004Zm.305.914c.191.202.452.3.776.3v-.114c-.3 0-.528-.09-.693-.264l-.083.078Zm.776.3c.24 0 .445-.05.61-.157l-.062-.096a.99.99 0 0 1-.548.14v.114Zm.611-.158c.167-.113.292-.296.379-.541l-.108-.038c-.082.23-.194.39-.335.485l.064.094Zm.377-.538a.26.26 0 0 1 .057-.097l-.07-.089a.356.356 0 0 0-.092.142l.105.044Zm.062-.1c.01-.011.03-.021.071-.021v-.114a.208.208 0 0 0-.152.053l.081.081Zm.071-.021h.356v-.114h-.356v.114Zm.356 0c.035 0 .063.011.086.035l.081-.08a.229.229 0 0 0-.166-.07v.115Zm.09.038c.019.017.028.037.024.07l.114.011a.187.187 0 0 0-.064-.168l-.075.087Zm.024.073a1.11 1.11 0 0 1-.191.537l.096.062c.128-.2.199-.398.21-.593l-.115-.006Zm-.192.537c-.112.178-.286.33-.527.456l.053.101c.254-.132.446-.297.571-.496l-.097-.06Zm-.527.456c-.232.123-.524.187-.879.187v.114c.368 0 .68-.066.932-.2l-.053-.101Zm1.71.125-.044.037a.04.04 0 0 0 .007.006l.037-.043ZM63.25 7.9l-.044.037a.117.117 0 0 0 .007.006l.037-.043Zm.052 1.85h-.057a.057.057 0 0 0 .102.036l-.045-.035Zm.505-.416.025.052-.026-.052Zm1.826.312-.044.038h.001l.043-.038Zm-.268 3.435-.043.037.006.006.037-.043Zm-.304-3.003-.043.037.043-.037Zm-2.301 2.99a.13.13 0 0 1-.089-.03l-.074.086c.045.04.101.059.163.059v-.115Zm-.083-.024a.13.13 0 0 1-.03-.09h-.115c0 .062.02.118.058.164l.087-.074Zm-.03-.09V8.02h-.115v4.935h.114Zm0-4.935c0-.038.01-.062.027-.079l-.08-.08a.218.218 0 0 0-.062.159h.114Zm.027-.079a.114.114 0 0 1 .086-.035V7.79a.228.228 0 0 0-.167.07l.081.08Zm.086-.035h.371V7.79h-.371v.115Zm.371 0c.035 0 .058.01.075.032l.087-.075a.205.205 0 0 0-.162-.072v.115Zm.082.038a.092.092 0 0 1 .032.076h.114a.206.206 0 0 0-.072-.163l-.074.087Zm.032.076v1.732h.114V8.02h-.114Zm.102 1.767c.138-.177.3-.31.485-.4l-.05-.103a1.496 1.496 0 0 0-.525.432l.09.07Zm.486-.4c.182-.095.413-.143.694-.143v-.115c-.294 0-.543.051-.746.155l.052.102Zm.694-.143c.461 0 .813.148 1.062.44l.087-.074c-.275-.322-.66-.48-1.15-.48v.114Zm1.063.441c.256.29.386.679.386 1.174h.115c0-.516-.137-.934-.416-1.25l-.085.076Zm.386 1.174v2.096h.115V10.86h-.114Zm0 2.096a.115.115 0 0 1-.035.086l.08.081a.23.23 0 0 0 .07-.167h-.114Zm-.035.086c-.017.018-.041.028-.078.028v.114a.217.217 0 0 0 .159-.06l-.08-.082Zm-.078.028h-.371v.114h.37v-.114Zm-.371 0a.13.13 0 0 1-.09-.03l-.074.086c.046.04.102.059.164.059v-.115Zm-.083-.024a.13.13 0 0 1-.031-.09h-.114c0 .062.019.118.058.164l.087-.074Zm-.031-.09v-2.059h-.114v2.06h.114Zm0-2.059c0-.36-.089-.649-.274-.856l-.085.077c.16.18.245.436.245.78h.114Zm-.274-.855c-.182-.209-.444-.31-.778-.31v.115c.31 0 .537.092.692.27l.086-.075Zm-.778-.31c-.325 0-.59.104-.79.316l.082.078c.175-.185.41-.28.708-.28v-.113Zm-.79.316c-.197.207-.291.492-.291.85h.114c0-.338.088-.592.259-.772l-.083-.078Zm-.291.85v2.058h.114v-2.059h-.114Zm0 2.058a.114.114 0 0 1-.036.086l.081.081a.23.23 0 0 0 .069-.167h-.114Zm-.036.086c-.017.018-.04.028-.078.028v.114a.217.217 0 0 0 .16-.06l-.082-.082Zm-.078.028h-.371v.114h.371v-.114Zm4.293-.337-.04.04.04-.04Zm-.497-1.293-.057.002v.001l.057-.003Zm-.007-.253-.058-.002v.004l.058-.002Zm.007-.245-.057-.004v.002l.057.002Zm.505-1.279-.041-.04.04.04Zm2.486.052-.043.038.043-.038Zm-2.286 1.71v-.057a.057.057 0 0 0-.057.057h.057Zm0 .067h-.057v.003l.057-.003Zm.29.825-.045.035v.001l.045-.036Zm1.276.2.03.05h.001l-.03-.05Zm.327-.29-.046-.033v.001l.046.033Zm.097-.103.025.05.004-.001-.03-.05Zm.438.513-.043-.039v.001l.043.038Zm-.572.401.023.052-.023-.052Zm.178-2.126v.057a.057.057 0 0 0 .057-.057h-.057Zm-.282-.855-.044.037.001.001.043-.038Zm-1.485 0-.043-.036.043.036Zm-.267.855h-.057c0 .032.026.057.057.057v-.057Zm1.017 2.233c-.497 0-.89-.152-1.184-.452l-.081.08c.32.325.743.486 1.265.486v-.114Zm-1.183-.451c-.29-.305-.453-.722-.482-1.257l-.114.006c.03.555.2 1 .513 1.33l.083-.079Zm-.482-1.256-.007-.252-.115.003.008.253.114-.004Zm-.007-.25.007-.244-.114-.004-.008.245.115.004Zm.007-.242c.034-.525.199-.938.49-1.243l-.084-.08c-.313.33-.485.77-.52 1.315l.114.008Zm.489-1.243c.294-.304.682-.458 1.169-.458v-.115c-.513 0-.932.164-1.251.494l.082.08Zm1.169-.458c.536 0 .944.17 1.233.508l.087-.075c-.315-.367-.758-.548-1.32-.548v.115Zm1.234.508c.29.334.438.79.438 1.375h.114c0-.605-.153-1.09-.466-1.45l-.086.075Zm.438 1.375v.126h.114v-.126h-.114Zm0 .126a.115.115 0 0 1-.035.086l.08.08a.23.23 0 0 0 .07-.166h-.115Zm-.035.086c-.017.017-.041.028-.078.028v.114a.217.217 0 0 0 .159-.061l-.081-.08Zm-.078.028h-2.569v.114h2.569v-.114Zm-2.626.057v.067h.114v-.067h-.114Zm0 .07c.016.332.116.619.302.857l.09-.07a1.352 1.352 0 0 1-.278-.793l-.114.006Zm.303.858c.194.237.45.356.764.356v-.114a.83.83 0 0 1-.676-.314l-.088.072Zm.764.356c.235 0 .431-.046.587-.143l-.06-.097c-.132.082-.307.126-.527.126v.114Zm.587-.143c.152-.096.268-.198.343-.305l-.094-.066c-.063.09-.165.183-.31.274l.061.097Zm.342-.304a.81.81 0 0 1 .07-.083l.006-.004-.051-.102a.211.211 0 0 0-.055.045.967.967 0 0 0-.062.076l.092.068Zm.08-.09c.01-.005.039-.013.097-.013v-.115a.31.31 0 0 0-.156.03l.059.099Zm.097-.013h.364v-.115h-.364v.115Zm.364 0a.11.11 0 0 1 .074.024l.073-.088a.225.225 0 0 0-.147-.05v.114Zm.074.024c.015.012.024.03.024.06h.115c0-.059-.02-.11-.066-.148l-.073.088Zm.024.06c0 .086-.056.204-.193.355l.085.077c.14-.156.223-.3.223-.432h-.115Zm-.194.356a1.61 1.61 0 0 1-.552.387l.048.104a1.73 1.73 0 0 0 .59-.416l-.086-.075Zm-.552.387a1.968 1.968 0 0 1-.815.159v.114c.323 0 .611-.056.862-.169l-.046-.104Zm.26-2.074v-.022h-.115v.022h.114Zm0-.022c0-.353-.098-.645-.297-.87l-.086.075c.177.2.268.464.268.795h.114Zm-.296-.87c-.195-.232-.46-.347-.786-.347v.114c.296 0 .527.103.698.307l.088-.073Zm-.786-.347c-.327 0-.591.115-.786.348l.087.073c.171-.204.402-.307.699-.307v-.114Zm-.786.348c-.189.225-.28.517-.28.869h.113c0-.332.087-.595.254-.796l-.087-.073Zm-.28.869v.022h.113v-.022h-.114Zm.056.08h2.034v-.115h-2.034v.114ZM43.2 30.585a.362.362 0 0 1-.264-.114.363.363 0 0 1-.114-.264c0-.1.007-.17.02-.208l4.677-12.219c.1-.277.301-.415.603-.415h1.282c.302 0 .503.138.604.415L54.666 30l.038.207c0 .1-.038.189-.114.264a.362.362 0 0 1-.264.114h-.961a.488.488 0 0 1-.321-.095.596.596 0 0 1-.151-.226l-1.037-2.682H45.67l-1.037 2.682a.536.536 0 0 1-.17.226.457.457 0 0 1-.301.095H43.2Zm8.109-4.627-2.546-6.705-2.546 6.705h5.092Zm5.449-7.026a.476.476 0 0 1-.321-.113.477.477 0 0 1-.113-.321v-1.02c0-.126.038-.233.113-.32a.436.436 0 0 1 .32-.133h1.189c.126 0 .232.044.32.132a.437.437 0 0 1 .132.321v1.02a.437.437 0 0 1-.132.321.475.475 0 0 1-.32.113h-1.188Zm.15 11.653a.476.476 0 0 1-.32-.114.477.477 0 0 1-.113-.32v-8.952c0-.126.037-.227.113-.303a.436.436 0 0 1 .32-.132h.906c.125 0 .226.044.301.133a.378.378 0 0 1 .133.302v8.951a.437.437 0 0 1-.133.321.407.407 0 0 1-.301.114h-.905Zm4.568 0a.476.476 0 0 1-.32-.114.478.478 0 0 1-.114-.32v-8.933c0-.126.038-.233.113-.322a.436.436 0 0 1 .32-.132h.868c.126 0 .233.044.32.133a.437.437 0 0 1 .133.32v.832c.515-.857 1.396-1.285 2.64-1.285h.736c.125 0 .226.044.301.133a.378.378 0 0 1 .132.302v.774a.378.378 0 0 1-.132.302.407.407 0 0 1-.301.113H65.04c-.679 0-1.213.202-1.603.605-.39.39-.585.925-.585 1.605v5.552a.437.437 0 0 1-.131.321.476.476 0 0 1-.321.114h-.924Zm8.144 0a.476.476 0 0 1-.32-.114.477.477 0 0 1-.113-.32v-7.876h-1.603a.475.475 0 0 1-.32-.113.476.476 0 0 1-.114-.321v-.642c0-.126.038-.227.113-.303a.435.435 0 0 1 .32-.132h1.604v-.944c0-2.14 1.08-3.21 3.243-3.21h1.056c.126 0 .227.044.302.132a.378.378 0 0 1 .132.302v.642a.437.437 0 0 1-.132.321.407.407 0 0 1-.301.113h-1.019c-.566 0-.962.151-1.188.454-.226.29-.34.736-.34 1.34v.85h4.036v-3.72a.41.41 0 0 1 .113-.302.437.437 0 0 1 .321-.133h.868c.125 0 .226.045.301.133a.378.378 0 0 1 .132.302V30.15a.437.437 0 0 1-.132.321.407.407 0 0 1-.301.114h-.868a.476.476 0 0 1-.32-.114.478.478 0 0 1-.114-.32v-7.876h-4.035v7.875a.438.438 0 0 1-.132.321.408.408 0 0 1-.302.114h-.887Zm13.91.188c-1.382 0-2.457-.39-3.224-1.17-.754-.781-1.157-1.82-1.207-3.117l-.019-.812.02-.812c.05-1.284.458-2.316 1.225-3.097.767-.793 1.835-1.19 3.206-1.19 1.37 0 2.439.397 3.206 1.19.767.78 1.175 1.813 1.226 3.097.012.139.018.41.018.813 0 .402-.006.673-.018.811-.05 1.297-.46 2.336-1.226 3.117-.755.78-1.823 1.17-3.206 1.17Zm0-1.454c.793 0 1.415-.252 1.868-.755.465-.504.717-1.228.754-2.172.013-.126.019-.365.019-.718 0-.352-.006-.591-.019-.717-.037-.944-.289-1.669-.754-2.172-.453-.504-1.075-.755-1.867-.755s-1.42.251-1.886.755c-.465.503-.71 1.228-.736 2.172l-.018.717.018.718c.026.944.27 1.668.736 2.172.465.503 1.094.755 1.886.755Zm9.158 1.266c-.164 0-.29-.038-.378-.114a.88.88 0 0 1-.226-.358l-2.678-8.763-.038-.19c0-.113.038-.207.114-.282a.426.426 0 0 1 .282-.114h.83c.126 0 .227.038.302.114a.43.43 0 0 1 .17.207l2.093 7.12 2.244-7.044a.507.507 0 0 1 .17-.265.484.484 0 0 1 .358-.132h.641c.151 0 .27.044.359.133a.507.507 0 0 1 .17.264l2.244 7.044 2.093-7.12a.428.428 0 0 1 .132-.207.476.476 0 0 1 .321-.114h.848a.36.36 0 0 1 .264.114c.076.075.113.17.113.283l-.037.189-2.66 8.762a.872.872 0 0 1-.226.36c-.088.075-.22.113-.396.113h-.735c-.34 0-.547-.158-.623-.473l-2.187-6.76-2.188 6.76c-.1.315-.314.473-.641.473h-.735Z" fill="#51504F"/>
    </g>
  </g>
  <defs>
    <clipPath id="a">
      <path fill="#fff" d="M0 0h104v40H0z"/>
    </clipPath>
  </defs>
</svg>
