<svg width="87" height="40" fill="none" xmlns="http://www.w3.org/2000/svg">
  <g clip-path="url(#a)" fill="#000">
    <path d="M13.145 17.683c.221.694.336 1.417.342 2.145A6.79 6.79 0 0 1 13.15 22l2.257 1.307a5.416 5.416 0 0 1 4.4-1.597 5.277 5.277 0 0 1 3.187 1.45 5.398 5.398 0 0 1-5.39 9.061 5.396 5.396 0 0 1-3.478-6.616l-2.193-1.284a7.323 7.323 0 0 1-3.704 2.211v2.527a5.431 5.431 0 0 1-1.721 10.647 5.347 5.347 0 0 1-5.043-4.268 5.103 5.103 0 0 1 .73-3.982 5.648 5.648 0 0 1 3.33-2.411V26.55c-1.892-.406-3.413-1.356-4.457-2.997a6.665 6.665 0 0 1-1.052-4.112c.189-2.828 1.98-5.506 5.486-6.277v-2.483l-.324-.12c-2.188-.802-3.53-2.34-3.785-4.659-.212-1.936.533-3.559 2.066-4.779A5.086 5.086 0 0 1 7.085.006a5.422 5.422 0 0 1 2.42 10.076c-.4.229-.84.388-1.292.58v2.434c.649.29 1.318.542 1.953.87.649.362 1.23.836 1.715 1.399l2.168-1.275c-.785-3.565 1.4-5.83 3.393-6.55a5.408 5.408 0 0 1 5.472 9.094c-1.574 1.484-4.825 2.318-7.564-.226l-2.205 1.275ZM2.802 19.84c-.11 2.104 1.768 3.912 3.831 3.944a3.92 3.92 0 0 0 .125-7.839c-2.17-.04-4.049 1.838-3.956 3.895ZM9.21 5.413a2.517 2.517 0 1 0-5.034 0 2.517 2.517 0 0 0 5.034 0Zm-2.513 31.41a2.519 2.519 0 0 0 2.518-2.503 2.52 2.52 0 0 0-5.04 0 2.515 2.515 0 0 0 2.522 2.504Zm15.09-24.191a2.503 2.503 0 0 0-2.501-2.518 2.52 2.52 0 0 0 0 5.04 2.506 2.506 0 0 0 2.5-2.522ZM19.3 24.58a2.499 2.499 0 0 0-2.358 3.443 2.517 2.517 0 0 0 4.668-1.886 2.5 2.5 0 0 0-2.31-1.557ZM29.541 29.376c-.098-.472-.084-18.96 0-19.274h2.568V21.72c.252-.229.452-.397.638-.58.89-.869 1.779-1.767 2.657-2.663a.92.92 0 0 1 .739-.307c.87.02 1.739 0 2.608 0 .125 0 .252 0 .478.029-1.623 1.617-3.228 3.112-4.819 4.695 1.684 2.138 3.41 4.23 5.12 6.401a1.538 1.538 0 0 1-.29.072h-2.76a.683.683 0 0 1-.58-.356l-3.188-4.057c-.055-.072-.119-.136-.177-.206a.695.695 0 0 0-.406.719c.018 1.133 0 2.266 0 3.4v.469c-.886.07-1.73.029-2.587.04ZM63.325 21.703c.41-.4.751-.73 1.09-1.07.736-.733 1.475-1.466 2.203-2.208a.753.753 0 0 1 .594-.252H70.3c-.102.25-.826.977-1.53 1.611-.545.49-1.052 1.02-1.58 1.53-.527.51-1.072 1.029-1.628 1.562l5.146 6.43a1.563 1.563 0 0 1-.29.067H67.62a.535.535 0 0 1-.472-.234 736.568 736.568 0 0 0-3.188-4.058c-.09-.113-.182-.22-.275-.33a.622.622 0 0 0-.371.629v3.895c-.35.127-2.252.133-2.631.02V10.102h2.608c.052.968.017 1.921.023 2.878.006.956 0 1.921 0 2.88v2.88c.011.972.011 1.92.011 2.963Z"/>
    <path d="M81.77 29.347h-2.587c-.177-.304 0-.643-.13-.982-.09.06-.175.107-.25.168a4.874 4.874 0 0 1-6.222.081 5.61 5.61 0 0 1-2.075-3.788 6.712 6.712 0 0 1 .337-3.46c.71-1.782 1.944-3.008 3.88-3.387a4.59 4.59 0 0 1 4.074 1.136l.29.26.026-1.159c.898-.049 1.739-.017 2.634-.023.026.133.043.268.052.403v10.398c0 .092-.017.197-.028.353Zm-2.512-5.48a3.698 3.698 0 0 0-.745-2.486 3.002 3.002 0 0 0-3.926-.635c-.525.354-.93.86-1.16 1.45a4.425 4.425 0 0 0-.063 3.048c.204.639.611 1.194 1.159 1.582 1.055.762 3.106.71 4.098-.739.449-.65.673-1.43.637-2.22ZM50.59 18.179v11.096c-.311.119-2.18.136-2.63.02v-1.014c-.223.17-.388.29-.556.429a4.585 4.585 0 0 1-2.738.98 4.927 4.927 0 0 1-4.162-1.992 6.118 6.118 0 0 1-1.223-3.324 6.642 6.642 0 0 1 .42-3.092c.65-1.588 1.74-2.741 3.435-3.208a4.57 4.57 0 0 1 4.346.925l.456.373V18.19c.9-.026 1.758-.011 2.651-.011ZM48.151 23.8c-.052-.433-.13-.863-.232-1.287a2.991 2.991 0 0 0-5.776-.038 4.428 4.428 0 0 0-.104 2.208c.255 1.4 1.348 2.739 3.15 2.609a2.83 2.83 0 0 0 2.391-1.432c.36-.628.557-1.337.57-2.06ZM58.805 10.177v2.675c-.174-.075-.29-.124-.426-.188a3.481 3.481 0 0 0-1.055-.35.948.948 0 0 0-1.185.828c-.055.3-.086.605-.093.91v3.767c0 .105 0 .206.026.357h2.657c.13.342.142 2.078.023 2.492h-2.697v8.607c-.29.127-2.078.162-2.646.055-.04-.942 0-1.898-.018-2.849-.017-.95 0-1.918 0-2.88v-2.898l-.846-.04a8.598 8.598 0 0 1 0-2.467h.823c0-.174.018-.313.018-.455 0-1.449 0-2.898.014-4.347.022-.45.087-.898.197-1.336a2.609 2.609 0 0 1 1.336-1.762c1.26-.727 2.553-.69 3.872-.119ZM84.97 25.453a1.958 1.958 0 1 1-1.965 1.979 1.924 1.924 0 0 1 1.965-1.98Zm.014.408a1.503 1.503 0 0 0-1.573 1.542 1.547 1.547 0 0 0 1.527 1.582 1.563 1.563 0 0 0 1.597-1.542 1.516 1.516 0 0 0-1.548-1.582h-.002Z"/>
    <path d="M84.695 27.785v.69h-.337v-2.133c.233-.016.466-.016.699 0a.58.58 0 0 1 .519.435.614.614 0 0 1-.29.718c-.044.03-.09.055-.148.09l.64.852c-.24.105-.397.099-.533-.084-.136-.182-.31-.394-.464-.58l-.086.012Zm.037-.58c.174.021.34.064.438-.098a.339.339 0 0 0 0-.29c-.099-.18-.27-.162-.45-.116l.012.505Z"/>
  </g>
  <defs>
    <clipPath id="a">
      <path fill="#fff" d="M0 0h86.938v40H0z"/>
    </clipPath>
  </defs>
</svg>
