<svg width="77" height="40" fill="none" xmlns="http://www.w3.org/2000/svg">
  <g clip-path="url(#a)">
    <path d="M70.191 20.105a3.032 3.032 0 0 0-.14-.282c-.963-1.83-1.925-3.665-2.883-5.47a.328.328 0 0 1 .046-.447c1.528-1.802 3.053-3.57 4.58-5.376a.723.723 0 0 0 .12-.235l-1.338.36-5.553 1.471a.24.24 0 0 1-.328-.14c-1.055-1.763-2.111-3.5-3.17-5.262a.61.61 0 0 0-.235-.26c-.094.47-.166.941-.26 1.41-.28 1.643-.587 3.312-.868 4.955-.025.187-.072.36-.094.54a.299.299 0 0 1-.259.281c-2.184.681-4.346 1.384-6.53 2.065a.59.59 0 0 0-.28.166l5.38 2.137c-.073.047-.12.094-.166.119-1.103.72-2.231 1.441-3.334 2.162a.36.36 0 0 1-.4.025c-1.337-.587-2.652-1.196-3.992-1.802a4.064 4.064 0 0 1-1.55-1.127c-.94-1.15-.753-2.465.494-3.287.42-.255.868-.46 1.337-.609 2.136-.72 4.273-1.362 6.41-2.043a.36.36 0 0 0 .307-.328c.28-1.643.587-3.312.868-4.955.166-.894.234-1.802.681-2.584.16-.312.358-.604.588-.868a1.895 1.895 0 0 1 2.937-.072c.305.313.573.66.8 1.034a646.728 646.728 0 0 1 2.937 4.861c.118.188.212.234.421.166l7.157-1.892a3.243 3.243 0 0 1 1.502-.094c1.103.213 1.575 1.035 1.222 2.112a4.097 4.097 0 0 1-.8 1.29c-1.668 1.95-3.333 3.92-5.002 5.87a.332.332 0 0 0-.047.447c.988 1.878 1.997 3.759 2.984 5.658.258.438.403.933.422 1.441a2.289 2.289 0 0 1-2.018 2.303 4.237 4.237 0 0 1-1.867-.241c-1.502-.469-3.005-.916-4.486-1.363-.14-.046-.188-.093-.213-.234-.166-1.056-.36-2.112-.54-3.171v-.119l5.167 1.384" fill="#E25A1C"/>
    <path d="M67.28 35.463h-4.04a.36.36 0 0 1-.36-.212c-1.619-2.458-3.212-4.862-4.83-7.301l-.187-.281c-.36 2.63-.681 5.189-1.009 7.773h-3.571c.047-.36.072-.681.119-1.01.36-2.63.68-5.26 1.034-7.927.328-2.523.656-5.027.987-7.568a.383.383 0 0 1 .12-.213c1.221-.8 2.443-1.574 3.664-2.37.025 0 .047-.026.094-.026l-1.103 8.407.047.026 5.766-6.411c.04.3.095.599.166.893.14.8.259 1.597.421 2.397a.432.432 0 0 1-.119.36c-1.243 1.29-2.465 2.606-3.711 3.9-.047.046-.094.118-.166.187.047.072.072.119.119.187 2.137 2.984 4.248 5.99 6.385 8.97l.14.14v.047m-41.862-7.72a7.62 7.62 0 0 0-.21-1.044c-.587-1.83-2.464-2.818-4.414-2.371a4.914 4.914 0 0 0-3.873 4.324 3.54 3.54 0 0 0 2.302 3.733 4.162 4.162 0 0 0 3.712-.421c1.546-.94 2.367-2.292 2.483-4.22Zm-9.344 6.79c-.094.775-.213 1.528-.307 2.278-.14.987-.26 1.97-.36 2.958-.025.119-.047.166-.166.166h-2.926c-.025 0-.047-.025-.094-.025.072-.469.12-.94.188-1.41l.634-4.908c.26-1.877.447-3.733.775-5.589.562-3.286 3.358-6.126 6.623-6.846 1.903-.4 3.712-.213 5.377.846a5.986 5.986 0 0 1 2.818 4.555c.306 2.746-.72 5.027-2.652 6.905a8.374 8.374 0 0 1-4.58 2.313 6.72 6.72 0 0 1-5.075-1.102c-.093-.047-.165-.094-.259-.14m-1.571-15.619-3.193 2.378c-.166-.259-.328-.54-.494-.774a2.437 2.437 0 0 0-1.855-1.175 2.111 2.111 0 0 0-1.737.681 1.218 1.218 0 0 0-.072 1.622c.428.567.89 1.108 1.383 1.621.8.869 1.622 1.69 2.418 2.559a5.441 5.441 0 0 1 1.481 2.746 5.6 5.6 0 0 1-.655 3.64 6.89 6.89 0 0 1-5.236 3.682 6.815 6.815 0 0 1-3.078-.166 4.491 4.491 0 0 1-2.883-2.522C.36 32.739.187 32.292 0 31.824l3.452-1.856c.035.088.075.175.12.26.164.41.368.803.608 1.174a2.335 2.335 0 0 0 3.078.868c.303-.149.587-.337.843-.558a1.802 1.802 0 0 0 .36-2.465c-.337-.485-.714-.94-1.128-1.362-.94-1.056-1.924-2.065-2.84-3.125a4.962 4.962 0 0 1-1.196-2.583 4.487 4.487 0 0 1 .635-3.006c1.376-2.234 3.394-3.409 6.072-3.315a4.8 4.8 0 0 1 3.69 1.95c.212.328.468.68.774 1.08m25.853 12.105c-.188 1.362-.36 2.652-.516 3.946a.265.265 0 0 1-.118.188c-2.631 1.221-6.105 1.055-8.267-1.41a6.4 6.4 0 0 1-1.575-4.627c.166-4.04 3.52-7.567 7.514-8.054 2.35-.28 4.392.36 5.963 2.163a6.046 6.046 0 0 1 1.503 4.346c-.047 1.08-.212 2.137-.36 3.218-.188 1.527-.4 3.03-.588 4.555 0 .046-.025.118-.025.165h-3.131c.047-.36.072-.68.119-1.034.234-1.762.468-3.5.68-5.261a5.726 5.726 0 0 0-.439-3.211 3.078 3.078 0 0 0-2.605-1.762 4.933 4.933 0 0 0-5.262 3.827 3.622 3.622 0 0 0 1.442 3.92c1.221.822 2.522.822 3.874.282a5.671 5.671 0 0 0 1.801-1.269M53.6 21.298l-.422 3.264h-1.97a1.244 1.244 0 0 0-1.176.847 2.559 2.559 0 0 0-.118.61l-.988 7.538c-.094.634-.166 1.268-.26 1.903H45.37c.072-.494.12-.94.188-1.41.212-1.621.421-3.243.634-4.882.187-1.41.36-2.818.562-4.227a4.59 4.59 0 0 1 4.058-3.64c.915-.025 1.83 0 2.771 0M71.153 35.463v-1.387l-.522 1.387h-.188l-.54-1.384v1.384h-.281v-1.668h.421l.494 1.268.494-1.268h.421v1.668h-.299Zm-2.418-1.441v1.441h-.266v-1.441h-.516v-.213h1.316v.213h-.516M18.858 16.537h.821l-.22-1.222-.601 1.222Zm.94.8h-1.365l-.415.843h-.97l2.112-3.946h.916l.72 3.946h-.882l-.12-.847m4.837-2.302h-.487l-.166.915h.49a.5.5 0 0 0 .516-.54.328.328 0 0 0-.35-.372l-.003-.003Zm-1.172-.797h1.269a1.035 1.035 0 0 1 1.128 1.081 1.388 1.388 0 0 1-1.442 1.442h-.54l-.26 1.441h-.836l.681-3.964Zm5.19 2.303h.821l-.187-1.222-.634 1.222Zm.962.8h-1.362l-.422.847h-.962l2.112-3.95h.933l.72 3.946h-.9l-.12-.847m5.33.721c-.28.129-.584.2-.893.213a1.647 1.647 0 0 1-1.69-1.762 2.335 2.335 0 0 1 2.303-2.303c.288-.005.572.068.821.212l-.119.94a1.052 1.052 0 0 0-.8-.327 1.42 1.42 0 0 0-1.362 1.409.952.952 0 0 0 .94 1.034c.334-.004.656-.12.916-.328l-.101.898M40 16.598h-1.715l-.281 1.597h-.822l.72-3.946h.822l-.28 1.574h1.715l.28-1.574h.822l-.72 3.946h-.822L40 16.577m3.03 1.596.721-3.946h2.184l-.17.807h-1.361l-.14.775h1.242l-.14.8h-1.243l-.141.8h1.362l-.14.8H43.02" fill="#3C3A3E"/>
  </g>
  <defs>
    <clipPath id="a">
      <path fill="#fff" d="M0 0h77v40H0z"/>
    </clipPath>
  </defs>
</svg>
