<svg width="72" height="72" viewBox="0 0 72 72" fill="none" xmlns="http://www.w3.org/2000/svg">
<path d="M0 0V72H72V0H0ZM67.7812 67.7812H4.21875V4.21875H67.7812V67.7812Z" fill="#92C9EC"/>
<path fill-rule="evenodd" clip-rule="evenodd" d="M49.6126 14.6024C49.6126 17.1441 43.6551 19.2047 36.3062 19.2047C28.9573 19.2047 23.0004 17.1441 23.0004 14.6024C23.0004 12.0606 28.9573 10 36.3062 10C43.6551 10 49.6126 12.0606 49.6126 14.6024Z" fill="#103654"/>
<path fill-rule="evenodd" clip-rule="evenodd" d="M36.3065 21.5949C29.1905 21.5949 23.3965 19.6615 23.035 17.2315H23V21.6588C23 24.2012 28.9575 26.2612 36.3065 26.2612C43.6554 26.2612 49.6129 24.2012 49.6129 21.6588V17.2315H49.5779C49.2164 19.6615 43.4224 21.5949 36.3065 21.5949Z" fill="#103654"/>
<path fill-rule="evenodd" clip-rule="evenodd" d="M36.3065 28.703C29.1905 28.703 23.3965 26.7696 23.035 24.3396H23V28.7669C23 31.3093 28.9575 33.3693 36.3065 33.3693C43.6554 33.3693 49.6129 31.3093 49.6129 28.7669V24.3396H49.5779C49.2164 26.7696 43.4224 28.703 36.3065 28.703Z" fill="#103654"/>
<path fill-rule="evenodd" clip-rule="evenodd" d="M36.3065 35.3337C29.1905 35.3337 23.3965 33.4003 23.035 30.9703H23V35.3976C23 37.94 28.9575 40 36.3065 40C43.6554 40 49.6129 37.94 49.6129 35.3976V30.9703H49.5779C49.2164 33.4003 43.4224 35.3337 36.3065 35.3337Z" fill="#103654"/>
<path d="M2 50H69.5" stroke="#92C9EC" stroke-width="4" stroke-dasharray="28 6"/>
<path d="M2 60H69.5" stroke="#92C9EC" stroke-width="4"/>
</svg>
