<svg width="72" height="72" fill="none" xmlns="http://www.w3.org/2000/svg">
  <path d="M67.224 11.6c0 5.965-13.906 10.8-31.06 10.8-17.152 0-31.057-4.835-31.057-10.8C5.107 5.636 19.012.8 36.165.8s31.059 4.836 31.059 10.8" stroke="#92C9EC"/>
  <path d="M36.165 28.01c-16.61 0-30.133-4.538-30.977-10.24h-.082v10.39c0 5.966 13.906 10.8 31.06 10.8 17.153 0 31.058-4.834 31.058-10.8V17.77h-.082c-.843 5.702-14.367 10.24-30.977 10.24" stroke="#92C9EC"/>
  <path d="M36.165 44.69c-16.61 0-30.133-4.537-30.977-10.24h-.082v10.39c0 5.966 13.906 10.8 31.06 10.8 17.153 0 31.058-4.834 31.058-10.8V34.45h-.082c-.843 5.703-14.367 10.24-30.977 10.24" stroke="#92C9EC"/>
  <path d="M36.165 60.25c-16.61 0-30.133-4.537-30.977-10.24h-.082V60.4c0 5.966 13.906 10.8 31.06 10.8 17.153 0 31.058-4.834 31.058-10.8V50.01h-.082c-.843 5.703-14.367 10.24-30.977 10.24" stroke="#92C9EC"/>
</svg>
