<svg width="200" height="40" viewBox="0 0 200 40" fill="none" xmlns="http://www.w3.org/2000/svg">
<g clip-path="url(#clip0_1474_1037)">
<path d="M0.000244141 31.25H3.75135V35H0.000244141V31.25Z" fill="#FF0000"/>
<path d="M0.000244141 5H3.75135V31.25H0.000244141V5Z" fill="#FFCC00"/>
<path d="M7.50136 5H11.2525V35H7.50136V5Z" fill="#FFCC00"/>
<path d="M15.0025 5H18.7536V35H15.0025V5Z" fill="#FFCC00"/>
<path d="M22.5036 5H26.2547V35H22.5036V5Z" fill="#FFCC00"/>
<path d="M30.0047 17.1878H33.7558V22.8122H30.0047V17.1878Z" fill="#FFCC00"/>
<path d="M58.9501 31.6179C57.4731 31.6372 56.0063 31.376 54.6298 30.8485C53.3465 30.3394 52.1873 29.5681 51.2288 28.5857C50.2229 27.587 49.4402 26.3923 48.9308 25.0783C47.8251 21.9961 47.8251 18.6339 48.9308 15.5517C49.9588 12.8595 52.1215 10.7381 54.8596 9.73626C56.2774 9.2136 57.7809 8.95279 59.2948 8.9669C60.5029 8.94313 61.7088 9.08014 62.8797 9.37421C63.8321 9.6289 64.756 9.97764 65.6373 10.4151L64.81 12.9721C64.029 12.4534 63.1882 12.028 62.3052 11.7049C61.2469 11.3544 60.1353 11.186 59.019 11.2071C56.9487 11.1876 54.9741 12.0646 53.6187 13.6057C52.8842 14.4497 52.3224 15.4255 51.9641 16.4795C51.5328 17.7402 51.3229 19.0641 51.3437 20.3942C51.3259 21.691 51.5199 22.9822 51.9182 24.2184C52.2502 25.2558 52.7893 26.2174 53.5038 27.0469C54.169 27.8043 55.0026 28.4005 55.9397 28.7893C56.9437 29.2027 58.0227 29.4106 59.1109 29.4003C60.1022 29.4054 61.0877 29.2525 62.0294 28.9477C62.929 28.6411 63.792 28.2389 64.6032 27.7484L65.4075 29.6718C64.63 30.2533 63.7604 30.7044 62.8337 31.0069C61.5844 31.4288 60.2706 31.6355 58.9501 31.6179Z" fill="#231F20"/>
<path d="M71.6582 8.33331V31.3011H68.9237V8.33331H71.6582Z" fill="#231F20"/>
<path d="M77.5639 12.9495C77.0994 12.9823 76.6428 12.818 76.3092 12.4981C75.9755 12.1782 75.7966 11.7331 75.8174 11.275C75.8008 10.8171 75.9656 10.3708 76.277 10.0305C76.9812 9.35793 78.1006 9.35793 78.8048 10.0305C79.1268 10.366 79.3003 10.8136 79.2874 11.275C79.301 11.7231 79.1264 12.157 78.8048 12.4743C78.474 12.7922 78.026 12.9638 77.5639 12.9495ZM78.9427 15.3481V31.1879H76.2311V15.3481H78.9657H78.9427Z" fill="#231F20"/>
<path d="M90.5476 31.618C89.4717 31.6229 88.4042 31.4311 87.3994 31.0522C86.4393 30.6975 85.569 30.1416 84.8486 29.4229C84.1111 28.6759 83.5329 27.7911 83.1481 26.8207C82.3116 24.5705 82.3116 22.1013 83.1481 19.8512C83.5407 18.8739 84.1355 17.9877 84.8945 17.2489C85.6577 16.5118 86.5754 15.948 87.5832 15.597C88.6199 15.2181 89.7176 15.0264 90.8234 15.0313C91.6979 15.025 92.5699 15.1238 93.4201 15.3255C94.1047 15.4792 94.7576 15.7471 95.3505 16.1175L94.4772 18.4935C93.9156 18.0714 93.3064 17.7146 92.6618 17.4299C91.9893 17.1694 91.27 17.0462 90.5476 17.0679C89.8544 17.0631 89.167 17.1938 88.5254 17.4525C87.883 17.7148 87.3094 18.1171 86.8478 18.6292C86.3482 19.1915 85.9656 19.845 85.7218 20.5526C85.4166 21.4258 85.2689 22.3448 85.2852 23.268C85.1734 24.9135 85.7175 26.537 86.8019 27.7937C87.9007 28.8381 89.3901 29.387 90.9153 29.3098C92.2456 29.2795 93.5385 28.8709 94.6381 28.1331L95.2586 30.1244C94.6419 30.578 93.9498 30.9225 93.2133 31.1427C92.3545 31.4339 91.4556 31.5941 90.5476 31.618Z" fill="#231F20"/>
<path d="M101.371 8.33331V31.3011H98.5907V8.33331H101.371ZM108.495 31.3011L101.739 22.7928L108.403 15.3707H111.253L104.657 22.476L111.712 31.3011H108.495Z" fill="#231F20"/>
<path d="M129.338 21.5255H117.848V31.2789H114.884V9.28333H117.848V19.3311H129.338V9.28333H132.303V31.3011H129.338V21.5255Z" fill="#231F20"/>
<path d="M143.999 31.6179C142.976 31.6187 141.962 31.4267 141.012 31.0522C140.079 30.6937 139.234 30.1463 138.53 29.4456C137.8 28.6969 137.23 27.8122 136.852 26.8433C136.017 24.5618 136.017 22.0648 136.852 19.7833C137.228 18.8202 137.799 17.9425 138.53 17.2036C139.236 16.5054 140.081 15.9585 141.012 15.597C141.962 15.2225 142.976 15.0305 143.999 15.0313C145.03 15.0309 146.052 15.2229 147.01 15.597C147.947 15.9592 148.799 16.5059 149.514 17.2036C150.261 17.9396 150.847 18.8172 151.238 19.7833C152.095 22.061 152.095 24.5656 151.238 26.8433C150.879 27.8058 150.333 28.6899 149.629 29.4456C148.917 30.1464 148.064 30.6935 147.125 31.0522C146.131 31.4406 145.069 31.6329 143.999 31.6179ZM143.999 29.5587C144.643 29.5561 145.281 29.4412 145.884 29.2193C146.509 28.9927 147.069 28.6199 147.515 28.1331C148.028 27.5675 148.419 26.9055 148.664 26.1871C148.975 25.2606 149.122 24.2887 149.101 23.3133C149.125 22.3377 148.977 21.3654 148.664 20.4395C148.416 19.7291 148.025 19.075 147.515 18.5161C147.069 18.0293 146.509 17.6565 145.884 17.4299C145.281 17.208 144.643 17.0931 143.999 17.0905C143.371 17.0926 142.748 17.2077 142.161 17.4299C141.554 17.6652 141.01 18.0372 140.575 18.5161C140.069 19.074 139.686 19.7288 139.449 20.4395C139.15 21.368 139.01 22.3393 139.036 23.3133C139.012 24.2871 139.152 25.258 139.449 26.1871C139.683 26.9058 140.067 27.5685 140.575 28.1331C141.01 28.6127 141.553 28.9848 142.161 29.2193C142.748 29.4415 143.371 29.5566 143.999 29.5587Z" fill="#231F20"/>
<path d="M163.9 30.6901C162.836 31.3487 161.594 31.6723 160.338 31.6179C158.99 31.6723 157.679 31.1818 156.707 30.2602C155.696 29.1122 155.199 27.6107 155.328 26.0966V15.3481H158.086V26.0966C158.073 26.6335 158.151 27.1688 158.316 27.6806C158.441 28.0673 158.662 28.4173 158.959 28.6988C159.231 28.9549 159.562 29.1414 159.924 29.2419C160.313 29.3513 160.715 29.4046 161.119 29.4003C162.163 29.4487 163.193 29.1454 164.038 28.5404C164.826 27.93 165.469 27.1578 165.922 26.2776V15.3481H168.657V31.1879H166.244L165.991 28.3368C165.533 29.2991 164.808 30.1147 163.9 30.6901Z" fill="#231F20"/>
<path d="M177.458 31.6179C176.77 31.6611 176.079 31.6611 175.39 31.6179C174.871 31.5516 174.357 31.4534 173.85 31.3237C173.45 31.2278 173.058 31.0991 172.678 30.939C172.362 30.8 172.055 30.6413 171.759 30.4638L172.655 28.201C172.856 28.3631 173.072 28.507 173.299 28.631C173.631 28.8144 173.977 28.9732 174.333 29.1061C174.787 29.2819 175.256 29.4182 175.735 29.5135C176.302 29.6232 176.88 29.6763 177.458 29.6719C178.391 29.7346 179.318 29.4962 180.101 28.993C180.691 28.5467 181.025 27.8468 180.997 27.1149C181.023 26.4952 180.75 25.8998 180.262 25.5082C179.489 24.9809 178.624 24.5974 177.711 24.3768L175.735 23.7206C175.138 23.5112 174.574 23.2219 174.057 22.8607C173.566 22.5144 173.158 22.0664 172.862 21.5483C172.536 20.9351 172.377 20.2488 172.403 19.557C172.316 18.2536 172.914 16.9975 173.988 16.2306C175.288 15.4366 176.805 15.0573 178.331 15.1445C179.296 15.1296 180.26 15.2207 181.204 15.416C181.868 15.5517 182.515 15.7565 183.134 16.027L182.491 18.2898C181.968 18.0338 181.431 17.8072 180.882 17.611C180.098 17.3496 179.274 17.227 178.446 17.2489C177.585 17.2089 176.726 17.3718 175.942 17.7241C175.301 18.066 174.93 18.7521 174.999 19.4665C174.993 19.8137 175.097 20.1541 175.298 20.4395C175.506 20.7245 175.772 20.9634 176.079 21.141C176.442 21.3559 176.827 21.5305 177.228 21.6614L178.607 22.0687L180.469 22.6797C181.062 22.8906 181.62 23.1881 182.123 23.5622C183.215 24.3489 183.829 25.6261 183.755 26.9565C183.792 27.7441 183.609 28.5266 183.226 29.2193C182.88 29.8154 182.401 30.3261 181.824 30.7128C181.217 31.1178 180.54 31.4093 179.825 31.5726C179.041 31.6804 178.246 31.6956 177.458 31.6179Z" fill="#231F20"/>
<path d="M199.634 29.9208C198.952 30.4605 198.172 30.8675 197.336 31.1201C196.321 31.4511 195.257 31.6117 194.188 31.5952C191.973 31.7174 189.812 30.8927 188.259 29.3324C186.79 27.6284 186.049 25.4306 186.191 23.2001C186.172 22.0216 186.366 20.8492 186.765 19.738C187.114 18.776 187.653 17.8916 188.351 17.1357C188.99 16.4374 189.774 15.8818 190.649 15.5065C191.582 15.1294 192.582 14.9372 193.59 14.9408C194.6 14.9285 195.601 15.1211 196.532 15.5065C197.386 15.8619 198.131 16.4314 198.692 17.1584C199.29 17.9601 199.684 18.8912 199.841 19.8738C200.053 21.1171 200.053 22.3867 199.841 23.6301H188.902C189.025 27.4165 190.84 29.3098 194.349 29.3098C195.192 29.3269 196.033 29.1966 196.83 28.9251C197.541 28.6712 198.22 28.3371 198.853 27.9295L199.634 29.9208ZM193.682 16.9321C192.566 16.9215 191.494 17.3633 190.718 18.154C189.798 19.1712 189.248 20.4609 189.155 21.8198H197.359C197.585 20.5279 197.279 19.2008 196.509 18.1314C195.804 17.3252 194.761 16.883 193.682 16.9321Z" fill="#231F20"/>
</g>
<defs>
<clipPath id="clip0_1474_1037">
<rect width="200" height="40" fill="white" transform="translate(0.000244141)"/>
</clipPath>
</defs>
</svg>
