<svg width="88" height="88" fill="none" xmlns="http://www.w3.org/2000/svg"><path d="M86.771 63.813l.002.002c.444.228.727.685.727 1.2v4.637c0 .5-.286.973-.727 1.2l-.002.001-4.471 2.328-.372.194.126.4 1.514 4.8v.002a1.333 1.333 0 01-.33 1.358h-.001l-.008.007-3.269 3.288s0 0 0 0a1.352 1.352 0 01-1.363.339h0l-4.822-1.515-.4-.126-.194.372-2.328 4.471v.002a1.343 1.343 0 01-1.2.727h-4.639c-.499 0-.972-.286-1.2-.727v-.002L61.484 82.3l-.193-.372-.4.126-4.823 1.515h0a1.31 1.31 0 01-1.337-.332h0l-.007-.007-3.289-3.288h0l-.007-.007a1.333 1.333 0 01-.33-1.358v-.002l1.514-4.8.126-.4-.372-.194-4.472-2.328h-.002c-.44-.228-.726-.701-.726-1.2v-4.639c0-.514.283-.971.726-1.2h.002l4.472-2.329.372-.193-.126-.4-1.515-4.822h0a1.352 1.352 0 01.338-1.363s0 0 0 0l3.288-3.27h0l.008-.007c.343-.357.864-.48 1.337-.332h0l4.823 1.515.4.126.193-.372 2.328-4.471.001-.002c.228-.441.701-.727 1.2-.727h4.638c.515 0 .972.283 1.2.727l.001.002 2.328 4.471.194.372.4-.126 4.822-1.515h0c.47-.148.997-.027 1.363.339l3.27 3.27c.366.366.487.892.339 1.362h0l-1.515 4.823-.126.4.372.193 4.471 2.328zm-28.336 3.511c0 4.914 3.994 8.907 8.907 8.907 4.897 0 8.89-3.994 8.89-8.907 0-4.895-3.994-8.888-8.89-8.888-4.913 0-8.907 3.992-8.907 8.888zM57.806 34.72h0l.009.01c.335.348.44.863.275 1.368l-2.355 6.476v.001c-.18.482-.6.822-1.077.873h0l-.013.002-8.197 1.105-.415.056-.018.419-.35 8.254h0v.008a1.318 1.318 0 01-.757 1.142h0l-.005.003-6.263 2.93h0a1.312 1.312 0 01-1.375-.142h0l-.007-.006-6.576-5.03-.333-.255-.31.285-6.073 5.596-.002.002a1.367 1.367 0 01-1.372.27l-.002-.002-6.497-2.337-.003-.001a1.357 1.357 0 01-.873-1.09s0 0 0 0l-1.087-8.198-.055-.416-.42-.018-8.247-.35h-.002a1.363 1.363 0 01-1.174-.78v-.002L1.303 38.63h0l-.003-.006c-.206-.426-.15-.964.153-1.38l5.026-6.555.255-.333-.284-.31-5.6-6.098-.001-.001c-.334-.36-.44-.88-.267-1.347l.002-.004 2.356-6.5v-.002a1.356 1.356 0 011.09-.874s0 0 0 0l8.196-1.087.416-.055.018-.42.35-8.272h0v-.008a1.307 1.307 0 01.764-1.146l6.261-2.929h.002a1.315 1.315 0 011.38.147h0l6.576 5.03.334.255.309-.284L34.712.853a1.35 1.35 0 011.368-.27h.004l6.503 2.359h0l.008.003c.455.156.795.58.864 1.085v.001l1.087 8.18.055.415.42.018 8.246.35h.003a1.363 1.363 0 011.174.782l2.926 6.258a1.36 1.36 0 01-.163 1.387h0l-5.01 6.56-.255.332.283.309 5.581 6.099zm-23.348 5.57h0c6.035-2.826 8.648-10.033 5.823-16.068-1.98-4.229-6.282-6.976-10.953-6.976-1.767 0-3.498.384-5.113 1.153-2.92 1.365-5.13 3.788-6.242 6.82l-.001.003a12.057 12.057 0 00.422 9.244h0c1.98 4.23 6.283 6.958 10.953 6.958 1.768 0 3.498-.385 5.11-1.134z" stroke="#92C9EC"/></svg>