<svg width="89" height="88" fill="none" xmlns="http://www.w3.org/2000/svg"><path d="M83.22 67.901V20.1L55.1 42.525 34.032 30.794 4.89 60.622V70.89h78.33V67.9Z" stroke="#92C9EC"/><path d="M1.956 13.623h-.5v59.558H83.72v-4.585H6.04V13.623H1.957Z" fill="#fff" stroke="#92C9EC"/><path fill-rule="evenodd" clip-rule="evenodd" d="M83.92 75.567 61.214 52.86l3.38-3.38L87.3 72.186l-3.38 3.38Z" fill="#fff" stroke="#92C9EC"/><path d="M53.367 53.082c8.19 0 14.864-6.675 14.864-14.95 0-8.273-6.673-14.948-14.864-14.948-8.192 0-14.865 6.675-14.865 14.949 0 8.274 6.673 14.949 14.865 14.949Zm18.644-14.95c0 10.347-8.35 18.73-18.644 18.73-10.295 0-18.645-8.383-18.645-18.73 0-10.345 8.35-18.728 18.645-18.728 10.294 0 18.644 8.383 18.644 18.729Z" fill="#fff" stroke="#92C9EC"/></svg>