<svg width="138" height="40" fill="none" xmlns="http://www.w3.org/2000/svg">
  <g clip-path="url(#a)">
    <path d="M95.353 11.13v17.583h-2.324V11.13h2.324ZM80.874 26.993c.455.078 1.123.104 1.95.104 2.405 0 4.621-.861 4.621-3.418 0-2.4-2.11-3.391-4.647-3.391h-1.924v6.705Zm0-8.427h2.11c2.458 0 3.9-1.252 3.9-2.948 0-2.06-1.602-2.869-3.953-2.869-1.068 0-1.682.079-2.057.156v5.661Zm-2.324-7.2c1.016-.208 2.618-.365 4.248-.365 2.324 0 3.82.392 4.942 1.278.935.679 1.496 1.722 1.496 3.104 0 1.696-1.15 3.183-3.046 3.862v.052c1.71.417 3.713 1.8 3.713 4.408 0 1.514-.614 2.661-1.522 3.522-1.255 1.122-3.286 1.644-6.224 1.644-1.603 0-2.832-.105-3.607-.209V11.365Zm-14.478 8.661c0-1.487-.026-2.765-.106-3.939h2.056l.08 2.478h.107c.588-1.695 2.003-2.765 3.58-2.765.267 0 .454.026.668.078v2.166a3.625 3.625 0 0 0-.801-.079c-1.656 0-2.832 1.227-3.153 2.948a6.388 6.388 0 0 0-.106 1.07v6.73h-2.325v-8.687Zm-5.182 1.148c.027-1.461-.615-3.73-3.26-3.73-2.377 0-3.418 2.139-3.605 3.73h6.865Zm-6.892 1.643c.054 3.105 2.084 4.383 4.434 4.383 1.683 0 2.699-.287 3.58-.652l.4 1.643c-.828.366-2.243.783-4.3.783-3.98 0-6.358-2.557-6.358-6.365 0-3.809 2.298-6.81 6.064-6.81 4.22 0 5.342 3.627 5.342 5.949 0 .47-.053.835-.08 1.07h-9.082Zm-19.768-6.73 1.71 6.417c.374 1.41.721 2.714.962 4.017h.08c.294-1.278.721-2.634 1.148-3.99l2.111-6.444h1.976l2.004 6.313c.48 1.513.855 2.843 1.149 4.122h.08c.214-1.279.56-2.609.988-4.096l1.843-6.339h2.324l-4.167 12.626H42.3l-1.977-6.026c-.454-1.408-.828-2.66-1.149-4.148h-.053c-.32 1.513-.721 2.818-1.175 4.174l-2.084 6h-2.137l-3.9-12.626h2.404ZM18.26 22.426c0 2.766 1.63 4.852 3.927 4.852 2.244 0 3.927-2.06 3.927-4.904 0-2.14-1.096-4.852-3.874-4.852s-3.98 2.504-3.98 4.904Zm10.258-.13c0 4.67-3.313 6.704-6.438 6.704-3.5 0-6.197-2.504-6.197-6.496 0-4.226 2.831-6.704 6.41-6.704 3.713 0 6.225 2.635 6.225 6.496Zm-22.84-2.479c.508.13 1.149.183 1.923.183 2.805 0 4.515-1.33 4.515-3.757 0-2.321-1.683-3.443-4.247-3.443-1.015 0-1.79.078-2.191.183v6.834ZM3.353 11.34A27.614 27.614 0 0 1 7.813 11c2.298 0 3.981.522 5.05 1.46.988.836 1.576 2.114 1.576 3.68 0 1.59-.481 2.843-1.39 3.756-1.228 1.278-3.231 1.93-5.502 1.93-.694 0-1.335-.026-1.87-.156v7.043H3.353V11.339Z" fill="#CA800F"/>
    <mask id="b" style="mask-type:alpha" maskUnits="userSpaceOnUse" x="106" y="0" width="33" height="40">
      <path d="M137.038 0c.991 0 1.795.747 1.795 1.669V38.33c0 .922-.804 1.669-1.795 1.669h-28.681c-.99 0-1.793-.746-1.793-1.667V21.667c0-.92.803-1.667 1.793-1.667h6.946v-8.333c0-.92.803-1.667 1.793-1.667h6.947V1.669c0-.922.804-1.669 1.795-1.669h11.2Z" fill="#fff"/>
    </mask>
    <g mask="url(#b)">
      <path d="M136.816 1.669V38.33c0 .922-.712 1.669-1.591 1.669h-9.927c-.879 0-1.591-.747-1.591-1.669V1.67c0-.922.712-1.669 1.591-1.669h9.927c.879 0 1.591.747 1.591 1.669Z" fill="url(#c)"/>
      <g filter="url(#d)">
        <path d="M127.404 11.746V40h-12.101V11.746c0-.918.657-1.662 1.467-1.662h9.167c.811 0 1.467.744 1.467 1.662Z" fill="url(#e)"/>
      </g>
      <path d="M106.564 21.82v16.527c0 .913.62 1.653 1.385 1.653h10.044V21.82c0-.912-.621-1.652-1.386-1.652h-8.658c-.765 0-1.385.74-1.385 1.653Z" fill="url(#f)"/>
    </g>
  </g>
  <defs>
    <linearGradient id="c" x1="121.522" y1="0" x2="139.294" y2="37.037" gradientUnits="userSpaceOnUse">
      <stop stop-color="#E6AD10"/>
      <stop offset="1" stop-color="#C87E0E"/>
    </linearGradient>
    <linearGradient id="e" x1="115.302" y1="10.084" x2="130.828" y2="37.488" gradientUnits="userSpaceOnUse">
      <stop stop-color="#F6D751"/>
      <stop offset="1" stop-color="#E6AD10"/>
    </linearGradient>
    <linearGradient id="f" x1="106.563" y1="20.168" x2="115.481" y2="38.437" gradientUnits="userSpaceOnUse">
      <stop stop-color="#F9E589"/>
      <stop offset="1" stop-color="#F6D751"/>
    </linearGradient>
    <clipPath id="a">
      <path fill="#fff" d="M.353 0h137v40h-137z"/>
    </clipPath>
    <filter id="d" x="115.17" y="9.984" width="12.367" height="30.183" filterUnits="userSpaceOnUse" color-interpolation-filters="sRGB">
      <feFlood flood-opacity="0" result="BackgroundImageFix"/>
      <feColorMatrix in="SourceAlpha" values="0 0 0 0 0 0 0 0 0 0 0 0 0 0 0 0 0 0 127 0" result="hardAlpha"/>
      <feOffset dy=".006"/>
      <feGaussianBlur stdDeviation=".006"/>
      <feColorMatrix values="0 0 0 0 0 0 0 0 0 0 0 0 0 0 0 0 0 0 0.2 0"/>
      <feBlend in2="BackgroundImageFix" result="effect1_dropShadow_1103_1267"/>
      <feColorMatrix in="SourceAlpha" values="0 0 0 0 0 0 0 0 0 0 0 0 0 0 0 0 0 0 127 0" result="hardAlpha"/>
      <feOffset dy=".033"/>
      <feGaussianBlur stdDeviation=".067"/>
      <feColorMatrix values="0 0 0 0 0 0 0 0 0 0 0 0 0 0 0 0 0 0 0.18 0"/>
      <feBlend in2="effect1_dropShadow_1103_1267" result="effect2_dropShadow_1103_1267"/>
      <feBlend in="SourceGraphic" in2="effect2_dropShadow_1103_1267" result="shape"/>
    </filter>
  </defs>
</svg>
