<svg width="103" height="40" fill="none" xmlns="http://www.w3.org/2000/svg"><path d="M14.255 0h7.83v39.662c0 .322 0 .331-.32.331H14.25v-.444c.003-13.18.005-26.364.005-39.549Z" fill="#2D72B7"/><path d="M14.251 40h7.511c.311 0 .318 0 .32-.331.002-.331 0-.644 0-.967V.007h.096c.193.13.399.24.613.33a981.2 981.2 0 0 0 4.833 2.414.402.402 0 0 1 .26.422v33.692a.402.402 0 0 1-.262.422c-1.709.844-3.41 1.7-5.11 2.553a.859.859 0 0 0-.29.178H14.12l.131-.018Z" fill="#5293CE"/><path d="M14.251 40h-.131c-1.793-.889-3.582-1.796-5.38-2.687a.444.444 0 0 1-.296-.469V6.962c0-1.229.014-2.46 0-3.689a.538.538 0 0 1 .347-.573c1.696-.831 3.373-1.678 5.056-2.52.106-.053.209-.12.31-.18h.096v39.556c.003.146 0 .29-.002.444ZM0 32.86V7.111l2.64-1.333c.095-.06.2-.102.309-.125v28.642c-.631-.313-1.258-.628-1.891-.937A10.855 10.855 0 0 0 0 32.86Z" fill="#205B97"/><path d="M102.589 18.749a.636.636 0 0 1-.613.293c-.467-.01-.934 0-1.403 0s-.544-.11-.544-.538v-5.822a3.389 3.389 0 0 0-.169-1.038.871.871 0 0 0-.791-.666.99.99 0 0 0-.998.538 3.283 3.283 0 0 0-.404 1.615c-.011 1.778 0 3.556 0 5.333 0 .423-.103.525-.525.525h-1.595c-.307 0-.445-.136-.445-.445V9.196c0-.318.136-.445.458-.445h1.498c.335 0 .458.129.46.467.002.338 0 .666 0 1.029.111-.127.2-.272.26-.43a2.209 2.209 0 0 1 1.41-1.18c1.612-.4 3.034.405 3.256 2.043.061.323.092.651.094.98 0 .062 0 .131.046.18l.005 6.909Z" fill="#201C1D"/><path d="M102.589 23.582h-2.342c-.316 0-.316 0-.316.307v7.242c0 .327 0 .327-.322.327h-.667c-.175 0-.222-.06-.222-.223v-7.34c0-.317 0-.317-.307-.317H96.29c-.18 0-.249-.051-.222-.223.026-.253-.11-.582.055-.742.165-.16.476-.042.722-.044h5.747l-.002 1.013Z" fill="#000"/><path d="M27.891 32.956V6.947l3.511-.843c.647-.153 1.296-.304 1.945-.455V34.26c-.685-.129-1.358-.311-2.036-.475l-3.42-.83Z" fill="#205B97"/><path d="M56.393 10c.551-.96 1.311-1.476 2.445-1.46 1.133.016 1.813.667 2.289 1.669.11-.184.197-.342.295-.493a2.667 2.667 0 0 1 4.067-.425c.401.399.639.933.667 1.498.115 1.3.033 2.604.046 3.907.014 1.302 0 2.56 0 3.84 0 .346-.1.444-.444.444h-1.691c-.278 0-.425-.131-.427-.402 0-1.765-.011-3.527 0-5.291a13.003 13.003 0 0 0-.053-1.505c-.07-.649-.634-.946-1.227-.79a1.193 1.193 0 0 0-.9 1.015c-.072.37-.107.745-.102 1.122v5.313c0 .445-.1.536-.538.536h-1.509c-.389 0-.502-.111-.502-.498V12.95c.027-.4-.003-.803-.089-1.196a1.004 1.004 0 0 0-.889-.795 1.069 1.069 0 0 0-1.111.698 3.205 3.205 0 0 0-.184.984c-.1 1.987-.016 3.973-.045 5.96 0 .278-.093.373-.378.376h-1.69c-.352 0-.445-.091-.445-.445V9.182c0-.382.073-.444.444-.444h1.556c.315 0 .422.107.424.415.002.31-.009.572-.009.847Z" fill="#201C1D"/><path d="M33.333 34.262V5.651a.487.487 0 0 1 .294.094c.82.408 1.635.824 2.46 1.224a.388.388 0 0 1 .244.411V32.47a.498.498 0 0 1-.331.529c-.813.387-1.611.8-2.42 1.2-.062.044-.138.14-.247.064Z" fill="#5293CE"/><path d="M75.673 13.695c0 .645.014 1.176 0 1.707-.012.615.21 1.212.623 1.67a.422.422 0 0 1-.063.677c-.364.313-.724.633-1.073.964-.407.39-.547.394-.953 0a3.541 3.541 0 0 1-.61-.71c-.095-.165-.173-.18-.3-.034a3.527 3.527 0 0 1-2.408 1.115 3.796 3.796 0 0 1-1.52-.173 2.406 2.406 0 0 1-1.569-1.913 3.633 3.633 0 0 1 .173-2.211 3.112 3.112 0 0 1 2-1.778 13.975 13.975 0 0 1 2.394-.487c.184.005.37-.01.55-.044.09-.031.136-.063.14-.16a3.415 3.415 0 0 0-.113-1.143c-.197-.617-.92-.795-1.346-.722a1.413 1.413 0 0 0-1.196 1.134c-.075.293-.209.362-.509.32a22.874 22.874 0 0 0-1.406-.16c-.363-.03-.52-.2-.445-.547a3.138 3.138 0 0 1 1.976-2.371 5.06 5.06 0 0 1 3.666-.125c1.291.47 1.87 1.211 1.94 2.696.047.802.036 1.604.05 2.295Zm-2.61 1.014v-.531c0-.13-.065-.187-.179-.16-.282.069-.573.026-.857.09-.46.105-.914.239-1.218.612a1.743 1.743 0 0 0-.26 1.807c.062.173.17.326.311.444.587.485 1.36.12 1.671-.307.39-.574.577-1.262.531-1.955ZM51.851 13.318v2c-.01.64.222 1.26.649 1.738a.43.43 0 0 1-.018.64c-.444.405-.892.805-1.344 1.2a.39.39 0 0 1-.538-.007 4.167 4.167 0 0 1-.822-.938c-.07-.093-.1-.16-.222-.033a3.433 3.433 0 0 1-2.185 1.146c-.969.105-1.922.034-2.667-.722a2.798 2.798 0 0 1-.74-1.655 3.543 3.543 0 0 1 .098-1.52 3.056 3.056 0 0 1 2.16-2.165c.775-.228 1.569-.389 2.371-.482.185.004.37-.01.551-.042.103-.034.147-.073.147-.18a4.001 4.001 0 0 0-.113-1.096c-.17-.609-.89-.838-1.347-.75-.649.121-1.084.486-1.204 1.168a.37.37 0 0 1-.445.302 47.758 47.758 0 0 0-1.473-.182c-.369-.038-.491-.198-.405-.56.36-1.522 1.378-2.336 2.858-2.624a5.078 5.078 0 0 1 2.478.048c.76.223 1.467.572 1.873 1.318.218.411.334.868.338 1.334.011.693-.002 1.377 0 2.062Zm-5.169 2.535a1.39 1.39 0 0 0 .156.796.986.986 0 0 0 .964.549 1.457 1.457 0 0 0 1.158-.834 4.29 4.29 0 0 0 .327-2.222c0-.113-.083-.135-.167-.12-.373.03-.744.082-1.111.156-.86.249-1.369.735-1.327 1.675ZM85.531 13.942c-.024-1.28.185-2.41.773-3.45.59-1.04 1.445-1.72 2.654-1.894a3.867 3.867 0 0 1 2.682.493 4.129 4.129 0 0 1 1.616 1.974c.43 1.05.609 2.187.522 3.32a5.853 5.853 0 0 1-1.031 3.17 3.697 3.697 0 0 1-3.056 1.63 3.581 3.581 0 0 1-2.82-1.165 4.996 4.996 0 0 1-1.191-2.507 6.18 6.18 0 0 1-.149-1.57Zm4.289 3.26a.966.966 0 0 0 .696-.444c.415-.567.488-1.231.513-1.893.042-.6.047-1.2.016-1.8a7.664 7.664 0 0 0-.298-1.732c-.19-.58-.667-.784-1.218-.79-.444 0-.716.268-.916.637a3.824 3.824 0 0 0-.368 1.745c-.048.81-.017 1.622.09 2.426.049.439.179.864.383 1.256.21.375.502.604 1.102.595ZM81.182 10.824h-2.915c-.305 0-.416-.062-.445-.353a6.45 6.45 0 0 1 0-1.464c.034-.236.178-.307.385-.307h5.722c.422 0 .524.102.524.522 0 .222-.015.445 0 .651.024.428-.111.849-.38 1.183-.637.902-1.253 1.82-1.875 2.73l-1.087 1.607c-.035.051-.107.098-.078.167.03.069.127.049.194.047a6.244 6.244 0 0 1 3.029.72.647.647 0 0 1 .41.628v1.376c0 .347-.221.491-.54.34a7.044 7.044 0 0 0-2.14-.684 6.516 6.516 0 0 0-3.415.429c-.222.093-.444.204-.684.29a.3.3 0 0 1-.41-.244c0-.642-.066-1.287.04-1.924.08-.312.228-.603.432-.851 1.037-1.54 2.074-3.077 3.111-4.614.06-.072.1-.158.122-.249Z" fill="#201C1D"/><path d="M59.196 27.071v-4.08c0-.222.033-.304.29-.34a14.518 14.518 0 0 1 2.756-.122c.994.053 1.958.255 2.774.889a3.682 3.682 0 0 1 1.42 2.34 5.427 5.427 0 0 1-.378 3.315 3.757 3.757 0 0 1-2.222 2.051 8.695 8.695 0 0 1-2.03.398c-.666.062-1.333-.035-2-.022-.164 0-.328-.058-.5-.044-.117 0-.124-.074-.121-.16v-.63c.007-1.198.01-2.396.01-3.595Zm1.209-.027v3.283c0 .086-.04.2.117.222a6.71 6.71 0 0 0 2.28-.133 2.972 2.972 0 0 0 2.071-1.66c.399-.893.5-1.89.29-2.845a2.8 2.8 0 0 0-.647-1.364c-.636-.716-1.474-1.011-2.407-1.05a8.595 8.595 0 0 0-1.427.039c-.222.026-.284.093-.282.308.009 1.06.002 2.13.002 3.2h.002ZM75.962 27.007v-4.178c0-.222.062-.28.271-.265.233.016.467.016.7 0 .187-.01.25.045.247.24v3.19c0 .25.073.304.309.302 1.215-.012 2.431 0 3.647 0 .197 0 .26-.05.257-.254v-3.21c0-.223.065-.279.274-.265.255.017.515 0 .773 0 .124 0 .18.04.169.166v8.43c0 .248-.069.324-.309.301a3.889 3.889 0 0 0-.651 0c-.198.016-.26-.048-.258-.253v-3.598c0-.306 0-.309-.315-.309h-3.623c-.209 0-.273.047-.27.265v3.622c0 .222-.07.291-.285.276a5.275 5.275 0 0 0-.7 0c-.178 0-.236-.047-.222-.223v-2.246c-.01-.666-.014-1.33-.014-1.991ZM47.778 27.209c.746.335 1.053.944 1.218 1.624.174.827.397 1.644.666 2.445.054.146.025.198-.138.19h-.844a.224.224 0 0 1-.228-.098.223.223 0 0 1-.032-.081 13.848 13.848 0 0 1-.576-2.089 2.287 2.287 0 0 0-.535-1.111 1.502 1.502 0 0 0-1.051-.444c-.314-.018-.63 0-.942 0-.19 0-.223.062-.223.235v3.309c0 .222-.057.3-.28.28a3.878 3.878 0 0 0-.626 0c-.196.015-.267-.042-.262-.251.013-.556 0-1.111 0-1.667v-6.378c0-.475 0-.482.444-.546a11.18 11.18 0 0 1 2.351-.091c.6.042 1.209.14 1.716.515a2.132 2.132 0 0 1 .946 1.74 2.445 2.445 0 0 1-.535 1.694c-.23.265-.514.479-.831.628-.058.027-.132.052-.238.096Zm-2.69-2.085v1.4c0 .14.034.21.188.198.444-.026.888.016 1.32-.042 1.04-.133 1.588-.722 1.584-1.76a1.288 1.288 0 0 0-.738-1.198c-.7-.37-1.442-.329-2.193-.204-.14.022-.165.082-.162.204.002.47-.003.945-.003 1.402h.005ZM51.947 27.02v-4.202c0-.202.057-.256.255-.256 1.442.008 2.882.008 4.322 0 .194 0 .28.04.26.25a3.39 3.39 0 0 0 0 .555c.011.17-.053.222-.222.222h-3.11c-.223 0-.305.047-.299.289.018.749.011 1.498 0 2.247 0 .182.056.222.223.222h2.97c.174 0 .252.037.236.222a3.316 3.316 0 0 0 0 .531c.014.173-.055.222-.222.222h-2.922c-.223 0-.3.051-.298.29.016.868.013 1.737 0 2.608 0 .204.062.253.26.253h3.309c.195 0 .275.047.258.254a4.01 4.01 0 0 0 0 .58c0 .153-.056.189-.198.189H52.13c-.198 0-.196-.1-.196-.24.01-1.43.013-2.842.012-4.236ZM70.691 31.555a4.6 4.6 0 0 1-2.267-.53c-.124-.067-.162-.118-.102-.256.091-.222.15-.445.234-.651.049-.122.093-.105.169-.06.536.28 1.12.457 1.722.524.604.1 1.555-.278 1.809-.76a1.49 1.49 0 0 0-.712-2.13c-.43-.223-.888-.343-1.333-.543-.666-.311-1.264-.71-1.591-1.416a2.398 2.398 0 0 1 .404-2.4c.596-.637 1.345-.889 2.187-.917a4.465 4.465 0 0 1 1.94.34c.127.053.176.1.114.246a6.346 6.346 0 0 0-.223.678c-.033.104-.064.171-.198.098a3.002 3.002 0 0 0-1.42-.367c-.626 0-1.224.111-1.582.687-.358.575-.204 1.355.585 1.806.582.334 1.23.525 1.813.858.582.334 1.129.756 1.318 1.47.353 1.332-.222 2.601-1.556 3.084-.418.159-.863.24-1.31.24ZM89.493 27.002v-4.18c0-.195.047-.26.252-.26 1.433.01 2.867.01 4.3 0 .195 0 .253.063.237.247a3.34 3.34 0 0 0 0 .531c.016.189-.049.247-.242.244h-3.02c-.318 0-.318 0-.318.307v2.367c0 .182.054.222.222.222H93.8c.176 0 .251.04.233.222a3.316 3.316 0 0 0 0 .531c.014.176-.057.223-.222.223H90.96c-.222 0-.271.053-.269.266V31.2c0 .202-.038.293-.262.273a4.92 4.92 0 0 0-.725 0c-.184.012-.222-.055-.222-.222.014-1.431.011-2.84.011-4.249ZM85.433 27v-4.178c0-.197.047-.273.254-.258.24.018.483.018.724 0 .2-.013.245.067.238.25-.011.368 0 .74 0 1.11v7.247c0 .222-.051.318-.291.296a4.398 4.398 0 0 0-.7 0c-.19.013-.222-.063-.222-.236.002-1.413-.003-2.822-.003-4.231Z" fill="#000"/><path d="M2.949 5.66c.647.107 1.275.296 1.911.444 1.198.285 2.393.563 3.584.856v25.994L3.082 34.26c-.046.011-.09.027-.138.042.003-9.546.005-19.094.005-28.642Z" fill="#5293CE"/></svg>