<svg width="336" height="50" fill="none" xmlns="http://www.w3.org/2000/svg"><g clip-path="url(#a)"><path d="M17.693 0h15.714L17.093 48.293A2.507 2.507 0 0 1 14.72 50H2.5A2.5 2.5 0 0 1 0 47.5c0-.272.043-.542.129-.8l15.185-45A2.514 2.514 0 0 1 17.693 0Z" fill="url(#b)"/><path d="M40.507 32.393h-24.9a1.148 1.148 0 0 0-1.15 1.178 1.165 1.165 0 0 0 .364.85l16 14.929a2.507 2.507 0 0 0 1.715.714h14.1l-6.129-17.671Z" fill="#0078D4"/><path d="M17.693 0a2.471 2.471 0 0 0-2.379 1.736L.15 46.657a2.492 2.492 0 0 0 1.507 3.193c.272.1.56.15.85.15h12.536a2.679 2.679 0 0 0 2.057-1.75l3.021-8.907 10.8 10.071A2.6 2.6 0 0 0 32.53 50h14.05l-6.165-17.607H22.457L33.45 0H17.693Z" fill="url(#c)"/><path d="M37.743 1.7A2.5 2.5 0 0 0 35.379 0H17.857a2.5 2.5 0 0 1 2.364 1.7l15.193 45a2.493 2.493 0 0 1-2.35 3.3h17.5a2.5 2.5 0 0 0 2.372-3.3l-15.193-45Z" fill="url(#d)"/><path d="M90.879 40.171H86.15V21.6c0-1.519.095-3.38.286-5.586h-.086c-.194.918-.454 1.82-.779 2.7L77 40.186h-3.286l-8.571-21.307a20.408 20.408 0 0 1-.764-2.858h-.093c.107 1.143.164 3.022.164 5.622v18.571h-4.414V11.43h6.707l7.543 19.15c.443 1.07.818 2.167 1.121 3.285h.1c.493-1.507.9-2.628 1.207-3.364l7.693-19.071h6.472V40.17ZM98.986 16.614a2.8 2.8 0 0 1-1.957-.714 2.45 2.45 0 0 1-.808-1.886 2.515 2.515 0 0 1 .808-1.9 2.764 2.764 0 0 1 1.957-.764c.74-.014 1.457.26 2 .764a2.49 2.49 0 0 1 .821 1.9 2.427 2.427 0 0 1-.821 1.85 2.788 2.788 0 0 1-2 .75Zm2.3 23.572h-4.643V19.664h4.643v20.522ZM121.25 39.229a11.429 11.429 0 0 1-5.829 1.428 9.881 9.881 0 0 1-7.371-2.857 10.114 10.114 0 0 1-2.807-7.4c0-3.381 1.005-6.095 3.014-8.143 2.01-2.048 4.698-3.074 8.064-3.078a11.725 11.725 0 0 1 4.95.985v4.322a7.511 7.511 0 0 0-4.571-1.6 6.334 6.334 0 0 0-4.821 1.993A7.293 7.293 0 0 0 110 30.1a6.965 6.965 0 0 0 1.771 5 6.312 6.312 0 0 0 4.758 1.843 7.455 7.455 0 0 0 4.728-1.786l-.007 4.072ZM136.964 24.086a3.861 3.861 0 0 0-2.421-.657 4.146 4.146 0 0 0-3.443 1.864 8.329 8.329 0 0 0-1.386 5.064v9.814h-4.65V19.664h4.65v4.222h.079a7.195 7.195 0 0 1 2.093-3.372 4.735 4.735 0 0 1 3.157-1.214 3.954 3.954 0 0 1 1.921.379v4.407ZM148.193 40.65c-3.167 0-5.693-.952-7.579-2.857-1.885-1.905-2.838-4.445-2.857-7.622 0-3.442.986-6.133 2.957-8.071 1.972-1.938 4.624-2.907 7.957-2.907 3.21 0 5.708.952 7.493 2.857 1.786 1.905 2.681 4.524 2.686 7.857 0 3.272-.952 5.89-2.857 7.857-1.905 1.967-4.505 2.929-7.8 2.886Zm.221-17.793a5.308 5.308 0 0 0-4.285 1.907 7.936 7.936 0 0 0-1.579 5.243 7.496 7.496 0 0 0 1.6 5.079 5.396 5.396 0 0 0 4.286 1.857 5.108 5.108 0 0 0 4.214-1.829c.986-1.214 1.479-2.943 1.479-5.185 0-2.243-.493-3.986-1.479-5.229a5.08 5.08 0 0 0-4.236-1.843ZM161.529 39.529v-4.286a9.284 9.284 0 0 0 5.75 1.978c2.8 0 4.207-.828 4.207-2.485a1.917 1.917 0 0 0-.365-1.186 3.391 3.391 0 0 0-.971-.871 7.339 7.339 0 0 0-1.429-.715l-1.85-.714a19.53 19.53 0 0 1-2.278-1.064 6.65 6.65 0 0 1-1.679-1.272A4.727 4.727 0 0 1 161.9 27.3a5.909 5.909 0 0 1-.336-2.1 4.83 4.83 0 0 1 .715-2.614 6.096 6.096 0 0 1 1.85-1.872 9.032 9.032 0 0 1 2.685-1.164 12.425 12.425 0 0 1 3.107-.393 14.165 14.165 0 0 1 5.079.886v4.064a8.573 8.573 0 0 0-4.964-1.478 6.424 6.424 0 0 0-1.593.178c-.429.1-.839.27-1.214.5a2.425 2.425 0 0 0-.8.772c-.191.295-.29.64-.286.992-.014.394.085.783.286 1.122.209.33.492.607.828.807.417.26.859.476 1.322.643a50.31 50.31 0 0 0 1.771.628c.811.33 1.605.699 2.379 1.108a7.965 7.965 0 0 1 1.792 1.271 4.914 4.914 0 0 1 1.136 1.643c.285.703.421 1.456.4 2.214a5 5 0 0 1-.714 2.722 6.021 6.021 0 0 1-1.922 1.921c-.854.53-1.79.914-2.771 1.136-1.087.247-2.199.37-3.314.364a13.933 13.933 0 0 1-5.807-1.121ZM188.8 40.65c-3.167 0-5.693-.952-7.579-2.857-1.885-1.905-2.838-4.445-2.857-7.622 0-3.442.984-6.133 2.95-8.071 1.967-1.938 4.624-2.912 7.972-2.921 3.209 0 5.707.952 7.493 2.857 1.785 1.904 2.681 4.523 2.685 7.857 0 3.271-.966 5.89-2.9 7.857-1.933 1.967-4.521 2.933-7.764 2.9Zm.221-17.793a5.31 5.31 0 0 0-4.285 1.907 7.938 7.938 0 0 0-1.586 5.243 7.493 7.493 0 0 0 1.607 5.079 5.369 5.369 0 0 0 4.286 1.857 5.108 5.108 0 0 0 4.214-1.829c.986-1.214 1.472-2.943 1.472-5.185 0-2.243-.486-4-1.472-5.229a5.08 5.08 0 0 0-4.236-1.843ZM213.071 13.571a4.282 4.282 0 0 0-2.142-.542c-2.258 0-3.386 1.276-3.386 3.828v2.786h4.764v3.643h-4.743V40.17h-4.65V23.307h-3.507v-3.643h3.507v-3.328a6.482 6.482 0 0 1 2.143-5.115 7.723 7.723 0 0 1 5.307-1.871 7.858 7.858 0 0 1 2.729.379l-.022 3.842Z" fill="#36BAED"/><path d="M225.143 39.95a8.036 8.036 0 0 1-3.572.714c-3.985 0-5.976-1.904-5.971-5.714V23.307h-3.457v-3.643h3.428v-4.75l4.643-1.321v6.071h4.915v3.643h-4.915v10.264a4.012 4.012 0 0 0 .665 2.6 2.736 2.736 0 0 0 2.2.786 3.202 3.202 0 0 0 2.05-.714l.014 3.707ZM260.436 40.171h-5.229l-2.586-7.314h-11.292l-2.486 7.307h-5.207l10.757-28.735h5.364l10.679 28.742Zm-9.072-11.192-3.985-11.429a13.76 13.76 0 0 1-.386-1.807h-.079a11.514 11.514 0 0 1-.4 1.807l-3.943 11.429h8.793ZM279.479 21.607 268.4 36.55h11.036v3.621h-17.543V38.43l11.314-15.143h-10.236v-3.622h16.508v1.943ZM300.479 40.172h-4.643v-3.243h-.079a6.68 6.68 0 0 1-6.293 3.721c-4.852 0-7.276-2.91-7.271-8.729V19.664h4.65V31.43c0 3.685 1.428 5.528 4.286 5.528a4.287 4.287 0 0 0 3.392-1.528 5.811 5.811 0 0 0 1.315-4V19.664h4.643v20.508ZM316.379 24.086a3.901 3.901 0 0 0-2.429-.657 4.147 4.147 0 0 0-3.443 1.864 8.318 8.318 0 0 0-1.378 5.064v9.814h-4.65V19.664h4.65v4.222h.078a7.087 7.087 0 0 1 2.093-3.372 4.735 4.735 0 0 1 3.157-1.214 3.98 3.98 0 0 1 1.922.379v4.407ZM335.879 31.179H321.9a5.903 5.903 0 0 0 .416 2.375 5.912 5.912 0 0 0 1.334 2.01 6.53 6.53 0 0 0 4.6 1.579 10.124 10.124 0 0 0 6.036-2v3.75c-1.872 1.171-4.343 1.757-7.415 1.757-3.071 0-5.44-.93-7.107-2.793-1.714-1.857-2.571-4.476-2.571-7.857a10.958 10.958 0 0 1 2.857-7.807 9.29 9.29 0 0 1 7.043-3.014c2.805 0 4.976.902 6.514 2.707 1.538 1.805 2.305 4.31 2.3 7.514l-.028 1.779Zm-4.45-3.286A5.975 5.975 0 0 0 330.243 24a3.944 3.944 0 0 0-3.2-1.429 4.507 4.507 0 0 0-3.4 1.465 6.624 6.624 0 0 0-1.707 3.821l9.493.036Z" fill="#36BAED"/></g><defs><linearGradient id="b" x1="25.241" y1="3.739" x2="8.961" y2="51.832" gradientUnits="userSpaceOnUse"><stop stop-color="#114A8B"/><stop offset="1" stop-color="#0669BC"/></linearGradient><linearGradient id="c" x1="30.322" y1="26.159" x2="26.556" y2="27.429" gradientUnits="userSpaceOnUse"><stop stop-opacity=".3"/><stop offset=".07" stop-opacity=".2"/><stop offset=".32" stop-opacity=".1"/><stop offset=".62" stop-opacity=".05"/><stop offset="1" stop-opacity="0"/></linearGradient><linearGradient id="d" x1="28.372" y1="2.291" x2="46.245" y2="49.904" gradientUnits="userSpaceOnUse"><stop stop-color="#3CCBF4"/><stop offset="1" stop-color="#2892DF"/></linearGradient><clipPath id="a"><path fill="#fff" d="M0 0h335.879v50H0z"/></clipPath></defs></svg>