<svg width="190" height="40" fill="none" xmlns="http://www.w3.org/2000/svg">
  <g clip-path="url(#a)">
    <path d="M20.119 1.85v1.856h-3.32v1.207h3.32v3.698h1.298V4.913h3.404V3.706h-3.404V0H20.12v1.85Z" fill="#7099A6"/>
    <path d="M9.266 6.558v2.694H4.24v1.691h5.026v5.472h1.864v-5.472h5.102v-1.69H11.13v-5.39H9.266v2.695Z" fill="#EB912C"/>
    <path d="M30.33 6.558v2.694h-5.026v1.774h5.026v5.389h1.94v-5.389h5.026V9.252H32.27V3.864h-1.94v2.694Z" fill="#59879B"/>
    <path fill-rule="evenodd" clip-rule="evenodd" d="M122.036 8.045h2.589V30.99h-2.589V8.045Zm-21.434 2.415h2.634v3.185c0 2.99.015 3.17.143 3.133.083-.03.476-.136.876-.25a8.552 8.552 0 0 1 1.66-.249c.695-.03 1.102-.007 1.615.09.438.084.959.265 1.419.491.4.197.928.529 1.177.748.242.211.627.656.846.988.226.332.505.86.626 1.185.128.317.287.914.362 1.329.091.543.114 1.01.083 1.75-.022.552-.105 1.238-.181 1.525a7.08 7.08 0 0 1-.392 1.087c-.144.31-.43.785-.634 1.049a5.375 5.375 0 0 1-.883.875c-.279.22-.793.521-1.125.672a8.765 8.765 0 0 1-1.215.445c-.52.144-.853.166-2.347.174-1.411.008-1.872-.023-2.43-.143a30.84 30.84 0 0 1-1.381-.348c-.378-.105-.71-.226-.74-.256-.03-.03-.068-3.97-.083-8.763l-.03-8.716Zm3.283 8.59-.604.21v6.695c1.268.332 1.54.355 2.385.332.83-.023 1.102-.06 1.502-.211.264-.106.634-.302.808-.446.181-.136.437-.392.573-.566.136-.173.332-.536.43-.8a5.54 5.54 0 0 0 .272-1.124 4.116 4.116 0 0 0-.008-1.329 4.105 4.105 0 0 0-.377-1.267c-.151-.325-.415-.725-.581-.891a3.673 3.673 0 0 0-.672-.513 3.65 3.65 0 0 0-.853-.34 4.25 4.25 0 0 0-1.049-.12 6.169 6.169 0 0 0-.89.082 9.547 9.547 0 0 0-.936.287Zm-46.174-7.782h2.59v7.32h6.965v2.416H60.3v7.887h-2.589v-7.887h-6.966v-2.415h6.966v-7.32Z" fill="#1F447E"/>
    <path d="M19.636 15.736v3.019h-5.592v2.25h5.592v6.037H21.9v-6.038h5.593v-2.249H21.9v-6.038h-2.264v3.02Z" fill="#E8762C"/>
    <path d="M36.081 17.26v1.895h-3.404v1.532h3.404v3.78h1.698v-3.78h3.404v-1.532H37.78v-3.782h-1.698v1.887Z" fill="#5B6591"/>
    <path d="M3.674 17.426v1.811H.353v1.283h3.32v3.623h1.299V20.52l3.404-.12v-1.163H4.972v-3.622H3.674v1.811Z" fill="#7099A6"/>
    <path fill-rule="evenodd" clip-rule="evenodd" d="M85.5 16.174h2.589v4.77c0 2.626-.03 5.29-.12 7.071l-.65.197c-.355.105-1.102.271-1.66.37-.853.143-1.238.158-2.468.128-1.14-.03-1.6-.076-2.106-.204a9.333 9.333 0 0 1-1.381-.528 6.632 6.632 0 0 1-1.215-.793 6.042 6.042 0 0 1-.823-.95 6.97 6.97 0 0 1-.543-1.005 8.317 8.317 0 0 1-.34-1.162c-.106-.543-.128-.943-.098-1.894.038-.913.09-1.359.219-1.811.098-.333.324-.876.498-1.208.174-.332.52-.838.777-1.117.264-.287.695-.664.959-.845.264-.174.702-.408.974-.514.264-.105.747-.249 1.071-.309a8.91 8.91 0 0 1 1.336-.113c.415 0 1.004.06 1.32.12.31.069.8.235 1.095.37.287.129.536.242.544.234.007 0 .022-.18.022-.4v-.407Zm-4.407 2.966c-.22.12-.536.37-.71.558-.173.189-.407.521-.513.747a4.903 4.903 0 0 0-.325.906c-.067.272-.12.77-.12 1.102 0 .332.037.823.083 1.087.053.264.188.702.317.966.15.317.392.641.702.928.301.28.656.513.966.634.377.151.679.196 1.456.234.551.023 1.246-.007 1.615-.06.355-.053.687-.121.74-.151.06-.038.106-1.087.143-3.336l.053-3.275c-.664-.363-1.034-.529-1.26-.604-.22-.083-.732-.159-1.132-.174-.498-.023-.868.008-1.178.098a4.754 4.754 0 0 0-.837.34Zm84.528-2.966h2.589v4.045c0 2.226-.023 4.89-.121 7.796l-.649.197c-.355.105-1.072.271-1.6.354-.672.121-1.313.166-2.181.166-.687 0-1.48-.037-1.766-.083a12.416 12.416 0 0 1-1.253-.324c-.43-.136-.989-.4-1.336-.627a6.319 6.319 0 0 1-1.049-.868 6.467 6.467 0 0 1-.725-.996 7.427 7.427 0 0 1-.483-1.162c-.158-.506-.203-.898-.241-1.811-.023-.733 0-1.381.06-1.736.053-.31.189-.83.302-1.163.106-.332.355-.86.551-1.17.189-.309.596-.8.906-1.086a5.52 5.52 0 0 1 1.169-.823 8.35 8.35 0 0 1 1.087-.43c.264-.068.921-.15 1.457-.174.717-.03 1.132 0 1.577.091.34.075.846.242 1.14.377.287.129.536.242.543.234.015 0 .023-.18.023-.4v-.407Zm-4.408 2.966c-.219.12-.536.37-.709.558-.174.189-.4.521-.513.747a4.852 4.852 0 0 0-.325.906c-.068.272-.121.808-.121 1.185s.053.913.121 1.185c.068.28.196.657.295.845.098.189.347.521.55.732.204.22.536.476.733.574.203.106.566.249.815.317.279.083.739.128 1.275.128.453 0 1.094-.038 1.411-.083.325-.045.634-.113.68-.143.068-.038.105-1.012.128-3.344l.023-3.298c-.815-.415-1.268-.588-1.54-.656a4.416 4.416 0 0 0-1.011-.113c-.287 0-.725.06-.966.12a4.615 4.615 0 0 0-.846.34Zm-19.894-2.845c.468.022 1.064.098 1.336.166.264.068.702.226.966.354.272.121.709.385.973.589.272.204.65.581.846.838.196.256.475.724.626 1.034.151.31.347.852.438 1.207.09.355.196 1.072.279 2.536h-8.951l.053.302a8.1 8.1 0 0 0 .196.785c.083.264.295.68.461.913.166.234.415.513.543.611.136.099.408.265.611.37.197.098.544.227.77.287.227.06.83.113 1.374.113.536 0 1.305-.053 1.705-.12.4-.068.966-.204 1.253-.295.287-.09.664-.234.83-.317.166-.083.34-.158.385-.158.053 0 .083.46.083 2.415l-.445.203c-.249.114-.762.295-1.155.408-.392.106-1.109.242-1.6.294a8.196 8.196 0 0 1-1.826 0 11.891 11.891 0 0 1-1.66-.301c-.4-.114-.982-.34-1.283-.506-.31-.166-.831-.551-1.163-.86a6.688 6.688 0 0 1-.958-1.125 6.598 6.598 0 0 1-.551-1.17 8.647 8.647 0 0 1-.302-1.283 7.619 7.619 0 0 1-.045-1.449c.022-.422.12-1.056.211-1.411s.309-.936.483-1.29c.174-.355.498-.861.709-1.125.219-.264.65-.672.959-.906.309-.234.83-.528 1.155-.664a7.28 7.28 0 0 1 1.215-.362 6.85 6.85 0 0 1 1.479-.083Zm-1.774 2.883a4.086 4.086 0 0 0-.762.619 4.607 4.607 0 0 0-.513.747c-.106.211-.196.415-.196.46 0 .053 1.019.083 2.898.083h2.898c-.083-.596-.159-.89-.219-1.049a2.97 2.97 0 0 0-.438-.626 1.947 1.947 0 0 0-.762-.514 5.006 5.006 0 0 0-1.011-.196 3.607 3.607 0 0 0-1.019.09 4.425 4.425 0 0 0-.876.386Zm38.702-2.68h2.687l-.007 4.046c0 3.811.007 4.075.158 4.566.098.302.279.656.43.837.144.166.446.393.672.498.219.106.641.227.928.265.31.045.747.045 1.057 0 .287-.038.709-.159.928-.265.227-.105.528-.332.672-.498.151-.18.339-.535.43-.837.151-.49.159-.755.159-8.612h2.649l-.016 4.37c-.007 4.136-.015 4.385-.166 4.846-.09.264-.279.664-.422.883a4.494 4.494 0 0 1-.566.701c-.166.166-.529.43-.793.589a6.53 6.53 0 0 1-1.132.49 6.86 6.86 0 0 1-1.456.265c-.453.022-1.178.022-1.623-.008a6.353 6.353 0 0 1-1.457-.256 6.61 6.61 0 0 1-1.139-.491 5.446 5.446 0 0 1-.793-.589 4.936 4.936 0 0 1-.566-.701 5.302 5.302 0 0 1-.415-.884c-.158-.452-.166-.732-.189-4.845l-.03-4.37Z" fill="#1F447E"/>
    <path d="M9.266 25.954v2.694H4.24v1.774h5.026v5.389h1.94v-5.389h5.026v-1.774h-5.026V23.26h-1.94v2.694Z" fill="#C72035"/>
    <path d="M30.33 25.954v2.694h-5.026v1.691h5.026v5.472h1.94v-5.472h5.026v-1.69H32.27v-5.39h-1.94v2.695Z" fill="#1F447E"/>
    <path d="M19.96 32.8v1.887h-3.403v1.532h3.403V40h1.698V36.22h3.404v-1.532h-3.404v-3.781H19.96V32.8Z" fill="#5B6591"/>
  </g>
  <defs>
    <clipPath id="a">
      <path fill="#fff" d="M.353 0h189v40h-189z"/>
    </clipPath>
  </defs>
</svg>
