<svg width="163" height="40" fill="none" xmlns="http://www.w3.org/2000/svg">
  <path d="M61.135 20.034c0-4.972-1.418-7.525-4.254-7.665a7.986 7.986 0 0 0-3.302.543c-.855.305-1.431.609-1.734.915v11.87c1.814 1.138 3.425 1.668 4.83 1.584 2.972-.197 4.46-2.61 4.46-7.247Zm3.498.207c0 2.526-.592 4.623-1.784 6.29-1.328 1.888-3.169 2.86-5.522 2.913-1.774.057-3.602-.499-5.482-1.664v10.788l-3.043-1.085V13.537c.5-.612 1.142-1.138 1.92-1.584 1.812-1.056 4.012-1.598 6.602-1.624l.043.042c2.367-.03 4.19.943 5.472 2.913 1.195 1.808 1.794 4.124 1.794 6.957Zm18.594 7.08c0 3.388-.34 5.735-1.019 7.04-.682 1.304-1.98 2.346-3.898 3.122-1.554.612-3.235.945-5.039 1.002l-.503-1.917c1.834-.25 3.126-.5 3.875-.75 1.474-.498 2.486-1.264 3.042-2.29.446-.834.665-2.429.665-4.789v-.792a15.626 15.626 0 0 1-6.54 1.415c-1.498 0-2.82-.47-3.958-1.415-1.278-1.028-1.917-2.333-1.917-3.914V11.37l3.043-1.041v12.744c0 1.361.439 2.41 1.317 3.146.879.735 2.017 1.088 3.412 1.061 1.395-.03 2.89-.569 4.477-1.624V10.787h3.042v16.534Zm11.876 1.957c-.334.028-.668.042-1.002.043-1.721 0-3.063-.41-4.021-1.232-.956-.821-1.435-1.956-1.435-3.404V12.701h-2.083v-1.914h2.083V5.705l3.04-1.082v6.165h3.418V12.7h-3.419v11.9c0 1.142.306 1.95.919 2.424.526.39 1.361.612 2.5.669v1.584Zm18.42-.25h-3.042V17.285c0-1.195-.28-2.223-.836-3.082-.642-.972-1.534-1.458-2.679-1.458-1.395 0-3.139.736-5.233 2.207v14.076h-3.042V.958L101.733 0v12.785c1.944-1.415 4.068-2.124 6.375-2.124 1.611 0 2.915.543 3.914 1.625 1.002 1.081 1.501 2.43 1.501 4.04v12.702Zm16.17-9.473c0-1.91-.362-3.488-1.085-4.736-.859-1.521-2.193-2.324-3.998-2.407-3.335.193-4.999 2.583-4.999 7.163 0 2.1.346 3.855 1.045 5.263.892 1.794 2.23 2.68 4.015 2.65 3.348-.027 5.022-2.67 5.022-7.933Zm3.332.02c0 2.72-.695 4.983-2.084 6.79-1.528 2.024-3.638 3.04-6.331 3.04-2.669 0-4.749-1.016-6.251-3.04-1.361-1.807-2.04-4.07-2.04-6.79 0-2.556.735-4.706 2.207-6.457 1.554-1.858 3.598-2.79 6.124-2.79s4.584.932 6.168 2.79c1.472 1.75 2.207 3.901 2.207 6.457Zm17.442 9.453h-3.043V16.62c0-1.36-.409-2.423-1.228-3.188-.819-.763-1.911-1.132-3.272-1.102-1.444.026-2.819.499-4.124 1.414v15.285h-3.042v-15.66c1.751-1.275 3.362-2.108 4.833-2.497 1.388-.363 2.613-.543 3.668-.543.722 0 1.401.07 2.04.21 1.195.276 2.167.789 2.916 1.541.836.832 1.252 1.83 1.252 3v13.95Z" fill="#646464"/>
  <path d="M18.754 1.071c-1.565.007-3.06.14-4.375.374-3.874.684-4.578 2.117-4.578 4.76v3.49h9.156v1.162H6.365c-2.661 0-4.992 1.6-5.72 4.643-.841 3.487-.878 5.664 0 9.305.65 2.711 2.205 4.643 4.866 4.643h3.148v-4.184c0-3.022 2.615-5.688 5.72-5.688h9.146c2.546 0 4.578-2.096 4.578-4.652v-8.72c0-2.481-2.094-4.345-4.578-4.76a28.563 28.563 0 0 0-4.77-.373Zm-4.951 2.807c.946 0 1.718.785 1.718 1.75a1.73 1.73 0 0 1-1.718 1.74 1.728 1.728 0 0 1-1.718-1.74c0-.965.769-1.75 1.718-1.75Z" fill="url(#a)"/>
  <path d="M29.245 10.856v4.066c0 3.153-2.673 5.806-5.72 5.806h-9.146c-2.505 0-4.578 2.143-4.578 4.652v8.72c0 2.48 2.158 3.94 4.578 4.652 2.898.852 5.678 1.006 9.146 0 2.305-.667 4.578-2.01 4.578-4.653v-3.49h-9.146v-1.162h13.724c2.661 0 3.652-1.857 4.578-4.643.956-2.867.915-5.626 0-9.305-.658-2.65-1.914-4.643-4.578-4.643h-3.436ZM24.1 32.936c.949 0 1.718.778 1.718 1.74 0 .965-.77 1.75-1.718 1.75-.946 0-1.718-.785-1.718-1.75 0-.962.772-1.74 1.718-1.74Z" fill="url(#b)"/>
  <path d="M156.391 8.076h.534V4.73h1.263v-.398h-3.061v.398h1.264v3.346Zm2.27 0h.456V5.02l.989 3.055h.507l1.031-3.044v3.045h.497V4.332h-.658l-1.126 3.208-.961-3.208h-.735v3.744Z" fill="#646464"/>
  <defs>
    <linearGradient id="a" x1="-.903" y1="2.161" x2="20.211" y2="20.151" gradientUnits="userSpaceOnUse">
      <stop stop-color="#5A9FD4"/>
      <stop offset="1" stop-color="#306998"/>
    </linearGradient>
    <linearGradient id="b" x1="28.134" y1="31.365" x2="20.558" y2="20.751" gradientUnits="userSpaceOnUse">
      <stop stop-color="#FFD43B"/>
      <stop offset="1" stop-color="#FFE873"/>
    </linearGradient>
  </defs>
</svg>
