<svg width="72" height="72" viewBox="0 0 72 72" fill="none" xmlns="http://www.w3.org/2000/svg">
<path d="M3.37328 19.2153C3.37328 15.1816 3.37328 11.1478 3.37328 7.11413C3.37328 3.55455 6.21309 0.419945 9.7432 0.0440877C11.1361 -0.103307 12.4528 0.130068 13.772 0.577166C15.3074 1.09796 16.8771 1.52049 18.4321 1.97742C20.987 2.72913 23.5443 3.47593 26.1016 4.22274C30.5775 5.53209 35.0534 6.83654 39.5268 8.1459C44.4424 9.58546 49.3581 11.0299 54.2737 12.4719C57.7596 13.4939 61.2381 14.5453 64.7363 15.5206C66.3036 15.9578 67.4312 16.9012 68.3155 18.1933C69.163 19.4314 69.5143 20.8268 69.5119 22.3179C69.5094 27.7814 69.5045 33.2448 69.4971 38.7058C69.4849 45.2821 69.4775 51.8583 69.4431 58.4371C69.4357 59.8496 68.8953 61.1147 68.06 62.235C66.5885 64.2076 64.7117 65.5464 62.2035 65.8437C59.828 66.1237 57.6368 65.544 55.5855 64.3673C55.1556 64.1216 54.7306 63.8612 54.3228 63.5787C53.5858 63.0677 53.237 62.3553 53.3254 61.4562C53.4483 60.1763 55.0549 59.4025 56.266 59.9896C57.057 60.3729 57.8628 60.7684 58.7078 60.9968C60.9409 61.6036 62.8791 61.046 64.4046 59.2699C64.9721 58.609 65.235 57.8131 65.235 56.9238C65.235 50.9764 65.235 45.029 65.2497 39.0817C65.2595 33.9228 65.2915 28.7615 65.3013 23.6027C65.3037 21.7136 64.3678 20.2716 62.459 19.7115C58.5211 18.552 54.6102 17.3016 50.6871 16.0929C45.1082 14.3733 39.5293 12.6586 33.9504 10.9415C29.2853 9.50439 24.6252 8.05992 19.9601 6.62282C18.0735 6.04061 16.1868 5.46331 14.3002 4.8811C13.7916 4.72388 13.2979 4.51016 12.7795 4.3947C10.2935 3.84688 8.13659 5.76301 8.35769 8.29575C8.37488 8.48736 8.37488 8.68389 8.37488 8.8755C8.37488 16.2772 8.36751 23.6789 8.38962 31.0781C8.38962 31.7045 8.16853 32.1467 7.75091 32.5422C6.50788 33.7214 4.64087 33.6059 3.587 32.2646C3.44698 32.0853 3.37819 31.8028 3.37819 31.567C3.36591 27.4497 3.36836 23.33 3.36836 19.2128L3.37328 19.2153Z" fill="#92C9EC"/>
<path d="M40.4358 47.4563C40.4358 40.3101 40.4358 33.1663 40.4383 26.0201C40.4383 25.6246 40.426 25.2119 40.5242 24.8336C40.8387 23.625 41.8901 22.8462 43.1921 22.8266C44.3909 22.8094 45.5897 22.8069 46.7885 22.8266C48.3976 22.8536 49.5325 24.0303 49.5325 25.6443C49.5325 40.1529 49.5325 54.6614 49.5325 69.1676C49.5325 70.8356 48.3706 71.9926 46.6927 71.9951C45.543 71.9951 44.3909 71.9976 43.2412 71.9951C41.583 71.9902 40.4333 70.838 40.4333 69.1798C40.4333 61.9378 40.4333 54.6958 40.4333 47.4538L40.4358 47.4563Z" fill="#92C9EC"/>
<path d="M27.3789 48.751C27.3789 43.5184 27.4207 38.2835 27.3568 33.0509C27.3322 31.179 28.644 29.7739 30.516 29.9213C31.3954 29.99 32.2847 29.9311 33.1666 29.9335C34.6921 29.9385 35.8615 31.0587 35.9352 32.5842C35.9401 32.68 35.9376 32.7783 35.9376 32.8741C35.9376 43.4865 35.9376 54.0965 35.9376 64.7089C35.9376 65.9372 35.4512 66.8756 34.3163 67.3964C33.9871 67.5487 33.5965 67.6249 33.2305 67.6347C32.1889 67.6667 31.1473 67.6495 30.1057 67.6446C28.5802 67.6372 27.3863 66.4531 27.3789 64.9202C27.3691 63.1269 27.3764 61.3336 27.3764 59.5427C27.3764 55.9438 27.3764 52.3474 27.3764 48.7485L27.3789 48.751Z" fill="#92C9EC"/>
<path d="M23.2347 48.5935C23.2347 52.6395 23.2347 56.6855 23.2347 60.7315C23.2347 61.9156 22.6942 62.7779 21.6305 63.279C21.3136 63.4288 20.9328 63.4952 20.5791 63.505C19.5498 63.5345 18.5205 63.5197 17.4912 63.5148C16.0393 63.5075 14.8798 62.3995 14.8012 60.9502C14.7938 60.8175 14.7963 60.6848 14.7963 60.5497C14.7963 52.5683 14.7963 44.5844 14.7963 36.603C14.7963 34.6942 15.9165 33.5691 17.8179 33.5691C18.6777 33.5691 19.5375 33.5642 20.3973 33.5691C22.0555 33.5814 23.2297 34.7605 23.2322 36.4212C23.2371 40.4794 23.2322 44.5377 23.2322 48.5935H23.2347Z" fill="#92C9EC"/>
<path d="M10.4285 48.5446C10.4285 51.124 10.4285 53.7034 10.4285 56.2828C10.4285 58.0344 9.27149 59.1914 7.51257 59.2013C6.6282 59.2062 5.74383 59.2062 4.86192 59.2013C3.16688 59.1939 2 58.0319 2 56.3467C2 51.1412 2 45.9332 2 40.7277C2 39.1039 3.16196 37.942 4.79559 37.9322C5.73892 37.9272 6.6847 37.9272 7.62803 37.9322C9.24938 37.942 10.4236 39.1187 10.4261 40.7351C10.4285 43.3391 10.4261 45.9406 10.4261 48.5446H10.4285Z" fill="#92C9EC"/>
</svg>
