<svg width="237" height="40" fill="none" xmlns="http://www.w3.org/2000/svg">
  <path d="M57.79.23c-6.47 0-12.43 3.64-18.19 10-5.66-6.46-11.72-10-18.49-10C9.9.23 1.72 8.23 1.72 19S9.9 37.67 21.11 37.67c6.89 0 12.23-3.23 18.19-9.67 5.76 6.46 11.62 9.69 18.49 9.69C69 37.67 77.18 29.8 77.18 19S69 .23 57.79.23Zm-36.6 26.14c-4.75 0-7.58-3.13-7.58-7.27s2.83-7.36 7.58-7.36c4 0 7.27 3.22 10.81 7.56-3.34 4.04-6.87 7.07-10.81 7.07Zm36.26 0c-3.94 0-7.27-3.13-10.81-7.27 3.64-4.34 6.77-7.36 10.81-7.36C62.2 11.74 65 15 65 19.1c0 4.1-2.8 7.27-7.55 7.27Z" fill="#484848"/>
  <path d="m47.74 35 7.54-9c-3-.9-5.77-3.6-8.64-6.95L39.3 28a32.983 32.983 0 0 0 8.44 7Z" fill="#20A7C9"/>
  <path d="M100.72 25.39A3 3 0 0 0 99.66 23a10.778 10.778 0 0 0-3.73-1.72 20.995 20.995 0 0 1-7-3.18 6.004 6.004 0 0 1-2.38-5 6.238 6.238 0 0 1 2.73-5.22 11.274 11.274 0 0 1 7-2 10.462 10.462 0 0 1 7 2.28 6.834 6.834 0 0 1 2.6 5.62v.1h-5.06a3.792 3.792 0 0 0-1.21-2.92 4.8 4.8 0 0 0-3.38-1.11 5.08 5.08 0 0 0-3.24.92 3.001 3.001 0 0 0-1.14 2.38c.017.84.448 1.62 1.15 2.08A16.818 16.818 0 0 0 97.2 17a16.37 16.37 0 0 1 6.52 3.16 6.571 6.571 0 0 1 2.22 5.17 6.187 6.187 0 0 1-2.64 5.27 11.464 11.464 0 0 1-7 1.93 12.68 12.68 0 0 1-7.41-2.19 6.847 6.847 0 0 1-3.08-6.14v-.11H91a4.004 4.004 0 0 0 1.42 3.41 6.433 6.433 0 0 0 4 1.08 5.165 5.165 0 0 0 3.25-.88 2.784 2.784 0 0 0 1.05-2.31ZM121 29.4a6.542 6.542 0 0 1-2.27 2.34 6.715 6.715 0 0 1-8-1.14c-1.147-1.333-1.72-3.36-1.72-6.08V12.85h5.2v11.73a5.091 5.091 0 0 0 .71 3c.514.628 1.3.971 2.11.92a5.352 5.352 0 0 0 2.15-.4 3.628 3.628 0 0 0 1.46-1.2V12.85h5.22v19.33h-4.45L121 29.4ZM146.87 23.05a11.058 11.058 0 0 1-2 6.9 6.566 6.566 0 0 1-5.54 2.61 6.299 6.299 0 0 1-2.7-.56 5.63 5.63 0 0 1-2-1.66v9.28h-5.2V12.85h4.7l.31 2.28a6.257 6.257 0 0 1 2.06-1.95 5.62 5.62 0 0 1 2.82-.69 6.436 6.436 0 0 1 5.57 2.81 12.469 12.469 0 0 1 2 7.38l-.02.37Zm-5.22-.4a9.492 9.492 0 0 0-.91-4.44 3.004 3.004 0 0 0-2.79-1.7 3.942 3.942 0 0 0-2 .48 3.58 3.58 0 0 0-1.32 1.38v8.49c.312.534.77.968 1.32 1.25a4.338 4.338 0 0 0 2 .43 3.003 3.003 0 0 0 2.78-1.49 7.832 7.832 0 0 0 .89-4l.03-.4ZM158.21 32.56a8.717 8.717 0 0 1-6.69-2.68 9.596 9.596 0 0 1-2.5-6.81v-.71a10.576 10.576 0 0 1 2.37-7.1c3.306-3.503 8.9-3.688 12.43-.41a9.082 9.082 0 0 1 2.18 6.38v2.84h-11.57v.11a5.001 5.001 0 0 0 1.28 3.13 4.001 4.001 0 0 0 3.08 1.23c.972.022 1.942-.096 2.88-.35a13.26 13.26 0 0 0 2.5-1.1l1.41 3.23a9.608 9.608 0 0 1-3.09 1.6 13.281 13.281 0 0 1-4.28.64Zm-.47-16a2.733 2.733 0 0 0-2.29 1.11 5.756 5.756 0 0 0-1 2.91l.05.09h6.4v-.46a4.194 4.194 0 0 0-.78-2.66 2.804 2.804 0 0 0-2.38-1.04v.05ZM179.3 17.33h-1.92a3.488 3.488 0 0 0-1.91.48 3.06 3.06 0 0 0-1.14 1.36v13.01h-5.2V12.85H174l.23 2.86a6.085 6.085 0 0 1 1.77-2.37 3.923 3.923 0 0 1 2.5-.85c.241-.002.482.018.72.06l.67.15-.59 4.63ZM192.32 26.86a1.821 1.821 0 0 0-.83-1.49 8.554 8.554 0 0 0-3.08-1.1 12.463 12.463 0 0 1-5.17-2.07 4.463 4.463 0 0 1-1.75-3.72 5.335 5.335 0 0 1 2.1-4.25 8.542 8.542 0 0 1 5.62-1.74 9.263 9.263 0 0 1 5.89 1.73 5.136 5.136 0 0 1 2.1 4.38v.11h-5a2.57 2.57 0 0 0-.74-1.9 3.001 3.001 0 0 0-2.18-.73c-.719-.04-1.43.18-2 .62a1.94 1.94 0 0 0-.72 1.54 1.751 1.751 0 0 0 .76 1.47 8.292 8.292 0 0 0 3.08 1c1.908.281 3.726 1 5.31 2.1a4.614 4.614 0 0 1 1.73 3.81 5.105 5.105 0 0 1-2.23 4.27 9.713 9.713 0 0 1-5.9 1.65 8.937 8.937 0 0 1-6.1-2 5.463 5.463 0 0 1-2.21-4.4v-.1h4.77a2.69 2.69 0 0 0 1 2.25 4.226 4.226 0 0 0 2.52.7 3.612 3.612 0 0 0 2.2-.58c.522-.34.836-.926.83-1.55ZM208.86 32.56a8.694 8.694 0 0 1-6.68-2.68 9.596 9.596 0 0 1-2.5-6.81v-.71a10.622 10.622 0 0 1 2.36-7.1c3.306-3.503 8.9-3.688 12.43-.41a9.002 9.002 0 0 1 2.17 6.38v2.84h-11.55v.11a5 5 0 0 0 1.27 3.13 4 4 0 0 0 3.09 1.23c.969.022 1.935-.096 2.87-.35a13.067 13.067 0 0 0 2.51-1.1l1.41 3.23a9.71 9.71 0 0 1-3.09 1.6 13.341 13.341 0 0 1-4.29.64Zm-.46-16a2.711 2.711 0 0 0-2.29 1.11 5.768 5.768 0 0 0-1 2.91l.06.09h6.4v-.46a4.194 4.194 0 0 0-.78-2.66 2.803 2.803 0 0 0-2.39-1.04v.05ZM226.35 8.11v4.74h3.26v3.66h-3.26v9.85a2.28 2.28 0 0 0 .47 1.61c.33.33.784.504 1.25.48a4.56 4.56 0 0 0 .7-.05c.233-.037.463-.087.69-.15l.45 3.77c-.502.175-1.017.312-1.54.41a10.22 10.22 0 0 1-1.62.13 5.561 5.561 0 0 1-4.16-1.48 6.52 6.52 0 0 1-1.46-4.7v-9.87h-2.82v-3.66h2.82V8.11h5.22Z" fill="#484848"/>
  <path d="M39.6 10.22a33.935 33.935 0 0 0-8.39-7.16l-7.55 9.1c2.87 1 5.41 3.58 8.11 6.87l.3.21 7.53-9.02Z" fill="#20A7C9"/>
  <path d="M114.22 6.43h-2.78L110.9 8h-1.6L112 .7h1.63l2.72 7.3h-1.61l-.52-1.57Zm-2.39-1.15h2l-1-2.87-1 2.87ZM122.29 5.44a2.88 2.88 0 0 1-.61 1.93 2.253 2.253 0 0 1-2.5.58 1.677 1.677 0 0 1-.62-.47v2.6H117v-7.5h1.43l.09.64c.162-.232.379-.42.63-.55.266-.134.562-.199.86-.19a2 2 0 0 1 1.69.78c.43.602.645 1.331.61 2.07l-.02.11Zm-1.59-.11a2.416 2.416 0 0 0-.28-1.25.911.911 0 0 0-.85-.48 1.28 1.28 0 0 0-.61.14 1 1 0 0 0-.4.39v2.38a.995.995 0 0 0 .4.35c.195.085.407.126.62.12a.932.932 0 0 0 .85-.42 2.05 2.05 0 0 0 .27-1.13v-.1ZM126.72 8a4.553 4.553 0 0 1-.15-.39 2.076 2.076 0 0 1-.08-.42 2.122 2.122 0 0 1-.65.65 1.661 1.661 0 0 1-1 .27 2.113 2.113 0 0 1-1.43-.44 1.502 1.502 0 0 1-.5-1.2 1.391 1.391 0 0 1 .66-1.23 3.52 3.52 0 0 1 1.95-.44h.89v-.43a.843.843 0 0 0-.22-.61.94.94 0 0 0-.66-.22.899.899 0 0 0-.6.18.57.57 0 0 0-.21.48h-1.53a1.322 1.322 0 0 1 .65-1.18 3 3 0 0 1 1.8-.5 2.771 2.771 0 0 1 1.71.49c.44.33.688.86.66 1.41v2.24c-.003.239.021.477.07.71.039.23.102.454.19.67L126.72 8Zm-1.45-1c.263.006.522-.06.75-.19a.996.996 0 0 0 .44-.44V5.6h-.89a1.11 1.11 0 0 0-.77.24.732.732 0 0 0-.26.56.561.561 0 0 0 .2.44c.152.115.34.17.53.16ZM131.73 7c.247.01.49-.072.68-.23a.759.759 0 0 0 .25-.6h1.45a1.631 1.631 0 0 1-.67 1.37 2.672 2.672 0 0 1-1.72.56 2.63 2.63 0 0 1-2-.77 2.76 2.76 0 0 1-.72-2v-.15a2.798 2.798 0 0 1 .71-2 3.01 3.01 0 0 1 3.79-.2c.439.37.677.927.64 1.5h-1.45a.998.998 0 0 0-.25-.7.88.88 0 0 0-.69-.28.932.932 0 0 0-.89.46 2.313 2.313 0 0 0-.26 1.16v.15c-.017.403.073.803.26 1.16a1 1 0 0 0 .87.57ZM136.58 3.26a2.002 2.002 0 0 1 3-.22c.393.49.583 1.114.53 1.74V8h-1.59V4.77a1.307 1.307 0 0 0-.24-.9.909.909 0 0 0-.72-.27 1.496 1.496 0 0 0-.58.11c-.16.068-.301.175-.41.31v4H135V.18h1.59l-.01 3.08ZM143.92 8.11a2.792 2.792 0 0 1-2-.76 2.55 2.55 0 0 1-.76-1.91v-.2a2.83 2.83 0 0 1 .72-2 2.453 2.453 0 0 1 1.93-.77 2.49 2.49 0 0 1 1.85.66 2.42 2.42 0 0 1 .66 1.79v.79h-3.51a1.3 1.3 0 0 0 .38.88c.253.24.592.366.94.35.296.004.592-.03.88-.1.262-.08.517-.184.76-.31l.43.91a2.998 2.998 0 0 1-.94.45 4.394 4.394 0 0 1-1.34.22Zm-.14-4.51a.852.852 0 0 0-.69.32 1.521 1.521 0 0 0-.32.81h2V4.6a1.128 1.128 0 0 0-.24-.75.918.918 0 0 0-.75-.25ZM232.77 8.62h-.85v2.66h-.55V8.62h-.85v-.48h2.25v.48Zm3.16.65-.88 2h-.3l-.91-2.1v2.09h-.54V8.14h.68l.94 2.28 1-2.28h.65v3.14h-.55l-.09-2.01Z" fill="#484848"/>
</svg>
