<svg width="144" height="40" fill="none" xmlns="http://www.w3.org/2000/svg">
  <g clip-path="url(#a)">
    <path d="M71.233 16.533h-1.63L69 14.964h-3.74l-.6 1.57H63.04l3.2-8.153h1.783l3.2 8.152h.01Zm-2.63-2.822-1.467-3.893-1.467 3.893h2.935ZM76.501 16.533h-4.687v-.968l2.924-3.81h-2.924v-1.122h4.636v.938l-2.945 3.852h2.996v1.11ZM83.176 16.533h-1.284v-.784c-.55.621-1.254.927-2.09.927-1.263 0-1.895-.621-1.895-1.875v-4.168h1.285v3.72c0 .428.101.744.305.927.204.183.5.275.877.275.305 0 .6-.071.866-.224a1.92 1.92 0 0 0 .652-.55v-4.148h1.284v5.91-.01ZM86.13 16.533h-1.283v-5.9h1.284v.866a2.7 2.7 0 0 1 .856-.723 2.235 2.235 0 0 1 1.06-.285v1.273a2.192 2.192 0 0 0-.408-.04c-.265 0-.56.081-.866.234-.306.163-.52.336-.652.54v4.025l.01.01ZM91.817 16.686c-.897 0-1.64-.285-2.221-.866-.581-.57-.877-1.325-.877-2.242 0-.866.286-1.6.846-2.19.57-.602 1.284-.897 2.15-.897.866 0 1.58.305 2.11.906.53.602.805 1.376.805 2.314v.305h-4.566c.051.469.245.856.571 1.162.326.306.774.469 1.304.469a2.6 2.6 0 0 0 .907-.174 2.08 2.08 0 0 0 .765-.479l.59.846c-.59.571-1.395.856-2.394.856l.01-.01Zm1.56-3.587a1.708 1.708 0 0 0-.45-1.09c-.285-.316-.682-.48-1.212-.48-.53 0-.897.154-1.182.47a1.8 1.8 0 0 0-.479 1.09h3.322v.01ZM106.409 16.533h-1.63l-.601-1.569h-3.74l-.601 1.57h-1.63l3.219-8.153h1.784l3.199 8.152Zm-2.629-2.822-1.467-3.893-1.467 3.893h2.934ZM112.534 16.533h-1.284v-3.689c0-.815-.398-1.223-1.182-1.223-.306 0-.602.082-.866.235-.265.153-.49.346-.653.56v4.117h-1.284v-5.9h1.284v.805c.225-.265.51-.489.877-.673a2.647 2.647 0 0 1 1.202-.285c.632 0 1.101.163 1.427.49.326.325.479.794.479 1.406v4.157ZM119.096 16.533h-1.284v-.632c-.458.52-1.09.785-1.905.785-.54 0-1.019-.173-1.427-.52-.418-.346-.622-.825-.622-1.437 0-.61.204-1.1.622-1.426.408-.326.887-.49 1.437-.49.835 0 1.477.255 1.905.755v-.877c0-.346-.122-.61-.377-.805-.254-.193-.591-.295-.998-.295-.663 0-1.243.245-1.753.744l-.53-.897c.673-.632 1.498-.958 2.487-.958.723 0 1.314.173 1.773.51.458.346.682.886.682 1.63v3.913h-.01Zm-2.69-.734c.642 0 1.111-.203 1.406-.61v-.898c-.295-.407-.764-.611-1.406-.611-.367 0-.673.102-.907.296a.954.954 0 0 0-.357.774c0 .326.123.57.357.764.234.194.54.286.907.286ZM122.041 16.533h-1.284V8.381h1.284v8.152ZM123.447 18.847l.194-1.152c.143.061.306.102.489.102.418 0 .693-.173.846-.51l.295-.672-2.425-5.982h1.366l1.722 4.423 1.722-4.423h1.386l-2.853 6.97c-.347.877-1.03 1.315-2.028 1.335-.265 0-.51-.03-.724-.081l.01-.01ZM131.875 16.686c-1.06 0-1.906-.306-2.527-.917l.591-.927c.224.224.519.428.896.59.377.164.744.245 1.111.245s.662-.071.866-.224a.659.659 0 0 0 .296-.57c0-.214-.123-.378-.367-.5a3.574 3.574 0 0 0-.897-.285 13.026 13.026 0 0 1-1.049-.255 2.02 2.02 0 0 1-.897-.54c-.245-.265-.367-.601-.367-1.019 0-.51.204-.927.622-1.274.417-.346.978-.52 1.701-.52.907 0 1.671.276 2.303.836l-.54.907a1.891 1.891 0 0 0-.744-.51 2.49 2.49 0 0 0-.998-.193c-.337 0-.602.071-.805.204-.204.132-.296.305-.296.52 0 .162.092.295.265.397.173.102.397.173.662.224.265.05.551.112.867.204.305.081.601.183.866.295.265.112.489.296.662.56.173.256.265.571.265.938 0 .54-.214.979-.652 1.325-.428.346-1.039.51-1.814.51l-.02-.02ZM136.256 9.91a.794.794 0 0 1-.56-.235.74.74 0 0 1-.234-.56c0-.214.081-.408.234-.56a.794.794 0 0 1 .56-.235.78.78 0 0 1 .561.234.777.777 0 0 1 .234.56.777.777 0 0 1-.234.561.78.78 0 0 1-.561.235Zm.653 6.623h-1.284v-5.9h1.284v5.91-.01ZM140.587 16.686c-1.059 0-1.905-.306-2.527-.917l.591-.927c.224.224.52.428.897.59.377.164.744.245 1.111.245.366 0 .662-.071.866-.224a.658.658 0 0 0 .295-.57c0-.214-.122-.378-.367-.5a3.566 3.566 0 0 0-.896-.285 13.049 13.049 0 0 1-1.05-.255 2.031 2.031 0 0 1-.897-.54c-.244-.265-.366-.601-.366-1.019 0-.51.203-.927.621-1.274.418-.346.978-.52 1.702-.52.907 0 1.671.276 2.303.836l-.54.907a1.899 1.899 0 0 0-.744-.51 2.495 2.495 0 0 0-.999-.193c-.336 0-.601.071-.805.204a.587.587 0 0 0-.295.52c0 .162.091.295.265.397.173.102.397.173.662.224.265.05.55.112.866.204.306.081.601.183.866.295.265.112.49.296.663.56.173.256.265.571.265.938 0 .54-.214.979-.652 1.325-.428.346-1.04.51-1.814.51l-.021-.02ZM66.688 31.36c-1.406 0-2.507-.428-3.312-1.294l.795-1.1c.703.753 1.56 1.12 2.578 1.12.55 0 .958-.112 1.233-.326.275-.214.408-.479.408-.785 0-.305-.163-.56-.49-.743-.325-.184-.723-.326-1.181-.438a17.705 17.705 0 0 1-1.396-.378 2.695 2.695 0 0 1-1.193-.744c-.326-.346-.489-.805-.489-1.355 0-.683.275-1.253.826-1.701.55-.449 1.263-.683 2.15-.683 1.253 0 2.272.377 3.057 1.141l-.815 1.06c-.622-.622-1.407-.928-2.364-.928-.428 0-.765.092-1.01.276a.886.886 0 0 0-.376.744c0 .203.091.377.265.509.173.143.397.255.682.336.275.082.581.173.928.255.346.082.672.183 1.019.296.346.112.642.265.927.438.285.173.5.407.683.713.173.306.265.662.265 1.08 0 .734-.265 1.335-.795 1.814-.53.479-1.315.713-2.364.713l-.03-.02ZM73.852 31.36c-.897 0-1.64-.285-2.222-.866-.58-.57-.876-1.325-.876-2.242 0-.866.285-1.6.846-2.191.57-.601 1.284-.897 2.15-.897.866 0 1.58.306 2.11.907.53.601.804 1.376.804 2.313v.306H72.1c.051.469.245.856.57 1.162.327.305.775.468 1.305.468a2.6 2.6 0 0 0 .907-.173 2.08 2.08 0 0 0 .764-.479l.591.846c-.59.57-1.396.856-2.394.856l.01-.01Zm1.559-3.587a1.708 1.708 0 0 0-.448-1.09c-.286-.316-.683-.48-1.213-.48s-.897.154-1.182.47a1.8 1.8 0 0 0-.48 1.09h3.323v.01ZM79.222 31.207h-1.284v-5.91h1.284v.866a2.7 2.7 0 0 1 .856-.724 2.235 2.235 0 0 1 1.06-.285v1.274a2.202 2.202 0 0 0-.408-.04c-.265 0-.56.08-.866.234-.306.163-.52.336-.652.54v4.025l.01.02ZM85.112 31.207h-1.386l-2.405-5.91h1.366l1.722 4.422 1.722-4.422h1.386l-2.405 5.91ZM88.964 24.584a.796.796 0 0 1-.56-.235.74.74 0 0 1-.235-.56c0-.214.082-.408.234-.56a.796.796 0 0 1 .56-.235c.215 0 .408.081.561.234a.778.778 0 0 1 .235.56.778.778 0 0 1-.235.561.779.779 0 0 1-.56.235Zm.652 6.623h-1.284v-5.91h1.284v5.91ZM93.967 31.36c-.897 0-1.63-.296-2.2-.876-.572-.581-.857-1.325-.857-2.232 0-.907.285-1.64.856-2.221.57-.581 1.304-.877 2.201-.877.989 0 1.743.347 2.262 1.05l-.845.784c-.326-.468-.775-.692-1.356-.692-.54 0-.968.183-1.294.54-.326.366-.489.835-.489 1.416 0 .58.163 1.05.49 1.416.325.367.753.55 1.293.55.54 0 1.02-.234 1.356-.692l.845.784c-.52.704-1.273 1.05-2.262 1.05ZM100.081 31.36c-.896 0-1.64-.285-2.221-.866-.581-.57-.876-1.325-.876-2.242 0-.866.285-1.6.845-2.191.57-.601 1.284-.897 2.15-.897.867 0 1.58.306 2.11.907.53.601.805 1.376.805 2.313v.306h-4.565c.05.469.244.856.57 1.162.326.305.775.468 1.305.468.305 0 .601-.06.907-.173.305-.112.56-.275.764-.479l.591.846c-.591.57-1.396.856-2.395.856l.01-.01Zm1.559-3.587a1.707 1.707 0 0 0-.448-1.09c-.285-.316-.683-.48-1.213-.48s-.896.154-1.182.47a1.8 1.8 0 0 0-.479 1.09h3.322v.01ZM106.175 31.36c-1.06 0-1.906-.306-2.527-.917l.591-.928c.224.225.52.428.897.591.377.164.744.245 1.11.245.367 0 .663-.071.867-.224a.66.66 0 0 0 .295-.57c0-.215-.122-.378-.367-.5a3.565 3.565 0 0 0-.897-.285 13.068 13.068 0 0 1-1.049-.255 2.025 2.025 0 0 1-.897-.54c-.244-.265-.367-.601-.367-1.02 0-.509.204-.927.622-1.273.418-.347.978-.52 1.702-.52.907 0 1.671.275 2.303.836l-.54.907a1.906 1.906 0 0 0-.744-.51 2.495 2.495 0 0 0-.999-.193c-.336 0-.601.071-.805.203-.204.133-.296.306-.296.52 0 .163.092.296.265.398.174.102.398.173.663.224.265.05.55.112.866.204.306.081.601.183.866.295.265.112.489.296.662.56.174.255.265.571.265.938 0 .54-.214.978-.652 1.325-.428.346-1.039.51-1.814.51l-.02-.021Z" fill="#000"/>
    <path d="M.865 0h19.619c.48 0 .865.385.865.865v14.652c0 .48-.386.866-.866.866H.866A.863.863 0 0 1 0 15.517V.865A.877.877 0 0 1 .865 0Z" fill="url(#b)"/>
    <path d="M31.958 9.438h19.618c.48 0 .865.386.865.866v14.652c0 .48-.385.865-.865.865H31.958a.863.863 0 0 1-.865-.866V10.305c0-.48.385-.866.865-.866Z" fill="url(#c)"/>
    <path d="M5.374 23.625h18.753c.712 0 1.294.581 1.294 1.294v13.787c0 .712-.582 1.294-1.294 1.294H5.373a1.297 1.297 0 0 1-1.295-1.294V24.919c0-.713.575-1.294 1.295-1.294Z" fill="url(#d)"/>
    <path d="m39.018 19.742.713-1.97-26.403-9.723-.705 1.942 26.395 9.75Zm1.636-.277-.989-1.854-24.89 13.11.953 1.855 24.926-13.11ZM13.881 33.463l2.065-.37-4.195-23.778-2.066.37 4.196 23.778Z" fill="#5C4998"/>
    <path d="M41.745 20.949a3.33 3.33 0 1 0 0-6.66 3.33 3.33 0 0 0 0 6.66ZM13.977 8.714a3.33 3.33 0 1 0-6.575-1.067 3.33 3.33 0 0 0 6.575 1.067ZM14.783 35.12a3.33 3.33 0 1 0 0-6.66 3.33 3.33 0 0 0 0 6.66Z" fill="#fff"/>
  </g>
  <defs>
    <linearGradient id="b" x1="10.675" y1=".166" x2="10.675" y2="16.471" gradientUnits="userSpaceOnUse">
      <stop stop-color="#58C3E6"/>
      <stop offset="1" stop-color="#1C8BB4"/>
    </linearGradient>
    <linearGradient id="c" x1="41.767" y1="9.581" x2="41.767" y2="25.916" gradientUnits="userSpaceOnUse">
      <stop stop-color="#58C3E6"/>
      <stop offset="1" stop-color="#1C8BB4"/>
    </linearGradient>
    <linearGradient id="d" x1="14.75" y1="23.732" x2="14.75" y2="40.037" gradientUnits="userSpaceOnUse">
      <stop stop-color="#58C3E6"/>
      <stop offset="1" stop-color="#1C8BB4"/>
    </linearGradient>
    <clipPath id="a">
      <path fill="#fff" d="M0 0h144v40H0z"/>
    </clipPath>
  </defs>
</svg>
