<svg xmlns="http://www.w3.org/2000/svg" width="45" height="82" fill="none" viewBox="0 0 45 82"><path fill="#103654" fill-rule="evenodd" d="M18.1033 10.0039c1.9203-.42616 3.9298-.57649 5.991-.33501 2.0999.24504 4.066.86061 5.869 1.74481l6.4946-5.04748C33.1267 4.09105 29.2344 2.55217 24.97 2.05381c-4.2022-.49244-8.2812.0805-11.9927 1.48679L10.1696 0 6.77026 13.9517l14.46704.0047-3.134-3.9525zm9.8612 61.4266c-2.492.9671-5.2387 1.3719-8.071 1.0405-2.6235-.3066-5.0286-1.2169-7.125-2.5534L6.862 74.4514c3.411 2.7345 7.5757 4.5941 12.2133 5.1363 4.8009.5623 9.4256-.3693 13.4611-2.3924l3.0249 3.8141 3.1763-13.0379-13.5198-.0047 2.7467 3.4637z" clip-rule="evenodd"/><path fill="#92C9EC" fill-rule="evenodd" d="M1.19213 34.0127L22.3831 48.5722 43.5751 34.02l-21.192-14.5596L1.19213 34.0127zM22.3832 52.151L3.01446 38.8759 0 40.946l22.3832 15.3475L45 40.7167l-3.0145-2.0723L22.3832 52.151zm0 7.5791L3.01446 46.4549 0 48.5251l22.3832 15.3475L45 48.2958l-3.0145-2.0723-19.6023 13.5066z" clip-rule="evenodd"/></svg>
