<svg width="125" height="40" fill="none" xmlns="http://www.w3.org/2000/svg">
  <g clip-path="url(#a)">
    <path d="M66.95 17.36c-.028-.467-.068-.855-.068-1.238-.016-1.772 0-3.543-.032-5.315-.02-.996-.446-1.498-1.174-1.538-.688-.04-1.277.479-1.416 1.372-.098.645-.075 1.31-.079 1.962-.007 1.565 0 3.127 0 4.768H61.96v-9.94h1.926c.087.364.162.7.3 1.289.724-.902 1.404-1.586 2.491-1.566 1.123.02 1.8.68 2.412 1.637.285-.308.51-.573.752-.815.77-.763 1.696-.996 2.72-.668.973.313 1.57 1.024 1.585 2.04.04 2.59.012 5.18.005 7.77 0 .06-.056.115-.123.261H71.97c-.024-.384-.063-.731-.063-1.075-.008-1.803 0-3.61-.016-5.413-.012-1.013-.392-1.55-1.08-1.61-.727-.063-1.395.459-1.506 1.384-.123 1.036-.103 2.092-.119 3.14-.016 1.17 0 2.34 0 3.566h-2.222l-.016-.012ZM56.894 11.049c.32-.993.083-1.815-.6-2.14-.914-.43-1.705-.035-2.555 1.33-.53-.084-1.1-.17-1.708-.266-.123-.988.391-1.605 1.044-2.107 1.34-1.036 3.685-1.115 5.12-.214.656.411 1.04 1.012 1.076 1.776a80.78 80.78 0 0 1 .09 3.53c.008 1.056-.007 2.112.866 3.017-.573.526-1.09.997-1.854 1.693l-.76-1.301c-1.146.45-1.98.965-2.874 1.095-1.771.261-2.862-.542-3.135-2.06-.313-1.716.553-3.27 2.143-3.705 1.004-.277 2.044-.427 3.143-.652l.004.004Zm.064 1.502c-1.922-.403-3.255.799-2.915 2.179.107.439.51 1.004.898 1.119.395.118 1.075-.103 1.384-.42.787-.802.85-1.838.633-2.878ZM84.83 15.991l-1.653 1.515c-.471-.435-.882-.819-1.365-1.266-.826.906-1.81 1.333-3 1.277-1.657-.07-2.678-1.09-2.697-2.748-.016-1.427.901-2.716 2.289-3.08 1.008-.265 2.044-.423 3.064-.628.356-.989.158-1.796-.526-2.136-.917-.458-1.783-.043-2.577 1.321a640.62 640.62 0 0 1-1.756-.269c-.075-1.052.415-1.736 1.17-2.186 1.424-.85 2.938-1.068 4.52-.392 1.004.431 1.566 1.17 1.613 2.258.04.98.047 1.965.047 2.946 0 1.182-.067 2.376.87 3.388Zm-3.346-3.527c-.977-.122-1.791.048-2.44.68-.577.566-.573 1.301-.343 2.009.162.498.55.795 1.115.79.798-.003 1.26-.466 1.542-1.146.304-.735.419-1.487.122-2.337l.004.004ZM111.883 17.36h-2.246c-.02-.38-.056-.728-.056-1.076-.008-1.704.008-3.408-.012-5.113-.015-1.174-.438-1.838-1.154-1.917-.751-.083-1.447.541-1.542 1.704-.139 1.66-.091 3.337-.131 5.006-.012.446-.039.897-.067 1.411h-2.099V7.462h1.921l.285 1.369c.281-.348.463-.562.633-.787.66-.87 1.569-1.048 2.558-.819.953.218 1.609.866 1.68 1.835.139 1.925.166 3.855.222 5.785.023.806.004 1.617.004 2.506l.004.008ZM102.824 12.322c.103 1.364-.332 2.625-1.139 3.736-1.752 2.404-5.294 2.049-6.508-.668-.823-1.85-.858-3.748-.158-5.646.609-1.653 1.93-2.594 3.57-2.59 1.768.004 3.14.96 3.705 2.689.261.798.467 1.633.53 2.479Zm-5.9-.166c-.007.858.186 1.7.36 2.526.143.669.49 1.23 1.297 1.266.688.031 1.206-.36 1.428-1.242.391-1.578.359-3.179-.024-4.76-.166-.692-.656-1.056-1.348-1.084-.724-.028-1.195.392-1.353 1.06-.174.727-.352 1.47-.356 2.234h-.004ZM56.325 34.686c-.32 0-.55-.02-.78 0-2.625.26-4.135-1.63-4.305-3.508-.17-1.878-.21-3.8 0-5.666.288-2.645 2.51-4.06 5.041-3.444 1.499.364 2.38 1.396 2.725 2.816.522 2.155.494 4.361.063 6.524-.186.921-.767 1.767-1.266 2.855.443.355 1.048.838 1.808 1.443l-1.076.901-2.206-1.925-.004.004Zm1.755-6.275c-.134-1.159-.17-2.31-.427-3.413-.288-1.237-1.142-1.803-2.348-1.826-1.321-.024-2.179.466-2.539 1.716-.652 2.273-.64 4.594-.008 6.868.34 1.218 1.281 1.78 2.53 1.755 1.203-.023 2.06-.589 2.365-1.822.261-1.068.297-2.187.427-3.282v.004ZM93.247 17.09c-3.768-1.079-3.36-.96-6.911-.059-.162-.984-.222-1.906.411-2.791.953-1.333 1.854-2.7 2.772-4.057.178-.261.324-.546.636-1.072h-3.523V7.4h6.323c.312.732.217 1.424-.253 2.096a331.249 331.249 0 0 0-2.578 3.713c-.194.28-.336.597-.514.913 1.293.336 2.467.645 3.637.95v2.02ZM109.166 34.002c-.719.245-1.368.6-2.044.668-1.261.13-2.23-.51-2.649-1.744a9.168 9.168 0 0 1 0-5.978c.609-1.784 2.696-2.29 4.203-1.123.126.099.253.201.443.36.158-.27.292-.503.446-.763h.878c.06.122.115.177.115.233 0 3.21.099 6.425-.051 9.624-.115 2.364-1.954 3.48-4.255 2.791-.554-.166-1.056-.482-1.649-.759.154-.324.261-.545.407-.85 1.056.474 2.076 1.083 3.247.474.834-.434 1.214-1.652.901-2.93l.008-.003Zm.135-3.986c0-.59.011-1.178 0-1.767-.024-1.017-.617-1.74-1.515-1.875-1.04-.154-1.945.352-2.218 1.349-.403 1.479-.376 2.985-.016 4.468.241.98 1.151 1.478 2.218 1.336.922-.122 1.507-.818 1.531-1.846.011-.558 0-1.111 0-1.669v.004ZM90.618 31.155h1.123c.083.142.19.249.201.367.127 1.447 1.424 2.321 3.267 1.954 1.371-.273 1.969-2.21 1.004-3.337-.368-.428-.921-.72-1.435-.993-.637-.336-1.337-.55-1.974-.886-1.589-.834-2.218-2.167-1.866-3.831.289-1.36 1.49-2.345 3.06-2.503 1.598-.162 3.14.74 3.71 2.202.15.384.213.8.343 1.31h-1.297c-.063-.222-.122-.44-.185-.653-.53-1.772-1.977-1.914-3.207-1.483-1.325.467-1.55 2.507-.391 3.44.502.403 1.13.648 1.716.937.557.277 1.158.475 1.696.783 1.36.783 1.945 2.317 1.546 3.914-.336 1.345-1.503 2.227-3.064 2.318-2.468.142-4.184-1.242-4.251-3.54h.004ZM114.31 34.595h-1.214V21.472h1.226v4.72c.431-.26.664-.395.894-.541 1.613-1.012 3.297-.36 3.736 1.47.111.475.158.974.162 1.46.012 1.87 0 3.736-.011 5.607 0 .094-.04.19-.084.387l-1.15.055c-.024-.419-.059-.794-.063-1.17-.02-1.866-.02-3.736-.06-5.603-.016-.672-.32-1.214-1.008-1.423-.684-.21-1.368-.091-1.779.494-.321.45-.589 1.04-.617 1.578-.079 1.637-.028 3.278-.028 4.915v1.174h-.004ZM82.817 21.44h1.225v7.607l.317.115c.913-1.241 1.827-2.479 2.764-3.748h1.502c-.98 1.32-1.87 2.514-2.803 3.776 1.083 1.78 2.147 3.527 3.274 5.385h-1.463c-.83-1.36-1.693-2.772-2.594-4.254-.49.126-1.17.423-1.17.423s.035 2.598.035 3.823h-1.087V21.44ZM66.617 25.418h1.238v9.15c-.317.023-.629.05-.985.078l-.4-.696c-.13.068-.252.107-.351.182-.886.692-1.91.799-2.875.368-1.024-.459-1.372-1.46-1.388-2.53-.031-2.029-.015-4.061-.015-6.09 0-.126.031-.253.059-.45h1.147c.023.383.063.759.07 1.138.028 1.736 0 3.472.076 5.204.063 1.328.557 1.803 1.61 1.76 1.142-.048 1.806-.76 1.814-1.986.008-1.668 0-3.34 0-5.01v-1.118ZM79.602 31.882h.953c.063 1.278-.783 2.424-1.97 2.737-2.103.553-3.997-.633-4.242-2.788a17.003 17.003 0 0 1-.004-3.725c.234-2.163 2.246-3.384 4.338-2.76 1.245.372 1.921 1.357 1.945 2.926H79.59c-.079-.221-.146-.438-.23-.652-.363-.941-.877-1.332-1.735-1.313-.953.02-1.83.566-1.922 1.51a24.365 24.365 0 0 0-.008 4.299c.076.901.878 1.42 1.827 1.502.85.075 1.451-.304 1.85-1.166.08-.174.147-.36.23-.562v-.008ZM122.262 23.148h1.186l.095 2.068c.415.071.791.138 1.269.217.028.241.055.51.091.838-.455.068-.83.127-1.194.182-.419 1.159-.273 6.212.213 6.967.25.06.534.123.894.206v.886c-1.641.41-2.519-.19-2.574-1.82-.055-1.668-.024-3.34-.032-5.009v-1.162c-.466-.08-.869-.15-1.364-.238l-.051-.834c.478-.079.882-.15 1.356-.23.036-.687.067-1.328.107-2.075l.004.004ZM70.745 25.41h1.12v9.153h-1.12V25.41ZM101.412 34.575h-1.131v-9.161l1.131-.052v9.213Z" fill="#000"/>
    <path d="M56.958 12.551c.22 1.04.158 2.076-.633 2.879-.309.312-.989.538-1.384.419-.388-.115-.79-.68-.898-1.119-.34-1.376.993-2.578 2.915-2.179ZM81.484 12.464c.293.846.182 1.602-.122 2.337-.281.68-.744 1.143-1.542 1.147-.566 0-.953-.293-1.115-.791-.23-.708-.234-1.443.344-2.009.644-.632 1.458-.802 2.44-.68l-.005-.004Z" fill="#fff"/>
    <path d="M100.847 23.409a.7.7 0 1 0 0-1.4.7.7 0 0 0 0 1.4ZM71.303 23.409a.7.7 0 1 0 0-1.4.7.7 0 0 0 0 1.4Z" fill="#000"/>
    <path d="M2.999 2.999h34v6L19.996 26.001V12L3 29V3ZM2 0C.801 0 0 .801 0 2.001v36c0 1.2.801 2.002 2.001 2.002h36c1.2 0 2.002-.801 2.002-2.001v-36C40.003.8 39.202 0 38.002 0h-36Z" fill="#00B7F4"/>
  </g>
  <defs>
    <clipPath id="a">
      <path fill="#fff" d="M0 0h125v40H0z"/>
    </clipPath>
  </defs>
</svg>
